G04 EAGLE Gerber RS-274X export*
G75*
%MOMM*%
%FSLAX34Y34*%
%LPD*%
%INSilkscreen Top*%
%IPPOS*%
%AMOC8*
5,1,8,0,0,1.08239X$1,22.5*%
G01*
%ADD10C,0.152400*%
%ADD11C,0.101600*%
%ADD12R,0.325000X0.425000*%
%ADD13R,0.350000X0.350000*%
%ADD14C,0.203200*%
%ADD15C,0.127000*%
%ADD16C,0.364000*%
%ADD17C,0.254000*%
%ADD18R,0.250000X0.350000*%
%ADD19R,0.350000X0.250000*%
%ADD20C,0.282838*%
%ADD21C,0.177800*%
%ADD22C,0.076200*%

G36*
X693461Y404494D02*
X693461Y404494D01*
X693469Y404494D01*
X693520Y404509D01*
X693727Y404563D01*
X693760Y404583D01*
X693790Y404592D01*
X697790Y406592D01*
X697872Y406649D01*
X697959Y406698D01*
X697989Y406729D01*
X698024Y406753D01*
X698087Y406831D01*
X698157Y406902D01*
X698177Y406940D01*
X698204Y406973D01*
X698243Y407065D01*
X698290Y407153D01*
X698299Y407195D01*
X698316Y407235D01*
X698328Y407334D01*
X698349Y407431D01*
X698346Y407474D01*
X698351Y407517D01*
X698336Y407615D01*
X698328Y407715D01*
X698313Y407755D01*
X698307Y407798D01*
X698264Y407888D01*
X698230Y407981D01*
X698204Y408016D01*
X698186Y408055D01*
X698120Y408130D01*
X698061Y408210D01*
X698030Y408233D01*
X697999Y408269D01*
X697866Y408354D01*
X697859Y408361D01*
X697845Y408368D01*
X697790Y408408D01*
X693790Y410408D01*
X693782Y410411D01*
X693775Y410416D01*
X693647Y410456D01*
X693520Y410498D01*
X693512Y410499D01*
X693504Y410501D01*
X693369Y410505D01*
X693236Y410510D01*
X693228Y410508D01*
X693220Y410509D01*
X693090Y410475D01*
X692960Y410443D01*
X692953Y410439D01*
X692945Y410437D01*
X692830Y410369D01*
X692713Y410302D01*
X692708Y410296D01*
X692700Y410292D01*
X692608Y410194D01*
X692516Y410098D01*
X692512Y410090D01*
X692506Y410084D01*
X692445Y409965D01*
X692382Y409847D01*
X692380Y409839D01*
X692376Y409831D01*
X692368Y409779D01*
X692323Y409569D01*
X692326Y409531D01*
X692321Y409500D01*
X692321Y405500D01*
X692322Y405492D01*
X692321Y405483D01*
X692342Y405351D01*
X692361Y405219D01*
X692364Y405211D01*
X692365Y405202D01*
X692422Y405081D01*
X692477Y404959D01*
X692482Y404953D01*
X692486Y404945D01*
X692574Y404844D01*
X692661Y404742D01*
X692668Y404737D01*
X692673Y404731D01*
X692786Y404659D01*
X692897Y404585D01*
X692905Y404582D01*
X692912Y404577D01*
X693041Y404539D01*
X693168Y404499D01*
X693177Y404499D01*
X693185Y404496D01*
X693319Y404495D01*
X693452Y404491D01*
X693461Y404494D01*
G37*
D10*
X389890Y680480D02*
X389890Y666922D01*
X392602Y664210D01*
X398025Y664210D01*
X400737Y666922D01*
X400737Y680480D01*
X406262Y675057D02*
X406262Y664210D01*
X406262Y675057D02*
X411685Y680480D01*
X417108Y675057D01*
X417108Y664210D01*
X417108Y672345D02*
X406262Y672345D01*
X422633Y664210D02*
X422633Y680480D01*
X430768Y680480D01*
X433480Y677768D01*
X433480Y672345D01*
X430768Y669633D01*
X422633Y669633D01*
X428056Y669633D02*
X433480Y664210D01*
X444428Y664210D02*
X444428Y680480D01*
X439005Y680480D02*
X449851Y680480D01*
D11*
X383208Y725683D02*
X375412Y725683D01*
X379310Y729581D02*
X379310Y721785D01*
X399796Y719836D02*
X399796Y731530D01*
X405643Y731530D01*
X407592Y729581D01*
X407592Y725683D01*
X405643Y723734D01*
X399796Y723734D01*
X403694Y723734D02*
X407592Y719836D01*
X428078Y719836D02*
X428078Y731530D01*
X424180Y731530D02*
X431976Y731530D01*
X41832Y722635D02*
X34036Y722635D01*
X37934Y726533D02*
X37934Y718737D01*
D10*
X50236Y686276D02*
X47696Y683736D01*
X50236Y686276D02*
X52776Y683736D01*
X50236Y706596D02*
X47696Y709136D01*
X50236Y706596D02*
X52776Y709136D01*
X73096Y709136D01*
X75636Y706596D01*
X27376Y709136D02*
X24836Y706596D01*
X27376Y709136D02*
X47696Y709136D01*
X24836Y706596D02*
X24836Y686276D01*
X27376Y683736D01*
X47696Y683736D01*
X52776Y683736D02*
X73096Y683736D01*
X75636Y686276D01*
X75636Y706596D01*
D12*
X68395Y150171D03*
X54645Y150171D03*
D13*
X61520Y154046D03*
D12*
X39679Y149915D03*
X25929Y149915D03*
D13*
X32804Y153790D03*
D14*
X34548Y274764D02*
X89548Y274764D01*
X93048Y253764D02*
X93048Y233764D01*
X89548Y212764D02*
X34548Y212764D01*
X31048Y233764D02*
X31048Y253764D01*
X44548Y243764D02*
X44553Y244193D01*
X44569Y244623D01*
X44595Y245051D01*
X44632Y245479D01*
X44680Y245906D01*
X44737Y246332D01*
X44806Y246756D01*
X44884Y247178D01*
X44973Y247598D01*
X45072Y248016D01*
X45182Y248431D01*
X45302Y248844D01*
X45431Y249253D01*
X45571Y249660D01*
X45721Y250062D01*
X45880Y250461D01*
X46049Y250856D01*
X46228Y251246D01*
X46417Y251632D01*
X46614Y252013D01*
X46821Y252390D01*
X47038Y252761D01*
X47263Y253126D01*
X47497Y253486D01*
X47740Y253841D01*
X47992Y254189D01*
X48252Y254531D01*
X48520Y254866D01*
X48797Y255195D01*
X49081Y255516D01*
X49374Y255831D01*
X49674Y256138D01*
X49981Y256438D01*
X50296Y256731D01*
X50617Y257015D01*
X50946Y257292D01*
X51281Y257560D01*
X51623Y257820D01*
X51971Y258072D01*
X52326Y258315D01*
X52686Y258549D01*
X53051Y258774D01*
X53422Y258991D01*
X53799Y259198D01*
X54180Y259395D01*
X54566Y259584D01*
X54956Y259763D01*
X55351Y259932D01*
X55750Y260091D01*
X56152Y260241D01*
X56559Y260381D01*
X56968Y260510D01*
X57381Y260630D01*
X57796Y260740D01*
X58214Y260839D01*
X58634Y260928D01*
X59056Y261006D01*
X59480Y261075D01*
X59906Y261132D01*
X60333Y261180D01*
X60761Y261217D01*
X61189Y261243D01*
X61619Y261259D01*
X62048Y261264D01*
X62477Y261259D01*
X62907Y261243D01*
X63335Y261217D01*
X63763Y261180D01*
X64190Y261132D01*
X64616Y261075D01*
X65040Y261006D01*
X65462Y260928D01*
X65882Y260839D01*
X66300Y260740D01*
X66715Y260630D01*
X67128Y260510D01*
X67537Y260381D01*
X67944Y260241D01*
X68346Y260091D01*
X68745Y259932D01*
X69140Y259763D01*
X69530Y259584D01*
X69916Y259395D01*
X70297Y259198D01*
X70674Y258991D01*
X71045Y258774D01*
X71410Y258549D01*
X71770Y258315D01*
X72125Y258072D01*
X72473Y257820D01*
X72815Y257560D01*
X73150Y257292D01*
X73479Y257015D01*
X73800Y256731D01*
X74115Y256438D01*
X74422Y256138D01*
X74722Y255831D01*
X75015Y255516D01*
X75299Y255195D01*
X75576Y254866D01*
X75844Y254531D01*
X76104Y254189D01*
X76356Y253841D01*
X76599Y253486D01*
X76833Y253126D01*
X77058Y252761D01*
X77275Y252390D01*
X77482Y252013D01*
X77679Y251632D01*
X77868Y251246D01*
X78047Y250856D01*
X78216Y250461D01*
X78375Y250062D01*
X78525Y249660D01*
X78665Y249253D01*
X78794Y248844D01*
X78914Y248431D01*
X79024Y248016D01*
X79123Y247598D01*
X79212Y247178D01*
X79290Y246756D01*
X79359Y246332D01*
X79416Y245906D01*
X79464Y245479D01*
X79501Y245051D01*
X79527Y244623D01*
X79543Y244193D01*
X79548Y243764D01*
X79543Y243335D01*
X79527Y242905D01*
X79501Y242477D01*
X79464Y242049D01*
X79416Y241622D01*
X79359Y241196D01*
X79290Y240772D01*
X79212Y240350D01*
X79123Y239930D01*
X79024Y239512D01*
X78914Y239097D01*
X78794Y238684D01*
X78665Y238275D01*
X78525Y237868D01*
X78375Y237466D01*
X78216Y237067D01*
X78047Y236672D01*
X77868Y236282D01*
X77679Y235896D01*
X77482Y235515D01*
X77275Y235138D01*
X77058Y234767D01*
X76833Y234402D01*
X76599Y234042D01*
X76356Y233687D01*
X76104Y233339D01*
X75844Y232997D01*
X75576Y232662D01*
X75299Y232333D01*
X75015Y232012D01*
X74722Y231697D01*
X74422Y231390D01*
X74115Y231090D01*
X73800Y230797D01*
X73479Y230513D01*
X73150Y230236D01*
X72815Y229968D01*
X72473Y229708D01*
X72125Y229456D01*
X71770Y229213D01*
X71410Y228979D01*
X71045Y228754D01*
X70674Y228537D01*
X70297Y228330D01*
X69916Y228133D01*
X69530Y227944D01*
X69140Y227765D01*
X68745Y227596D01*
X68346Y227437D01*
X67944Y227287D01*
X67537Y227147D01*
X67128Y227018D01*
X66715Y226898D01*
X66300Y226788D01*
X65882Y226689D01*
X65462Y226600D01*
X65040Y226522D01*
X64616Y226453D01*
X64190Y226396D01*
X63763Y226348D01*
X63335Y226311D01*
X62907Y226285D01*
X62477Y226269D01*
X62048Y226264D01*
X61619Y226269D01*
X61189Y226285D01*
X60761Y226311D01*
X60333Y226348D01*
X59906Y226396D01*
X59480Y226453D01*
X59056Y226522D01*
X58634Y226600D01*
X58214Y226689D01*
X57796Y226788D01*
X57381Y226898D01*
X56968Y227018D01*
X56559Y227147D01*
X56152Y227287D01*
X55750Y227437D01*
X55351Y227596D01*
X54956Y227765D01*
X54566Y227944D01*
X54180Y228133D01*
X53799Y228330D01*
X53422Y228537D01*
X53051Y228754D01*
X52686Y228979D01*
X52326Y229213D01*
X51971Y229456D01*
X51623Y229708D01*
X51281Y229968D01*
X50946Y230236D01*
X50617Y230513D01*
X50296Y230797D01*
X49981Y231090D01*
X49674Y231390D01*
X49374Y231697D01*
X49081Y232012D01*
X48797Y232333D01*
X48520Y232662D01*
X48252Y232997D01*
X47992Y233339D01*
X47740Y233687D01*
X47497Y234042D01*
X47263Y234402D01*
X47038Y234767D01*
X46821Y235138D01*
X46614Y235515D01*
X46417Y235896D01*
X46228Y236282D01*
X46049Y236672D01*
X45880Y237067D01*
X45721Y237466D01*
X45571Y237868D01*
X45431Y238275D01*
X45302Y238684D01*
X45182Y239097D01*
X45072Y239512D01*
X44973Y239930D01*
X44884Y240350D01*
X44806Y240772D01*
X44737Y241196D01*
X44680Y241622D01*
X44632Y242049D01*
X44595Y242477D01*
X44569Y242905D01*
X44553Y243335D01*
X44548Y243764D01*
X34972Y346308D02*
X89972Y346308D01*
X93472Y325308D02*
X93472Y305308D01*
X89972Y284308D02*
X34972Y284308D01*
X31472Y305308D02*
X31472Y325308D01*
X44972Y315308D02*
X44977Y315737D01*
X44993Y316167D01*
X45019Y316595D01*
X45056Y317023D01*
X45104Y317450D01*
X45161Y317876D01*
X45230Y318300D01*
X45308Y318722D01*
X45397Y319142D01*
X45496Y319560D01*
X45606Y319975D01*
X45726Y320388D01*
X45855Y320797D01*
X45995Y321204D01*
X46145Y321606D01*
X46304Y322005D01*
X46473Y322400D01*
X46652Y322790D01*
X46841Y323176D01*
X47038Y323557D01*
X47245Y323934D01*
X47462Y324305D01*
X47687Y324670D01*
X47921Y325030D01*
X48164Y325385D01*
X48416Y325733D01*
X48676Y326075D01*
X48944Y326410D01*
X49221Y326739D01*
X49505Y327060D01*
X49798Y327375D01*
X50098Y327682D01*
X50405Y327982D01*
X50720Y328275D01*
X51041Y328559D01*
X51370Y328836D01*
X51705Y329104D01*
X52047Y329364D01*
X52395Y329616D01*
X52750Y329859D01*
X53110Y330093D01*
X53475Y330318D01*
X53846Y330535D01*
X54223Y330742D01*
X54604Y330939D01*
X54990Y331128D01*
X55380Y331307D01*
X55775Y331476D01*
X56174Y331635D01*
X56576Y331785D01*
X56983Y331925D01*
X57392Y332054D01*
X57805Y332174D01*
X58220Y332284D01*
X58638Y332383D01*
X59058Y332472D01*
X59480Y332550D01*
X59904Y332619D01*
X60330Y332676D01*
X60757Y332724D01*
X61185Y332761D01*
X61613Y332787D01*
X62043Y332803D01*
X62472Y332808D01*
X62901Y332803D01*
X63331Y332787D01*
X63759Y332761D01*
X64187Y332724D01*
X64614Y332676D01*
X65040Y332619D01*
X65464Y332550D01*
X65886Y332472D01*
X66306Y332383D01*
X66724Y332284D01*
X67139Y332174D01*
X67552Y332054D01*
X67961Y331925D01*
X68368Y331785D01*
X68770Y331635D01*
X69169Y331476D01*
X69564Y331307D01*
X69954Y331128D01*
X70340Y330939D01*
X70721Y330742D01*
X71098Y330535D01*
X71469Y330318D01*
X71834Y330093D01*
X72194Y329859D01*
X72549Y329616D01*
X72897Y329364D01*
X73239Y329104D01*
X73574Y328836D01*
X73903Y328559D01*
X74224Y328275D01*
X74539Y327982D01*
X74846Y327682D01*
X75146Y327375D01*
X75439Y327060D01*
X75723Y326739D01*
X76000Y326410D01*
X76268Y326075D01*
X76528Y325733D01*
X76780Y325385D01*
X77023Y325030D01*
X77257Y324670D01*
X77482Y324305D01*
X77699Y323934D01*
X77906Y323557D01*
X78103Y323176D01*
X78292Y322790D01*
X78471Y322400D01*
X78640Y322005D01*
X78799Y321606D01*
X78949Y321204D01*
X79089Y320797D01*
X79218Y320388D01*
X79338Y319975D01*
X79448Y319560D01*
X79547Y319142D01*
X79636Y318722D01*
X79714Y318300D01*
X79783Y317876D01*
X79840Y317450D01*
X79888Y317023D01*
X79925Y316595D01*
X79951Y316167D01*
X79967Y315737D01*
X79972Y315308D01*
X79967Y314879D01*
X79951Y314449D01*
X79925Y314021D01*
X79888Y313593D01*
X79840Y313166D01*
X79783Y312740D01*
X79714Y312316D01*
X79636Y311894D01*
X79547Y311474D01*
X79448Y311056D01*
X79338Y310641D01*
X79218Y310228D01*
X79089Y309819D01*
X78949Y309412D01*
X78799Y309010D01*
X78640Y308611D01*
X78471Y308216D01*
X78292Y307826D01*
X78103Y307440D01*
X77906Y307059D01*
X77699Y306682D01*
X77482Y306311D01*
X77257Y305946D01*
X77023Y305586D01*
X76780Y305231D01*
X76528Y304883D01*
X76268Y304541D01*
X76000Y304206D01*
X75723Y303877D01*
X75439Y303556D01*
X75146Y303241D01*
X74846Y302934D01*
X74539Y302634D01*
X74224Y302341D01*
X73903Y302057D01*
X73574Y301780D01*
X73239Y301512D01*
X72897Y301252D01*
X72549Y301000D01*
X72194Y300757D01*
X71834Y300523D01*
X71469Y300298D01*
X71098Y300081D01*
X70721Y299874D01*
X70340Y299677D01*
X69954Y299488D01*
X69564Y299309D01*
X69169Y299140D01*
X68770Y298981D01*
X68368Y298831D01*
X67961Y298691D01*
X67552Y298562D01*
X67139Y298442D01*
X66724Y298332D01*
X66306Y298233D01*
X65886Y298144D01*
X65464Y298066D01*
X65040Y297997D01*
X64614Y297940D01*
X64187Y297892D01*
X63759Y297855D01*
X63331Y297829D01*
X62901Y297813D01*
X62472Y297808D01*
X62043Y297813D01*
X61613Y297829D01*
X61185Y297855D01*
X60757Y297892D01*
X60330Y297940D01*
X59904Y297997D01*
X59480Y298066D01*
X59058Y298144D01*
X58638Y298233D01*
X58220Y298332D01*
X57805Y298442D01*
X57392Y298562D01*
X56983Y298691D01*
X56576Y298831D01*
X56174Y298981D01*
X55775Y299140D01*
X55380Y299309D01*
X54990Y299488D01*
X54604Y299677D01*
X54223Y299874D01*
X53846Y300081D01*
X53475Y300298D01*
X53110Y300523D01*
X52750Y300757D01*
X52395Y301000D01*
X52047Y301252D01*
X51705Y301512D01*
X51370Y301780D01*
X51041Y302057D01*
X50720Y302341D01*
X50405Y302634D01*
X50098Y302934D01*
X49798Y303241D01*
X49505Y303556D01*
X49221Y303877D01*
X48944Y304206D01*
X48676Y304541D01*
X48416Y304883D01*
X48164Y305231D01*
X47921Y305586D01*
X47687Y305946D01*
X47462Y306311D01*
X47245Y306682D01*
X47038Y307059D01*
X46841Y307440D01*
X46652Y307826D01*
X46473Y308216D01*
X46304Y308611D01*
X46145Y309010D01*
X45995Y309412D01*
X45855Y309819D01*
X45726Y310228D01*
X45606Y310641D01*
X45496Y311056D01*
X45397Y311474D01*
X45308Y311894D01*
X45230Y312316D01*
X45161Y312740D01*
X45104Y313166D01*
X45056Y313593D01*
X45019Y314021D01*
X44993Y314449D01*
X44977Y314879D01*
X44972Y315308D01*
D15*
X81622Y392486D02*
X81622Y476986D01*
X120922Y476986D01*
X120922Y392486D01*
X81622Y392486D01*
X113224Y397906D02*
X113226Y398001D01*
X113232Y398096D01*
X113242Y398191D01*
X113256Y398285D01*
X113274Y398378D01*
X113295Y398471D01*
X113321Y398563D01*
X113350Y398653D01*
X113384Y398742D01*
X113420Y398830D01*
X113461Y398916D01*
X113505Y399001D01*
X113553Y399083D01*
X113604Y399163D01*
X113658Y399241D01*
X113715Y399317D01*
X113776Y399391D01*
X113840Y399461D01*
X113906Y399529D01*
X113976Y399594D01*
X114048Y399657D01*
X114122Y399716D01*
X114199Y399772D01*
X114279Y399824D01*
X114360Y399874D01*
X114443Y399919D01*
X114529Y399962D01*
X114616Y400000D01*
X114704Y400036D01*
X114794Y400067D01*
X114885Y400094D01*
X114977Y400118D01*
X115070Y400138D01*
X115164Y400154D01*
X115259Y400166D01*
X115353Y400174D01*
X115448Y400178D01*
X115544Y400178D01*
X115639Y400174D01*
X115733Y400166D01*
X115828Y400154D01*
X115922Y400138D01*
X116015Y400118D01*
X116107Y400094D01*
X116198Y400067D01*
X116288Y400036D01*
X116376Y400000D01*
X116463Y399962D01*
X116549Y399919D01*
X116632Y399874D01*
X116713Y399824D01*
X116793Y399772D01*
X116870Y399716D01*
X116944Y399657D01*
X117016Y399594D01*
X117086Y399529D01*
X117152Y399461D01*
X117216Y399391D01*
X117277Y399317D01*
X117334Y399241D01*
X117388Y399163D01*
X117439Y399083D01*
X117487Y399001D01*
X117531Y398916D01*
X117572Y398830D01*
X117608Y398742D01*
X117642Y398653D01*
X117671Y398563D01*
X117697Y398471D01*
X117718Y398378D01*
X117736Y398285D01*
X117750Y398191D01*
X117760Y398096D01*
X117766Y398001D01*
X117768Y397906D01*
X117766Y397811D01*
X117760Y397716D01*
X117750Y397621D01*
X117736Y397527D01*
X117718Y397434D01*
X117697Y397341D01*
X117671Y397249D01*
X117642Y397159D01*
X117608Y397070D01*
X117572Y396982D01*
X117531Y396896D01*
X117487Y396811D01*
X117439Y396729D01*
X117388Y396649D01*
X117334Y396571D01*
X117277Y396495D01*
X117216Y396421D01*
X117152Y396351D01*
X117086Y396283D01*
X117016Y396218D01*
X116944Y396155D01*
X116870Y396096D01*
X116793Y396040D01*
X116713Y395988D01*
X116632Y395938D01*
X116549Y395893D01*
X116463Y395850D01*
X116376Y395812D01*
X116288Y395776D01*
X116198Y395745D01*
X116107Y395718D01*
X116015Y395694D01*
X115922Y395674D01*
X115828Y395658D01*
X115733Y395646D01*
X115639Y395638D01*
X115544Y395634D01*
X115448Y395634D01*
X115353Y395638D01*
X115259Y395646D01*
X115164Y395658D01*
X115070Y395674D01*
X114977Y395694D01*
X114885Y395718D01*
X114794Y395745D01*
X114704Y395776D01*
X114616Y395812D01*
X114529Y395850D01*
X114443Y395893D01*
X114360Y395938D01*
X114279Y395988D01*
X114199Y396040D01*
X114122Y396096D01*
X114048Y396155D01*
X113976Y396218D01*
X113906Y396283D01*
X113840Y396351D01*
X113776Y396421D01*
X113715Y396495D01*
X113658Y396571D01*
X113604Y396649D01*
X113553Y396729D01*
X113505Y396811D01*
X113461Y396896D01*
X113420Y396982D01*
X113384Y397070D01*
X113350Y397159D01*
X113321Y397249D01*
X113295Y397341D01*
X113274Y397434D01*
X113256Y397527D01*
X113242Y397621D01*
X113232Y397716D01*
X113226Y397811D01*
X113224Y397906D01*
D14*
X524940Y312176D02*
X545940Y312176D01*
X506440Y325676D02*
X506440Y331676D01*
X524940Y345176D02*
X545940Y345176D01*
X564440Y331676D02*
X564440Y325676D01*
D16*
X555940Y330676D03*
D14*
X87132Y537436D02*
X43132Y537436D01*
X87132Y537436D02*
X87132Y521936D01*
X87132Y499936D02*
X87132Y484436D01*
X43132Y484436D01*
X34132Y493436D02*
X34132Y499936D01*
X34132Y521936D02*
X34132Y528436D01*
X43132Y537436D01*
X34132Y493436D02*
X43132Y484436D01*
X38632Y520436D02*
X38871Y520972D01*
X39123Y521502D01*
X39388Y522025D01*
X39666Y522542D01*
X39957Y523052D01*
X40259Y523555D01*
X40574Y524050D01*
X40902Y524537D01*
X41241Y525016D01*
X41591Y525486D01*
X41953Y525948D01*
X42326Y526401D01*
X42710Y526845D01*
X43105Y527279D01*
X43511Y527703D01*
X43926Y528117D01*
X44352Y528521D01*
X44788Y528915D01*
X45233Y529297D01*
X45687Y529669D01*
X46150Y530029D01*
X46622Y530378D01*
X47102Y530715D01*
X47590Y531040D01*
X48086Y531354D01*
X48590Y531655D01*
X49101Y531943D01*
X49619Y532219D01*
X50143Y532483D01*
X50674Y532733D01*
X51211Y532970D01*
X51753Y533194D01*
X52301Y533405D01*
X52853Y533602D01*
X53411Y533786D01*
X53972Y533956D01*
X54538Y534112D01*
X55107Y534254D01*
X55680Y534383D01*
X56256Y534497D01*
X56834Y534597D01*
X57414Y534683D01*
X57997Y534755D01*
X58581Y534812D01*
X59166Y534855D01*
X59752Y534884D01*
X60339Y534898D01*
X60925Y534898D01*
X61512Y534884D01*
X62098Y534855D01*
X62683Y534812D01*
X63267Y534755D01*
X63850Y534683D01*
X64430Y534597D01*
X65008Y534497D01*
X65584Y534383D01*
X66157Y534254D01*
X66726Y534112D01*
X67292Y533956D01*
X67853Y533786D01*
X68411Y533602D01*
X68963Y533405D01*
X69511Y533194D01*
X70053Y532970D01*
X70590Y532733D01*
X71121Y532483D01*
X71645Y532219D01*
X72163Y531943D01*
X72674Y531655D01*
X73178Y531354D01*
X73674Y531040D01*
X74162Y530715D01*
X74642Y530378D01*
X75114Y530029D01*
X75577Y529669D01*
X76031Y529297D01*
X76476Y528915D01*
X76912Y528521D01*
X77338Y528117D01*
X77753Y527703D01*
X78159Y527279D01*
X78554Y526845D01*
X78938Y526401D01*
X79311Y525948D01*
X79673Y525486D01*
X80023Y525016D01*
X80362Y524537D01*
X80690Y524050D01*
X81005Y523555D01*
X81307Y523052D01*
X81598Y522542D01*
X81876Y522025D01*
X82141Y521502D01*
X82393Y520972D01*
X82632Y520436D01*
X82632Y501436D02*
X82393Y500900D01*
X82141Y500370D01*
X81876Y499847D01*
X81598Y499330D01*
X81307Y498820D01*
X81005Y498317D01*
X80690Y497822D01*
X80362Y497335D01*
X80023Y496856D01*
X79673Y496386D01*
X79311Y495924D01*
X78938Y495471D01*
X78554Y495027D01*
X78159Y494593D01*
X77753Y494169D01*
X77338Y493755D01*
X76912Y493351D01*
X76476Y492957D01*
X76031Y492575D01*
X75577Y492203D01*
X75114Y491843D01*
X74642Y491494D01*
X74162Y491157D01*
X73674Y490832D01*
X73178Y490518D01*
X72674Y490217D01*
X72163Y489929D01*
X71645Y489653D01*
X71121Y489389D01*
X70590Y489139D01*
X70053Y488902D01*
X69511Y488678D01*
X68963Y488467D01*
X68411Y488270D01*
X67853Y488086D01*
X67292Y487916D01*
X66726Y487760D01*
X66157Y487618D01*
X65584Y487489D01*
X65008Y487375D01*
X64430Y487275D01*
X63850Y487189D01*
X63267Y487117D01*
X62683Y487060D01*
X62098Y487017D01*
X61512Y486988D01*
X60925Y486974D01*
X60339Y486974D01*
X59752Y486988D01*
X59166Y487017D01*
X58581Y487060D01*
X57997Y487117D01*
X57414Y487189D01*
X56834Y487275D01*
X56256Y487375D01*
X55680Y487489D01*
X55107Y487618D01*
X54538Y487760D01*
X53972Y487916D01*
X53411Y488086D01*
X52853Y488270D01*
X52301Y488467D01*
X51753Y488678D01*
X51211Y488902D01*
X50674Y489139D01*
X50143Y489389D01*
X49619Y489653D01*
X49101Y489929D01*
X48590Y490217D01*
X48086Y490518D01*
X47590Y490832D01*
X47102Y491157D01*
X46622Y491494D01*
X46150Y491843D01*
X45687Y492203D01*
X45233Y492575D01*
X44788Y492957D01*
X44352Y493351D01*
X43926Y493755D01*
X43511Y494169D01*
X43105Y494593D01*
X42710Y495027D01*
X42326Y495471D01*
X41953Y495924D01*
X41591Y496386D01*
X41241Y496856D01*
X40902Y497335D01*
X40574Y497822D01*
X40259Y498317D01*
X39957Y498820D01*
X39666Y499330D01*
X39388Y499847D01*
X39123Y500370D01*
X38871Y500900D01*
X38632Y501436D01*
D11*
X40319Y631472D02*
X63410Y631472D01*
X63322Y631474D01*
X63234Y631479D01*
X63146Y631489D01*
X63059Y631502D01*
X62973Y631519D01*
X62887Y631539D01*
X62802Y631563D01*
X62718Y631591D01*
X62636Y631622D01*
X62555Y631656D01*
X62475Y631694D01*
X62398Y631736D01*
X62322Y631780D01*
X62247Y631828D01*
X62176Y631879D01*
X62106Y631933D01*
X62038Y631990D01*
X61974Y632049D01*
X61911Y632112D01*
X61852Y632176D01*
X61795Y632244D01*
X61741Y632314D01*
X61690Y632385D01*
X61642Y632460D01*
X61598Y632536D01*
X61556Y632613D01*
X61518Y632693D01*
X61484Y632774D01*
X61453Y632856D01*
X61425Y632940D01*
X61401Y633025D01*
X61381Y633111D01*
X61364Y633197D01*
X61351Y633284D01*
X61341Y633372D01*
X61336Y633460D01*
X61334Y633548D01*
X61334Y635106D01*
X-3038Y554642D02*
X-3038Y554641D01*
X-3038Y554642D02*
X-3038Y631472D01*
X10459Y620570D02*
X37973Y622647D01*
X10459Y620570D02*
X10352Y620559D01*
X10246Y620546D01*
X10141Y620528D01*
X10036Y620506D01*
X9932Y620481D01*
X9829Y620452D01*
X9727Y620419D01*
X9627Y620383D01*
X9528Y620342D01*
X9430Y620299D01*
X9334Y620252D01*
X9240Y620201D01*
X9147Y620147D01*
X9057Y620090D01*
X8969Y620029D01*
X8883Y619965D01*
X8800Y619898D01*
X8719Y619829D01*
X8640Y619756D01*
X8564Y619680D01*
X8491Y619602D01*
X8421Y619521D01*
X8354Y619438D01*
X8290Y619352D01*
X8229Y619265D01*
X8172Y619174D01*
X8117Y619082D01*
X8066Y618988D01*
X8019Y618892D01*
X7975Y618795D01*
X7934Y618696D01*
X7897Y618596D01*
X7864Y618494D01*
X7799Y618272D01*
X7739Y618048D01*
X7684Y617823D01*
X7635Y617596D01*
X7591Y617369D01*
X7552Y617140D01*
X7519Y616911D01*
X7492Y616680D01*
X7470Y616450D01*
X7453Y616218D01*
X7442Y615987D01*
X7437Y615755D01*
X7437Y615523D01*
X7442Y615291D01*
X7453Y615060D01*
X7470Y614828D01*
X7492Y614598D01*
X7519Y614367D01*
X7552Y614138D01*
X7591Y613909D01*
X7635Y613682D01*
X7684Y613455D01*
X7739Y613230D01*
X7799Y613006D01*
X7864Y612784D01*
X7864Y612783D02*
X7897Y612681D01*
X7934Y612581D01*
X7975Y612482D01*
X8019Y612385D01*
X8066Y612289D01*
X8117Y612195D01*
X8172Y612103D01*
X8229Y612012D01*
X8290Y611925D01*
X8354Y611839D01*
X8421Y611756D01*
X8491Y611675D01*
X8564Y611597D01*
X8640Y611521D01*
X8719Y611448D01*
X8800Y611379D01*
X8883Y611312D01*
X8969Y611248D01*
X9057Y611187D01*
X9147Y611130D01*
X9240Y611076D01*
X9334Y611025D01*
X9430Y610978D01*
X9528Y610935D01*
X9627Y610894D01*
X9727Y610858D01*
X9829Y610825D01*
X9932Y610796D01*
X10036Y610771D01*
X10141Y610749D01*
X10246Y610731D01*
X10352Y610718D01*
X10459Y610707D01*
X37973Y608111D01*
X37973Y610188D01*
X14093Y612783D01*
X14093Y617975D01*
X37973Y620570D01*
X37973Y622647D01*
X86771Y623166D02*
X90405Y623166D01*
X61853Y610707D02*
X61853Y575406D01*
X66525Y574887D02*
X66525Y611226D01*
X66523Y611314D01*
X66518Y611402D01*
X66508Y611490D01*
X66495Y611577D01*
X66479Y611663D01*
X66458Y611749D01*
X66434Y611834D01*
X66407Y611918D01*
X66376Y612000D01*
X66341Y612081D01*
X66303Y612161D01*
X66262Y612239D01*
X66217Y612315D01*
X66169Y612389D01*
X66118Y612461D01*
X66065Y612530D01*
X66008Y612598D01*
X65948Y612663D01*
X65886Y612725D01*
X65821Y612785D01*
X65753Y612842D01*
X65684Y612895D01*
X65612Y612946D01*
X65538Y612994D01*
X65462Y613039D01*
X65384Y613080D01*
X65304Y613118D01*
X65223Y613153D01*
X65141Y613184D01*
X65057Y613211D01*
X64972Y613235D01*
X64886Y613256D01*
X64800Y613272D01*
X64713Y613285D01*
X64625Y613295D01*
X64537Y613300D01*
X64449Y613302D01*
X64448Y613302D01*
X64349Y613300D01*
X64249Y613294D01*
X64150Y613285D01*
X64052Y613271D01*
X63954Y613254D01*
X63857Y613234D01*
X63760Y613209D01*
X63665Y613181D01*
X63571Y613149D01*
X63478Y613114D01*
X63387Y613075D01*
X63297Y613032D01*
X63209Y612986D01*
X63122Y612937D01*
X63038Y612885D01*
X62955Y612829D01*
X62875Y612770D01*
X62797Y612709D01*
X62722Y612644D01*
X62649Y612576D01*
X62579Y612506D01*
X62511Y612433D01*
X62446Y612358D01*
X62385Y612280D01*
X62326Y612200D01*
X62270Y612117D01*
X62218Y612033D01*
X62169Y611946D01*
X62123Y611858D01*
X62080Y611768D01*
X62041Y611677D01*
X62006Y611584D01*
X61974Y611490D01*
X61946Y611395D01*
X61921Y611298D01*
X61901Y611201D01*
X61884Y611103D01*
X61870Y611005D01*
X61861Y610906D01*
X61855Y610806D01*
X61853Y610707D01*
X71717Y572810D02*
X90405Y572810D01*
X50952Y603439D02*
X10460Y605515D01*
X50952Y603439D02*
X51044Y603432D01*
X51135Y603421D01*
X51226Y603407D01*
X51316Y603388D01*
X51405Y603366D01*
X51493Y603340D01*
X51580Y603311D01*
X51666Y603278D01*
X51750Y603241D01*
X51832Y603201D01*
X51913Y603158D01*
X51992Y603111D01*
X52069Y603061D01*
X52144Y603008D01*
X52217Y602951D01*
X52287Y602892D01*
X52354Y602830D01*
X52419Y602765D01*
X52482Y602697D01*
X52541Y602627D01*
X52597Y602554D01*
X52650Y602480D01*
X52700Y602402D01*
X52747Y602323D01*
X52791Y602243D01*
X52831Y602160D01*
X52867Y602076D01*
X52900Y601990D01*
X52930Y601903D01*
X52955Y601815D01*
X52977Y601725D01*
X52996Y601635D01*
X53010Y601545D01*
X53021Y601454D01*
X53028Y601362D01*
X10459Y605515D02*
X10371Y605513D01*
X10283Y605508D01*
X10195Y605498D01*
X10108Y605485D01*
X10022Y605468D01*
X9936Y605448D01*
X9851Y605424D01*
X9767Y605396D01*
X9685Y605365D01*
X9604Y605331D01*
X9524Y605293D01*
X9447Y605251D01*
X9371Y605207D01*
X9296Y605159D01*
X9225Y605108D01*
X9155Y605054D01*
X9087Y604997D01*
X9023Y604938D01*
X8960Y604875D01*
X8901Y604811D01*
X8844Y604743D01*
X8790Y604673D01*
X8739Y604602D01*
X8691Y604527D01*
X8647Y604451D01*
X8605Y604374D01*
X8567Y604294D01*
X8533Y604213D01*
X8502Y604131D01*
X8474Y604047D01*
X8450Y603962D01*
X8430Y603876D01*
X8413Y603790D01*
X8400Y603703D01*
X8390Y603615D01*
X8385Y603527D01*
X8383Y603439D01*
X8383Y603438D01*
X8385Y603350D01*
X8390Y603262D01*
X8400Y603174D01*
X8413Y603087D01*
X8430Y603001D01*
X8450Y602915D01*
X8474Y602830D01*
X8502Y602746D01*
X8533Y602664D01*
X8567Y602583D01*
X8605Y602503D01*
X8647Y602426D01*
X8691Y602350D01*
X8739Y602275D01*
X8790Y602204D01*
X8844Y602134D01*
X8901Y602066D01*
X8960Y602002D01*
X9023Y601939D01*
X9087Y601880D01*
X9155Y601823D01*
X9225Y601769D01*
X9296Y601718D01*
X9371Y601670D01*
X9447Y601626D01*
X9524Y601584D01*
X9604Y601546D01*
X9685Y601512D01*
X9767Y601481D01*
X9851Y601453D01*
X9936Y601429D01*
X10022Y601409D01*
X10108Y601392D01*
X10195Y601379D01*
X10283Y601369D01*
X10371Y601364D01*
X10459Y601362D01*
X44722Y599286D01*
X63410Y554642D02*
X63322Y554640D01*
X63234Y554635D01*
X63146Y554625D01*
X63059Y554612D01*
X62973Y554595D01*
X62887Y554575D01*
X62802Y554551D01*
X62718Y554523D01*
X62636Y554492D01*
X62555Y554458D01*
X62475Y554420D01*
X62398Y554378D01*
X62322Y554334D01*
X62247Y554286D01*
X62176Y554235D01*
X62106Y554181D01*
X62038Y554124D01*
X61974Y554065D01*
X61911Y554002D01*
X61852Y553938D01*
X61795Y553870D01*
X61741Y553800D01*
X61690Y553729D01*
X61642Y553654D01*
X61598Y553578D01*
X61556Y553501D01*
X61518Y553421D01*
X61484Y553340D01*
X61453Y553258D01*
X61425Y553174D01*
X61401Y553089D01*
X61381Y553003D01*
X61364Y552917D01*
X61351Y552830D01*
X61341Y552742D01*
X61336Y552654D01*
X61334Y552566D01*
X61334Y551008D01*
X37973Y563467D02*
X10459Y565544D01*
X10352Y565555D01*
X10246Y565568D01*
X10141Y565586D01*
X10036Y565608D01*
X9932Y565633D01*
X9829Y565662D01*
X9727Y565695D01*
X9627Y565731D01*
X9528Y565772D01*
X9430Y565815D01*
X9334Y565862D01*
X9240Y565913D01*
X9147Y565967D01*
X9057Y566024D01*
X8969Y566085D01*
X8883Y566149D01*
X8800Y566216D01*
X8719Y566285D01*
X8640Y566358D01*
X8564Y566434D01*
X8491Y566512D01*
X8421Y566593D01*
X8354Y566676D01*
X8290Y566762D01*
X8229Y566849D01*
X8172Y566940D01*
X8117Y567032D01*
X8066Y567126D01*
X8019Y567222D01*
X7975Y567319D01*
X7934Y567418D01*
X7897Y567518D01*
X7864Y567620D01*
X7864Y567621D02*
X7799Y567843D01*
X7739Y568067D01*
X7684Y568292D01*
X7635Y568519D01*
X7591Y568746D01*
X7552Y568975D01*
X7519Y569204D01*
X7492Y569435D01*
X7470Y569665D01*
X7453Y569897D01*
X7442Y570128D01*
X7437Y570360D01*
X7437Y570592D01*
X7442Y570824D01*
X7453Y571055D01*
X7470Y571287D01*
X7492Y571517D01*
X7519Y571748D01*
X7552Y571977D01*
X7591Y572206D01*
X7635Y572433D01*
X7684Y572660D01*
X7739Y572885D01*
X7799Y573109D01*
X7864Y573331D01*
X7897Y573433D01*
X7934Y573533D01*
X7975Y573632D01*
X8019Y573729D01*
X8066Y573825D01*
X8117Y573919D01*
X8172Y574011D01*
X8229Y574102D01*
X8290Y574189D01*
X8354Y574275D01*
X8421Y574358D01*
X8491Y574439D01*
X8564Y574517D01*
X8640Y574593D01*
X8719Y574666D01*
X8800Y574735D01*
X8883Y574802D01*
X8969Y574866D01*
X9057Y574927D01*
X9147Y574984D01*
X9240Y575038D01*
X9334Y575089D01*
X9430Y575136D01*
X9528Y575179D01*
X9627Y575220D01*
X9727Y575256D01*
X9829Y575289D01*
X9932Y575318D01*
X10036Y575343D01*
X10141Y575365D01*
X10246Y575383D01*
X10352Y575396D01*
X10459Y575407D01*
X37973Y578003D01*
X37973Y575926D01*
X14093Y573331D01*
X14093Y568139D01*
X37973Y565544D01*
X37973Y563467D01*
X86771Y562948D02*
X90405Y562948D01*
X66525Y574888D02*
X66523Y574800D01*
X66518Y574712D01*
X66508Y574624D01*
X66495Y574537D01*
X66479Y574451D01*
X66458Y574365D01*
X66434Y574280D01*
X66407Y574196D01*
X66376Y574114D01*
X66341Y574033D01*
X66303Y573953D01*
X66262Y573875D01*
X66217Y573799D01*
X66169Y573725D01*
X66118Y573653D01*
X66065Y573584D01*
X66008Y573516D01*
X65948Y573451D01*
X65886Y573389D01*
X65821Y573329D01*
X65753Y573272D01*
X65684Y573219D01*
X65612Y573168D01*
X65538Y573120D01*
X65462Y573075D01*
X65384Y573034D01*
X65304Y572996D01*
X65223Y572961D01*
X65141Y572930D01*
X65057Y572903D01*
X64972Y572879D01*
X64886Y572858D01*
X64800Y572842D01*
X64713Y572829D01*
X64625Y572819D01*
X64537Y572814D01*
X64449Y572812D01*
X64448Y572812D02*
X64349Y572814D01*
X64249Y572820D01*
X64151Y572829D01*
X64052Y572843D01*
X63954Y572860D01*
X63857Y572881D01*
X63761Y572905D01*
X63665Y572934D01*
X63571Y572965D01*
X63478Y573001D01*
X63387Y573040D01*
X63297Y573082D01*
X63209Y573128D01*
X63123Y573177D01*
X63038Y573230D01*
X62956Y573285D01*
X62876Y573344D01*
X62798Y573406D01*
X62722Y573471D01*
X62649Y573538D01*
X62579Y573608D01*
X62512Y573681D01*
X62447Y573757D01*
X62385Y573835D01*
X62326Y573915D01*
X62271Y573997D01*
X62218Y574082D01*
X62169Y574168D01*
X62123Y574256D01*
X62081Y574346D01*
X62042Y574437D01*
X62006Y574530D01*
X61975Y574624D01*
X61946Y574720D01*
X61922Y574816D01*
X61901Y574913D01*
X61884Y575011D01*
X61870Y575110D01*
X61861Y575208D01*
X61855Y575308D01*
X61853Y575407D01*
X71717Y613304D02*
X90405Y613304D01*
X50952Y582675D02*
X10460Y580599D01*
X50952Y582675D02*
X51044Y582682D01*
X51135Y582693D01*
X51225Y582708D01*
X51315Y582726D01*
X51405Y582748D01*
X51493Y582774D01*
X51580Y582803D01*
X51665Y582836D01*
X51750Y582873D01*
X51832Y582913D01*
X51913Y582957D01*
X51992Y583003D01*
X52069Y583053D01*
X52144Y583107D01*
X52217Y583163D01*
X52287Y583222D01*
X52354Y583285D01*
X52419Y583350D01*
X52481Y583417D01*
X52541Y583487D01*
X52597Y583560D01*
X52650Y583635D01*
X52700Y583712D01*
X52747Y583791D01*
X52790Y583872D01*
X52830Y583954D01*
X52867Y584039D01*
X52900Y584124D01*
X52929Y584211D01*
X52955Y584299D01*
X52977Y584389D01*
X52996Y584479D01*
X53010Y584569D01*
X53021Y584660D01*
X53028Y584752D01*
X53028Y601363D01*
X10459Y580599D02*
X10371Y580601D01*
X10283Y580606D01*
X10195Y580616D01*
X10108Y580629D01*
X10022Y580646D01*
X9936Y580666D01*
X9851Y580690D01*
X9767Y580718D01*
X9685Y580749D01*
X9604Y580783D01*
X9524Y580821D01*
X9447Y580863D01*
X9371Y580907D01*
X9296Y580955D01*
X9225Y581006D01*
X9155Y581060D01*
X9087Y581117D01*
X9023Y581176D01*
X8960Y581239D01*
X8901Y581303D01*
X8844Y581371D01*
X8790Y581441D01*
X8739Y581512D01*
X8691Y581587D01*
X8647Y581663D01*
X8605Y581740D01*
X8567Y581820D01*
X8533Y581901D01*
X8502Y581983D01*
X8474Y582067D01*
X8450Y582152D01*
X8430Y582238D01*
X8413Y582324D01*
X8400Y582411D01*
X8390Y582499D01*
X8385Y582587D01*
X8383Y582675D01*
X8383Y582676D02*
X8385Y582764D01*
X8390Y582852D01*
X8400Y582940D01*
X8413Y583027D01*
X8430Y583113D01*
X8450Y583199D01*
X8474Y583284D01*
X8502Y583368D01*
X8533Y583450D01*
X8567Y583531D01*
X8605Y583611D01*
X8647Y583688D01*
X8691Y583764D01*
X8739Y583839D01*
X8790Y583910D01*
X8844Y583980D01*
X8901Y584048D01*
X8960Y584112D01*
X9023Y584175D01*
X9087Y584234D01*
X9155Y584291D01*
X9225Y584345D01*
X9296Y584396D01*
X9371Y584444D01*
X9447Y584488D01*
X9524Y584530D01*
X9604Y584568D01*
X9685Y584602D01*
X9767Y584633D01*
X9851Y584661D01*
X9936Y584685D01*
X10022Y584705D01*
X10108Y584722D01*
X10195Y584735D01*
X10283Y584745D01*
X10371Y584750D01*
X10459Y584752D01*
X44722Y586828D01*
X44722Y599288D01*
X40318Y554642D02*
X63411Y554641D01*
X11998Y554642D02*
X-3038Y554642D01*
X-3038Y631472D02*
X11997Y631471D01*
X90925Y572811D02*
X90925Y562947D01*
X90926Y613302D02*
X90926Y623166D01*
D10*
X414648Y144592D02*
X412108Y142052D01*
X414648Y144592D02*
X417188Y142052D01*
X414648Y164912D02*
X412108Y167452D01*
X414648Y164912D02*
X417188Y167452D01*
X437508Y167452D01*
X440048Y164912D01*
X391788Y167452D02*
X389248Y164912D01*
X391788Y167452D02*
X412108Y167452D01*
X389248Y164912D02*
X389248Y144592D01*
X391788Y142052D01*
X412108Y142052D01*
X417188Y142052D02*
X437508Y142052D01*
X440048Y144592D01*
X440048Y164912D01*
D15*
X393907Y131521D02*
X393907Y120081D01*
X393907Y131521D02*
X399627Y131521D01*
X401534Y129614D01*
X401534Y127708D01*
X399627Y125801D01*
X401534Y123894D01*
X401534Y121988D01*
X399627Y120081D01*
X393907Y120081D01*
X393907Y125801D02*
X399627Y125801D01*
X407508Y131521D02*
X411321Y131521D01*
X407508Y131521D02*
X405601Y129614D01*
X405601Y121988D01*
X407508Y120081D01*
X411321Y120081D01*
X413228Y121988D01*
X413228Y129614D01*
X411321Y131521D01*
X419202Y131521D02*
X423015Y131521D01*
X419202Y131521D02*
X417295Y129614D01*
X417295Y121988D01*
X419202Y120081D01*
X423015Y120081D01*
X424921Y121988D01*
X424921Y129614D01*
X423015Y131521D01*
X432802Y131521D02*
X432802Y120081D01*
X428989Y131521D02*
X436615Y131521D01*
X804228Y67312D02*
X861728Y67312D01*
X861728Y87312D01*
X804228Y87312D01*
X804228Y67312D01*
X803428Y171136D02*
X860928Y171136D01*
X860928Y191136D01*
X803428Y191136D01*
X803428Y171136D01*
X803428Y266640D02*
X860928Y266640D01*
X860928Y286640D01*
X803428Y286640D01*
X803428Y266640D01*
X801396Y370272D02*
X858896Y370272D01*
X858896Y390272D01*
X801396Y390272D01*
X801396Y370272D01*
X801396Y469840D02*
X858896Y469840D01*
X858896Y489840D01*
X801396Y489840D01*
X801396Y469840D01*
X801396Y568384D02*
X858896Y568384D01*
X858896Y588384D01*
X801396Y588384D01*
X801396Y568384D01*
X801396Y669984D02*
X858896Y669984D01*
X858896Y689984D01*
X801396Y689984D01*
X801396Y669984D01*
X803428Y765488D02*
X860928Y765488D01*
X860928Y785488D01*
X803428Y785488D01*
X803428Y765488D01*
X89480Y740408D02*
X89480Y655408D01*
X89480Y740408D02*
X149480Y740408D01*
X299480Y740408D02*
X359480Y740408D01*
X359480Y655408D01*
X89480Y655408D01*
X299480Y740408D02*
X299480Y430408D01*
X149480Y430408D01*
X149480Y740408D01*
X299480Y740408D01*
X359480Y199440D02*
X359480Y114440D01*
X299480Y114440D01*
X149480Y114440D02*
X89480Y114440D01*
X89480Y199440D01*
X359480Y199440D01*
X149480Y114440D02*
X149480Y424440D01*
X299480Y424440D01*
X299480Y114440D01*
X149480Y114440D01*
D10*
X373502Y710748D02*
X386202Y710748D01*
X392552Y704398D01*
X392552Y691698D02*
X386202Y685348D01*
X392552Y704398D02*
X398902Y710748D01*
X411602Y710748D01*
X417952Y704398D01*
X417952Y691698D02*
X411602Y685348D01*
X398902Y685348D01*
X392552Y691698D01*
X367152Y691698D02*
X367152Y704398D01*
X373502Y710748D01*
X367152Y691698D02*
X373502Y685348D01*
X386202Y685348D01*
X417952Y704398D02*
X424302Y710748D01*
X437002Y710748D01*
X443352Y704398D01*
X443352Y691698D02*
X437002Y685348D01*
X424302Y685348D01*
X417952Y691698D01*
X449702Y710748D02*
X462402Y710748D01*
X468752Y704398D01*
X468752Y691698D01*
X462402Y685348D01*
X443352Y704398D02*
X449702Y710748D01*
X443352Y691698D02*
X449702Y685348D01*
X462402Y685348D01*
D15*
X360170Y703773D02*
X356357Y699960D01*
X360170Y703773D02*
X360170Y692333D01*
X356357Y692333D02*
X363984Y692333D01*
X477647Y692333D02*
X477647Y703773D01*
X471927Y698053D01*
X479554Y698053D01*
D10*
X769752Y469392D02*
X769760Y470015D01*
X769783Y470638D01*
X769821Y471261D01*
X769874Y471882D01*
X769943Y472501D01*
X770027Y473119D01*
X770126Y473734D01*
X770240Y474347D01*
X770369Y474957D01*
X770513Y475564D01*
X770672Y476167D01*
X770846Y476765D01*
X771034Y477360D01*
X771237Y477949D01*
X771454Y478533D01*
X771685Y479112D01*
X771931Y479685D01*
X772191Y480252D01*
X772464Y480812D01*
X772751Y481365D01*
X773052Y481912D01*
X773366Y482450D01*
X773693Y482981D01*
X774033Y483503D01*
X774385Y484018D01*
X774751Y484523D01*
X775128Y485019D01*
X775518Y485506D01*
X775919Y485983D01*
X776332Y486450D01*
X776756Y486906D01*
X777191Y487353D01*
X777638Y487788D01*
X778094Y488212D01*
X778561Y488625D01*
X779038Y489026D01*
X779525Y489416D01*
X780021Y489793D01*
X780526Y490159D01*
X781041Y490511D01*
X781563Y490851D01*
X782094Y491178D01*
X782632Y491492D01*
X783179Y491793D01*
X783732Y492080D01*
X784292Y492353D01*
X784859Y492613D01*
X785432Y492859D01*
X786011Y493090D01*
X786595Y493307D01*
X787184Y493510D01*
X787779Y493698D01*
X788377Y493872D01*
X788980Y494031D01*
X789587Y494175D01*
X790197Y494304D01*
X790810Y494418D01*
X791425Y494517D01*
X792043Y494601D01*
X792662Y494670D01*
X793283Y494723D01*
X793906Y494761D01*
X794529Y494784D01*
X795152Y494792D01*
X795775Y494784D01*
X796398Y494761D01*
X797021Y494723D01*
X797642Y494670D01*
X798261Y494601D01*
X798879Y494517D01*
X799494Y494418D01*
X800107Y494304D01*
X800717Y494175D01*
X801324Y494031D01*
X801927Y493872D01*
X802525Y493698D01*
X803120Y493510D01*
X803709Y493307D01*
X804293Y493090D01*
X804872Y492859D01*
X805445Y492613D01*
X806012Y492353D01*
X806572Y492080D01*
X807125Y491793D01*
X807672Y491492D01*
X808210Y491178D01*
X808741Y490851D01*
X809263Y490511D01*
X809778Y490159D01*
X810283Y489793D01*
X810779Y489416D01*
X811266Y489026D01*
X811743Y488625D01*
X812210Y488212D01*
X812666Y487788D01*
X813113Y487353D01*
X813548Y486906D01*
X813972Y486450D01*
X814385Y485983D01*
X814786Y485506D01*
X815176Y485019D01*
X815553Y484523D01*
X815919Y484018D01*
X816271Y483503D01*
X816611Y482981D01*
X816938Y482450D01*
X817252Y481912D01*
X817553Y481365D01*
X817840Y480812D01*
X818113Y480252D01*
X818373Y479685D01*
X818619Y479112D01*
X818850Y478533D01*
X819067Y477949D01*
X819270Y477360D01*
X819458Y476765D01*
X819632Y476167D01*
X819791Y475564D01*
X819935Y474957D01*
X820064Y474347D01*
X820178Y473734D01*
X820277Y473119D01*
X820361Y472501D01*
X820430Y471882D01*
X820483Y471261D01*
X820521Y470638D01*
X820544Y470015D01*
X820552Y469392D01*
X820544Y468769D01*
X820521Y468146D01*
X820483Y467523D01*
X820430Y466902D01*
X820361Y466283D01*
X820277Y465665D01*
X820178Y465050D01*
X820064Y464437D01*
X819935Y463827D01*
X819791Y463220D01*
X819632Y462617D01*
X819458Y462019D01*
X819270Y461424D01*
X819067Y460835D01*
X818850Y460251D01*
X818619Y459672D01*
X818373Y459099D01*
X818113Y458532D01*
X817840Y457972D01*
X817553Y457419D01*
X817252Y456872D01*
X816938Y456334D01*
X816611Y455803D01*
X816271Y455281D01*
X815919Y454766D01*
X815553Y454261D01*
X815176Y453765D01*
X814786Y453278D01*
X814385Y452801D01*
X813972Y452334D01*
X813548Y451878D01*
X813113Y451431D01*
X812666Y450996D01*
X812210Y450572D01*
X811743Y450159D01*
X811266Y449758D01*
X810779Y449368D01*
X810283Y448991D01*
X809778Y448625D01*
X809263Y448273D01*
X808741Y447933D01*
X808210Y447606D01*
X807672Y447292D01*
X807125Y446991D01*
X806572Y446704D01*
X806012Y446431D01*
X805445Y446171D01*
X804872Y445925D01*
X804293Y445694D01*
X803709Y445477D01*
X803120Y445274D01*
X802525Y445086D01*
X801927Y444912D01*
X801324Y444753D01*
X800717Y444609D01*
X800107Y444480D01*
X799494Y444366D01*
X798879Y444267D01*
X798261Y444183D01*
X797642Y444114D01*
X797021Y444061D01*
X796398Y444023D01*
X795775Y444000D01*
X795152Y443992D01*
X794529Y444000D01*
X793906Y444023D01*
X793283Y444061D01*
X792662Y444114D01*
X792043Y444183D01*
X791425Y444267D01*
X790810Y444366D01*
X790197Y444480D01*
X789587Y444609D01*
X788980Y444753D01*
X788377Y444912D01*
X787779Y445086D01*
X787184Y445274D01*
X786595Y445477D01*
X786011Y445694D01*
X785432Y445925D01*
X784859Y446171D01*
X784292Y446431D01*
X783732Y446704D01*
X783179Y446991D01*
X782632Y447292D01*
X782094Y447606D01*
X781563Y447933D01*
X781041Y448273D01*
X780526Y448625D01*
X780021Y448991D01*
X779525Y449368D01*
X779038Y449758D01*
X778561Y450159D01*
X778094Y450572D01*
X777638Y450996D01*
X777191Y451431D01*
X776756Y451878D01*
X776332Y452334D01*
X775919Y452801D01*
X775518Y453278D01*
X775128Y453765D01*
X774751Y454261D01*
X774385Y454766D01*
X774033Y455281D01*
X773693Y455803D01*
X773366Y456334D01*
X773052Y456872D01*
X772751Y457419D01*
X772464Y457972D01*
X772191Y458532D01*
X771931Y459099D01*
X771685Y459672D01*
X771454Y460251D01*
X771237Y460835D01*
X771034Y461424D01*
X770846Y462019D01*
X770672Y462617D01*
X770513Y463220D01*
X770369Y463827D01*
X770240Y464437D01*
X770126Y465050D01*
X770027Y465665D01*
X769943Y466283D01*
X769874Y466902D01*
X769821Y467523D01*
X769783Y468146D01*
X769760Y468769D01*
X769752Y469392D01*
D14*
X776102Y494792D02*
X814202Y494792D01*
D17*
X814818Y494318D01*
X815423Y493829D01*
X816015Y493325D01*
X816595Y492807D01*
X817162Y492275D01*
X817716Y491729D01*
X818256Y491170D01*
X818782Y490597D01*
X819295Y490012D01*
X819792Y489415D01*
X820275Y488806D01*
X820743Y488185D01*
X821196Y487552D01*
X821633Y486909D01*
X822054Y486255D01*
X822458Y485591D01*
X822847Y484918D01*
X823219Y484235D01*
X823574Y483543D01*
X823912Y482843D01*
X824233Y482135D01*
X824536Y481419D01*
X824822Y480695D01*
X825090Y479966D01*
X825340Y479229D01*
X825571Y478487D01*
X825785Y477739D01*
X825980Y476987D01*
X826157Y476229D01*
X826315Y475468D01*
X826455Y474703D01*
X826575Y473935D01*
X826677Y473164D01*
X826760Y472391D01*
X826824Y471616D01*
X826869Y470840D01*
X826895Y470063D01*
X826902Y469285D01*
X826890Y468508D01*
X826859Y467731D01*
X826808Y466955D01*
X826739Y466180D01*
X826651Y465408D01*
X826544Y464638D01*
X826418Y463870D01*
X826274Y463106D01*
X826110Y462346D01*
X825928Y461590D01*
X825728Y460839D01*
X825510Y460092D01*
X825273Y459352D01*
X825018Y458617D01*
X824745Y457889D01*
X824454Y457168D01*
X824146Y456454D01*
X823821Y455748D01*
X823478Y455050D01*
X823118Y454360D01*
X822742Y453680D01*
X822349Y453009D01*
X821939Y452348D01*
X821514Y451697D01*
X821073Y451057D01*
X820616Y450428D01*
X820144Y449810D01*
X819657Y449204D01*
X819155Y448610D01*
X818639Y448028D01*
X818109Y447459D01*
X817565Y446904D01*
X817007Y446361D01*
X816437Y445833D01*
X815854Y445319D01*
X815258Y444819D01*
X814650Y444334D01*
X814031Y443864D01*
X813400Y443410D01*
X812758Y442971D01*
X812106Y442547D01*
X811443Y442140D01*
X810771Y441749D01*
X810089Y441375D01*
X809399Y441018D01*
X808700Y440678D01*
X807992Y440354D01*
X807278Y440049D01*
X806555Y439760D01*
X805826Y439490D01*
X805091Y439238D01*
X804349Y439003D01*
X803602Y438787D01*
X802850Y438589D01*
X802094Y438410D01*
X801333Y438249D01*
X800569Y438107D01*
X799801Y437984D01*
X799030Y437880D01*
X798257Y437794D01*
X797483Y437728D01*
X796707Y437680D01*
X795930Y437652D01*
X795152Y437642D01*
X794374Y437652D01*
X793597Y437680D01*
X792821Y437728D01*
X792047Y437794D01*
X791274Y437880D01*
X790503Y437984D01*
X789735Y438107D01*
X788971Y438249D01*
X788210Y438410D01*
X787454Y438589D01*
X786702Y438787D01*
X785955Y439003D01*
X785213Y439238D01*
X784478Y439490D01*
X783749Y439760D01*
X783026Y440049D01*
X782312Y440354D01*
X781604Y440678D01*
X780905Y441018D01*
X780215Y441375D01*
X779533Y441749D01*
X778861Y442140D01*
X778198Y442547D01*
X777546Y442971D01*
X776904Y443410D01*
X776273Y443864D01*
X775654Y444334D01*
X775046Y444819D01*
X774450Y445319D01*
X773867Y445833D01*
X773297Y446361D01*
X772739Y446904D01*
X772195Y447459D01*
X771665Y448028D01*
X771149Y448610D01*
X770647Y449204D01*
X770160Y449810D01*
X769688Y450428D01*
X769231Y451057D01*
X768790Y451697D01*
X768365Y452348D01*
X767955Y453009D01*
X767562Y453680D01*
X767186Y454360D01*
X766826Y455050D01*
X766483Y455748D01*
X766158Y456454D01*
X765850Y457168D01*
X765559Y457889D01*
X765286Y458617D01*
X765031Y459352D01*
X764794Y460092D01*
X764576Y460839D01*
X764376Y461590D01*
X764194Y462346D01*
X764030Y463106D01*
X763886Y463870D01*
X763760Y464638D01*
X763653Y465408D01*
X763565Y466180D01*
X763496Y466955D01*
X763445Y467731D01*
X763414Y468508D01*
X763402Y469285D01*
X763409Y470063D01*
X763435Y470840D01*
X763480Y471616D01*
X763544Y472391D01*
X763627Y473164D01*
X763729Y473935D01*
X763849Y474703D01*
X763989Y475468D01*
X764147Y476229D01*
X764324Y476987D01*
X764519Y477739D01*
X764733Y478487D01*
X764964Y479229D01*
X765214Y479966D01*
X765482Y480695D01*
X765768Y481419D01*
X766071Y482135D01*
X766392Y482843D01*
X766730Y483543D01*
X767085Y484235D01*
X767457Y484918D01*
X767846Y485591D01*
X768250Y486255D01*
X768671Y486909D01*
X769108Y487552D01*
X769561Y488185D01*
X770029Y488806D01*
X770512Y489415D01*
X771009Y490012D01*
X771522Y490597D01*
X772048Y491170D01*
X772588Y491729D01*
X773142Y492275D01*
X773709Y492807D01*
X774289Y493325D01*
X774881Y493829D01*
X775486Y494318D01*
X776102Y494792D01*
D10*
X769488Y394208D02*
X769496Y394831D01*
X769519Y395454D01*
X769557Y396077D01*
X769610Y396698D01*
X769679Y397317D01*
X769763Y397935D01*
X769862Y398550D01*
X769976Y399163D01*
X770105Y399773D01*
X770249Y400380D01*
X770408Y400983D01*
X770582Y401581D01*
X770770Y402176D01*
X770973Y402765D01*
X771190Y403349D01*
X771421Y403928D01*
X771667Y404501D01*
X771927Y405068D01*
X772200Y405628D01*
X772487Y406181D01*
X772788Y406728D01*
X773102Y407266D01*
X773429Y407797D01*
X773769Y408319D01*
X774121Y408834D01*
X774487Y409339D01*
X774864Y409835D01*
X775254Y410322D01*
X775655Y410799D01*
X776068Y411266D01*
X776492Y411722D01*
X776927Y412169D01*
X777374Y412604D01*
X777830Y413028D01*
X778297Y413441D01*
X778774Y413842D01*
X779261Y414232D01*
X779757Y414609D01*
X780262Y414975D01*
X780777Y415327D01*
X781299Y415667D01*
X781830Y415994D01*
X782368Y416308D01*
X782915Y416609D01*
X783468Y416896D01*
X784028Y417169D01*
X784595Y417429D01*
X785168Y417675D01*
X785747Y417906D01*
X786331Y418123D01*
X786920Y418326D01*
X787515Y418514D01*
X788113Y418688D01*
X788716Y418847D01*
X789323Y418991D01*
X789933Y419120D01*
X790546Y419234D01*
X791161Y419333D01*
X791779Y419417D01*
X792398Y419486D01*
X793019Y419539D01*
X793642Y419577D01*
X794265Y419600D01*
X794888Y419608D01*
X795511Y419600D01*
X796134Y419577D01*
X796757Y419539D01*
X797378Y419486D01*
X797997Y419417D01*
X798615Y419333D01*
X799230Y419234D01*
X799843Y419120D01*
X800453Y418991D01*
X801060Y418847D01*
X801663Y418688D01*
X802261Y418514D01*
X802856Y418326D01*
X803445Y418123D01*
X804029Y417906D01*
X804608Y417675D01*
X805181Y417429D01*
X805748Y417169D01*
X806308Y416896D01*
X806861Y416609D01*
X807408Y416308D01*
X807946Y415994D01*
X808477Y415667D01*
X808999Y415327D01*
X809514Y414975D01*
X810019Y414609D01*
X810515Y414232D01*
X811002Y413842D01*
X811479Y413441D01*
X811946Y413028D01*
X812402Y412604D01*
X812849Y412169D01*
X813284Y411722D01*
X813708Y411266D01*
X814121Y410799D01*
X814522Y410322D01*
X814912Y409835D01*
X815289Y409339D01*
X815655Y408834D01*
X816007Y408319D01*
X816347Y407797D01*
X816674Y407266D01*
X816988Y406728D01*
X817289Y406181D01*
X817576Y405628D01*
X817849Y405068D01*
X818109Y404501D01*
X818355Y403928D01*
X818586Y403349D01*
X818803Y402765D01*
X819006Y402176D01*
X819194Y401581D01*
X819368Y400983D01*
X819527Y400380D01*
X819671Y399773D01*
X819800Y399163D01*
X819914Y398550D01*
X820013Y397935D01*
X820097Y397317D01*
X820166Y396698D01*
X820219Y396077D01*
X820257Y395454D01*
X820280Y394831D01*
X820288Y394208D01*
X820280Y393585D01*
X820257Y392962D01*
X820219Y392339D01*
X820166Y391718D01*
X820097Y391099D01*
X820013Y390481D01*
X819914Y389866D01*
X819800Y389253D01*
X819671Y388643D01*
X819527Y388036D01*
X819368Y387433D01*
X819194Y386835D01*
X819006Y386240D01*
X818803Y385651D01*
X818586Y385067D01*
X818355Y384488D01*
X818109Y383915D01*
X817849Y383348D01*
X817576Y382788D01*
X817289Y382235D01*
X816988Y381688D01*
X816674Y381150D01*
X816347Y380619D01*
X816007Y380097D01*
X815655Y379582D01*
X815289Y379077D01*
X814912Y378581D01*
X814522Y378094D01*
X814121Y377617D01*
X813708Y377150D01*
X813284Y376694D01*
X812849Y376247D01*
X812402Y375812D01*
X811946Y375388D01*
X811479Y374975D01*
X811002Y374574D01*
X810515Y374184D01*
X810019Y373807D01*
X809514Y373441D01*
X808999Y373089D01*
X808477Y372749D01*
X807946Y372422D01*
X807408Y372108D01*
X806861Y371807D01*
X806308Y371520D01*
X805748Y371247D01*
X805181Y370987D01*
X804608Y370741D01*
X804029Y370510D01*
X803445Y370293D01*
X802856Y370090D01*
X802261Y369902D01*
X801663Y369728D01*
X801060Y369569D01*
X800453Y369425D01*
X799843Y369296D01*
X799230Y369182D01*
X798615Y369083D01*
X797997Y368999D01*
X797378Y368930D01*
X796757Y368877D01*
X796134Y368839D01*
X795511Y368816D01*
X794888Y368808D01*
X794265Y368816D01*
X793642Y368839D01*
X793019Y368877D01*
X792398Y368930D01*
X791779Y368999D01*
X791161Y369083D01*
X790546Y369182D01*
X789933Y369296D01*
X789323Y369425D01*
X788716Y369569D01*
X788113Y369728D01*
X787515Y369902D01*
X786920Y370090D01*
X786331Y370293D01*
X785747Y370510D01*
X785168Y370741D01*
X784595Y370987D01*
X784028Y371247D01*
X783468Y371520D01*
X782915Y371807D01*
X782368Y372108D01*
X781830Y372422D01*
X781299Y372749D01*
X780777Y373089D01*
X780262Y373441D01*
X779757Y373807D01*
X779261Y374184D01*
X778774Y374574D01*
X778297Y374975D01*
X777830Y375388D01*
X777374Y375812D01*
X776927Y376247D01*
X776492Y376694D01*
X776068Y377150D01*
X775655Y377617D01*
X775254Y378094D01*
X774864Y378581D01*
X774487Y379077D01*
X774121Y379582D01*
X773769Y380097D01*
X773429Y380619D01*
X773102Y381150D01*
X772788Y381688D01*
X772487Y382235D01*
X772200Y382788D01*
X771927Y383348D01*
X771667Y383915D01*
X771421Y384488D01*
X771190Y385067D01*
X770973Y385651D01*
X770770Y386240D01*
X770582Y386835D01*
X770408Y387433D01*
X770249Y388036D01*
X770105Y388643D01*
X769976Y389253D01*
X769862Y389866D01*
X769763Y390481D01*
X769679Y391099D01*
X769610Y391718D01*
X769557Y392339D01*
X769519Y392962D01*
X769496Y393585D01*
X769488Y394208D01*
D14*
X775838Y419608D02*
X813938Y419608D01*
D17*
X814554Y419134D01*
X815159Y418645D01*
X815751Y418141D01*
X816331Y417623D01*
X816898Y417091D01*
X817452Y416545D01*
X817992Y415986D01*
X818518Y415413D01*
X819031Y414828D01*
X819528Y414231D01*
X820011Y413622D01*
X820479Y413001D01*
X820932Y412368D01*
X821369Y411725D01*
X821790Y411071D01*
X822194Y410407D01*
X822583Y409734D01*
X822955Y409051D01*
X823310Y408359D01*
X823648Y407659D01*
X823969Y406951D01*
X824272Y406235D01*
X824558Y405511D01*
X824826Y404782D01*
X825076Y404045D01*
X825307Y403303D01*
X825521Y402555D01*
X825716Y401803D01*
X825893Y401045D01*
X826051Y400284D01*
X826191Y399519D01*
X826311Y398751D01*
X826413Y397980D01*
X826496Y397207D01*
X826560Y396432D01*
X826605Y395656D01*
X826631Y394879D01*
X826638Y394101D01*
X826626Y393324D01*
X826595Y392547D01*
X826544Y391771D01*
X826475Y390996D01*
X826387Y390224D01*
X826280Y389454D01*
X826154Y388686D01*
X826010Y387922D01*
X825846Y387162D01*
X825664Y386406D01*
X825464Y385655D01*
X825246Y384908D01*
X825009Y384168D01*
X824754Y383433D01*
X824481Y382705D01*
X824190Y381984D01*
X823882Y381270D01*
X823557Y380564D01*
X823214Y379866D01*
X822854Y379176D01*
X822478Y378496D01*
X822085Y377825D01*
X821675Y377164D01*
X821250Y376513D01*
X820809Y375873D01*
X820352Y375244D01*
X819880Y374626D01*
X819393Y374020D01*
X818891Y373426D01*
X818375Y372844D01*
X817845Y372275D01*
X817301Y371720D01*
X816743Y371177D01*
X816173Y370649D01*
X815590Y370135D01*
X814994Y369635D01*
X814386Y369150D01*
X813767Y368680D01*
X813136Y368226D01*
X812494Y367787D01*
X811842Y367363D01*
X811179Y366956D01*
X810507Y366565D01*
X809825Y366191D01*
X809135Y365834D01*
X808436Y365494D01*
X807728Y365170D01*
X807014Y364865D01*
X806291Y364576D01*
X805562Y364306D01*
X804827Y364054D01*
X804085Y363819D01*
X803338Y363603D01*
X802586Y363405D01*
X801830Y363226D01*
X801069Y363065D01*
X800305Y362923D01*
X799537Y362800D01*
X798766Y362696D01*
X797993Y362610D01*
X797219Y362544D01*
X796443Y362496D01*
X795666Y362468D01*
X794888Y362458D01*
X794110Y362468D01*
X793333Y362496D01*
X792557Y362544D01*
X791783Y362610D01*
X791010Y362696D01*
X790239Y362800D01*
X789471Y362923D01*
X788707Y363065D01*
X787946Y363226D01*
X787190Y363405D01*
X786438Y363603D01*
X785691Y363819D01*
X784949Y364054D01*
X784214Y364306D01*
X783485Y364576D01*
X782762Y364865D01*
X782048Y365170D01*
X781340Y365494D01*
X780641Y365834D01*
X779951Y366191D01*
X779269Y366565D01*
X778597Y366956D01*
X777934Y367363D01*
X777282Y367787D01*
X776640Y368226D01*
X776009Y368680D01*
X775390Y369150D01*
X774782Y369635D01*
X774186Y370135D01*
X773603Y370649D01*
X773033Y371177D01*
X772475Y371720D01*
X771931Y372275D01*
X771401Y372844D01*
X770885Y373426D01*
X770383Y374020D01*
X769896Y374626D01*
X769424Y375244D01*
X768967Y375873D01*
X768526Y376513D01*
X768101Y377164D01*
X767691Y377825D01*
X767298Y378496D01*
X766922Y379176D01*
X766562Y379866D01*
X766219Y380564D01*
X765894Y381270D01*
X765586Y381984D01*
X765295Y382705D01*
X765022Y383433D01*
X764767Y384168D01*
X764530Y384908D01*
X764312Y385655D01*
X764112Y386406D01*
X763930Y387162D01*
X763766Y387922D01*
X763622Y388686D01*
X763496Y389454D01*
X763389Y390224D01*
X763301Y390996D01*
X763232Y391771D01*
X763181Y392547D01*
X763150Y393324D01*
X763138Y394101D01*
X763145Y394879D01*
X763171Y395656D01*
X763216Y396432D01*
X763280Y397207D01*
X763363Y397980D01*
X763465Y398751D01*
X763585Y399519D01*
X763725Y400284D01*
X763883Y401045D01*
X764060Y401803D01*
X764255Y402555D01*
X764469Y403303D01*
X764700Y404045D01*
X764950Y404782D01*
X765218Y405511D01*
X765504Y406235D01*
X765807Y406951D01*
X766128Y407659D01*
X766466Y408359D01*
X766821Y409051D01*
X767193Y409734D01*
X767582Y410407D01*
X767986Y411071D01*
X768407Y411725D01*
X768844Y412368D01*
X769297Y413001D01*
X769765Y413622D01*
X770248Y414231D01*
X770745Y414828D01*
X771258Y415413D01*
X771784Y415986D01*
X772324Y416545D01*
X772878Y417091D01*
X773445Y417623D01*
X774025Y418141D01*
X774617Y418645D01*
X775222Y419134D01*
X775838Y419608D01*
D15*
X356376Y253840D02*
X351376Y258840D01*
X356376Y253840D02*
X356376Y228840D01*
X326376Y228840D01*
X326376Y258840D01*
X351376Y258840D01*
D18*
X351376Y256090D03*
X346376Y256090D03*
X341376Y256090D03*
X336376Y256090D03*
X331376Y256090D03*
D19*
X329126Y248840D03*
X329126Y243840D03*
X329126Y238840D03*
D18*
X331376Y231590D03*
X336376Y231590D03*
X341376Y231590D03*
X346376Y231590D03*
X351376Y231590D03*
D19*
X353626Y238840D03*
X353626Y243840D03*
X353626Y248840D03*
D10*
X452600Y221600D02*
X452608Y222223D01*
X452631Y222846D01*
X452669Y223469D01*
X452722Y224090D01*
X452791Y224709D01*
X452875Y225327D01*
X452974Y225942D01*
X453088Y226555D01*
X453217Y227165D01*
X453361Y227772D01*
X453520Y228375D01*
X453694Y228973D01*
X453882Y229568D01*
X454085Y230157D01*
X454302Y230741D01*
X454533Y231320D01*
X454779Y231893D01*
X455039Y232460D01*
X455312Y233020D01*
X455599Y233573D01*
X455900Y234120D01*
X456214Y234658D01*
X456541Y235189D01*
X456881Y235711D01*
X457233Y236226D01*
X457599Y236731D01*
X457976Y237227D01*
X458366Y237714D01*
X458767Y238191D01*
X459180Y238658D01*
X459604Y239114D01*
X460039Y239561D01*
X460486Y239996D01*
X460942Y240420D01*
X461409Y240833D01*
X461886Y241234D01*
X462373Y241624D01*
X462869Y242001D01*
X463374Y242367D01*
X463889Y242719D01*
X464411Y243059D01*
X464942Y243386D01*
X465480Y243700D01*
X466027Y244001D01*
X466580Y244288D01*
X467140Y244561D01*
X467707Y244821D01*
X468280Y245067D01*
X468859Y245298D01*
X469443Y245515D01*
X470032Y245718D01*
X470627Y245906D01*
X471225Y246080D01*
X471828Y246239D01*
X472435Y246383D01*
X473045Y246512D01*
X473658Y246626D01*
X474273Y246725D01*
X474891Y246809D01*
X475510Y246878D01*
X476131Y246931D01*
X476754Y246969D01*
X477377Y246992D01*
X478000Y247000D01*
X478623Y246992D01*
X479246Y246969D01*
X479869Y246931D01*
X480490Y246878D01*
X481109Y246809D01*
X481727Y246725D01*
X482342Y246626D01*
X482955Y246512D01*
X483565Y246383D01*
X484172Y246239D01*
X484775Y246080D01*
X485373Y245906D01*
X485968Y245718D01*
X486557Y245515D01*
X487141Y245298D01*
X487720Y245067D01*
X488293Y244821D01*
X488860Y244561D01*
X489420Y244288D01*
X489973Y244001D01*
X490520Y243700D01*
X491058Y243386D01*
X491589Y243059D01*
X492111Y242719D01*
X492626Y242367D01*
X493131Y242001D01*
X493627Y241624D01*
X494114Y241234D01*
X494591Y240833D01*
X495058Y240420D01*
X495514Y239996D01*
X495961Y239561D01*
X496396Y239114D01*
X496820Y238658D01*
X497233Y238191D01*
X497634Y237714D01*
X498024Y237227D01*
X498401Y236731D01*
X498767Y236226D01*
X499119Y235711D01*
X499459Y235189D01*
X499786Y234658D01*
X500100Y234120D01*
X500401Y233573D01*
X500688Y233020D01*
X500961Y232460D01*
X501221Y231893D01*
X501467Y231320D01*
X501698Y230741D01*
X501915Y230157D01*
X502118Y229568D01*
X502306Y228973D01*
X502480Y228375D01*
X502639Y227772D01*
X502783Y227165D01*
X502912Y226555D01*
X503026Y225942D01*
X503125Y225327D01*
X503209Y224709D01*
X503278Y224090D01*
X503331Y223469D01*
X503369Y222846D01*
X503392Y222223D01*
X503400Y221600D01*
X503392Y220977D01*
X503369Y220354D01*
X503331Y219731D01*
X503278Y219110D01*
X503209Y218491D01*
X503125Y217873D01*
X503026Y217258D01*
X502912Y216645D01*
X502783Y216035D01*
X502639Y215428D01*
X502480Y214825D01*
X502306Y214227D01*
X502118Y213632D01*
X501915Y213043D01*
X501698Y212459D01*
X501467Y211880D01*
X501221Y211307D01*
X500961Y210740D01*
X500688Y210180D01*
X500401Y209627D01*
X500100Y209080D01*
X499786Y208542D01*
X499459Y208011D01*
X499119Y207489D01*
X498767Y206974D01*
X498401Y206469D01*
X498024Y205973D01*
X497634Y205486D01*
X497233Y205009D01*
X496820Y204542D01*
X496396Y204086D01*
X495961Y203639D01*
X495514Y203204D01*
X495058Y202780D01*
X494591Y202367D01*
X494114Y201966D01*
X493627Y201576D01*
X493131Y201199D01*
X492626Y200833D01*
X492111Y200481D01*
X491589Y200141D01*
X491058Y199814D01*
X490520Y199500D01*
X489973Y199199D01*
X489420Y198912D01*
X488860Y198639D01*
X488293Y198379D01*
X487720Y198133D01*
X487141Y197902D01*
X486557Y197685D01*
X485968Y197482D01*
X485373Y197294D01*
X484775Y197120D01*
X484172Y196961D01*
X483565Y196817D01*
X482955Y196688D01*
X482342Y196574D01*
X481727Y196475D01*
X481109Y196391D01*
X480490Y196322D01*
X479869Y196269D01*
X479246Y196231D01*
X478623Y196208D01*
X478000Y196200D01*
X477377Y196208D01*
X476754Y196231D01*
X476131Y196269D01*
X475510Y196322D01*
X474891Y196391D01*
X474273Y196475D01*
X473658Y196574D01*
X473045Y196688D01*
X472435Y196817D01*
X471828Y196961D01*
X471225Y197120D01*
X470627Y197294D01*
X470032Y197482D01*
X469443Y197685D01*
X468859Y197902D01*
X468280Y198133D01*
X467707Y198379D01*
X467140Y198639D01*
X466580Y198912D01*
X466027Y199199D01*
X465480Y199500D01*
X464942Y199814D01*
X464411Y200141D01*
X463889Y200481D01*
X463374Y200833D01*
X462869Y201199D01*
X462373Y201576D01*
X461886Y201966D01*
X461409Y202367D01*
X460942Y202780D01*
X460486Y203204D01*
X460039Y203639D01*
X459604Y204086D01*
X459180Y204542D01*
X458767Y205009D01*
X458366Y205486D01*
X457976Y205973D01*
X457599Y206469D01*
X457233Y206974D01*
X456881Y207489D01*
X456541Y208011D01*
X456214Y208542D01*
X455900Y209080D01*
X455599Y209627D01*
X455312Y210180D01*
X455039Y210740D01*
X454779Y211307D01*
X454533Y211880D01*
X454302Y212459D01*
X454085Y213043D01*
X453882Y213632D01*
X453694Y214227D01*
X453520Y214825D01*
X453361Y215428D01*
X453217Y216035D01*
X453088Y216645D01*
X452974Y217258D01*
X452875Y217873D01*
X452791Y218491D01*
X452722Y219110D01*
X452669Y219731D01*
X452631Y220354D01*
X452608Y220977D01*
X452600Y221600D01*
D14*
X495353Y248188D02*
X508384Y212386D01*
D17*
X508149Y211645D01*
X507896Y210910D01*
X507625Y210181D01*
X507337Y209459D01*
X507031Y208744D01*
X506707Y208037D01*
X506366Y207338D01*
X506009Y206647D01*
X505634Y205966D01*
X505243Y205294D01*
X504835Y204632D01*
X504412Y203980D01*
X503972Y203338D01*
X503517Y202708D01*
X503047Y202088D01*
X502562Y201481D01*
X502062Y200885D01*
X501547Y200302D01*
X501019Y199732D01*
X500476Y199175D01*
X499920Y198631D01*
X499351Y198101D01*
X498769Y197586D01*
X498175Y197084D01*
X497569Y196597D01*
X496951Y196126D01*
X496321Y195669D01*
X495681Y195228D01*
X495029Y194803D01*
X494368Y194394D01*
X493697Y194002D01*
X493016Y193626D01*
X492327Y193266D01*
X491629Y192924D01*
X490922Y192599D01*
X490208Y192291D01*
X489487Y192001D01*
X488759Y191728D01*
X488024Y191474D01*
X487283Y191237D01*
X486537Y191019D01*
X485785Y190819D01*
X485029Y190638D01*
X484269Y190475D01*
X483505Y190331D01*
X482737Y190205D01*
X481967Y190099D01*
X481195Y190011D01*
X480420Y189942D01*
X479644Y189893D01*
X478867Y189862D01*
X478090Y189850D01*
X477312Y189857D01*
X476535Y189884D01*
X475759Y189929D01*
X474984Y189994D01*
X474211Y190077D01*
X473440Y190179D01*
X472672Y190300D01*
X471907Y190440D01*
X471146Y190599D01*
X470389Y190776D01*
X469636Y190971D01*
X468889Y191185D01*
X468146Y191418D01*
X467410Y191668D01*
X466680Y191936D01*
X465957Y192222D01*
X465242Y192526D01*
X464533Y192847D01*
X463833Y193186D01*
X463142Y193541D01*
X462459Y193913D01*
X461786Y194302D01*
X461122Y194708D01*
X460469Y195129D01*
X459826Y195566D01*
X459194Y196019D01*
X458573Y196487D01*
X457964Y196971D01*
X457367Y197469D01*
X456782Y197981D01*
X456210Y198508D01*
X455651Y199048D01*
X455105Y199602D01*
X454573Y200170D01*
X454056Y200750D01*
X453552Y201342D01*
X453063Y201947D01*
X452590Y202564D01*
X452131Y203192D01*
X451688Y203831D01*
X451261Y204480D01*
X450850Y205140D01*
X450455Y205810D01*
X450076Y206489D01*
X449715Y207178D01*
X449370Y207875D01*
X449042Y208580D01*
X448732Y209293D01*
X448440Y210013D01*
X448165Y210741D01*
X447908Y211475D01*
X447669Y212215D01*
X447448Y212960D01*
X447246Y213711D01*
X447062Y214467D01*
X446896Y215226D01*
X446750Y215990D01*
X446622Y216757D01*
X446512Y217527D01*
X446422Y218299D01*
X446351Y219073D01*
X446298Y219849D01*
X446265Y220626D01*
X446251Y221403D01*
X446255Y222181D01*
X446279Y222958D01*
X446322Y223735D01*
X446384Y224510D01*
X446464Y225283D01*
X446564Y226054D01*
X446683Y226823D01*
X446820Y227588D01*
X446976Y228350D01*
X447150Y229108D01*
X447343Y229861D01*
X447555Y230609D01*
X447785Y231352D01*
X448033Y232089D01*
X448298Y232820D01*
X448582Y233544D01*
X448883Y234260D01*
X449202Y234970D01*
X449538Y235671D01*
X449891Y236364D01*
X450261Y237048D01*
X450648Y237722D01*
X451051Y238387D01*
X451470Y239042D01*
X451905Y239687D01*
X452356Y240320D01*
X452822Y240943D01*
X453303Y241553D01*
X453799Y242152D01*
X454310Y242739D01*
X454835Y243312D01*
X455373Y243873D01*
X455926Y244421D01*
X456491Y244954D01*
X457069Y245474D01*
X457660Y245979D01*
X458263Y246470D01*
X458878Y246946D01*
X459505Y247407D01*
X460142Y247852D01*
X460791Y248281D01*
X461449Y248695D01*
X462118Y249092D01*
X462796Y249473D01*
X463483Y249837D01*
X464179Y250184D01*
X464883Y250514D01*
X465595Y250826D01*
X466314Y251121D01*
X467040Y251399D01*
X467773Y251658D01*
X468513Y251899D01*
X469257Y252123D01*
X470008Y252328D01*
X470762Y252514D01*
X471522Y252682D01*
X472285Y252831D01*
X473051Y252962D01*
X473821Y253074D01*
X474593Y253167D01*
X475367Y253241D01*
X476142Y253296D01*
X476919Y253332D01*
X477697Y253349D01*
X478474Y253346D01*
X479251Y253325D01*
X480028Y253285D01*
X480803Y253226D01*
X481577Y253148D01*
X482348Y253051D01*
X483117Y252935D01*
X483883Y252800D01*
X484645Y252647D01*
X485404Y252475D01*
X486158Y252284D01*
X486907Y252075D01*
X487650Y251848D01*
X488388Y251603D01*
X489120Y251339D01*
X489845Y251058D01*
X490562Y250759D01*
X491273Y250443D01*
X491975Y250109D01*
X492669Y249758D01*
X493354Y249391D01*
X494030Y249006D01*
X494696Y248605D01*
X495353Y248188D01*
D10*
X454632Y632000D02*
X454640Y632623D01*
X454663Y633246D01*
X454701Y633869D01*
X454754Y634490D01*
X454823Y635109D01*
X454907Y635727D01*
X455006Y636342D01*
X455120Y636955D01*
X455249Y637565D01*
X455393Y638172D01*
X455552Y638775D01*
X455726Y639373D01*
X455914Y639968D01*
X456117Y640557D01*
X456334Y641141D01*
X456565Y641720D01*
X456811Y642293D01*
X457071Y642860D01*
X457344Y643420D01*
X457631Y643973D01*
X457932Y644520D01*
X458246Y645058D01*
X458573Y645589D01*
X458913Y646111D01*
X459265Y646626D01*
X459631Y647131D01*
X460008Y647627D01*
X460398Y648114D01*
X460799Y648591D01*
X461212Y649058D01*
X461636Y649514D01*
X462071Y649961D01*
X462518Y650396D01*
X462974Y650820D01*
X463441Y651233D01*
X463918Y651634D01*
X464405Y652024D01*
X464901Y652401D01*
X465406Y652767D01*
X465921Y653119D01*
X466443Y653459D01*
X466974Y653786D01*
X467512Y654100D01*
X468059Y654401D01*
X468612Y654688D01*
X469172Y654961D01*
X469739Y655221D01*
X470312Y655467D01*
X470891Y655698D01*
X471475Y655915D01*
X472064Y656118D01*
X472659Y656306D01*
X473257Y656480D01*
X473860Y656639D01*
X474467Y656783D01*
X475077Y656912D01*
X475690Y657026D01*
X476305Y657125D01*
X476923Y657209D01*
X477542Y657278D01*
X478163Y657331D01*
X478786Y657369D01*
X479409Y657392D01*
X480032Y657400D01*
X480655Y657392D01*
X481278Y657369D01*
X481901Y657331D01*
X482522Y657278D01*
X483141Y657209D01*
X483759Y657125D01*
X484374Y657026D01*
X484987Y656912D01*
X485597Y656783D01*
X486204Y656639D01*
X486807Y656480D01*
X487405Y656306D01*
X488000Y656118D01*
X488589Y655915D01*
X489173Y655698D01*
X489752Y655467D01*
X490325Y655221D01*
X490892Y654961D01*
X491452Y654688D01*
X492005Y654401D01*
X492552Y654100D01*
X493090Y653786D01*
X493621Y653459D01*
X494143Y653119D01*
X494658Y652767D01*
X495163Y652401D01*
X495659Y652024D01*
X496146Y651634D01*
X496623Y651233D01*
X497090Y650820D01*
X497546Y650396D01*
X497993Y649961D01*
X498428Y649514D01*
X498852Y649058D01*
X499265Y648591D01*
X499666Y648114D01*
X500056Y647627D01*
X500433Y647131D01*
X500799Y646626D01*
X501151Y646111D01*
X501491Y645589D01*
X501818Y645058D01*
X502132Y644520D01*
X502433Y643973D01*
X502720Y643420D01*
X502993Y642860D01*
X503253Y642293D01*
X503499Y641720D01*
X503730Y641141D01*
X503947Y640557D01*
X504150Y639968D01*
X504338Y639373D01*
X504512Y638775D01*
X504671Y638172D01*
X504815Y637565D01*
X504944Y636955D01*
X505058Y636342D01*
X505157Y635727D01*
X505241Y635109D01*
X505310Y634490D01*
X505363Y633869D01*
X505401Y633246D01*
X505424Y632623D01*
X505432Y632000D01*
X505424Y631377D01*
X505401Y630754D01*
X505363Y630131D01*
X505310Y629510D01*
X505241Y628891D01*
X505157Y628273D01*
X505058Y627658D01*
X504944Y627045D01*
X504815Y626435D01*
X504671Y625828D01*
X504512Y625225D01*
X504338Y624627D01*
X504150Y624032D01*
X503947Y623443D01*
X503730Y622859D01*
X503499Y622280D01*
X503253Y621707D01*
X502993Y621140D01*
X502720Y620580D01*
X502433Y620027D01*
X502132Y619480D01*
X501818Y618942D01*
X501491Y618411D01*
X501151Y617889D01*
X500799Y617374D01*
X500433Y616869D01*
X500056Y616373D01*
X499666Y615886D01*
X499265Y615409D01*
X498852Y614942D01*
X498428Y614486D01*
X497993Y614039D01*
X497546Y613604D01*
X497090Y613180D01*
X496623Y612767D01*
X496146Y612366D01*
X495659Y611976D01*
X495163Y611599D01*
X494658Y611233D01*
X494143Y610881D01*
X493621Y610541D01*
X493090Y610214D01*
X492552Y609900D01*
X492005Y609599D01*
X491452Y609312D01*
X490892Y609039D01*
X490325Y608779D01*
X489752Y608533D01*
X489173Y608302D01*
X488589Y608085D01*
X488000Y607882D01*
X487405Y607694D01*
X486807Y607520D01*
X486204Y607361D01*
X485597Y607217D01*
X484987Y607088D01*
X484374Y606974D01*
X483759Y606875D01*
X483141Y606791D01*
X482522Y606722D01*
X481901Y606669D01*
X481278Y606631D01*
X480655Y606608D01*
X480032Y606600D01*
X479409Y606608D01*
X478786Y606631D01*
X478163Y606669D01*
X477542Y606722D01*
X476923Y606791D01*
X476305Y606875D01*
X475690Y606974D01*
X475077Y607088D01*
X474467Y607217D01*
X473860Y607361D01*
X473257Y607520D01*
X472659Y607694D01*
X472064Y607882D01*
X471475Y608085D01*
X470891Y608302D01*
X470312Y608533D01*
X469739Y608779D01*
X469172Y609039D01*
X468612Y609312D01*
X468059Y609599D01*
X467512Y609900D01*
X466974Y610214D01*
X466443Y610541D01*
X465921Y610881D01*
X465406Y611233D01*
X464901Y611599D01*
X464405Y611976D01*
X463918Y612366D01*
X463441Y612767D01*
X462974Y613180D01*
X462518Y613604D01*
X462071Y614039D01*
X461636Y614486D01*
X461212Y614942D01*
X460799Y615409D01*
X460398Y615886D01*
X460008Y616373D01*
X459631Y616869D01*
X459265Y617374D01*
X458913Y617889D01*
X458573Y618411D01*
X458246Y618942D01*
X457932Y619480D01*
X457631Y620027D01*
X457344Y620580D01*
X457071Y621140D01*
X456811Y621707D01*
X456565Y622280D01*
X456334Y622859D01*
X456117Y623443D01*
X455914Y624032D01*
X455726Y624627D01*
X455552Y625225D01*
X455393Y625828D01*
X455249Y626435D01*
X455120Y627045D01*
X455006Y627658D01*
X454907Y628273D01*
X454823Y628891D01*
X454754Y629510D01*
X454701Y630131D01*
X454663Y630754D01*
X454640Y631377D01*
X454632Y632000D01*
D14*
X497385Y605412D02*
X510416Y641214D01*
D17*
X510181Y641955D01*
X509928Y642690D01*
X509657Y643419D01*
X509369Y644141D01*
X509063Y644856D01*
X508739Y645563D01*
X508398Y646262D01*
X508041Y646953D01*
X507666Y647634D01*
X507275Y648306D01*
X506867Y648968D01*
X506444Y649620D01*
X506004Y650262D01*
X505549Y650892D01*
X505079Y651512D01*
X504594Y652119D01*
X504094Y652715D01*
X503579Y653298D01*
X503051Y653868D01*
X502508Y654425D01*
X501952Y654969D01*
X501383Y655499D01*
X500801Y656014D01*
X500207Y656516D01*
X499601Y657003D01*
X498983Y657474D01*
X498353Y657931D01*
X497713Y658372D01*
X497061Y658797D01*
X496400Y659206D01*
X495729Y659598D01*
X495048Y659974D01*
X494359Y660334D01*
X493661Y660676D01*
X492954Y661001D01*
X492240Y661309D01*
X491519Y661599D01*
X490791Y661872D01*
X490056Y662126D01*
X489315Y662363D01*
X488569Y662581D01*
X487817Y662781D01*
X487061Y662962D01*
X486301Y663125D01*
X485537Y663269D01*
X484769Y663395D01*
X483999Y663501D01*
X483227Y663589D01*
X482452Y663658D01*
X481676Y663707D01*
X480899Y663738D01*
X480122Y663750D01*
X479344Y663743D01*
X478567Y663716D01*
X477791Y663671D01*
X477016Y663606D01*
X476243Y663523D01*
X475472Y663421D01*
X474704Y663300D01*
X473939Y663160D01*
X473178Y663001D01*
X472421Y662824D01*
X471668Y662629D01*
X470921Y662415D01*
X470178Y662182D01*
X469442Y661932D01*
X468712Y661664D01*
X467989Y661378D01*
X467274Y661074D01*
X466565Y660753D01*
X465865Y660414D01*
X465174Y660059D01*
X464491Y659687D01*
X463818Y659298D01*
X463154Y658892D01*
X462501Y658471D01*
X461858Y658034D01*
X461226Y657581D01*
X460605Y657113D01*
X459996Y656629D01*
X459399Y656131D01*
X458814Y655619D01*
X458242Y655092D01*
X457683Y654552D01*
X457137Y653998D01*
X456605Y653430D01*
X456088Y652850D01*
X455584Y652258D01*
X455095Y651653D01*
X454622Y651036D01*
X454163Y650408D01*
X453720Y649769D01*
X453293Y649120D01*
X452882Y648460D01*
X452487Y647790D01*
X452108Y647111D01*
X451747Y646422D01*
X451402Y645725D01*
X451074Y645020D01*
X450764Y644307D01*
X450472Y643587D01*
X450197Y642859D01*
X449940Y642125D01*
X449701Y641385D01*
X449480Y640640D01*
X449278Y639889D01*
X449094Y639133D01*
X448928Y638374D01*
X448782Y637610D01*
X448654Y636843D01*
X448544Y636073D01*
X448454Y635301D01*
X448383Y634527D01*
X448330Y633751D01*
X448297Y632974D01*
X448283Y632197D01*
X448287Y631419D01*
X448311Y630642D01*
X448354Y629865D01*
X448416Y629090D01*
X448496Y628317D01*
X448596Y627546D01*
X448715Y626777D01*
X448852Y626012D01*
X449008Y625250D01*
X449182Y624492D01*
X449375Y623739D01*
X449587Y622991D01*
X449817Y622248D01*
X450065Y621511D01*
X450330Y620780D01*
X450614Y620056D01*
X450915Y619340D01*
X451234Y618630D01*
X451570Y617929D01*
X451923Y617236D01*
X452293Y616552D01*
X452680Y615878D01*
X453083Y615213D01*
X453502Y614558D01*
X453937Y613913D01*
X454388Y613280D01*
X454854Y612657D01*
X455335Y612047D01*
X455831Y611448D01*
X456342Y610861D01*
X456867Y610288D01*
X457405Y609727D01*
X457958Y609179D01*
X458523Y608646D01*
X459101Y608126D01*
X459692Y607621D01*
X460295Y607130D01*
X460910Y606654D01*
X461537Y606193D01*
X462174Y605748D01*
X462823Y605319D01*
X463481Y604905D01*
X464150Y604508D01*
X464828Y604127D01*
X465515Y603763D01*
X466211Y603416D01*
X466915Y603086D01*
X467627Y602774D01*
X468346Y602479D01*
X469072Y602201D01*
X469805Y601942D01*
X470545Y601701D01*
X471289Y601477D01*
X472040Y601272D01*
X472794Y601086D01*
X473554Y600918D01*
X474317Y600769D01*
X475083Y600638D01*
X475853Y600526D01*
X476625Y600433D01*
X477399Y600359D01*
X478174Y600304D01*
X478951Y600268D01*
X479729Y600251D01*
X480506Y600254D01*
X481283Y600275D01*
X482060Y600315D01*
X482835Y600374D01*
X483609Y600452D01*
X484380Y600549D01*
X485149Y600665D01*
X485915Y600800D01*
X486677Y600953D01*
X487436Y601125D01*
X488190Y601316D01*
X488939Y601525D01*
X489682Y601752D01*
X490420Y601997D01*
X491152Y602261D01*
X491877Y602542D01*
X492594Y602841D01*
X493305Y603157D01*
X494007Y603491D01*
X494701Y603842D01*
X495386Y604209D01*
X496062Y604594D01*
X496728Y604995D01*
X497385Y605412D01*
D10*
X503560Y581840D02*
X503568Y582463D01*
X503591Y583086D01*
X503629Y583709D01*
X503682Y584330D01*
X503751Y584949D01*
X503835Y585567D01*
X503934Y586182D01*
X504048Y586795D01*
X504177Y587405D01*
X504321Y588012D01*
X504480Y588615D01*
X504654Y589213D01*
X504842Y589808D01*
X505045Y590397D01*
X505262Y590981D01*
X505493Y591560D01*
X505739Y592133D01*
X505999Y592700D01*
X506272Y593260D01*
X506559Y593813D01*
X506860Y594360D01*
X507174Y594898D01*
X507501Y595429D01*
X507841Y595951D01*
X508193Y596466D01*
X508559Y596971D01*
X508936Y597467D01*
X509326Y597954D01*
X509727Y598431D01*
X510140Y598898D01*
X510564Y599354D01*
X510999Y599801D01*
X511446Y600236D01*
X511902Y600660D01*
X512369Y601073D01*
X512846Y601474D01*
X513333Y601864D01*
X513829Y602241D01*
X514334Y602607D01*
X514849Y602959D01*
X515371Y603299D01*
X515902Y603626D01*
X516440Y603940D01*
X516987Y604241D01*
X517540Y604528D01*
X518100Y604801D01*
X518667Y605061D01*
X519240Y605307D01*
X519819Y605538D01*
X520403Y605755D01*
X520992Y605958D01*
X521587Y606146D01*
X522185Y606320D01*
X522788Y606479D01*
X523395Y606623D01*
X524005Y606752D01*
X524618Y606866D01*
X525233Y606965D01*
X525851Y607049D01*
X526470Y607118D01*
X527091Y607171D01*
X527714Y607209D01*
X528337Y607232D01*
X528960Y607240D01*
X529583Y607232D01*
X530206Y607209D01*
X530829Y607171D01*
X531450Y607118D01*
X532069Y607049D01*
X532687Y606965D01*
X533302Y606866D01*
X533915Y606752D01*
X534525Y606623D01*
X535132Y606479D01*
X535735Y606320D01*
X536333Y606146D01*
X536928Y605958D01*
X537517Y605755D01*
X538101Y605538D01*
X538680Y605307D01*
X539253Y605061D01*
X539820Y604801D01*
X540380Y604528D01*
X540933Y604241D01*
X541480Y603940D01*
X542018Y603626D01*
X542549Y603299D01*
X543071Y602959D01*
X543586Y602607D01*
X544091Y602241D01*
X544587Y601864D01*
X545074Y601474D01*
X545551Y601073D01*
X546018Y600660D01*
X546474Y600236D01*
X546921Y599801D01*
X547356Y599354D01*
X547780Y598898D01*
X548193Y598431D01*
X548594Y597954D01*
X548984Y597467D01*
X549361Y596971D01*
X549727Y596466D01*
X550079Y595951D01*
X550419Y595429D01*
X550746Y594898D01*
X551060Y594360D01*
X551361Y593813D01*
X551648Y593260D01*
X551921Y592700D01*
X552181Y592133D01*
X552427Y591560D01*
X552658Y590981D01*
X552875Y590397D01*
X553078Y589808D01*
X553266Y589213D01*
X553440Y588615D01*
X553599Y588012D01*
X553743Y587405D01*
X553872Y586795D01*
X553986Y586182D01*
X554085Y585567D01*
X554169Y584949D01*
X554238Y584330D01*
X554291Y583709D01*
X554329Y583086D01*
X554352Y582463D01*
X554360Y581840D01*
X554352Y581217D01*
X554329Y580594D01*
X554291Y579971D01*
X554238Y579350D01*
X554169Y578731D01*
X554085Y578113D01*
X553986Y577498D01*
X553872Y576885D01*
X553743Y576275D01*
X553599Y575668D01*
X553440Y575065D01*
X553266Y574467D01*
X553078Y573872D01*
X552875Y573283D01*
X552658Y572699D01*
X552427Y572120D01*
X552181Y571547D01*
X551921Y570980D01*
X551648Y570420D01*
X551361Y569867D01*
X551060Y569320D01*
X550746Y568782D01*
X550419Y568251D01*
X550079Y567729D01*
X549727Y567214D01*
X549361Y566709D01*
X548984Y566213D01*
X548594Y565726D01*
X548193Y565249D01*
X547780Y564782D01*
X547356Y564326D01*
X546921Y563879D01*
X546474Y563444D01*
X546018Y563020D01*
X545551Y562607D01*
X545074Y562206D01*
X544587Y561816D01*
X544091Y561439D01*
X543586Y561073D01*
X543071Y560721D01*
X542549Y560381D01*
X542018Y560054D01*
X541480Y559740D01*
X540933Y559439D01*
X540380Y559152D01*
X539820Y558879D01*
X539253Y558619D01*
X538680Y558373D01*
X538101Y558142D01*
X537517Y557925D01*
X536928Y557722D01*
X536333Y557534D01*
X535735Y557360D01*
X535132Y557201D01*
X534525Y557057D01*
X533915Y556928D01*
X533302Y556814D01*
X532687Y556715D01*
X532069Y556631D01*
X531450Y556562D01*
X530829Y556509D01*
X530206Y556471D01*
X529583Y556448D01*
X528960Y556440D01*
X528337Y556448D01*
X527714Y556471D01*
X527091Y556509D01*
X526470Y556562D01*
X525851Y556631D01*
X525233Y556715D01*
X524618Y556814D01*
X524005Y556928D01*
X523395Y557057D01*
X522788Y557201D01*
X522185Y557360D01*
X521587Y557534D01*
X520992Y557722D01*
X520403Y557925D01*
X519819Y558142D01*
X519240Y558373D01*
X518667Y558619D01*
X518100Y558879D01*
X517540Y559152D01*
X516987Y559439D01*
X516440Y559740D01*
X515902Y560054D01*
X515371Y560381D01*
X514849Y560721D01*
X514334Y561073D01*
X513829Y561439D01*
X513333Y561816D01*
X512846Y562206D01*
X512369Y562607D01*
X511902Y563020D01*
X511446Y563444D01*
X510999Y563879D01*
X510564Y564326D01*
X510140Y564782D01*
X509727Y565249D01*
X509326Y565726D01*
X508936Y566213D01*
X508559Y566709D01*
X508193Y567214D01*
X507841Y567729D01*
X507501Y568251D01*
X507174Y568782D01*
X506860Y569320D01*
X506559Y569867D01*
X506272Y570420D01*
X505999Y570980D01*
X505739Y571547D01*
X505493Y572120D01*
X505262Y572699D01*
X505045Y573283D01*
X504842Y573872D01*
X504654Y574467D01*
X504480Y575065D01*
X504321Y575668D01*
X504177Y576275D01*
X504048Y576885D01*
X503934Y577498D01*
X503835Y578113D01*
X503751Y578731D01*
X503682Y579350D01*
X503629Y579971D01*
X503591Y580594D01*
X503568Y581217D01*
X503560Y581840D01*
D14*
X498576Y572626D02*
X511607Y608428D01*
D17*
X512264Y608845D01*
X512930Y609246D01*
X513606Y609631D01*
X514291Y609998D01*
X514985Y610349D01*
X515687Y610683D01*
X516398Y610999D01*
X517115Y611298D01*
X517840Y611579D01*
X518572Y611843D01*
X519310Y612088D01*
X520053Y612315D01*
X520802Y612524D01*
X521556Y612715D01*
X522315Y612887D01*
X523077Y613040D01*
X523843Y613175D01*
X524612Y613291D01*
X525383Y613388D01*
X526157Y613466D01*
X526932Y613525D01*
X527709Y613565D01*
X528486Y613586D01*
X529263Y613589D01*
X530041Y613572D01*
X530818Y613536D01*
X531593Y613481D01*
X532367Y613407D01*
X533139Y613314D01*
X533909Y613202D01*
X534675Y613071D01*
X535438Y612922D01*
X536198Y612754D01*
X536952Y612568D01*
X537703Y612363D01*
X538447Y612139D01*
X539187Y611898D01*
X539920Y611639D01*
X540646Y611361D01*
X541365Y611066D01*
X542077Y610754D01*
X542781Y610424D01*
X543477Y610077D01*
X544164Y609713D01*
X544842Y609332D01*
X545511Y608935D01*
X546169Y608521D01*
X546818Y608092D01*
X547455Y607647D01*
X548082Y607186D01*
X548697Y606710D01*
X549300Y606219D01*
X549891Y605714D01*
X550469Y605194D01*
X551034Y604661D01*
X551587Y604113D01*
X552125Y603552D01*
X552650Y602979D01*
X553161Y602392D01*
X553657Y601793D01*
X554138Y601183D01*
X554604Y600560D01*
X555055Y599927D01*
X555490Y599282D01*
X555909Y598627D01*
X556312Y597962D01*
X556699Y597288D01*
X557069Y596604D01*
X557422Y595911D01*
X557758Y595210D01*
X558077Y594500D01*
X558378Y593784D01*
X558662Y593060D01*
X558927Y592329D01*
X559175Y591592D01*
X559405Y590849D01*
X559617Y590101D01*
X559810Y589348D01*
X559984Y588590D01*
X560140Y587828D01*
X560277Y587063D01*
X560396Y586294D01*
X560496Y585523D01*
X560576Y584750D01*
X560638Y583975D01*
X560681Y583198D01*
X560705Y582421D01*
X560709Y581643D01*
X560695Y580866D01*
X560662Y580089D01*
X560609Y579313D01*
X560538Y578539D01*
X560448Y577767D01*
X560338Y576997D01*
X560210Y576230D01*
X560064Y575466D01*
X559898Y574707D01*
X559714Y573951D01*
X559512Y573200D01*
X559291Y572455D01*
X559052Y571715D01*
X558795Y570981D01*
X558520Y570253D01*
X558228Y569533D01*
X557918Y568820D01*
X557590Y568115D01*
X557245Y567418D01*
X556884Y566729D01*
X556505Y566050D01*
X556110Y565380D01*
X555699Y564720D01*
X555272Y564071D01*
X554829Y563432D01*
X554370Y562804D01*
X553897Y562187D01*
X553408Y561582D01*
X552904Y560990D01*
X552387Y560410D01*
X551855Y559842D01*
X551309Y559288D01*
X550750Y558748D01*
X550178Y558221D01*
X549593Y557709D01*
X548996Y557211D01*
X548387Y556727D01*
X547766Y556259D01*
X547134Y555806D01*
X546491Y555369D01*
X545838Y554948D01*
X545174Y554542D01*
X544501Y554153D01*
X543818Y553781D01*
X543127Y553426D01*
X542427Y553087D01*
X541718Y552766D01*
X541003Y552462D01*
X540280Y552176D01*
X539550Y551908D01*
X538814Y551658D01*
X538071Y551425D01*
X537324Y551211D01*
X536571Y551016D01*
X535814Y550839D01*
X535053Y550680D01*
X534288Y550540D01*
X533520Y550419D01*
X532749Y550317D01*
X531976Y550234D01*
X531201Y550169D01*
X530425Y550124D01*
X529648Y550097D01*
X528870Y550090D01*
X528093Y550102D01*
X527316Y550133D01*
X526540Y550182D01*
X525765Y550251D01*
X524993Y550339D01*
X524223Y550445D01*
X523455Y550571D01*
X522691Y550715D01*
X521931Y550878D01*
X521175Y551059D01*
X520423Y551259D01*
X519677Y551477D01*
X518936Y551714D01*
X518201Y551968D01*
X517473Y552241D01*
X516752Y552531D01*
X516038Y552839D01*
X515331Y553164D01*
X514633Y553506D01*
X513944Y553866D01*
X513263Y554242D01*
X512592Y554634D01*
X511931Y555043D01*
X511279Y555468D01*
X510639Y555909D01*
X510009Y556366D01*
X509391Y556837D01*
X508785Y557324D01*
X508191Y557826D01*
X507609Y558341D01*
X507040Y558871D01*
X506484Y559415D01*
X505941Y559972D01*
X505413Y560542D01*
X504898Y561125D01*
X504398Y561721D01*
X503913Y562328D01*
X503443Y562948D01*
X502988Y563578D01*
X502548Y564220D01*
X502125Y564872D01*
X501717Y565534D01*
X501326Y566206D01*
X500951Y566887D01*
X500594Y567578D01*
X500253Y568277D01*
X499929Y568984D01*
X499623Y569699D01*
X499335Y570421D01*
X499064Y571150D01*
X498811Y571885D01*
X498576Y572626D01*
D10*
X505592Y265664D02*
X505600Y266287D01*
X505623Y266910D01*
X505661Y267533D01*
X505714Y268154D01*
X505783Y268773D01*
X505867Y269391D01*
X505966Y270006D01*
X506080Y270619D01*
X506209Y271229D01*
X506353Y271836D01*
X506512Y272439D01*
X506686Y273037D01*
X506874Y273632D01*
X507077Y274221D01*
X507294Y274805D01*
X507525Y275384D01*
X507771Y275957D01*
X508031Y276524D01*
X508304Y277084D01*
X508591Y277637D01*
X508892Y278184D01*
X509206Y278722D01*
X509533Y279253D01*
X509873Y279775D01*
X510225Y280290D01*
X510591Y280795D01*
X510968Y281291D01*
X511358Y281778D01*
X511759Y282255D01*
X512172Y282722D01*
X512596Y283178D01*
X513031Y283625D01*
X513478Y284060D01*
X513934Y284484D01*
X514401Y284897D01*
X514878Y285298D01*
X515365Y285688D01*
X515861Y286065D01*
X516366Y286431D01*
X516881Y286783D01*
X517403Y287123D01*
X517934Y287450D01*
X518472Y287764D01*
X519019Y288065D01*
X519572Y288352D01*
X520132Y288625D01*
X520699Y288885D01*
X521272Y289131D01*
X521851Y289362D01*
X522435Y289579D01*
X523024Y289782D01*
X523619Y289970D01*
X524217Y290144D01*
X524820Y290303D01*
X525427Y290447D01*
X526037Y290576D01*
X526650Y290690D01*
X527265Y290789D01*
X527883Y290873D01*
X528502Y290942D01*
X529123Y290995D01*
X529746Y291033D01*
X530369Y291056D01*
X530992Y291064D01*
X531615Y291056D01*
X532238Y291033D01*
X532861Y290995D01*
X533482Y290942D01*
X534101Y290873D01*
X534719Y290789D01*
X535334Y290690D01*
X535947Y290576D01*
X536557Y290447D01*
X537164Y290303D01*
X537767Y290144D01*
X538365Y289970D01*
X538960Y289782D01*
X539549Y289579D01*
X540133Y289362D01*
X540712Y289131D01*
X541285Y288885D01*
X541852Y288625D01*
X542412Y288352D01*
X542965Y288065D01*
X543512Y287764D01*
X544050Y287450D01*
X544581Y287123D01*
X545103Y286783D01*
X545618Y286431D01*
X546123Y286065D01*
X546619Y285688D01*
X547106Y285298D01*
X547583Y284897D01*
X548050Y284484D01*
X548506Y284060D01*
X548953Y283625D01*
X549388Y283178D01*
X549812Y282722D01*
X550225Y282255D01*
X550626Y281778D01*
X551016Y281291D01*
X551393Y280795D01*
X551759Y280290D01*
X552111Y279775D01*
X552451Y279253D01*
X552778Y278722D01*
X553092Y278184D01*
X553393Y277637D01*
X553680Y277084D01*
X553953Y276524D01*
X554213Y275957D01*
X554459Y275384D01*
X554690Y274805D01*
X554907Y274221D01*
X555110Y273632D01*
X555298Y273037D01*
X555472Y272439D01*
X555631Y271836D01*
X555775Y271229D01*
X555904Y270619D01*
X556018Y270006D01*
X556117Y269391D01*
X556201Y268773D01*
X556270Y268154D01*
X556323Y267533D01*
X556361Y266910D01*
X556384Y266287D01*
X556392Y265664D01*
X556384Y265041D01*
X556361Y264418D01*
X556323Y263795D01*
X556270Y263174D01*
X556201Y262555D01*
X556117Y261937D01*
X556018Y261322D01*
X555904Y260709D01*
X555775Y260099D01*
X555631Y259492D01*
X555472Y258889D01*
X555298Y258291D01*
X555110Y257696D01*
X554907Y257107D01*
X554690Y256523D01*
X554459Y255944D01*
X554213Y255371D01*
X553953Y254804D01*
X553680Y254244D01*
X553393Y253691D01*
X553092Y253144D01*
X552778Y252606D01*
X552451Y252075D01*
X552111Y251553D01*
X551759Y251038D01*
X551393Y250533D01*
X551016Y250037D01*
X550626Y249550D01*
X550225Y249073D01*
X549812Y248606D01*
X549388Y248150D01*
X548953Y247703D01*
X548506Y247268D01*
X548050Y246844D01*
X547583Y246431D01*
X547106Y246030D01*
X546619Y245640D01*
X546123Y245263D01*
X545618Y244897D01*
X545103Y244545D01*
X544581Y244205D01*
X544050Y243878D01*
X543512Y243564D01*
X542965Y243263D01*
X542412Y242976D01*
X541852Y242703D01*
X541285Y242443D01*
X540712Y242197D01*
X540133Y241966D01*
X539549Y241749D01*
X538960Y241546D01*
X538365Y241358D01*
X537767Y241184D01*
X537164Y241025D01*
X536557Y240881D01*
X535947Y240752D01*
X535334Y240638D01*
X534719Y240539D01*
X534101Y240455D01*
X533482Y240386D01*
X532861Y240333D01*
X532238Y240295D01*
X531615Y240272D01*
X530992Y240264D01*
X530369Y240272D01*
X529746Y240295D01*
X529123Y240333D01*
X528502Y240386D01*
X527883Y240455D01*
X527265Y240539D01*
X526650Y240638D01*
X526037Y240752D01*
X525427Y240881D01*
X524820Y241025D01*
X524217Y241184D01*
X523619Y241358D01*
X523024Y241546D01*
X522435Y241749D01*
X521851Y241966D01*
X521272Y242197D01*
X520699Y242443D01*
X520132Y242703D01*
X519572Y242976D01*
X519019Y243263D01*
X518472Y243564D01*
X517934Y243878D01*
X517403Y244205D01*
X516881Y244545D01*
X516366Y244897D01*
X515861Y245263D01*
X515365Y245640D01*
X514878Y246030D01*
X514401Y246431D01*
X513934Y246844D01*
X513478Y247268D01*
X513031Y247703D01*
X512596Y248150D01*
X512172Y248606D01*
X511759Y249073D01*
X511358Y249550D01*
X510968Y250037D01*
X510591Y250533D01*
X510225Y251038D01*
X509873Y251553D01*
X509533Y252075D01*
X509206Y252606D01*
X508892Y253144D01*
X508591Y253691D01*
X508304Y254244D01*
X508031Y254804D01*
X507771Y255371D01*
X507525Y255944D01*
X507294Y256523D01*
X507077Y257107D01*
X506874Y257696D01*
X506686Y258291D01*
X506512Y258889D01*
X506353Y259492D01*
X506209Y260099D01*
X506080Y260709D01*
X505966Y261322D01*
X505867Y261937D01*
X505783Y262555D01*
X505714Y263174D01*
X505661Y263795D01*
X505623Y264418D01*
X505600Y265041D01*
X505592Y265664D01*
D14*
X500608Y274878D02*
X513639Y239076D01*
D17*
X514296Y238659D01*
X514962Y238258D01*
X515638Y237873D01*
X516323Y237506D01*
X517017Y237155D01*
X517719Y236821D01*
X518430Y236505D01*
X519147Y236206D01*
X519872Y235925D01*
X520604Y235661D01*
X521342Y235416D01*
X522085Y235189D01*
X522834Y234980D01*
X523588Y234789D01*
X524347Y234617D01*
X525109Y234464D01*
X525875Y234329D01*
X526644Y234213D01*
X527415Y234116D01*
X528189Y234038D01*
X528964Y233979D01*
X529741Y233939D01*
X530518Y233918D01*
X531295Y233915D01*
X532073Y233932D01*
X532850Y233968D01*
X533625Y234023D01*
X534399Y234097D01*
X535171Y234190D01*
X535941Y234302D01*
X536707Y234433D01*
X537470Y234582D01*
X538230Y234750D01*
X538984Y234936D01*
X539735Y235141D01*
X540479Y235365D01*
X541219Y235606D01*
X541952Y235865D01*
X542678Y236143D01*
X543397Y236438D01*
X544109Y236750D01*
X544813Y237080D01*
X545509Y237427D01*
X546196Y237791D01*
X546874Y238172D01*
X547543Y238569D01*
X548201Y238983D01*
X548850Y239412D01*
X549487Y239857D01*
X550114Y240318D01*
X550729Y240794D01*
X551332Y241285D01*
X551923Y241790D01*
X552501Y242310D01*
X553066Y242843D01*
X553619Y243391D01*
X554157Y243952D01*
X554682Y244525D01*
X555193Y245112D01*
X555689Y245711D01*
X556170Y246321D01*
X556636Y246944D01*
X557087Y247577D01*
X557522Y248222D01*
X557941Y248877D01*
X558344Y249542D01*
X558731Y250216D01*
X559101Y250900D01*
X559454Y251593D01*
X559790Y252294D01*
X560109Y253004D01*
X560410Y253720D01*
X560694Y254444D01*
X560959Y255175D01*
X561207Y255912D01*
X561437Y256655D01*
X561649Y257403D01*
X561842Y258156D01*
X562016Y258914D01*
X562172Y259676D01*
X562309Y260441D01*
X562428Y261210D01*
X562528Y261981D01*
X562608Y262754D01*
X562670Y263529D01*
X562713Y264306D01*
X562737Y265083D01*
X562741Y265861D01*
X562727Y266638D01*
X562694Y267415D01*
X562641Y268191D01*
X562570Y268965D01*
X562480Y269737D01*
X562370Y270507D01*
X562242Y271274D01*
X562096Y272038D01*
X561930Y272797D01*
X561746Y273553D01*
X561544Y274304D01*
X561323Y275049D01*
X561084Y275789D01*
X560827Y276523D01*
X560552Y277251D01*
X560260Y277971D01*
X559950Y278684D01*
X559622Y279389D01*
X559277Y280086D01*
X558916Y280775D01*
X558537Y281454D01*
X558142Y282124D01*
X557731Y282784D01*
X557304Y283433D01*
X556861Y284072D01*
X556402Y284700D01*
X555929Y285317D01*
X555440Y285922D01*
X554936Y286514D01*
X554419Y287094D01*
X553887Y287662D01*
X553341Y288216D01*
X552782Y288756D01*
X552210Y289283D01*
X551625Y289795D01*
X551028Y290293D01*
X550419Y290777D01*
X549798Y291245D01*
X549166Y291698D01*
X548523Y292135D01*
X547870Y292556D01*
X547206Y292962D01*
X546533Y293351D01*
X545850Y293723D01*
X545159Y294078D01*
X544459Y294417D01*
X543750Y294738D01*
X543035Y295042D01*
X542312Y295328D01*
X541582Y295596D01*
X540846Y295846D01*
X540103Y296079D01*
X539356Y296293D01*
X538603Y296488D01*
X537846Y296665D01*
X537085Y296824D01*
X536320Y296964D01*
X535552Y297085D01*
X534781Y297187D01*
X534008Y297270D01*
X533233Y297335D01*
X532457Y297380D01*
X531680Y297407D01*
X530902Y297414D01*
X530125Y297402D01*
X529348Y297371D01*
X528572Y297322D01*
X527797Y297253D01*
X527025Y297165D01*
X526255Y297059D01*
X525487Y296933D01*
X524723Y296789D01*
X523963Y296626D01*
X523207Y296445D01*
X522455Y296245D01*
X521709Y296027D01*
X520968Y295790D01*
X520233Y295536D01*
X519505Y295263D01*
X518784Y294973D01*
X518070Y294665D01*
X517363Y294340D01*
X516665Y293998D01*
X515976Y293638D01*
X515295Y293262D01*
X514624Y292870D01*
X513963Y292461D01*
X513311Y292036D01*
X512671Y291595D01*
X512041Y291138D01*
X511423Y290667D01*
X510817Y290180D01*
X510223Y289678D01*
X509641Y289163D01*
X509072Y288633D01*
X508516Y288089D01*
X507973Y287532D01*
X507445Y286962D01*
X506930Y286379D01*
X506430Y285783D01*
X505945Y285176D01*
X505475Y284556D01*
X505020Y283926D01*
X504580Y283284D01*
X504157Y282632D01*
X503749Y281970D01*
X503358Y281298D01*
X502983Y280617D01*
X502626Y279926D01*
X502285Y279227D01*
X501961Y278520D01*
X501655Y277805D01*
X501367Y277083D01*
X501096Y276354D01*
X500843Y275619D01*
X500608Y274878D01*
D10*
X773308Y458470D02*
X773308Y471170D01*
X773308Y458470D02*
X766958Y452120D01*
X754258Y452120D02*
X747908Y458470D01*
X766958Y452120D02*
X773308Y445770D01*
X773308Y433070D01*
X766958Y426720D01*
X754258Y426720D02*
X747908Y433070D01*
X747908Y445770D01*
X754258Y452120D01*
X754258Y477520D02*
X766958Y477520D01*
X773308Y471170D01*
X754258Y477520D02*
X747908Y471170D01*
X747908Y458470D01*
X766958Y426720D02*
X773308Y420370D01*
X773308Y407670D01*
X766958Y401320D01*
X754258Y401320D02*
X747908Y407670D01*
X747908Y420370D01*
X754258Y426720D01*
X773308Y394970D02*
X773308Y382270D01*
X766958Y375920D01*
X754258Y375920D01*
X747908Y382270D01*
X766958Y401320D02*
X773308Y394970D01*
X754258Y401320D02*
X747908Y394970D01*
X747908Y382270D01*
D15*
X758697Y477891D02*
X754883Y481704D01*
X766323Y481704D01*
X766323Y477891D02*
X766323Y485518D01*
X766323Y368041D02*
X754883Y368041D01*
X760603Y362321D01*
X760603Y369948D01*
D20*
X144016Y28736D03*
D21*
X149016Y61736D02*
X155016Y61736D01*
X155016Y51736D01*
X155016Y41736D02*
X155016Y31736D01*
X149016Y31736D01*
X107016Y31736D02*
X101016Y31736D01*
X101016Y41736D01*
X101016Y51736D02*
X101016Y61736D01*
X107016Y61736D01*
D15*
X124016Y61736D02*
X124018Y61862D01*
X124024Y61987D01*
X124034Y62112D01*
X124048Y62237D01*
X124065Y62362D01*
X124087Y62486D01*
X124112Y62609D01*
X124142Y62731D01*
X124175Y62852D01*
X124212Y62972D01*
X124252Y63091D01*
X124297Y63208D01*
X124345Y63325D01*
X124397Y63439D01*
X124452Y63552D01*
X124511Y63663D01*
X124573Y63772D01*
X124639Y63879D01*
X124708Y63984D01*
X124780Y64087D01*
X124855Y64188D01*
X124934Y64286D01*
X125016Y64381D01*
X125100Y64474D01*
X125188Y64564D01*
X125278Y64652D01*
X125371Y64736D01*
X125466Y64818D01*
X125564Y64897D01*
X125665Y64972D01*
X125768Y65044D01*
X125873Y65113D01*
X125980Y65179D01*
X126089Y65241D01*
X126200Y65300D01*
X126313Y65355D01*
X126427Y65407D01*
X126544Y65455D01*
X126661Y65500D01*
X126780Y65540D01*
X126900Y65577D01*
X127021Y65610D01*
X127143Y65640D01*
X127266Y65665D01*
X127390Y65687D01*
X127515Y65704D01*
X127640Y65718D01*
X127765Y65728D01*
X127890Y65734D01*
X128016Y65736D01*
X128142Y65734D01*
X128267Y65728D01*
X128392Y65718D01*
X128517Y65704D01*
X128642Y65687D01*
X128766Y65665D01*
X128889Y65640D01*
X129011Y65610D01*
X129132Y65577D01*
X129252Y65540D01*
X129371Y65500D01*
X129488Y65455D01*
X129605Y65407D01*
X129719Y65355D01*
X129832Y65300D01*
X129943Y65241D01*
X130052Y65179D01*
X130159Y65113D01*
X130264Y65044D01*
X130367Y64972D01*
X130468Y64897D01*
X130566Y64818D01*
X130661Y64736D01*
X130754Y64652D01*
X130844Y64564D01*
X130932Y64474D01*
X131016Y64381D01*
X131098Y64286D01*
X131177Y64188D01*
X131252Y64087D01*
X131324Y63984D01*
X131393Y63879D01*
X131459Y63772D01*
X131521Y63663D01*
X131580Y63552D01*
X131635Y63439D01*
X131687Y63325D01*
X131735Y63208D01*
X131780Y63091D01*
X131820Y62972D01*
X131857Y62852D01*
X131890Y62731D01*
X131920Y62609D01*
X131945Y62486D01*
X131967Y62362D01*
X131984Y62237D01*
X131998Y62112D01*
X132008Y61987D01*
X132014Y61862D01*
X132016Y61736D01*
D10*
X96266Y100076D02*
X83566Y100076D01*
X96266Y100076D02*
X102616Y93726D01*
X102616Y81026D02*
X96266Y74676D01*
X102616Y93726D02*
X108966Y100076D01*
X121666Y100076D01*
X128016Y93726D01*
X128016Y81026D02*
X121666Y74676D01*
X108966Y74676D01*
X102616Y81026D01*
X77216Y81026D02*
X77216Y93726D01*
X83566Y100076D01*
X77216Y81026D02*
X83566Y74676D01*
X96266Y74676D01*
X128016Y93726D02*
X134366Y100076D01*
X147066Y100076D01*
X153416Y93726D01*
X153416Y81026D02*
X147066Y74676D01*
X134366Y74676D01*
X128016Y81026D01*
X159766Y100076D02*
X172466Y100076D01*
X178816Y93726D01*
X178816Y81026D01*
X172466Y74676D01*
X153416Y93726D02*
X159766Y100076D01*
X153416Y81026D02*
X159766Y74676D01*
X172466Y74676D01*
D15*
X70234Y93101D02*
X66421Y89288D01*
X70234Y93101D02*
X70234Y81661D01*
X66421Y81661D02*
X74048Y81661D01*
X187711Y81661D02*
X187711Y93101D01*
X181991Y87381D01*
X189618Y87381D01*
D10*
X434961Y333561D02*
X438912Y329610D01*
X339770Y428752D02*
X343721Y432703D01*
X438912Y527894D02*
X442863Y523943D01*
X443043Y338770D02*
X434781Y338770D01*
X534103Y432703D02*
X538054Y428752D01*
X438912Y527894D02*
X434961Y523943D01*
X339770Y428752D02*
X343721Y424801D01*
X438912Y329610D02*
X442863Y333561D01*
X534103Y424801D02*
X538054Y428752D01*
D22*
X457375Y322160D02*
X457375Y310895D01*
X451743Y316528D02*
X463008Y316528D01*
X460192Y313711D02*
X454559Y319344D01*
X460192Y319344D02*
X454559Y313711D01*
D14*
X690336Y390500D02*
X690336Y393500D01*
X693336Y393500D01*
X693336Y390500D01*
X700336Y390500D01*
X700336Y469500D02*
X693336Y469500D01*
X693336Y466500D01*
X690336Y466500D01*
X690336Y469500D01*
X690336Y466500D02*
X690336Y393500D01*
X700336Y390500D02*
X700336Y469500D01*
X656336Y390500D02*
X646336Y390500D01*
X646336Y402500D01*
X646336Y469500D02*
X656336Y469500D01*
X646336Y469500D02*
X646336Y457500D01*
X686336Y390500D02*
X690336Y390500D01*
X690336Y469500D02*
X686336Y469500D01*
X428000Y548500D02*
X326500Y548500D01*
X312000Y563000D02*
X312000Y585500D01*
X312000Y614500D02*
X312000Y637000D01*
X326500Y651500D02*
X428000Y651500D01*
X428000Y614500D01*
X428000Y585500D02*
X428000Y548500D01*
X326500Y548500D02*
X312000Y563000D01*
X312000Y637000D02*
X326500Y651500D01*
X323000Y614000D02*
X323355Y615143D01*
X323739Y616277D01*
X324150Y617401D01*
X324588Y618514D01*
X325053Y619617D01*
X325546Y620708D01*
X326064Y621787D01*
X326609Y622852D01*
X327179Y623904D01*
X327776Y624942D01*
X328397Y625965D01*
X329043Y626973D01*
X329713Y627964D01*
X330408Y628939D01*
X331126Y629897D01*
X331867Y630836D01*
X332631Y631758D01*
X333417Y632660D01*
X334225Y633543D01*
X335054Y634406D01*
X335904Y635249D01*
X336774Y636070D01*
X337664Y636870D01*
X338574Y637649D01*
X339502Y638404D01*
X340448Y639137D01*
X341412Y639847D01*
X342393Y640532D01*
X343390Y641194D01*
X344403Y641831D01*
X345432Y642443D01*
X346475Y643030D01*
X347532Y643591D01*
X348603Y644127D01*
X349686Y644636D01*
X350781Y645118D01*
X351888Y645574D01*
X353005Y646002D01*
X354133Y646403D01*
X355270Y646777D01*
X356416Y647122D01*
X357570Y647440D01*
X358731Y647729D01*
X359899Y647990D01*
X361073Y648222D01*
X362253Y648425D01*
X363437Y648600D01*
X364625Y648746D01*
X365816Y648862D01*
X367010Y648950D01*
X368205Y649008D01*
X369402Y649037D01*
X370598Y649037D01*
X371795Y649008D01*
X372990Y648950D01*
X374184Y648862D01*
X375375Y648746D01*
X376563Y648600D01*
X377747Y648425D01*
X378927Y648222D01*
X380101Y647990D01*
X381269Y647729D01*
X382430Y647440D01*
X383584Y647122D01*
X384730Y646777D01*
X385867Y646403D01*
X386995Y646002D01*
X388112Y645574D01*
X389219Y645118D01*
X390314Y644636D01*
X391397Y644127D01*
X392468Y643591D01*
X393525Y643030D01*
X394568Y642443D01*
X395597Y641831D01*
X396610Y641194D01*
X397607Y640532D01*
X398588Y639847D01*
X399552Y639137D01*
X400498Y638404D01*
X401426Y637649D01*
X402336Y636870D01*
X403226Y636070D01*
X404096Y635249D01*
X404946Y634406D01*
X405775Y633543D01*
X406583Y632660D01*
X407369Y631758D01*
X408133Y630836D01*
X408874Y629897D01*
X409592Y628939D01*
X410287Y627964D01*
X410957Y626973D01*
X411603Y625965D01*
X412224Y624942D01*
X412821Y623904D01*
X413391Y622852D01*
X413936Y621787D01*
X414454Y620708D01*
X414947Y619617D01*
X415412Y618514D01*
X415850Y617401D01*
X416261Y616277D01*
X416645Y615143D01*
X417000Y614000D01*
X417000Y586000D02*
X416645Y584857D01*
X416261Y583723D01*
X415850Y582599D01*
X415412Y581486D01*
X414947Y580383D01*
X414454Y579292D01*
X413936Y578213D01*
X413391Y577148D01*
X412821Y576096D01*
X412224Y575058D01*
X411603Y574035D01*
X410957Y573027D01*
X410287Y572036D01*
X409592Y571061D01*
X408874Y570103D01*
X408133Y569164D01*
X407369Y568242D01*
X406583Y567340D01*
X405775Y566457D01*
X404946Y565594D01*
X404096Y564751D01*
X403226Y563930D01*
X402336Y563130D01*
X401426Y562351D01*
X400498Y561596D01*
X399552Y560863D01*
X398588Y560153D01*
X397607Y559468D01*
X396610Y558806D01*
X395597Y558169D01*
X394568Y557557D01*
X393525Y556970D01*
X392468Y556409D01*
X391397Y555873D01*
X390314Y555364D01*
X389219Y554882D01*
X388112Y554426D01*
X386995Y553998D01*
X385867Y553597D01*
X384730Y553223D01*
X383584Y552878D01*
X382430Y552560D01*
X381269Y552271D01*
X380101Y552010D01*
X378927Y551778D01*
X377747Y551575D01*
X376563Y551400D01*
X375375Y551254D01*
X374184Y551138D01*
X372990Y551050D01*
X371795Y550992D01*
X370598Y550963D01*
X369402Y550963D01*
X368205Y550992D01*
X367010Y551050D01*
X365816Y551138D01*
X364625Y551254D01*
X363437Y551400D01*
X362253Y551575D01*
X361073Y551778D01*
X359899Y552010D01*
X358731Y552271D01*
X357570Y552560D01*
X356416Y552878D01*
X355270Y553223D01*
X354133Y553597D01*
X353005Y553998D01*
X351888Y554426D01*
X350781Y554882D01*
X349686Y555364D01*
X348603Y555873D01*
X347532Y556409D01*
X346475Y556970D01*
X345432Y557557D01*
X344403Y558169D01*
X343390Y558806D01*
X342393Y559468D01*
X341412Y560153D01*
X340448Y560863D01*
X339502Y561596D01*
X338574Y562351D01*
X337664Y563130D01*
X336774Y563930D01*
X335904Y564751D01*
X335054Y565594D01*
X334225Y566457D01*
X333417Y567340D01*
X332631Y568242D01*
X331867Y569164D01*
X331126Y570103D01*
X330408Y571061D01*
X329713Y572036D01*
X329043Y573027D01*
X328397Y574035D01*
X327776Y575058D01*
X327179Y576096D01*
X326609Y577148D01*
X326064Y578213D01*
X325546Y579292D01*
X325053Y580383D01*
X324588Y581486D01*
X324150Y582599D01*
X323739Y583723D01*
X323355Y584857D01*
X323000Y586000D01*
M02*
