G04 EAGLE Gerber RS-274X export*
G75*
%MOMM*%
%FSLAX34Y34*%
%LPD*%
%INSoldermask Top*%
%IPPOS*%
%AMOC8*
5,1,8,0,0,1.08239X$1,22.5*%
G01*
%ADD10R,1.803200X2.003200*%
%ADD11R,1.503200X1.803200*%
%ADD12R,1.803200X1.503200*%
%ADD13C,1.625600*%
%ADD14R,1.703200X1.703200*%
%ADD15R,1.503200X1.703200*%
%ADD16R,1.703200X1.503200*%
%ADD17R,1.753200X1.503200*%
%ADD18R,1.703200X0.503200*%
%ADD19R,2.743200X6.654800*%
%ADD20R,2.003200X1.803200*%
%ADD21R,1.803200X2.203200*%
%ADD22R,2.103200X1.603200*%
%ADD23R,3.203200X1.803200*%
%ADD24R,2.703200X2.203200*%
%ADD25R,3.503200X2.203200*%
%ADD26R,3.303200X0.703200*%
%ADD27C,1.103200*%
%ADD28C,1.511200*%
%ADD29C,3.003200*%
%ADD30C,1.727200*%
%ADD31P,1.649562X8X112.500000*%
%ADD32R,0.503200X1.803200*%
%ADD33R,1.803200X0.503200*%
%ADD34P,1.649562X8X42.500000*%
%ADD35P,1.649562X8X362.500000*%
%ADD36P,1.649562X8X182.500000*%
%ADD37P,1.649562X8X222.500000*%
%ADD38R,0.703200X1.103200*%
%ADD39R,1.603200X0.703200*%
%ADD40R,0.457200X1.676400*%
%ADD41R,1.400000X0.400000*%
%ADD42R,2.350000X1.900000*%
%ADD43R,4.503200X2.703200*%


D10*
X36472Y366156D03*
X64472Y366156D03*
D11*
X335728Y293984D03*
X354728Y293984D03*
D12*
X387964Y269808D03*
X387964Y250808D03*
X121976Y234588D03*
X121976Y215588D03*
D13*
X62936Y689324D02*
X62936Y703548D01*
X37536Y703548D02*
X37536Y689324D01*
D14*
X61520Y138296D03*
X61520Y173296D03*
X32804Y138040D03*
X32804Y173040D03*
D11*
X52892Y196944D03*
X33892Y196944D03*
D12*
X127832Y303080D03*
X127832Y322080D03*
D15*
X556444Y361560D03*
X575444Y361560D03*
D16*
X490396Y319900D03*
X490396Y300900D03*
X121864Y270568D03*
X121864Y251568D03*
D17*
X22298Y266264D03*
X101798Y266264D03*
X22298Y221264D03*
X101798Y221264D03*
X22722Y337808D03*
X102222Y337808D03*
X22722Y292808D03*
X102222Y292808D03*
D18*
X133772Y398986D03*
X133772Y405486D03*
X133772Y411986D03*
X133772Y418486D03*
X133772Y424986D03*
X133772Y431486D03*
X133772Y437986D03*
X133772Y444486D03*
X133772Y450986D03*
X133772Y457486D03*
X133772Y463986D03*
X133772Y470486D03*
X68772Y470486D03*
X68772Y463986D03*
X68772Y457486D03*
X68772Y450986D03*
X68772Y444486D03*
X68772Y437986D03*
X68772Y431486D03*
X68772Y424986D03*
X68772Y418486D03*
X68772Y411986D03*
X68772Y405486D03*
X68772Y398986D03*
D19*
X101272Y434736D03*
D20*
X42852Y439024D03*
X42852Y467024D03*
D21*
X107592Y363616D03*
X135592Y363616D03*
D20*
X43360Y388732D03*
X43360Y416732D03*
D22*
X557440Y340676D03*
X513440Y340676D03*
X513440Y316676D03*
X557440Y316676D03*
D23*
X38632Y510936D03*
X82632Y510936D03*
D11*
X419512Y206800D03*
X400512Y206800D03*
D24*
X26144Y548556D03*
X26144Y637556D03*
D25*
X85144Y548556D03*
X85144Y637556D03*
D26*
X86144Y609056D03*
X86144Y601056D03*
X86144Y593056D03*
X86144Y585056D03*
X86144Y577056D03*
D27*
X56144Y615056D03*
X56144Y571056D03*
D13*
X427348Y161864D02*
X427348Y147640D01*
X401948Y147640D02*
X401948Y161864D01*
D11*
X117964Y606608D03*
X136964Y606608D03*
X117456Y587304D03*
X136456Y587304D03*
X111856Y549104D03*
X130856Y549104D03*
D16*
X384704Y205172D03*
X384704Y224172D03*
X315320Y287588D03*
X315320Y268588D03*
D11*
X823460Y76480D03*
X842460Y76480D03*
X823028Y106400D03*
X842028Y106400D03*
X825060Y180560D03*
X844060Y180560D03*
X825060Y211040D03*
X844060Y211040D03*
X820996Y276064D03*
X839996Y276064D03*
X823028Y308576D03*
X842028Y308576D03*
X823028Y379696D03*
X842028Y379696D03*
X823028Y406112D03*
X842028Y406112D03*
X823028Y479264D03*
X842028Y479264D03*
X823028Y454880D03*
X842028Y454880D03*
X823028Y577824D03*
X842028Y577824D03*
X823028Y549376D03*
X842028Y549376D03*
X818964Y679424D03*
X837964Y679424D03*
X825060Y650976D03*
X844060Y650976D03*
X823028Y774928D03*
X842028Y774928D03*
X818964Y750544D03*
X837964Y750544D03*
D28*
X174480Y440408D03*
X194480Y440408D03*
X214480Y440408D03*
X234480Y440408D03*
X254480Y440408D03*
X274480Y440408D03*
D29*
X134480Y695408D03*
X314480Y695408D03*
D28*
X274480Y414440D03*
X254480Y414440D03*
X234480Y414440D03*
X214480Y414440D03*
X194480Y414440D03*
X174480Y414440D03*
D29*
X314480Y159440D03*
X134480Y159440D03*
D30*
X379852Y690428D02*
X379852Y705668D01*
X405252Y705668D02*
X405252Y690428D01*
X430652Y690428D02*
X430652Y705668D01*
X456052Y705668D02*
X456052Y690428D01*
D31*
X795152Y456692D03*
X795152Y482092D03*
D11*
X808004Y527304D03*
X827004Y527304D03*
D31*
X794888Y381508D03*
X794888Y406908D03*
D11*
X721076Y369824D03*
X702076Y369824D03*
D32*
X351376Y261840D03*
X346376Y261840D03*
X341376Y261840D03*
X336376Y261840D03*
X331376Y261840D03*
D33*
X323376Y248840D03*
X323376Y243840D03*
X323376Y238840D03*
D32*
X331376Y225840D03*
X336376Y225840D03*
X341376Y225840D03*
X346376Y225840D03*
X351376Y225840D03*
D33*
X359376Y238840D03*
X359376Y243840D03*
X359376Y248840D03*
D16*
X366776Y210972D03*
X366776Y229972D03*
D11*
X542508Y555272D03*
X561508Y555272D03*
X475388Y250192D03*
X456388Y250192D03*
D12*
X596160Y335292D03*
X596160Y354292D03*
D11*
X478940Y607088D03*
X459940Y607088D03*
D34*
X466066Y217256D03*
X489934Y225944D03*
D35*
X468098Y636344D03*
X491966Y627656D03*
D36*
X540894Y577496D03*
X517026Y586184D03*
D37*
X542926Y270008D03*
X519058Y261320D03*
D30*
X752988Y464820D02*
X768228Y464820D01*
X768228Y439420D02*
X752988Y439420D01*
X752988Y414020D02*
X768228Y414020D01*
X768228Y388620D02*
X752988Y388620D01*
D38*
X144016Y36736D03*
X136016Y36736D03*
X128016Y36736D03*
X120016Y36736D03*
X112016Y36736D03*
D39*
X107516Y46736D03*
D38*
X112016Y56736D03*
X120016Y56736D03*
X128016Y56736D03*
X136016Y56736D03*
X144016Y56736D03*
D39*
X148516Y46736D03*
D30*
X89916Y79756D02*
X89916Y94996D01*
X115316Y94996D02*
X115316Y79756D01*
X140716Y79756D02*
X140716Y94996D01*
X166116Y94996D02*
X166116Y79756D01*
D40*
G36*
X458668Y327455D02*
X455435Y324222D01*
X443582Y336075D01*
X446815Y339308D01*
X458668Y327455D01*
G37*
G36*
X462081Y330868D02*
X458848Y327635D01*
X446995Y339488D01*
X450228Y342721D01*
X462081Y330868D01*
G37*
G36*
X465673Y334460D02*
X462440Y331227D01*
X450587Y343080D01*
X453820Y346313D01*
X465673Y334460D01*
G37*
G36*
X469265Y338052D02*
X466032Y334819D01*
X454179Y346672D01*
X457412Y349905D01*
X469265Y338052D01*
G37*
G36*
X472857Y341644D02*
X469624Y338411D01*
X457771Y350264D01*
X461004Y353497D01*
X472857Y341644D01*
G37*
G36*
X476269Y345057D02*
X473036Y341824D01*
X461183Y353677D01*
X464416Y356910D01*
X476269Y345057D01*
G37*
G36*
X479862Y348649D02*
X476629Y345416D01*
X464776Y357269D01*
X468009Y360502D01*
X479862Y348649D01*
G37*
G36*
X483454Y352241D02*
X480221Y349008D01*
X468368Y360861D01*
X471601Y364094D01*
X483454Y352241D01*
G37*
G36*
X486866Y355653D02*
X483633Y352420D01*
X471780Y364273D01*
X475013Y367506D01*
X486866Y355653D01*
G37*
G36*
X490458Y359245D02*
X487225Y356012D01*
X475372Y367865D01*
X478605Y371098D01*
X490458Y359245D01*
G37*
G36*
X494050Y362837D02*
X490817Y359604D01*
X478964Y371457D01*
X482197Y374690D01*
X494050Y362837D01*
G37*
G36*
X497463Y366250D02*
X494230Y363017D01*
X482377Y374870D01*
X485610Y378103D01*
X497463Y366250D01*
G37*
G36*
X501055Y369842D02*
X497822Y366609D01*
X485969Y378462D01*
X489202Y381695D01*
X501055Y369842D01*
G37*
G36*
X504647Y373434D02*
X501414Y370201D01*
X489561Y382054D01*
X492794Y385287D01*
X504647Y373434D01*
G37*
G36*
X508060Y376847D02*
X504827Y373614D01*
X492974Y385467D01*
X496207Y388700D01*
X508060Y376847D01*
G37*
G36*
X511652Y380439D02*
X508419Y377206D01*
X496566Y389059D01*
X499799Y392292D01*
X511652Y380439D01*
G37*
G36*
X515244Y384031D02*
X512011Y380798D01*
X500158Y392651D01*
X503391Y395884D01*
X515244Y384031D01*
G37*
G36*
X518656Y387443D02*
X515423Y384210D01*
X503570Y396063D01*
X506803Y399296D01*
X518656Y387443D01*
G37*
G36*
X522248Y391035D02*
X519015Y387802D01*
X507162Y399655D01*
X510395Y402888D01*
X522248Y391035D01*
G37*
G36*
X525840Y394628D02*
X522607Y391395D01*
X510754Y403248D01*
X513987Y406481D01*
X525840Y394628D01*
G37*
G36*
X529253Y398040D02*
X526020Y394807D01*
X514167Y406660D01*
X517400Y409893D01*
X529253Y398040D01*
G37*
G36*
X532845Y401632D02*
X529612Y398399D01*
X517759Y410252D01*
X520992Y413485D01*
X532845Y401632D01*
G37*
G36*
X536437Y405224D02*
X533204Y401991D01*
X521351Y413844D01*
X524584Y417077D01*
X536437Y405224D01*
G37*
G36*
X540029Y408816D02*
X536796Y405583D01*
X524943Y417436D01*
X528176Y420669D01*
X540029Y408816D01*
G37*
G36*
X543442Y412229D02*
X540209Y408996D01*
X528356Y420849D01*
X531589Y424082D01*
X543442Y412229D01*
G37*
G36*
X531589Y433422D02*
X528356Y436655D01*
X540209Y448508D01*
X543442Y445275D01*
X531589Y433422D01*
G37*
G36*
X528176Y436835D02*
X524943Y440068D01*
X536796Y451921D01*
X540029Y448688D01*
X528176Y436835D01*
G37*
G36*
X524584Y440427D02*
X521351Y443660D01*
X533204Y455513D01*
X536437Y452280D01*
X524584Y440427D01*
G37*
G36*
X520992Y444019D02*
X517759Y447252D01*
X529612Y459105D01*
X532845Y455872D01*
X520992Y444019D01*
G37*
G36*
X517400Y447611D02*
X514167Y450844D01*
X526020Y462697D01*
X529253Y459464D01*
X517400Y447611D01*
G37*
G36*
X513987Y451023D02*
X510754Y454256D01*
X522607Y466109D01*
X525840Y462876D01*
X513987Y451023D01*
G37*
G36*
X510395Y454616D02*
X507162Y457849D01*
X519015Y469702D01*
X522248Y466469D01*
X510395Y454616D01*
G37*
G36*
X506803Y458208D02*
X503570Y461441D01*
X515423Y473294D01*
X518656Y470061D01*
X506803Y458208D01*
G37*
G36*
X503391Y461620D02*
X500158Y464853D01*
X512011Y476706D01*
X515244Y473473D01*
X503391Y461620D01*
G37*
G36*
X499799Y465212D02*
X496566Y468445D01*
X508419Y480298D01*
X511652Y477065D01*
X499799Y465212D01*
G37*
G36*
X496207Y468804D02*
X492974Y472037D01*
X504827Y483890D01*
X508060Y480657D01*
X496207Y468804D01*
G37*
G36*
X492794Y472217D02*
X489561Y475450D01*
X501414Y487303D01*
X504647Y484070D01*
X492794Y472217D01*
G37*
G36*
X489202Y475809D02*
X485969Y479042D01*
X497822Y490895D01*
X501055Y487662D01*
X489202Y475809D01*
G37*
G36*
X485610Y479401D02*
X482377Y482634D01*
X494230Y494487D01*
X497463Y491254D01*
X485610Y479401D01*
G37*
G36*
X482197Y482814D02*
X478964Y486047D01*
X490817Y497900D01*
X494050Y494667D01*
X482197Y482814D01*
G37*
G36*
X478605Y486406D02*
X475372Y489639D01*
X487225Y501492D01*
X490458Y498259D01*
X478605Y486406D01*
G37*
G36*
X475013Y489998D02*
X471780Y493231D01*
X483633Y505084D01*
X486866Y501851D01*
X475013Y489998D01*
G37*
G36*
X471601Y493410D02*
X468368Y496643D01*
X480221Y508496D01*
X483454Y505263D01*
X471601Y493410D01*
G37*
G36*
X468009Y497002D02*
X464776Y500235D01*
X476629Y512088D01*
X479862Y508855D01*
X468009Y497002D01*
G37*
G36*
X464416Y500594D02*
X461183Y503827D01*
X473036Y515680D01*
X476269Y512447D01*
X464416Y500594D01*
G37*
G36*
X461004Y504007D02*
X457771Y507240D01*
X469624Y519093D01*
X472857Y515860D01*
X461004Y504007D01*
G37*
G36*
X457412Y507599D02*
X454179Y510832D01*
X466032Y522685D01*
X469265Y519452D01*
X457412Y507599D01*
G37*
G36*
X453820Y511191D02*
X450587Y514424D01*
X462440Y526277D01*
X465673Y523044D01*
X453820Y511191D01*
G37*
G36*
X450228Y514783D02*
X446995Y518016D01*
X458848Y529869D01*
X462081Y526636D01*
X450228Y514783D01*
G37*
G36*
X446815Y518196D02*
X443582Y521429D01*
X455435Y533282D01*
X458668Y530049D01*
X446815Y518196D01*
G37*
G36*
X434242Y521429D02*
X431009Y518196D01*
X419156Y530049D01*
X422389Y533282D01*
X434242Y521429D01*
G37*
G36*
X430829Y518016D02*
X427596Y514783D01*
X415743Y526636D01*
X418976Y529869D01*
X430829Y518016D01*
G37*
G36*
X427237Y514424D02*
X424004Y511191D01*
X412151Y523044D01*
X415384Y526277D01*
X427237Y514424D01*
G37*
G36*
X423645Y510832D02*
X420412Y507599D01*
X408559Y519452D01*
X411792Y522685D01*
X423645Y510832D01*
G37*
G36*
X420053Y507240D02*
X416820Y504007D01*
X404967Y515860D01*
X408200Y519093D01*
X420053Y507240D01*
G37*
G36*
X416641Y503827D02*
X413408Y500594D01*
X401555Y512447D01*
X404788Y515680D01*
X416641Y503827D01*
G37*
G36*
X413048Y500235D02*
X409815Y497002D01*
X397962Y508855D01*
X401195Y512088D01*
X413048Y500235D01*
G37*
G36*
X409456Y496643D02*
X406223Y493410D01*
X394370Y505263D01*
X397603Y508496D01*
X409456Y496643D01*
G37*
G36*
X406044Y493231D02*
X402811Y489998D01*
X390958Y501851D01*
X394191Y505084D01*
X406044Y493231D01*
G37*
G36*
X402452Y489639D02*
X399219Y486406D01*
X387366Y498259D01*
X390599Y501492D01*
X402452Y489639D01*
G37*
G36*
X398860Y486047D02*
X395627Y482814D01*
X383774Y494667D01*
X387007Y497900D01*
X398860Y486047D01*
G37*
G36*
X395447Y482634D02*
X392214Y479401D01*
X380361Y491254D01*
X383594Y494487D01*
X395447Y482634D01*
G37*
G36*
X391855Y479042D02*
X388622Y475809D01*
X376769Y487662D01*
X380002Y490895D01*
X391855Y479042D01*
G37*
G36*
X388263Y475450D02*
X385030Y472217D01*
X373177Y484070D01*
X376410Y487303D01*
X388263Y475450D01*
G37*
G36*
X384850Y472037D02*
X381617Y468804D01*
X369764Y480657D01*
X372997Y483890D01*
X384850Y472037D01*
G37*
G36*
X381258Y468445D02*
X378025Y465212D01*
X366172Y477065D01*
X369405Y480298D01*
X381258Y468445D01*
G37*
G36*
X377666Y464853D02*
X374433Y461620D01*
X362580Y473473D01*
X365813Y476706D01*
X377666Y464853D01*
G37*
G36*
X374254Y461441D02*
X371021Y458208D01*
X359168Y470061D01*
X362401Y473294D01*
X374254Y461441D01*
G37*
G36*
X370662Y457849D02*
X367429Y454616D01*
X355576Y466469D01*
X358809Y469702D01*
X370662Y457849D01*
G37*
G36*
X367070Y454256D02*
X363837Y451023D01*
X351984Y462876D01*
X355217Y466109D01*
X367070Y454256D01*
G37*
G36*
X363657Y450844D02*
X360424Y447611D01*
X348571Y459464D01*
X351804Y462697D01*
X363657Y450844D01*
G37*
G36*
X360065Y447252D02*
X356832Y444019D01*
X344979Y455872D01*
X348212Y459105D01*
X360065Y447252D01*
G37*
G36*
X356473Y443660D02*
X353240Y440427D01*
X341387Y452280D01*
X344620Y455513D01*
X356473Y443660D01*
G37*
G36*
X352881Y440068D02*
X349648Y436835D01*
X337795Y448688D01*
X341028Y451921D01*
X352881Y440068D01*
G37*
G36*
X349468Y436655D02*
X346235Y433422D01*
X334382Y445275D01*
X337615Y448508D01*
X349468Y436655D01*
G37*
G36*
X337615Y408996D02*
X334382Y412229D01*
X346235Y424082D01*
X349468Y420849D01*
X337615Y408996D01*
G37*
G36*
X341028Y405583D02*
X337795Y408816D01*
X349648Y420669D01*
X352881Y417436D01*
X341028Y405583D01*
G37*
G36*
X344620Y401991D02*
X341387Y405224D01*
X353240Y417077D01*
X356473Y413844D01*
X344620Y401991D01*
G37*
G36*
X348212Y398399D02*
X344979Y401632D01*
X356832Y413485D01*
X360065Y410252D01*
X348212Y398399D01*
G37*
G36*
X351804Y394807D02*
X348571Y398040D01*
X360424Y409893D01*
X363657Y406660D01*
X351804Y394807D01*
G37*
G36*
X355217Y391395D02*
X351984Y394628D01*
X363837Y406481D01*
X367070Y403248D01*
X355217Y391395D01*
G37*
G36*
X358809Y387802D02*
X355576Y391035D01*
X367429Y402888D01*
X370662Y399655D01*
X358809Y387802D01*
G37*
G36*
X362401Y384210D02*
X359168Y387443D01*
X371021Y399296D01*
X374254Y396063D01*
X362401Y384210D01*
G37*
G36*
X365813Y380798D02*
X362580Y384031D01*
X374433Y395884D01*
X377666Y392651D01*
X365813Y380798D01*
G37*
G36*
X369405Y377206D02*
X366172Y380439D01*
X378025Y392292D01*
X381258Y389059D01*
X369405Y377206D01*
G37*
G36*
X372997Y373614D02*
X369764Y376847D01*
X381617Y388700D01*
X384850Y385467D01*
X372997Y373614D01*
G37*
G36*
X376410Y370201D02*
X373177Y373434D01*
X385030Y385287D01*
X388263Y382054D01*
X376410Y370201D01*
G37*
G36*
X380002Y366609D02*
X376769Y369842D01*
X388622Y381695D01*
X391855Y378462D01*
X380002Y366609D01*
G37*
G36*
X383594Y363017D02*
X380361Y366250D01*
X392214Y378103D01*
X395447Y374870D01*
X383594Y363017D01*
G37*
G36*
X387007Y359604D02*
X383774Y362837D01*
X395627Y374690D01*
X398860Y371457D01*
X387007Y359604D01*
G37*
G36*
X390599Y356012D02*
X387366Y359245D01*
X399219Y371098D01*
X402452Y367865D01*
X390599Y356012D01*
G37*
G36*
X394191Y352420D02*
X390958Y355653D01*
X402811Y367506D01*
X406044Y364273D01*
X394191Y352420D01*
G37*
G36*
X397603Y349008D02*
X394370Y352241D01*
X406223Y364094D01*
X409456Y360861D01*
X397603Y349008D01*
G37*
G36*
X401195Y345416D02*
X397962Y348649D01*
X409815Y360502D01*
X413048Y357269D01*
X401195Y345416D01*
G37*
G36*
X404788Y341824D02*
X401555Y345057D01*
X413408Y356910D01*
X416641Y353677D01*
X404788Y341824D01*
G37*
G36*
X408200Y338411D02*
X404967Y341644D01*
X416820Y353497D01*
X420053Y350264D01*
X408200Y338411D01*
G37*
G36*
X411792Y334819D02*
X408559Y338052D01*
X420412Y349905D01*
X423645Y346672D01*
X411792Y334819D01*
G37*
G36*
X415384Y331227D02*
X412151Y334460D01*
X424004Y346313D01*
X427237Y343080D01*
X415384Y331227D01*
G37*
G36*
X418976Y327635D02*
X415743Y330868D01*
X427596Y342721D01*
X430829Y339488D01*
X418976Y327635D01*
G37*
G36*
X422389Y324222D02*
X419156Y327455D01*
X431009Y339308D01*
X434242Y336075D01*
X422389Y324222D01*
G37*
D15*
X473220Y548808D03*
X492220Y548808D03*
D41*
X638836Y407500D03*
X638836Y412500D03*
X638836Y417500D03*
X638836Y422500D03*
X638836Y427500D03*
X638836Y432500D03*
X638836Y437500D03*
X638836Y442500D03*
X638836Y447500D03*
X638836Y452500D03*
D42*
X671336Y471500D03*
X671336Y388500D03*
D43*
X328500Y600000D03*
X411500Y600000D03*
M02*
