<?xml version="1.0" standalone="no"?>
<!DOCTYPE svg PUBLIC "-//W3C//DTD SVG 20010904//EN"
 "http://www.w3.org/TR/2001/REC-SVG-20010904/DTD/svg10.dtd">
<svg version="1.0" xmlns="http://www.w3.org/2000/svg"
 width="4726.000000pt" height="5344.000000pt" viewBox="0 0 4726.000000 5344.000000"
 preserveAspectRatio="xMidYMid meet">

<g transform="translate(0.000000,5344.000000) scale(0.100000,-0.100000)"
fill="#000000" stroke="none">
<path d="M40197 45323 c-4 -3 -7 -2560 -7 -5681 l0 -5674 -702 -1169 -703
-1168 -2815 -1 -2815 0 -3533 3533 -3532 3532 0 710 0 710 -960 718 -960 717
-9463 0 -9462 0 -948 -948 -947 -947 0 -13245 0 -13245 950 -718 950 -717 700
0 700 0 2 -2357 3 -2358 2625 0 2625 0 3 2358 2 2357 6130 0 6130 0 960 717
960 718 0 711 0 712 3531 3771 3532 3771 2816 0 2816 -1 700 -1174 700 -1175
5 -5683 5 -5682 1680 -3 1680 -2 717 717 718 718 0 17025 0 17025 -717 717
-718 718 -1676 0 c-922 0 -1679 -3 -1682 -7z"/>
</g>
</svg>
