G75*
%MOIN*%
%OFA0B0*%
%FSLAX24Y24*%
%IPPOS*%
%LPD*%
%AMOC8*
5,1,8,0,0,1.08239X$1,22.5*
%
%ADD10R,0.0630X0.0709*%
%ADD11R,0.0512X0.0630*%
%ADD12R,0.0630X0.0512*%
%ADD13C,0.0560*%
%ADD14R,0.0591X0.0591*%
%ADD15R,0.0512X0.0591*%
%ADD16R,0.0591X0.0512*%
%ADD17R,0.0610X0.0512*%
%ADD18R,0.0591X0.0118*%
%ADD19R,0.1000X0.2540*%
%ADD20R,0.0709X0.0630*%
%ADD21R,0.0630X0.0787*%
%ADD22R,0.0748X0.0551*%
%ADD23R,0.1181X0.0630*%
%ADD24R,0.0630X0.1181*%
%ADD25R,0.0984X0.0787*%
%ADD26R,0.1299X0.0787*%
%ADD27R,0.1220X0.0197*%
%ADD28R,0.0110X0.0580*%
%ADD29C,0.0515*%
%ADD30C,0.0600*%
%ADD31R,0.0394X0.0551*%
%ADD32OC8,0.0520*%
%ADD33R,0.0118X0.0236*%
%ADD34R,0.0236X0.0118*%
%ADD35R,0.0354X0.0354*%
%ADD36R,0.0591X0.0591*%
%ADD37C,0.0120*%
%ADD38C,0.0160*%
%ADD39C,0.0396*%
%ADD40C,0.0100*%
%ADD41C,0.0500*%
%ADD42C,0.0400*%
%ADD43C,0.0320*%
%ADD44C,0.0240*%
D10*
X016736Y017396D03*
X017838Y017396D03*
D11*
X017382Y010734D03*
X016634Y010734D03*
X028518Y014074D03*
X029266Y014074D03*
X031068Y011122D03*
X031816Y011122D03*
X035166Y008500D03*
X035914Y008500D03*
X033194Y008180D03*
X032446Y008180D03*
X049277Y007169D03*
X050026Y007169D03*
X050043Y005991D03*
X049294Y005991D03*
X049357Y010089D03*
X050106Y010089D03*
X050106Y011289D03*
X049357Y011289D03*
X049197Y013849D03*
X049946Y013849D03*
X050026Y015129D03*
X049277Y015129D03*
X049277Y017929D03*
X050026Y017929D03*
X050026Y018969D03*
X049277Y018969D03*
X049086Y020100D03*
X049834Y020100D03*
X050026Y020889D03*
X049277Y020889D03*
X049277Y021849D03*
X050026Y021849D03*
X048954Y023620D03*
X048206Y023620D03*
X049277Y024609D03*
X050026Y024609D03*
X050026Y025729D03*
X049277Y025729D03*
X049357Y028609D03*
X050106Y028609D03*
X049866Y029729D03*
X049117Y029729D03*
X049117Y032529D03*
X049866Y032529D03*
X050026Y033489D03*
X049277Y033489D03*
X035754Y031220D03*
X035006Y031220D03*
X033034Y030020D03*
X032286Y030020D03*
X020692Y026862D03*
X019944Y026862D03*
X019924Y026102D03*
X020672Y026102D03*
X020452Y024598D03*
X019704Y024598D03*
D12*
X020333Y015660D03*
X020333Y014912D03*
X020102Y012216D03*
X020102Y011468D03*
X030134Y012854D03*
X030134Y013602D03*
X034340Y008634D03*
X034340Y007886D03*
X034340Y031246D03*
X034340Y031994D03*
D13*
X017778Y030679D02*
X017778Y030119D01*
X016778Y030119D02*
X016778Y030679D01*
X031153Y009595D02*
X031713Y009595D01*
X031713Y008595D02*
X031153Y008595D01*
D14*
X017722Y008425D03*
X016591Y008415D03*
X016591Y009793D03*
X017722Y009803D03*
D15*
X029045Y011460D03*
X029715Y011460D03*
X031507Y013118D03*
X032176Y013118D03*
X032187Y015498D03*
X032856Y015498D03*
D16*
X030366Y011766D03*
X030366Y011097D03*
X027114Y011794D03*
X027114Y012463D03*
X020098Y012924D03*
X020098Y013593D03*
D17*
X019308Y013463D03*
X019324Y014508D03*
X019324Y016280D03*
X016195Y016280D03*
X016195Y014508D03*
X016178Y013463D03*
X016178Y011691D03*
X019308Y011691D03*
D18*
X020567Y018688D03*
X020567Y018944D03*
X020567Y019200D03*
X020567Y019456D03*
X020567Y019712D03*
X020567Y019968D03*
X020567Y020224D03*
X020567Y020479D03*
X020567Y020735D03*
X020567Y020991D03*
X020567Y021247D03*
X020567Y021503D03*
X018008Y021503D03*
X018008Y021247D03*
X018008Y020991D03*
X018008Y020735D03*
X018008Y020479D03*
X018008Y020224D03*
X018008Y019968D03*
X018008Y019712D03*
X018008Y019456D03*
X018008Y019200D03*
X018008Y018944D03*
X018008Y018688D03*
D19*
X019287Y020096D03*
D20*
X016987Y020264D03*
X017007Y019387D03*
X017007Y018284D03*
X016987Y021367D03*
D21*
X019536Y017296D03*
X020638Y017296D03*
D22*
X031224Y014716D03*
X031224Y013771D03*
X032956Y013771D03*
X032956Y014716D03*
D23*
X018553Y023096D03*
X016821Y023096D03*
D24*
X030846Y029782D03*
X030846Y031514D03*
D25*
X016329Y028081D03*
X016329Y024577D03*
D26*
X018652Y024577D03*
X018652Y028081D03*
D27*
X018691Y026959D03*
X018691Y026644D03*
X018691Y026329D03*
X018691Y026014D03*
X018691Y025699D03*
D28*
G36*
X027607Y019217D02*
X027530Y019140D01*
X027121Y019549D01*
X027198Y019626D01*
X027607Y019217D01*
G37*
G36*
X027748Y019358D02*
X027671Y019281D01*
X027262Y019690D01*
X027339Y019767D01*
X027748Y019358D01*
G37*
G36*
X027889Y019500D02*
X027812Y019423D01*
X027403Y019832D01*
X027480Y019909D01*
X027889Y019500D01*
G37*
G36*
X028024Y019634D02*
X027947Y019557D01*
X027538Y019966D01*
X027615Y020043D01*
X028024Y019634D01*
G37*
G36*
X028165Y019775D02*
X028088Y019698D01*
X027679Y020107D01*
X027756Y020184D01*
X028165Y019775D01*
G37*
G36*
X028307Y019917D02*
X028230Y019840D01*
X027821Y020249D01*
X027898Y020326D01*
X028307Y019917D01*
G37*
G36*
X028441Y020051D02*
X028364Y019974D01*
X027955Y020383D01*
X028032Y020460D01*
X028441Y020051D01*
G37*
G36*
X028582Y020193D02*
X028505Y020116D01*
X028096Y020525D01*
X028173Y020602D01*
X028582Y020193D01*
G37*
G36*
X028724Y020334D02*
X028647Y020257D01*
X028238Y020666D01*
X028315Y020743D01*
X028724Y020334D01*
G37*
G36*
X028865Y020475D02*
X028788Y020398D01*
X028379Y020807D01*
X028456Y020884D01*
X028865Y020475D01*
G37*
G36*
X029000Y020610D02*
X028923Y020533D01*
X028514Y020942D01*
X028591Y021019D01*
X029000Y020610D01*
G37*
G36*
X029141Y020751D02*
X029064Y020674D01*
X028655Y021083D01*
X028732Y021160D01*
X029141Y020751D01*
G37*
G36*
X029282Y020893D02*
X029205Y020816D01*
X028796Y021225D01*
X028873Y021302D01*
X029282Y020893D01*
G37*
G36*
X029417Y021027D02*
X029340Y020950D01*
X028931Y021359D01*
X029008Y021436D01*
X029417Y021027D01*
G37*
G36*
X029558Y021168D02*
X029481Y021091D01*
X029072Y021500D01*
X029149Y021577D01*
X029558Y021168D01*
G37*
G36*
X029700Y021310D02*
X029623Y021233D01*
X029214Y021642D01*
X029291Y021719D01*
X029700Y021310D01*
G37*
G36*
X030380Y021233D02*
X030303Y021310D01*
X030712Y021719D01*
X030789Y021642D01*
X030380Y021233D01*
G37*
G36*
X030521Y021091D02*
X030444Y021168D01*
X030853Y021577D01*
X030930Y021500D01*
X030521Y021091D01*
G37*
G36*
X030662Y020950D02*
X030585Y021027D01*
X030994Y021436D01*
X031071Y021359D01*
X030662Y020950D01*
G37*
G36*
X030797Y020816D02*
X030720Y020893D01*
X031129Y021302D01*
X031206Y021225D01*
X030797Y020816D01*
G37*
G36*
X030938Y020674D02*
X030861Y020751D01*
X031270Y021160D01*
X031347Y021083D01*
X030938Y020674D01*
G37*
G36*
X031080Y020533D02*
X031003Y020610D01*
X031412Y021019D01*
X031489Y020942D01*
X031080Y020533D01*
G37*
G36*
X031214Y020398D02*
X031137Y020475D01*
X031546Y020884D01*
X031623Y020807D01*
X031214Y020398D01*
G37*
G36*
X031355Y020257D02*
X031278Y020334D01*
X031687Y020743D01*
X031764Y020666D01*
X031355Y020257D01*
G37*
G36*
X031497Y020116D02*
X031420Y020193D01*
X031829Y020602D01*
X031906Y020525D01*
X031497Y020116D01*
G37*
G36*
X031638Y019974D02*
X031561Y020051D01*
X031970Y020460D01*
X032047Y020383D01*
X031638Y019974D01*
G37*
G36*
X031773Y019840D02*
X031696Y019917D01*
X032105Y020326D01*
X032182Y020249D01*
X031773Y019840D01*
G37*
G36*
X031914Y019698D02*
X031837Y019775D01*
X032246Y020184D01*
X032323Y020107D01*
X031914Y019698D01*
G37*
G36*
X032055Y019557D02*
X031978Y019634D01*
X032387Y020043D01*
X032464Y019966D01*
X032055Y019557D01*
G37*
G36*
X032190Y019423D02*
X032113Y019500D01*
X032522Y019909D01*
X032599Y019832D01*
X032190Y019423D01*
G37*
G36*
X032331Y019281D02*
X032254Y019358D01*
X032663Y019767D01*
X032740Y019690D01*
X032331Y019281D01*
G37*
G36*
X032473Y019140D02*
X032396Y019217D01*
X032805Y019626D01*
X032882Y019549D01*
X032473Y019140D01*
G37*
G36*
X032882Y018128D02*
X032805Y018051D01*
X032396Y018460D01*
X032473Y018537D01*
X032882Y018128D01*
G37*
G36*
X032740Y017986D02*
X032663Y017909D01*
X032254Y018318D01*
X032331Y018395D01*
X032740Y017986D01*
G37*
G36*
X032599Y017845D02*
X032522Y017768D01*
X032113Y018177D01*
X032190Y018254D01*
X032599Y017845D01*
G37*
G36*
X032464Y017711D02*
X032387Y017634D01*
X031978Y018043D01*
X032055Y018120D01*
X032464Y017711D01*
G37*
G36*
X032323Y017569D02*
X032246Y017492D01*
X031837Y017901D01*
X031914Y017978D01*
X032323Y017569D01*
G37*
G36*
X032182Y017428D02*
X032105Y017351D01*
X031696Y017760D01*
X031773Y017837D01*
X032182Y017428D01*
G37*
G36*
X032047Y017293D02*
X031970Y017216D01*
X031561Y017625D01*
X031638Y017702D01*
X032047Y017293D01*
G37*
G36*
X031906Y017152D02*
X031829Y017075D01*
X031420Y017484D01*
X031497Y017561D01*
X031906Y017152D01*
G37*
G36*
X031764Y017011D02*
X031687Y016934D01*
X031278Y017343D01*
X031355Y017420D01*
X031764Y017011D01*
G37*
G36*
X031623Y016869D02*
X031546Y016792D01*
X031137Y017201D01*
X031214Y017278D01*
X031623Y016869D01*
G37*
G36*
X031489Y016735D02*
X031412Y016658D01*
X031003Y017067D01*
X031080Y017144D01*
X031489Y016735D01*
G37*
G36*
X031347Y016593D02*
X031270Y016516D01*
X030861Y016925D01*
X030938Y017002D01*
X031347Y016593D01*
G37*
G36*
X031206Y016452D02*
X031129Y016375D01*
X030720Y016784D01*
X030797Y016861D01*
X031206Y016452D01*
G37*
G36*
X031071Y016318D02*
X030994Y016241D01*
X030585Y016650D01*
X030662Y016727D01*
X031071Y016318D01*
G37*
G36*
X030930Y016176D02*
X030853Y016099D01*
X030444Y016508D01*
X030521Y016585D01*
X030930Y016176D01*
G37*
G36*
X030789Y016035D02*
X030712Y015958D01*
X030303Y016367D01*
X030380Y016444D01*
X030789Y016035D01*
G37*
G36*
X029291Y015958D02*
X029214Y016035D01*
X029623Y016444D01*
X029700Y016367D01*
X029291Y015958D01*
G37*
G36*
X029149Y016099D02*
X029072Y016176D01*
X029481Y016585D01*
X029558Y016508D01*
X029149Y016099D01*
G37*
G36*
X029008Y016241D02*
X028931Y016318D01*
X029340Y016727D01*
X029417Y016650D01*
X029008Y016241D01*
G37*
G36*
X028873Y016375D02*
X028796Y016452D01*
X029205Y016861D01*
X029282Y016784D01*
X028873Y016375D01*
G37*
G36*
X028732Y016516D02*
X028655Y016593D01*
X029064Y017002D01*
X029141Y016925D01*
X028732Y016516D01*
G37*
G36*
X028591Y016658D02*
X028514Y016735D01*
X028923Y017144D01*
X029000Y017067D01*
X028591Y016658D01*
G37*
G36*
X028456Y016792D02*
X028379Y016869D01*
X028788Y017278D01*
X028865Y017201D01*
X028456Y016792D01*
G37*
G36*
X028315Y016934D02*
X028238Y017011D01*
X028647Y017420D01*
X028724Y017343D01*
X028315Y016934D01*
G37*
G36*
X028173Y017075D02*
X028096Y017152D01*
X028505Y017561D01*
X028582Y017484D01*
X028173Y017075D01*
G37*
G36*
X028032Y017216D02*
X027955Y017293D01*
X028364Y017702D01*
X028441Y017625D01*
X028032Y017216D01*
G37*
G36*
X027898Y017351D02*
X027821Y017428D01*
X028230Y017837D01*
X028307Y017760D01*
X027898Y017351D01*
G37*
G36*
X027756Y017492D02*
X027679Y017569D01*
X028088Y017978D01*
X028165Y017901D01*
X027756Y017492D01*
G37*
G36*
X027615Y017634D02*
X027538Y017711D01*
X027947Y018120D01*
X028024Y018043D01*
X027615Y017634D01*
G37*
G36*
X027480Y017768D02*
X027403Y017845D01*
X027812Y018254D01*
X027889Y018177D01*
X027480Y017768D01*
G37*
G36*
X027339Y017909D02*
X027262Y017986D01*
X027671Y018395D01*
X027748Y018318D01*
X027339Y017909D01*
G37*
G36*
X027198Y018051D02*
X027121Y018128D01*
X027530Y018537D01*
X027607Y018460D01*
X027198Y018051D01*
G37*
D29*
X026106Y019297D03*
X025319Y019297D03*
X024531Y019297D03*
X023744Y019297D03*
X022957Y019297D03*
X022169Y019297D03*
X022169Y020319D03*
X022957Y020319D03*
X023744Y020319D03*
X024531Y020319D03*
X025319Y020319D03*
X026106Y020319D03*
D30*
X028680Y027800D02*
X028680Y028400D01*
X029680Y028400D02*
X029680Y027800D01*
X030680Y027800D02*
X030680Y028400D01*
X031680Y028400D02*
X031680Y027800D01*
D31*
X032286Y030707D03*
X033034Y030707D03*
X032660Y031573D03*
X032446Y007413D03*
X033194Y007413D03*
X032820Y006547D03*
D32*
X048100Y017920D03*
X048100Y018920D03*
X048180Y020960D03*
X048180Y021960D03*
D33*
X029134Y013092D03*
X028937Y013092D03*
X028740Y013092D03*
X028543Y013092D03*
X028346Y013092D03*
X028346Y012068D03*
X028543Y012068D03*
X028740Y012068D03*
X028937Y012068D03*
X029134Y012068D03*
D34*
X029252Y012383D03*
X029252Y012580D03*
X029252Y012777D03*
X028228Y012777D03*
X028228Y012580D03*
X028228Y012383D03*
D35*
G36*
X035276Y006375D02*
X034935Y006284D01*
X034844Y006625D01*
X035185Y006716D01*
X035276Y006375D01*
G37*
G36*
X037356Y007575D02*
X037015Y007484D01*
X036924Y007825D01*
X037265Y007916D01*
X037356Y007575D01*
G37*
G36*
X037015Y031596D02*
X037356Y031505D01*
X037265Y031164D01*
X036924Y031255D01*
X037015Y031596D01*
G37*
G36*
X034935Y032796D02*
X035276Y032705D01*
X035185Y032364D01*
X034844Y032455D01*
X034935Y032796D01*
G37*
D36*
G36*
X034684Y032702D02*
X034115Y032855D01*
X034268Y033424D01*
X034837Y033271D01*
X034684Y032702D01*
G37*
G36*
X036015Y032345D02*
X035446Y032498D01*
X035599Y033067D01*
X036168Y032914D01*
X036015Y032345D01*
G37*
G36*
X036764Y031502D02*
X036195Y031655D01*
X036348Y032224D01*
X036917Y032071D01*
X036764Y031502D01*
G37*
G36*
X038095Y031145D02*
X037526Y031298D01*
X037679Y031867D01*
X038248Y031714D01*
X038095Y031145D01*
G37*
G36*
X037526Y007782D02*
X038095Y007935D01*
X038248Y007366D01*
X037679Y007213D01*
X037526Y007782D01*
G37*
G36*
X036195Y007425D02*
X036764Y007578D01*
X036917Y007009D01*
X036348Y006856D01*
X036195Y007425D01*
G37*
G36*
X035446Y006582D02*
X036015Y006735D01*
X036168Y006166D01*
X035599Y006013D01*
X035446Y006582D01*
G37*
G36*
X034115Y006225D02*
X034684Y006378D01*
X034837Y005809D01*
X034268Y005656D01*
X034115Y006225D01*
G37*
D37*
X035060Y005140D02*
X035807Y005887D01*
X035807Y006374D01*
X030900Y011860D02*
X030460Y011860D01*
X030366Y011766D01*
X029457Y016201D02*
X030180Y016924D01*
X030180Y017300D01*
X027505Y019524D02*
X026710Y020319D01*
X026106Y020319D01*
X019719Y018944D02*
X019287Y019376D01*
X019287Y019456D01*
X019287Y019456D01*
X019287Y019616D01*
X019287Y019648D01*
X019351Y019712D01*
X019207Y019856D02*
X019127Y019936D01*
X019047Y019456D02*
X018008Y019456D01*
X018008Y019200D02*
X018008Y018944D01*
X018008Y018688D01*
X016928Y020224D02*
X016987Y020264D01*
X019287Y020576D02*
X019287Y020816D01*
X019247Y020856D01*
X035754Y031220D02*
X036980Y031220D01*
X037140Y031380D01*
X036556Y031863D02*
X036701Y032007D01*
X036701Y033661D01*
X036900Y033860D01*
X047700Y033860D01*
X048020Y033540D01*
X048020Y024340D01*
X047700Y024020D01*
X047700Y018320D01*
X048100Y017920D01*
X048580Y025620D02*
X049169Y025620D01*
X049277Y025729D01*
X048580Y025620D02*
X048260Y025940D01*
X048260Y033620D01*
X048020Y033860D01*
X048020Y034100D01*
X048420Y034180D02*
X048420Y033860D01*
X048500Y033780D01*
X048500Y030071D01*
X048820Y029751D01*
X049095Y029751D01*
X049117Y029729D01*
D38*
X016129Y009066D02*
X016180Y008848D01*
X016186Y008854D01*
X016227Y008878D01*
X016273Y008890D01*
X016524Y008890D01*
X016524Y008482D01*
X016659Y008482D01*
X017067Y008482D01*
X017067Y008734D01*
X017055Y008779D01*
X017031Y008820D01*
X016997Y008854D01*
X016956Y008878D01*
X016910Y008890D01*
X016659Y008890D01*
X016659Y008482D01*
X016659Y008347D01*
X017067Y008347D01*
X017067Y008096D01*
X017055Y008050D01*
X017031Y008009D01*
X016997Y007975D01*
X016990Y007971D01*
X017061Y007940D01*
X017364Y007882D01*
X017490Y007880D01*
X017529Y007880D01*
X017618Y007884D01*
X017629Y007880D01*
X031771Y007880D01*
X031780Y007883D01*
X031870Y007880D01*
X031959Y007880D01*
X031969Y007876D01*
X031979Y007876D01*
X032010Y007861D01*
X032010Y008132D01*
X032398Y008132D01*
X032494Y008132D01*
X032494Y007869D01*
X032464Y007869D01*
X032464Y007432D01*
X032428Y007432D01*
X032428Y007869D01*
X032398Y007869D01*
X032398Y008132D01*
X032398Y008228D01*
X032010Y008228D01*
X032010Y008285D01*
X031956Y008231D01*
X031798Y008165D01*
X031067Y008165D01*
X030909Y008231D01*
X030788Y008352D01*
X030723Y008510D01*
X030723Y008681D01*
X030788Y008839D01*
X030909Y008960D01*
X031067Y009025D01*
X031798Y009025D01*
X031956Y008960D01*
X032077Y008839D01*
X032143Y008681D01*
X032143Y008669D01*
X032166Y008675D01*
X032247Y008675D01*
X032223Y008685D01*
X032125Y008783D01*
X032072Y008911D01*
X032072Y009049D01*
X032125Y009177D01*
X032223Y009275D01*
X032351Y009328D01*
X032489Y009328D01*
X032617Y009275D01*
X032715Y009177D01*
X032768Y009049D01*
X032768Y009020D01*
X033063Y009020D01*
X033180Y008903D01*
X033394Y008689D01*
X033394Y008645D01*
X033512Y008645D01*
X033600Y008557D01*
X033600Y007803D01*
X033541Y007744D01*
X033541Y007075D01*
X033453Y006987D01*
X032935Y006987D01*
X032847Y007075D01*
X032847Y007744D01*
X032841Y007750D01*
X032819Y007727D01*
X032823Y007712D01*
X032823Y007431D01*
X032464Y007431D01*
X032464Y007395D01*
X032823Y007395D01*
X032823Y007114D01*
X032811Y007068D01*
X032787Y007027D01*
X032753Y006993D01*
X032717Y006973D01*
X033079Y006973D01*
X033167Y006885D01*
X033167Y006209D01*
X033079Y006121D01*
X033050Y006121D01*
X033050Y005875D01*
X033555Y005370D01*
X034993Y005370D01*
X035512Y005889D01*
X035469Y005914D01*
X035379Y006251D01*
X035376Y006246D01*
X034914Y006122D01*
X034908Y006125D01*
X034999Y005787D01*
X034936Y005680D01*
X034246Y005495D01*
X034138Y005557D01*
X033953Y006247D01*
X034016Y006355D01*
X034110Y006380D01*
X034110Y007480D01*
X033963Y007480D01*
X033875Y007568D01*
X033875Y008204D01*
X033931Y008260D01*
X033875Y008316D01*
X033875Y008480D01*
X032245Y010110D01*
X032110Y010245D01*
X032110Y010657D01*
X032060Y010657D01*
X032060Y010417D01*
X031943Y010300D01*
X031793Y010150D01*
X031793Y010025D01*
X031798Y010025D01*
X031956Y009960D01*
X032077Y009839D01*
X032143Y009681D01*
X032143Y009510D01*
X032077Y009352D01*
X031956Y009231D01*
X031798Y009165D01*
X031067Y009165D01*
X030909Y009231D01*
X030788Y009352D01*
X030723Y009510D01*
X030723Y009681D01*
X030788Y009839D01*
X030909Y009960D01*
X031067Y010025D01*
X031393Y010025D01*
X031393Y010315D01*
X031510Y010433D01*
X031510Y010433D01*
X031660Y010583D01*
X031660Y010657D01*
X031498Y010657D01*
X031463Y010692D01*
X031435Y010663D01*
X031394Y010639D01*
X031348Y010627D01*
X031116Y010627D01*
X031116Y011074D01*
X031020Y011074D01*
X030632Y011074D01*
X030632Y011049D01*
X030414Y011049D01*
X030414Y011145D01*
X030841Y011145D01*
X030841Y011170D01*
X031020Y011170D01*
X031020Y011074D01*
X031020Y010627D01*
X030789Y010627D01*
X030743Y010639D01*
X030702Y010663D01*
X030699Y010665D01*
X030685Y010661D01*
X030414Y010661D01*
X030414Y011049D01*
X030318Y011049D01*
X030318Y010661D01*
X030047Y010661D01*
X030001Y010673D01*
X029960Y010697D01*
X029927Y010731D01*
X029903Y010772D01*
X029891Y010817D01*
X029891Y011015D01*
X029401Y011015D01*
X029371Y010997D01*
X029325Y010985D01*
X029093Y010985D01*
X029093Y011412D01*
X028997Y011412D01*
X028609Y011412D01*
X028609Y011141D01*
X028622Y011095D01*
X028645Y011054D01*
X028679Y011021D01*
X028720Y010997D01*
X028766Y010985D01*
X028997Y010985D01*
X028997Y011412D01*
X028997Y011508D01*
X028609Y011508D01*
X028609Y011770D01*
X028543Y011770D01*
X028543Y011833D01*
X028543Y011833D01*
X028543Y011770D01*
X028460Y011770D01*
X028445Y011774D01*
X028429Y011770D01*
X028346Y011770D01*
X028346Y011833D01*
X028346Y011770D01*
X028264Y011770D01*
X028218Y011782D01*
X028177Y011806D01*
X028143Y011840D01*
X028120Y011881D01*
X028107Y011926D01*
X028107Y012068D01*
X028346Y012068D01*
X028346Y012068D01*
X028107Y012068D01*
X028107Y012144D01*
X028086Y012144D01*
X028041Y012156D01*
X028000Y012180D01*
X027966Y012214D01*
X027942Y012255D01*
X027930Y012300D01*
X027930Y012383D01*
X028036Y012383D01*
X028036Y012383D01*
X027930Y012383D01*
X027930Y012466D01*
X027942Y012512D01*
X027960Y012542D01*
X027960Y012748D01*
X027897Y012685D01*
X027769Y012632D01*
X027631Y012632D01*
X027589Y012649D01*
X027589Y012511D01*
X027162Y012511D01*
X027066Y012511D01*
X027066Y012899D01*
X026795Y012899D01*
X026749Y012887D01*
X026708Y012863D01*
X026675Y012829D01*
X026663Y012809D01*
X026569Y012848D01*
X026435Y012848D01*
X026159Y013124D01*
X020543Y013124D01*
X027383Y013124D01*
X027405Y013177D02*
X027352Y013049D01*
X027352Y012911D01*
X027357Y012899D01*
X027162Y012899D01*
X027162Y012511D01*
X027162Y012415D01*
X027589Y012415D01*
X027589Y012208D01*
X027689Y012208D01*
X027817Y012155D01*
X027915Y012057D01*
X027968Y011929D01*
X027968Y011791D01*
X027915Y011663D01*
X027817Y011565D01*
X027689Y011512D01*
X027559Y011512D01*
X027559Y011476D01*
X027472Y011388D01*
X027153Y011388D01*
X027003Y011238D01*
X020567Y011238D01*
X020567Y011150D01*
X020479Y011062D01*
X019979Y011062D01*
X019937Y011020D01*
X018743Y011020D01*
X018257Y010534D01*
X017788Y010534D01*
X017788Y010357D01*
X017700Y010269D01*
X017064Y010269D01*
X017008Y010325D01*
X016952Y010269D01*
X016821Y010269D01*
X016821Y010238D01*
X016949Y010238D01*
X017037Y010150D01*
X017037Y009435D01*
X016949Y009347D01*
X016234Y009347D01*
X016146Y009435D01*
X016146Y010150D01*
X016234Y010238D01*
X016361Y010238D01*
X016361Y010269D01*
X016316Y010269D01*
X016228Y010357D01*
X016228Y011111D01*
X016316Y011199D01*
X016952Y011199D01*
X017008Y011143D01*
X017064Y011199D01*
X017700Y011199D01*
X017788Y011111D01*
X017788Y010934D01*
X018091Y010934D01*
X018460Y011303D01*
X018577Y011420D01*
X018853Y011420D01*
X018853Y011461D01*
X016633Y011461D01*
X016633Y011373D01*
X016545Y011285D01*
X016120Y011285D01*
X016120Y009220D01*
X016129Y009066D01*
X016144Y009003D02*
X019595Y009003D01*
X019563Y009121D02*
X019634Y008859D01*
X019769Y008624D01*
X019961Y008432D01*
X020196Y008296D01*
X020459Y008226D01*
X020730Y008226D01*
X020993Y008296D01*
X021228Y008432D01*
X021420Y008624D01*
X021555Y008859D01*
X021626Y009121D01*
X021626Y009393D01*
X021555Y009655D01*
X021420Y009890D01*
X021228Y010082D01*
X020993Y010218D01*
X020730Y010288D01*
X020459Y010288D01*
X020196Y010218D01*
X019961Y010082D01*
X019769Y009890D01*
X019634Y009655D01*
X019563Y009393D01*
X019563Y009121D01*
X019563Y009162D02*
X016123Y009162D01*
X016120Y009320D02*
X019563Y009320D01*
X019586Y009479D02*
X018167Y009479D01*
X018167Y009445D02*
X018167Y009635D01*
X018271Y009592D01*
X018409Y009592D01*
X018537Y009645D01*
X018635Y009743D01*
X018688Y009871D01*
X018688Y010009D01*
X018635Y010137D01*
X018537Y010235D01*
X018409Y010288D01*
X018271Y010288D01*
X018143Y010235D01*
X018118Y010210D01*
X018079Y010248D01*
X017365Y010248D01*
X017277Y010160D01*
X017277Y009445D01*
X017365Y009357D01*
X018079Y009357D01*
X018167Y009445D01*
X018518Y009637D02*
X019629Y009637D01*
X019715Y009796D02*
X018657Y009796D01*
X018688Y009954D02*
X019833Y009954D01*
X020014Y010113D02*
X018645Y010113D01*
X018451Y010271D02*
X020394Y010271D01*
X020795Y010271D02*
X027481Y010271D01*
X027545Y010288D02*
X027283Y010218D01*
X027048Y010082D01*
X026856Y009890D01*
X026720Y009655D01*
X026650Y009393D01*
X026650Y009121D01*
X026720Y008859D01*
X026856Y008624D01*
X027048Y008432D01*
X027283Y008296D01*
X027545Y008226D01*
X027817Y008226D01*
X028079Y008296D01*
X028314Y008432D01*
X028506Y008624D01*
X028642Y008859D01*
X028712Y009121D01*
X028712Y009393D01*
X028642Y009655D01*
X028506Y009890D01*
X028314Y010082D01*
X028079Y010218D01*
X027817Y010288D01*
X027545Y010288D01*
X027882Y010271D02*
X031393Y010271D01*
X031393Y010113D02*
X028262Y010113D01*
X028443Y009954D02*
X030903Y009954D01*
X030770Y009796D02*
X028561Y009796D01*
X028647Y009637D02*
X030723Y009637D01*
X030736Y009479D02*
X028689Y009479D01*
X028712Y009320D02*
X030820Y009320D01*
X031013Y009003D02*
X028681Y009003D01*
X028712Y009162D02*
X032118Y009162D01*
X032072Y009003D02*
X031852Y009003D01*
X031860Y009060D02*
X030500Y009060D01*
X030500Y010963D01*
X030366Y011097D01*
X031043Y011097D01*
X031068Y011122D01*
X031020Y011064D02*
X031116Y011064D01*
X031116Y010905D02*
X031020Y010905D01*
X031020Y010747D02*
X031116Y010747D01*
X031507Y010430D02*
X017788Y010430D01*
X017703Y010271D02*
X018229Y010271D01*
X018311Y010588D02*
X031660Y010588D01*
X032060Y010588D02*
X032110Y010588D01*
X032110Y010430D02*
X032060Y010430D01*
X032110Y010271D02*
X031914Y010271D01*
X031793Y010113D02*
X032242Y010113D01*
X032401Y009954D02*
X031962Y009954D01*
X032095Y009796D02*
X032559Y009796D01*
X032718Y009637D02*
X032143Y009637D01*
X032130Y009479D02*
X032876Y009479D01*
X032820Y009380D02*
X032180Y009380D01*
X031860Y009060D01*
X032071Y008845D02*
X032099Y008845D01*
X032140Y008686D02*
X032222Y008686D01*
X032398Y008211D02*
X031907Y008211D01*
X032010Y008052D02*
X018180Y008052D01*
X018185Y008060D02*
X018197Y008106D01*
X018197Y008357D01*
X017790Y008357D01*
X017790Y008492D01*
X018197Y008492D01*
X018197Y008744D01*
X018185Y008789D01*
X018161Y008831D01*
X018128Y008864D01*
X018087Y008888D01*
X018041Y008900D01*
X017790Y008900D01*
X017790Y008492D01*
X017654Y008492D01*
X017654Y008357D01*
X017247Y008357D01*
X017247Y008106D01*
X017259Y008060D01*
X017283Y008019D01*
X017316Y007985D01*
X017357Y007962D01*
X017403Y007949D01*
X017654Y007949D01*
X017654Y008357D01*
X017790Y008357D01*
X017790Y007949D01*
X018041Y007949D01*
X018087Y007962D01*
X018128Y007985D01*
X018161Y008019D01*
X018185Y008060D01*
X018197Y008211D02*
X030958Y008211D01*
X030781Y008369D02*
X028205Y008369D01*
X028410Y008528D02*
X030723Y008528D01*
X030725Y008686D02*
X028542Y008686D01*
X028634Y008845D02*
X030794Y008845D01*
X030500Y009060D02*
X030500Y008260D01*
X030980Y007780D01*
X032100Y007780D01*
X032446Y007434D01*
X032446Y007413D01*
X032446Y008180D01*
X032398Y008052D02*
X032494Y008052D01*
X032494Y007894D02*
X032398Y007894D01*
X032428Y007735D02*
X032464Y007735D01*
X032464Y007577D02*
X032428Y007577D01*
X032464Y007418D02*
X032847Y007418D01*
X032847Y007260D02*
X032823Y007260D01*
X032819Y007101D02*
X032847Y007101D01*
X033109Y006943D02*
X034110Y006943D01*
X034110Y007101D02*
X033541Y007101D01*
X033541Y007260D02*
X034110Y007260D01*
X034110Y007418D02*
X033541Y007418D01*
X033541Y007577D02*
X033875Y007577D01*
X033875Y007735D02*
X033541Y007735D01*
X033600Y007894D02*
X033875Y007894D01*
X033875Y008052D02*
X033600Y008052D01*
X033600Y008211D02*
X033882Y008211D01*
X033875Y008369D02*
X033600Y008369D01*
X033600Y008528D02*
X033827Y008528D01*
X033780Y008420D02*
X032820Y009380D01*
X033035Y009320D02*
X032509Y009320D01*
X032331Y009320D02*
X032045Y009320D01*
X032722Y009162D02*
X033193Y009162D01*
X033080Y009003D02*
X033352Y009003D01*
X033238Y008845D02*
X033510Y008845D01*
X033394Y008686D02*
X033669Y008686D01*
X033780Y008420D02*
X033780Y007060D01*
X034110Y006784D02*
X033167Y006784D01*
X033167Y006626D02*
X034110Y006626D01*
X034110Y006467D02*
X033167Y006467D01*
X033167Y006309D02*
X033989Y006309D01*
X033980Y006150D02*
X033108Y006150D01*
X033050Y005992D02*
X034022Y005992D01*
X034064Y005833D02*
X033092Y005833D01*
X033251Y005675D02*
X034107Y005675D01*
X034209Y005516D02*
X033409Y005516D01*
X033460Y005140D02*
X035060Y005140D01*
X048020Y005140D01*
X048500Y005620D01*
X048500Y017520D01*
X048100Y017920D01*
X047690Y017879D02*
X047635Y017879D01*
X047690Y017750D02*
X047690Y018033D01*
X047635Y018088D01*
X047670Y005994D01*
X047670Y005994D01*
X047670Y005940D01*
X047670Y005887D01*
X047670Y005886D01*
X047670Y005886D01*
X047632Y005848D01*
X047594Y005810D01*
X047594Y005810D01*
X047540Y005810D01*
X047487Y005810D01*
X047486Y005810D01*
X039480Y005810D01*
X039447Y005800D01*
X039428Y005810D01*
X039406Y005810D01*
X039382Y005834D01*
X039352Y005850D01*
X039345Y005871D01*
X039330Y005886D01*
X039330Y005920D01*
X038324Y009170D01*
X035953Y009170D01*
X035980Y009143D01*
X036114Y009009D01*
X036114Y008965D01*
X036232Y008965D01*
X036307Y008890D01*
X037395Y008890D01*
X037795Y008490D01*
X037930Y008355D01*
X037930Y008047D01*
X038117Y008097D01*
X038225Y008035D01*
X038410Y007344D01*
X038347Y007236D01*
X037657Y007051D01*
X037549Y007114D01*
X037465Y007429D01*
X037426Y007407D01*
X037241Y007357D01*
X037151Y007694D01*
X037134Y007689D01*
X037224Y007353D01*
X037038Y007303D01*
X036991Y007303D01*
X036945Y007315D01*
X036904Y007339D01*
X036871Y007372D01*
X036604Y007300D01*
X036639Y007170D01*
X037033Y007275D01*
X037098Y007032D01*
X037098Y006985D01*
X037085Y006939D01*
X037062Y006898D01*
X037028Y006865D01*
X036987Y006841D01*
X036744Y006776D01*
X036639Y007170D01*
X036508Y007135D01*
X036114Y007029D01*
X036179Y006786D01*
X036203Y006745D01*
X036237Y006712D01*
X036278Y006688D01*
X036324Y006676D01*
X036371Y006676D01*
X036614Y006741D01*
X036508Y007135D01*
X036473Y007265D01*
X036079Y007160D01*
X036014Y007403D01*
X036014Y007450D01*
X036027Y007496D01*
X036050Y007537D01*
X036084Y007570D01*
X036125Y007594D01*
X036368Y007659D01*
X036473Y007265D01*
X036604Y007300D01*
X036498Y007694D01*
X036741Y007759D01*
X036754Y007759D01*
X036743Y007802D01*
X036743Y007849D01*
X036755Y007895D01*
X036779Y007936D01*
X036812Y007969D01*
X036854Y007993D01*
X037039Y008043D01*
X037129Y007706D01*
X037146Y007711D01*
X037056Y008047D01*
X037242Y008097D01*
X037289Y008097D01*
X037335Y008085D01*
X037376Y008061D01*
X037409Y008028D01*
X037433Y007986D01*
X037451Y007918D01*
X037470Y007923D01*
X037470Y008165D01*
X037205Y008430D01*
X036320Y008430D01*
X036320Y008123D01*
X036232Y008035D01*
X035596Y008035D01*
X035540Y008091D01*
X035484Y008035D01*
X034848Y008035D01*
X034805Y008078D01*
X034805Y007568D01*
X034717Y007480D01*
X034570Y007480D01*
X034570Y006730D01*
X034730Y006730D01*
X034744Y006754D01*
X035206Y006878D01*
X035314Y006816D01*
X035343Y006706D01*
X035347Y006712D01*
X036037Y006897D01*
X036145Y006835D01*
X036330Y006144D01*
X036267Y006036D01*
X036017Y005969D01*
X036017Y005800D01*
X035587Y005370D01*
X047925Y005370D01*
X048270Y005715D01*
X048270Y017425D01*
X048185Y017510D01*
X047930Y017510D01*
X047690Y017750D01*
X047720Y017721D02*
X047636Y017721D01*
X047636Y017562D02*
X047878Y017562D01*
X047637Y017404D02*
X048270Y017404D01*
X048270Y017245D02*
X047637Y017245D01*
X047638Y017087D02*
X048270Y017087D01*
X048270Y016928D02*
X047638Y016928D01*
X047639Y016770D02*
X048270Y016770D01*
X048270Y016611D02*
X047639Y016611D01*
X047640Y016453D02*
X048270Y016453D01*
X048270Y016294D02*
X047640Y016294D01*
X047640Y016136D02*
X048270Y016136D01*
X048270Y015977D02*
X047641Y015977D01*
X047641Y015819D02*
X048270Y015819D01*
X048270Y015660D02*
X047642Y015660D01*
X047642Y015502D02*
X048270Y015502D01*
X048270Y015343D02*
X047643Y015343D01*
X047643Y015185D02*
X048270Y015185D01*
X048270Y015026D02*
X047644Y015026D01*
X047644Y014868D02*
X048270Y014868D01*
X048270Y014709D02*
X047645Y014709D01*
X047645Y014551D02*
X048270Y014551D01*
X048270Y014392D02*
X047646Y014392D01*
X047646Y014234D02*
X048270Y014234D01*
X048270Y014075D02*
X047646Y014075D01*
X047647Y013917D02*
X048270Y013917D01*
X048270Y013758D02*
X047647Y013758D01*
X047648Y013600D02*
X048270Y013600D01*
X048270Y013441D02*
X047648Y013441D01*
X047649Y013283D02*
X048270Y013283D01*
X048270Y013124D02*
X047649Y013124D01*
X047650Y012966D02*
X048270Y012966D01*
X048270Y012807D02*
X047650Y012807D01*
X047651Y012649D02*
X048270Y012649D01*
X048270Y012490D02*
X047651Y012490D01*
X047651Y012332D02*
X048270Y012332D01*
X048270Y012173D02*
X047652Y012173D01*
X047652Y012015D02*
X048270Y012015D01*
X048270Y011856D02*
X047653Y011856D01*
X047653Y011698D02*
X048270Y011698D01*
X048270Y011539D02*
X047654Y011539D01*
X047654Y011381D02*
X048270Y011381D01*
X048270Y011222D02*
X047655Y011222D01*
X047655Y011064D02*
X048270Y011064D01*
X048270Y010905D02*
X047656Y010905D01*
X047656Y010747D02*
X048270Y010747D01*
X048270Y010588D02*
X047657Y010588D01*
X047657Y010430D02*
X048270Y010430D01*
X048270Y010271D02*
X047657Y010271D01*
X047658Y010113D02*
X048270Y010113D01*
X048270Y009954D02*
X047658Y009954D01*
X047659Y009796D02*
X048270Y009796D01*
X048270Y009637D02*
X047659Y009637D01*
X047660Y009479D02*
X048270Y009479D01*
X048270Y009320D02*
X047660Y009320D01*
X047661Y009162D02*
X048270Y009162D01*
X048270Y009003D02*
X047661Y009003D01*
X047662Y008845D02*
X048270Y008845D01*
X048270Y008686D02*
X047662Y008686D01*
X047663Y008528D02*
X048270Y008528D01*
X048270Y008369D02*
X047663Y008369D01*
X047663Y008211D02*
X048270Y008211D01*
X048270Y008052D02*
X047664Y008052D01*
X047664Y007894D02*
X048270Y007894D01*
X048270Y007735D02*
X047665Y007735D01*
X047665Y007577D02*
X048270Y007577D01*
X048270Y007418D02*
X047666Y007418D01*
X047666Y007260D02*
X048270Y007260D01*
X048270Y007101D02*
X047667Y007101D01*
X047667Y006943D02*
X048270Y006943D01*
X048270Y006784D02*
X047668Y006784D01*
X047668Y006626D02*
X048270Y006626D01*
X048270Y006467D02*
X047668Y006467D01*
X047669Y006309D02*
X048270Y006309D01*
X048270Y006150D02*
X047669Y006150D01*
X047670Y005992D02*
X048270Y005992D01*
X048270Y005833D02*
X047617Y005833D01*
X047594Y005810D02*
X047594Y005810D01*
X048071Y005516D02*
X035733Y005516D01*
X035891Y005675D02*
X048229Y005675D01*
X050043Y005991D02*
X050043Y007152D01*
X050026Y007169D01*
X050026Y010100D01*
X050037Y010089D01*
X050106Y010089D01*
X050026Y010100D02*
X050026Y011140D01*
X050106Y011220D01*
X050106Y011289D01*
X050026Y011140D02*
X050026Y013860D01*
X050014Y013849D01*
X049946Y013849D01*
X050026Y013860D02*
X050026Y015129D01*
X050026Y017929D01*
X050026Y018969D01*
X050026Y020180D01*
X049946Y020260D01*
X050026Y020180D02*
X050026Y020889D01*
X050026Y021849D01*
X050026Y023540D01*
X050026Y024609D01*
X050026Y025729D01*
X050026Y028820D01*
X050106Y028740D01*
X050106Y028609D01*
X050026Y028820D02*
X050026Y029780D01*
X049974Y029729D01*
X049866Y029729D01*
X050026Y029780D02*
X050026Y032420D01*
X050026Y033489D01*
X049940Y033574D01*
X049940Y033940D01*
X049860Y034020D01*
X049860Y034420D01*
X050020Y034580D01*
X050020Y034660D01*
X049220Y035460D01*
X046660Y035460D01*
X045940Y034740D01*
X033460Y034740D01*
X033060Y034340D01*
X033060Y032900D01*
X031620Y031460D01*
X030900Y031460D01*
X030846Y031514D01*
X031311Y031230D02*
X031311Y030861D01*
X031223Y030774D01*
X030469Y030774D01*
X030381Y030861D01*
X030381Y031204D01*
X030123Y031204D01*
X029850Y030932D01*
X029850Y029958D01*
X029803Y029844D01*
X028970Y029012D01*
X028970Y028746D01*
X029061Y028655D01*
X029130Y028490D01*
X029130Y027710D01*
X029061Y027545D01*
X028935Y027419D01*
X028770Y027350D01*
X028590Y027350D01*
X028425Y027419D01*
X028299Y027545D01*
X028230Y027710D01*
X028230Y028490D01*
X028299Y028655D01*
X028350Y028706D01*
X028350Y029202D01*
X028397Y029316D01*
X028484Y029403D01*
X029230Y030148D01*
X029230Y031122D01*
X029277Y031236D01*
X029364Y031323D01*
X029802Y031760D01*
X017390Y031760D01*
X017242Y031748D01*
X016951Y031673D01*
X016686Y031534D01*
X016459Y031337D01*
X016283Y031095D01*
X016168Y030818D01*
X016118Y030522D01*
X016118Y030443D01*
X016120Y030439D01*
X016120Y030356D01*
X016125Y030273D01*
X016120Y030257D01*
X016120Y028624D01*
X016884Y028624D01*
X016971Y028536D01*
X016971Y027786D01*
X017030Y027845D01*
X017030Y028755D01*
X016523Y029262D01*
X016470Y029390D01*
X016470Y029818D01*
X016413Y029875D01*
X016348Y030033D01*
X016348Y030764D01*
X016413Y030922D01*
X016534Y031043D01*
X016692Y031109D01*
X016863Y031109D01*
X017021Y031043D01*
X017142Y030922D01*
X017208Y030764D01*
X017208Y030033D01*
X017170Y029942D01*
X017170Y029605D01*
X017578Y029197D01*
X017677Y029098D01*
X017730Y028970D01*
X017730Y027815D01*
X017853Y027764D01*
X017853Y028536D01*
X017940Y028624D01*
X019364Y028624D01*
X019452Y028536D01*
X019452Y027777D01*
X019710Y028035D01*
X019710Y028478D01*
X019645Y028543D01*
X019592Y028671D01*
X019592Y028809D01*
X019645Y028937D01*
X019743Y029035D01*
X019871Y029088D01*
X020009Y029088D01*
X020137Y029035D01*
X020235Y028937D01*
X020288Y028809D01*
X020288Y028671D01*
X020253Y028585D01*
X020303Y028635D01*
X020431Y028688D01*
X020569Y028688D01*
X020697Y028635D01*
X020795Y028537D01*
X020848Y028409D01*
X020848Y028271D01*
X020795Y028143D01*
X020697Y028045D01*
X020604Y028006D01*
X020604Y027573D01*
X020487Y027456D01*
X020310Y027279D01*
X020318Y027271D01*
X020374Y027327D01*
X021010Y027327D01*
X021098Y027239D01*
X021098Y026825D01*
X021783Y026140D01*
X021900Y026023D01*
X021900Y024103D01*
X023143Y022860D01*
X023248Y022860D01*
X023343Y022955D01*
X023471Y023008D01*
X023609Y023008D01*
X023737Y022955D01*
X023835Y022857D01*
X023888Y022729D01*
X023888Y022591D01*
X023835Y022463D01*
X023737Y022365D01*
X023609Y022312D01*
X023471Y022312D01*
X023460Y022316D01*
X023488Y022249D01*
X023488Y022111D01*
X023435Y021983D01*
X023432Y021980D01*
X023937Y021980D01*
X025340Y023383D01*
X025457Y023500D01*
X027150Y023500D01*
X027660Y022990D01*
X027660Y023008D01*
X027565Y023103D01*
X027512Y023231D01*
X027512Y023369D01*
X027565Y023497D01*
X027663Y023595D01*
X027791Y023648D01*
X027929Y023648D01*
X028057Y023595D01*
X028155Y023497D01*
X028208Y023369D01*
X028208Y023231D01*
X028155Y023103D01*
X028060Y023008D01*
X028060Y022872D01*
X028187Y022745D01*
X028152Y022831D01*
X028152Y022969D01*
X028205Y023097D01*
X028303Y023195D01*
X028431Y023248D01*
X028565Y023248D01*
X029480Y024163D01*
X029480Y027396D01*
X029425Y027419D01*
X029299Y027545D01*
X029230Y027710D01*
X029230Y028490D01*
X029299Y028655D01*
X029425Y028781D01*
X029590Y028850D01*
X029770Y028850D01*
X029935Y028781D01*
X030061Y028655D01*
X030130Y028490D01*
X030130Y027710D01*
X030061Y027545D01*
X029935Y027419D01*
X029880Y027396D01*
X029880Y027043D01*
X029937Y027100D01*
X030340Y027503D01*
X030299Y027545D01*
X030230Y027710D01*
X030230Y028490D01*
X030299Y028655D01*
X030425Y028781D01*
X030590Y028850D01*
X030770Y028850D01*
X030935Y028781D01*
X031061Y028655D01*
X031130Y028490D01*
X031130Y027710D01*
X031061Y027545D01*
X030935Y027419D01*
X030770Y027350D01*
X030753Y027350D01*
X030220Y026817D01*
X030220Y026682D01*
X030632Y027094D01*
X030632Y027129D01*
X030685Y027257D01*
X030783Y027355D01*
X030911Y027408D01*
X031049Y027408D01*
X031177Y027355D01*
X031275Y027257D01*
X031328Y027129D01*
X031328Y026991D01*
X031275Y026863D01*
X031177Y026765D01*
X031049Y026712D01*
X031014Y026712D01*
X030610Y026308D01*
X030610Y023442D01*
X030635Y023417D01*
X030688Y023289D01*
X030688Y023155D01*
X030746Y023097D01*
X030746Y021870D01*
X030774Y021870D01*
X030888Y021755D01*
X030923Y021746D01*
X030964Y021722D01*
X031019Y021667D01*
X030940Y021587D01*
X030940Y021587D01*
X031019Y021667D01*
X031075Y021611D01*
X031099Y021570D01*
X031108Y021536D01*
X031222Y021421D01*
X031260Y021384D01*
X031260Y023383D01*
X031592Y023715D01*
X031565Y023743D01*
X031512Y023871D01*
X031512Y024009D01*
X031565Y024137D01*
X031663Y024235D01*
X031791Y024288D01*
X031900Y024288D01*
X031900Y026903D01*
X032017Y027020D01*
X032017Y027020D01*
X032086Y027089D01*
X032086Y027542D01*
X032046Y027487D01*
X031993Y027434D01*
X031932Y027389D01*
X031864Y027355D01*
X031792Y027332D01*
X031718Y027320D01*
X031700Y027320D01*
X031700Y028080D01*
X031660Y028080D01*
X031660Y027320D01*
X031642Y027320D01*
X031568Y027332D01*
X031496Y027355D01*
X031428Y027389D01*
X031367Y027434D01*
X031314Y027487D01*
X031269Y027548D01*
X031235Y027616D01*
X031212Y027688D01*
X031200Y027762D01*
X031200Y028080D01*
X031660Y028080D01*
X031660Y028120D01*
X031660Y028880D01*
X031642Y028880D01*
X031568Y028868D01*
X031496Y028845D01*
X031428Y028811D01*
X031367Y028766D01*
X031314Y028713D01*
X031269Y028652D01*
X031235Y028584D01*
X031212Y028512D01*
X031200Y028438D01*
X031200Y028120D01*
X031660Y028120D01*
X031700Y028120D01*
X031700Y028880D01*
X031718Y028880D01*
X031792Y028868D01*
X031864Y028845D01*
X031932Y028811D01*
X031993Y028766D01*
X032046Y028713D01*
X032086Y028658D01*
X032086Y029555D01*
X031968Y029555D01*
X031880Y029643D01*
X031880Y030397D01*
X031939Y030456D01*
X031939Y031045D01*
X032027Y031133D01*
X032545Y031133D01*
X032633Y031045D01*
X032633Y030456D01*
X032639Y030450D01*
X032657Y030469D01*
X032657Y030689D01*
X033016Y030689D01*
X033016Y030725D01*
X033016Y031163D01*
X032934Y031163D01*
X033007Y031235D01*
X033007Y031911D01*
X032981Y031936D01*
X033610Y032565D01*
X033610Y034005D01*
X033875Y034270D01*
X046275Y034270D01*
X046995Y034990D01*
X048725Y034990D01*
X049192Y034523D01*
X049192Y034431D01*
X049245Y034303D01*
X049343Y034205D01*
X049471Y034152D01*
X049609Y034152D01*
X049630Y034160D01*
X049630Y033925D01*
X049654Y033901D01*
X049651Y033898D01*
X049596Y033954D01*
X048959Y033954D01*
X048872Y033866D01*
X048872Y033808D01*
X048751Y033808D01*
X048710Y033791D01*
X048710Y033867D01*
X048655Y033922D01*
X048715Y033983D01*
X048768Y034111D01*
X048768Y034249D01*
X048715Y034377D01*
X048617Y034475D01*
X048489Y034528D01*
X048351Y034528D01*
X048223Y034475D01*
X048180Y034432D01*
X048137Y034475D01*
X048009Y034528D01*
X047871Y034528D01*
X047743Y034475D01*
X047645Y034377D01*
X047592Y034249D01*
X047592Y034111D01*
X047609Y034070D01*
X036813Y034070D01*
X036690Y033947D01*
X036614Y033871D01*
X036614Y033871D01*
X036491Y033748D01*
X036491Y032341D01*
X036326Y032385D01*
X036218Y032323D01*
X036047Y031685D01*
X035436Y031685D01*
X035380Y031629D01*
X035324Y031685D01*
X034805Y031685D01*
X034805Y032279D01*
X034959Y032237D01*
X035049Y032574D01*
X035066Y032569D01*
X034976Y032233D01*
X035162Y032183D01*
X035209Y032183D01*
X035255Y032195D01*
X035296Y032219D01*
X035329Y032252D01*
X035353Y032294D01*
X035364Y032336D01*
X035376Y032329D01*
X035619Y032264D01*
X035724Y032658D01*
X035457Y032730D01*
X035445Y032775D01*
X035421Y032816D01*
X035388Y032849D01*
X035346Y032873D01*
X035161Y032923D01*
X035071Y032586D01*
X035054Y032591D01*
X035144Y032927D01*
X034958Y032977D01*
X034914Y032977D01*
X034999Y033293D01*
X034936Y033400D01*
X034246Y033585D01*
X034138Y033523D01*
X033953Y032833D01*
X034016Y032725D01*
X034110Y032700D01*
X034110Y032400D01*
X033963Y032400D01*
X033875Y032312D01*
X033875Y032194D01*
X033831Y032194D01*
X033377Y031740D01*
X033260Y031623D01*
X033260Y031161D01*
X033255Y031163D01*
X033052Y031163D01*
X033052Y030725D01*
X033016Y030725D01*
X032657Y030725D01*
X032657Y031006D01*
X032669Y031052D01*
X032693Y031093D01*
X032727Y031127D01*
X032763Y031147D01*
X032401Y031147D01*
X032313Y031235D01*
X032313Y031828D01*
X031850Y031365D01*
X031715Y031230D01*
X031311Y031230D01*
X031311Y031193D02*
X032355Y031193D01*
X032313Y031352D02*
X031837Y031352D01*
X031860Y031140D02*
X031380Y030660D01*
X031380Y029944D01*
X031218Y029782D01*
X031341Y029859D02*
X031341Y030396D01*
X031329Y030442D01*
X031305Y030483D01*
X031272Y030516D01*
X031231Y030540D01*
X031185Y030552D01*
X030924Y030552D01*
X030924Y029859D01*
X031341Y029859D01*
X031341Y029925D02*
X031880Y029925D01*
X031880Y029767D02*
X030924Y029767D01*
X030924Y029704D02*
X030924Y029859D01*
X030769Y029859D01*
X030769Y029704D01*
X030924Y029704D01*
X030924Y029011D01*
X031185Y029011D01*
X031231Y029024D01*
X031272Y029047D01*
X031305Y029081D01*
X031329Y029122D01*
X031341Y029168D01*
X031341Y029704D01*
X030924Y029704D01*
X030924Y029608D02*
X030769Y029608D01*
X030769Y029704D02*
X030769Y029011D01*
X030508Y029011D01*
X030462Y029024D01*
X030421Y029047D01*
X030387Y029081D01*
X030364Y029122D01*
X030351Y029168D01*
X030351Y029704D01*
X030769Y029704D01*
X030769Y029767D02*
X029725Y029767D01*
X029836Y029925D02*
X030351Y029925D01*
X030351Y029859D02*
X030351Y030396D01*
X030364Y030442D01*
X030387Y030483D01*
X030421Y030516D01*
X030462Y030540D01*
X030508Y030552D01*
X030769Y030552D01*
X030769Y029859D01*
X030351Y029859D01*
X030351Y030084D02*
X029850Y030084D01*
X029850Y030242D02*
X030351Y030242D01*
X030353Y030401D02*
X029850Y030401D01*
X029850Y030559D02*
X031939Y030559D01*
X031939Y030718D02*
X029850Y030718D01*
X029850Y030876D02*
X030381Y030876D01*
X030381Y031035D02*
X029953Y031035D01*
X030111Y031193D02*
X030381Y031193D01*
X029710Y031669D02*
X016943Y031669D01*
X016659Y031510D02*
X029552Y031510D01*
X029393Y031352D02*
X027958Y031352D01*
X028079Y031319D02*
X027817Y031389D01*
X027545Y031389D01*
X027283Y031319D01*
X027048Y031183D01*
X026856Y030991D01*
X026720Y030756D01*
X026650Y030494D01*
X026650Y030223D01*
X026720Y029960D01*
X026856Y029725D01*
X027048Y029533D01*
X027283Y029397D01*
X027545Y029327D01*
X027817Y029327D01*
X028079Y029397D01*
X028314Y029533D01*
X028506Y029725D01*
X028642Y029960D01*
X028712Y030223D01*
X028712Y030494D01*
X028642Y030756D01*
X028506Y030991D01*
X028314Y031183D01*
X028079Y031319D01*
X028298Y031193D02*
X029260Y031193D01*
X029230Y031035D02*
X028463Y031035D01*
X028573Y030876D02*
X029230Y030876D01*
X029230Y030718D02*
X028652Y030718D01*
X028695Y030559D02*
X029230Y030559D01*
X029230Y030401D02*
X028712Y030401D01*
X028712Y030242D02*
X029230Y030242D01*
X029165Y030084D02*
X028675Y030084D01*
X028622Y029925D02*
X029007Y029925D01*
X028848Y029767D02*
X028530Y029767D01*
X028389Y029608D02*
X028690Y029608D01*
X028531Y029450D02*
X028170Y029450D01*
X028387Y029291D02*
X017484Y029291D01*
X017642Y029133D02*
X028350Y029133D01*
X028350Y028974D02*
X020198Y028974D01*
X020286Y028816D02*
X028350Y028816D01*
X028301Y028657D02*
X020644Y028657D01*
X020811Y028499D02*
X028234Y028499D01*
X028230Y028340D02*
X020848Y028340D01*
X020811Y028182D02*
X028230Y028182D01*
X028230Y028023D02*
X020644Y028023D01*
X020604Y027865D02*
X028230Y027865D01*
X028232Y027706D02*
X020604Y027706D01*
X020579Y027548D02*
X028297Y027548D01*
X028496Y027389D02*
X020420Y027389D01*
X021098Y027231D02*
X029480Y027231D01*
X029480Y027389D02*
X028864Y027389D01*
X029063Y027548D02*
X029297Y027548D01*
X029232Y027706D02*
X029128Y027706D01*
X029130Y027865D02*
X029230Y027865D01*
X029230Y028023D02*
X029130Y028023D01*
X029130Y028182D02*
X029230Y028182D01*
X029230Y028340D02*
X029130Y028340D01*
X029126Y028499D02*
X029234Y028499D01*
X029301Y028657D02*
X029059Y028657D01*
X028970Y028816D02*
X029507Y028816D01*
X029853Y028816D02*
X030507Y028816D01*
X030301Y028657D02*
X030059Y028657D01*
X030126Y028499D02*
X030234Y028499D01*
X030230Y028340D02*
X030130Y028340D01*
X030130Y028182D02*
X030230Y028182D01*
X030230Y028023D02*
X030130Y028023D01*
X030130Y027865D02*
X030230Y027865D01*
X030232Y027706D02*
X030128Y027706D01*
X030063Y027548D02*
X030297Y027548D01*
X030226Y027389D02*
X029880Y027389D01*
X029880Y027231D02*
X030068Y027231D01*
X029909Y027072D02*
X029880Y027072D01*
X029480Y027072D02*
X021098Y027072D01*
X021098Y026914D02*
X029480Y026914D01*
X029480Y026755D02*
X021168Y026755D01*
X021326Y026597D02*
X029480Y026597D01*
X029480Y026438D02*
X021485Y026438D01*
X021643Y026280D02*
X029480Y026280D01*
X029480Y026121D02*
X021802Y026121D01*
X021900Y025963D02*
X029480Y025963D01*
X029480Y025804D02*
X021900Y025804D01*
X021900Y025646D02*
X029480Y025646D01*
X029480Y025487D02*
X021900Y025487D01*
X021900Y025329D02*
X029480Y025329D01*
X029480Y025170D02*
X021900Y025170D01*
X021900Y025012D02*
X029480Y025012D01*
X029480Y024853D02*
X021900Y024853D01*
X021900Y024695D02*
X029480Y024695D01*
X029480Y024536D02*
X021900Y024536D01*
X021900Y024378D02*
X029480Y024378D01*
X029480Y024219D02*
X021900Y024219D01*
X021942Y024061D02*
X029378Y024061D01*
X029219Y023902D02*
X022101Y023902D01*
X022259Y023744D02*
X029061Y023744D01*
X028902Y023585D02*
X028067Y023585D01*
X028184Y023427D02*
X028744Y023427D01*
X028585Y023268D02*
X028208Y023268D01*
X028217Y023110D02*
X028158Y023110D01*
X028152Y022951D02*
X028060Y022951D01*
X028140Y022793D02*
X028168Y022793D01*
X028345Y022587D02*
X028431Y022552D01*
X028552Y022552D01*
X028552Y022511D01*
X028605Y022383D01*
X028703Y022285D01*
X028831Y022232D01*
X028969Y022232D01*
X029097Y022285D01*
X029195Y022383D01*
X029248Y022511D01*
X029248Y022645D01*
X029580Y022977D01*
X029580Y023297D01*
X030070Y023787D01*
X030070Y023442D01*
X030045Y023417D01*
X029992Y023289D01*
X029992Y023151D01*
X030045Y023023D01*
X030143Y022925D01*
X030271Y022872D01*
X030346Y022872D01*
X030346Y021566D01*
X030152Y021372D01*
X030152Y021247D01*
X030266Y021133D01*
X030275Y021099D01*
X030299Y021058D01*
X030355Y021002D01*
X030410Y020946D01*
X030451Y020923D01*
X030486Y020913D01*
X030600Y020799D01*
X030683Y020716D01*
X030693Y020682D01*
X030716Y020640D01*
X030772Y020585D01*
X030852Y020665D01*
X030852Y020665D01*
X030852Y020665D01*
X030772Y020585D01*
X030827Y020529D01*
X030869Y020505D01*
X030903Y020496D01*
X030986Y020413D01*
X031152Y020247D01*
X031293Y020106D01*
X031410Y019989D01*
X031410Y019989D01*
X031576Y019823D01*
X031686Y019713D01*
X031852Y019547D01*
X031903Y019496D01*
X031820Y019413D01*
X031820Y019192D01*
X031725Y019097D01*
X031672Y018969D01*
X031672Y018831D01*
X031718Y018720D01*
X031660Y018663D01*
X031660Y018155D01*
X031777Y018038D01*
X031827Y017988D01*
X031748Y018068D01*
X031692Y018012D01*
X031668Y017971D01*
X031659Y017937D01*
X031576Y017853D01*
X031576Y017853D01*
X031420Y017697D01*
X031420Y017728D01*
X031515Y017823D01*
X031568Y017951D01*
X031568Y018089D01*
X031515Y018217D01*
X031417Y018315D01*
X031289Y018368D01*
X031151Y018368D01*
X031023Y018315D01*
X030925Y018217D01*
X030872Y018089D01*
X030872Y017951D01*
X030925Y017823D01*
X031020Y017728D01*
X031020Y017678D01*
X030903Y017795D01*
X030848Y017795D01*
X030848Y017929D01*
X030795Y018057D01*
X030697Y018155D01*
X030569Y018208D01*
X030431Y018208D01*
X030303Y018155D01*
X030205Y018057D01*
X030152Y017929D01*
X030152Y017791D01*
X030205Y017663D01*
X030220Y017648D01*
X030111Y017648D01*
X029983Y017595D01*
X029885Y017497D01*
X029832Y017369D01*
X029832Y017231D01*
X029885Y017103D01*
X029970Y017018D01*
X029970Y017011D01*
X029640Y016682D01*
X029592Y016730D01*
X029551Y016754D01*
X029517Y016763D01*
X029433Y016846D01*
X029433Y016846D01*
X029292Y016988D01*
X029126Y017153D01*
X029016Y017263D01*
X029016Y017263D01*
X028851Y017429D01*
X028851Y017429D01*
X028709Y017571D01*
X028592Y017688D01*
X028426Y017853D01*
X028316Y017963D01*
X028316Y017963D01*
X028151Y018129D01*
X028151Y018129D01*
X028090Y018190D01*
X028158Y018190D01*
X028223Y018125D01*
X028351Y018072D01*
X028489Y018072D01*
X028617Y018125D01*
X028715Y018223D01*
X028768Y018351D01*
X028768Y018489D01*
X028715Y018617D01*
X028617Y018715D01*
X028489Y018768D01*
X028351Y018768D01*
X028223Y018715D01*
X028158Y018650D01*
X028118Y018650D01*
X027686Y019082D01*
X027706Y019103D01*
X027741Y019112D01*
X027782Y019136D01*
X027837Y019192D01*
X027758Y019272D01*
X027837Y019192D01*
X027893Y019247D01*
X027917Y019289D01*
X027926Y019323D01*
X028040Y019437D01*
X028151Y019547D01*
X028316Y019713D01*
X028426Y019823D01*
X028592Y019989D01*
X028733Y020130D01*
X028851Y020247D01*
X029016Y020413D01*
X029016Y020413D01*
X029126Y020523D01*
X029209Y020606D01*
X029261Y020554D01*
X029245Y020537D01*
X029192Y020409D01*
X029192Y020271D01*
X029245Y020143D01*
X029343Y020045D01*
X029471Y019992D01*
X029609Y019992D01*
X029737Y020045D01*
X029835Y020143D01*
X029888Y020271D01*
X029888Y020409D01*
X029853Y020495D01*
X029903Y020445D01*
X030031Y020392D01*
X030169Y020392D01*
X030297Y020445D01*
X030395Y020543D01*
X030448Y020671D01*
X030448Y020809D01*
X030395Y020937D01*
X030297Y021035D01*
X030169Y021088D01*
X030127Y021088D01*
X029851Y021365D01*
X029851Y021372D01*
X029353Y021870D01*
X029228Y021870D01*
X029146Y021787D01*
X028345Y022587D01*
X028457Y022476D02*
X028566Y022476D01*
X028615Y022317D02*
X028671Y022317D01*
X028774Y022159D02*
X030346Y022159D01*
X030346Y022317D02*
X029129Y022317D01*
X029234Y022476D02*
X030346Y022476D01*
X030346Y022634D02*
X029248Y022634D01*
X029395Y022793D02*
X030346Y022793D01*
X030117Y022951D02*
X029554Y022951D01*
X029580Y023110D02*
X030009Y023110D01*
X029992Y023268D02*
X029580Y023268D01*
X029709Y023427D02*
X030054Y023427D01*
X030070Y023585D02*
X029868Y023585D01*
X030026Y023744D02*
X030070Y023744D01*
X030610Y023744D02*
X031565Y023744D01*
X031512Y023902D02*
X030610Y023902D01*
X030610Y024061D02*
X031533Y024061D01*
X031647Y024219D02*
X030610Y024219D01*
X030610Y024378D02*
X031900Y024378D01*
X031900Y024536D02*
X030610Y024536D01*
X030610Y024695D02*
X031900Y024695D01*
X031900Y024853D02*
X030610Y024853D01*
X030610Y025012D02*
X031900Y025012D01*
X031900Y025170D02*
X030610Y025170D01*
X030610Y025329D02*
X031900Y025329D01*
X031900Y025487D02*
X030610Y025487D01*
X030610Y025646D02*
X031900Y025646D01*
X031900Y025804D02*
X030610Y025804D01*
X030610Y025963D02*
X031900Y025963D01*
X031900Y026121D02*
X030610Y026121D01*
X030610Y026280D02*
X031900Y026280D01*
X031900Y026438D02*
X030740Y026438D01*
X030898Y026597D02*
X031900Y026597D01*
X031900Y026755D02*
X031153Y026755D01*
X031296Y026914D02*
X031911Y026914D01*
X032069Y027072D02*
X031328Y027072D01*
X031286Y027231D02*
X032086Y027231D01*
X032086Y027389D02*
X031931Y027389D01*
X031700Y027389D02*
X031660Y027389D01*
X031660Y027548D02*
X031700Y027548D01*
X031700Y027706D02*
X031660Y027706D01*
X031660Y027865D02*
X031700Y027865D01*
X031700Y028023D02*
X031660Y028023D01*
X031660Y028182D02*
X031700Y028182D01*
X031700Y028340D02*
X031660Y028340D01*
X031660Y028499D02*
X031700Y028499D01*
X031700Y028657D02*
X031660Y028657D01*
X031660Y028816D02*
X031700Y028816D01*
X031922Y028816D02*
X032086Y028816D01*
X032086Y028974D02*
X028970Y028974D01*
X029091Y029133D02*
X030361Y029133D01*
X030351Y029291D02*
X029249Y029291D01*
X029408Y029450D02*
X030351Y029450D01*
X030351Y029608D02*
X029566Y029608D01*
X028740Y028900D02*
X028660Y028820D01*
X027193Y029450D02*
X021083Y029450D01*
X020993Y029397D02*
X021228Y029533D01*
X021420Y029725D01*
X021555Y029960D01*
X021626Y030223D01*
X021626Y030494D01*
X021555Y030756D01*
X021420Y030991D01*
X021228Y031183D01*
X020993Y031319D01*
X020730Y031389D01*
X020459Y031389D01*
X020196Y031319D01*
X019961Y031183D01*
X019769Y030991D01*
X019634Y030756D01*
X019563Y030494D01*
X019563Y030223D01*
X019634Y029960D01*
X019769Y029725D01*
X019961Y029533D01*
X020196Y029397D01*
X020459Y029327D01*
X020730Y029327D01*
X020993Y029397D01*
X021303Y029608D02*
X026973Y029608D01*
X026832Y029767D02*
X021444Y029767D01*
X021535Y029925D02*
X026741Y029925D01*
X026687Y030084D02*
X021588Y030084D01*
X021626Y030242D02*
X026650Y030242D01*
X026650Y030401D02*
X021626Y030401D01*
X021608Y030559D02*
X026667Y030559D01*
X026710Y030718D02*
X021566Y030718D01*
X021486Y030876D02*
X026789Y030876D01*
X026899Y031035D02*
X021377Y031035D01*
X021211Y031193D02*
X027065Y031193D01*
X027404Y031352D02*
X020872Y031352D01*
X020317Y031352D02*
X016475Y031352D01*
X016355Y031193D02*
X019978Y031193D01*
X019812Y031035D02*
X018071Y031035D01*
X018077Y031030D02*
X018019Y031072D01*
X017954Y031105D01*
X017886Y031127D01*
X017814Y031139D01*
X017788Y031139D01*
X017788Y030409D01*
X017768Y030409D01*
X017768Y031139D01*
X017742Y031139D01*
X017670Y031127D01*
X017601Y031105D01*
X017537Y031072D01*
X017478Y031030D01*
X017427Y030978D01*
X017384Y030920D01*
X017351Y030855D01*
X017329Y030786D01*
X017318Y030715D01*
X017318Y030409D01*
X017768Y030409D01*
X017768Y030389D01*
X017318Y030389D01*
X017318Y030083D01*
X017329Y030011D01*
X017351Y029942D01*
X017384Y029878D01*
X017427Y029819D01*
X017478Y029768D01*
X017537Y029725D01*
X017601Y029692D01*
X017670Y029670D01*
X017742Y029659D01*
X017768Y029659D01*
X017768Y030389D01*
X017788Y030389D01*
X017788Y030409D01*
X018238Y030409D01*
X018238Y030715D01*
X018226Y030786D01*
X018204Y030855D01*
X018171Y030920D01*
X018129Y030978D01*
X018077Y031030D01*
X018194Y030876D02*
X019703Y030876D01*
X019623Y030718D02*
X018237Y030718D01*
X018238Y030559D02*
X019581Y030559D01*
X019563Y030401D02*
X017788Y030401D01*
X017788Y030389D02*
X018238Y030389D01*
X018238Y030083D01*
X018226Y030011D01*
X018204Y029942D01*
X018171Y029878D01*
X018129Y029819D01*
X018077Y029768D01*
X018019Y029725D01*
X017954Y029692D01*
X017886Y029670D01*
X017814Y029659D01*
X017788Y029659D01*
X017788Y030389D01*
X017768Y030401D02*
X017208Y030401D01*
X017208Y030559D02*
X017318Y030559D01*
X017318Y030718D02*
X017208Y030718D01*
X017161Y030876D02*
X017362Y030876D01*
X017485Y031035D02*
X017030Y031035D01*
X016525Y031035D02*
X016258Y031035D01*
X016192Y030876D02*
X016394Y030876D01*
X016348Y030718D02*
X016151Y030718D01*
X016124Y030559D02*
X016348Y030559D01*
X016348Y030401D02*
X016120Y030401D01*
X016120Y030242D02*
X016348Y030242D01*
X016348Y030084D02*
X016120Y030084D01*
X016120Y029925D02*
X016393Y029925D01*
X016470Y029767D02*
X016120Y029767D01*
X016120Y029608D02*
X016470Y029608D01*
X016470Y029450D02*
X016120Y029450D01*
X016120Y029291D02*
X016511Y029291D01*
X016652Y029133D02*
X016120Y029133D01*
X016120Y028974D02*
X016811Y028974D01*
X016969Y028816D02*
X016120Y028816D01*
X016120Y028657D02*
X017030Y028657D01*
X017030Y028499D02*
X016971Y028499D01*
X016971Y028340D02*
X017030Y028340D01*
X017030Y028182D02*
X016971Y028182D01*
X016971Y028023D02*
X017030Y028023D01*
X017030Y027865D02*
X016971Y027865D01*
X017730Y027865D02*
X017853Y027865D01*
X017853Y028023D02*
X017730Y028023D01*
X017730Y028182D02*
X017853Y028182D01*
X017853Y028340D02*
X017730Y028340D01*
X017730Y028499D02*
X017853Y028499D01*
X017730Y028657D02*
X019598Y028657D01*
X019594Y028816D02*
X017730Y028816D01*
X017728Y028974D02*
X019682Y028974D01*
X019940Y028740D02*
X019940Y027940D01*
X019460Y027460D01*
X019140Y027460D01*
X018691Y027011D01*
X018691Y026959D01*
X018691Y026644D02*
X019726Y026644D01*
X019944Y026862D01*
X019698Y026329D02*
X019924Y026102D01*
X019698Y026329D02*
X018691Y026329D01*
X018692Y025699D02*
X019482Y025699D01*
X019482Y025821D01*
X019469Y025867D01*
X019452Y025897D01*
X019452Y026099D01*
X019518Y026099D01*
X019518Y025725D01*
X019606Y025637D01*
X019740Y025637D01*
X019740Y025297D01*
X019857Y025180D01*
X019974Y025063D01*
X019421Y025063D01*
X019364Y025120D01*
X018080Y025120D01*
X018168Y025332D01*
X018168Y025420D01*
X018691Y025420D01*
X018691Y025699D01*
X018692Y025699D01*
X018692Y025699D01*
X019482Y025699D01*
X019482Y025577D01*
X019469Y025531D01*
X019446Y025490D01*
X019412Y025456D01*
X019371Y025433D01*
X019325Y025420D01*
X018692Y025420D01*
X018692Y025699D01*
X018691Y025699D02*
X018820Y025570D01*
X018820Y025300D01*
X018692Y025487D02*
X018691Y025487D01*
X018691Y025646D02*
X018692Y025646D01*
X018166Y025329D02*
X019740Y025329D01*
X019740Y025487D02*
X019443Y025487D01*
X019482Y025646D02*
X019598Y025646D01*
X019518Y025804D02*
X019482Y025804D01*
X019452Y025963D02*
X019518Y025963D01*
X019867Y025170D02*
X018101Y025170D01*
X017853Y024893D02*
X017853Y024121D01*
X017940Y024033D01*
X019364Y024033D01*
X019452Y024121D01*
X019452Y024133D01*
X019504Y024133D01*
X019504Y024093D01*
X019660Y023937D01*
X019777Y023820D01*
X020375Y023820D01*
X021672Y022523D01*
X021672Y022431D01*
X021725Y022303D01*
X021823Y022205D01*
X021951Y022152D01*
X022089Y022152D01*
X022217Y022205D01*
X022315Y022303D01*
X022368Y022431D01*
X022368Y022569D01*
X022315Y022697D01*
X022217Y022795D01*
X022089Y022848D01*
X021997Y022848D01*
X020712Y024133D01*
X020770Y024133D01*
X020858Y024221D01*
X020858Y024380D01*
X021223Y024380D01*
X021260Y024417D01*
X021260Y023777D01*
X022792Y022245D01*
X022792Y022111D01*
X022845Y021983D01*
X022848Y021980D01*
X021857Y021980D01*
X021740Y021863D01*
X021324Y021447D01*
X021012Y021447D01*
X021012Y021592D01*
X021049Y021592D01*
X021177Y021645D01*
X021275Y021743D01*
X021328Y021871D01*
X021328Y022009D01*
X021275Y022137D01*
X021177Y022235D01*
X021049Y022288D01*
X020911Y022288D01*
X020783Y022235D01*
X020685Y022137D01*
X020632Y022009D01*
X020632Y021875D01*
X020469Y021712D01*
X020209Y021712D01*
X020121Y021624D01*
X020121Y021382D01*
X020128Y021375D01*
X020121Y021368D01*
X020121Y021126D01*
X020128Y021119D01*
X020121Y021112D01*
X020121Y020870D01*
X020128Y020863D01*
X020121Y020857D01*
X020121Y020639D01*
X020104Y020608D01*
X020091Y020562D01*
X020091Y020479D01*
X020091Y020397D01*
X020104Y020351D01*
X020121Y020320D01*
X020121Y020102D01*
X020128Y020096D01*
X020121Y020089D01*
X020121Y019871D01*
X020104Y019840D01*
X020091Y019794D01*
X020091Y019712D01*
X020567Y019712D01*
X021042Y019712D01*
X021042Y019738D01*
X021257Y019738D01*
X021390Y019605D01*
X021390Y019535D01*
X021239Y019686D01*
X021049Y019686D01*
X021042Y019686D01*
X021042Y019712D01*
X020567Y019712D01*
X020567Y019712D01*
X019351Y019712D01*
X019207Y019856D01*
X019207Y019781D02*
X019367Y019781D01*
X019367Y019623D02*
X019207Y019623D01*
X019207Y019464D02*
X019367Y019464D01*
X019287Y019456D02*
X019799Y018944D01*
X020567Y018944D01*
X021042Y018944D01*
X020567Y018944D01*
X020567Y018944D01*
X020567Y018944D01*
X020567Y018961D01*
X020567Y019200D01*
X021042Y019200D01*
X021042Y019226D01*
X021049Y019226D01*
X021070Y019205D01*
X021070Y018725D01*
X021470Y018325D01*
X021605Y018190D01*
X022947Y018190D01*
X022040Y017282D01*
X021929Y017328D01*
X021791Y017328D01*
X021663Y017275D01*
X021565Y017177D01*
X021512Y017049D01*
X021512Y016911D01*
X021565Y016783D01*
X021663Y016685D01*
X021791Y016632D01*
X021869Y016632D01*
X021097Y015860D01*
X020798Y015860D01*
X020798Y015978D01*
X020710Y016066D01*
X019956Y016066D01*
X019868Y015978D01*
X019868Y015342D01*
X019924Y015286D01*
X019868Y015230D01*
X019868Y014594D01*
X019906Y014556D01*
X019903Y014555D01*
X019805Y014457D01*
X019780Y014396D01*
X019780Y014826D01*
X019692Y014914D01*
X018957Y014914D01*
X018869Y014826D01*
X018869Y014190D01*
X018957Y014102D01*
X019692Y014102D01*
X019760Y014171D01*
X019805Y014063D01*
X019839Y014029D01*
X019779Y014029D01*
X019733Y014017D01*
X019692Y013993D01*
X019658Y013959D01*
X019635Y013918D01*
X019630Y013899D01*
X019356Y013899D01*
X019356Y013511D01*
X019260Y013511D01*
X019260Y013899D01*
X018979Y013899D01*
X018933Y013886D01*
X018892Y013863D01*
X018859Y013829D01*
X018835Y013788D01*
X018823Y013742D01*
X018823Y013511D01*
X019260Y013511D01*
X019260Y013415D01*
X019356Y013415D01*
X019356Y013027D01*
X019637Y013027D01*
X019653Y013031D01*
X019653Y012606D01*
X019681Y012577D01*
X019637Y012534D01*
X019637Y012490D01*
X016120Y012490D01*
X016120Y012332D02*
X019366Y012332D01*
X019390Y012355D02*
X019132Y012097D01*
X018941Y012097D01*
X018853Y012009D01*
X018853Y011921D01*
X016633Y011921D01*
X016633Y012009D01*
X016545Y012097D01*
X016120Y012097D01*
X016120Y013027D01*
X016130Y013027D01*
X016130Y013415D01*
X016226Y013415D01*
X016226Y013511D01*
X016130Y013511D01*
X016130Y013899D01*
X016120Y013899D01*
X016120Y014102D01*
X016562Y014102D01*
X016650Y014190D01*
X016650Y014367D01*
X016835Y014552D01*
X016969Y014552D01*
X017097Y014605D01*
X017195Y014703D01*
X017248Y014831D01*
X017248Y014969D01*
X017195Y015097D01*
X017097Y015195D01*
X016969Y015248D01*
X016831Y015248D01*
X016703Y015195D01*
X016605Y015097D01*
X016552Y014969D01*
X016552Y014914D01*
X016120Y014914D01*
X016120Y015844D01*
X016147Y015844D01*
X016147Y016232D01*
X016243Y016232D01*
X016243Y016327D01*
X016680Y016327D01*
X016680Y016559D01*
X016667Y016605D01*
X016644Y016646D01*
X016610Y016679D01*
X016569Y016703D01*
X016523Y016715D01*
X016243Y016715D01*
X016243Y016327D01*
X016147Y016327D01*
X016147Y016715D01*
X016120Y016715D01*
X016120Y017157D01*
X016201Y017076D01*
X016271Y017047D01*
X016271Y016979D01*
X016359Y016891D01*
X016510Y016891D01*
X016510Y016885D01*
X016645Y016750D01*
X016805Y016590D01*
X018835Y016590D01*
X018854Y016608D01*
X018852Y016605D01*
X018839Y016559D01*
X018839Y016327D01*
X019277Y016327D01*
X019277Y016715D01*
X018996Y016715D01*
X018950Y016703D01*
X018946Y016701D01*
X018970Y016725D01*
X019078Y016833D01*
X019159Y016752D01*
X019913Y016752D01*
X020001Y016840D01*
X020001Y017751D01*
X019913Y017839D01*
X019159Y017839D01*
X019071Y017751D01*
X019071Y017476D01*
X018645Y017050D01*
X018333Y017050D01*
X018333Y017318D01*
X017916Y017318D01*
X017916Y017473D01*
X018333Y017473D01*
X018333Y017774D01*
X018321Y017819D01*
X018297Y017860D01*
X018264Y017894D01*
X018223Y017918D01*
X018177Y017930D01*
X017916Y017930D01*
X017916Y017473D01*
X017761Y017473D01*
X017761Y017930D01*
X017537Y017930D01*
X017541Y017946D01*
X017541Y018207D01*
X017085Y018207D01*
X017085Y018362D01*
X017541Y018362D01*
X017541Y018623D01*
X017529Y018669D01*
X017505Y018710D01*
X017472Y018743D01*
X017431Y018767D01*
X017385Y018779D01*
X017085Y018779D01*
X017085Y018362D01*
X016930Y018362D01*
X016930Y018779D01*
X016629Y018779D01*
X016627Y018779D01*
X016627Y018922D01*
X017424Y018922D01*
X017511Y019010D01*
X017511Y019512D01*
X017532Y019512D01*
X017532Y019456D01*
X018008Y019456D01*
X018483Y019456D01*
X018483Y019539D01*
X018471Y019584D01*
X018453Y019615D01*
X018453Y019833D01*
X018446Y019840D01*
X018453Y019846D01*
X018453Y020089D01*
X018446Y020096D01*
X018453Y020102D01*
X018453Y020345D01*
X018446Y020351D01*
X018453Y020358D01*
X018453Y020601D01*
X018446Y020607D01*
X018453Y020614D01*
X018453Y020832D01*
X018471Y020863D01*
X018483Y020909D01*
X018483Y020991D01*
X018008Y020991D01*
X018008Y020991D01*
X018483Y020991D01*
X018483Y021074D01*
X018471Y021120D01*
X018453Y021151D01*
X018453Y021368D01*
X018446Y021375D01*
X018453Y021382D01*
X018453Y021624D01*
X018439Y021638D01*
X018444Y021640D01*
X018542Y021738D01*
X018595Y021866D01*
X018595Y022005D01*
X018542Y022133D01*
X018444Y022231D01*
X018316Y022284D01*
X018178Y022284D01*
X018111Y022256D01*
X018115Y022266D01*
X018115Y022405D01*
X018062Y022533D01*
X017994Y022601D01*
X018476Y022601D01*
X018476Y023018D01*
X018631Y023018D01*
X018631Y023173D01*
X019324Y023173D01*
X019324Y023434D01*
X019312Y023480D01*
X019288Y023521D01*
X019254Y023555D01*
X019213Y023578D01*
X019167Y023591D01*
X018631Y023591D01*
X018631Y023173D01*
X018476Y023173D01*
X018476Y023591D01*
X017939Y023591D01*
X017893Y023578D01*
X017852Y023555D01*
X017819Y023521D01*
X017795Y023480D01*
X017783Y023434D01*
X017783Y023173D01*
X018476Y023173D01*
X018476Y023018D01*
X017783Y023018D01*
X017783Y022757D01*
X017795Y022711D01*
X017811Y022684D01*
X017698Y022684D01*
X017570Y022631D01*
X017472Y022533D01*
X017419Y022405D01*
X017419Y022266D01*
X017472Y022138D01*
X017527Y022083D01*
X017527Y021998D01*
X017360Y021832D01*
X016627Y021832D01*
X016627Y022550D01*
X016706Y022629D01*
X016707Y022631D01*
X017474Y022631D01*
X017561Y022718D01*
X017561Y023473D01*
X017525Y023510D01*
X017597Y023582D01*
X017650Y023710D01*
X017650Y024809D01*
X017853Y024893D01*
X017853Y024853D02*
X017756Y024853D01*
X017853Y024695D02*
X017650Y024695D01*
X017650Y024536D02*
X017853Y024536D01*
X017853Y024378D02*
X017650Y024378D01*
X017650Y024219D02*
X017853Y024219D01*
X017913Y024061D02*
X017650Y024061D01*
X017650Y023902D02*
X019695Y023902D01*
X019537Y024061D02*
X019391Y024061D01*
X019188Y023585D02*
X020610Y023585D01*
X020768Y023427D02*
X019324Y023427D01*
X019324Y023268D02*
X020927Y023268D01*
X021085Y023110D02*
X018631Y023110D01*
X018631Y023018D02*
X019324Y023018D01*
X019324Y022757D01*
X019312Y022711D01*
X019288Y022670D01*
X019254Y022637D01*
X019213Y022613D01*
X019167Y022601D01*
X018631Y022601D01*
X018631Y023018D01*
X018631Y022951D02*
X018476Y022951D01*
X018476Y022793D02*
X018631Y022793D01*
X018631Y022634D02*
X018476Y022634D01*
X018086Y022476D02*
X021672Y022476D01*
X021719Y022317D02*
X018115Y022317D01*
X018516Y022159D02*
X020706Y022159D01*
X020632Y022000D02*
X018595Y022000D01*
X018585Y021842D02*
X020599Y021842D01*
X020180Y021683D02*
X018487Y021683D01*
X018453Y021525D02*
X018702Y021525D01*
X018718Y021533D02*
X018677Y021510D01*
X018643Y021476D01*
X018619Y021435D01*
X018607Y021389D01*
X018607Y020176D01*
X019207Y020176D01*
X019207Y021546D01*
X018763Y021546D01*
X018718Y021533D01*
X018607Y021366D02*
X018453Y021366D01*
X018453Y021208D02*
X018607Y021208D01*
X018607Y021049D02*
X018483Y021049D01*
X018478Y020891D02*
X018607Y020891D01*
X018607Y020732D02*
X018453Y020732D01*
X018453Y020574D02*
X018607Y020574D01*
X018607Y020415D02*
X018453Y020415D01*
X018453Y020257D02*
X018607Y020257D01*
X018449Y020098D02*
X019207Y020098D01*
X019207Y020176D02*
X019207Y020016D01*
X018607Y020016D01*
X018607Y018802D01*
X018619Y018756D01*
X018643Y018715D01*
X018677Y018682D01*
X018718Y018658D01*
X018763Y018646D01*
X019207Y018646D01*
X019207Y020016D01*
X019367Y020016D01*
X019367Y020176D01*
X019207Y020176D01*
X019207Y020257D02*
X019367Y020257D01*
X019367Y020176D02*
X019367Y021546D01*
X019811Y021546D01*
X019857Y021533D01*
X019898Y021510D01*
X019931Y021476D01*
X019955Y021435D01*
X019967Y021389D01*
X019967Y020176D01*
X019367Y020176D01*
X019367Y020098D02*
X020126Y020098D01*
X020121Y019940D02*
X019967Y019940D01*
X019967Y020016D02*
X019367Y020016D01*
X019367Y018646D01*
X019811Y018646D01*
X019857Y018658D01*
X019898Y018682D01*
X019931Y018715D01*
X019955Y018756D01*
X019967Y018802D01*
X019967Y020016D01*
X019967Y019781D02*
X020091Y019781D01*
X020091Y019712D02*
X020091Y019629D01*
X020104Y019583D01*
X020121Y019552D01*
X020121Y019359D01*
X020104Y019328D01*
X020091Y019283D01*
X020091Y019200D01*
X020567Y019200D01*
X020567Y019200D01*
X021042Y019200D01*
X021042Y019117D01*
X021030Y019072D01*
X021042Y019027D01*
X021042Y018944D01*
X021042Y018861D01*
X021030Y018815D01*
X021012Y018785D01*
X021012Y018567D01*
X020924Y018479D01*
X020868Y018479D01*
X020868Y017839D01*
X021015Y017839D01*
X021103Y017751D01*
X021103Y016840D01*
X021015Y016752D01*
X020261Y016752D01*
X020173Y016840D01*
X020173Y017751D01*
X020261Y017839D01*
X020408Y017839D01*
X020408Y018479D01*
X020209Y018479D01*
X020121Y018567D01*
X020121Y018785D01*
X020104Y018815D01*
X020091Y018861D01*
X020091Y018944D01*
X020567Y018944D01*
X020567Y019200D01*
X020567Y019200D01*
X019303Y019200D01*
X019047Y019456D01*
X019207Y019456D01*
X019287Y019376D01*
X019207Y019306D02*
X019367Y019306D01*
X019367Y019147D02*
X019207Y019147D01*
X019207Y018989D02*
X019367Y018989D01*
X019367Y018830D02*
X019207Y018830D01*
X019207Y018672D02*
X019367Y018672D01*
X019880Y018672D02*
X020121Y018672D01*
X020100Y018830D02*
X019967Y018830D01*
X019967Y018989D02*
X020091Y018989D01*
X020091Y019027D02*
X020091Y018944D01*
X020567Y018944D01*
X020567Y018944D01*
X020567Y018989D02*
X020567Y018989D01*
X020567Y019147D02*
X020567Y019147D01*
X020567Y019200D02*
X020091Y019200D01*
X020091Y019117D01*
X020103Y019072D01*
X020091Y019027D01*
X020091Y019147D02*
X019967Y019147D01*
X019967Y019306D02*
X020097Y019306D01*
X020121Y019464D02*
X019967Y019464D01*
X019967Y019623D02*
X020093Y019623D01*
X020091Y019712D02*
X020567Y019712D01*
X020567Y019712D01*
X020567Y019968D02*
X021352Y019968D01*
X021620Y019700D01*
X021620Y018980D01*
X021860Y018740D01*
X024762Y018740D01*
X025319Y019297D01*
X025015Y019780D02*
X024531Y019297D01*
X023744Y020084D01*
X023744Y020319D01*
X023350Y020205D02*
X023302Y020088D01*
X023188Y019973D01*
X023038Y019911D01*
X022876Y019911D01*
X022726Y019973D01*
X022611Y020088D01*
X022563Y020205D01*
X022515Y020088D01*
X022400Y019973D01*
X022250Y019911D01*
X022088Y019911D01*
X021938Y019973D01*
X021918Y019994D01*
X021652Y019994D01*
X021715Y019930D01*
X021850Y019795D01*
X021850Y019596D01*
X021884Y019630D01*
X021940Y019671D01*
X022001Y019702D01*
X022067Y019723D01*
X022135Y019734D01*
X022169Y019734D01*
X022169Y019297D01*
X022169Y019297D01*
X022169Y019734D01*
X022204Y019734D01*
X022272Y019723D01*
X022337Y019702D01*
X022399Y019671D01*
X022454Y019630D01*
X022503Y019582D01*
X022543Y019526D01*
X022575Y019464D01*
X022585Y019464D01*
X022575Y019464D02*
X022579Y019450D01*
X022611Y019527D01*
X022726Y019642D01*
X022876Y019704D01*
X023038Y019704D01*
X023188Y019642D01*
X023302Y019527D01*
X023350Y019411D01*
X023399Y019527D01*
X023513Y019642D01*
X023663Y019704D01*
X023799Y019704D01*
X023541Y019962D01*
X023513Y019973D01*
X023399Y020088D01*
X023350Y020205D01*
X023306Y020098D02*
X023395Y020098D01*
X023563Y019940D02*
X023106Y019940D01*
X022808Y019940D02*
X022318Y019940D01*
X022519Y020098D02*
X022607Y020098D01*
X022957Y020319D02*
X022980Y020342D01*
X022980Y020820D01*
X022820Y020980D01*
X021940Y020980D01*
X021695Y020735D01*
X020567Y020735D01*
X020567Y020479D02*
X020091Y020479D01*
X020567Y020479D01*
X020567Y020479D01*
X021042Y020479D01*
X021042Y020454D01*
X021784Y020454D01*
X021816Y020531D01*
X021791Y020505D01*
X021042Y020505D01*
X021042Y020479D01*
X020567Y020479D01*
X019351Y020479D01*
X019287Y020416D01*
X019207Y020415D02*
X019367Y020415D01*
X019367Y020574D02*
X019207Y020574D01*
X019207Y020732D02*
X019367Y020732D01*
X019367Y020891D02*
X019207Y020891D01*
X019247Y020856D02*
X019111Y020991D01*
X018008Y020991D01*
X018008Y020224D02*
X017028Y020224D01*
X016987Y020264D01*
X017284Y019968D01*
X018008Y019968D01*
X018453Y019940D02*
X018607Y019940D01*
X018607Y019781D02*
X018453Y019781D01*
X018453Y019623D02*
X018607Y019623D01*
X018607Y019464D02*
X018483Y019464D01*
X018483Y019456D02*
X018008Y019456D01*
X018008Y019456D01*
X018008Y019456D01*
X017532Y019456D01*
X017532Y019373D01*
X017545Y019327D01*
X017562Y019297D01*
X017562Y019079D01*
X017569Y019072D01*
X017562Y019065D01*
X017562Y018823D01*
X017569Y018816D01*
X017562Y018809D01*
X017562Y018567D01*
X017650Y018479D01*
X017920Y018479D01*
X017921Y018478D01*
X018095Y018478D01*
X018095Y018479D01*
X018365Y018479D01*
X018453Y018567D01*
X018453Y018809D01*
X018446Y018816D01*
X018453Y018823D01*
X018453Y019065D01*
X018446Y019072D01*
X018453Y019079D01*
X018453Y019297D01*
X018471Y019327D01*
X018483Y019373D01*
X018483Y019456D01*
X018458Y019306D02*
X018607Y019306D01*
X018607Y019147D02*
X018453Y019147D01*
X018453Y018989D02*
X018607Y018989D01*
X018607Y018830D02*
X018453Y018830D01*
X018453Y018672D02*
X018694Y018672D01*
X018399Y018513D02*
X020175Y018513D01*
X020408Y018355D02*
X017085Y018355D01*
X017085Y018513D02*
X016930Y018513D01*
X016930Y018672D02*
X017085Y018672D01*
X017528Y018672D02*
X017562Y018672D01*
X017562Y018830D02*
X016627Y018830D01*
X017490Y018989D02*
X017562Y018989D01*
X017562Y019147D02*
X017511Y019147D01*
X017511Y019306D02*
X017557Y019306D01*
X017532Y019464D02*
X017511Y019464D01*
X017541Y018513D02*
X017616Y018513D01*
X017541Y018196D02*
X020408Y018196D01*
X020408Y018038D02*
X017541Y018038D01*
X017761Y017879D02*
X017916Y017879D01*
X017916Y017721D02*
X017761Y017721D01*
X017761Y017562D02*
X017916Y017562D01*
X017916Y017404D02*
X018998Y017404D01*
X019071Y017562D02*
X018333Y017562D01*
X018333Y017721D02*
X019071Y017721D01*
X019216Y017296D02*
X018740Y016820D01*
X016900Y016820D01*
X016740Y016980D01*
X016740Y017551D01*
X016736Y017396D01*
X016567Y017556D01*
X016427Y017416D01*
X016190Y017087D02*
X016120Y017087D01*
X016120Y016928D02*
X016322Y016928D01*
X016120Y016770D02*
X016625Y016770D01*
X016664Y016611D02*
X016784Y016611D01*
X016680Y016453D02*
X018839Y016453D01*
X018839Y016232D02*
X018839Y016000D01*
X018852Y015954D01*
X018875Y015913D01*
X018909Y015880D01*
X018950Y015856D01*
X018996Y015844D01*
X019277Y015844D01*
X019277Y016232D01*
X019372Y016232D01*
X019372Y015844D01*
X019653Y015844D01*
X019699Y015856D01*
X019740Y015880D01*
X019774Y015913D01*
X019797Y015954D01*
X019810Y016000D01*
X019810Y016232D01*
X019372Y016232D01*
X019372Y016327D01*
X019277Y016327D01*
X019277Y016232D01*
X018839Y016232D01*
X018839Y016136D02*
X016680Y016136D01*
X016680Y016232D02*
X016243Y016232D01*
X016243Y015844D01*
X016523Y015844D01*
X016569Y015856D01*
X016610Y015880D01*
X016644Y015913D01*
X016667Y015954D01*
X016680Y016000D01*
X016680Y016232D01*
X016674Y015977D02*
X018846Y015977D01*
X019277Y015977D02*
X019372Y015977D01*
X019372Y016136D02*
X019277Y016136D01*
X019324Y016280D02*
X017060Y016280D01*
X017060Y016260D01*
X017460Y015860D01*
X017300Y016040D02*
X017060Y016280D01*
X016195Y016280D01*
X016243Y016294D02*
X019277Y016294D01*
X019372Y016294D02*
X021531Y016294D01*
X021373Y016136D02*
X019810Y016136D01*
X019803Y015977D02*
X019868Y015977D01*
X019868Y015819D02*
X016120Y015819D01*
X016120Y015660D02*
X019868Y015660D01*
X019868Y015502D02*
X016120Y015502D01*
X016120Y015343D02*
X019868Y015343D01*
X019868Y015185D02*
X017108Y015185D01*
X017225Y015026D02*
X019868Y015026D01*
X019868Y014868D02*
X019738Y014868D01*
X019780Y014709D02*
X019868Y014709D01*
X019898Y014551D02*
X019780Y014551D01*
X019800Y014075D02*
X016120Y014075D01*
X016120Y013917D02*
X019634Y013917D01*
X019356Y013758D02*
X019260Y013758D01*
X019260Y013600D02*
X019356Y013600D01*
X019308Y013463D02*
X019968Y013463D01*
X020098Y013593D01*
X020146Y013600D02*
X027340Y013600D01*
X027220Y013540D02*
X026900Y013220D01*
X027114Y013006D01*
X027114Y012463D01*
X027157Y012420D01*
X027860Y012420D01*
X028020Y012260D01*
X028020Y011700D01*
X028260Y011460D01*
X029045Y011460D01*
X028980Y011395D01*
X028980Y010900D01*
X029060Y010820D01*
X030020Y010820D01*
X030260Y011060D01*
X030329Y011060D01*
X030366Y011097D01*
X030414Y011064D02*
X030632Y011064D01*
X030414Y010905D02*
X030318Y010905D01*
X030318Y011049D02*
X030067Y011049D01*
X030121Y011103D01*
X030121Y011145D01*
X030318Y011145D01*
X030318Y011049D01*
X030318Y011064D02*
X030081Y011064D01*
X029891Y010905D02*
X018628Y010905D01*
X018469Y010747D02*
X029917Y010747D01*
X030318Y010747D02*
X030414Y010747D01*
X030366Y011766D02*
X030340Y011792D01*
X030340Y012260D01*
X030100Y012500D01*
X030100Y012820D01*
X030134Y012854D02*
X030089Y012900D01*
X029700Y012900D01*
X029260Y013340D01*
X029300Y013380D02*
X029266Y013414D01*
X029266Y013540D01*
X029266Y014074D01*
X029266Y014694D01*
X029220Y014740D01*
X028149Y014489D02*
X028112Y014451D01*
X028112Y014380D01*
X027617Y014380D01*
X027457Y014220D01*
X027340Y014103D01*
X027340Y013377D01*
X027420Y013297D01*
X027472Y013245D01*
X027405Y013177D01*
X027435Y013283D02*
X020565Y013283D01*
X020561Y013268D02*
X020573Y013313D01*
X020573Y013545D01*
X020146Y013545D01*
X020146Y013641D01*
X020573Y013641D01*
X020573Y013873D01*
X020561Y013918D01*
X020537Y013959D01*
X020504Y013993D01*
X020463Y014017D01*
X020417Y014029D01*
X020361Y014029D01*
X020395Y014063D01*
X020448Y014191D01*
X020448Y014325D01*
X020533Y014410D01*
X020533Y014506D01*
X020710Y014506D01*
X020798Y014594D01*
X020798Y015230D01*
X020742Y015286D01*
X020798Y015342D01*
X020798Y015460D01*
X021263Y015460D01*
X023112Y017310D01*
X023165Y017183D01*
X023263Y017085D01*
X023391Y017032D01*
X023529Y017032D01*
X023657Y017085D01*
X023755Y017183D01*
X023790Y017267D01*
X024023Y017500D01*
X027121Y017500D01*
X026961Y017340D01*
X024897Y017340D01*
X024780Y017223D01*
X024780Y017223D01*
X024540Y016983D01*
X024540Y016952D01*
X024445Y016857D01*
X024392Y016729D01*
X024392Y016591D01*
X024445Y016463D01*
X024543Y016365D01*
X024671Y016312D01*
X024809Y016312D01*
X024937Y016365D01*
X025035Y016463D01*
X025088Y016591D01*
X025088Y016729D01*
X025035Y016857D01*
X025008Y016885D01*
X025063Y016940D01*
X025133Y016940D01*
X025112Y016889D01*
X025112Y016751D01*
X025165Y016623D01*
X025263Y016525D01*
X025298Y016510D01*
X025245Y016457D01*
X025192Y016329D01*
X025192Y016191D01*
X025245Y016063D01*
X025343Y015965D01*
X025471Y015912D01*
X025549Y015912D01*
X025525Y015888D01*
X025391Y015888D01*
X025263Y015835D01*
X025165Y015737D01*
X025112Y015609D01*
X025112Y015471D01*
X025165Y015343D01*
X020798Y015343D01*
X020798Y015185D02*
X027564Y015185D01*
X027565Y015183D02*
X027663Y015085D01*
X027791Y015032D01*
X027929Y015032D01*
X028015Y015067D01*
X027965Y015017D01*
X027912Y014889D01*
X027912Y014751D01*
X027965Y014623D01*
X028063Y014525D01*
X028149Y014489D01*
X028112Y014392D02*
X020515Y014392D01*
X020448Y014234D02*
X027471Y014234D01*
X027340Y014075D02*
X020400Y014075D01*
X020561Y013917D02*
X027340Y013917D01*
X027340Y013758D02*
X020573Y013758D01*
X020573Y013441D02*
X027340Y013441D01*
X027220Y013540D02*
X027220Y015380D01*
X027060Y015540D01*
X027407Y015820D02*
X027660Y016073D01*
X027660Y015672D01*
X027565Y015577D01*
X027512Y015449D01*
X027512Y015311D01*
X027565Y015183D01*
X027512Y015343D02*
X025755Y015343D01*
X025808Y015471D01*
X025808Y015605D01*
X026023Y015820D01*
X027407Y015820D01*
X027564Y015977D02*
X027660Y015977D01*
X027660Y015819D02*
X026021Y015819D01*
X025863Y015660D02*
X027648Y015660D01*
X027534Y015502D02*
X025808Y015502D01*
X025755Y015343D02*
X025657Y015245D01*
X025529Y015192D01*
X025391Y015192D01*
X025263Y015245D01*
X025165Y015343D01*
X025112Y015502D02*
X021304Y015502D01*
X021463Y015660D02*
X025133Y015660D01*
X025246Y015819D02*
X021621Y015819D01*
X021780Y015977D02*
X025331Y015977D01*
X025215Y016136D02*
X021938Y016136D01*
X022097Y016294D02*
X025192Y016294D01*
X025243Y016453D02*
X025025Y016453D01*
X025088Y016611D02*
X025177Y016611D01*
X025112Y016770D02*
X025071Y016770D01*
X025051Y016928D02*
X025128Y016928D01*
X024802Y017245D02*
X023781Y017245D01*
X023659Y017087D02*
X024644Y017087D01*
X024516Y016928D02*
X022731Y016928D01*
X022889Y017087D02*
X023261Y017087D01*
X023139Y017245D02*
X023048Y017245D01*
X022572Y016770D02*
X024409Y016770D01*
X024392Y016611D02*
X022414Y016611D01*
X022255Y016453D02*
X024455Y016453D01*
X023926Y017404D02*
X027025Y017404D01*
X028242Y018038D02*
X030197Y018038D01*
X030152Y017879D02*
X028401Y017879D01*
X028426Y017853D02*
X028426Y017853D01*
X028559Y017721D02*
X030181Y017721D01*
X029950Y017562D02*
X028718Y017562D01*
X028592Y017688D02*
X028592Y017688D01*
X028900Y017780D02*
X028900Y018580D01*
X028740Y018740D01*
X028740Y018900D01*
X028129Y018900D01*
X027938Y018830D02*
X031672Y018830D01*
X031669Y018672D02*
X028661Y018672D01*
X028758Y018513D02*
X031660Y018513D01*
X031660Y018355D02*
X031322Y018355D01*
X031118Y018355D02*
X028768Y018355D01*
X028688Y018196D02*
X030402Y018196D01*
X030598Y018196D02*
X030916Y018196D01*
X030872Y018038D02*
X030803Y018038D01*
X030848Y017879D02*
X030902Y017879D01*
X030977Y017721D02*
X031020Y017721D01*
X031020Y017678D02*
X031020Y017678D01*
X031420Y017721D02*
X031443Y017721D01*
X031538Y017879D02*
X031602Y017879D01*
X031568Y018038D02*
X031718Y018038D01*
X031778Y018038D02*
X031778Y018038D01*
X031827Y017988D02*
X031827Y017988D01*
X031827Y017988D01*
X031660Y018196D02*
X031524Y018196D01*
X031680Y018989D02*
X027779Y018989D01*
X027793Y019147D02*
X031775Y019147D01*
X031820Y019306D02*
X027921Y019306D01*
X027758Y019272D02*
X027758Y019272D01*
X027758Y019272D01*
X028067Y019464D02*
X031871Y019464D01*
X031852Y019547D02*
X031852Y019547D01*
X031777Y019623D02*
X028226Y019623D01*
X028151Y019547D02*
X028151Y019547D01*
X028316Y019713D02*
X028316Y019713D01*
X028384Y019781D02*
X031618Y019781D01*
X031576Y019823D02*
X031576Y019823D01*
X031686Y019713D02*
X031686Y019713D01*
X031460Y019940D02*
X028543Y019940D01*
X028592Y019989D02*
X028592Y019989D01*
X028701Y020098D02*
X029290Y020098D01*
X029198Y020257D02*
X028860Y020257D01*
X028851Y020247D02*
X028851Y020247D01*
X029018Y020415D02*
X029194Y020415D01*
X029126Y020523D02*
X029126Y020523D01*
X029177Y020574D02*
X029242Y020574D01*
X029886Y020415D02*
X029975Y020415D01*
X029882Y020257D02*
X031143Y020257D01*
X031152Y020247D02*
X031152Y020247D01*
X031301Y020098D02*
X029790Y020098D01*
X030225Y020415D02*
X030984Y020415D01*
X030986Y020413D02*
X030986Y020413D01*
X030783Y020574D02*
X030408Y020574D01*
X030448Y020732D02*
X030667Y020732D01*
X030509Y020891D02*
X030414Y020891D01*
X030355Y021002D02*
X030434Y021082D01*
X030434Y021082D01*
X030355Y021002D01*
X030402Y021049D02*
X030402Y021049D01*
X030434Y021082D02*
X030434Y021082D01*
X030308Y021049D02*
X030264Y021049D01*
X030192Y021208D02*
X030008Y021208D01*
X030152Y021366D02*
X029851Y021366D01*
X029698Y021525D02*
X030304Y021525D01*
X030346Y021683D02*
X029539Y021683D01*
X029381Y021842D02*
X030346Y021842D01*
X030346Y022000D02*
X028932Y022000D01*
X029091Y021842D02*
X029200Y021842D01*
X030746Y022000D02*
X031260Y022000D01*
X031260Y021842D02*
X030802Y021842D01*
X031003Y021683D02*
X031260Y021683D01*
X031260Y021525D02*
X031119Y021525D01*
X030940Y021587D02*
X030940Y021587D01*
X030746Y022159D02*
X031260Y022159D01*
X031260Y022317D02*
X030746Y022317D01*
X030746Y022476D02*
X031260Y022476D01*
X031260Y022634D02*
X030746Y022634D01*
X030746Y022793D02*
X031260Y022793D01*
X031260Y022951D02*
X030746Y022951D01*
X030733Y023110D02*
X031260Y023110D01*
X031260Y023268D02*
X030688Y023268D01*
X030626Y023427D02*
X031304Y023427D01*
X031462Y023585D02*
X030610Y023585D01*
X031860Y023140D02*
X032100Y022900D01*
X032180Y022900D01*
X033140Y023860D01*
X033140Y028260D01*
X033700Y028820D01*
X033700Y031140D01*
X033806Y031246D01*
X034340Y031246D01*
X035112Y031246D01*
X035006Y031220D01*
X035340Y031669D02*
X035420Y031669D01*
X034805Y031827D02*
X036086Y031827D01*
X036128Y031986D02*
X034805Y031986D01*
X034805Y032144D02*
X036170Y032144D01*
X036126Y032200D02*
X036160Y032234D01*
X036184Y032275D01*
X036249Y032518D01*
X035855Y032623D01*
X035890Y032754D01*
X035759Y032789D01*
X035724Y032658D01*
X035855Y032623D01*
X035749Y032229D01*
X035992Y032164D01*
X036040Y032164D01*
X036085Y032177D01*
X036126Y032200D01*
X036191Y032303D02*
X036213Y032303D01*
X036233Y032461D02*
X036491Y032461D01*
X036491Y032620D02*
X035868Y032620D01*
X035854Y032620D02*
X035714Y032620D01*
X035742Y032580D02*
X035807Y032706D01*
X035799Y032778D02*
X035896Y032778D01*
X035890Y032754D02*
X035995Y033147D01*
X036238Y033082D01*
X036279Y033059D01*
X036313Y033025D01*
X036336Y032984D01*
X036349Y032938D01*
X036349Y032891D01*
X036284Y032648D01*
X035890Y032754D01*
X035759Y032789D02*
X035865Y033182D01*
X035622Y033248D01*
X035575Y033248D01*
X035529Y033235D01*
X035488Y033212D01*
X035454Y033178D01*
X035430Y033137D01*
X035365Y032894D01*
X035759Y032789D01*
X035756Y032778D02*
X035443Y032778D01*
X035377Y032937D02*
X035109Y032937D01*
X035104Y032778D02*
X035122Y032778D01*
X035079Y032620D02*
X035062Y032620D01*
X035060Y032580D02*
X035780Y032580D01*
X035742Y032580D02*
X035060Y032580D01*
X035037Y032461D02*
X035019Y032461D01*
X034995Y032303D02*
X034977Y032303D01*
X035355Y032303D02*
X035476Y032303D01*
X035629Y032303D02*
X035769Y032303D01*
X035811Y032461D02*
X035671Y032461D01*
X035799Y032937D02*
X035939Y032937D01*
X035981Y033095D02*
X035841Y033095D01*
X036191Y033095D02*
X036491Y033095D01*
X036491Y032937D02*
X036349Y032937D01*
X036318Y032778D02*
X036491Y032778D01*
X036911Y032778D02*
X039038Y032778D01*
X038979Y032620D02*
X036911Y032620D01*
X036911Y032461D02*
X038921Y032461D01*
X038862Y032303D02*
X036911Y032303D01*
X036911Y032228D02*
X036911Y033574D01*
X036987Y033650D01*
X039386Y033650D01*
X039385Y033648D01*
X039357Y033636D01*
X039348Y033612D01*
X039330Y033594D01*
X039330Y033563D01*
X038330Y030870D01*
X036160Y030870D01*
X036160Y031010D01*
X037067Y031010D01*
X037107Y031050D01*
X037286Y031002D01*
X037394Y031064D01*
X037411Y031127D01*
X037492Y031151D01*
X038117Y030983D01*
X038225Y031045D01*
X038410Y031736D01*
X038347Y031844D01*
X037657Y032029D01*
X037549Y031966D01*
X037459Y031629D01*
X037456Y031634D01*
X036994Y031758D01*
X036988Y031755D01*
X037079Y032093D01*
X037016Y032200D01*
X036911Y032228D01*
X037049Y032144D02*
X038803Y032144D01*
X038744Y031986D02*
X037817Y031986D01*
X037583Y031986D02*
X037050Y031986D01*
X037007Y031827D02*
X037512Y031827D01*
X037470Y031669D02*
X037327Y031669D01*
X037140Y031380D02*
X037212Y031308D01*
X037887Y031506D01*
X038307Y031352D02*
X038508Y031352D01*
X038567Y031510D02*
X038349Y031510D01*
X038392Y031669D02*
X038626Y031669D01*
X038685Y031827D02*
X038357Y031827D01*
X038264Y031193D02*
X038450Y031193D01*
X038391Y031035D02*
X038206Y031035D01*
X038332Y030876D02*
X036160Y030876D01*
X037092Y031035D02*
X037165Y031035D01*
X037343Y031035D02*
X037926Y031035D01*
X037140Y031380D02*
X037060Y031300D01*
X036911Y032937D02*
X039097Y032937D01*
X039156Y033095D02*
X036911Y033095D01*
X036911Y033254D02*
X039215Y033254D01*
X039274Y033412D02*
X036911Y033412D01*
X036911Y033571D02*
X039330Y033571D01*
X036789Y034046D02*
X033651Y034046D01*
X033700Y033940D02*
X033940Y034180D01*
X036100Y034180D01*
X036180Y034100D01*
X036100Y034180D02*
X046340Y034180D01*
X046980Y034820D01*
X048500Y034820D01*
X049140Y034180D01*
X049220Y034363D02*
X048721Y034363D01*
X048768Y034205D02*
X049344Y034205D01*
X049630Y034046D02*
X048741Y034046D01*
X048689Y033888D02*
X048893Y033888D01*
X048872Y033112D02*
X048872Y033112D01*
X048751Y033112D01*
X048710Y033129D01*
X048710Y030158D01*
X048737Y030131D01*
X048799Y030194D01*
X048940Y030194D01*
X048940Y030208D01*
X048845Y030303D01*
X048792Y030431D01*
X048792Y030569D01*
X048845Y030697D01*
X048943Y030795D01*
X049071Y030848D01*
X049209Y030848D01*
X049337Y030795D01*
X049435Y030697D01*
X049488Y030569D01*
X049488Y030431D01*
X049435Y030303D01*
X049340Y030208D01*
X049340Y030194D01*
X049436Y030194D01*
X049491Y030138D01*
X049547Y030194D01*
X049796Y030194D01*
X049796Y032064D01*
X049547Y032064D01*
X049491Y032120D01*
X049436Y032064D01*
X049317Y032064D01*
X049317Y032048D01*
X049449Y032048D01*
X049577Y031995D01*
X049675Y031897D01*
X049728Y031769D01*
X049728Y031631D01*
X049675Y031503D01*
X049577Y031405D01*
X049449Y031352D01*
X049311Y031352D01*
X049183Y031405D01*
X049085Y031503D01*
X049032Y031631D01*
X049032Y031765D01*
X048917Y031880D01*
X048917Y032064D01*
X048799Y032064D01*
X048712Y032152D01*
X048712Y032906D01*
X048799Y032994D01*
X049436Y032994D01*
X049491Y032938D01*
X049547Y032994D01*
X049796Y032994D01*
X049796Y033024D01*
X049707Y033024D01*
X049651Y033080D01*
X049596Y033024D01*
X048959Y033024D01*
X048872Y033112D01*
X048888Y033095D02*
X048710Y033095D01*
X048710Y032937D02*
X048742Y032937D01*
X048712Y032778D02*
X048710Y032778D01*
X048710Y032620D02*
X048712Y032620D01*
X048710Y032461D02*
X048712Y032461D01*
X048710Y032303D02*
X048712Y032303D01*
X048710Y032144D02*
X048719Y032144D01*
X048710Y031986D02*
X048917Y031986D01*
X048970Y031827D02*
X048710Y031827D01*
X048710Y031669D02*
X049032Y031669D01*
X049082Y031510D02*
X048710Y031510D01*
X048710Y031352D02*
X049796Y031352D01*
X049796Y031510D02*
X049678Y031510D01*
X049728Y031669D02*
X049796Y031669D01*
X049796Y031827D02*
X049704Y031827D01*
X049796Y031986D02*
X049587Y031986D01*
X049796Y031193D02*
X048710Y031193D01*
X048710Y031035D02*
X049796Y031035D01*
X049796Y030876D02*
X048710Y030876D01*
X048710Y030718D02*
X048865Y030718D01*
X048792Y030559D02*
X048710Y030559D01*
X048710Y030401D02*
X048804Y030401D01*
X048710Y030242D02*
X048906Y030242D01*
X049374Y030242D02*
X049796Y030242D01*
X049796Y030401D02*
X049476Y030401D01*
X049488Y030559D02*
X049796Y030559D01*
X049796Y030718D02*
X049415Y030718D01*
X050420Y031460D02*
X050660Y031460D01*
X050900Y031220D01*
X050900Y027620D01*
X050820Y027540D01*
X050580Y027540D01*
X050900Y027620D02*
X050900Y023940D01*
X050900Y020100D01*
X050660Y020100D01*
X050900Y020100D02*
X050900Y016340D01*
X050500Y016340D01*
X050256Y016588D02*
X050256Y017464D01*
X050344Y017464D01*
X050431Y017552D01*
X050431Y018306D01*
X050344Y018394D01*
X050256Y018394D01*
X050256Y018504D01*
X050344Y018504D01*
X050431Y018592D01*
X050431Y019346D01*
X050344Y019434D01*
X050256Y019434D01*
X050256Y020424D01*
X050344Y020424D01*
X050431Y020512D01*
X050431Y021266D01*
X050344Y021354D01*
X050256Y021354D01*
X050256Y021384D01*
X050344Y021384D01*
X050431Y021472D01*
X050431Y022226D01*
X050344Y022314D01*
X050256Y022314D01*
X050256Y023814D01*
X050285Y023743D01*
X050383Y023645D01*
X050511Y023592D01*
X050649Y023592D01*
X050670Y023600D01*
X050670Y020448D01*
X050591Y020448D01*
X050463Y020395D01*
X050365Y020297D01*
X050312Y020169D01*
X050312Y020031D01*
X050365Y019903D01*
X050463Y019805D01*
X050591Y019752D01*
X050670Y019752D01*
X050670Y016646D01*
X050569Y016688D01*
X050431Y016688D01*
X050303Y016635D01*
X050256Y016588D01*
X050256Y016611D02*
X050279Y016611D01*
X050256Y016770D02*
X050670Y016770D01*
X050670Y016928D02*
X050256Y016928D01*
X050256Y017087D02*
X050670Y017087D01*
X050670Y017245D02*
X050256Y017245D01*
X050256Y017404D02*
X050670Y017404D01*
X050670Y017562D02*
X050431Y017562D01*
X050431Y017721D02*
X050670Y017721D01*
X050670Y017879D02*
X050431Y017879D01*
X050431Y018038D02*
X050670Y018038D01*
X050670Y018196D02*
X050431Y018196D01*
X050383Y018355D02*
X050670Y018355D01*
X050670Y018513D02*
X050353Y018513D01*
X050431Y018672D02*
X050670Y018672D01*
X050670Y018830D02*
X050431Y018830D01*
X050431Y018989D02*
X050670Y018989D01*
X050670Y019147D02*
X050431Y019147D01*
X050431Y019306D02*
X050670Y019306D01*
X050670Y019464D02*
X050256Y019464D01*
X050256Y019623D02*
X050670Y019623D01*
X050520Y019781D02*
X050256Y019781D01*
X050256Y019940D02*
X050350Y019940D01*
X050312Y020098D02*
X050256Y020098D01*
X050256Y020257D02*
X050348Y020257D01*
X050256Y020415D02*
X050511Y020415D01*
X050431Y020574D02*
X050670Y020574D01*
X050670Y020732D02*
X050431Y020732D01*
X050431Y020891D02*
X050670Y020891D01*
X050670Y021049D02*
X050431Y021049D01*
X050431Y021208D02*
X050670Y021208D01*
X050670Y021366D02*
X050256Y021366D01*
X050431Y021525D02*
X050670Y021525D01*
X050670Y021683D02*
X050431Y021683D01*
X050431Y021842D02*
X050670Y021842D01*
X050670Y022000D02*
X050431Y022000D01*
X050431Y022159D02*
X050670Y022159D01*
X050670Y022317D02*
X050256Y022317D01*
X050256Y022476D02*
X050670Y022476D01*
X050670Y022634D02*
X050256Y022634D01*
X050256Y022793D02*
X050670Y022793D01*
X050670Y022951D02*
X050256Y022951D01*
X050256Y023110D02*
X050670Y023110D01*
X050670Y023268D02*
X050256Y023268D01*
X050256Y023427D02*
X050670Y023427D01*
X050670Y023585D02*
X050256Y023585D01*
X050256Y023744D02*
X050285Y023744D01*
X049796Y023340D02*
X049796Y022314D01*
X049707Y022314D01*
X049651Y022258D01*
X049596Y022314D01*
X049477Y022314D01*
X049477Y022485D01*
X049488Y022511D01*
X049488Y022649D01*
X049435Y022777D01*
X049337Y022875D01*
X049209Y022928D01*
X049071Y022928D01*
X048943Y022875D01*
X048845Y022777D01*
X048792Y022649D01*
X048792Y022511D01*
X048845Y022383D01*
X048937Y022291D01*
X048872Y022226D01*
X048872Y021472D01*
X048959Y021384D01*
X049596Y021384D01*
X049651Y021440D01*
X049707Y021384D01*
X049796Y021384D01*
X049796Y021354D01*
X049707Y021354D01*
X049651Y021298D01*
X049596Y021354D01*
X048959Y021354D01*
X048872Y021266D01*
X048872Y021074D01*
X048620Y020823D01*
X048620Y020960D01*
X048620Y021142D01*
X048362Y021400D01*
X048180Y021400D01*
X048180Y020960D01*
X048180Y020960D01*
X048620Y020960D01*
X048180Y020960D01*
X048180Y020960D01*
X048180Y021400D01*
X047998Y021400D01*
X047910Y021312D01*
X047910Y021650D01*
X048010Y021550D01*
X048350Y021550D01*
X048590Y021790D01*
X048590Y022130D01*
X048406Y022314D01*
X048406Y023155D01*
X048524Y023155D01*
X048580Y023211D01*
X048636Y023155D01*
X049272Y023155D01*
X049360Y023243D01*
X049360Y023340D01*
X049796Y023340D01*
X049796Y023268D02*
X049360Y023268D01*
X049796Y023110D02*
X048406Y023110D01*
X048406Y022951D02*
X049796Y022951D01*
X049796Y022793D02*
X049420Y022793D01*
X049488Y022634D02*
X049796Y022634D01*
X049796Y022476D02*
X049477Y022476D01*
X049477Y022317D02*
X049796Y022317D01*
X048911Y022317D02*
X048406Y022317D01*
X048406Y022476D02*
X048806Y022476D01*
X048792Y022634D02*
X048406Y022634D01*
X048406Y022793D02*
X048860Y022793D01*
X048872Y022159D02*
X048561Y022159D01*
X048590Y022000D02*
X048872Y022000D01*
X048872Y021842D02*
X048590Y021842D01*
X048483Y021683D02*
X048872Y021683D01*
X048872Y021525D02*
X047910Y021525D01*
X047910Y021366D02*
X047964Y021366D01*
X048180Y021366D02*
X048180Y021366D01*
X048180Y021208D02*
X048180Y021208D01*
X048180Y021049D02*
X048180Y021049D01*
X048396Y021366D02*
X049796Y021366D01*
X048872Y021208D02*
X048555Y021208D01*
X048620Y021049D02*
X048846Y021049D01*
X048688Y020891D02*
X048620Y020891D01*
X051130Y020891D02*
X051564Y020891D01*
X051560Y021049D02*
X051130Y021049D01*
X051130Y021208D02*
X051556Y021208D01*
X051552Y021366D02*
X051130Y021366D01*
X051130Y021525D02*
X051548Y021525D01*
X051544Y021683D02*
X051130Y021683D01*
X051130Y021842D02*
X051540Y021842D01*
X051536Y022000D02*
X051130Y022000D01*
X051130Y022159D02*
X051532Y022159D01*
X051528Y022317D02*
X051130Y022317D01*
X051130Y022476D02*
X051524Y022476D01*
X051520Y022634D02*
X051130Y022634D01*
X051130Y022793D02*
X051516Y022793D01*
X051512Y022951D02*
X051130Y022951D01*
X051130Y023110D02*
X051508Y023110D01*
X051504Y023268D02*
X051130Y023268D01*
X051130Y023427D02*
X051500Y023427D01*
X051499Y023493D02*
X051593Y019742D01*
X051544Y015991D01*
X051354Y012244D01*
X051130Y009715D01*
X051130Y028557D01*
X051263Y027238D01*
X051499Y023493D01*
X051493Y023585D02*
X051130Y023585D01*
X051130Y023744D02*
X051483Y023744D01*
X051473Y023902D02*
X051130Y023902D01*
X051130Y024061D02*
X051463Y024061D01*
X051453Y024219D02*
X051130Y024219D01*
X051130Y024378D02*
X051443Y024378D01*
X051433Y024536D02*
X051130Y024536D01*
X051130Y024695D02*
X051423Y024695D01*
X051413Y024853D02*
X051130Y024853D01*
X051130Y025012D02*
X051403Y025012D01*
X051393Y025170D02*
X051130Y025170D01*
X051130Y025329D02*
X051383Y025329D01*
X051373Y025487D02*
X051130Y025487D01*
X051130Y025646D02*
X051363Y025646D01*
X051353Y025804D02*
X051130Y025804D01*
X051130Y025963D02*
X051343Y025963D01*
X051333Y026121D02*
X051130Y026121D01*
X051130Y026280D02*
X051323Y026280D01*
X051314Y026438D02*
X051130Y026438D01*
X051130Y026597D02*
X051304Y026597D01*
X051294Y026755D02*
X051130Y026755D01*
X051130Y026914D02*
X051284Y026914D01*
X051274Y027072D02*
X051130Y027072D01*
X051130Y027231D02*
X051264Y027231D01*
X051248Y027389D02*
X051130Y027389D01*
X051130Y027548D02*
X051232Y027548D01*
X051216Y027706D02*
X051130Y027706D01*
X051130Y027865D02*
X051200Y027865D01*
X051184Y028023D02*
X051130Y028023D01*
X051130Y028182D02*
X051168Y028182D01*
X051152Y028340D02*
X051130Y028340D01*
X051130Y028499D02*
X051136Y028499D01*
X049796Y029074D02*
X049787Y029074D01*
X049731Y029018D01*
X049676Y029074D01*
X049039Y029074D01*
X048952Y028986D01*
X048952Y028232D01*
X049039Y028144D01*
X049252Y028144D01*
X049165Y028057D01*
X049112Y027929D01*
X049112Y027791D01*
X049165Y027663D01*
X049263Y027565D01*
X049391Y027512D01*
X049529Y027512D01*
X049657Y027565D01*
X049755Y027663D01*
X049796Y027760D01*
X049796Y026884D01*
X049689Y026928D01*
X049551Y026928D01*
X049423Y026875D01*
X049325Y026777D01*
X049272Y026649D01*
X049272Y026515D01*
X049077Y026320D01*
X049077Y026194D01*
X048959Y026194D01*
X048872Y026106D01*
X048872Y025830D01*
X048667Y025830D01*
X048470Y026027D01*
X048470Y029804D01*
X048610Y029664D01*
X048712Y029562D01*
X048712Y029352D01*
X048799Y029264D01*
X049436Y029264D01*
X049491Y029320D01*
X049547Y029264D01*
X049796Y029264D01*
X049796Y029074D01*
X049796Y029133D02*
X048470Y029133D01*
X048470Y029291D02*
X048772Y029291D01*
X048712Y029450D02*
X048470Y029450D01*
X048470Y029608D02*
X048666Y029608D01*
X048507Y029767D02*
X048470Y029767D01*
X048470Y028974D02*
X048952Y028974D01*
X048952Y028816D02*
X048470Y028816D01*
X048470Y028657D02*
X048952Y028657D01*
X048952Y028499D02*
X048470Y028499D01*
X048470Y028340D02*
X048952Y028340D01*
X049002Y028182D02*
X048470Y028182D01*
X048470Y028023D02*
X049151Y028023D01*
X049112Y027865D02*
X048470Y027865D01*
X048470Y027706D02*
X049147Y027706D01*
X049305Y027548D02*
X048470Y027548D01*
X048470Y027389D02*
X049796Y027389D01*
X049796Y027231D02*
X048470Y027231D01*
X048470Y027072D02*
X049796Y027072D01*
X049796Y026914D02*
X049724Y026914D01*
X049516Y026914D02*
X048470Y026914D01*
X048470Y026755D02*
X049316Y026755D01*
X049272Y026597D02*
X048470Y026597D01*
X048470Y026438D02*
X049195Y026438D01*
X049077Y026280D02*
X048470Y026280D01*
X048470Y026121D02*
X048887Y026121D01*
X048872Y025963D02*
X048534Y025963D01*
X049615Y027548D02*
X049796Y027548D01*
X049796Y027706D02*
X049773Y027706D01*
X049520Y029291D02*
X049463Y029291D01*
X050020Y033380D02*
X050020Y033620D01*
X049540Y034500D02*
X048820Y035220D01*
X046900Y035220D01*
X046180Y034500D01*
X033780Y034500D01*
X033380Y034100D01*
X033380Y032660D01*
X032740Y032020D01*
X032740Y031653D01*
X032660Y031573D01*
X032660Y031620D01*
X033007Y031669D02*
X033306Y031669D01*
X033260Y031510D02*
X033007Y031510D01*
X033007Y031352D02*
X033260Y031352D01*
X033260Y031193D02*
X032965Y031193D01*
X032900Y031140D02*
X031860Y031140D01*
X031939Y031035D02*
X031311Y031035D01*
X031311Y030876D02*
X031939Y030876D01*
X032286Y030707D02*
X032286Y030020D01*
X031880Y030084D02*
X031341Y030084D01*
X031341Y030242D02*
X031880Y030242D01*
X031884Y030401D02*
X031340Y030401D01*
X030924Y030401D02*
X030769Y030401D01*
X030769Y030242D02*
X030924Y030242D01*
X030924Y030084D02*
X030769Y030084D01*
X030769Y029925D02*
X030924Y029925D01*
X030924Y029450D02*
X030769Y029450D01*
X030769Y029291D02*
X030924Y029291D01*
X030924Y029133D02*
X030769Y029133D01*
X030853Y028816D02*
X031438Y028816D01*
X031273Y028657D02*
X031059Y028657D01*
X031126Y028499D02*
X031210Y028499D01*
X031200Y028340D02*
X031130Y028340D01*
X031130Y028182D02*
X031200Y028182D01*
X031200Y028023D02*
X031130Y028023D01*
X031130Y027865D02*
X031200Y027865D01*
X031209Y027706D02*
X031128Y027706D01*
X031063Y027548D02*
X031270Y027548D01*
X031429Y027389D02*
X031095Y027389D01*
X030865Y027389D02*
X030864Y027389D01*
X030674Y027231D02*
X030633Y027231D01*
X030610Y027072D02*
X030475Y027072D01*
X030452Y026914D02*
X030316Y026914D01*
X030293Y026755D02*
X030220Y026755D01*
X032300Y026737D02*
X032486Y026923D01*
X032486Y029555D01*
X032604Y029555D01*
X032639Y029590D01*
X032668Y029561D01*
X032709Y029537D01*
X032754Y029525D01*
X032986Y029525D01*
X032986Y029972D01*
X033082Y029972D01*
X033082Y029525D01*
X033260Y029525D01*
X033260Y029143D01*
X032657Y028540D01*
X032540Y028423D01*
X032540Y024103D01*
X032177Y023740D01*
X032152Y023740D01*
X032155Y023743D01*
X032208Y023871D01*
X032208Y024005D01*
X032300Y024097D01*
X032300Y026737D01*
X032318Y026755D02*
X032540Y026755D01*
X032540Y026597D02*
X032300Y026597D01*
X032300Y026438D02*
X032540Y026438D01*
X032540Y026280D02*
X032300Y026280D01*
X032300Y026121D02*
X032540Y026121D01*
X032540Y025963D02*
X032300Y025963D01*
X032300Y025804D02*
X032540Y025804D01*
X032540Y025646D02*
X032300Y025646D01*
X032300Y025487D02*
X032540Y025487D01*
X032540Y025329D02*
X032300Y025329D01*
X032300Y025170D02*
X032540Y025170D01*
X032540Y025012D02*
X032300Y025012D01*
X032300Y024853D02*
X032540Y024853D01*
X032540Y024695D02*
X032300Y024695D01*
X032300Y024536D02*
X032540Y024536D01*
X032540Y024378D02*
X032300Y024378D01*
X032300Y024219D02*
X032540Y024219D01*
X032498Y024061D02*
X032263Y024061D01*
X032208Y023902D02*
X032339Y023902D01*
X032181Y023744D02*
X032155Y023744D01*
X032476Y026914D02*
X032540Y026914D01*
X032540Y027072D02*
X032486Y027072D01*
X032486Y027231D02*
X032540Y027231D01*
X032540Y027389D02*
X032486Y027389D01*
X032486Y027548D02*
X032540Y027548D01*
X032540Y027706D02*
X032486Y027706D01*
X032486Y027865D02*
X032540Y027865D01*
X032540Y028023D02*
X032486Y028023D01*
X032486Y028182D02*
X032540Y028182D01*
X032540Y028340D02*
X032486Y028340D01*
X032486Y028499D02*
X032616Y028499D01*
X032486Y028657D02*
X032774Y028657D01*
X032933Y028816D02*
X032486Y028816D01*
X032486Y028974D02*
X033091Y028974D01*
X033250Y029133D02*
X032486Y029133D01*
X032486Y029291D02*
X033260Y029291D01*
X033260Y029450D02*
X032486Y029450D01*
X032086Y029450D02*
X031341Y029450D01*
X031341Y029608D02*
X031915Y029608D01*
X032086Y029291D02*
X031341Y029291D01*
X031332Y029133D02*
X032086Y029133D01*
X032986Y029608D02*
X033082Y029608D01*
X033082Y029767D02*
X032986Y029767D01*
X032986Y029925D02*
X033082Y029925D01*
X033034Y030020D02*
X033034Y030500D01*
X033140Y030606D01*
X033140Y031780D01*
X033700Y032340D01*
X033700Y033940D01*
X033610Y033888D02*
X036631Y033888D01*
X036491Y033729D02*
X033610Y033729D01*
X033610Y033571D02*
X034221Y033571D01*
X034301Y033571D02*
X036491Y033571D01*
X036491Y033412D02*
X034892Y033412D01*
X034988Y033254D02*
X036491Y033254D01*
X035419Y033095D02*
X034946Y033095D01*
X034621Y033181D02*
X034340Y032900D01*
X034340Y031994D01*
X034110Y032461D02*
X033506Y032461D01*
X033610Y032620D02*
X034110Y032620D01*
X033985Y032778D02*
X033610Y032778D01*
X033610Y032937D02*
X033981Y032937D01*
X034024Y033095D02*
X033610Y033095D01*
X033610Y033254D02*
X034066Y033254D01*
X034109Y033412D02*
X033610Y033412D01*
X033810Y034205D02*
X047592Y034205D01*
X047639Y034363D02*
X046368Y034363D01*
X046527Y034522D02*
X047855Y034522D01*
X048025Y034522D02*
X048335Y034522D01*
X048505Y034522D02*
X049192Y034522D01*
X049035Y034680D02*
X046685Y034680D01*
X046844Y034839D02*
X048876Y034839D01*
X034621Y033181D02*
X034476Y033063D01*
X033875Y032303D02*
X033348Y032303D01*
X033189Y032144D02*
X033781Y032144D01*
X033623Y031986D02*
X033031Y031986D01*
X033007Y031827D02*
X033464Y031827D01*
X032900Y031140D02*
X033034Y031006D01*
X033034Y030707D01*
X033034Y030500D01*
X033016Y030559D02*
X033052Y030559D01*
X033052Y030688D02*
X033052Y030251D01*
X033082Y030251D01*
X033082Y030068D01*
X032986Y030068D01*
X032986Y030251D01*
X033016Y030251D01*
X033016Y030688D01*
X033052Y030688D01*
X033016Y030718D02*
X032633Y030718D01*
X032633Y030876D02*
X032657Y030876D01*
X032665Y031035D02*
X032633Y031035D01*
X033016Y031035D02*
X033052Y031035D01*
X033052Y030876D02*
X033016Y030876D01*
X033016Y030401D02*
X033052Y030401D01*
X033082Y030242D02*
X032986Y030242D01*
X032986Y030084D02*
X033082Y030084D01*
X032657Y030559D02*
X032633Y030559D01*
X032313Y031510D02*
X031995Y031510D01*
X032154Y031669D02*
X032313Y031669D01*
X032312Y031827D02*
X032313Y031827D01*
X027653Y023585D02*
X022418Y023585D01*
X022576Y023427D02*
X025384Y023427D01*
X025225Y023268D02*
X022735Y023268D01*
X022893Y023110D02*
X025067Y023110D01*
X024908Y022951D02*
X023741Y022951D01*
X023862Y022793D02*
X024750Y022793D01*
X024591Y022634D02*
X023888Y022634D01*
X023840Y022476D02*
X024433Y022476D01*
X024274Y022317D02*
X023622Y022317D01*
X023488Y022159D02*
X024116Y022159D01*
X023957Y022000D02*
X023442Y022000D01*
X022838Y022000D02*
X021328Y022000D01*
X021316Y021842D02*
X021719Y021842D01*
X021560Y021683D02*
X021215Y021683D01*
X021402Y021525D02*
X021012Y021525D01*
X020121Y021525D02*
X019872Y021525D01*
X019967Y021366D02*
X020121Y021366D01*
X020121Y021208D02*
X019967Y021208D01*
X019967Y021049D02*
X020121Y021049D01*
X020121Y020891D02*
X019967Y020891D01*
X019967Y020732D02*
X020121Y020732D01*
X020094Y020574D02*
X019967Y020574D01*
X019967Y020415D02*
X020091Y020415D01*
X020121Y020257D02*
X019967Y020257D01*
X020567Y020224D02*
X022074Y020224D01*
X022169Y020319D01*
X022020Y019940D02*
X021706Y019940D01*
X021850Y019781D02*
X023722Y019781D01*
X023494Y019623D02*
X023207Y019623D01*
X023328Y019464D02*
X023372Y019464D01*
X022706Y019623D02*
X022462Y019623D01*
X022169Y019623D02*
X022169Y019623D01*
X022169Y019464D02*
X022169Y019464D01*
X022169Y019306D02*
X022169Y019306D01*
X021877Y019623D02*
X021850Y019623D01*
X021372Y019623D02*
X021303Y019623D01*
X021144Y019456D02*
X021300Y019300D01*
X021300Y018820D01*
X021700Y018420D01*
X025540Y018420D01*
X026100Y018980D01*
X026100Y019290D01*
X026106Y019297D01*
X026420Y019700D02*
X026340Y019780D01*
X025015Y019780D01*
X025696Y020473D02*
X025664Y020550D01*
X025550Y020664D01*
X025519Y020677D01*
X025519Y021716D01*
X025783Y021980D01*
X025888Y021980D01*
X025805Y021897D01*
X025752Y021769D01*
X025752Y021631D01*
X025805Y021503D01*
X025835Y021473D01*
X025743Y021435D01*
X025645Y021337D01*
X025592Y021209D01*
X025592Y021071D01*
X025645Y020943D01*
X025743Y020845D01*
X025871Y020792D01*
X026009Y020792D01*
X026137Y020845D01*
X026232Y020940D01*
X026358Y020940D01*
X027328Y019970D01*
X027304Y019945D01*
X027269Y019936D01*
X027228Y019912D01*
X027173Y019857D01*
X027252Y019777D01*
X027173Y019856D01*
X027117Y019801D01*
X027093Y019760D01*
X027084Y019726D01*
X027008Y019650D01*
X027008Y019769D01*
X026955Y019897D01*
X026857Y019995D01*
X026729Y020048D01*
X026591Y020048D01*
X026499Y020010D01*
X026416Y020010D01*
X026440Y020034D01*
X026480Y020090D01*
X026512Y020151D01*
X026533Y020216D01*
X026544Y020284D01*
X026544Y020319D01*
X026544Y020353D01*
X026533Y020421D01*
X026512Y020487D01*
X026480Y020548D01*
X026440Y020604D01*
X026391Y020653D01*
X026336Y020693D01*
X026274Y020724D01*
X026209Y020746D01*
X026141Y020756D01*
X026106Y020756D01*
X026072Y020756D01*
X026004Y020746D01*
X025938Y020724D01*
X025877Y020693D01*
X025821Y020653D01*
X025773Y020604D01*
X025732Y020548D01*
X025701Y020487D01*
X025696Y020473D01*
X025641Y020574D02*
X025751Y020574D01*
X025962Y020732D02*
X025519Y020732D01*
X025519Y020891D02*
X025697Y020891D01*
X025601Y021049D02*
X025519Y021049D01*
X025519Y021208D02*
X025592Y021208D01*
X025519Y021366D02*
X025674Y021366D01*
X025796Y021525D02*
X025519Y021525D01*
X025519Y021683D02*
X025752Y021683D01*
X025782Y021842D02*
X025644Y021842D01*
X026183Y020891D02*
X026407Y020891D01*
X026251Y020732D02*
X026566Y020732D01*
X026462Y020574D02*
X026724Y020574D01*
X026883Y020415D02*
X026534Y020415D01*
X026544Y020319D02*
X026106Y020319D01*
X026106Y020756D01*
X026106Y020319D01*
X026106Y020319D01*
X026106Y020319D01*
X026544Y020319D01*
X026539Y020257D02*
X027041Y020257D01*
X027200Y020098D02*
X026485Y020098D01*
X026500Y019780D02*
X026340Y019780D01*
X026420Y019700D02*
X026660Y019700D01*
X026500Y019780D02*
X026897Y019383D01*
X027060Y019383D01*
X027181Y019261D01*
X028023Y018420D01*
X028420Y018420D01*
X028179Y018672D02*
X028096Y018672D01*
X028900Y018580D02*
X029700Y017780D01*
X029700Y017140D01*
X029832Y017245D02*
X029035Y017245D01*
X029126Y017153D02*
X029126Y017153D01*
X029193Y017087D02*
X029901Y017087D01*
X029887Y016928D02*
X029352Y016928D01*
X029292Y016988D02*
X029292Y016988D01*
X029510Y016770D02*
X029728Y016770D01*
X029846Y017404D02*
X028876Y017404D01*
X030220Y016236D02*
X030650Y015807D01*
X030774Y015807D01*
X030915Y015948D01*
X031057Y016090D01*
X031191Y016224D01*
X031260Y016293D01*
X031260Y015297D01*
X031377Y015180D01*
X031416Y015141D01*
X030788Y015141D01*
X030744Y015098D01*
X030220Y015623D01*
X030220Y016236D01*
X030220Y016136D02*
X030321Y016136D01*
X030220Y015977D02*
X030479Y015977D01*
X030638Y015819D02*
X030220Y015819D01*
X030220Y015660D02*
X031260Y015660D01*
X031260Y015502D02*
X030341Y015502D01*
X030500Y015343D02*
X031260Y015343D01*
X031373Y015185D02*
X030658Y015185D01*
X030786Y015819D02*
X031260Y015819D01*
X031260Y015977D02*
X030944Y015977D01*
X031103Y016136D02*
X031260Y016136D01*
X031980Y016136D02*
X032692Y016136D01*
X032703Y016125D02*
X032831Y016072D01*
X032969Y016072D01*
X033097Y016125D01*
X033195Y016223D01*
X033248Y016351D01*
X033248Y016489D01*
X033195Y016617D01*
X033180Y016632D01*
X033180Y017752D01*
X033063Y017870D01*
X032950Y017983D01*
X033033Y018065D01*
X033033Y018190D01*
X032925Y018297D01*
X033063Y018435D01*
X033135Y018507D01*
X033177Y018525D01*
X033275Y018623D01*
X033328Y018751D01*
X033328Y018889D01*
X033314Y018923D01*
X033500Y018737D01*
X033500Y013303D01*
X032940Y012743D01*
X032940Y010065D01*
X032570Y010435D01*
X032570Y011635D01*
X032435Y011770D01*
X032250Y011955D01*
X032133Y012072D01*
X032169Y012072D01*
X032297Y012125D01*
X032395Y012223D01*
X032448Y012351D01*
X032448Y012489D01*
X032395Y012617D01*
X032370Y012643D01*
X032456Y012643D01*
X032502Y012655D01*
X032543Y012678D01*
X032576Y012712D01*
X032600Y012753D01*
X032612Y012799D01*
X032612Y013070D01*
X032224Y013070D01*
X032224Y013166D01*
X032128Y013166D01*
X032128Y013593D01*
X031897Y013593D01*
X031851Y013581D01*
X031820Y013563D01*
X031748Y013563D01*
X031748Y013705D01*
X032023Y013980D01*
X032140Y014097D01*
X032140Y014577D01*
X032257Y014460D01*
X032432Y014460D01*
X032432Y014378D01*
X032520Y014290D01*
X033392Y014290D01*
X033480Y014378D01*
X033480Y015054D01*
X033392Y015141D01*
X033282Y015141D01*
X033292Y015179D01*
X033292Y015450D01*
X032904Y015450D01*
X032904Y015546D01*
X032808Y015546D01*
X032808Y015973D01*
X032577Y015973D01*
X032531Y015961D01*
X032500Y015943D01*
X031980Y015943D01*
X031980Y016449D01*
X031698Y016731D01*
X031750Y016783D01*
X031891Y016924D01*
X032057Y017090D01*
X032167Y017200D01*
X032281Y017314D01*
X032316Y017323D01*
X032357Y017347D01*
X032412Y017403D01*
X032333Y017483D01*
X032412Y017403D01*
X032460Y017451D01*
X032460Y016848D01*
X032351Y016848D01*
X032223Y016795D01*
X032125Y016697D01*
X032072Y016569D01*
X032072Y016431D01*
X032125Y016303D01*
X032223Y016205D01*
X032351Y016152D01*
X032489Y016152D01*
X032617Y016205D01*
X032620Y016208D01*
X032703Y016125D01*
X032904Y015973D02*
X032904Y015546D01*
X033292Y015546D01*
X033292Y015817D01*
X033280Y015863D01*
X033256Y015904D01*
X033223Y015937D01*
X033182Y015961D01*
X033136Y015973D01*
X032904Y015973D01*
X032904Y015819D02*
X032808Y015819D01*
X032808Y015660D02*
X032904Y015660D01*
X032904Y015502D02*
X033500Y015502D01*
X033500Y015660D02*
X033292Y015660D01*
X033292Y015819D02*
X033500Y015819D01*
X033500Y015977D02*
X031980Y015977D01*
X031980Y016294D02*
X032134Y016294D01*
X032072Y016453D02*
X031977Y016453D01*
X032089Y016611D02*
X031818Y016611D01*
X031737Y016770D02*
X032197Y016770D01*
X032460Y016928D02*
X031895Y016928D01*
X031750Y016783D02*
X031750Y016783D01*
X032054Y017087D02*
X032460Y017087D01*
X032460Y017245D02*
X032212Y017245D01*
X032167Y017200D02*
X032167Y017200D01*
X032057Y017090D02*
X032057Y017090D01*
X032412Y017404D02*
X032412Y017404D01*
X032413Y017404D02*
X032460Y017404D01*
X032333Y017483D02*
X032333Y017483D01*
X032333Y017483D01*
X033053Y017879D02*
X033500Y017879D01*
X033500Y017721D02*
X033180Y017721D01*
X033180Y017562D02*
X033500Y017562D01*
X033500Y017404D02*
X033180Y017404D01*
X033180Y017245D02*
X033500Y017245D01*
X033500Y017087D02*
X033180Y017087D01*
X033180Y016928D02*
X033500Y016928D01*
X033500Y016770D02*
X033180Y016770D01*
X033198Y016611D02*
X033500Y016611D01*
X033500Y016453D02*
X033248Y016453D01*
X033225Y016294D02*
X033500Y016294D01*
X033500Y016136D02*
X033108Y016136D01*
X033292Y015343D02*
X033500Y015343D01*
X033500Y015185D02*
X033292Y015185D01*
X033480Y015026D02*
X033500Y015026D01*
X033500Y014868D02*
X033480Y014868D01*
X033480Y014709D02*
X033500Y014709D01*
X033500Y014551D02*
X033480Y014551D01*
X033480Y014392D02*
X033500Y014392D01*
X033500Y014234D02*
X032140Y014234D01*
X032140Y014392D02*
X032432Y014392D01*
X032520Y014197D02*
X032432Y014109D01*
X032432Y013593D01*
X032224Y013593D01*
X032224Y013166D01*
X032612Y013166D01*
X032612Y013345D01*
X033392Y013345D01*
X033480Y013433D01*
X033480Y014109D01*
X033392Y014197D01*
X032520Y014197D01*
X032432Y014075D02*
X032118Y014075D01*
X031959Y013917D02*
X032432Y013917D01*
X032432Y013758D02*
X031801Y013758D01*
X031748Y013600D02*
X032432Y013600D01*
X032224Y013441D02*
X032128Y013441D01*
X032128Y013283D02*
X032224Y013283D01*
X032224Y013124D02*
X033321Y013124D01*
X033163Y012966D02*
X032612Y012966D01*
X032612Y012807D02*
X033004Y012807D01*
X032940Y012649D02*
X032478Y012649D01*
X032448Y012490D02*
X032940Y012490D01*
X032940Y012332D02*
X032440Y012332D01*
X032345Y012173D02*
X032940Y012173D01*
X032940Y012015D02*
X032191Y012015D01*
X032349Y011856D02*
X032940Y011856D01*
X032940Y011698D02*
X032508Y011698D01*
X032435Y011770D02*
X032435Y011770D01*
X032340Y011540D02*
X032340Y010340D01*
X034046Y008634D01*
X034340Y008634D01*
X034474Y008500D01*
X035166Y008500D01*
X035501Y008052D02*
X035579Y008052D01*
X035914Y008500D02*
X036074Y008660D01*
X037300Y008660D01*
X037700Y008260D01*
X037700Y007761D01*
X037887Y007574D01*
X037468Y007418D02*
X037446Y007418D01*
X037510Y007260D02*
X037037Y007260D01*
X036974Y007260D02*
X036615Y007260D01*
X036556Y007217D02*
X036407Y007367D01*
X036740Y007700D01*
X037140Y007700D01*
X037140Y007735D02*
X037122Y007735D01*
X037097Y007894D02*
X037079Y007894D01*
X037074Y008052D02*
X036249Y008052D01*
X036320Y008211D02*
X037424Y008211D01*
X037385Y008052D02*
X037470Y008052D01*
X037266Y008369D02*
X036320Y008369D01*
X036755Y007894D02*
X034805Y007894D01*
X034805Y008052D02*
X034831Y008052D01*
X034805Y007735D02*
X036651Y007735D01*
X036530Y007577D02*
X036390Y007577D01*
X036233Y007540D02*
X036407Y007367D01*
X036432Y007418D02*
X036572Y007418D01*
X036475Y007260D02*
X036452Y007260D01*
X036517Y007101D02*
X036657Y007101D01*
X036700Y006943D02*
X036560Y006943D01*
X036602Y006784D02*
X036742Y006784D01*
X036775Y006784D02*
X039063Y006784D01*
X039112Y006626D02*
X036201Y006626D01*
X036181Y006784D02*
X036158Y006784D01*
X036138Y006943D02*
X034570Y006943D01*
X034570Y007101D02*
X036383Y007101D01*
X036053Y007260D02*
X034570Y007260D01*
X034570Y007418D02*
X036014Y007418D01*
X036095Y007577D02*
X034805Y007577D01*
X035060Y007540D02*
X036233Y007540D01*
X037164Y007577D02*
X037182Y007577D01*
X037207Y007418D02*
X037224Y007418D01*
X037079Y007101D02*
X037571Y007101D01*
X037842Y007101D02*
X038965Y007101D01*
X039014Y006943D02*
X037086Y006943D01*
X036243Y006467D02*
X039161Y006467D01*
X039210Y006309D02*
X036286Y006309D01*
X036328Y006150D02*
X039259Y006150D01*
X039308Y005992D02*
X036100Y005992D01*
X036017Y005833D02*
X039383Y005833D01*
X038915Y007260D02*
X038361Y007260D01*
X038390Y007418D02*
X038866Y007418D01*
X038817Y007577D02*
X038347Y007577D01*
X038305Y007735D02*
X038768Y007735D01*
X038719Y007894D02*
X038262Y007894D01*
X038194Y008052D02*
X038670Y008052D01*
X038621Y008211D02*
X037930Y008211D01*
X037916Y008369D02*
X038572Y008369D01*
X038523Y008528D02*
X037758Y008528D01*
X037599Y008686D02*
X038474Y008686D01*
X038425Y008845D02*
X037441Y008845D01*
X037930Y008052D02*
X037950Y008052D01*
X038376Y009003D02*
X036114Y009003D01*
X035961Y009162D02*
X038327Y009162D01*
X035616Y006784D02*
X035323Y006784D01*
X035060Y006500D02*
X034420Y006500D01*
X034340Y006580D01*
X034340Y006164D01*
X034476Y006017D01*
X034944Y005992D02*
X035449Y005992D01*
X035456Y005833D02*
X034986Y005833D01*
X034917Y005675D02*
X035298Y005675D01*
X035139Y005516D02*
X034325Y005516D01*
X035018Y006150D02*
X035406Y006150D01*
X034856Y006784D02*
X034570Y006784D01*
X034340Y006580D02*
X034340Y007886D01*
X033220Y007940D02*
X033220Y008154D01*
X033194Y008180D01*
X033220Y007940D02*
X033194Y007914D01*
X033194Y007413D01*
X032847Y007577D02*
X032823Y007577D01*
X032826Y007735D02*
X032847Y007735D01*
X032010Y007894D02*
X017304Y007894D01*
X017264Y008052D02*
X017055Y008052D01*
X017140Y007940D02*
X016665Y008415D01*
X016591Y008415D01*
X016602Y008425D01*
X017722Y008425D01*
X017654Y008369D02*
X016659Y008369D01*
X016659Y008528D02*
X016524Y008528D01*
X016524Y008686D02*
X016659Y008686D01*
X016659Y008845D02*
X016524Y008845D01*
X017007Y008845D02*
X017297Y008845D01*
X017283Y008831D02*
X017259Y008789D01*
X017247Y008744D01*
X017247Y008492D01*
X017654Y008492D01*
X017654Y008900D01*
X017403Y008900D01*
X017357Y008888D01*
X017316Y008864D01*
X017283Y008831D01*
X017247Y008686D02*
X017067Y008686D01*
X017067Y008528D02*
X017247Y008528D01*
X017247Y008211D02*
X017067Y008211D01*
X017654Y008211D02*
X017790Y008211D01*
X017790Y008369D02*
X020070Y008369D01*
X019866Y008528D02*
X018197Y008528D01*
X018197Y008686D02*
X019734Y008686D01*
X019642Y008845D02*
X018147Y008845D01*
X017790Y008845D02*
X017654Y008845D01*
X017654Y008686D02*
X017790Y008686D01*
X017790Y008528D02*
X017654Y008528D01*
X017654Y008052D02*
X017790Y008052D01*
X017277Y009479D02*
X017037Y009479D01*
X017037Y009637D02*
X017277Y009637D01*
X017277Y009796D02*
X017037Y009796D01*
X017037Y009954D02*
X017277Y009954D01*
X017277Y010113D02*
X017037Y010113D01*
X017062Y010271D02*
X016955Y010271D01*
X016591Y010691D02*
X016591Y009793D01*
X016146Y009796D02*
X016120Y009796D01*
X016120Y009954D02*
X016146Y009954D01*
X016146Y010113D02*
X016120Y010113D01*
X016120Y010271D02*
X016314Y010271D01*
X016228Y010430D02*
X016120Y010430D01*
X016120Y010588D02*
X016228Y010588D01*
X016228Y010747D02*
X016120Y010747D01*
X016120Y010905D02*
X016228Y010905D01*
X016228Y011064D02*
X016120Y011064D01*
X016120Y011222D02*
X018379Y011222D01*
X018221Y011064D02*
X017788Y011064D01*
X018538Y011381D02*
X016633Y011381D01*
X016178Y011691D02*
X019308Y011691D01*
X019308Y011948D01*
X019620Y012260D01*
X020058Y012260D01*
X020102Y012216D01*
X020102Y012919D01*
X020098Y012924D01*
X019653Y012966D02*
X016120Y012966D01*
X016226Y013027D02*
X016507Y013027D01*
X016552Y013039D01*
X016594Y013063D01*
X016627Y013096D01*
X016651Y013137D01*
X016663Y013183D01*
X016663Y013415D01*
X016226Y013415D01*
X016226Y013027D01*
X016226Y013124D02*
X016130Y013124D01*
X016130Y013283D02*
X016226Y013283D01*
X016226Y013441D02*
X019260Y013441D01*
X019260Y013415D02*
X018823Y013415D01*
X018823Y013183D01*
X018835Y013137D01*
X018859Y013096D01*
X018892Y013063D01*
X018933Y013039D01*
X018979Y013027D01*
X019260Y013027D01*
X019260Y013415D01*
X019308Y013463D02*
X016178Y013463D01*
X016823Y013463D01*
X017300Y013940D01*
X017300Y016040D01*
X017343Y017050D02*
X017201Y017050D01*
X017201Y017789D01*
X017348Y017789D01*
X017343Y017774D01*
X017343Y017473D01*
X017761Y017473D01*
X017761Y017318D01*
X017343Y017318D01*
X017343Y017050D01*
X017343Y017087D02*
X017201Y017087D01*
X017201Y017245D02*
X017343Y017245D01*
X017201Y017404D02*
X017761Y017404D01*
X017343Y017562D02*
X017201Y017562D01*
X017201Y017721D02*
X017343Y017721D01*
X018279Y017879D02*
X020408Y017879D01*
X020173Y017721D02*
X020001Y017721D01*
X020001Y017562D02*
X020173Y017562D01*
X020173Y017404D02*
X020001Y017404D01*
X020001Y017245D02*
X020173Y017245D01*
X020173Y017087D02*
X020001Y017087D01*
X020001Y016928D02*
X020173Y016928D01*
X020244Y016770D02*
X019931Y016770D01*
X019774Y016646D02*
X019740Y016679D01*
X019699Y016703D01*
X019653Y016715D01*
X019372Y016715D01*
X019372Y016327D01*
X019810Y016327D01*
X019810Y016559D01*
X019797Y016605D01*
X019774Y016646D01*
X019794Y016611D02*
X021848Y016611D01*
X021690Y016453D02*
X019810Y016453D01*
X019372Y016453D02*
X019277Y016453D01*
X019277Y016611D02*
X019372Y016611D01*
X019141Y016770D02*
X019015Y016770D01*
X018681Y017087D02*
X018333Y017087D01*
X018333Y017245D02*
X018840Y017245D01*
X019216Y017296D02*
X019536Y017296D01*
X020638Y017296D02*
X020638Y018616D01*
X020567Y018688D01*
X020958Y018513D02*
X021282Y018513D01*
X021440Y018355D02*
X020868Y018355D01*
X020868Y018196D02*
X021599Y018196D01*
X021123Y018672D02*
X021012Y018672D01*
X021034Y018830D02*
X021070Y018830D01*
X021070Y018989D02*
X021042Y018989D01*
X021042Y019147D02*
X021070Y019147D01*
X021144Y019456D02*
X020567Y019456D01*
X020567Y019200D02*
X020567Y019200D01*
X020868Y018038D02*
X022795Y018038D01*
X022636Y017879D02*
X020868Y017879D01*
X021103Y017721D02*
X022478Y017721D01*
X022319Y017562D02*
X021103Y017562D01*
X021103Y017404D02*
X022161Y017404D01*
X021633Y017245D02*
X021103Y017245D01*
X021103Y017087D02*
X021527Y017087D01*
X021512Y016928D02*
X021103Y016928D01*
X021033Y016770D02*
X021578Y016770D01*
X021214Y015977D02*
X020798Y015977D01*
X020798Y015026D02*
X027974Y015026D01*
X027912Y014868D02*
X020798Y014868D01*
X020798Y014709D02*
X027929Y014709D01*
X028037Y014551D02*
X020754Y014551D01*
X020561Y013268D02*
X020543Y013237D01*
X020543Y013124D01*
X020543Y012724D02*
X025994Y012724D01*
X026152Y012565D01*
X026152Y012431D01*
X026205Y012303D01*
X026303Y012205D01*
X026431Y012152D01*
X026569Y012152D01*
X026640Y012181D01*
X026651Y012138D01*
X026669Y012107D01*
X026669Y011698D01*
X020567Y011698D01*
X020567Y011786D01*
X020511Y011842D01*
X020567Y011898D01*
X020567Y012534D01*
X020519Y012582D01*
X020543Y012606D01*
X020543Y012724D01*
X020543Y012649D02*
X026069Y012649D01*
X026152Y012490D02*
X020567Y012490D01*
X020567Y012332D02*
X026193Y012332D01*
X026380Y012173D02*
X020567Y012173D01*
X020567Y012015D02*
X026669Y012015D01*
X026669Y011856D02*
X020525Y011856D01*
X020102Y011468D02*
X026908Y011468D01*
X027300Y011860D01*
X027620Y011860D01*
X027700Y011860D01*
X027968Y011856D02*
X028134Y011856D01*
X028107Y012015D02*
X027933Y012015D01*
X028012Y012173D02*
X027774Y012173D01*
X027930Y012332D02*
X027589Y012332D01*
X027589Y012649D02*
X027591Y012649D01*
X027809Y012649D02*
X027960Y012649D01*
X027937Y012490D02*
X027162Y012490D01*
X027162Y012649D02*
X027066Y012649D01*
X027066Y012807D02*
X027162Y012807D01*
X027352Y012966D02*
X026317Y012966D01*
X026620Y012173D02*
X026642Y012173D01*
X027114Y011794D02*
X027180Y011860D01*
X027300Y011860D01*
X027146Y011381D02*
X028609Y011381D01*
X028609Y011539D02*
X027755Y011539D01*
X027929Y011698D02*
X028609Y011698D01*
X028543Y011833D02*
X028543Y011833D01*
X028346Y011833D02*
X028346Y011833D01*
X028346Y012068D02*
X028501Y012068D01*
X028543Y012068D01*
X028543Y012068D01*
X028346Y012068D01*
X028346Y012068D01*
X028543Y012068D02*
X028698Y012068D01*
X028740Y012068D01*
X028740Y012068D01*
X028937Y012068D01*
X029134Y012068D01*
X029134Y012068D01*
X029373Y012068D01*
X029373Y011926D01*
X029372Y011922D01*
X029401Y011905D01*
X029580Y011905D01*
X029580Y012177D01*
X029574Y012183D01*
X029441Y012183D01*
X029432Y012174D01*
X029373Y012174D01*
X029373Y012068D01*
X029134Y012068D01*
X029134Y012068D01*
X028937Y012068D01*
X028937Y012068D01*
X028937Y012068D01*
X028740Y012068D01*
X028740Y012068D01*
X028543Y012068D01*
X028543Y012068D01*
X028543Y012303D02*
X028543Y012303D01*
X028543Y012366D01*
X028526Y012366D01*
X028526Y012383D01*
X028421Y012383D01*
X028526Y012383D01*
X028526Y012466D01*
X028514Y012512D01*
X028496Y012542D01*
X028496Y012794D01*
X028543Y012794D01*
X028543Y012899D01*
X028543Y012899D01*
X028543Y012794D01*
X028626Y012794D01*
X028672Y012806D01*
X028702Y012824D01*
X028984Y012824D01*
X028984Y012739D01*
X028966Y012709D01*
X028954Y012663D01*
X028954Y012580D01*
X028954Y012497D01*
X028966Y012451D01*
X028984Y012421D01*
X028984Y012366D01*
X028937Y012366D01*
X028937Y012303D01*
X028937Y012303D01*
X028937Y012303D01*
X028937Y012366D01*
X028854Y012366D01*
X028838Y012362D01*
X028823Y012366D01*
X028740Y012366D01*
X028740Y012303D01*
X028740Y012303D01*
X028740Y012303D01*
X028740Y012366D01*
X028657Y012366D01*
X028642Y012362D01*
X028626Y012366D01*
X028543Y012366D01*
X028543Y012303D01*
X028543Y012303D01*
X028543Y012332D02*
X028543Y012332D01*
X028421Y012383D02*
X028421Y012383D01*
X028520Y012490D02*
X028956Y012490D01*
X028954Y012580D02*
X029059Y012580D01*
X029059Y012580D01*
X029059Y012580D01*
X028954Y012580D01*
X028954Y012649D02*
X028496Y012649D01*
X028543Y012807D02*
X028543Y012807D01*
X028543Y012899D02*
X028543Y012899D01*
X028673Y012807D02*
X028984Y012807D01*
X028937Y012332D02*
X028937Y012332D01*
X028740Y012332D02*
X028740Y012332D01*
X029373Y012173D02*
X029580Y012173D01*
X029580Y012015D02*
X029373Y012015D01*
X029093Y011381D02*
X028997Y011381D01*
X028997Y011222D02*
X029093Y011222D01*
X029093Y011064D02*
X028997Y011064D01*
X028640Y011064D02*
X020481Y011064D01*
X020567Y011222D02*
X028609Y011222D01*
X027100Y010113D02*
X021175Y010113D01*
X021356Y009954D02*
X026920Y009954D01*
X026801Y009796D02*
X021474Y009796D01*
X021560Y009637D02*
X026715Y009637D01*
X026673Y009479D02*
X021603Y009479D01*
X021626Y009320D02*
X026650Y009320D01*
X026650Y009162D02*
X021626Y009162D01*
X021594Y009003D02*
X026682Y009003D01*
X026729Y008845D02*
X021547Y008845D01*
X021455Y008686D02*
X026820Y008686D01*
X026952Y008528D02*
X021323Y008528D01*
X021119Y008369D02*
X027157Y008369D01*
X030900Y011860D02*
X032020Y011860D01*
X032340Y011540D01*
X032570Y011539D02*
X032940Y011539D01*
X032940Y011381D02*
X032570Y011381D01*
X032570Y011222D02*
X032940Y011222D01*
X032940Y011064D02*
X032570Y011064D01*
X032570Y010905D02*
X032940Y010905D01*
X032940Y010747D02*
X032570Y010747D01*
X032570Y010588D02*
X032940Y010588D01*
X032940Y010430D02*
X032576Y010430D01*
X032734Y010271D02*
X032940Y010271D01*
X032940Y010113D02*
X032893Y010113D01*
X032612Y013283D02*
X033480Y013283D01*
X033480Y013441D02*
X033500Y013441D01*
X033500Y013600D02*
X033480Y013600D01*
X033480Y013758D02*
X033500Y013758D01*
X033500Y013917D02*
X033480Y013917D01*
X033480Y014075D02*
X033500Y014075D01*
X032167Y014551D02*
X032140Y014551D01*
X032140Y014577D02*
X032140Y014577D01*
X033005Y018038D02*
X033500Y018038D01*
X033500Y018196D02*
X033026Y018196D01*
X032982Y018355D02*
X033500Y018355D01*
X033500Y018513D02*
X033149Y018513D01*
X033295Y018672D02*
X033500Y018672D01*
X033407Y018830D02*
X033328Y018830D01*
X028426Y019823D02*
X028426Y019823D01*
X027283Y019940D02*
X026913Y019940D01*
X027003Y019781D02*
X027106Y019781D01*
X027248Y019781D02*
X027248Y019781D01*
X027252Y019777D02*
X027252Y019777D01*
X027252Y019777D01*
X026106Y020415D02*
X026106Y020415D01*
X026106Y020574D02*
X026106Y020574D01*
X026106Y020732D02*
X026106Y020732D01*
X027540Y023110D02*
X027562Y023110D01*
X027512Y023268D02*
X027382Y023268D01*
X027536Y023427D02*
X027223Y023427D01*
X023339Y022951D02*
X023052Y022951D01*
X022562Y022476D02*
X022368Y022476D01*
X022341Y022634D02*
X022403Y022634D01*
X022245Y022793D02*
X022220Y022793D01*
X022086Y022951D02*
X021894Y022951D01*
X021928Y023110D02*
X021736Y023110D01*
X021769Y023268D02*
X021577Y023268D01*
X021611Y023427D02*
X021419Y023427D01*
X021452Y023585D02*
X021260Y023585D01*
X021294Y023744D02*
X021102Y023744D01*
X021260Y023902D02*
X020943Y023902D01*
X020785Y024061D02*
X021260Y024061D01*
X021260Y024219D02*
X020856Y024219D01*
X020858Y024378D02*
X021260Y024378D01*
X020500Y024020D02*
X022020Y022500D01*
X021935Y022159D02*
X021254Y022159D01*
X021561Y022634D02*
X019250Y022634D01*
X019324Y022793D02*
X021402Y022793D01*
X021244Y022951D02*
X019324Y022951D01*
X018631Y023268D02*
X018476Y023268D01*
X018476Y023110D02*
X017561Y023110D01*
X017561Y023268D02*
X017783Y023268D01*
X017783Y023427D02*
X017561Y023427D01*
X017598Y023585D02*
X017918Y023585D01*
X017650Y023744D02*
X020451Y023744D01*
X018631Y023585D02*
X018476Y023585D01*
X018476Y023427D02*
X018631Y023427D01*
X017783Y022951D02*
X017561Y022951D01*
X017561Y022793D02*
X017783Y022793D01*
X017578Y022634D02*
X017477Y022634D01*
X017448Y022476D02*
X016627Y022476D01*
X016627Y022317D02*
X017419Y022317D01*
X017464Y022159D02*
X016627Y022159D01*
X016627Y022000D02*
X017527Y022000D01*
X017370Y021842D02*
X016627Y021842D01*
X016580Y023096D02*
X016100Y023576D01*
X016100Y023700D01*
X019207Y021525D02*
X019367Y021525D01*
X019367Y021366D02*
X019207Y021366D01*
X019207Y021208D02*
X019367Y021208D01*
X019367Y021049D02*
X019207Y021049D01*
X019207Y019940D02*
X019367Y019940D01*
X020567Y020479D02*
X020567Y020479D01*
X022105Y022159D02*
X022792Y022159D01*
X022720Y022317D02*
X022321Y022317D01*
X019539Y027865D02*
X019452Y027865D01*
X019452Y028023D02*
X019698Y028023D01*
X019710Y028182D02*
X019452Y028182D01*
X019452Y028340D02*
X019710Y028340D01*
X019689Y028499D02*
X019452Y028499D01*
X020282Y028657D02*
X020356Y028657D01*
X020106Y029450D02*
X017325Y029450D01*
X017170Y029608D02*
X019886Y029608D01*
X019745Y029767D02*
X018076Y029767D01*
X018195Y029925D02*
X019654Y029925D01*
X019601Y030084D02*
X018238Y030084D01*
X018238Y030242D02*
X019563Y030242D01*
X017788Y030242D02*
X017768Y030242D01*
X017768Y030084D02*
X017788Y030084D01*
X017788Y029925D02*
X017768Y029925D01*
X017768Y029767D02*
X017788Y029767D01*
X017480Y029767D02*
X017170Y029767D01*
X017170Y029925D02*
X017360Y029925D01*
X017318Y030084D02*
X017208Y030084D01*
X017208Y030242D02*
X017318Y030242D01*
X017768Y030559D02*
X017788Y030559D01*
X017788Y030718D02*
X017768Y030718D01*
X017768Y030876D02*
X017788Y030876D01*
X017788Y031035D02*
X017768Y031035D01*
X016243Y016611D02*
X016147Y016611D01*
X016147Y016453D02*
X016243Y016453D01*
X016243Y016136D02*
X016147Y016136D01*
X016147Y015977D02*
X016243Y015977D01*
X016120Y015185D02*
X016692Y015185D01*
X016575Y015026D02*
X016120Y015026D01*
X016675Y014392D02*
X018869Y014392D01*
X018869Y014234D02*
X016650Y014234D01*
X016552Y013886D02*
X016507Y013899D01*
X016226Y013899D01*
X016226Y013511D01*
X016663Y013511D01*
X016663Y013742D01*
X016651Y013788D01*
X016627Y013829D01*
X016594Y013863D01*
X016552Y013886D01*
X016659Y013758D02*
X018827Y013758D01*
X018823Y013600D02*
X016663Y013600D01*
X016663Y013283D02*
X018823Y013283D01*
X018843Y013124D02*
X016643Y013124D01*
X016120Y012807D02*
X019653Y012807D01*
X019653Y012649D02*
X016120Y012649D01*
X016120Y012173D02*
X019208Y012173D01*
X019390Y012355D02*
X019525Y012490D01*
X019637Y012490D01*
X019356Y013124D02*
X019260Y013124D01*
X019260Y013283D02*
X019356Y013283D01*
X018869Y014551D02*
X016833Y014551D01*
X017198Y014709D02*
X018869Y014709D01*
X018911Y014868D02*
X017248Y014868D01*
X016226Y013758D02*
X016130Y013758D01*
X016130Y013600D02*
X016226Y013600D01*
X016628Y012015D02*
X018858Y012015D01*
X016634Y010734D02*
X016591Y010691D01*
X016146Y009637D02*
X016120Y009637D01*
X016120Y009479D02*
X016146Y009479D01*
X027420Y013297D02*
X027420Y013297D01*
X032820Y006547D02*
X032820Y005780D01*
X033460Y005140D01*
X048900Y012020D02*
X049357Y011563D01*
X049357Y011289D01*
X049357Y009917D02*
X049357Y009357D01*
X048980Y008980D01*
X049301Y008845D02*
X049796Y008845D01*
X049796Y009003D02*
X049328Y009003D01*
X049587Y009262D01*
X049587Y009624D01*
X049676Y009624D01*
X049731Y009680D01*
X049787Y009624D01*
X049796Y009624D01*
X049796Y007634D01*
X049707Y007634D01*
X049651Y007578D01*
X049596Y007634D01*
X049500Y007634D01*
X049500Y007808D01*
X049595Y007903D01*
X049648Y008031D01*
X049648Y008169D01*
X049595Y008297D01*
X049497Y008395D01*
X049369Y008448D01*
X049231Y008448D01*
X049103Y008395D01*
X049020Y008312D01*
X049020Y008337D01*
X049180Y008497D01*
X049180Y008688D01*
X049275Y008783D01*
X049328Y008911D01*
X049328Y009003D01*
X049487Y009162D02*
X049796Y009162D01*
X049796Y009320D02*
X049587Y009320D01*
X049587Y009479D02*
X049796Y009479D01*
X049774Y009637D02*
X049689Y009637D01*
X050580Y008580D02*
X050900Y008900D01*
X050900Y012260D01*
X050580Y012260D01*
X050900Y012260D02*
X050900Y016340D01*
X051130Y016294D02*
X051548Y016294D01*
X051546Y016136D02*
X051130Y016136D01*
X051130Y015977D02*
X051544Y015977D01*
X051536Y015819D02*
X051130Y015819D01*
X051130Y015660D02*
X051528Y015660D01*
X051520Y015502D02*
X051130Y015502D01*
X051130Y015343D02*
X051512Y015343D01*
X051504Y015185D02*
X051130Y015185D01*
X051130Y015026D02*
X051495Y015026D01*
X051487Y014868D02*
X051130Y014868D01*
X051130Y014709D02*
X051479Y014709D01*
X051471Y014551D02*
X051130Y014551D01*
X051130Y014392D02*
X051463Y014392D01*
X051455Y014234D02*
X051130Y014234D01*
X051130Y014075D02*
X051447Y014075D01*
X051439Y013917D02*
X051130Y013917D01*
X051130Y013758D02*
X051431Y013758D01*
X051423Y013600D02*
X051130Y013600D01*
X051130Y013441D02*
X051415Y013441D01*
X051407Y013283D02*
X051130Y013283D01*
X051130Y013124D02*
X051399Y013124D01*
X051391Y012966D02*
X051130Y012966D01*
X051130Y012807D02*
X051383Y012807D01*
X051375Y012649D02*
X051130Y012649D01*
X051130Y012490D02*
X051367Y012490D01*
X051359Y012332D02*
X051130Y012332D01*
X051130Y012173D02*
X051348Y012173D01*
X051334Y012015D02*
X051130Y012015D01*
X051130Y011856D02*
X051320Y011856D01*
X051306Y011698D02*
X051130Y011698D01*
X051130Y011539D02*
X051292Y011539D01*
X051278Y011381D02*
X051130Y011381D01*
X051130Y011222D02*
X051264Y011222D01*
X051250Y011064D02*
X051130Y011064D01*
X051130Y010905D02*
X051236Y010905D01*
X051222Y010747D02*
X051130Y010747D01*
X051130Y010588D02*
X051207Y010588D01*
X051193Y010430D02*
X051130Y010430D01*
X051130Y010271D02*
X051179Y010271D01*
X051165Y010113D02*
X051130Y010113D01*
X051130Y009954D02*
X051151Y009954D01*
X051137Y009796D02*
X051130Y009796D01*
X050580Y008580D02*
X050420Y008580D01*
X049796Y008528D02*
X049180Y008528D01*
X049180Y008686D02*
X049796Y008686D01*
X049796Y008369D02*
X049523Y008369D01*
X049631Y008211D02*
X049796Y008211D01*
X049796Y008052D02*
X049648Y008052D01*
X049586Y007894D02*
X049796Y007894D01*
X049796Y007735D02*
X049500Y007735D01*
X049077Y008369D02*
X049052Y008369D01*
X051130Y016453D02*
X051550Y016453D01*
X051552Y016611D02*
X051130Y016611D01*
X051130Y016770D02*
X051554Y016770D01*
X051556Y016928D02*
X051130Y016928D01*
X051130Y017087D02*
X051558Y017087D01*
X051560Y017245D02*
X051130Y017245D01*
X051130Y017404D02*
X051563Y017404D01*
X051565Y017562D02*
X051130Y017562D01*
X051130Y017721D02*
X051567Y017721D01*
X051569Y017879D02*
X051130Y017879D01*
X051130Y018038D02*
X051571Y018038D01*
X051573Y018196D02*
X051130Y018196D01*
X051130Y018355D02*
X051575Y018355D01*
X051577Y018513D02*
X051130Y018513D01*
X051130Y018672D02*
X051579Y018672D01*
X051581Y018830D02*
X051130Y018830D01*
X051130Y018989D02*
X051583Y018989D01*
X051585Y019147D02*
X051130Y019147D01*
X051130Y019306D02*
X051587Y019306D01*
X051589Y019464D02*
X051130Y019464D01*
X051130Y019623D02*
X051591Y019623D01*
X051592Y019781D02*
X051130Y019781D01*
X051130Y019940D02*
X051588Y019940D01*
X051584Y020098D02*
X051130Y020098D01*
X051130Y020257D02*
X051580Y020257D01*
X051576Y020415D02*
X051130Y020415D01*
X051130Y020574D02*
X051572Y020574D01*
X051568Y020732D02*
X051130Y020732D01*
X047685Y018038D02*
X047635Y018038D01*
D39*
X047940Y017140D03*
X049060Y017060D03*
X048980Y016100D03*
X050500Y016340D03*
X048900Y019460D03*
X048340Y020260D03*
X050660Y020100D03*
X051300Y022100D03*
X050500Y023140D03*
X050580Y023940D03*
X049620Y023940D03*
X049460Y023140D03*
X049140Y022580D03*
X049620Y026580D03*
X048980Y027460D03*
X049460Y027860D03*
X050580Y027540D03*
X049140Y030500D03*
X049220Y031140D03*
X049380Y031700D03*
X050420Y031460D03*
X048820Y033460D03*
X049140Y034180D03*
X049540Y034500D03*
X050260Y034260D03*
X048420Y034180D03*
X047940Y034180D03*
X037300Y032820D03*
X035380Y031860D03*
X031780Y029220D03*
X029860Y029220D03*
X030980Y027060D03*
X031220Y025060D03*
X031860Y023940D03*
X031860Y023140D03*
X031060Y023220D03*
X030340Y023220D03*
X028900Y022580D03*
X028500Y022900D03*
X027860Y023300D03*
X026660Y022900D03*
X026580Y021860D03*
X026100Y021700D03*
X025940Y021140D03*
X027300Y021540D03*
X027780Y021220D03*
X026660Y019700D03*
X026580Y018900D03*
X026820Y018420D03*
X028420Y018420D03*
X028740Y018900D03*
X028900Y017780D03*
X030180Y017300D03*
X030500Y017860D03*
X031220Y018020D03*
X032020Y018900D03*
X032980Y018820D03*
X033140Y019380D03*
X033460Y019860D03*
X033060Y020500D03*
X032100Y020900D03*
X032500Y021380D03*
X032900Y021860D03*
X033380Y022820D03*
X031140Y019700D03*
X030100Y020740D03*
X029540Y020340D03*
X029060Y024260D03*
X024100Y023220D03*
X023540Y022660D03*
X023140Y022180D03*
X022020Y022500D03*
X020980Y021940D03*
X020287Y022816D03*
X019647Y022816D03*
X019647Y023456D03*
X020287Y023456D03*
X021060Y025220D03*
X018820Y025300D03*
X016100Y023700D03*
X017087Y022256D03*
X017767Y022336D03*
X018247Y021936D03*
X019287Y021056D03*
X019287Y020576D03*
X019287Y020096D03*
X019287Y019616D03*
X019287Y019136D03*
X020500Y016500D03*
X021860Y016980D03*
X023460Y017380D03*
X023860Y016820D03*
X024740Y016660D03*
X025460Y016820D03*
X025540Y016260D03*
X025460Y015540D03*
X027060Y015540D03*
X027860Y015380D03*
X028260Y014820D03*
X029220Y014740D03*
X030100Y014900D03*
X030740Y015460D03*
X030020Y014020D03*
X029460Y013540D03*
X027860Y013780D03*
X027700Y012980D03*
X026900Y013220D03*
X026500Y012500D03*
X027620Y011860D03*
X026180Y009940D03*
X029860Y010100D03*
X030900Y011860D03*
X032100Y012420D03*
X032420Y008980D03*
X033780Y007060D03*
X035060Y007540D03*
X038740Y006180D03*
X047140Y005620D03*
X048820Y004980D03*
X049380Y005140D03*
X049300Y008100D03*
X049540Y008820D03*
X048980Y008980D03*
X050420Y008580D03*
X050580Y012260D03*
X048980Y013140D03*
X048900Y012020D03*
X032900Y016420D03*
X032420Y016500D03*
X029860Y008180D03*
X022020Y009860D03*
X020980Y012260D03*
X020660Y013540D03*
X020100Y014260D03*
X022260Y014180D03*
X018340Y012740D03*
X016900Y014900D03*
X017460Y015860D03*
X018340Y009940D03*
X017140Y007940D03*
X020500Y028340D03*
X019940Y028740D03*
X019220Y029860D03*
X018580Y029860D03*
X018580Y030980D03*
X019220Y030980D03*
X022180Y030660D03*
X022180Y031300D03*
X026100Y031300D03*
X026820Y031300D03*
X026820Y030580D03*
X026100Y030580D03*
X027380Y028420D03*
D40*
X029680Y028100D02*
X029680Y024080D01*
X028500Y022900D01*
X028900Y022580D02*
X029380Y023060D01*
X029380Y023380D01*
X030020Y024020D01*
X030020Y026900D01*
X030680Y027560D01*
X030680Y028100D01*
X032100Y026820D02*
X032100Y024180D01*
X031860Y023940D01*
X031700Y023540D02*
X031460Y023300D01*
X031460Y020990D01*
X031246Y020776D01*
X031380Y020641D02*
X031780Y021041D01*
X031780Y021780D01*
X032820Y022820D01*
X033380Y022820D01*
X032900Y021860D02*
X032900Y021060D01*
X032740Y020900D01*
X032740Y020601D01*
X032080Y019941D01*
X032221Y019800D02*
X032921Y020500D01*
X033060Y020500D01*
X032500Y020644D02*
X032500Y021380D01*
X032100Y020900D02*
X032100Y020513D01*
X031804Y020217D01*
X031939Y020083D02*
X032500Y020644D01*
X033116Y019860D02*
X033460Y019860D01*
X033116Y019860D02*
X032639Y019383D01*
X032356Y019666D02*
X032020Y019330D01*
X032020Y018900D01*
X032020Y018740D01*
X031860Y018580D01*
X031860Y018238D01*
X032221Y017877D01*
X032356Y018011D02*
X032660Y017707D01*
X032660Y016740D01*
X032420Y016500D01*
X032020Y016740D02*
X032020Y016180D01*
X032180Y016020D01*
X032660Y016020D01*
X032856Y015824D01*
X032856Y015498D01*
X033262Y015498D01*
X033460Y015300D01*
X033460Y013300D01*
X033300Y013140D01*
X032199Y013140D01*
X032176Y013118D01*
X032100Y012420D02*
X031140Y012420D01*
X030660Y012900D01*
X030660Y014900D01*
X030020Y015540D01*
X030020Y016420D01*
X030180Y016580D01*
X030449Y016580D01*
X030687Y016342D01*
X031104Y016759D02*
X031460Y016404D01*
X031460Y015380D01*
X031940Y014900D01*
X031940Y014180D01*
X031531Y013771D01*
X031224Y013771D01*
X031507Y013488D01*
X031507Y013118D01*
X030374Y013586D02*
X030134Y013602D01*
X030134Y013906D01*
X030020Y014020D01*
X029460Y013540D02*
X029266Y013540D01*
X029300Y013380D02*
X029260Y013340D01*
X029134Y013214D01*
X029134Y013092D01*
X029252Y012974D01*
X029252Y012777D01*
X029252Y012580D02*
X028980Y012580D01*
X028937Y012537D01*
X028937Y012260D01*
X029129Y012068D01*
X029134Y012068D01*
X028937Y012068D02*
X028937Y012260D01*
X028740Y012143D02*
X028543Y012340D01*
X028346Y012143D01*
X028346Y012068D01*
X028543Y012068D02*
X028543Y012340D01*
X028543Y012420D01*
X028506Y012383D01*
X028228Y012383D01*
X027897Y012383D01*
X027860Y012420D01*
X027700Y012980D02*
X027812Y013092D01*
X028346Y013092D01*
X028543Y013092D02*
X028543Y012580D01*
X028980Y012580D01*
X029252Y012383D02*
X029657Y012383D01*
X029780Y012260D01*
X029780Y011525D01*
X029715Y011460D01*
X030340Y012260D02*
X030250Y012350D01*
X030100Y012820D02*
X030100Y012820D01*
X030134Y012854D01*
X028937Y013092D02*
X028937Y013503D01*
X028820Y013620D01*
X028020Y013620D01*
X027860Y013780D01*
X027540Y014020D02*
X027540Y013460D01*
X027620Y013380D01*
X028660Y013380D01*
X028740Y013300D01*
X028740Y013092D01*
X028543Y012580D02*
X028543Y012420D01*
X028740Y012143D02*
X028740Y012068D01*
X028518Y014074D02*
X028206Y014074D01*
X028100Y014180D01*
X027700Y014180D01*
X027540Y014020D01*
X028518Y014074D02*
X028518Y014740D01*
X028438Y014820D01*
X028260Y014820D01*
X028518Y014740D02*
X028518Y015282D01*
X028340Y015460D01*
X028340Y016484D01*
X028757Y016901D01*
X028622Y017035D02*
X027860Y016273D01*
X027860Y015380D01*
X027324Y016020D02*
X028481Y017177D01*
X028339Y017318D02*
X027281Y016260D01*
X025540Y016260D01*
X025940Y016020D02*
X027324Y016020D01*
X027007Y016820D02*
X025460Y016820D01*
X024980Y017140D02*
X027044Y017140D01*
X027781Y017877D01*
X027922Y017735D02*
X027007Y016820D01*
X027053Y017700D02*
X027213Y017860D01*
X027256Y017904D01*
X027505Y018152D01*
X027053Y017700D02*
X023940Y017700D01*
X023620Y017380D01*
X023460Y017380D01*
X023460Y017940D02*
X026340Y017940D01*
X026820Y018420D01*
X026580Y018900D02*
X025860Y018180D01*
X023220Y018180D01*
X022020Y016980D01*
X021860Y016980D01*
X021180Y015660D02*
X020333Y015660D01*
X021180Y015660D02*
X023460Y017940D01*
X024740Y016900D02*
X024980Y017140D01*
X024740Y016900D02*
X024740Y016660D01*
X025460Y015540D02*
X025940Y016020D01*
X028580Y016020D02*
X029700Y014900D01*
X030100Y014900D01*
X029315Y016342D02*
X029700Y016727D01*
X029700Y017140D01*
X028898Y016759D02*
X028580Y016441D01*
X028580Y016020D01*
X030500Y017860D02*
X030765Y017595D01*
X030820Y017595D01*
X031380Y017035D01*
X031246Y016901D02*
X031780Y016366D01*
X031780Y015700D01*
X031982Y015498D01*
X032187Y015498D01*
X032187Y014813D01*
X032340Y014660D01*
X032900Y014660D01*
X032956Y014716D01*
X032900Y016420D02*
X032980Y016500D01*
X032980Y017670D01*
X032497Y018152D01*
X032639Y018294D02*
X032980Y018635D01*
X032980Y018820D01*
X033140Y019380D02*
X033700Y018820D01*
X033700Y013220D01*
X033140Y012660D01*
X033140Y009860D01*
X033940Y009060D01*
X035780Y009060D01*
X035914Y008926D01*
X035914Y008500D01*
X033194Y008606D02*
X033194Y008180D01*
X033194Y008606D02*
X032980Y008820D01*
X032500Y008820D01*
X032420Y008980D01*
X031593Y009755D02*
X031433Y009595D01*
X031593Y009755D02*
X031593Y010233D01*
X031860Y010500D01*
X031860Y011078D01*
X031816Y011122D01*
X026500Y012500D02*
X026076Y012924D01*
X020098Y012924D01*
X020100Y014260D02*
X020333Y014493D01*
X020333Y014912D01*
X016900Y014900D02*
X016508Y014508D01*
X016195Y014508D01*
X018660Y011220D02*
X019854Y011220D01*
X020102Y011468D01*
X018660Y011220D02*
X018174Y010734D01*
X017382Y010734D01*
X017859Y009940D02*
X017722Y009803D01*
X017859Y009940D02*
X018340Y009940D01*
X017427Y018316D02*
X017038Y018316D01*
X017007Y018284D01*
X017427Y018316D02*
X017527Y018416D01*
X017527Y019416D01*
X017567Y019456D01*
X018008Y019456D01*
X018008Y019712D02*
X017332Y019712D01*
X017007Y019387D01*
X017663Y020479D02*
X017527Y020616D01*
X017527Y020716D01*
X017327Y020916D01*
X017127Y020916D01*
X017027Y021016D01*
X017027Y021327D01*
X016987Y021367D01*
X017527Y021316D02*
X017527Y021716D01*
X017727Y021916D01*
X017727Y022296D01*
X017767Y022336D01*
X018247Y021936D02*
X018008Y021696D01*
X018008Y021503D01*
X018008Y021247D02*
X017596Y021247D01*
X017527Y021316D01*
X017663Y020479D02*
X018008Y020479D01*
X019127Y019936D02*
X019287Y020096D01*
X019287Y020576D01*
X019287Y021056D01*
X020567Y020991D02*
X021551Y020991D01*
X022020Y021460D01*
X024100Y021460D01*
X025620Y022980D01*
X026580Y022980D01*
X026660Y022900D01*
X027067Y023300D02*
X029174Y021193D01*
X029039Y021059D02*
X029540Y020558D01*
X029540Y020340D01*
X030100Y020740D02*
X030100Y020832D01*
X029457Y021476D01*
X029315Y021334D02*
X027860Y022790D01*
X027860Y023300D01*
X027315Y022500D02*
X028898Y020917D01*
X028757Y020776D02*
X027352Y022180D01*
X025700Y022180D01*
X025319Y021799D01*
X025319Y020319D01*
X024531Y020319D02*
X024531Y021491D01*
X025540Y022500D01*
X027315Y022500D01*
X027067Y023300D02*
X025540Y023300D01*
X024020Y021780D01*
X021940Y021780D01*
X021407Y021247D01*
X020567Y021247D01*
X020567Y021503D02*
X020567Y021527D01*
X020980Y021940D01*
X021460Y023860D02*
X023140Y022180D01*
X023060Y022660D02*
X023540Y022660D01*
X023060Y022660D02*
X021700Y024020D01*
X021700Y025940D01*
X020778Y026862D01*
X020692Y026862D01*
X019944Y026862D02*
X019944Y027196D01*
X020404Y027656D01*
X020404Y028244D01*
X020500Y028340D01*
X020672Y026102D02*
X021058Y026102D01*
X021460Y025700D01*
X021460Y024900D01*
X021460Y023860D01*
X021140Y024580D02*
X020470Y024580D01*
X020452Y024598D01*
X020500Y024020D02*
X019860Y024020D01*
X019704Y024176D01*
X019704Y024598D01*
X020100Y025220D02*
X019940Y025380D01*
X019940Y026086D01*
X019924Y026102D01*
X020100Y025220D02*
X021060Y025220D01*
X021460Y024900D02*
X021140Y024580D01*
X016821Y023096D02*
X016580Y023096D01*
X016407Y023096D01*
X016367Y023056D01*
X019303Y019200D02*
X019303Y019151D01*
X019287Y019136D01*
X025940Y021140D02*
X026441Y021140D01*
X027781Y019800D01*
X027922Y019941D02*
X026164Y021700D01*
X026100Y021700D01*
X026580Y021566D02*
X028064Y020083D01*
X028198Y020217D02*
X027300Y021115D01*
X027300Y021540D01*
X027780Y021220D02*
X027780Y020918D01*
X028339Y020359D01*
X027505Y019524D02*
X028129Y018900D01*
X027364Y019383D02*
X027303Y019383D01*
X027181Y019261D01*
X026580Y021566D02*
X026580Y021860D01*
X030420Y021067D02*
X030420Y020900D01*
X030660Y020660D01*
X030847Y020660D01*
X031104Y020917D01*
X030694Y021334D02*
X031060Y021700D01*
X031060Y023220D01*
X030546Y023014D02*
X030340Y023220D01*
X030546Y023014D02*
X030546Y021476D01*
X030687Y021334D02*
X030420Y021067D01*
X030687Y021334D02*
X030694Y021334D01*
X031140Y019700D02*
X031220Y019700D01*
X031380Y019540D01*
X031380Y018435D01*
X032080Y017735D01*
X032420Y017395D01*
X032420Y017140D01*
X032020Y016740D01*
X031521Y017177D02*
X031220Y017478D01*
X031220Y018020D01*
X031700Y023540D02*
X032260Y023540D01*
X032740Y024020D01*
X032740Y028340D01*
X033460Y029060D01*
X033460Y031540D01*
X033914Y031994D01*
X034340Y031994D01*
X032286Y030020D02*
X032286Y027006D01*
X032100Y026820D01*
X048206Y023620D02*
X048206Y021986D01*
X048180Y021960D01*
X048580Y021360D02*
X048180Y020960D01*
X048580Y021360D02*
X048580Y022980D01*
X048740Y023140D01*
X049460Y023140D01*
X049380Y023540D02*
X050026Y023540D01*
X049620Y023940D02*
X049620Y024266D01*
X049277Y024609D01*
X049300Y024586D01*
X049300Y023620D02*
X049380Y023540D01*
X049300Y023620D02*
X048954Y023620D01*
X049140Y022580D02*
X049277Y022443D01*
X049277Y021849D01*
X049277Y020889D02*
X048969Y020889D01*
X048340Y020260D01*
X048900Y020100D02*
X048180Y019380D01*
X048180Y019000D01*
X048100Y018920D01*
X048900Y019460D02*
X049277Y019083D01*
X049277Y018969D01*
X049277Y017929D02*
X049277Y017277D01*
X049060Y017060D01*
X048980Y016100D02*
X049277Y015803D01*
X049277Y015129D01*
X049197Y013849D02*
X049197Y013357D01*
X048980Y013140D01*
X049357Y010089D02*
X049357Y009917D01*
X048980Y008980D02*
X048980Y008580D01*
X048820Y008420D01*
X048820Y004980D01*
X049380Y005140D02*
X049380Y005906D01*
X049294Y005991D01*
X049277Y007169D02*
X049300Y007191D01*
X049300Y008100D01*
X049086Y020100D02*
X048900Y020100D01*
X049834Y020100D02*
X049834Y020149D01*
X049946Y020260D01*
X050580Y023940D02*
X050900Y023940D01*
X049277Y025729D02*
X049277Y026237D01*
X049620Y026580D01*
X049460Y027860D02*
X049460Y028506D01*
X049357Y028609D01*
X049089Y029700D02*
X049117Y029729D01*
X049140Y029751D01*
X049140Y030500D01*
X049380Y031700D02*
X049117Y031963D01*
X049117Y032529D01*
X049866Y032529D02*
X049917Y032529D01*
X050026Y032420D01*
X050020Y033380D02*
X050026Y033386D01*
X050026Y033489D01*
X049277Y033489D02*
X049249Y033460D01*
X048820Y033460D01*
X049277Y033489D02*
X049277Y033643D01*
X048020Y034100D02*
X047940Y034180D01*
D41*
X019647Y022816D02*
X019367Y023096D01*
X018553Y023096D01*
X019287Y022576D02*
X019287Y021056D01*
X019287Y020576D02*
X019287Y022456D01*
X019647Y022816D01*
X019287Y020576D02*
X019287Y020416D01*
X019287Y019136D02*
X019227Y019076D01*
X016987Y020264D02*
X016836Y020316D01*
X016327Y020316D01*
X016227Y020416D01*
X016227Y017616D01*
X016427Y017416D01*
X016878Y020256D02*
X016987Y020264D01*
X016227Y020416D02*
X016227Y022716D01*
X016367Y022856D01*
D42*
X016821Y023096D02*
X016821Y023301D01*
X017300Y023780D01*
X017300Y025060D01*
X016900Y025460D01*
X016900Y027220D01*
X017380Y027700D01*
X017380Y028900D01*
X016820Y029460D01*
X016820Y030357D01*
X016778Y030399D01*
X017778Y030399D02*
X017778Y031618D01*
X017940Y031780D01*
X025620Y031780D01*
X026100Y031300D01*
X019227Y019076D02*
X019227Y018427D01*
X018580Y017780D01*
X018063Y017780D01*
X017838Y017396D01*
D43*
X028660Y028120D02*
X028680Y028100D01*
X028660Y028120D02*
X028660Y028820D01*
X028660Y029140D01*
X029540Y030020D01*
X029540Y031060D01*
X029994Y031514D01*
X030846Y031514D01*
X030846Y029782D02*
X031218Y029782D01*
X031058Y029782D02*
X031780Y029060D01*
X031780Y028200D01*
X031700Y028120D01*
X031680Y028100D01*
X031058Y029782D02*
X030846Y029782D01*
D44*
X031700Y028120D02*
X031700Y024500D01*
X031060Y023860D01*
X031060Y023220D01*
X030340Y023220D02*
X030340Y026420D01*
X030980Y027060D01*
X016367Y023056D02*
X016367Y022856D01*
M02*
