G75*
%MOIN*%
%OFA0B0*%
%FSLAX24Y24*%
%IPPOS*%
%LPD*%
%AMOC8*
5,1,8,0,0,1.08239X$1,22.5*
%
%ADD10C,0.0040*%
%ADD11C,0.0000*%
D10*
X015620Y009220D02*
X015620Y030340D01*
X015616Y030423D01*
X015617Y030506D01*
X015621Y030589D01*
X015629Y030672D01*
X015641Y030754D01*
X015656Y030836D01*
X015676Y030917D01*
X015699Y030997D01*
X015726Y031076D01*
X015756Y031153D01*
X015790Y031229D01*
X015827Y031303D01*
X015868Y031376D01*
X015912Y031446D01*
X015959Y031515D01*
X016009Y031581D01*
X016063Y031645D01*
X016119Y031706D01*
X016178Y031765D01*
X016239Y031821D01*
X016304Y031873D01*
X016370Y031923D01*
X016439Y031970D01*
X016509Y032014D01*
X016582Y032054D01*
X016657Y032091D01*
X016733Y032125D01*
X016810Y032155D01*
X016889Y032181D01*
X016969Y032204D01*
X017050Y032223D01*
X017132Y032238D01*
X017214Y032249D01*
X017297Y032257D01*
X017380Y032261D01*
X017380Y032260D02*
X031940Y032260D01*
X033220Y035860D01*
X039134Y032317D02*
X047383Y032317D01*
X047383Y032279D02*
X039119Y032279D01*
X039104Y032240D02*
X047383Y032240D01*
X047383Y032202D02*
X039089Y032202D01*
X039075Y032163D02*
X047384Y032163D01*
X047384Y032125D02*
X039060Y032125D01*
X039045Y032086D02*
X047384Y032086D01*
X047384Y032048D02*
X039031Y032048D01*
X039016Y032009D02*
X047384Y032009D01*
X047384Y031971D02*
X039001Y031971D01*
X038986Y031932D02*
X047384Y031932D01*
X047384Y031894D02*
X038972Y031894D01*
X038957Y031855D02*
X047384Y031855D01*
X047385Y031817D02*
X038942Y031817D01*
X038928Y031778D02*
X047385Y031778D01*
X047385Y031740D02*
X038913Y031740D01*
X038898Y031701D02*
X047385Y031701D01*
X047385Y031663D02*
X038883Y031663D01*
X038869Y031624D02*
X047385Y031624D01*
X047385Y031586D02*
X038854Y031586D01*
X038839Y031547D02*
X047385Y031547D01*
X047385Y031509D02*
X038824Y031509D01*
X038810Y031470D02*
X047386Y031470D01*
X047386Y031432D02*
X038795Y031432D01*
X038780Y031393D02*
X047386Y031393D01*
X047386Y031355D02*
X038766Y031355D01*
X038751Y031316D02*
X047386Y031316D01*
X047386Y031278D02*
X038736Y031278D01*
X038721Y031239D02*
X047386Y031239D01*
X047386Y031201D02*
X038707Y031201D01*
X038692Y031162D02*
X047386Y031162D01*
X047387Y031124D02*
X038677Y031124D01*
X038663Y031085D02*
X047387Y031085D01*
X047387Y031047D02*
X038648Y031047D01*
X038633Y031008D02*
X047387Y031008D01*
X047387Y030970D02*
X038618Y030970D01*
X038604Y030931D02*
X047387Y030931D01*
X047387Y030893D02*
X038589Y030893D01*
X038574Y030854D02*
X047387Y030854D01*
X047387Y030816D02*
X038560Y030816D01*
X038545Y030777D02*
X047388Y030777D01*
X047388Y030739D02*
X038530Y030739D01*
X038515Y030700D02*
X047388Y030700D01*
X047388Y030662D02*
X038501Y030662D01*
X038500Y030660D02*
X039540Y033380D01*
X047380Y033380D01*
X047460Y006020D01*
X039540Y006020D01*
X038500Y009380D01*
X033940Y009380D01*
X033940Y030660D01*
X038500Y030660D01*
X039148Y032356D02*
X047383Y032356D01*
X047383Y032394D02*
X039163Y032394D01*
X039178Y032433D02*
X047383Y032433D01*
X047383Y032471D02*
X039193Y032471D01*
X039207Y032510D02*
X047383Y032510D01*
X047382Y032548D02*
X039222Y032548D01*
X039237Y032587D02*
X047382Y032587D01*
X047382Y032625D02*
X039251Y032625D01*
X039266Y032664D02*
X047382Y032664D01*
X047382Y032702D02*
X039281Y032702D01*
X039296Y032741D02*
X047382Y032741D01*
X047382Y032779D02*
X039310Y032779D01*
X039325Y032818D02*
X047382Y032818D01*
X047382Y032856D02*
X039340Y032856D01*
X039354Y032895D02*
X047381Y032895D01*
X047381Y032933D02*
X039369Y032933D01*
X039384Y032972D02*
X047381Y032972D01*
X047381Y033010D02*
X039399Y033010D01*
X039413Y033049D02*
X047381Y033049D01*
X047381Y033087D02*
X039428Y033087D01*
X039443Y033126D02*
X047381Y033126D01*
X047381Y033164D02*
X039457Y033164D01*
X039472Y033203D02*
X047381Y033203D01*
X047380Y033241D02*
X039487Y033241D01*
X039502Y033280D02*
X047380Y033280D01*
X047380Y033318D02*
X039516Y033318D01*
X039531Y033357D02*
X047380Y033357D01*
X047620Y036020D02*
X047732Y036027D01*
X047844Y036031D01*
X047955Y036030D01*
X048067Y036026D01*
X048179Y036018D01*
X048290Y036006D01*
X048401Y035990D01*
X048511Y035970D01*
X048620Y035947D01*
X048728Y035920D01*
X048836Y035889D01*
X048942Y035854D01*
X049047Y035816D01*
X049151Y035775D01*
X049253Y035729D01*
X049354Y035681D01*
X049453Y035629D01*
X049550Y035573D01*
X049645Y035514D01*
X049738Y035452D01*
X049829Y035387D01*
X049917Y035319D01*
X050004Y035248D01*
X050087Y035173D01*
X050168Y035096D01*
X050247Y035017D01*
X050322Y034934D01*
X050395Y034849D01*
X050465Y034762D01*
X050532Y034672D01*
X050595Y034580D01*
X050656Y034486D01*
X050713Y034390D01*
X050767Y034292D01*
X050817Y034193D01*
X050864Y034091D01*
X050908Y033988D01*
X050948Y033884D01*
X050984Y033778D01*
X051017Y033671D01*
X051046Y033563D01*
X051071Y033454D01*
X051092Y033344D01*
X051110Y033234D01*
X051124Y033123D01*
X051134Y033012D01*
X051140Y032900D01*
X047388Y030623D02*
X033940Y030623D01*
X033940Y030585D02*
X047388Y030585D01*
X047388Y030546D02*
X033940Y030546D01*
X033940Y030508D02*
X047388Y030508D01*
X047389Y030469D02*
X033940Y030469D01*
X033940Y030431D02*
X047389Y030431D01*
X047389Y030392D02*
X033940Y030392D01*
X033940Y030354D02*
X047389Y030354D01*
X047389Y030315D02*
X033940Y030315D01*
X033940Y030277D02*
X047389Y030277D01*
X047389Y030238D02*
X033940Y030238D01*
X033940Y030200D02*
X047389Y030200D01*
X047389Y030161D02*
X033940Y030161D01*
X033940Y030123D02*
X047390Y030123D01*
X047390Y030084D02*
X033940Y030084D01*
X033940Y030046D02*
X047390Y030046D01*
X047390Y030007D02*
X033940Y030007D01*
X033940Y029969D02*
X047390Y029969D01*
X047390Y029930D02*
X033940Y029930D01*
X033940Y029892D02*
X047390Y029892D01*
X047390Y029853D02*
X033940Y029853D01*
X033940Y029815D02*
X047390Y029815D01*
X047391Y029776D02*
X033940Y029776D01*
X033940Y029738D02*
X047391Y029738D01*
X047391Y029699D02*
X033940Y029699D01*
X033940Y029661D02*
X047391Y029661D01*
X047391Y029622D02*
X033940Y029622D01*
X033940Y029584D02*
X047391Y029584D01*
X047391Y029545D02*
X033940Y029545D01*
X033940Y029507D02*
X047391Y029507D01*
X047391Y029468D02*
X033940Y029468D01*
X033940Y029430D02*
X047392Y029430D01*
X047392Y029391D02*
X033940Y029391D01*
X033940Y029353D02*
X047392Y029353D01*
X047392Y029314D02*
X033940Y029314D01*
X033940Y029276D02*
X047392Y029276D01*
X047392Y029237D02*
X033940Y029237D01*
X033940Y029199D02*
X047392Y029199D01*
X047392Y029160D02*
X033940Y029160D01*
X033940Y029122D02*
X047392Y029122D01*
X047393Y029083D02*
X033940Y029083D01*
X033940Y029045D02*
X047393Y029045D01*
X047393Y029006D02*
X033940Y029006D01*
X033940Y028968D02*
X047393Y028968D01*
X047393Y028929D02*
X033940Y028929D01*
X033940Y028891D02*
X047393Y028891D01*
X047393Y028852D02*
X033940Y028852D01*
X033940Y028814D02*
X047393Y028814D01*
X047393Y028775D02*
X033940Y028775D01*
X033940Y028737D02*
X047394Y028737D01*
X047394Y028698D02*
X033940Y028698D01*
X033940Y028660D02*
X047394Y028660D01*
X047394Y028621D02*
X033940Y028621D01*
X033940Y028583D02*
X047394Y028583D01*
X047394Y028544D02*
X033940Y028544D01*
X033940Y028506D02*
X047394Y028506D01*
X047394Y028467D02*
X033940Y028467D01*
X033940Y028429D02*
X047394Y028429D01*
X047395Y028390D02*
X033940Y028390D01*
X033940Y028352D02*
X047395Y028352D01*
X047395Y028313D02*
X033940Y028313D01*
X033940Y028275D02*
X047395Y028275D01*
X047395Y028236D02*
X033940Y028236D01*
X033940Y028198D02*
X047395Y028198D01*
X047395Y028159D02*
X033940Y028159D01*
X033940Y028121D02*
X047395Y028121D01*
X047395Y028082D02*
X033940Y028082D01*
X033940Y028044D02*
X047396Y028044D01*
X047396Y028005D02*
X033940Y028005D01*
X033940Y027967D02*
X047396Y027967D01*
X047396Y027928D02*
X033940Y027928D01*
X033940Y027890D02*
X047396Y027890D01*
X047396Y027851D02*
X033940Y027851D01*
X033940Y027813D02*
X047396Y027813D01*
X047396Y027774D02*
X033940Y027774D01*
X033940Y027736D02*
X047397Y027736D01*
X047397Y027697D02*
X033940Y027697D01*
X033940Y027659D02*
X047397Y027659D01*
X047397Y027620D02*
X033940Y027620D01*
X033940Y027582D02*
X047397Y027582D01*
X047397Y027543D02*
X033940Y027543D01*
X033940Y027505D02*
X047397Y027505D01*
X047397Y027466D02*
X033940Y027466D01*
X033940Y027428D02*
X047397Y027428D01*
X047398Y027389D02*
X033940Y027389D01*
X033940Y027351D02*
X047398Y027351D01*
X047398Y027312D02*
X033940Y027312D01*
X033940Y027274D02*
X047398Y027274D01*
X047398Y027235D02*
X033940Y027235D01*
X033940Y027197D02*
X047398Y027197D01*
X047398Y027158D02*
X033940Y027158D01*
X033940Y027120D02*
X047398Y027120D01*
X047398Y027081D02*
X033940Y027081D01*
X033940Y027043D02*
X047399Y027043D01*
X047399Y027004D02*
X033940Y027004D01*
X033940Y026966D02*
X047399Y026966D01*
X047399Y026927D02*
X033940Y026927D01*
X033940Y026889D02*
X047399Y026889D01*
X047399Y026850D02*
X033940Y026850D01*
X033940Y026812D02*
X047399Y026812D01*
X047399Y026773D02*
X033940Y026773D01*
X033940Y026735D02*
X047399Y026735D01*
X047400Y026696D02*
X033940Y026696D01*
X033940Y026658D02*
X047400Y026658D01*
X047400Y026619D02*
X033940Y026619D01*
X033940Y026581D02*
X047400Y026581D01*
X047400Y026542D02*
X033940Y026542D01*
X033940Y026504D02*
X047400Y026504D01*
X047400Y026465D02*
X033940Y026465D01*
X033940Y026427D02*
X047400Y026427D01*
X047400Y026388D02*
X033940Y026388D01*
X033940Y026350D02*
X047401Y026350D01*
X047401Y026311D02*
X033940Y026311D01*
X033940Y026273D02*
X047401Y026273D01*
X047401Y026234D02*
X033940Y026234D01*
X033940Y026196D02*
X047401Y026196D01*
X047401Y026157D02*
X033940Y026157D01*
X033940Y026119D02*
X047401Y026119D01*
X047401Y026080D02*
X033940Y026080D01*
X033940Y026042D02*
X047401Y026042D01*
X047402Y026003D02*
X033940Y026003D01*
X033940Y025965D02*
X047402Y025965D01*
X047402Y025926D02*
X033940Y025926D01*
X033940Y025888D02*
X047402Y025888D01*
X047402Y025849D02*
X033940Y025849D01*
X033940Y025811D02*
X047402Y025811D01*
X047402Y025772D02*
X033940Y025772D01*
X033940Y025734D02*
X047402Y025734D01*
X047402Y025695D02*
X033940Y025695D01*
X033940Y025657D02*
X047403Y025657D01*
X047403Y025618D02*
X033940Y025618D01*
X033940Y025580D02*
X047403Y025580D01*
X047403Y025541D02*
X033940Y025541D01*
X033940Y025503D02*
X047403Y025503D01*
X047403Y025464D02*
X033940Y025464D01*
X033940Y025426D02*
X047403Y025426D01*
X047403Y025387D02*
X033940Y025387D01*
X033940Y025349D02*
X047403Y025349D01*
X047404Y025310D02*
X033940Y025310D01*
X033940Y025272D02*
X047404Y025272D01*
X047404Y025233D02*
X033940Y025233D01*
X033940Y025195D02*
X047404Y025195D01*
X047404Y025156D02*
X033940Y025156D01*
X033940Y025118D02*
X047404Y025118D01*
X047404Y025079D02*
X033940Y025079D01*
X033940Y025041D02*
X047404Y025041D01*
X047404Y025002D02*
X033940Y025002D01*
X033940Y024964D02*
X047405Y024964D01*
X047405Y024925D02*
X033940Y024925D01*
X033940Y024887D02*
X047405Y024887D01*
X047405Y024848D02*
X033940Y024848D01*
X033940Y024810D02*
X047405Y024810D01*
X047405Y024771D02*
X033940Y024771D01*
X033940Y024733D02*
X047405Y024733D01*
X047405Y024694D02*
X033940Y024694D01*
X033940Y024656D02*
X047406Y024656D01*
X047406Y024617D02*
X033940Y024617D01*
X033940Y024579D02*
X047406Y024579D01*
X047406Y024540D02*
X033940Y024540D01*
X033940Y024502D02*
X047406Y024502D01*
X047406Y024463D02*
X033940Y024463D01*
X033940Y024425D02*
X047406Y024425D01*
X047406Y024386D02*
X033940Y024386D01*
X033940Y024348D02*
X047406Y024348D01*
X047407Y024309D02*
X033940Y024309D01*
X033940Y024271D02*
X047407Y024271D01*
X047407Y024232D02*
X033940Y024232D01*
X033940Y024194D02*
X047407Y024194D01*
X047407Y024155D02*
X033940Y024155D01*
X033940Y024117D02*
X047407Y024117D01*
X047407Y024078D02*
X033940Y024078D01*
X033940Y024040D02*
X047407Y024040D01*
X047407Y024001D02*
X033940Y024001D01*
X033940Y023963D02*
X047408Y023963D01*
X047408Y023924D02*
X033940Y023924D01*
X033940Y023886D02*
X047408Y023886D01*
X047408Y023847D02*
X033940Y023847D01*
X033940Y023809D02*
X047408Y023809D01*
X047408Y023770D02*
X033940Y023770D01*
X033940Y023732D02*
X047408Y023732D01*
X047408Y023693D02*
X033940Y023693D01*
X033940Y023655D02*
X047408Y023655D01*
X047409Y023616D02*
X033940Y023616D01*
X033940Y023578D02*
X047409Y023578D01*
X047409Y023539D02*
X033940Y023539D01*
X033940Y023501D02*
X047409Y023501D01*
X047409Y023462D02*
X033940Y023462D01*
X033940Y023424D02*
X047409Y023424D01*
X047409Y023385D02*
X033940Y023385D01*
X033940Y023347D02*
X047409Y023347D01*
X047409Y023308D02*
X033940Y023308D01*
X033940Y023270D02*
X047410Y023270D01*
X047410Y023231D02*
X033940Y023231D01*
X033940Y023193D02*
X047410Y023193D01*
X047410Y023154D02*
X033940Y023154D01*
X033940Y023116D02*
X047410Y023116D01*
X047410Y023077D02*
X033940Y023077D01*
X033940Y023039D02*
X047410Y023039D01*
X047410Y023000D02*
X033940Y023000D01*
X033940Y022962D02*
X047410Y022962D01*
X047411Y022923D02*
X033940Y022923D01*
X033940Y022885D02*
X047411Y022885D01*
X047411Y022846D02*
X033940Y022846D01*
X033940Y022808D02*
X047411Y022808D01*
X047411Y022769D02*
X033940Y022769D01*
X033940Y022731D02*
X047411Y022731D01*
X047411Y022692D02*
X033940Y022692D01*
X033940Y022654D02*
X047411Y022654D01*
X047411Y022615D02*
X033940Y022615D01*
X033940Y022577D02*
X047412Y022577D01*
X047412Y022538D02*
X033940Y022538D01*
X033940Y022500D02*
X047412Y022500D01*
X047412Y022461D02*
X033940Y022461D01*
X033940Y022423D02*
X047412Y022423D01*
X047412Y022384D02*
X033940Y022384D01*
X033940Y022346D02*
X047412Y022346D01*
X047412Y022307D02*
X033940Y022307D01*
X033940Y022269D02*
X047412Y022269D01*
X047413Y022230D02*
X033940Y022230D01*
X033940Y022192D02*
X047413Y022192D01*
X047413Y022153D02*
X033940Y022153D01*
X033940Y022115D02*
X047413Y022115D01*
X047413Y022076D02*
X033940Y022076D01*
X033940Y022038D02*
X047413Y022038D01*
X047413Y021999D02*
X033940Y021999D01*
X033940Y021961D02*
X047413Y021961D01*
X047414Y021922D02*
X033940Y021922D01*
X033940Y021884D02*
X047414Y021884D01*
X047414Y021845D02*
X033940Y021845D01*
X033940Y021807D02*
X047414Y021807D01*
X047414Y021768D02*
X033940Y021768D01*
X033940Y021730D02*
X047414Y021730D01*
X047414Y021691D02*
X033940Y021691D01*
X033940Y021653D02*
X047414Y021653D01*
X047414Y021614D02*
X033940Y021614D01*
X033940Y021576D02*
X047415Y021576D01*
X047415Y021537D02*
X033940Y021537D01*
X033940Y021499D02*
X047415Y021499D01*
X047415Y021460D02*
X033940Y021460D01*
X033940Y021422D02*
X047415Y021422D01*
X047415Y021383D02*
X033940Y021383D01*
X033940Y021345D02*
X047415Y021345D01*
X047415Y021306D02*
X033940Y021306D01*
X033940Y021268D02*
X047415Y021268D01*
X047416Y021229D02*
X033940Y021229D01*
X033940Y021191D02*
X047416Y021191D01*
X047416Y021152D02*
X033940Y021152D01*
X033940Y021114D02*
X047416Y021114D01*
X047416Y021075D02*
X033940Y021075D01*
X033940Y021037D02*
X047416Y021037D01*
X047416Y020998D02*
X033940Y020998D01*
X033940Y020960D02*
X047416Y020960D01*
X047416Y020921D02*
X033940Y020921D01*
X033940Y020883D02*
X047417Y020883D01*
X047417Y020844D02*
X033940Y020844D01*
X033940Y020806D02*
X047417Y020806D01*
X047417Y020767D02*
X033940Y020767D01*
X033940Y020729D02*
X047417Y020729D01*
X047417Y020690D02*
X033940Y020690D01*
X033940Y020652D02*
X047417Y020652D01*
X047417Y020613D02*
X033940Y020613D01*
X033940Y020575D02*
X047417Y020575D01*
X047418Y020536D02*
X033940Y020536D01*
X033940Y020498D02*
X047418Y020498D01*
X047418Y020459D02*
X033940Y020459D01*
X033940Y020421D02*
X047418Y020421D01*
X047418Y020382D02*
X033940Y020382D01*
X033940Y020344D02*
X047418Y020344D01*
X047418Y020305D02*
X033940Y020305D01*
X033940Y020267D02*
X047418Y020267D01*
X047418Y020228D02*
X033940Y020228D01*
X033940Y020190D02*
X047419Y020190D01*
X047419Y020151D02*
X033940Y020151D01*
X033940Y020113D02*
X047419Y020113D01*
X047419Y020074D02*
X033940Y020074D01*
X033940Y020036D02*
X047419Y020036D01*
X047419Y019997D02*
X033940Y019997D01*
X033940Y019959D02*
X047419Y019959D01*
X047419Y019920D02*
X033940Y019920D01*
X033940Y019882D02*
X047419Y019882D01*
X047420Y019843D02*
X033940Y019843D01*
X033940Y019805D02*
X047420Y019805D01*
X047420Y019766D02*
X033940Y019766D01*
X033940Y019728D02*
X047420Y019728D01*
X047420Y019689D02*
X033940Y019689D01*
X033940Y019651D02*
X047420Y019651D01*
X047420Y019612D02*
X033940Y019612D01*
X033940Y019574D02*
X047420Y019574D01*
X047420Y019535D02*
X033940Y019535D01*
X033940Y019497D02*
X047421Y019497D01*
X047421Y019458D02*
X033940Y019458D01*
X033940Y019420D02*
X047421Y019420D01*
X047421Y019381D02*
X033940Y019381D01*
X033940Y019343D02*
X047421Y019343D01*
X047421Y019304D02*
X033940Y019304D01*
X033940Y019266D02*
X047421Y019266D01*
X047421Y019227D02*
X033940Y019227D01*
X033940Y019189D02*
X047421Y019189D01*
X047422Y019150D02*
X033940Y019150D01*
X033940Y019112D02*
X047422Y019112D01*
X047422Y019073D02*
X033940Y019073D01*
X033940Y019035D02*
X047422Y019035D01*
X047422Y018996D02*
X033940Y018996D01*
X033940Y018958D02*
X047422Y018958D01*
X047422Y018919D02*
X033940Y018919D01*
X033940Y018881D02*
X047422Y018881D01*
X047423Y018842D02*
X033940Y018842D01*
X033940Y018804D02*
X047423Y018804D01*
X047423Y018765D02*
X033940Y018765D01*
X033940Y018727D02*
X047423Y018727D01*
X047423Y018688D02*
X033940Y018688D01*
X033940Y018650D02*
X047423Y018650D01*
X047423Y018611D02*
X033940Y018611D01*
X033940Y018573D02*
X047423Y018573D01*
X047423Y018534D02*
X033940Y018534D01*
X033940Y018496D02*
X047424Y018496D01*
X047424Y018457D02*
X033940Y018457D01*
X033940Y018419D02*
X047424Y018419D01*
X047424Y018380D02*
X033940Y018380D01*
X033940Y018342D02*
X047424Y018342D01*
X047424Y018303D02*
X033940Y018303D01*
X033940Y018265D02*
X047424Y018265D01*
X047424Y018226D02*
X033940Y018226D01*
X033940Y018188D02*
X047424Y018188D01*
X047425Y018149D02*
X033940Y018149D01*
X033940Y018111D02*
X047425Y018111D01*
X047425Y018072D02*
X033940Y018072D01*
X033940Y018034D02*
X047425Y018034D01*
X047425Y017995D02*
X033940Y017995D01*
X033940Y017957D02*
X047425Y017957D01*
X047425Y017918D02*
X033940Y017918D01*
X033940Y017880D02*
X047425Y017880D01*
X047425Y017841D02*
X033940Y017841D01*
X033940Y017803D02*
X047426Y017803D01*
X047426Y017764D02*
X033940Y017764D01*
X033940Y017726D02*
X047426Y017726D01*
X047426Y017687D02*
X033940Y017687D01*
X033940Y017649D02*
X047426Y017649D01*
X047426Y017610D02*
X033940Y017610D01*
X033940Y017572D02*
X047426Y017572D01*
X047426Y017533D02*
X033940Y017533D01*
X033940Y017495D02*
X047426Y017495D01*
X047427Y017456D02*
X033940Y017456D01*
X033940Y017418D02*
X047427Y017418D01*
X047427Y017379D02*
X033940Y017379D01*
X033940Y017341D02*
X047427Y017341D01*
X047427Y017302D02*
X033940Y017302D01*
X033940Y017264D02*
X047427Y017264D01*
X047427Y017225D02*
X033940Y017225D01*
X033940Y017187D02*
X047427Y017187D01*
X047427Y017148D02*
X033940Y017148D01*
X033940Y017110D02*
X047428Y017110D01*
X047428Y017071D02*
X033940Y017071D01*
X033940Y017033D02*
X047428Y017033D01*
X047428Y016994D02*
X033940Y016994D01*
X033940Y016956D02*
X047428Y016956D01*
X047428Y016917D02*
X033940Y016917D01*
X033940Y016879D02*
X047428Y016879D01*
X047428Y016840D02*
X033940Y016840D01*
X033940Y016802D02*
X047428Y016802D01*
X047429Y016763D02*
X033940Y016763D01*
X033940Y016725D02*
X047429Y016725D01*
X047429Y016686D02*
X033940Y016686D01*
X033940Y016648D02*
X047429Y016648D01*
X047429Y016609D02*
X033940Y016609D01*
X033940Y016571D02*
X047429Y016571D01*
X047429Y016532D02*
X033940Y016532D01*
X033940Y016494D02*
X047429Y016494D01*
X047429Y016455D02*
X033940Y016455D01*
X033940Y016417D02*
X047430Y016417D01*
X047430Y016378D02*
X033940Y016378D01*
X033940Y016340D02*
X047430Y016340D01*
X047430Y016301D02*
X033940Y016301D01*
X033940Y016263D02*
X047430Y016263D01*
X047430Y016224D02*
X033940Y016224D01*
X033940Y016186D02*
X047430Y016186D01*
X047430Y016147D02*
X033940Y016147D01*
X033940Y016109D02*
X047431Y016109D01*
X047431Y016070D02*
X033940Y016070D01*
X033940Y016032D02*
X047431Y016032D01*
X047431Y015993D02*
X033940Y015993D01*
X033940Y015955D02*
X047431Y015955D01*
X047431Y015916D02*
X033940Y015916D01*
X033940Y015878D02*
X047431Y015878D01*
X047431Y015839D02*
X033940Y015839D01*
X033940Y015801D02*
X047431Y015801D01*
X047432Y015762D02*
X033940Y015762D01*
X033940Y015724D02*
X047432Y015724D01*
X047432Y015685D02*
X033940Y015685D01*
X033940Y015647D02*
X047432Y015647D01*
X047432Y015608D02*
X033940Y015608D01*
X033940Y015570D02*
X047432Y015570D01*
X047432Y015531D02*
X033940Y015531D01*
X033940Y015493D02*
X047432Y015493D01*
X047432Y015454D02*
X033940Y015454D01*
X033940Y015416D02*
X047433Y015416D01*
X047433Y015377D02*
X033940Y015377D01*
X033940Y015339D02*
X047433Y015339D01*
X047433Y015300D02*
X033940Y015300D01*
X033940Y015262D02*
X047433Y015262D01*
X047433Y015223D02*
X033940Y015223D01*
X033940Y015185D02*
X047433Y015185D01*
X047433Y015146D02*
X033940Y015146D01*
X033940Y015108D02*
X047433Y015108D01*
X047434Y015069D02*
X033940Y015069D01*
X033940Y015031D02*
X047434Y015031D01*
X047434Y014992D02*
X033940Y014992D01*
X033940Y014954D02*
X047434Y014954D01*
X047434Y014915D02*
X033940Y014915D01*
X033940Y014877D02*
X047434Y014877D01*
X047434Y014838D02*
X033940Y014838D01*
X033940Y014800D02*
X047434Y014800D01*
X047434Y014761D02*
X033940Y014761D01*
X033940Y014723D02*
X047435Y014723D01*
X047435Y014684D02*
X033940Y014684D01*
X033940Y014646D02*
X047435Y014646D01*
X047435Y014607D02*
X033940Y014607D01*
X033940Y014569D02*
X047435Y014569D01*
X047435Y014530D02*
X033940Y014530D01*
X033940Y014492D02*
X047435Y014492D01*
X047435Y014453D02*
X033940Y014453D01*
X033940Y014415D02*
X047435Y014415D01*
X047436Y014376D02*
X033940Y014376D01*
X033940Y014338D02*
X047436Y014338D01*
X047436Y014299D02*
X033940Y014299D01*
X033940Y014261D02*
X047436Y014261D01*
X047436Y014222D02*
X033940Y014222D01*
X033940Y014184D02*
X047436Y014184D01*
X047436Y014145D02*
X033940Y014145D01*
X033940Y014107D02*
X047436Y014107D01*
X047436Y014068D02*
X033940Y014068D01*
X033940Y014030D02*
X047437Y014030D01*
X047437Y013991D02*
X033940Y013991D01*
X033940Y013953D02*
X047437Y013953D01*
X047437Y013914D02*
X033940Y013914D01*
X033940Y013876D02*
X047437Y013876D01*
X047437Y013837D02*
X033940Y013837D01*
X033940Y013799D02*
X047437Y013799D01*
X047437Y013760D02*
X033940Y013760D01*
X033940Y013722D02*
X047437Y013722D01*
X047438Y013683D02*
X033940Y013683D01*
X033940Y013645D02*
X047438Y013645D01*
X047438Y013606D02*
X033940Y013606D01*
X033940Y013568D02*
X047438Y013568D01*
X047438Y013529D02*
X033940Y013529D01*
X033940Y013491D02*
X047438Y013491D01*
X047438Y013452D02*
X033940Y013452D01*
X033940Y013414D02*
X047438Y013414D01*
X047438Y013375D02*
X033940Y013375D01*
X033940Y013337D02*
X047439Y013337D01*
X047439Y013298D02*
X033940Y013298D01*
X033940Y013260D02*
X047439Y013260D01*
X047439Y013221D02*
X033940Y013221D01*
X033940Y013183D02*
X047439Y013183D01*
X047439Y013144D02*
X033940Y013144D01*
X033940Y013106D02*
X047439Y013106D01*
X047439Y013067D02*
X033940Y013067D01*
X033940Y013029D02*
X047440Y013029D01*
X047440Y012990D02*
X033940Y012990D01*
X033940Y012952D02*
X047440Y012952D01*
X047440Y012913D02*
X033940Y012913D01*
X033940Y012875D02*
X047440Y012875D01*
X047440Y012836D02*
X033940Y012836D01*
X033940Y012798D02*
X047440Y012798D01*
X047440Y012759D02*
X033940Y012759D01*
X033940Y012721D02*
X047440Y012721D01*
X047441Y012682D02*
X033940Y012682D01*
X033940Y012644D02*
X047441Y012644D01*
X047441Y012605D02*
X033940Y012605D01*
X033940Y012567D02*
X047441Y012567D01*
X047441Y012528D02*
X033940Y012528D01*
X033940Y012490D02*
X047441Y012490D01*
X047441Y012451D02*
X033940Y012451D01*
X033940Y012413D02*
X047441Y012413D01*
X047441Y012374D02*
X033940Y012374D01*
X033940Y012336D02*
X047442Y012336D01*
X047442Y012297D02*
X033940Y012297D01*
X033940Y012259D02*
X047442Y012259D01*
X047442Y012220D02*
X033940Y012220D01*
X033940Y012182D02*
X047442Y012182D01*
X047442Y012143D02*
X033940Y012143D01*
X033940Y012105D02*
X047442Y012105D01*
X047442Y012066D02*
X033940Y012066D01*
X033940Y012028D02*
X047442Y012028D01*
X047443Y011989D02*
X033940Y011989D01*
X033940Y011951D02*
X047443Y011951D01*
X047443Y011912D02*
X033940Y011912D01*
X033940Y011874D02*
X047443Y011874D01*
X047443Y011835D02*
X033940Y011835D01*
X033940Y011797D02*
X047443Y011797D01*
X047443Y011758D02*
X033940Y011758D01*
X033940Y011720D02*
X047443Y011720D01*
X047443Y011681D02*
X033940Y011681D01*
X033940Y011643D02*
X047444Y011643D01*
X047444Y011604D02*
X033940Y011604D01*
X033940Y011566D02*
X047444Y011566D01*
X047444Y011527D02*
X033940Y011527D01*
X033940Y011489D02*
X047444Y011489D01*
X047444Y011450D02*
X033940Y011450D01*
X033940Y011412D02*
X047444Y011412D01*
X047444Y011373D02*
X033940Y011373D01*
X033940Y011335D02*
X047444Y011335D01*
X047445Y011296D02*
X033940Y011296D01*
X033940Y011258D02*
X047445Y011258D01*
X047445Y011219D02*
X033940Y011219D01*
X033940Y011181D02*
X047445Y011181D01*
X047445Y011142D02*
X033940Y011142D01*
X033940Y011104D02*
X047445Y011104D01*
X047445Y011065D02*
X033940Y011065D01*
X033940Y011027D02*
X047445Y011027D01*
X047445Y010988D02*
X033940Y010988D01*
X033940Y010950D02*
X047446Y010950D01*
X047446Y010911D02*
X033940Y010911D01*
X033940Y010873D02*
X047446Y010873D01*
X047446Y010834D02*
X033940Y010834D01*
X033940Y010796D02*
X047446Y010796D01*
X047446Y010757D02*
X033940Y010757D01*
X033940Y010719D02*
X047446Y010719D01*
X047446Y010680D02*
X033940Y010680D01*
X033940Y010642D02*
X047446Y010642D01*
X047447Y010603D02*
X033940Y010603D01*
X033940Y010565D02*
X047447Y010565D01*
X047447Y010526D02*
X033940Y010526D01*
X033940Y010488D02*
X047447Y010488D01*
X047447Y010449D02*
X033940Y010449D01*
X033940Y010411D02*
X047447Y010411D01*
X047447Y010372D02*
X033940Y010372D01*
X033940Y010334D02*
X047447Y010334D01*
X047447Y010295D02*
X033940Y010295D01*
X033940Y010257D02*
X047448Y010257D01*
X047448Y010218D02*
X033940Y010218D01*
X033940Y010180D02*
X047448Y010180D01*
X047448Y010141D02*
X033940Y010141D01*
X033940Y010103D02*
X047448Y010103D01*
X047448Y010064D02*
X033940Y010064D01*
X033940Y010026D02*
X047448Y010026D01*
X047448Y009987D02*
X033940Y009987D01*
X033940Y009949D02*
X047449Y009949D01*
X047449Y009910D02*
X033940Y009910D01*
X033940Y009872D02*
X047449Y009872D01*
X047449Y009833D02*
X033940Y009833D01*
X033940Y009795D02*
X047449Y009795D01*
X047449Y009756D02*
X033940Y009756D01*
X033940Y009718D02*
X047449Y009718D01*
X047449Y009679D02*
X033940Y009679D01*
X033940Y009641D02*
X047449Y009641D01*
X047450Y009602D02*
X033940Y009602D01*
X033940Y009564D02*
X047450Y009564D01*
X047450Y009525D02*
X033940Y009525D01*
X033940Y009487D02*
X047450Y009487D01*
X047450Y009448D02*
X033940Y009448D01*
X033940Y009410D02*
X047450Y009410D01*
X047450Y009371D02*
X038503Y009371D01*
X038515Y009333D02*
X047450Y009333D01*
X047450Y009294D02*
X038527Y009294D01*
X038539Y009256D02*
X047451Y009256D01*
X047451Y009217D02*
X038550Y009217D01*
X038562Y009179D02*
X047451Y009179D01*
X047451Y009140D02*
X038574Y009140D01*
X038586Y009102D02*
X047451Y009102D01*
X047451Y009063D02*
X038598Y009063D01*
X038610Y009025D02*
X047451Y009025D01*
X047451Y008986D02*
X038622Y008986D01*
X038634Y008948D02*
X047451Y008948D01*
X047452Y008909D02*
X038646Y008909D01*
X038658Y008871D02*
X047452Y008871D01*
X047452Y008832D02*
X038670Y008832D01*
X038682Y008794D02*
X047452Y008794D01*
X047452Y008755D02*
X038693Y008755D01*
X038705Y008717D02*
X047452Y008717D01*
X047452Y008678D02*
X038717Y008678D01*
X038729Y008640D02*
X047452Y008640D01*
X047452Y008601D02*
X038741Y008601D01*
X038753Y008563D02*
X047453Y008563D01*
X047453Y008524D02*
X038765Y008524D01*
X038777Y008486D02*
X047453Y008486D01*
X047453Y008447D02*
X038789Y008447D01*
X038801Y008409D02*
X047453Y008409D01*
X047453Y008370D02*
X038813Y008370D01*
X038825Y008332D02*
X047453Y008332D01*
X047453Y008293D02*
X038836Y008293D01*
X038848Y008255D02*
X047453Y008255D01*
X047454Y008216D02*
X038860Y008216D01*
X038872Y008178D02*
X047454Y008178D01*
X047454Y008139D02*
X038884Y008139D01*
X038896Y008101D02*
X047454Y008101D01*
X047454Y008062D02*
X038908Y008062D01*
X038920Y008024D02*
X047454Y008024D01*
X047454Y007985D02*
X038932Y007985D01*
X038944Y007947D02*
X047454Y007947D01*
X047454Y007908D02*
X038956Y007908D01*
X038968Y007870D02*
X047455Y007870D01*
X047455Y007831D02*
X038979Y007831D01*
X038991Y007793D02*
X047455Y007793D01*
X047455Y007754D02*
X039003Y007754D01*
X039015Y007716D02*
X047455Y007716D01*
X047455Y007677D02*
X039027Y007677D01*
X039039Y007639D02*
X047455Y007639D01*
X047455Y007600D02*
X039051Y007600D01*
X039063Y007562D02*
X047455Y007562D01*
X047456Y007523D02*
X039075Y007523D01*
X039087Y007485D02*
X047456Y007485D01*
X047456Y007446D02*
X039099Y007446D01*
X039111Y007408D02*
X047456Y007408D01*
X047456Y007369D02*
X039122Y007369D01*
X039134Y007331D02*
X047456Y007331D01*
X047456Y007292D02*
X039146Y007292D01*
X039158Y007254D02*
X047456Y007254D01*
X047457Y007215D02*
X039170Y007215D01*
X039182Y007177D02*
X047457Y007177D01*
X047457Y007138D02*
X039194Y007138D01*
X039206Y007100D02*
X047457Y007100D01*
X047457Y007061D02*
X039218Y007061D01*
X039230Y007023D02*
X047457Y007023D01*
X047457Y006984D02*
X039242Y006984D01*
X039254Y006946D02*
X047457Y006946D01*
X047457Y006907D02*
X039265Y006907D01*
X039277Y006869D02*
X047458Y006869D01*
X047458Y006830D02*
X039289Y006830D01*
X039301Y006792D02*
X047458Y006792D01*
X047458Y006753D02*
X039313Y006753D01*
X039325Y006715D02*
X047458Y006715D01*
X047458Y006676D02*
X039337Y006676D01*
X039349Y006638D02*
X047458Y006638D01*
X047458Y006599D02*
X039361Y006599D01*
X039373Y006561D02*
X047458Y006561D01*
X047459Y006522D02*
X039385Y006522D01*
X039397Y006484D02*
X047459Y006484D01*
X047459Y006445D02*
X039408Y006445D01*
X039420Y006407D02*
X047459Y006407D01*
X047459Y006368D02*
X039432Y006368D01*
X039444Y006330D02*
X047459Y006330D01*
X047459Y006291D02*
X039456Y006291D01*
X039468Y006253D02*
X047459Y006253D01*
X047459Y006214D02*
X039480Y006214D01*
X039492Y006176D02*
X047460Y006176D01*
X047460Y006137D02*
X039504Y006137D01*
X039516Y006099D02*
X047460Y006099D01*
X047460Y006060D02*
X039528Y006060D01*
X039540Y006022D02*
X047460Y006022D01*
X047460Y003700D02*
X047573Y003683D01*
X047686Y003671D01*
X047800Y003662D01*
X047914Y003657D01*
X048028Y003656D01*
X048142Y003659D01*
X048256Y003666D01*
X048370Y003677D01*
X048483Y003691D01*
X048596Y003710D01*
X048707Y003732D01*
X048819Y003759D01*
X048929Y003789D01*
X049038Y003822D01*
X049145Y003860D01*
X049252Y003901D01*
X049357Y003946D01*
X049460Y003994D01*
X049562Y004046D01*
X049662Y004101D01*
X049759Y004160D01*
X049855Y004222D01*
X049949Y004287D01*
X050040Y004356D01*
X050129Y004427D01*
X050215Y004502D01*
X050299Y004579D01*
X050380Y004660D01*
X050458Y004743D01*
X050534Y004828D01*
X050606Y004917D01*
X050675Y005007D01*
X050741Y005100D01*
X050804Y005195D01*
X050864Y005293D01*
X050920Y005392D01*
X050973Y005493D01*
X051022Y005596D01*
X051068Y005700D01*
X051110Y005807D01*
X051149Y005914D01*
X051184Y006023D01*
X051215Y006132D01*
X051242Y006243D01*
X051265Y006355D01*
X051285Y006467D01*
X051301Y006580D01*
X047460Y003700D02*
X046826Y003863D01*
X046188Y004010D01*
X045547Y004143D01*
X044902Y004259D01*
X044255Y004361D01*
X043606Y004447D01*
X042955Y004517D01*
X042303Y004572D01*
X041649Y004611D01*
X040995Y004634D01*
X040340Y004642D01*
X039685Y004634D01*
X039031Y004611D01*
X038377Y004572D01*
X037725Y004517D01*
X037074Y004447D01*
X036425Y004361D01*
X035778Y004259D01*
X035133Y004143D01*
X034492Y004010D01*
X033854Y003863D01*
X033220Y003700D01*
X031860Y007380D01*
X017540Y007380D01*
X017540Y007381D02*
X017455Y007379D01*
X017370Y007381D01*
X017285Y007388D01*
X017201Y007398D01*
X017117Y007412D01*
X017034Y007429D01*
X016952Y007451D01*
X016871Y007476D01*
X016792Y007505D01*
X016713Y007538D01*
X016637Y007574D01*
X016562Y007614D01*
X016489Y007657D01*
X016418Y007704D01*
X016349Y007753D01*
X016282Y007806D01*
X016218Y007862D01*
X016157Y007921D01*
X016099Y007982D01*
X016043Y008046D01*
X015991Y008113D01*
X015941Y008182D01*
X015895Y008253D01*
X015852Y008326D01*
X015812Y008401D01*
X015776Y008478D01*
X015744Y008557D01*
X015715Y008636D01*
X015690Y008717D01*
X015669Y008800D01*
X015651Y008883D01*
X015638Y008966D01*
X015628Y009051D01*
X015622Y009135D01*
X015620Y009220D01*
X051300Y006580D02*
X051573Y008964D01*
X051790Y011354D01*
X051948Y013748D01*
X052049Y016146D01*
X052092Y018545D01*
X052078Y020945D01*
X052005Y023343D01*
X051875Y025740D01*
X051688Y028132D01*
X051442Y030519D01*
X051140Y032900D01*
X047620Y036020D02*
X046980Y035848D01*
X046337Y035692D01*
X045690Y035551D01*
X045040Y035426D01*
X044387Y035316D01*
X043731Y035222D01*
X043074Y035144D01*
X042415Y035081D01*
X041754Y035034D01*
X041093Y035003D01*
X040431Y034988D01*
X039769Y034988D01*
X039107Y035005D01*
X038445Y035037D01*
X037785Y035085D01*
X037126Y035149D01*
X036468Y035228D01*
X035813Y035323D01*
X035160Y035434D01*
X034510Y035561D01*
X033863Y035703D01*
X033220Y035860D01*
D11*
X027130Y030358D02*
X027132Y030405D01*
X027138Y030451D01*
X027148Y030497D01*
X027161Y030542D01*
X027179Y030585D01*
X027200Y030627D01*
X027224Y030667D01*
X027252Y030704D01*
X027283Y030739D01*
X027317Y030772D01*
X027353Y030801D01*
X027392Y030827D01*
X027433Y030850D01*
X027476Y030869D01*
X027520Y030885D01*
X027565Y030897D01*
X027611Y030905D01*
X027658Y030909D01*
X027704Y030909D01*
X027751Y030905D01*
X027797Y030897D01*
X027842Y030885D01*
X027886Y030869D01*
X027929Y030850D01*
X027970Y030827D01*
X028009Y030801D01*
X028045Y030772D01*
X028079Y030739D01*
X028110Y030704D01*
X028138Y030667D01*
X028162Y030627D01*
X028183Y030585D01*
X028201Y030542D01*
X028214Y030497D01*
X028224Y030451D01*
X028230Y030405D01*
X028232Y030358D01*
X028230Y030311D01*
X028224Y030265D01*
X028214Y030219D01*
X028201Y030174D01*
X028183Y030131D01*
X028162Y030089D01*
X028138Y030049D01*
X028110Y030012D01*
X028079Y029977D01*
X028045Y029944D01*
X028009Y029915D01*
X027970Y029889D01*
X027929Y029866D01*
X027886Y029847D01*
X027842Y029831D01*
X027797Y029819D01*
X027751Y029811D01*
X027704Y029807D01*
X027658Y029807D01*
X027611Y029811D01*
X027565Y029819D01*
X027520Y029831D01*
X027476Y029847D01*
X027433Y029866D01*
X027392Y029889D01*
X027353Y029915D01*
X027317Y029944D01*
X027283Y029977D01*
X027252Y030012D01*
X027224Y030049D01*
X027200Y030089D01*
X027179Y030131D01*
X027161Y030174D01*
X027148Y030219D01*
X027138Y030265D01*
X027132Y030311D01*
X027130Y030358D01*
X020043Y030358D02*
X020045Y030405D01*
X020051Y030451D01*
X020061Y030497D01*
X020074Y030542D01*
X020092Y030585D01*
X020113Y030627D01*
X020137Y030667D01*
X020165Y030704D01*
X020196Y030739D01*
X020230Y030772D01*
X020266Y030801D01*
X020305Y030827D01*
X020346Y030850D01*
X020389Y030869D01*
X020433Y030885D01*
X020478Y030897D01*
X020524Y030905D01*
X020571Y030909D01*
X020617Y030909D01*
X020664Y030905D01*
X020710Y030897D01*
X020755Y030885D01*
X020799Y030869D01*
X020842Y030850D01*
X020883Y030827D01*
X020922Y030801D01*
X020958Y030772D01*
X020992Y030739D01*
X021023Y030704D01*
X021051Y030667D01*
X021075Y030627D01*
X021096Y030585D01*
X021114Y030542D01*
X021127Y030497D01*
X021137Y030451D01*
X021143Y030405D01*
X021145Y030358D01*
X021143Y030311D01*
X021137Y030265D01*
X021127Y030219D01*
X021114Y030174D01*
X021096Y030131D01*
X021075Y030089D01*
X021051Y030049D01*
X021023Y030012D01*
X020992Y029977D01*
X020958Y029944D01*
X020922Y029915D01*
X020883Y029889D01*
X020842Y029866D01*
X020799Y029847D01*
X020755Y029831D01*
X020710Y029819D01*
X020664Y029811D01*
X020617Y029807D01*
X020571Y029807D01*
X020524Y029811D01*
X020478Y029819D01*
X020433Y029831D01*
X020389Y029847D01*
X020346Y029866D01*
X020305Y029889D01*
X020266Y029915D01*
X020230Y029944D01*
X020196Y029977D01*
X020165Y030012D01*
X020137Y030049D01*
X020113Y030089D01*
X020092Y030131D01*
X020074Y030174D01*
X020061Y030219D01*
X020051Y030265D01*
X020045Y030311D01*
X020043Y030358D01*
X017333Y027195D02*
X017335Y027221D01*
X017341Y027247D01*
X017351Y027272D01*
X017364Y027295D01*
X017380Y027315D01*
X017400Y027333D01*
X017422Y027348D01*
X017445Y027360D01*
X017471Y027368D01*
X017497Y027372D01*
X017523Y027372D01*
X017549Y027368D01*
X017575Y027360D01*
X017599Y027348D01*
X017620Y027333D01*
X017640Y027315D01*
X017656Y027295D01*
X017669Y027272D01*
X017679Y027247D01*
X017685Y027221D01*
X017687Y027195D01*
X017685Y027169D01*
X017679Y027143D01*
X017669Y027118D01*
X017656Y027095D01*
X017640Y027075D01*
X017620Y027057D01*
X017598Y027042D01*
X017575Y027030D01*
X017549Y027022D01*
X017523Y027018D01*
X017497Y027018D01*
X017471Y027022D01*
X017445Y027030D01*
X017421Y027042D01*
X017400Y027057D01*
X017380Y027075D01*
X017364Y027095D01*
X017351Y027118D01*
X017341Y027143D01*
X017335Y027169D01*
X017333Y027195D01*
X017333Y025463D02*
X017335Y025489D01*
X017341Y025515D01*
X017351Y025540D01*
X017364Y025563D01*
X017380Y025583D01*
X017400Y025601D01*
X017422Y025616D01*
X017445Y025628D01*
X017471Y025636D01*
X017497Y025640D01*
X017523Y025640D01*
X017549Y025636D01*
X017575Y025628D01*
X017599Y025616D01*
X017620Y025601D01*
X017640Y025583D01*
X017656Y025563D01*
X017669Y025540D01*
X017679Y025515D01*
X017685Y025489D01*
X017687Y025463D01*
X017685Y025437D01*
X017679Y025411D01*
X017669Y025386D01*
X017656Y025363D01*
X017640Y025343D01*
X017620Y025325D01*
X017598Y025310D01*
X017575Y025298D01*
X017549Y025290D01*
X017523Y025286D01*
X017497Y025286D01*
X017471Y025290D01*
X017445Y025298D01*
X017421Y025310D01*
X017400Y025325D01*
X017380Y025343D01*
X017364Y025363D01*
X017351Y025386D01*
X017341Y025411D01*
X017335Y025437D01*
X017333Y025463D01*
X020043Y009257D02*
X020045Y009304D01*
X020051Y009350D01*
X020061Y009396D01*
X020074Y009441D01*
X020092Y009484D01*
X020113Y009526D01*
X020137Y009566D01*
X020165Y009603D01*
X020196Y009638D01*
X020230Y009671D01*
X020266Y009700D01*
X020305Y009726D01*
X020346Y009749D01*
X020389Y009768D01*
X020433Y009784D01*
X020478Y009796D01*
X020524Y009804D01*
X020571Y009808D01*
X020617Y009808D01*
X020664Y009804D01*
X020710Y009796D01*
X020755Y009784D01*
X020799Y009768D01*
X020842Y009749D01*
X020883Y009726D01*
X020922Y009700D01*
X020958Y009671D01*
X020992Y009638D01*
X021023Y009603D01*
X021051Y009566D01*
X021075Y009526D01*
X021096Y009484D01*
X021114Y009441D01*
X021127Y009396D01*
X021137Y009350D01*
X021143Y009304D01*
X021145Y009257D01*
X021143Y009210D01*
X021137Y009164D01*
X021127Y009118D01*
X021114Y009073D01*
X021096Y009030D01*
X021075Y008988D01*
X021051Y008948D01*
X021023Y008911D01*
X020992Y008876D01*
X020958Y008843D01*
X020922Y008814D01*
X020883Y008788D01*
X020842Y008765D01*
X020799Y008746D01*
X020755Y008730D01*
X020710Y008718D01*
X020664Y008710D01*
X020617Y008706D01*
X020571Y008706D01*
X020524Y008710D01*
X020478Y008718D01*
X020433Y008730D01*
X020389Y008746D01*
X020346Y008765D01*
X020305Y008788D01*
X020266Y008814D01*
X020230Y008843D01*
X020196Y008876D01*
X020165Y008911D01*
X020137Y008948D01*
X020113Y008988D01*
X020092Y009030D01*
X020074Y009073D01*
X020061Y009118D01*
X020051Y009164D01*
X020045Y009210D01*
X020043Y009257D01*
X027130Y009257D02*
X027132Y009304D01*
X027138Y009350D01*
X027148Y009396D01*
X027161Y009441D01*
X027179Y009484D01*
X027200Y009526D01*
X027224Y009566D01*
X027252Y009603D01*
X027283Y009638D01*
X027317Y009671D01*
X027353Y009700D01*
X027392Y009726D01*
X027433Y009749D01*
X027476Y009768D01*
X027520Y009784D01*
X027565Y009796D01*
X027611Y009804D01*
X027658Y009808D01*
X027704Y009808D01*
X027751Y009804D01*
X027797Y009796D01*
X027842Y009784D01*
X027886Y009768D01*
X027929Y009749D01*
X027970Y009726D01*
X028009Y009700D01*
X028045Y009671D01*
X028079Y009638D01*
X028110Y009603D01*
X028138Y009566D01*
X028162Y009526D01*
X028183Y009484D01*
X028201Y009441D01*
X028214Y009396D01*
X028224Y009350D01*
X028230Y009304D01*
X028232Y009257D01*
X028230Y009210D01*
X028224Y009164D01*
X028214Y009118D01*
X028201Y009073D01*
X028183Y009030D01*
X028162Y008988D01*
X028138Y008948D01*
X028110Y008911D01*
X028079Y008876D01*
X028045Y008843D01*
X028009Y008814D01*
X027970Y008788D01*
X027929Y008765D01*
X027886Y008746D01*
X027842Y008730D01*
X027797Y008718D01*
X027751Y008710D01*
X027704Y008706D01*
X027658Y008706D01*
X027611Y008710D01*
X027565Y008718D01*
X027520Y008730D01*
X027476Y008746D01*
X027433Y008765D01*
X027392Y008788D01*
X027353Y008814D01*
X027317Y008843D01*
X027283Y008876D01*
X027252Y008911D01*
X027224Y008948D01*
X027200Y008988D01*
X027179Y009030D01*
X027161Y009073D01*
X027148Y009118D01*
X027138Y009164D01*
X027132Y009210D01*
X027130Y009257D01*
M02*
