G75*
%MOIN*%
%OFA0B0*%
%FSLAX24Y24*%
%IPPOS*%
%LPD*%
%AMOC8*
5,1,8,0,0,1.08239X$1,22.5*
%
%ADD10C,0.0040*%
%ADD11C,0.0080*%
%ADD12R,0.0380X0.0660*%
%ADD13R,0.0167X0.0128*%
%ADD14R,0.0138X0.0138*%
%ADD15R,0.0598X0.0193*%
%ADD16C,0.0050*%
D10*
X023553Y012410D02*
X023860Y012410D01*
X023707Y012410D02*
X023707Y012870D01*
X023860Y012717D01*
X024014Y012794D02*
X024091Y012870D01*
X024244Y012870D01*
X024321Y012794D01*
X024321Y012487D01*
X024244Y012410D01*
X024091Y012410D01*
X024014Y012487D01*
X024474Y012410D02*
X024628Y012410D01*
X024551Y012410D02*
X024551Y012870D01*
X024628Y012870D02*
X024474Y012870D01*
X024514Y012000D02*
X024360Y012000D01*
X024283Y011924D01*
X024283Y011847D01*
X024360Y011770D01*
X024283Y011693D01*
X024283Y011617D01*
X024360Y011540D01*
X024514Y011540D01*
X024590Y011617D01*
X024744Y011540D02*
X025051Y011540D01*
X024897Y011540D02*
X024897Y012000D01*
X025051Y011847D01*
X025204Y011924D02*
X025281Y012000D01*
X025434Y012000D01*
X025511Y011924D01*
X025511Y011617D01*
X025434Y011540D01*
X025281Y011540D01*
X025204Y011617D01*
X024590Y011924D02*
X024514Y012000D01*
X024437Y011770D02*
X024360Y011770D01*
X029957Y018410D02*
X029880Y018487D01*
X029880Y018640D01*
X029957Y018717D01*
X029957Y018870D02*
X029880Y018947D01*
X029880Y019101D01*
X029957Y019177D01*
X030033Y019177D01*
X030110Y019101D01*
X030110Y018870D01*
X029957Y018870D01*
X030110Y018870D02*
X030264Y019024D01*
X030340Y019177D01*
X030421Y019402D02*
X030575Y019402D01*
X030651Y019478D01*
X030651Y019632D02*
X030498Y019709D01*
X030421Y019709D01*
X030344Y019632D01*
X030344Y019478D01*
X030421Y019402D01*
X030651Y019632D02*
X030651Y019862D01*
X030344Y019862D01*
X030958Y019862D02*
X030958Y019402D01*
X030805Y019402D02*
X031112Y019402D01*
X031265Y019478D02*
X031342Y019402D01*
X031495Y019402D01*
X031572Y019478D01*
X031572Y019785D01*
X031495Y019862D01*
X031342Y019862D01*
X031265Y019785D01*
X031112Y019709D02*
X030958Y019862D01*
X030264Y018717D02*
X030340Y018640D01*
X030340Y018487D01*
X030264Y018410D01*
X029957Y018410D01*
X030565Y021533D02*
X030718Y021533D01*
X030795Y021609D01*
X030949Y021609D02*
X031025Y021533D01*
X031179Y021533D01*
X031256Y021609D01*
X031256Y021916D01*
X031179Y021993D01*
X031025Y021993D01*
X030949Y021916D01*
X030795Y021993D02*
X030795Y021763D01*
X030642Y021840D01*
X030565Y021840D01*
X030488Y021763D01*
X030488Y021609D01*
X030565Y021533D01*
X030488Y021993D02*
X030795Y021993D01*
X023856Y029271D02*
X023703Y029271D01*
X023626Y029348D01*
X023473Y029348D02*
X023396Y029271D01*
X023242Y029271D01*
X023166Y029348D01*
X023166Y029655D01*
X023242Y029732D01*
X023396Y029732D01*
X023473Y029655D01*
X023473Y029578D01*
X023396Y029502D01*
X023166Y029502D01*
X023242Y029971D02*
X023396Y029971D01*
X023473Y030048D01*
X023166Y030355D01*
X023166Y030048D01*
X023242Y029971D01*
X023473Y030048D02*
X023473Y030355D01*
X023396Y030432D01*
X023242Y030432D01*
X023166Y030355D01*
X023626Y029971D02*
X023933Y029971D01*
X023780Y029971D02*
X023780Y030432D01*
X023933Y030278D01*
X024086Y030355D02*
X024163Y030432D01*
X024317Y030432D01*
X024393Y030355D01*
X024393Y030048D01*
X024317Y029971D01*
X024163Y029971D01*
X024086Y030048D01*
X023856Y029732D02*
X023933Y029655D01*
X023933Y029348D01*
X023856Y029271D01*
X023626Y029655D02*
X023703Y029732D01*
X023856Y029732D01*
X023784Y030551D02*
X024091Y030551D01*
X023784Y030858D01*
X023784Y030935D01*
X023861Y031012D01*
X024015Y031012D01*
X024091Y030935D01*
X024398Y031012D02*
X024398Y030551D01*
X024245Y030551D02*
X024552Y030551D01*
X024705Y030628D02*
X024782Y030551D01*
X024935Y030551D01*
X025012Y030628D01*
X025012Y030935D01*
X024935Y031012D01*
X024782Y031012D01*
X024705Y030935D01*
X024552Y030858D02*
X024398Y031012D01*
X024398Y031291D02*
X024398Y031752D01*
X024552Y031598D01*
X024705Y031675D02*
X024782Y031752D01*
X024935Y031752D01*
X025012Y031675D01*
X025012Y031368D01*
X024935Y031291D01*
X024782Y031291D01*
X024705Y031368D01*
X024552Y031291D02*
X024245Y031291D01*
X024091Y031291D02*
X023784Y031291D01*
X023938Y031291D02*
X023938Y031752D01*
X024091Y031598D01*
X021786Y029018D02*
X021709Y029018D01*
X021402Y028711D01*
X021402Y029018D01*
X021786Y029018D02*
X021863Y028941D01*
X021863Y028788D01*
X021786Y028711D01*
X021786Y028557D02*
X021863Y028481D01*
X021863Y028327D01*
X021786Y028251D01*
X021479Y028251D01*
X021402Y028327D01*
X021402Y028481D01*
X021479Y028557D01*
X021402Y028097D02*
X021402Y027944D01*
X021402Y028020D02*
X021863Y028020D01*
X021863Y027944D02*
X021863Y028097D01*
X021004Y027236D02*
X021081Y027160D01*
X021081Y026853D01*
X021004Y026776D01*
X020851Y026776D01*
X020774Y026853D01*
X020621Y026776D02*
X020314Y027083D01*
X020314Y027160D01*
X020390Y027236D01*
X020544Y027236D01*
X020621Y027160D01*
X020774Y027160D02*
X020851Y027236D01*
X021004Y027236D01*
X020621Y026776D02*
X020314Y026776D01*
X020160Y026853D02*
X019853Y027160D01*
X019853Y026853D01*
X019930Y026776D01*
X020083Y026776D01*
X020160Y026853D01*
X020160Y027160D01*
X020083Y027236D01*
X019930Y027236D01*
X019853Y027160D01*
X019773Y026223D02*
X019773Y025762D01*
X019620Y025762D02*
X019927Y025762D01*
X020080Y025839D02*
X020157Y025762D01*
X020310Y025762D01*
X020387Y025839D01*
X020387Y026146D01*
X020310Y026223D01*
X020157Y026223D01*
X020080Y026146D01*
X019927Y026069D02*
X019773Y026223D01*
X019466Y025992D02*
X019236Y025992D01*
X019159Y025916D01*
X019159Y025839D01*
X019236Y025762D01*
X019390Y025762D01*
X019466Y025839D01*
X019466Y025992D01*
X019313Y026146D01*
X019159Y026223D01*
X018005Y027450D02*
X017774Y027450D01*
X017698Y027527D01*
X017698Y027834D01*
X017774Y027911D01*
X018005Y027911D01*
X018005Y027450D01*
X017544Y027450D02*
X017237Y027450D01*
X017391Y027450D02*
X017391Y027911D01*
X017544Y027757D01*
X017064Y028030D02*
X018844Y028030D01*
X018844Y029530D02*
X017064Y029530D01*
X017500Y022795D02*
X017500Y022334D01*
X017653Y022334D02*
X017346Y022334D01*
X017653Y022641D02*
X017500Y022795D01*
X017807Y022718D02*
X017884Y022795D01*
X018037Y022795D01*
X018114Y022718D01*
X018114Y022411D01*
X018037Y022334D01*
X017884Y022334D01*
X017807Y022411D01*
X049242Y020349D02*
X049549Y020349D01*
X049549Y020119D01*
X049396Y020195D01*
X049319Y020195D01*
X049242Y020119D01*
X049242Y019965D01*
X049319Y019889D01*
X049472Y019889D01*
X049549Y019965D01*
X049703Y019965D02*
X049703Y020272D01*
X049779Y020349D01*
X050009Y020349D01*
X050009Y019889D01*
X049779Y019889D01*
X049703Y019965D01*
X050163Y019889D02*
X050470Y019889D01*
X050470Y020349D01*
X050163Y020349D01*
X050316Y020119D02*
X050470Y020119D01*
X050623Y019889D02*
X050930Y019889D01*
X050930Y020349D01*
X050930Y018429D02*
X050930Y017969D01*
X050623Y017969D01*
X050470Y017969D02*
X050470Y018429D01*
X050163Y018429D01*
X050009Y018429D02*
X050009Y017969D01*
X049779Y017969D01*
X049703Y018045D01*
X049703Y018352D01*
X049779Y018429D01*
X050009Y018429D01*
X050316Y018199D02*
X050470Y018199D01*
X050470Y017969D02*
X050163Y017969D01*
X049549Y018199D02*
X049242Y018199D01*
X049319Y017969D02*
X049319Y018429D01*
X049549Y018199D01*
X049552Y014669D02*
X049399Y014669D01*
X049322Y014592D01*
X049322Y014515D01*
X049399Y014439D01*
X049322Y014362D01*
X049322Y014285D01*
X049399Y014209D01*
X049552Y014209D01*
X049629Y014285D01*
X049783Y014285D02*
X049783Y014592D01*
X049859Y014669D01*
X050089Y014669D01*
X050089Y014209D01*
X049859Y014209D01*
X049783Y014285D01*
X049629Y014592D02*
X049552Y014669D01*
X049476Y014439D02*
X049399Y014439D01*
X050243Y014669D02*
X050550Y014669D01*
X050550Y014209D01*
X050243Y014209D01*
X050396Y014439D02*
X050550Y014439D01*
X050703Y014209D02*
X051010Y014209D01*
X051010Y014669D01*
X051010Y010749D02*
X051010Y010289D01*
X050703Y010289D01*
X050550Y010289D02*
X050550Y010749D01*
X050243Y010749D01*
X050089Y010749D02*
X049859Y010749D01*
X049783Y010672D01*
X049783Y010365D01*
X049859Y010289D01*
X050089Y010289D01*
X050089Y010749D01*
X050396Y010519D02*
X050550Y010519D01*
X050550Y010289D02*
X050243Y010289D01*
X049629Y010289D02*
X049322Y010595D01*
X049322Y010672D01*
X049399Y010749D01*
X049552Y010749D01*
X049629Y010672D01*
X049629Y010289D02*
X049322Y010289D01*
X049485Y006654D02*
X049485Y006194D01*
X049332Y006194D02*
X049639Y006194D01*
X049792Y006271D02*
X049792Y006578D01*
X049869Y006654D01*
X050099Y006654D01*
X050099Y006194D01*
X049869Y006194D01*
X049792Y006271D01*
X049639Y006501D02*
X049485Y006654D01*
X050252Y006654D02*
X050559Y006654D01*
X050559Y006194D01*
X050252Y006194D01*
X050406Y006424D02*
X050559Y006424D01*
X050713Y006194D02*
X051020Y006194D01*
X051020Y006654D01*
X050971Y023649D02*
X050664Y023649D01*
X050510Y023649D02*
X050510Y024109D01*
X050203Y024109D01*
X050050Y024109D02*
X049820Y024109D01*
X049743Y024032D01*
X049743Y023725D01*
X049820Y023649D01*
X050050Y023649D01*
X050050Y024109D01*
X050357Y023879D02*
X050510Y023879D01*
X050510Y023649D02*
X050203Y023649D01*
X049589Y023725D02*
X049589Y023879D01*
X049359Y023879D01*
X049282Y023802D01*
X049282Y023725D01*
X049359Y023649D01*
X049513Y023649D01*
X049589Y023725D01*
X049589Y023879D02*
X049436Y024032D01*
X049282Y024109D01*
X050971Y024109D02*
X050971Y023649D01*
X050971Y027569D02*
X050664Y027569D01*
X050510Y027569D02*
X050510Y028029D01*
X050203Y028029D01*
X050050Y028029D02*
X049820Y028029D01*
X049743Y027952D01*
X049743Y027645D01*
X049820Y027569D01*
X050050Y027569D01*
X050050Y028029D01*
X050357Y027799D02*
X050510Y027799D01*
X050510Y027569D02*
X050203Y027569D01*
X049589Y027569D02*
X049589Y027645D01*
X049282Y027952D01*
X049282Y028029D01*
X049589Y028029D01*
X050971Y028029D02*
X050971Y027569D01*
X050971Y031569D02*
X050664Y031569D01*
X050510Y031569D02*
X050510Y032029D01*
X050203Y032029D01*
X050050Y032029D02*
X049820Y032029D01*
X049743Y031952D01*
X049743Y031645D01*
X049820Y031569D01*
X050050Y031569D01*
X050050Y032029D01*
X050357Y031799D02*
X050510Y031799D01*
X050510Y031569D02*
X050203Y031569D01*
X049589Y031645D02*
X049589Y031722D01*
X049513Y031799D01*
X049359Y031799D01*
X049282Y031722D01*
X049282Y031645D01*
X049359Y031569D01*
X049513Y031569D01*
X049589Y031645D01*
X049513Y031799D02*
X049589Y031875D01*
X049589Y031952D01*
X049513Y032029D01*
X049359Y032029D01*
X049282Y031952D01*
X049282Y031875D01*
X049359Y031799D01*
X050971Y032029D02*
X050971Y031569D01*
D11*
X026088Y028085D02*
X022077Y028085D01*
X018030Y028387D02*
X018030Y029174D01*
X017627Y028780D01*
X018030Y028387D01*
X023463Y014885D02*
X023660Y014885D01*
X023660Y012995D01*
X025377Y012995D01*
X023660Y012995D02*
X023463Y012995D01*
X023660Y014885D02*
X025377Y014885D01*
D12*
X025082Y028381D03*
X024082Y028381D03*
X023082Y028381D03*
D13*
X049870Y028278D03*
X049870Y028819D03*
X049870Y032278D03*
X049870Y032819D03*
X049870Y024899D03*
X049870Y024358D03*
X049830Y021139D03*
X049830Y020598D03*
X049830Y019219D03*
X049830Y018678D03*
X049910Y015459D03*
X049910Y014918D03*
X049910Y011539D03*
X049910Y010998D03*
X049920Y007445D03*
X049920Y006903D03*
D14*
X049767Y007174D03*
X049758Y011269D03*
X049758Y015189D03*
X049678Y018949D03*
X049678Y020869D03*
X049718Y024629D03*
X049718Y028549D03*
X049718Y032549D03*
D15*
X025715Y014690D03*
X025715Y014190D03*
X025715Y013690D03*
X025715Y013190D03*
X023125Y013190D03*
X023125Y013690D03*
X023125Y014190D03*
X023125Y014690D03*
D16*
X020524Y013565D02*
X020224Y013565D01*
X020374Y013565D02*
X020374Y014015D01*
X020524Y013865D01*
X020684Y013790D02*
X020759Y013715D01*
X020985Y013715D01*
X020985Y013565D02*
X020985Y014015D01*
X020759Y014015D01*
X020684Y013940D01*
X020684Y013790D01*
X021145Y014015D02*
X021445Y014015D01*
X021295Y014015D02*
X021295Y013565D01*
X021295Y014445D02*
X021295Y014895D01*
X021445Y014895D02*
X021145Y014895D01*
X020985Y014895D02*
X020759Y014895D01*
X020684Y014820D01*
X020684Y014670D01*
X020759Y014595D01*
X020985Y014595D01*
X020985Y014445D02*
X020985Y014895D01*
X020985Y015165D02*
X020985Y015615D01*
X020759Y015615D01*
X020684Y015540D01*
X020684Y015390D01*
X020759Y015315D01*
X020985Y015315D01*
X021145Y015615D02*
X021445Y015615D01*
X021295Y015615D02*
X021295Y015165D01*
X021295Y015965D02*
X021295Y016415D01*
X021445Y016415D02*
X021145Y016415D01*
X020985Y016415D02*
X020759Y016415D01*
X020684Y016340D01*
X020684Y016190D01*
X020759Y016115D01*
X020985Y016115D01*
X020985Y015965D02*
X020985Y016415D01*
X020524Y016190D02*
X020224Y016190D01*
X020299Y015965D02*
X020299Y016415D01*
X020524Y016190D01*
X020449Y015615D02*
X020299Y015615D01*
X020224Y015540D01*
X020224Y015465D01*
X020299Y015390D01*
X020224Y015315D01*
X020224Y015240D01*
X020299Y015165D01*
X020449Y015165D01*
X020524Y015240D01*
X020374Y015390D02*
X020299Y015390D01*
X020524Y015540D02*
X020449Y015615D01*
X020449Y014895D02*
X020524Y014820D01*
X020449Y014895D02*
X020299Y014895D01*
X020224Y014820D01*
X020224Y014745D01*
X020524Y014445D01*
X020224Y014445D01*
M02*
