G75*
%MOIN*%
%OFA0B0*%
%FSLAX25Y25*%
%IPPOS*%
%LPD*%
%AMOC8*
5,1,8,0,0,1.08239X$1,22.5*
%
%ADD10C,0.00600*%
%ADD11R,0.01280X0.01673*%
%ADD12R,0.01378X0.01378*%
%ADD13C,0.00800*%
%ADD14C,0.00500*%
%ADD15C,0.01433*%
%ADD16C,0.00400*%
%ADD17C,0.00300*%
%ADD18C,0.01000*%
%ADD19R,0.00984X0.01378*%
%ADD20R,0.01378X0.00984*%
%ADD21C,0.01114*%
%ADD22C,0.00700*%
D10*
X0078400Y0092500D02*
X0083400Y0092500D01*
X0085900Y0095000D01*
X0088400Y0092500D01*
X0093400Y0092500D01*
X0095900Y0095000D01*
X0098400Y0092500D01*
X0103400Y0092500D01*
X0105900Y0095000D01*
X0108400Y0092500D01*
X0113400Y0092500D01*
X0115900Y0095000D01*
X0115900Y0100000D01*
X0113400Y0102500D01*
X0108400Y0102500D01*
X0105900Y0100000D01*
X0103400Y0102500D01*
X0098400Y0102500D01*
X0095900Y0100000D01*
X0093400Y0102500D01*
X0088400Y0102500D01*
X0085900Y0100000D01*
X0083400Y0102500D01*
X0078400Y0102500D01*
X0075900Y0100000D01*
X0075900Y0095000D01*
X0078400Y0092500D01*
X0190036Y0195732D02*
X0192511Y0193257D01*
X0194986Y0195732D01*
X0194279Y0196863D02*
X0190743Y0196863D01*
X0166560Y0219208D02*
X0164085Y0221683D01*
X0166560Y0224158D01*
X0190036Y0247633D02*
X0192511Y0250108D01*
X0194986Y0247633D01*
X0218462Y0224158D02*
X0220937Y0221683D01*
X0218462Y0219208D01*
X0218947Y0139826D02*
X0210947Y0139826D01*
X0209947Y0138826D01*
X0208947Y0139826D01*
X0200947Y0139826D01*
X0199947Y0138826D01*
X0199947Y0130826D01*
X0200947Y0129826D01*
X0208947Y0129826D01*
X0209947Y0130826D01*
X0210947Y0129826D01*
X0218947Y0129826D01*
X0219947Y0130826D01*
X0219947Y0138826D01*
X0218947Y0139826D01*
X0235500Y0103100D02*
X0235503Y0103345D01*
X0235512Y0103591D01*
X0235527Y0103836D01*
X0235548Y0104080D01*
X0235575Y0104324D01*
X0235608Y0104567D01*
X0235647Y0104810D01*
X0235692Y0105051D01*
X0235743Y0105291D01*
X0235800Y0105530D01*
X0235862Y0105767D01*
X0235931Y0106003D01*
X0236005Y0106237D01*
X0236085Y0106469D01*
X0236170Y0106699D01*
X0236261Y0106927D01*
X0236358Y0107152D01*
X0236460Y0107376D01*
X0236568Y0107596D01*
X0236681Y0107814D01*
X0236799Y0108029D01*
X0236923Y0108241D01*
X0237051Y0108450D01*
X0237185Y0108656D01*
X0237324Y0108858D01*
X0237468Y0109057D01*
X0237617Y0109252D01*
X0237770Y0109444D01*
X0237928Y0109632D01*
X0238090Y0109816D01*
X0238258Y0109995D01*
X0238429Y0110171D01*
X0238605Y0110342D01*
X0238784Y0110510D01*
X0238968Y0110672D01*
X0239156Y0110830D01*
X0239348Y0110983D01*
X0239543Y0111132D01*
X0239742Y0111276D01*
X0239944Y0111415D01*
X0240150Y0111549D01*
X0240359Y0111677D01*
X0240571Y0111801D01*
X0240786Y0111919D01*
X0241004Y0112032D01*
X0241224Y0112140D01*
X0241448Y0112242D01*
X0241673Y0112339D01*
X0241901Y0112430D01*
X0242131Y0112515D01*
X0242363Y0112595D01*
X0242597Y0112669D01*
X0242833Y0112738D01*
X0243070Y0112800D01*
X0243309Y0112857D01*
X0243549Y0112908D01*
X0243790Y0112953D01*
X0244033Y0112992D01*
X0244276Y0113025D01*
X0244520Y0113052D01*
X0244764Y0113073D01*
X0245009Y0113088D01*
X0245255Y0113097D01*
X0245500Y0113100D01*
X0245745Y0113097D01*
X0245991Y0113088D01*
X0246236Y0113073D01*
X0246480Y0113052D01*
X0246724Y0113025D01*
X0246967Y0112992D01*
X0247210Y0112953D01*
X0247451Y0112908D01*
X0247691Y0112857D01*
X0247930Y0112800D01*
X0248167Y0112738D01*
X0248403Y0112669D01*
X0248637Y0112595D01*
X0248869Y0112515D01*
X0249099Y0112430D01*
X0249327Y0112339D01*
X0249552Y0112242D01*
X0249776Y0112140D01*
X0249996Y0112032D01*
X0250214Y0111919D01*
X0250429Y0111801D01*
X0250641Y0111677D01*
X0250850Y0111549D01*
X0251056Y0111415D01*
X0251258Y0111276D01*
X0251457Y0111132D01*
X0251652Y0110983D01*
X0251844Y0110830D01*
X0252032Y0110672D01*
X0252216Y0110510D01*
X0252395Y0110342D01*
X0252571Y0110171D01*
X0252742Y0109995D01*
X0252910Y0109816D01*
X0253072Y0109632D01*
X0253230Y0109444D01*
X0253383Y0109252D01*
X0253532Y0109057D01*
X0253676Y0108858D01*
X0253815Y0108656D01*
X0253949Y0108450D01*
X0254077Y0108241D01*
X0254201Y0108029D01*
X0254319Y0107814D01*
X0254432Y0107596D01*
X0254540Y0107376D01*
X0254642Y0107152D01*
X0254739Y0106927D01*
X0254830Y0106699D01*
X0254915Y0106469D01*
X0254995Y0106237D01*
X0255069Y0106003D01*
X0255138Y0105767D01*
X0255200Y0105530D01*
X0255257Y0105291D01*
X0255308Y0105051D01*
X0255353Y0104810D01*
X0255392Y0104567D01*
X0255425Y0104324D01*
X0255452Y0104080D01*
X0255473Y0103836D01*
X0255488Y0103591D01*
X0255497Y0103345D01*
X0255500Y0103100D01*
X0255497Y0102855D01*
X0255488Y0102609D01*
X0255473Y0102364D01*
X0255452Y0102120D01*
X0255425Y0101876D01*
X0255392Y0101633D01*
X0255353Y0101390D01*
X0255308Y0101149D01*
X0255257Y0100909D01*
X0255200Y0100670D01*
X0255138Y0100433D01*
X0255069Y0100197D01*
X0254995Y0099963D01*
X0254915Y0099731D01*
X0254830Y0099501D01*
X0254739Y0099273D01*
X0254642Y0099048D01*
X0254540Y0098824D01*
X0254432Y0098604D01*
X0254319Y0098386D01*
X0254201Y0098171D01*
X0254077Y0097959D01*
X0253949Y0097750D01*
X0253815Y0097544D01*
X0253676Y0097342D01*
X0253532Y0097143D01*
X0253383Y0096948D01*
X0253230Y0096756D01*
X0253072Y0096568D01*
X0252910Y0096384D01*
X0252742Y0096205D01*
X0252571Y0096029D01*
X0252395Y0095858D01*
X0252216Y0095690D01*
X0252032Y0095528D01*
X0251844Y0095370D01*
X0251652Y0095217D01*
X0251457Y0095068D01*
X0251258Y0094924D01*
X0251056Y0094785D01*
X0250850Y0094651D01*
X0250641Y0094523D01*
X0250429Y0094399D01*
X0250214Y0094281D01*
X0249996Y0094168D01*
X0249776Y0094060D01*
X0249552Y0093958D01*
X0249327Y0093861D01*
X0249099Y0093770D01*
X0248869Y0093685D01*
X0248637Y0093605D01*
X0248403Y0093531D01*
X0248167Y0093462D01*
X0247930Y0093400D01*
X0247691Y0093343D01*
X0247451Y0093292D01*
X0247210Y0093247D01*
X0246967Y0093208D01*
X0246724Y0093175D01*
X0246480Y0093148D01*
X0246236Y0093127D01*
X0245991Y0093112D01*
X0245745Y0093103D01*
X0245500Y0093100D01*
X0245255Y0093103D01*
X0245009Y0093112D01*
X0244764Y0093127D01*
X0244520Y0093148D01*
X0244276Y0093175D01*
X0244033Y0093208D01*
X0243790Y0093247D01*
X0243549Y0093292D01*
X0243309Y0093343D01*
X0243070Y0093400D01*
X0242833Y0093462D01*
X0242597Y0093531D01*
X0242363Y0093605D01*
X0242131Y0093685D01*
X0241901Y0093770D01*
X0241673Y0093861D01*
X0241448Y0093958D01*
X0241224Y0094060D01*
X0241004Y0094168D01*
X0240786Y0094281D01*
X0240571Y0094399D01*
X0240359Y0094523D01*
X0240150Y0094651D01*
X0239944Y0094785D01*
X0239742Y0094924D01*
X0239543Y0095068D01*
X0239348Y0095217D01*
X0239156Y0095370D01*
X0238968Y0095528D01*
X0238784Y0095690D01*
X0238605Y0095858D01*
X0238429Y0096029D01*
X0238258Y0096205D01*
X0238090Y0096384D01*
X0237928Y0096568D01*
X0237770Y0096756D01*
X0237617Y0096948D01*
X0237468Y0097143D01*
X0237324Y0097342D01*
X0237185Y0097544D01*
X0237051Y0097750D01*
X0236923Y0097959D01*
X0236799Y0098171D01*
X0236681Y0098386D01*
X0236568Y0098604D01*
X0236460Y0098824D01*
X0236358Y0099048D01*
X0236261Y0099273D01*
X0236170Y0099501D01*
X0236085Y0099731D01*
X0236005Y0099963D01*
X0235931Y0100197D01*
X0235862Y0100433D01*
X0235800Y0100670D01*
X0235743Y0100909D01*
X0235692Y0101149D01*
X0235647Y0101390D01*
X0235608Y0101633D01*
X0235575Y0101876D01*
X0235548Y0102120D01*
X0235527Y0102364D01*
X0235512Y0102609D01*
X0235503Y0102855D01*
X0235500Y0103100D01*
X0260300Y0104700D02*
X0260303Y0104945D01*
X0260312Y0105191D01*
X0260327Y0105436D01*
X0260348Y0105680D01*
X0260375Y0105924D01*
X0260408Y0106167D01*
X0260447Y0106410D01*
X0260492Y0106651D01*
X0260543Y0106891D01*
X0260600Y0107130D01*
X0260662Y0107367D01*
X0260731Y0107603D01*
X0260805Y0107837D01*
X0260885Y0108069D01*
X0260970Y0108299D01*
X0261061Y0108527D01*
X0261158Y0108752D01*
X0261260Y0108976D01*
X0261368Y0109196D01*
X0261481Y0109414D01*
X0261599Y0109629D01*
X0261723Y0109841D01*
X0261851Y0110050D01*
X0261985Y0110256D01*
X0262124Y0110458D01*
X0262268Y0110657D01*
X0262417Y0110852D01*
X0262570Y0111044D01*
X0262728Y0111232D01*
X0262890Y0111416D01*
X0263058Y0111595D01*
X0263229Y0111771D01*
X0263405Y0111942D01*
X0263584Y0112110D01*
X0263768Y0112272D01*
X0263956Y0112430D01*
X0264148Y0112583D01*
X0264343Y0112732D01*
X0264542Y0112876D01*
X0264744Y0113015D01*
X0264950Y0113149D01*
X0265159Y0113277D01*
X0265371Y0113401D01*
X0265586Y0113519D01*
X0265804Y0113632D01*
X0266024Y0113740D01*
X0266248Y0113842D01*
X0266473Y0113939D01*
X0266701Y0114030D01*
X0266931Y0114115D01*
X0267163Y0114195D01*
X0267397Y0114269D01*
X0267633Y0114338D01*
X0267870Y0114400D01*
X0268109Y0114457D01*
X0268349Y0114508D01*
X0268590Y0114553D01*
X0268833Y0114592D01*
X0269076Y0114625D01*
X0269320Y0114652D01*
X0269564Y0114673D01*
X0269809Y0114688D01*
X0270055Y0114697D01*
X0270300Y0114700D01*
X0270545Y0114697D01*
X0270791Y0114688D01*
X0271036Y0114673D01*
X0271280Y0114652D01*
X0271524Y0114625D01*
X0271767Y0114592D01*
X0272010Y0114553D01*
X0272251Y0114508D01*
X0272491Y0114457D01*
X0272730Y0114400D01*
X0272967Y0114338D01*
X0273203Y0114269D01*
X0273437Y0114195D01*
X0273669Y0114115D01*
X0273899Y0114030D01*
X0274127Y0113939D01*
X0274352Y0113842D01*
X0274576Y0113740D01*
X0274796Y0113632D01*
X0275014Y0113519D01*
X0275229Y0113401D01*
X0275441Y0113277D01*
X0275650Y0113149D01*
X0275856Y0113015D01*
X0276058Y0112876D01*
X0276257Y0112732D01*
X0276452Y0112583D01*
X0276644Y0112430D01*
X0276832Y0112272D01*
X0277016Y0112110D01*
X0277195Y0111942D01*
X0277371Y0111771D01*
X0277542Y0111595D01*
X0277710Y0111416D01*
X0277872Y0111232D01*
X0278030Y0111044D01*
X0278183Y0110852D01*
X0278332Y0110657D01*
X0278476Y0110458D01*
X0278615Y0110256D01*
X0278749Y0110050D01*
X0278877Y0109841D01*
X0279001Y0109629D01*
X0279119Y0109414D01*
X0279232Y0109196D01*
X0279340Y0108976D01*
X0279442Y0108752D01*
X0279539Y0108527D01*
X0279630Y0108299D01*
X0279715Y0108069D01*
X0279795Y0107837D01*
X0279869Y0107603D01*
X0279938Y0107367D01*
X0280000Y0107130D01*
X0280057Y0106891D01*
X0280108Y0106651D01*
X0280153Y0106410D01*
X0280192Y0106167D01*
X0280225Y0105924D01*
X0280252Y0105680D01*
X0280273Y0105436D01*
X0280288Y0105191D01*
X0280297Y0104945D01*
X0280300Y0104700D01*
X0280297Y0104455D01*
X0280288Y0104209D01*
X0280273Y0103964D01*
X0280252Y0103720D01*
X0280225Y0103476D01*
X0280192Y0103233D01*
X0280153Y0102990D01*
X0280108Y0102749D01*
X0280057Y0102509D01*
X0280000Y0102270D01*
X0279938Y0102033D01*
X0279869Y0101797D01*
X0279795Y0101563D01*
X0279715Y0101331D01*
X0279630Y0101101D01*
X0279539Y0100873D01*
X0279442Y0100648D01*
X0279340Y0100424D01*
X0279232Y0100204D01*
X0279119Y0099986D01*
X0279001Y0099771D01*
X0278877Y0099559D01*
X0278749Y0099350D01*
X0278615Y0099144D01*
X0278476Y0098942D01*
X0278332Y0098743D01*
X0278183Y0098548D01*
X0278030Y0098356D01*
X0277872Y0098168D01*
X0277710Y0097984D01*
X0277542Y0097805D01*
X0277371Y0097629D01*
X0277195Y0097458D01*
X0277016Y0097290D01*
X0276832Y0097128D01*
X0276644Y0096970D01*
X0276452Y0096817D01*
X0276257Y0096668D01*
X0276058Y0096524D01*
X0275856Y0096385D01*
X0275650Y0096251D01*
X0275441Y0096123D01*
X0275229Y0095999D01*
X0275014Y0095881D01*
X0274796Y0095768D01*
X0274576Y0095660D01*
X0274352Y0095558D01*
X0274127Y0095461D01*
X0273899Y0095370D01*
X0273669Y0095285D01*
X0273437Y0095205D01*
X0273203Y0095131D01*
X0272967Y0095062D01*
X0272730Y0095000D01*
X0272491Y0094943D01*
X0272251Y0094892D01*
X0272010Y0094847D01*
X0271767Y0094808D01*
X0271524Y0094775D01*
X0271280Y0094748D01*
X0271036Y0094727D01*
X0270791Y0094712D01*
X0270545Y0094703D01*
X0270300Y0094700D01*
X0270055Y0094703D01*
X0269809Y0094712D01*
X0269564Y0094727D01*
X0269320Y0094748D01*
X0269076Y0094775D01*
X0268833Y0094808D01*
X0268590Y0094847D01*
X0268349Y0094892D01*
X0268109Y0094943D01*
X0267870Y0095000D01*
X0267633Y0095062D01*
X0267397Y0095131D01*
X0267163Y0095205D01*
X0266931Y0095285D01*
X0266701Y0095370D01*
X0266473Y0095461D01*
X0266248Y0095558D01*
X0266024Y0095660D01*
X0265804Y0095768D01*
X0265586Y0095881D01*
X0265371Y0095999D01*
X0265159Y0096123D01*
X0264950Y0096251D01*
X0264744Y0096385D01*
X0264542Y0096524D01*
X0264343Y0096668D01*
X0264148Y0096817D01*
X0263956Y0096970D01*
X0263768Y0097128D01*
X0263584Y0097290D01*
X0263405Y0097458D01*
X0263229Y0097629D01*
X0263058Y0097805D01*
X0262890Y0097984D01*
X0262728Y0098168D01*
X0262570Y0098356D01*
X0262417Y0098548D01*
X0262268Y0098743D01*
X0262124Y0098942D01*
X0261985Y0099144D01*
X0261851Y0099350D01*
X0261723Y0099559D01*
X0261599Y0099771D01*
X0261481Y0099986D01*
X0261368Y0100204D01*
X0261260Y0100424D01*
X0261158Y0100648D01*
X0261061Y0100873D01*
X0260970Y0101101D01*
X0260885Y0101331D01*
X0260805Y0101563D01*
X0260731Y0101797D01*
X0260662Y0102033D01*
X0260600Y0102270D01*
X0260543Y0102509D01*
X0260492Y0102749D01*
X0260447Y0102990D01*
X0260408Y0103233D01*
X0260375Y0103476D01*
X0260348Y0103720D01*
X0260327Y0103964D01*
X0260312Y0104209D01*
X0260303Y0104455D01*
X0260300Y0104700D01*
X0358200Y0211100D02*
X0355700Y0213600D01*
X0355700Y0218600D01*
X0358200Y0221100D01*
X0355700Y0223600D01*
X0355700Y0228600D01*
X0358200Y0231100D01*
X0355700Y0233600D01*
X0355700Y0238600D01*
X0358200Y0241100D01*
X0355700Y0243600D01*
X0355700Y0248600D01*
X0358200Y0251100D01*
X0363200Y0251100D01*
X0365700Y0248600D01*
X0365700Y0243600D01*
X0363200Y0241100D01*
X0365700Y0238600D01*
X0365700Y0233600D01*
X0363200Y0231100D01*
X0365700Y0228600D01*
X0365700Y0223600D01*
X0363200Y0221100D01*
X0365700Y0218600D01*
X0365700Y0213600D01*
X0363200Y0211100D01*
X0358200Y0211100D01*
X0363500Y0217500D02*
X0363503Y0217745D01*
X0363512Y0217991D01*
X0363527Y0218236D01*
X0363548Y0218480D01*
X0363575Y0218724D01*
X0363608Y0218967D01*
X0363647Y0219210D01*
X0363692Y0219451D01*
X0363743Y0219691D01*
X0363800Y0219930D01*
X0363862Y0220167D01*
X0363931Y0220403D01*
X0364005Y0220637D01*
X0364085Y0220869D01*
X0364170Y0221099D01*
X0364261Y0221327D01*
X0364358Y0221552D01*
X0364460Y0221776D01*
X0364568Y0221996D01*
X0364681Y0222214D01*
X0364799Y0222429D01*
X0364923Y0222641D01*
X0365051Y0222850D01*
X0365185Y0223056D01*
X0365324Y0223258D01*
X0365468Y0223457D01*
X0365617Y0223652D01*
X0365770Y0223844D01*
X0365928Y0224032D01*
X0366090Y0224216D01*
X0366258Y0224395D01*
X0366429Y0224571D01*
X0366605Y0224742D01*
X0366784Y0224910D01*
X0366968Y0225072D01*
X0367156Y0225230D01*
X0367348Y0225383D01*
X0367543Y0225532D01*
X0367742Y0225676D01*
X0367944Y0225815D01*
X0368150Y0225949D01*
X0368359Y0226077D01*
X0368571Y0226201D01*
X0368786Y0226319D01*
X0369004Y0226432D01*
X0369224Y0226540D01*
X0369448Y0226642D01*
X0369673Y0226739D01*
X0369901Y0226830D01*
X0370131Y0226915D01*
X0370363Y0226995D01*
X0370597Y0227069D01*
X0370833Y0227138D01*
X0371070Y0227200D01*
X0371309Y0227257D01*
X0371549Y0227308D01*
X0371790Y0227353D01*
X0372033Y0227392D01*
X0372276Y0227425D01*
X0372520Y0227452D01*
X0372764Y0227473D01*
X0373009Y0227488D01*
X0373255Y0227497D01*
X0373500Y0227500D01*
X0373745Y0227497D01*
X0373991Y0227488D01*
X0374236Y0227473D01*
X0374480Y0227452D01*
X0374724Y0227425D01*
X0374967Y0227392D01*
X0375210Y0227353D01*
X0375451Y0227308D01*
X0375691Y0227257D01*
X0375930Y0227200D01*
X0376167Y0227138D01*
X0376403Y0227069D01*
X0376637Y0226995D01*
X0376869Y0226915D01*
X0377099Y0226830D01*
X0377327Y0226739D01*
X0377552Y0226642D01*
X0377776Y0226540D01*
X0377996Y0226432D01*
X0378214Y0226319D01*
X0378429Y0226201D01*
X0378641Y0226077D01*
X0378850Y0225949D01*
X0379056Y0225815D01*
X0379258Y0225676D01*
X0379457Y0225532D01*
X0379652Y0225383D01*
X0379844Y0225230D01*
X0380032Y0225072D01*
X0380216Y0224910D01*
X0380395Y0224742D01*
X0380571Y0224571D01*
X0380742Y0224395D01*
X0380910Y0224216D01*
X0381072Y0224032D01*
X0381230Y0223844D01*
X0381383Y0223652D01*
X0381532Y0223457D01*
X0381676Y0223258D01*
X0381815Y0223056D01*
X0381949Y0222850D01*
X0382077Y0222641D01*
X0382201Y0222429D01*
X0382319Y0222214D01*
X0382432Y0221996D01*
X0382540Y0221776D01*
X0382642Y0221552D01*
X0382739Y0221327D01*
X0382830Y0221099D01*
X0382915Y0220869D01*
X0382995Y0220637D01*
X0383069Y0220403D01*
X0383138Y0220167D01*
X0383200Y0219930D01*
X0383257Y0219691D01*
X0383308Y0219451D01*
X0383353Y0219210D01*
X0383392Y0218967D01*
X0383425Y0218724D01*
X0383452Y0218480D01*
X0383473Y0218236D01*
X0383488Y0217991D01*
X0383497Y0217745D01*
X0383500Y0217500D01*
X0383497Y0217255D01*
X0383488Y0217009D01*
X0383473Y0216764D01*
X0383452Y0216520D01*
X0383425Y0216276D01*
X0383392Y0216033D01*
X0383353Y0215790D01*
X0383308Y0215549D01*
X0383257Y0215309D01*
X0383200Y0215070D01*
X0383138Y0214833D01*
X0383069Y0214597D01*
X0382995Y0214363D01*
X0382915Y0214131D01*
X0382830Y0213901D01*
X0382739Y0213673D01*
X0382642Y0213448D01*
X0382540Y0213224D01*
X0382432Y0213004D01*
X0382319Y0212786D01*
X0382201Y0212571D01*
X0382077Y0212359D01*
X0381949Y0212150D01*
X0381815Y0211944D01*
X0381676Y0211742D01*
X0381532Y0211543D01*
X0381383Y0211348D01*
X0381230Y0211156D01*
X0381072Y0210968D01*
X0380910Y0210784D01*
X0380742Y0210605D01*
X0380571Y0210429D01*
X0380395Y0210258D01*
X0380216Y0210090D01*
X0380032Y0209928D01*
X0379844Y0209770D01*
X0379652Y0209617D01*
X0379457Y0209468D01*
X0379258Y0209324D01*
X0379056Y0209185D01*
X0378850Y0209051D01*
X0378641Y0208923D01*
X0378429Y0208799D01*
X0378214Y0208681D01*
X0377996Y0208568D01*
X0377776Y0208460D01*
X0377552Y0208358D01*
X0377327Y0208261D01*
X0377099Y0208170D01*
X0376869Y0208085D01*
X0376637Y0208005D01*
X0376403Y0207931D01*
X0376167Y0207862D01*
X0375930Y0207800D01*
X0375691Y0207743D01*
X0375451Y0207692D01*
X0375210Y0207647D01*
X0374967Y0207608D01*
X0374724Y0207575D01*
X0374480Y0207548D01*
X0374236Y0207527D01*
X0373991Y0207512D01*
X0373745Y0207503D01*
X0373500Y0207500D01*
X0373255Y0207503D01*
X0373009Y0207512D01*
X0372764Y0207527D01*
X0372520Y0207548D01*
X0372276Y0207575D01*
X0372033Y0207608D01*
X0371790Y0207647D01*
X0371549Y0207692D01*
X0371309Y0207743D01*
X0371070Y0207800D01*
X0370833Y0207862D01*
X0370597Y0207931D01*
X0370363Y0208005D01*
X0370131Y0208085D01*
X0369901Y0208170D01*
X0369673Y0208261D01*
X0369448Y0208358D01*
X0369224Y0208460D01*
X0369004Y0208568D01*
X0368786Y0208681D01*
X0368571Y0208799D01*
X0368359Y0208923D01*
X0368150Y0209051D01*
X0367944Y0209185D01*
X0367742Y0209324D01*
X0367543Y0209468D01*
X0367348Y0209617D01*
X0367156Y0209770D01*
X0366968Y0209928D01*
X0366784Y0210090D01*
X0366605Y0210258D01*
X0366429Y0210429D01*
X0366258Y0210605D01*
X0366090Y0210784D01*
X0365928Y0210968D01*
X0365770Y0211156D01*
X0365617Y0211348D01*
X0365468Y0211543D01*
X0365324Y0211742D01*
X0365185Y0211944D01*
X0365051Y0212150D01*
X0364923Y0212359D01*
X0364799Y0212571D01*
X0364681Y0212786D01*
X0364568Y0213004D01*
X0364460Y0213224D01*
X0364358Y0213448D01*
X0364261Y0213673D01*
X0364170Y0213901D01*
X0364085Y0214131D01*
X0364005Y0214363D01*
X0363931Y0214597D01*
X0363862Y0214833D01*
X0363800Y0215070D01*
X0363743Y0215309D01*
X0363692Y0215549D01*
X0363647Y0215790D01*
X0363608Y0216033D01*
X0363575Y0216276D01*
X0363548Y0216520D01*
X0363527Y0216764D01*
X0363512Y0217009D01*
X0363503Y0217255D01*
X0363500Y0217500D01*
X0364300Y0247900D02*
X0364303Y0248145D01*
X0364312Y0248391D01*
X0364327Y0248636D01*
X0364348Y0248880D01*
X0364375Y0249124D01*
X0364408Y0249367D01*
X0364447Y0249610D01*
X0364492Y0249851D01*
X0364543Y0250091D01*
X0364600Y0250330D01*
X0364662Y0250567D01*
X0364731Y0250803D01*
X0364805Y0251037D01*
X0364885Y0251269D01*
X0364970Y0251499D01*
X0365061Y0251727D01*
X0365158Y0251952D01*
X0365260Y0252176D01*
X0365368Y0252396D01*
X0365481Y0252614D01*
X0365599Y0252829D01*
X0365723Y0253041D01*
X0365851Y0253250D01*
X0365985Y0253456D01*
X0366124Y0253658D01*
X0366268Y0253857D01*
X0366417Y0254052D01*
X0366570Y0254244D01*
X0366728Y0254432D01*
X0366890Y0254616D01*
X0367058Y0254795D01*
X0367229Y0254971D01*
X0367405Y0255142D01*
X0367584Y0255310D01*
X0367768Y0255472D01*
X0367956Y0255630D01*
X0368148Y0255783D01*
X0368343Y0255932D01*
X0368542Y0256076D01*
X0368744Y0256215D01*
X0368950Y0256349D01*
X0369159Y0256477D01*
X0369371Y0256601D01*
X0369586Y0256719D01*
X0369804Y0256832D01*
X0370024Y0256940D01*
X0370248Y0257042D01*
X0370473Y0257139D01*
X0370701Y0257230D01*
X0370931Y0257315D01*
X0371163Y0257395D01*
X0371397Y0257469D01*
X0371633Y0257538D01*
X0371870Y0257600D01*
X0372109Y0257657D01*
X0372349Y0257708D01*
X0372590Y0257753D01*
X0372833Y0257792D01*
X0373076Y0257825D01*
X0373320Y0257852D01*
X0373564Y0257873D01*
X0373809Y0257888D01*
X0374055Y0257897D01*
X0374300Y0257900D01*
X0374545Y0257897D01*
X0374791Y0257888D01*
X0375036Y0257873D01*
X0375280Y0257852D01*
X0375524Y0257825D01*
X0375767Y0257792D01*
X0376010Y0257753D01*
X0376251Y0257708D01*
X0376491Y0257657D01*
X0376730Y0257600D01*
X0376967Y0257538D01*
X0377203Y0257469D01*
X0377437Y0257395D01*
X0377669Y0257315D01*
X0377899Y0257230D01*
X0378127Y0257139D01*
X0378352Y0257042D01*
X0378576Y0256940D01*
X0378796Y0256832D01*
X0379014Y0256719D01*
X0379229Y0256601D01*
X0379441Y0256477D01*
X0379650Y0256349D01*
X0379856Y0256215D01*
X0380058Y0256076D01*
X0380257Y0255932D01*
X0380452Y0255783D01*
X0380644Y0255630D01*
X0380832Y0255472D01*
X0381016Y0255310D01*
X0381195Y0255142D01*
X0381371Y0254971D01*
X0381542Y0254795D01*
X0381710Y0254616D01*
X0381872Y0254432D01*
X0382030Y0254244D01*
X0382183Y0254052D01*
X0382332Y0253857D01*
X0382476Y0253658D01*
X0382615Y0253456D01*
X0382749Y0253250D01*
X0382877Y0253041D01*
X0383001Y0252829D01*
X0383119Y0252614D01*
X0383232Y0252396D01*
X0383340Y0252176D01*
X0383442Y0251952D01*
X0383539Y0251727D01*
X0383630Y0251499D01*
X0383715Y0251269D01*
X0383795Y0251037D01*
X0383869Y0250803D01*
X0383938Y0250567D01*
X0384000Y0250330D01*
X0384057Y0250091D01*
X0384108Y0249851D01*
X0384153Y0249610D01*
X0384192Y0249367D01*
X0384225Y0249124D01*
X0384252Y0248880D01*
X0384273Y0248636D01*
X0384288Y0248391D01*
X0384297Y0248145D01*
X0384300Y0247900D01*
X0384297Y0247655D01*
X0384288Y0247409D01*
X0384273Y0247164D01*
X0384252Y0246920D01*
X0384225Y0246676D01*
X0384192Y0246433D01*
X0384153Y0246190D01*
X0384108Y0245949D01*
X0384057Y0245709D01*
X0384000Y0245470D01*
X0383938Y0245233D01*
X0383869Y0244997D01*
X0383795Y0244763D01*
X0383715Y0244531D01*
X0383630Y0244301D01*
X0383539Y0244073D01*
X0383442Y0243848D01*
X0383340Y0243624D01*
X0383232Y0243404D01*
X0383119Y0243186D01*
X0383001Y0242971D01*
X0382877Y0242759D01*
X0382749Y0242550D01*
X0382615Y0242344D01*
X0382476Y0242142D01*
X0382332Y0241943D01*
X0382183Y0241748D01*
X0382030Y0241556D01*
X0381872Y0241368D01*
X0381710Y0241184D01*
X0381542Y0241005D01*
X0381371Y0240829D01*
X0381195Y0240658D01*
X0381016Y0240490D01*
X0380832Y0240328D01*
X0380644Y0240170D01*
X0380452Y0240017D01*
X0380257Y0239868D01*
X0380058Y0239724D01*
X0379856Y0239585D01*
X0379650Y0239451D01*
X0379441Y0239323D01*
X0379229Y0239199D01*
X0379014Y0239081D01*
X0378796Y0238968D01*
X0378576Y0238860D01*
X0378352Y0238758D01*
X0378127Y0238661D01*
X0377899Y0238570D01*
X0377669Y0238485D01*
X0377437Y0238405D01*
X0377203Y0238331D01*
X0376967Y0238262D01*
X0376730Y0238200D01*
X0376491Y0238143D01*
X0376251Y0238092D01*
X0376010Y0238047D01*
X0375767Y0238008D01*
X0375524Y0237975D01*
X0375280Y0237948D01*
X0375036Y0237927D01*
X0374791Y0237912D01*
X0374545Y0237903D01*
X0374300Y0237900D01*
X0374055Y0237903D01*
X0373809Y0237912D01*
X0373564Y0237927D01*
X0373320Y0237948D01*
X0373076Y0237975D01*
X0372833Y0238008D01*
X0372590Y0238047D01*
X0372349Y0238092D01*
X0372109Y0238143D01*
X0371870Y0238200D01*
X0371633Y0238262D01*
X0371397Y0238331D01*
X0371163Y0238405D01*
X0370931Y0238485D01*
X0370701Y0238570D01*
X0370473Y0238661D01*
X0370248Y0238758D01*
X0370024Y0238860D01*
X0369804Y0238968D01*
X0369586Y0239081D01*
X0369371Y0239199D01*
X0369159Y0239323D01*
X0368950Y0239451D01*
X0368744Y0239585D01*
X0368542Y0239724D01*
X0368343Y0239868D01*
X0368148Y0240017D01*
X0367956Y0240170D01*
X0367768Y0240328D01*
X0367584Y0240490D01*
X0367405Y0240658D01*
X0367229Y0240829D01*
X0367058Y0241005D01*
X0366890Y0241184D01*
X0366728Y0241368D01*
X0366570Y0241556D01*
X0366417Y0241748D01*
X0366268Y0241943D01*
X0366124Y0242142D01*
X0365985Y0242344D01*
X0365851Y0242550D01*
X0365723Y0242759D01*
X0365599Y0242971D01*
X0365481Y0243186D01*
X0365368Y0243404D01*
X0365260Y0243624D01*
X0365158Y0243848D01*
X0365061Y0244073D01*
X0364970Y0244301D01*
X0364885Y0244531D01*
X0364805Y0244763D01*
X0364731Y0244997D01*
X0364662Y0245233D01*
X0364600Y0245470D01*
X0364543Y0245709D01*
X0364492Y0245949D01*
X0364447Y0246190D01*
X0364408Y0246433D01*
X0364375Y0246676D01*
X0364348Y0246920D01*
X0364327Y0247164D01*
X0364312Y0247409D01*
X0364303Y0247655D01*
X0364300Y0247900D01*
X0259500Y0359100D02*
X0259503Y0359345D01*
X0259512Y0359591D01*
X0259527Y0359836D01*
X0259548Y0360080D01*
X0259575Y0360324D01*
X0259608Y0360567D01*
X0259647Y0360810D01*
X0259692Y0361051D01*
X0259743Y0361291D01*
X0259800Y0361530D01*
X0259862Y0361767D01*
X0259931Y0362003D01*
X0260005Y0362237D01*
X0260085Y0362469D01*
X0260170Y0362699D01*
X0260261Y0362927D01*
X0260358Y0363152D01*
X0260460Y0363376D01*
X0260568Y0363596D01*
X0260681Y0363814D01*
X0260799Y0364029D01*
X0260923Y0364241D01*
X0261051Y0364450D01*
X0261185Y0364656D01*
X0261324Y0364858D01*
X0261468Y0365057D01*
X0261617Y0365252D01*
X0261770Y0365444D01*
X0261928Y0365632D01*
X0262090Y0365816D01*
X0262258Y0365995D01*
X0262429Y0366171D01*
X0262605Y0366342D01*
X0262784Y0366510D01*
X0262968Y0366672D01*
X0263156Y0366830D01*
X0263348Y0366983D01*
X0263543Y0367132D01*
X0263742Y0367276D01*
X0263944Y0367415D01*
X0264150Y0367549D01*
X0264359Y0367677D01*
X0264571Y0367801D01*
X0264786Y0367919D01*
X0265004Y0368032D01*
X0265224Y0368140D01*
X0265448Y0368242D01*
X0265673Y0368339D01*
X0265901Y0368430D01*
X0266131Y0368515D01*
X0266363Y0368595D01*
X0266597Y0368669D01*
X0266833Y0368738D01*
X0267070Y0368800D01*
X0267309Y0368857D01*
X0267549Y0368908D01*
X0267790Y0368953D01*
X0268033Y0368992D01*
X0268276Y0369025D01*
X0268520Y0369052D01*
X0268764Y0369073D01*
X0269009Y0369088D01*
X0269255Y0369097D01*
X0269500Y0369100D01*
X0269745Y0369097D01*
X0269991Y0369088D01*
X0270236Y0369073D01*
X0270480Y0369052D01*
X0270724Y0369025D01*
X0270967Y0368992D01*
X0271210Y0368953D01*
X0271451Y0368908D01*
X0271691Y0368857D01*
X0271930Y0368800D01*
X0272167Y0368738D01*
X0272403Y0368669D01*
X0272637Y0368595D01*
X0272869Y0368515D01*
X0273099Y0368430D01*
X0273327Y0368339D01*
X0273552Y0368242D01*
X0273776Y0368140D01*
X0273996Y0368032D01*
X0274214Y0367919D01*
X0274429Y0367801D01*
X0274641Y0367677D01*
X0274850Y0367549D01*
X0275056Y0367415D01*
X0275258Y0367276D01*
X0275457Y0367132D01*
X0275652Y0366983D01*
X0275844Y0366830D01*
X0276032Y0366672D01*
X0276216Y0366510D01*
X0276395Y0366342D01*
X0276571Y0366171D01*
X0276742Y0365995D01*
X0276910Y0365816D01*
X0277072Y0365632D01*
X0277230Y0365444D01*
X0277383Y0365252D01*
X0277532Y0365057D01*
X0277676Y0364858D01*
X0277815Y0364656D01*
X0277949Y0364450D01*
X0278077Y0364241D01*
X0278201Y0364029D01*
X0278319Y0363814D01*
X0278432Y0363596D01*
X0278540Y0363376D01*
X0278642Y0363152D01*
X0278739Y0362927D01*
X0278830Y0362699D01*
X0278915Y0362469D01*
X0278995Y0362237D01*
X0279069Y0362003D01*
X0279138Y0361767D01*
X0279200Y0361530D01*
X0279257Y0361291D01*
X0279308Y0361051D01*
X0279353Y0360810D01*
X0279392Y0360567D01*
X0279425Y0360324D01*
X0279452Y0360080D01*
X0279473Y0359836D01*
X0279488Y0359591D01*
X0279497Y0359345D01*
X0279500Y0359100D01*
X0279497Y0358855D01*
X0279488Y0358609D01*
X0279473Y0358364D01*
X0279452Y0358120D01*
X0279425Y0357876D01*
X0279392Y0357633D01*
X0279353Y0357390D01*
X0279308Y0357149D01*
X0279257Y0356909D01*
X0279200Y0356670D01*
X0279138Y0356433D01*
X0279069Y0356197D01*
X0278995Y0355963D01*
X0278915Y0355731D01*
X0278830Y0355501D01*
X0278739Y0355273D01*
X0278642Y0355048D01*
X0278540Y0354824D01*
X0278432Y0354604D01*
X0278319Y0354386D01*
X0278201Y0354171D01*
X0278077Y0353959D01*
X0277949Y0353750D01*
X0277815Y0353544D01*
X0277676Y0353342D01*
X0277532Y0353143D01*
X0277383Y0352948D01*
X0277230Y0352756D01*
X0277072Y0352568D01*
X0276910Y0352384D01*
X0276742Y0352205D01*
X0276571Y0352029D01*
X0276395Y0351858D01*
X0276216Y0351690D01*
X0276032Y0351528D01*
X0275844Y0351370D01*
X0275652Y0351217D01*
X0275457Y0351068D01*
X0275258Y0350924D01*
X0275056Y0350785D01*
X0274850Y0350651D01*
X0274641Y0350523D01*
X0274429Y0350399D01*
X0274214Y0350281D01*
X0273996Y0350168D01*
X0273776Y0350060D01*
X0273552Y0349958D01*
X0273327Y0349861D01*
X0273099Y0349770D01*
X0272869Y0349685D01*
X0272637Y0349605D01*
X0272403Y0349531D01*
X0272167Y0349462D01*
X0271930Y0349400D01*
X0271691Y0349343D01*
X0271451Y0349292D01*
X0271210Y0349247D01*
X0270967Y0349208D01*
X0270724Y0349175D01*
X0270480Y0349148D01*
X0270236Y0349127D01*
X0269991Y0349112D01*
X0269745Y0349103D01*
X0269500Y0349100D01*
X0269255Y0349103D01*
X0269009Y0349112D01*
X0268764Y0349127D01*
X0268520Y0349148D01*
X0268276Y0349175D01*
X0268033Y0349208D01*
X0267790Y0349247D01*
X0267549Y0349292D01*
X0267309Y0349343D01*
X0267070Y0349400D01*
X0266833Y0349462D01*
X0266597Y0349531D01*
X0266363Y0349605D01*
X0266131Y0349685D01*
X0265901Y0349770D01*
X0265673Y0349861D01*
X0265448Y0349958D01*
X0265224Y0350060D01*
X0265004Y0350168D01*
X0264786Y0350281D01*
X0264571Y0350399D01*
X0264359Y0350523D01*
X0264150Y0350651D01*
X0263944Y0350785D01*
X0263742Y0350924D01*
X0263543Y0351068D01*
X0263348Y0351217D01*
X0263156Y0351370D01*
X0262968Y0351528D01*
X0262784Y0351690D01*
X0262605Y0351858D01*
X0262429Y0352029D01*
X0262258Y0352205D01*
X0262090Y0352384D01*
X0261928Y0352568D01*
X0261770Y0352756D01*
X0261617Y0352948D01*
X0261468Y0353143D01*
X0261324Y0353342D01*
X0261185Y0353544D01*
X0261051Y0353750D01*
X0260923Y0353959D01*
X0260799Y0354171D01*
X0260681Y0354386D01*
X0260568Y0354604D01*
X0260460Y0354824D01*
X0260358Y0355048D01*
X0260261Y0355273D01*
X0260170Y0355501D01*
X0260085Y0355731D01*
X0260005Y0355963D01*
X0259931Y0356197D01*
X0259862Y0356433D01*
X0259800Y0356670D01*
X0259743Y0356909D01*
X0259692Y0357149D01*
X0259647Y0357390D01*
X0259608Y0357633D01*
X0259575Y0357876D01*
X0259548Y0358120D01*
X0259527Y0358364D01*
X0259512Y0358609D01*
X0259503Y0358855D01*
X0259500Y0359100D01*
X0236300Y0363100D02*
X0236303Y0363345D01*
X0236312Y0363591D01*
X0236327Y0363836D01*
X0236348Y0364080D01*
X0236375Y0364324D01*
X0236408Y0364567D01*
X0236447Y0364810D01*
X0236492Y0365051D01*
X0236543Y0365291D01*
X0236600Y0365530D01*
X0236662Y0365767D01*
X0236731Y0366003D01*
X0236805Y0366237D01*
X0236885Y0366469D01*
X0236970Y0366699D01*
X0237061Y0366927D01*
X0237158Y0367152D01*
X0237260Y0367376D01*
X0237368Y0367596D01*
X0237481Y0367814D01*
X0237599Y0368029D01*
X0237723Y0368241D01*
X0237851Y0368450D01*
X0237985Y0368656D01*
X0238124Y0368858D01*
X0238268Y0369057D01*
X0238417Y0369252D01*
X0238570Y0369444D01*
X0238728Y0369632D01*
X0238890Y0369816D01*
X0239058Y0369995D01*
X0239229Y0370171D01*
X0239405Y0370342D01*
X0239584Y0370510D01*
X0239768Y0370672D01*
X0239956Y0370830D01*
X0240148Y0370983D01*
X0240343Y0371132D01*
X0240542Y0371276D01*
X0240744Y0371415D01*
X0240950Y0371549D01*
X0241159Y0371677D01*
X0241371Y0371801D01*
X0241586Y0371919D01*
X0241804Y0372032D01*
X0242024Y0372140D01*
X0242248Y0372242D01*
X0242473Y0372339D01*
X0242701Y0372430D01*
X0242931Y0372515D01*
X0243163Y0372595D01*
X0243397Y0372669D01*
X0243633Y0372738D01*
X0243870Y0372800D01*
X0244109Y0372857D01*
X0244349Y0372908D01*
X0244590Y0372953D01*
X0244833Y0372992D01*
X0245076Y0373025D01*
X0245320Y0373052D01*
X0245564Y0373073D01*
X0245809Y0373088D01*
X0246055Y0373097D01*
X0246300Y0373100D01*
X0246545Y0373097D01*
X0246791Y0373088D01*
X0247036Y0373073D01*
X0247280Y0373052D01*
X0247524Y0373025D01*
X0247767Y0372992D01*
X0248010Y0372953D01*
X0248251Y0372908D01*
X0248491Y0372857D01*
X0248730Y0372800D01*
X0248967Y0372738D01*
X0249203Y0372669D01*
X0249437Y0372595D01*
X0249669Y0372515D01*
X0249899Y0372430D01*
X0250127Y0372339D01*
X0250352Y0372242D01*
X0250576Y0372140D01*
X0250796Y0372032D01*
X0251014Y0371919D01*
X0251229Y0371801D01*
X0251441Y0371677D01*
X0251650Y0371549D01*
X0251856Y0371415D01*
X0252058Y0371276D01*
X0252257Y0371132D01*
X0252452Y0370983D01*
X0252644Y0370830D01*
X0252832Y0370672D01*
X0253016Y0370510D01*
X0253195Y0370342D01*
X0253371Y0370171D01*
X0253542Y0369995D01*
X0253710Y0369816D01*
X0253872Y0369632D01*
X0254030Y0369444D01*
X0254183Y0369252D01*
X0254332Y0369057D01*
X0254476Y0368858D01*
X0254615Y0368656D01*
X0254749Y0368450D01*
X0254877Y0368241D01*
X0255001Y0368029D01*
X0255119Y0367814D01*
X0255232Y0367596D01*
X0255340Y0367376D01*
X0255442Y0367152D01*
X0255539Y0366927D01*
X0255630Y0366699D01*
X0255715Y0366469D01*
X0255795Y0366237D01*
X0255869Y0366003D01*
X0255938Y0365767D01*
X0256000Y0365530D01*
X0256057Y0365291D01*
X0256108Y0365051D01*
X0256153Y0364810D01*
X0256192Y0364567D01*
X0256225Y0364324D01*
X0256252Y0364080D01*
X0256273Y0363836D01*
X0256288Y0363591D01*
X0256297Y0363345D01*
X0256300Y0363100D01*
X0256297Y0362855D01*
X0256288Y0362609D01*
X0256273Y0362364D01*
X0256252Y0362120D01*
X0256225Y0361876D01*
X0256192Y0361633D01*
X0256153Y0361390D01*
X0256108Y0361149D01*
X0256057Y0360909D01*
X0256000Y0360670D01*
X0255938Y0360433D01*
X0255869Y0360197D01*
X0255795Y0359963D01*
X0255715Y0359731D01*
X0255630Y0359501D01*
X0255539Y0359273D01*
X0255442Y0359048D01*
X0255340Y0358824D01*
X0255232Y0358604D01*
X0255119Y0358386D01*
X0255001Y0358171D01*
X0254877Y0357959D01*
X0254749Y0357750D01*
X0254615Y0357544D01*
X0254476Y0357342D01*
X0254332Y0357143D01*
X0254183Y0356948D01*
X0254030Y0356756D01*
X0253872Y0356568D01*
X0253710Y0356384D01*
X0253542Y0356205D01*
X0253371Y0356029D01*
X0253195Y0355858D01*
X0253016Y0355690D01*
X0252832Y0355528D01*
X0252644Y0355370D01*
X0252452Y0355217D01*
X0252257Y0355068D01*
X0252058Y0354924D01*
X0251856Y0354785D01*
X0251650Y0354651D01*
X0251441Y0354523D01*
X0251229Y0354399D01*
X0251014Y0354281D01*
X0250796Y0354168D01*
X0250576Y0354060D01*
X0250352Y0353958D01*
X0250127Y0353861D01*
X0249899Y0353770D01*
X0249669Y0353685D01*
X0249437Y0353605D01*
X0249203Y0353531D01*
X0248967Y0353462D01*
X0248730Y0353400D01*
X0248491Y0353343D01*
X0248251Y0353292D01*
X0248010Y0353247D01*
X0247767Y0353208D01*
X0247524Y0353175D01*
X0247280Y0353148D01*
X0247036Y0353127D01*
X0246791Y0353112D01*
X0246545Y0353103D01*
X0246300Y0353100D01*
X0246055Y0353103D01*
X0245809Y0353112D01*
X0245564Y0353127D01*
X0245320Y0353148D01*
X0245076Y0353175D01*
X0244833Y0353208D01*
X0244590Y0353247D01*
X0244349Y0353292D01*
X0244109Y0353343D01*
X0243870Y0353400D01*
X0243633Y0353462D01*
X0243397Y0353531D01*
X0243163Y0353605D01*
X0242931Y0353685D01*
X0242701Y0353770D01*
X0242473Y0353861D01*
X0242248Y0353958D01*
X0242024Y0354060D01*
X0241804Y0354168D01*
X0241586Y0354281D01*
X0241371Y0354399D01*
X0241159Y0354523D01*
X0240950Y0354651D01*
X0240744Y0354785D01*
X0240542Y0354924D01*
X0240343Y0355068D01*
X0240148Y0355217D01*
X0239956Y0355370D01*
X0239768Y0355528D01*
X0239584Y0355690D01*
X0239405Y0355858D01*
X0239229Y0356029D01*
X0239058Y0356205D01*
X0238890Y0356384D01*
X0238728Y0356568D01*
X0238570Y0356756D01*
X0238417Y0356948D01*
X0238268Y0357143D01*
X0238124Y0357342D01*
X0237985Y0357544D01*
X0237851Y0357750D01*
X0237723Y0357959D01*
X0237599Y0358171D01*
X0237481Y0358386D01*
X0237368Y0358604D01*
X0237260Y0358824D01*
X0237158Y0359048D01*
X0237061Y0359273D01*
X0236970Y0359501D01*
X0236885Y0359731D01*
X0236805Y0359963D01*
X0236731Y0360197D01*
X0236662Y0360433D01*
X0236600Y0360670D01*
X0236543Y0360909D01*
X0236492Y0361149D01*
X0236447Y0361390D01*
X0236408Y0361633D01*
X0236375Y0361876D01*
X0236348Y0362120D01*
X0236327Y0362364D01*
X0236312Y0362609D01*
X0236303Y0362855D01*
X0236300Y0363100D01*
X0211800Y0319300D02*
X0206800Y0319300D01*
X0204300Y0316800D01*
X0201800Y0319300D01*
X0196800Y0319300D01*
X0194300Y0316800D01*
X0191800Y0319300D01*
X0186800Y0319300D01*
X0184300Y0316800D01*
X0181800Y0319300D01*
X0176800Y0319300D01*
X0174300Y0316800D01*
X0174300Y0311800D01*
X0176800Y0309300D01*
X0181800Y0309300D01*
X0184300Y0311800D01*
X0186800Y0309300D01*
X0191800Y0309300D01*
X0194300Y0311800D01*
X0196800Y0309300D01*
X0201800Y0309300D01*
X0204300Y0311800D01*
X0206800Y0309300D01*
X0211800Y0309300D01*
X0214300Y0311800D01*
X0214300Y0316800D01*
X0211800Y0319300D01*
X0204607Y0305805D02*
X0200336Y0305805D01*
X0202472Y0305805D02*
X0202472Y0299400D01*
X0198161Y0299400D02*
X0196026Y0301535D01*
X0197094Y0301535D02*
X0193891Y0301535D01*
X0193891Y0299400D02*
X0193891Y0305805D01*
X0197094Y0305805D01*
X0198161Y0304738D01*
X0198161Y0302603D01*
X0197094Y0301535D01*
X0191716Y0302603D02*
X0187445Y0302603D01*
X0187445Y0303670D02*
X0189581Y0305805D01*
X0191716Y0303670D01*
X0191716Y0299400D01*
X0187445Y0299400D02*
X0187445Y0303670D01*
X0185270Y0305805D02*
X0185270Y0300468D01*
X0184203Y0299400D01*
X0182068Y0299400D01*
X0181000Y0300468D01*
X0181000Y0305805D01*
X0075278Y0333287D02*
X0075278Y0341287D01*
X0074278Y0342287D01*
X0066278Y0342287D01*
X0065278Y0341287D01*
X0064278Y0342287D01*
X0056278Y0342287D01*
X0055278Y0341287D01*
X0055278Y0333287D01*
X0056278Y0332287D01*
X0064278Y0332287D01*
X0065278Y0333287D01*
X0066278Y0332287D01*
X0074278Y0332287D01*
X0075278Y0333287D01*
D11*
X0072427Y0122222D03*
X0067014Y0122222D03*
X0061122Y0122122D03*
X0055708Y0122122D03*
D12*
X0058415Y0123647D03*
X0069720Y0123748D03*
D13*
X0059102Y0146865D02*
X0080755Y0146865D01*
X0082133Y0155133D02*
X0082133Y0163007D01*
X0080755Y0171275D02*
X0059102Y0171275D01*
X0059269Y0175032D02*
X0080922Y0175032D01*
X0082300Y0183300D02*
X0082300Y0191174D01*
X0080922Y0199442D02*
X0059269Y0199442D01*
X0057891Y0191174D02*
X0057891Y0183300D01*
X0063205Y0187237D02*
X0063207Y0187406D01*
X0063213Y0187575D01*
X0063224Y0187744D01*
X0063238Y0187912D01*
X0063257Y0188080D01*
X0063280Y0188248D01*
X0063306Y0188415D01*
X0063337Y0188581D01*
X0063372Y0188747D01*
X0063411Y0188911D01*
X0063455Y0189075D01*
X0063502Y0189237D01*
X0063553Y0189398D01*
X0063608Y0189558D01*
X0063667Y0189717D01*
X0063729Y0189874D01*
X0063796Y0190029D01*
X0063867Y0190183D01*
X0063941Y0190335D01*
X0064019Y0190485D01*
X0064100Y0190633D01*
X0064185Y0190779D01*
X0064274Y0190923D01*
X0064366Y0191065D01*
X0064462Y0191204D01*
X0064561Y0191341D01*
X0064663Y0191476D01*
X0064769Y0191608D01*
X0064878Y0191737D01*
X0064990Y0191864D01*
X0065105Y0191988D01*
X0065223Y0192109D01*
X0065344Y0192227D01*
X0065468Y0192342D01*
X0065595Y0192454D01*
X0065724Y0192563D01*
X0065856Y0192669D01*
X0065991Y0192771D01*
X0066128Y0192870D01*
X0066267Y0192966D01*
X0066409Y0193058D01*
X0066553Y0193147D01*
X0066699Y0193232D01*
X0066847Y0193313D01*
X0066997Y0193391D01*
X0067149Y0193465D01*
X0067303Y0193536D01*
X0067458Y0193603D01*
X0067615Y0193665D01*
X0067774Y0193724D01*
X0067934Y0193779D01*
X0068095Y0193830D01*
X0068257Y0193877D01*
X0068421Y0193921D01*
X0068585Y0193960D01*
X0068751Y0193995D01*
X0068917Y0194026D01*
X0069084Y0194052D01*
X0069252Y0194075D01*
X0069420Y0194094D01*
X0069588Y0194108D01*
X0069757Y0194119D01*
X0069926Y0194125D01*
X0070095Y0194127D01*
X0070264Y0194125D01*
X0070433Y0194119D01*
X0070602Y0194108D01*
X0070770Y0194094D01*
X0070938Y0194075D01*
X0071106Y0194052D01*
X0071273Y0194026D01*
X0071439Y0193995D01*
X0071605Y0193960D01*
X0071769Y0193921D01*
X0071933Y0193877D01*
X0072095Y0193830D01*
X0072256Y0193779D01*
X0072416Y0193724D01*
X0072575Y0193665D01*
X0072732Y0193603D01*
X0072887Y0193536D01*
X0073041Y0193465D01*
X0073193Y0193391D01*
X0073343Y0193313D01*
X0073491Y0193232D01*
X0073637Y0193147D01*
X0073781Y0193058D01*
X0073923Y0192966D01*
X0074062Y0192870D01*
X0074199Y0192771D01*
X0074334Y0192669D01*
X0074466Y0192563D01*
X0074595Y0192454D01*
X0074722Y0192342D01*
X0074846Y0192227D01*
X0074967Y0192109D01*
X0075085Y0191988D01*
X0075200Y0191864D01*
X0075312Y0191737D01*
X0075421Y0191608D01*
X0075527Y0191476D01*
X0075629Y0191341D01*
X0075728Y0191204D01*
X0075824Y0191065D01*
X0075916Y0190923D01*
X0076005Y0190779D01*
X0076090Y0190633D01*
X0076171Y0190485D01*
X0076249Y0190335D01*
X0076323Y0190183D01*
X0076394Y0190029D01*
X0076461Y0189874D01*
X0076523Y0189717D01*
X0076582Y0189558D01*
X0076637Y0189398D01*
X0076688Y0189237D01*
X0076735Y0189075D01*
X0076779Y0188911D01*
X0076818Y0188747D01*
X0076853Y0188581D01*
X0076884Y0188415D01*
X0076910Y0188248D01*
X0076933Y0188080D01*
X0076952Y0187912D01*
X0076966Y0187744D01*
X0076977Y0187575D01*
X0076983Y0187406D01*
X0076985Y0187237D01*
X0076983Y0187068D01*
X0076977Y0186899D01*
X0076966Y0186730D01*
X0076952Y0186562D01*
X0076933Y0186394D01*
X0076910Y0186226D01*
X0076884Y0186059D01*
X0076853Y0185893D01*
X0076818Y0185727D01*
X0076779Y0185563D01*
X0076735Y0185399D01*
X0076688Y0185237D01*
X0076637Y0185076D01*
X0076582Y0184916D01*
X0076523Y0184757D01*
X0076461Y0184600D01*
X0076394Y0184445D01*
X0076323Y0184291D01*
X0076249Y0184139D01*
X0076171Y0183989D01*
X0076090Y0183841D01*
X0076005Y0183695D01*
X0075916Y0183551D01*
X0075824Y0183409D01*
X0075728Y0183270D01*
X0075629Y0183133D01*
X0075527Y0182998D01*
X0075421Y0182866D01*
X0075312Y0182737D01*
X0075200Y0182610D01*
X0075085Y0182486D01*
X0074967Y0182365D01*
X0074846Y0182247D01*
X0074722Y0182132D01*
X0074595Y0182020D01*
X0074466Y0181911D01*
X0074334Y0181805D01*
X0074199Y0181703D01*
X0074062Y0181604D01*
X0073923Y0181508D01*
X0073781Y0181416D01*
X0073637Y0181327D01*
X0073491Y0181242D01*
X0073343Y0181161D01*
X0073193Y0181083D01*
X0073041Y0181009D01*
X0072887Y0180938D01*
X0072732Y0180871D01*
X0072575Y0180809D01*
X0072416Y0180750D01*
X0072256Y0180695D01*
X0072095Y0180644D01*
X0071933Y0180597D01*
X0071769Y0180553D01*
X0071605Y0180514D01*
X0071439Y0180479D01*
X0071273Y0180448D01*
X0071106Y0180422D01*
X0070938Y0180399D01*
X0070770Y0180380D01*
X0070602Y0180366D01*
X0070433Y0180355D01*
X0070264Y0180349D01*
X0070095Y0180347D01*
X0069926Y0180349D01*
X0069757Y0180355D01*
X0069588Y0180366D01*
X0069420Y0180380D01*
X0069252Y0180399D01*
X0069084Y0180422D01*
X0068917Y0180448D01*
X0068751Y0180479D01*
X0068585Y0180514D01*
X0068421Y0180553D01*
X0068257Y0180597D01*
X0068095Y0180644D01*
X0067934Y0180695D01*
X0067774Y0180750D01*
X0067615Y0180809D01*
X0067458Y0180871D01*
X0067303Y0180938D01*
X0067149Y0181009D01*
X0066997Y0181083D01*
X0066847Y0181161D01*
X0066699Y0181242D01*
X0066553Y0181327D01*
X0066409Y0181416D01*
X0066267Y0181508D01*
X0066128Y0181604D01*
X0065991Y0181703D01*
X0065856Y0181805D01*
X0065724Y0181911D01*
X0065595Y0182020D01*
X0065468Y0182132D01*
X0065344Y0182247D01*
X0065223Y0182365D01*
X0065105Y0182486D01*
X0064990Y0182610D01*
X0064878Y0182737D01*
X0064769Y0182866D01*
X0064663Y0182998D01*
X0064561Y0183133D01*
X0064462Y0183270D01*
X0064366Y0183409D01*
X0064274Y0183551D01*
X0064185Y0183695D01*
X0064100Y0183841D01*
X0064019Y0183989D01*
X0063941Y0184139D01*
X0063867Y0184291D01*
X0063796Y0184445D01*
X0063729Y0184600D01*
X0063667Y0184757D01*
X0063608Y0184916D01*
X0063553Y0185076D01*
X0063502Y0185237D01*
X0063455Y0185399D01*
X0063411Y0185563D01*
X0063372Y0185727D01*
X0063337Y0185893D01*
X0063306Y0186059D01*
X0063280Y0186226D01*
X0063257Y0186394D01*
X0063238Y0186562D01*
X0063224Y0186730D01*
X0063213Y0186899D01*
X0063207Y0187068D01*
X0063205Y0187237D01*
X0057724Y0163007D02*
X0057724Y0155133D01*
X0063038Y0159070D02*
X0063040Y0159239D01*
X0063046Y0159408D01*
X0063057Y0159577D01*
X0063071Y0159745D01*
X0063090Y0159913D01*
X0063113Y0160081D01*
X0063139Y0160248D01*
X0063170Y0160414D01*
X0063205Y0160580D01*
X0063244Y0160744D01*
X0063288Y0160908D01*
X0063335Y0161070D01*
X0063386Y0161231D01*
X0063441Y0161391D01*
X0063500Y0161550D01*
X0063562Y0161707D01*
X0063629Y0161862D01*
X0063700Y0162016D01*
X0063774Y0162168D01*
X0063852Y0162318D01*
X0063933Y0162466D01*
X0064018Y0162612D01*
X0064107Y0162756D01*
X0064199Y0162898D01*
X0064295Y0163037D01*
X0064394Y0163174D01*
X0064496Y0163309D01*
X0064602Y0163441D01*
X0064711Y0163570D01*
X0064823Y0163697D01*
X0064938Y0163821D01*
X0065056Y0163942D01*
X0065177Y0164060D01*
X0065301Y0164175D01*
X0065428Y0164287D01*
X0065557Y0164396D01*
X0065689Y0164502D01*
X0065824Y0164604D01*
X0065961Y0164703D01*
X0066100Y0164799D01*
X0066242Y0164891D01*
X0066386Y0164980D01*
X0066532Y0165065D01*
X0066680Y0165146D01*
X0066830Y0165224D01*
X0066982Y0165298D01*
X0067136Y0165369D01*
X0067291Y0165436D01*
X0067448Y0165498D01*
X0067607Y0165557D01*
X0067767Y0165612D01*
X0067928Y0165663D01*
X0068090Y0165710D01*
X0068254Y0165754D01*
X0068418Y0165793D01*
X0068584Y0165828D01*
X0068750Y0165859D01*
X0068917Y0165885D01*
X0069085Y0165908D01*
X0069253Y0165927D01*
X0069421Y0165941D01*
X0069590Y0165952D01*
X0069759Y0165958D01*
X0069928Y0165960D01*
X0070097Y0165958D01*
X0070266Y0165952D01*
X0070435Y0165941D01*
X0070603Y0165927D01*
X0070771Y0165908D01*
X0070939Y0165885D01*
X0071106Y0165859D01*
X0071272Y0165828D01*
X0071438Y0165793D01*
X0071602Y0165754D01*
X0071766Y0165710D01*
X0071928Y0165663D01*
X0072089Y0165612D01*
X0072249Y0165557D01*
X0072408Y0165498D01*
X0072565Y0165436D01*
X0072720Y0165369D01*
X0072874Y0165298D01*
X0073026Y0165224D01*
X0073176Y0165146D01*
X0073324Y0165065D01*
X0073470Y0164980D01*
X0073614Y0164891D01*
X0073756Y0164799D01*
X0073895Y0164703D01*
X0074032Y0164604D01*
X0074167Y0164502D01*
X0074299Y0164396D01*
X0074428Y0164287D01*
X0074555Y0164175D01*
X0074679Y0164060D01*
X0074800Y0163942D01*
X0074918Y0163821D01*
X0075033Y0163697D01*
X0075145Y0163570D01*
X0075254Y0163441D01*
X0075360Y0163309D01*
X0075462Y0163174D01*
X0075561Y0163037D01*
X0075657Y0162898D01*
X0075749Y0162756D01*
X0075838Y0162612D01*
X0075923Y0162466D01*
X0076004Y0162318D01*
X0076082Y0162168D01*
X0076156Y0162016D01*
X0076227Y0161862D01*
X0076294Y0161707D01*
X0076356Y0161550D01*
X0076415Y0161391D01*
X0076470Y0161231D01*
X0076521Y0161070D01*
X0076568Y0160908D01*
X0076612Y0160744D01*
X0076651Y0160580D01*
X0076686Y0160414D01*
X0076717Y0160248D01*
X0076743Y0160081D01*
X0076766Y0159913D01*
X0076785Y0159745D01*
X0076799Y0159577D01*
X0076810Y0159408D01*
X0076816Y0159239D01*
X0076818Y0159070D01*
X0076816Y0158901D01*
X0076810Y0158732D01*
X0076799Y0158563D01*
X0076785Y0158395D01*
X0076766Y0158227D01*
X0076743Y0158059D01*
X0076717Y0157892D01*
X0076686Y0157726D01*
X0076651Y0157560D01*
X0076612Y0157396D01*
X0076568Y0157232D01*
X0076521Y0157070D01*
X0076470Y0156909D01*
X0076415Y0156749D01*
X0076356Y0156590D01*
X0076294Y0156433D01*
X0076227Y0156278D01*
X0076156Y0156124D01*
X0076082Y0155972D01*
X0076004Y0155822D01*
X0075923Y0155674D01*
X0075838Y0155528D01*
X0075749Y0155384D01*
X0075657Y0155242D01*
X0075561Y0155103D01*
X0075462Y0154966D01*
X0075360Y0154831D01*
X0075254Y0154699D01*
X0075145Y0154570D01*
X0075033Y0154443D01*
X0074918Y0154319D01*
X0074800Y0154198D01*
X0074679Y0154080D01*
X0074555Y0153965D01*
X0074428Y0153853D01*
X0074299Y0153744D01*
X0074167Y0153638D01*
X0074032Y0153536D01*
X0073895Y0153437D01*
X0073756Y0153341D01*
X0073614Y0153249D01*
X0073470Y0153160D01*
X0073324Y0153075D01*
X0073176Y0152994D01*
X0073026Y0152916D01*
X0072874Y0152842D01*
X0072720Y0152771D01*
X0072565Y0152704D01*
X0072408Y0152642D01*
X0072249Y0152583D01*
X0072089Y0152528D01*
X0071928Y0152477D01*
X0071766Y0152430D01*
X0071602Y0152386D01*
X0071438Y0152347D01*
X0071272Y0152312D01*
X0071106Y0152281D01*
X0070939Y0152255D01*
X0070771Y0152232D01*
X0070603Y0152213D01*
X0070435Y0152199D01*
X0070266Y0152188D01*
X0070097Y0152182D01*
X0069928Y0152180D01*
X0069759Y0152182D01*
X0069590Y0152188D01*
X0069421Y0152199D01*
X0069253Y0152213D01*
X0069085Y0152232D01*
X0068917Y0152255D01*
X0068750Y0152281D01*
X0068584Y0152312D01*
X0068418Y0152347D01*
X0068254Y0152386D01*
X0068090Y0152430D01*
X0067928Y0152477D01*
X0067767Y0152528D01*
X0067607Y0152583D01*
X0067448Y0152642D01*
X0067291Y0152704D01*
X0067136Y0152771D01*
X0066982Y0152842D01*
X0066830Y0152916D01*
X0066680Y0152994D01*
X0066532Y0153075D01*
X0066386Y0153160D01*
X0066242Y0153249D01*
X0066100Y0153341D01*
X0065961Y0153437D01*
X0065824Y0153536D01*
X0065689Y0153638D01*
X0065557Y0153744D01*
X0065428Y0153853D01*
X0065301Y0153965D01*
X0065177Y0154080D01*
X0065056Y0154198D01*
X0064938Y0154319D01*
X0064823Y0154443D01*
X0064711Y0154570D01*
X0064602Y0154699D01*
X0064496Y0154831D01*
X0064394Y0154966D01*
X0064295Y0155103D01*
X0064199Y0155242D01*
X0064107Y0155384D01*
X0064018Y0155528D01*
X0063933Y0155674D01*
X0063852Y0155822D01*
X0063774Y0155972D01*
X0063700Y0156124D01*
X0063629Y0156278D01*
X0063562Y0156433D01*
X0063500Y0156590D01*
X0063441Y0156749D01*
X0063386Y0156909D01*
X0063335Y0157070D01*
X0063288Y0157232D01*
X0063244Y0157396D01*
X0063205Y0157560D01*
X0063170Y0157726D01*
X0063139Y0157892D01*
X0063113Y0158059D01*
X0063090Y0158227D01*
X0063071Y0158395D01*
X0063057Y0158563D01*
X0063046Y0158732D01*
X0063040Y0158901D01*
X0063038Y0159070D01*
X0062481Y0253823D02*
X0058938Y0257366D01*
X0058938Y0259925D01*
X0062481Y0253823D02*
X0079804Y0253823D01*
X0079804Y0259925D01*
X0079804Y0268587D02*
X0079804Y0274689D01*
X0062481Y0274689D01*
X0058938Y0271146D01*
X0058938Y0268587D01*
X0060710Y0260516D02*
X0060804Y0260305D01*
X0060903Y0260097D01*
X0061008Y0259890D01*
X0061117Y0259687D01*
X0061232Y0259486D01*
X0061351Y0259288D01*
X0061475Y0259093D01*
X0061604Y0258902D01*
X0061737Y0258713D01*
X0061875Y0258528D01*
X0062018Y0258346D01*
X0062165Y0258168D01*
X0062316Y0257993D01*
X0062471Y0257822D01*
X0062631Y0257655D01*
X0062794Y0257492D01*
X0062962Y0257333D01*
X0063133Y0257178D01*
X0063309Y0257028D01*
X0063487Y0256881D01*
X0063670Y0256740D01*
X0063856Y0256602D01*
X0064045Y0256470D01*
X0064237Y0256341D01*
X0064432Y0256218D01*
X0064630Y0256100D01*
X0064832Y0255986D01*
X0065035Y0255877D01*
X0065242Y0255774D01*
X0065451Y0255675D01*
X0065662Y0255582D01*
X0065876Y0255493D01*
X0066091Y0255410D01*
X0066309Y0255333D01*
X0066528Y0255261D01*
X0066749Y0255194D01*
X0066972Y0255132D01*
X0067196Y0255076D01*
X0067422Y0255026D01*
X0067648Y0254981D01*
X0067876Y0254941D01*
X0068104Y0254907D01*
X0068334Y0254879D01*
X0068563Y0254857D01*
X0068794Y0254840D01*
X0069025Y0254828D01*
X0069255Y0254823D01*
X0069487Y0254823D01*
X0069717Y0254828D01*
X0069948Y0254840D01*
X0070179Y0254857D01*
X0070408Y0254879D01*
X0070638Y0254907D01*
X0070866Y0254941D01*
X0071094Y0254981D01*
X0071320Y0255026D01*
X0071546Y0255076D01*
X0071770Y0255132D01*
X0071993Y0255194D01*
X0072214Y0255261D01*
X0072433Y0255333D01*
X0072651Y0255410D01*
X0072866Y0255493D01*
X0073080Y0255582D01*
X0073291Y0255675D01*
X0073500Y0255774D01*
X0073707Y0255877D01*
X0073910Y0255986D01*
X0074112Y0256100D01*
X0074310Y0256218D01*
X0074505Y0256341D01*
X0074697Y0256470D01*
X0074886Y0256602D01*
X0075072Y0256740D01*
X0075255Y0256881D01*
X0075433Y0257028D01*
X0075609Y0257178D01*
X0075780Y0257333D01*
X0075948Y0257492D01*
X0076111Y0257655D01*
X0076271Y0257822D01*
X0076426Y0257993D01*
X0076577Y0258168D01*
X0076724Y0258346D01*
X0076867Y0258528D01*
X0077005Y0258713D01*
X0077138Y0258902D01*
X0077267Y0259093D01*
X0077391Y0259288D01*
X0077510Y0259486D01*
X0077625Y0259687D01*
X0077734Y0259890D01*
X0077839Y0260097D01*
X0077938Y0260305D01*
X0078032Y0260516D01*
X0078032Y0267996D02*
X0077938Y0268207D01*
X0077839Y0268415D01*
X0077734Y0268622D01*
X0077625Y0268825D01*
X0077510Y0269026D01*
X0077391Y0269224D01*
X0077267Y0269419D01*
X0077138Y0269610D01*
X0077005Y0269799D01*
X0076867Y0269984D01*
X0076724Y0270166D01*
X0076577Y0270344D01*
X0076426Y0270519D01*
X0076271Y0270690D01*
X0076111Y0270857D01*
X0075948Y0271020D01*
X0075780Y0271179D01*
X0075609Y0271334D01*
X0075433Y0271484D01*
X0075255Y0271631D01*
X0075072Y0271772D01*
X0074886Y0271910D01*
X0074697Y0272042D01*
X0074505Y0272171D01*
X0074310Y0272294D01*
X0074112Y0272412D01*
X0073910Y0272526D01*
X0073707Y0272635D01*
X0073500Y0272738D01*
X0073291Y0272837D01*
X0073080Y0272930D01*
X0072866Y0273019D01*
X0072651Y0273102D01*
X0072433Y0273179D01*
X0072214Y0273251D01*
X0071993Y0273318D01*
X0071770Y0273380D01*
X0071546Y0273436D01*
X0071320Y0273486D01*
X0071094Y0273531D01*
X0070866Y0273571D01*
X0070638Y0273605D01*
X0070408Y0273633D01*
X0070179Y0273655D01*
X0069948Y0273672D01*
X0069717Y0273684D01*
X0069487Y0273689D01*
X0069255Y0273689D01*
X0069025Y0273684D01*
X0068794Y0273672D01*
X0068563Y0273655D01*
X0068334Y0273633D01*
X0068104Y0273605D01*
X0067876Y0273571D01*
X0067648Y0273531D01*
X0067422Y0273486D01*
X0067196Y0273436D01*
X0066972Y0273380D01*
X0066749Y0273318D01*
X0066528Y0273251D01*
X0066309Y0273179D01*
X0066091Y0273102D01*
X0065876Y0273019D01*
X0065662Y0272930D01*
X0065451Y0272837D01*
X0065242Y0272738D01*
X0065035Y0272635D01*
X0064832Y0272526D01*
X0064630Y0272412D01*
X0064432Y0272294D01*
X0064237Y0272171D01*
X0064045Y0272042D01*
X0063856Y0271910D01*
X0063670Y0271772D01*
X0063487Y0271631D01*
X0063309Y0271484D01*
X0063133Y0271334D01*
X0062962Y0271179D01*
X0062794Y0271020D01*
X0062631Y0270857D01*
X0062471Y0270690D01*
X0062316Y0270519D01*
X0062165Y0270344D01*
X0062018Y0270166D01*
X0061875Y0269984D01*
X0061737Y0269799D01*
X0061604Y0269610D01*
X0061475Y0269419D01*
X0061351Y0269224D01*
X0061232Y0269026D01*
X0061117Y0268825D01*
X0061008Y0268622D01*
X0060903Y0268415D01*
X0060804Y0268207D01*
X0060710Y0267996D01*
X0190530Y0329347D02*
X0190530Y0346670D01*
X0194073Y0350213D01*
X0196632Y0350213D01*
X0205294Y0350213D02*
X0207853Y0350213D01*
X0211396Y0346670D01*
X0211396Y0329347D01*
X0205294Y0329347D01*
X0196632Y0329347D02*
X0190530Y0329347D01*
X0204703Y0331119D02*
X0204914Y0331213D01*
X0205122Y0331312D01*
X0205329Y0331417D01*
X0205532Y0331526D01*
X0205733Y0331641D01*
X0205931Y0331760D01*
X0206126Y0331884D01*
X0206317Y0332013D01*
X0206506Y0332146D01*
X0206691Y0332284D01*
X0206873Y0332427D01*
X0207051Y0332574D01*
X0207226Y0332725D01*
X0207397Y0332880D01*
X0207564Y0333040D01*
X0207727Y0333203D01*
X0207886Y0333371D01*
X0208041Y0333542D01*
X0208191Y0333718D01*
X0208338Y0333896D01*
X0208479Y0334079D01*
X0208617Y0334265D01*
X0208749Y0334454D01*
X0208878Y0334646D01*
X0209001Y0334841D01*
X0209119Y0335039D01*
X0209233Y0335241D01*
X0209342Y0335444D01*
X0209445Y0335651D01*
X0209544Y0335860D01*
X0209637Y0336071D01*
X0209726Y0336285D01*
X0209809Y0336500D01*
X0209886Y0336718D01*
X0209958Y0336937D01*
X0210025Y0337158D01*
X0210087Y0337381D01*
X0210143Y0337605D01*
X0210193Y0337831D01*
X0210238Y0338057D01*
X0210278Y0338285D01*
X0210312Y0338513D01*
X0210340Y0338743D01*
X0210362Y0338972D01*
X0210379Y0339203D01*
X0210391Y0339434D01*
X0210396Y0339664D01*
X0210396Y0339896D01*
X0210391Y0340126D01*
X0210379Y0340357D01*
X0210362Y0340588D01*
X0210340Y0340817D01*
X0210312Y0341047D01*
X0210278Y0341275D01*
X0210238Y0341503D01*
X0210193Y0341729D01*
X0210143Y0341955D01*
X0210087Y0342179D01*
X0210025Y0342402D01*
X0209958Y0342623D01*
X0209886Y0342842D01*
X0209809Y0343060D01*
X0209726Y0343275D01*
X0209637Y0343489D01*
X0209544Y0343700D01*
X0209445Y0343909D01*
X0209342Y0344116D01*
X0209233Y0344319D01*
X0209119Y0344521D01*
X0209001Y0344719D01*
X0208878Y0344914D01*
X0208749Y0345106D01*
X0208617Y0345295D01*
X0208479Y0345481D01*
X0208338Y0345664D01*
X0208191Y0345842D01*
X0208041Y0346018D01*
X0207886Y0346189D01*
X0207727Y0346357D01*
X0207564Y0346520D01*
X0207397Y0346680D01*
X0207226Y0346835D01*
X0207051Y0346986D01*
X0206873Y0347133D01*
X0206691Y0347276D01*
X0206506Y0347414D01*
X0206317Y0347547D01*
X0206126Y0347676D01*
X0205931Y0347800D01*
X0205733Y0347919D01*
X0205532Y0348034D01*
X0205329Y0348143D01*
X0205122Y0348248D01*
X0204914Y0348347D01*
X0204703Y0348441D01*
X0197223Y0348441D02*
X0197012Y0348347D01*
X0196804Y0348248D01*
X0196597Y0348143D01*
X0196394Y0348034D01*
X0196193Y0347919D01*
X0195995Y0347800D01*
X0195800Y0347676D01*
X0195609Y0347547D01*
X0195420Y0347414D01*
X0195235Y0347276D01*
X0195053Y0347133D01*
X0194875Y0346986D01*
X0194700Y0346835D01*
X0194529Y0346680D01*
X0194362Y0346520D01*
X0194199Y0346357D01*
X0194040Y0346189D01*
X0193885Y0346018D01*
X0193735Y0345842D01*
X0193588Y0345664D01*
X0193447Y0345481D01*
X0193309Y0345295D01*
X0193177Y0345106D01*
X0193048Y0344914D01*
X0192925Y0344719D01*
X0192807Y0344521D01*
X0192693Y0344319D01*
X0192584Y0344116D01*
X0192481Y0343909D01*
X0192382Y0343700D01*
X0192289Y0343489D01*
X0192200Y0343275D01*
X0192117Y0343060D01*
X0192040Y0342842D01*
X0191968Y0342623D01*
X0191901Y0342402D01*
X0191839Y0342179D01*
X0191783Y0341955D01*
X0191733Y0341729D01*
X0191688Y0341503D01*
X0191648Y0341275D01*
X0191614Y0341047D01*
X0191586Y0340817D01*
X0191564Y0340588D01*
X0191547Y0340357D01*
X0191535Y0340126D01*
X0191530Y0339896D01*
X0191530Y0339664D01*
X0191535Y0339434D01*
X0191547Y0339203D01*
X0191564Y0338972D01*
X0191586Y0338743D01*
X0191614Y0338513D01*
X0191648Y0338285D01*
X0191688Y0338057D01*
X0191733Y0337831D01*
X0191783Y0337605D01*
X0191839Y0337381D01*
X0191901Y0337158D01*
X0191968Y0336937D01*
X0192040Y0336718D01*
X0192117Y0336500D01*
X0192200Y0336285D01*
X0192289Y0336071D01*
X0192382Y0335860D01*
X0192481Y0335651D01*
X0192584Y0335444D01*
X0192693Y0335241D01*
X0192807Y0335039D01*
X0192925Y0334841D01*
X0193048Y0334646D01*
X0193177Y0334454D01*
X0193309Y0334265D01*
X0193447Y0334079D01*
X0193588Y0333896D01*
X0193735Y0333718D01*
X0193885Y0333542D01*
X0194040Y0333371D01*
X0194199Y0333203D01*
X0194362Y0333040D01*
X0194529Y0332880D01*
X0194700Y0332725D01*
X0194875Y0332574D01*
X0195053Y0332427D01*
X0195235Y0332284D01*
X0195420Y0332146D01*
X0195609Y0332013D01*
X0195800Y0331884D01*
X0195995Y0331760D01*
X0196193Y0331641D01*
X0196394Y0331526D01*
X0196597Y0331417D01*
X0196804Y0331312D01*
X0197012Y0331213D01*
X0197223Y0331119D01*
X0253132Y0352632D02*
X0258262Y0366727D01*
X0262668Y0369568D02*
X0257538Y0355473D01*
X0366800Y0257900D02*
X0381800Y0257900D01*
X0381000Y0207500D02*
X0366000Y0207500D01*
X0258338Y0108327D02*
X0263468Y0094232D01*
X0257462Y0099473D02*
X0252332Y0113568D01*
X0217533Y0169239D02*
X0209265Y0169239D01*
X0201982Y0174554D02*
X0201982Y0176916D01*
X0209265Y0182231D02*
X0217533Y0182231D01*
X0224817Y0176916D02*
X0224817Y0174554D01*
D14*
X0185806Y0163037D02*
X0185806Y0153194D01*
X0173994Y0153194D01*
X0173994Y0165006D01*
X0183837Y0165006D01*
X0185806Y0163037D01*
X0187028Y0141620D02*
X0080728Y0141620D01*
X0080728Y0108155D01*
X0104350Y0108155D01*
X0163406Y0108155D01*
X0163406Y0230202D01*
X0104350Y0230202D01*
X0104350Y0108155D01*
X0117150Y0097502D02*
X0120153Y0097502D01*
X0119402Y0099754D02*
X0117150Y0097502D01*
X0119402Y0095250D02*
X0119402Y0099754D01*
X0097475Y0087406D02*
X0097473Y0087485D01*
X0097467Y0087563D01*
X0097457Y0087641D01*
X0097444Y0087718D01*
X0097426Y0087795D01*
X0097405Y0087870D01*
X0097380Y0087945D01*
X0097351Y0088018D01*
X0097319Y0088089D01*
X0097283Y0088159D01*
X0097244Y0088227D01*
X0097201Y0088293D01*
X0097155Y0088357D01*
X0097107Y0088418D01*
X0097055Y0088477D01*
X0097000Y0088533D01*
X0096942Y0088587D01*
X0096882Y0088637D01*
X0096819Y0088685D01*
X0096755Y0088729D01*
X0096688Y0088770D01*
X0096619Y0088808D01*
X0096548Y0088842D01*
X0096475Y0088872D01*
X0096402Y0088899D01*
X0096327Y0088922D01*
X0096250Y0088942D01*
X0096173Y0088957D01*
X0096096Y0088969D01*
X0096018Y0088977D01*
X0095939Y0088981D01*
X0095861Y0088981D01*
X0095782Y0088977D01*
X0095704Y0088969D01*
X0095627Y0088957D01*
X0095550Y0088942D01*
X0095473Y0088922D01*
X0095398Y0088899D01*
X0095325Y0088872D01*
X0095252Y0088842D01*
X0095181Y0088808D01*
X0095113Y0088770D01*
X0095045Y0088729D01*
X0094981Y0088685D01*
X0094918Y0088637D01*
X0094858Y0088587D01*
X0094800Y0088533D01*
X0094745Y0088477D01*
X0094693Y0088418D01*
X0094645Y0088357D01*
X0094599Y0088293D01*
X0094556Y0088227D01*
X0094517Y0088159D01*
X0094481Y0088089D01*
X0094449Y0088018D01*
X0094420Y0087945D01*
X0094395Y0087870D01*
X0094374Y0087795D01*
X0094356Y0087718D01*
X0094343Y0087641D01*
X0094333Y0087563D01*
X0094327Y0087485D01*
X0094325Y0087406D01*
X0074653Y0095250D02*
X0071650Y0095250D01*
X0073151Y0095250D02*
X0073151Y0099754D01*
X0071650Y0098253D01*
X0163406Y0108155D02*
X0187028Y0108155D01*
X0187028Y0141620D01*
X0201782Y0128080D02*
X0204033Y0128080D01*
X0204784Y0127329D01*
X0204784Y0126579D01*
X0204033Y0125828D01*
X0201782Y0125828D01*
X0204033Y0125828D02*
X0204784Y0125077D01*
X0204784Y0124327D01*
X0204033Y0123576D01*
X0201782Y0123576D01*
X0201782Y0128080D01*
X0206385Y0127329D02*
X0206385Y0124327D01*
X0207136Y0123576D01*
X0208637Y0123576D01*
X0209388Y0124327D01*
X0209388Y0127329D01*
X0208637Y0128080D01*
X0207136Y0128080D01*
X0206385Y0127329D01*
X0210989Y0127329D02*
X0210989Y0124327D01*
X0211740Y0123576D01*
X0213241Y0123576D01*
X0213992Y0124327D01*
X0213992Y0127329D01*
X0213241Y0128080D01*
X0211740Y0128080D01*
X0210989Y0127329D01*
X0215593Y0128080D02*
X0218596Y0128080D01*
X0217095Y0128080D02*
X0217095Y0123576D01*
X0163406Y0232552D02*
X0104350Y0232552D01*
X0104350Y0354599D01*
X0163406Y0354599D01*
X0163406Y0232552D01*
X0093107Y0217622D02*
X0077635Y0217622D01*
X0077635Y0250890D01*
X0093107Y0250890D01*
X0093107Y0217622D01*
X0090077Y0219756D02*
X0090079Y0219816D01*
X0090085Y0219875D01*
X0090095Y0219934D01*
X0090109Y0219992D01*
X0090126Y0220049D01*
X0090148Y0220105D01*
X0090173Y0220159D01*
X0090202Y0220212D01*
X0090234Y0220262D01*
X0090269Y0220310D01*
X0090308Y0220356D01*
X0090349Y0220399D01*
X0090394Y0220439D01*
X0090441Y0220476D01*
X0090490Y0220510D01*
X0090541Y0220540D01*
X0090595Y0220567D01*
X0090650Y0220590D01*
X0090706Y0220610D01*
X0090764Y0220626D01*
X0090822Y0220638D01*
X0090882Y0220646D01*
X0090941Y0220650D01*
X0091001Y0220650D01*
X0091060Y0220646D01*
X0091120Y0220638D01*
X0091178Y0220626D01*
X0091236Y0220610D01*
X0091292Y0220590D01*
X0091347Y0220567D01*
X0091401Y0220540D01*
X0091452Y0220510D01*
X0091501Y0220476D01*
X0091548Y0220439D01*
X0091593Y0220399D01*
X0091634Y0220356D01*
X0091673Y0220310D01*
X0091708Y0220262D01*
X0091740Y0220212D01*
X0091769Y0220159D01*
X0091794Y0220105D01*
X0091816Y0220049D01*
X0091833Y0219992D01*
X0091847Y0219934D01*
X0091857Y0219875D01*
X0091863Y0219816D01*
X0091865Y0219756D01*
X0091863Y0219696D01*
X0091857Y0219637D01*
X0091847Y0219578D01*
X0091833Y0219520D01*
X0091816Y0219463D01*
X0091794Y0219407D01*
X0091769Y0219353D01*
X0091740Y0219300D01*
X0091708Y0219250D01*
X0091673Y0219202D01*
X0091634Y0219156D01*
X0091593Y0219113D01*
X0091548Y0219073D01*
X0091501Y0219036D01*
X0091452Y0219002D01*
X0091401Y0218972D01*
X0091347Y0218945D01*
X0091292Y0218922D01*
X0091236Y0218902D01*
X0091178Y0218886D01*
X0091120Y0218874D01*
X0091060Y0218866D01*
X0091001Y0218862D01*
X0090941Y0218862D01*
X0090882Y0218866D01*
X0090822Y0218874D01*
X0090764Y0218886D01*
X0090706Y0218902D01*
X0090650Y0218922D01*
X0090595Y0218945D01*
X0090541Y0218972D01*
X0090490Y0219002D01*
X0090441Y0219036D01*
X0090394Y0219073D01*
X0090349Y0219113D01*
X0090308Y0219156D01*
X0090269Y0219202D01*
X0090234Y0219250D01*
X0090202Y0219300D01*
X0090173Y0219353D01*
X0090148Y0219407D01*
X0090126Y0219463D01*
X0090109Y0219520D01*
X0090095Y0219578D01*
X0090085Y0219637D01*
X0090079Y0219696D01*
X0090077Y0219756D01*
X0170050Y0312050D02*
X0173053Y0312050D01*
X0171551Y0312050D02*
X0171551Y0316554D01*
X0170050Y0315053D01*
X0187028Y0321135D02*
X0080728Y0321135D01*
X0080728Y0354599D01*
X0104350Y0354599D01*
X0163406Y0354599D02*
X0187028Y0354599D01*
X0187028Y0321135D01*
X0215550Y0314302D02*
X0218553Y0314302D01*
X0217802Y0312050D02*
X0217802Y0316554D01*
X0215550Y0314302D01*
X0358446Y0252747D02*
X0359947Y0251246D01*
X0358446Y0252747D02*
X0362950Y0252747D01*
X0362950Y0251246D02*
X0362950Y0254249D01*
X0376758Y0255950D02*
X0376758Y0248076D01*
X0399396Y0248076D01*
X0399396Y0255950D01*
X0376758Y0255950D01*
X0376758Y0286873D02*
X0376758Y0294747D01*
X0399396Y0294747D01*
X0399396Y0286873D01*
X0376758Y0286873D01*
X0376758Y0326873D02*
X0376758Y0334747D01*
X0399396Y0334747D01*
X0399396Y0326873D01*
X0376758Y0326873D01*
X0377558Y0364473D02*
X0377558Y0372347D01*
X0400196Y0372347D01*
X0400196Y0364473D01*
X0377558Y0364473D01*
X0376758Y0216750D02*
X0376758Y0208876D01*
X0399396Y0208876D01*
X0399396Y0216750D01*
X0376758Y0216750D01*
X0362950Y0207998D02*
X0358446Y0207998D01*
X0360698Y0205746D01*
X0360698Y0208749D01*
X0377558Y0175950D02*
X0377558Y0168076D01*
X0400196Y0168076D01*
X0400196Y0175950D01*
X0377558Y0175950D01*
X0377558Y0138350D02*
X0377558Y0130476D01*
X0400196Y0130476D01*
X0400196Y0138350D01*
X0377558Y0138350D01*
X0377873Y0097475D02*
X0377873Y0089601D01*
X0400511Y0089601D01*
X0400511Y0097475D01*
X0377873Y0097475D01*
D15*
X0221470Y0176522D03*
D16*
X0081297Y0284733D02*
X0081297Y0288616D01*
X0081093Y0288616D02*
X0073735Y0288616D01*
X0071691Y0289433D02*
X0071691Y0303740D01*
X0071691Y0303741D02*
X0071689Y0303796D01*
X0071683Y0303852D01*
X0071674Y0303907D01*
X0071661Y0303961D01*
X0071644Y0304014D01*
X0071623Y0304066D01*
X0071599Y0304117D01*
X0071572Y0304165D01*
X0071542Y0304212D01*
X0071508Y0304257D01*
X0071471Y0304299D01*
X0071432Y0304338D01*
X0071390Y0304375D01*
X0071345Y0304409D01*
X0071298Y0304439D01*
X0071250Y0304466D01*
X0071199Y0304490D01*
X0071147Y0304511D01*
X0071094Y0304528D01*
X0071040Y0304541D01*
X0070985Y0304550D01*
X0070929Y0304556D01*
X0070874Y0304558D01*
X0070874Y0304557D02*
X0070873Y0304557D01*
X0070874Y0304557D02*
X0070812Y0304555D01*
X0070750Y0304550D01*
X0070689Y0304540D01*
X0070629Y0304527D01*
X0070570Y0304511D01*
X0070511Y0304491D01*
X0070454Y0304467D01*
X0070399Y0304440D01*
X0070345Y0304410D01*
X0070293Y0304376D01*
X0070244Y0304339D01*
X0070196Y0304300D01*
X0070151Y0304258D01*
X0070109Y0304213D01*
X0070070Y0304165D01*
X0070033Y0304116D01*
X0069999Y0304064D01*
X0069969Y0304010D01*
X0069942Y0303955D01*
X0069918Y0303898D01*
X0069898Y0303839D01*
X0069882Y0303780D01*
X0069869Y0303720D01*
X0069859Y0303659D01*
X0069854Y0303597D01*
X0069852Y0303535D01*
X0069852Y0303536D02*
X0069852Y0289638D01*
X0069851Y0289638D02*
X0069853Y0289576D01*
X0069859Y0289515D01*
X0069868Y0289454D01*
X0069881Y0289393D01*
X0069898Y0289334D01*
X0069918Y0289276D01*
X0069941Y0289219D01*
X0069968Y0289163D01*
X0069999Y0289109D01*
X0070032Y0289058D01*
X0070069Y0289008D01*
X0070108Y0288961D01*
X0070151Y0288916D01*
X0070196Y0288873D01*
X0070243Y0288834D01*
X0070293Y0288797D01*
X0070344Y0288764D01*
X0070398Y0288733D01*
X0070454Y0288706D01*
X0070511Y0288683D01*
X0070569Y0288663D01*
X0070628Y0288646D01*
X0070689Y0288633D01*
X0070750Y0288624D01*
X0070811Y0288618D01*
X0070873Y0288616D01*
X0070874Y0288616D02*
X0070929Y0288618D01*
X0070985Y0288624D01*
X0071040Y0288633D01*
X0071094Y0288646D01*
X0071147Y0288663D01*
X0071199Y0288684D01*
X0071250Y0288708D01*
X0071298Y0288735D01*
X0071345Y0288765D01*
X0071390Y0288799D01*
X0071432Y0288836D01*
X0071471Y0288875D01*
X0071508Y0288917D01*
X0071542Y0288962D01*
X0071572Y0289009D01*
X0071599Y0289057D01*
X0071623Y0289108D01*
X0071644Y0289160D01*
X0071661Y0289213D01*
X0071674Y0289267D01*
X0071683Y0289322D01*
X0071689Y0289378D01*
X0071691Y0289433D01*
X0066377Y0293317D02*
X0066377Y0299857D01*
X0066378Y0299857D02*
X0066373Y0299914D01*
X0066364Y0299971D01*
X0066351Y0300027D01*
X0066335Y0300082D01*
X0066315Y0300136D01*
X0066292Y0300189D01*
X0066265Y0300240D01*
X0066235Y0300289D01*
X0066201Y0300336D01*
X0066165Y0300380D01*
X0066126Y0300422D01*
X0066083Y0300462D01*
X0066039Y0300498D01*
X0065992Y0300531D01*
X0065943Y0300562D01*
X0065892Y0300589D01*
X0065840Y0300612D01*
X0065786Y0300632D01*
X0065731Y0300648D01*
X0065674Y0300661D01*
X0065618Y0300670D01*
X0065560Y0300675D01*
X0065560Y0300674D02*
X0049618Y0301492D01*
X0049618Y0301491D02*
X0049562Y0301489D01*
X0049507Y0301483D01*
X0049452Y0301474D01*
X0049398Y0301461D01*
X0049344Y0301444D01*
X0049293Y0301423D01*
X0049242Y0301399D01*
X0049193Y0301372D01*
X0049147Y0301341D01*
X0049102Y0301308D01*
X0049060Y0301271D01*
X0049021Y0301232D01*
X0048984Y0301190D01*
X0048951Y0301145D01*
X0048920Y0301099D01*
X0048893Y0301050D01*
X0048869Y0300999D01*
X0048848Y0300948D01*
X0048831Y0300894D01*
X0048818Y0300840D01*
X0048809Y0300785D01*
X0048803Y0300730D01*
X0048801Y0300674D01*
X0048800Y0300674D02*
X0048800Y0300674D01*
X0048801Y0300674D02*
X0048803Y0300618D01*
X0048809Y0300563D01*
X0048818Y0300508D01*
X0048831Y0300454D01*
X0048848Y0300400D01*
X0048869Y0300349D01*
X0048893Y0300298D01*
X0048920Y0300249D01*
X0048951Y0300203D01*
X0048984Y0300158D01*
X0049021Y0300116D01*
X0049060Y0300077D01*
X0049102Y0300040D01*
X0049147Y0300007D01*
X0049193Y0299976D01*
X0049242Y0299949D01*
X0049293Y0299925D01*
X0049344Y0299904D01*
X0049398Y0299887D01*
X0049452Y0299874D01*
X0049507Y0299865D01*
X0049562Y0299859D01*
X0049618Y0299857D01*
X0063107Y0299039D01*
X0063107Y0299040D02*
X0063107Y0294135D01*
X0049618Y0293317D01*
X0049562Y0293315D01*
X0049507Y0293309D01*
X0049452Y0293300D01*
X0049398Y0293287D01*
X0049344Y0293270D01*
X0049293Y0293249D01*
X0049242Y0293225D01*
X0049193Y0293198D01*
X0049147Y0293167D01*
X0049102Y0293134D01*
X0049060Y0293097D01*
X0049021Y0293058D01*
X0048984Y0293016D01*
X0048951Y0292971D01*
X0048920Y0292925D01*
X0048893Y0292876D01*
X0048869Y0292825D01*
X0048848Y0292774D01*
X0048831Y0292720D01*
X0048818Y0292666D01*
X0048809Y0292611D01*
X0048803Y0292556D01*
X0048801Y0292500D01*
X0048803Y0292444D01*
X0048809Y0292389D01*
X0048818Y0292334D01*
X0048831Y0292280D01*
X0048848Y0292226D01*
X0048869Y0292175D01*
X0048893Y0292124D01*
X0048920Y0292075D01*
X0048951Y0292029D01*
X0048984Y0291984D01*
X0049021Y0291942D01*
X0049060Y0291903D01*
X0049102Y0291866D01*
X0049147Y0291833D01*
X0049193Y0291802D01*
X0049242Y0291775D01*
X0049293Y0291751D01*
X0049344Y0291730D01*
X0049398Y0291713D01*
X0049452Y0291700D01*
X0049507Y0291691D01*
X0049562Y0291685D01*
X0049618Y0291683D01*
X0049618Y0291682D02*
X0065560Y0292500D01*
X0065617Y0292505D01*
X0065674Y0292514D01*
X0065730Y0292527D01*
X0065785Y0292543D01*
X0065839Y0292563D01*
X0065891Y0292587D01*
X0065942Y0292613D01*
X0065991Y0292644D01*
X0066038Y0292677D01*
X0066083Y0292713D01*
X0066125Y0292753D01*
X0066164Y0292795D01*
X0066200Y0292839D01*
X0066234Y0292886D01*
X0066264Y0292935D01*
X0066291Y0292986D01*
X0066314Y0293038D01*
X0066334Y0293092D01*
X0066350Y0293148D01*
X0066363Y0293204D01*
X0066372Y0293261D01*
X0066377Y0293318D01*
X0060450Y0290660D02*
X0060450Y0289843D01*
X0051048Y0288821D01*
X0051048Y0286777D01*
X0060450Y0285755D01*
X0060450Y0284937D01*
X0049618Y0285755D01*
X0049552Y0285762D01*
X0049487Y0285773D01*
X0049422Y0285787D01*
X0049359Y0285805D01*
X0049296Y0285827D01*
X0049235Y0285852D01*
X0049175Y0285880D01*
X0049117Y0285912D01*
X0049061Y0285948D01*
X0049007Y0285986D01*
X0048956Y0286027D01*
X0048907Y0286071D01*
X0048860Y0286118D01*
X0048816Y0286168D01*
X0048775Y0286220D01*
X0048737Y0286274D01*
X0048702Y0286330D01*
X0048671Y0286388D01*
X0048643Y0286448D01*
X0048618Y0286510D01*
X0048597Y0286572D01*
X0048597Y0288821D02*
X0048618Y0288883D01*
X0048643Y0288945D01*
X0048671Y0289005D01*
X0048702Y0289063D01*
X0048737Y0289119D01*
X0048775Y0289173D01*
X0048816Y0289225D01*
X0048860Y0289275D01*
X0048907Y0289322D01*
X0048956Y0289366D01*
X0049007Y0289407D01*
X0049061Y0289445D01*
X0049117Y0289481D01*
X0049175Y0289513D01*
X0049235Y0289541D01*
X0049296Y0289566D01*
X0049359Y0289588D01*
X0049422Y0289606D01*
X0049487Y0289620D01*
X0049552Y0289631D01*
X0049618Y0289638D01*
X0060450Y0290660D01*
X0048597Y0288821D02*
X0048563Y0288706D01*
X0048533Y0288589D01*
X0048507Y0288472D01*
X0048485Y0288354D01*
X0048466Y0288236D01*
X0048451Y0288116D01*
X0048440Y0287997D01*
X0048432Y0287877D01*
X0048428Y0287757D01*
X0048428Y0287637D01*
X0048432Y0287517D01*
X0048440Y0287397D01*
X0048451Y0287278D01*
X0048466Y0287158D01*
X0048485Y0287040D01*
X0048507Y0286922D01*
X0048533Y0286805D01*
X0048563Y0286688D01*
X0048597Y0286573D01*
X0050224Y0281463D02*
X0044304Y0281463D01*
X0044304Y0311711D01*
X0050223Y0311711D01*
X0049618Y0307419D02*
X0060450Y0308237D01*
X0060450Y0307419D01*
X0051048Y0306397D01*
X0051048Y0304353D01*
X0060450Y0303331D01*
X0060450Y0302514D01*
X0049618Y0303536D01*
X0049552Y0303543D01*
X0049487Y0303554D01*
X0049422Y0303568D01*
X0049359Y0303586D01*
X0049296Y0303608D01*
X0049235Y0303633D01*
X0049175Y0303661D01*
X0049117Y0303693D01*
X0049061Y0303729D01*
X0049007Y0303767D01*
X0048956Y0303808D01*
X0048907Y0303852D01*
X0048860Y0303899D01*
X0048816Y0303949D01*
X0048775Y0304001D01*
X0048737Y0304055D01*
X0048702Y0304111D01*
X0048671Y0304169D01*
X0048643Y0304229D01*
X0048618Y0304291D01*
X0048597Y0304353D01*
X0048597Y0306602D02*
X0048618Y0306664D01*
X0048643Y0306726D01*
X0048671Y0306786D01*
X0048702Y0306844D01*
X0048737Y0306900D01*
X0048775Y0306954D01*
X0048816Y0307006D01*
X0048860Y0307056D01*
X0048907Y0307103D01*
X0048956Y0307147D01*
X0049007Y0307188D01*
X0049061Y0307226D01*
X0049117Y0307262D01*
X0049175Y0307294D01*
X0049235Y0307322D01*
X0049296Y0307347D01*
X0049359Y0307369D01*
X0049422Y0307387D01*
X0049487Y0307401D01*
X0049552Y0307412D01*
X0049618Y0307419D01*
X0048597Y0306601D02*
X0048563Y0306486D01*
X0048533Y0306369D01*
X0048507Y0306252D01*
X0048485Y0306134D01*
X0048466Y0306016D01*
X0048451Y0305896D01*
X0048440Y0305777D01*
X0048432Y0305657D01*
X0048428Y0305537D01*
X0048428Y0305417D01*
X0048432Y0305297D01*
X0048440Y0305177D01*
X0048451Y0305058D01*
X0048466Y0304938D01*
X0048485Y0304820D01*
X0048507Y0304702D01*
X0048533Y0304585D01*
X0048563Y0304468D01*
X0048597Y0304353D01*
X0061374Y0311711D02*
X0070465Y0311711D01*
X0070409Y0311713D01*
X0070354Y0311719D01*
X0070299Y0311728D01*
X0070245Y0311741D01*
X0070191Y0311758D01*
X0070140Y0311779D01*
X0070089Y0311803D01*
X0070040Y0311830D01*
X0069994Y0311861D01*
X0069949Y0311894D01*
X0069907Y0311931D01*
X0069868Y0311970D01*
X0069831Y0312012D01*
X0069798Y0312057D01*
X0069767Y0312103D01*
X0069740Y0312152D01*
X0069716Y0312203D01*
X0069695Y0312254D01*
X0069678Y0312308D01*
X0069665Y0312362D01*
X0069656Y0312417D01*
X0069650Y0312472D01*
X0069648Y0312528D01*
X0069647Y0312528D02*
X0069647Y0313142D01*
X0073735Y0304558D02*
X0081093Y0304558D01*
X0081298Y0304557D02*
X0081298Y0308441D01*
X0081093Y0308441D02*
X0079662Y0308441D01*
X0079662Y0284733D02*
X0081093Y0284733D01*
X0070465Y0281463D02*
X0061373Y0281463D01*
X0069647Y0280646D02*
X0069647Y0280032D01*
X0069648Y0280646D02*
X0069650Y0280702D01*
X0069656Y0280757D01*
X0069665Y0280812D01*
X0069678Y0280866D01*
X0069695Y0280920D01*
X0069716Y0280971D01*
X0069740Y0281022D01*
X0069767Y0281071D01*
X0069798Y0281117D01*
X0069831Y0281162D01*
X0069868Y0281204D01*
X0069907Y0281243D01*
X0069949Y0281280D01*
X0069994Y0281313D01*
X0070040Y0281344D01*
X0070089Y0281371D01*
X0070140Y0281395D01*
X0070191Y0281416D01*
X0070245Y0281433D01*
X0070299Y0281446D01*
X0070354Y0281455D01*
X0070409Y0281461D01*
X0070465Y0281463D01*
X0044304Y0281463D02*
X0044304Y0281463D01*
D17*
X0198270Y0189379D02*
X0202705Y0189379D01*
X0201596Y0188270D02*
X0199378Y0190488D01*
X0200487Y0191597D02*
X0200487Y0187162D01*
X0199378Y0188270D02*
X0201596Y0190488D01*
D18*
X0252332Y0113568D02*
X0252073Y0113732D01*
X0251811Y0113890D01*
X0251545Y0114041D01*
X0251275Y0114186D01*
X0251002Y0114324D01*
X0250725Y0114455D01*
X0250446Y0114580D01*
X0250163Y0114698D01*
X0249878Y0114808D01*
X0249590Y0114912D01*
X0249299Y0115009D01*
X0249007Y0115098D01*
X0248712Y0115180D01*
X0248415Y0115255D01*
X0248116Y0115323D01*
X0247816Y0115384D01*
X0247515Y0115437D01*
X0247212Y0115482D01*
X0246908Y0115520D01*
X0246604Y0115551D01*
X0246298Y0115574D01*
X0245993Y0115590D01*
X0245687Y0115599D01*
X0245381Y0115599D01*
X0245074Y0115593D01*
X0244769Y0115579D01*
X0244463Y0115557D01*
X0244159Y0115528D01*
X0243855Y0115491D01*
X0243552Y0115447D01*
X0243250Y0115396D01*
X0242949Y0115337D01*
X0242651Y0115271D01*
X0242353Y0115197D01*
X0242058Y0115117D01*
X0241765Y0115029D01*
X0241474Y0114934D01*
X0241185Y0114832D01*
X0240899Y0114723D01*
X0240616Y0114606D01*
X0240336Y0114483D01*
X0240058Y0114353D01*
X0239785Y0114217D01*
X0239514Y0114074D01*
X0239247Y0113924D01*
X0238984Y0113767D01*
X0238725Y0113604D01*
X0238469Y0113435D01*
X0238218Y0113260D01*
X0237972Y0113079D01*
X0237730Y0112891D01*
X0237492Y0112698D01*
X0237260Y0112499D01*
X0237032Y0112295D01*
X0236809Y0112084D01*
X0236592Y0111869D01*
X0236380Y0111648D01*
X0236173Y0111422D01*
X0235972Y0111191D01*
X0235777Y0110956D01*
X0235587Y0110715D01*
X0235404Y0110470D01*
X0235226Y0110221D01*
X0235055Y0109967D01*
X0234890Y0109709D01*
X0234731Y0109447D01*
X0234579Y0109182D01*
X0234434Y0108912D01*
X0234295Y0108640D01*
X0234162Y0108364D01*
X0234037Y0108084D01*
X0233918Y0107802D01*
X0233806Y0107517D01*
X0233702Y0107229D01*
X0233604Y0106939D01*
X0233514Y0106647D01*
X0233431Y0106352D01*
X0233354Y0106056D01*
X0233286Y0105757D01*
X0233224Y0105458D01*
X0233170Y0105156D01*
X0233124Y0104854D01*
X0233084Y0104550D01*
X0233053Y0104246D01*
X0233028Y0103940D01*
X0233011Y0103635D01*
X0233002Y0103329D01*
X0233000Y0103023D01*
X0233006Y0102717D01*
X0233019Y0102411D01*
X0233040Y0102105D01*
X0233068Y0101800D01*
X0233103Y0101496D01*
X0233146Y0101193D01*
X0233197Y0100891D01*
X0233254Y0100591D01*
X0233320Y0100292D01*
X0233392Y0099994D01*
X0233472Y0099699D01*
X0233559Y0099405D01*
X0233653Y0099114D01*
X0233754Y0098825D01*
X0233862Y0098538D01*
X0233977Y0098255D01*
X0234099Y0097974D01*
X0234228Y0097696D01*
X0234364Y0097422D01*
X0234506Y0097151D01*
X0234655Y0096884D01*
X0234811Y0096620D01*
X0234973Y0096360D01*
X0235141Y0096104D01*
X0235315Y0095853D01*
X0235496Y0095605D01*
X0235682Y0095363D01*
X0235875Y0095125D01*
X0236073Y0094891D01*
X0236277Y0094663D01*
X0236486Y0094440D01*
X0236701Y0094221D01*
X0236921Y0094009D01*
X0237146Y0093801D01*
X0237377Y0093599D01*
X0237612Y0093403D01*
X0237852Y0093213D01*
X0238096Y0093029D01*
X0238345Y0092850D01*
X0238598Y0092678D01*
X0238855Y0092512D01*
X0239116Y0092353D01*
X0239382Y0092200D01*
X0239650Y0092053D01*
X0239923Y0091913D01*
X0240198Y0091780D01*
X0240477Y0091654D01*
X0240759Y0091534D01*
X0241043Y0091421D01*
X0241331Y0091316D01*
X0241621Y0091217D01*
X0241913Y0091126D01*
X0242207Y0091042D01*
X0242503Y0090965D01*
X0242801Y0090895D01*
X0243101Y0090832D01*
X0243402Y0090777D01*
X0243705Y0090730D01*
X0244008Y0090689D01*
X0244313Y0090657D01*
X0244618Y0090631D01*
X0244923Y0090613D01*
X0245229Y0090603D01*
X0245535Y0090600D01*
X0245841Y0090605D01*
X0246147Y0090617D01*
X0246453Y0090636D01*
X0246758Y0090663D01*
X0247062Y0090698D01*
X0247365Y0090740D01*
X0247667Y0090789D01*
X0247968Y0090846D01*
X0248267Y0090910D01*
X0248565Y0090982D01*
X0248861Y0091060D01*
X0249155Y0091146D01*
X0249446Y0091239D01*
X0249736Y0091340D01*
X0250022Y0091447D01*
X0250306Y0091561D01*
X0250588Y0091682D01*
X0250866Y0091810D01*
X0251141Y0091945D01*
X0251412Y0092086D01*
X0251680Y0092235D01*
X0251944Y0092389D01*
X0252205Y0092550D01*
X0252461Y0092717D01*
X0252713Y0092891D01*
X0252961Y0093071D01*
X0253204Y0093256D01*
X0253443Y0093448D01*
X0253677Y0093646D01*
X0253906Y0093849D01*
X0254130Y0094057D01*
X0254349Y0094271D01*
X0254562Y0094491D01*
X0254771Y0094715D01*
X0254973Y0094945D01*
X0255170Y0095179D01*
X0255361Y0095418D01*
X0255546Y0095662D01*
X0255725Y0095910D01*
X0255898Y0096163D01*
X0256065Y0096420D01*
X0256226Y0096680D01*
X0256380Y0096945D01*
X0256527Y0097213D01*
X0256668Y0097485D01*
X0256802Y0097760D01*
X0256929Y0098039D01*
X0257050Y0098320D01*
X0257164Y0098604D01*
X0257270Y0098891D01*
X0257370Y0099181D01*
X0257462Y0099473D01*
X0263468Y0094232D02*
X0263727Y0094068D01*
X0263989Y0093910D01*
X0264255Y0093759D01*
X0264525Y0093614D01*
X0264798Y0093476D01*
X0265075Y0093345D01*
X0265354Y0093220D01*
X0265637Y0093102D01*
X0265922Y0092992D01*
X0266210Y0092888D01*
X0266501Y0092791D01*
X0266793Y0092702D01*
X0267088Y0092620D01*
X0267385Y0092545D01*
X0267684Y0092477D01*
X0267984Y0092416D01*
X0268285Y0092363D01*
X0268588Y0092318D01*
X0268892Y0092280D01*
X0269196Y0092249D01*
X0269502Y0092226D01*
X0269807Y0092210D01*
X0270113Y0092201D01*
X0270419Y0092201D01*
X0270726Y0092207D01*
X0271031Y0092221D01*
X0271337Y0092243D01*
X0271641Y0092272D01*
X0271945Y0092309D01*
X0272248Y0092353D01*
X0272550Y0092404D01*
X0272851Y0092463D01*
X0273149Y0092529D01*
X0273447Y0092603D01*
X0273742Y0092683D01*
X0274035Y0092771D01*
X0274326Y0092866D01*
X0274615Y0092968D01*
X0274901Y0093077D01*
X0275184Y0093194D01*
X0275464Y0093317D01*
X0275742Y0093447D01*
X0276015Y0093583D01*
X0276286Y0093726D01*
X0276553Y0093876D01*
X0276816Y0094033D01*
X0277075Y0094196D01*
X0277331Y0094365D01*
X0277582Y0094540D01*
X0277828Y0094721D01*
X0278070Y0094909D01*
X0278308Y0095102D01*
X0278540Y0095301D01*
X0278768Y0095505D01*
X0278991Y0095716D01*
X0279208Y0095931D01*
X0279420Y0096152D01*
X0279627Y0096378D01*
X0279828Y0096609D01*
X0280023Y0096844D01*
X0280213Y0097085D01*
X0280396Y0097330D01*
X0280574Y0097579D01*
X0280745Y0097833D01*
X0280910Y0098091D01*
X0281069Y0098353D01*
X0281221Y0098618D01*
X0281366Y0098888D01*
X0281505Y0099160D01*
X0281638Y0099436D01*
X0281763Y0099716D01*
X0281882Y0099998D01*
X0281994Y0100283D01*
X0282098Y0100571D01*
X0282196Y0100861D01*
X0282286Y0101153D01*
X0282369Y0101448D01*
X0282446Y0101744D01*
X0282514Y0102043D01*
X0282576Y0102342D01*
X0282630Y0102644D01*
X0282676Y0102946D01*
X0282716Y0103250D01*
X0282747Y0103554D01*
X0282772Y0103860D01*
X0282789Y0104165D01*
X0282798Y0104471D01*
X0282800Y0104777D01*
X0282794Y0105083D01*
X0282781Y0105389D01*
X0282760Y0105695D01*
X0282732Y0106000D01*
X0282697Y0106304D01*
X0282654Y0106607D01*
X0282603Y0106909D01*
X0282546Y0107209D01*
X0282480Y0107508D01*
X0282408Y0107806D01*
X0282328Y0108101D01*
X0282241Y0108395D01*
X0282147Y0108686D01*
X0282046Y0108975D01*
X0281938Y0109262D01*
X0281823Y0109545D01*
X0281701Y0109826D01*
X0281572Y0110104D01*
X0281436Y0110378D01*
X0281294Y0110649D01*
X0281145Y0110916D01*
X0280989Y0111180D01*
X0280827Y0111440D01*
X0280659Y0111696D01*
X0280485Y0111947D01*
X0280304Y0112195D01*
X0280118Y0112437D01*
X0279925Y0112675D01*
X0279727Y0112909D01*
X0279523Y0113137D01*
X0279314Y0113360D01*
X0279099Y0113579D01*
X0278879Y0113791D01*
X0278654Y0113999D01*
X0278423Y0114201D01*
X0278188Y0114397D01*
X0277948Y0114587D01*
X0277704Y0114771D01*
X0277455Y0114950D01*
X0277202Y0115122D01*
X0276945Y0115288D01*
X0276684Y0115447D01*
X0276418Y0115600D01*
X0276150Y0115747D01*
X0275877Y0115887D01*
X0275602Y0116020D01*
X0275323Y0116146D01*
X0275041Y0116266D01*
X0274757Y0116379D01*
X0274469Y0116484D01*
X0274179Y0116583D01*
X0273887Y0116674D01*
X0273593Y0116758D01*
X0273297Y0116835D01*
X0272999Y0116905D01*
X0272699Y0116968D01*
X0272398Y0117023D01*
X0272095Y0117070D01*
X0271792Y0117111D01*
X0271487Y0117143D01*
X0271182Y0117169D01*
X0270877Y0117187D01*
X0270571Y0117197D01*
X0270265Y0117200D01*
X0269959Y0117195D01*
X0269653Y0117183D01*
X0269347Y0117164D01*
X0269042Y0117137D01*
X0268738Y0117102D01*
X0268435Y0117060D01*
X0268133Y0117011D01*
X0267832Y0116954D01*
X0267533Y0116890D01*
X0267235Y0116818D01*
X0266939Y0116740D01*
X0266645Y0116654D01*
X0266354Y0116561D01*
X0266064Y0116460D01*
X0265778Y0116353D01*
X0265494Y0116239D01*
X0265212Y0116118D01*
X0264934Y0115990D01*
X0264659Y0115855D01*
X0264388Y0115714D01*
X0264120Y0115565D01*
X0263856Y0115411D01*
X0263595Y0115250D01*
X0263339Y0115083D01*
X0263087Y0114909D01*
X0262839Y0114729D01*
X0262596Y0114544D01*
X0262357Y0114352D01*
X0262123Y0114154D01*
X0261894Y0113951D01*
X0261670Y0113743D01*
X0261451Y0113529D01*
X0261238Y0113309D01*
X0261029Y0113085D01*
X0260827Y0112855D01*
X0260630Y0112621D01*
X0260439Y0112382D01*
X0260254Y0112138D01*
X0260075Y0111890D01*
X0259902Y0111637D01*
X0259735Y0111380D01*
X0259574Y0111120D01*
X0259420Y0110855D01*
X0259273Y0110587D01*
X0259132Y0110315D01*
X0258998Y0110040D01*
X0258871Y0109761D01*
X0258750Y0109480D01*
X0258636Y0109196D01*
X0258530Y0108909D01*
X0258430Y0108619D01*
X0258338Y0108327D01*
X0366000Y0207500D02*
X0365757Y0207687D01*
X0365519Y0207879D01*
X0365286Y0208078D01*
X0365058Y0208282D01*
X0364835Y0208491D01*
X0364617Y0208706D01*
X0364404Y0208926D01*
X0364197Y0209151D01*
X0363995Y0209382D01*
X0363799Y0209617D01*
X0363609Y0209857D01*
X0363425Y0210101D01*
X0363247Y0210350D01*
X0363075Y0210604D01*
X0362909Y0210861D01*
X0362749Y0211122D01*
X0362596Y0211387D01*
X0362450Y0211656D01*
X0362310Y0211929D01*
X0362177Y0212204D01*
X0362051Y0212483D01*
X0361931Y0212765D01*
X0361819Y0213050D01*
X0361714Y0213337D01*
X0361615Y0213627D01*
X0361524Y0213919D01*
X0361440Y0214214D01*
X0361363Y0214510D01*
X0361293Y0214808D01*
X0361231Y0215108D01*
X0361176Y0215409D01*
X0361129Y0215711D01*
X0361089Y0216015D01*
X0361056Y0216319D01*
X0361031Y0216624D01*
X0361013Y0216930D01*
X0361003Y0217236D01*
X0361000Y0217542D01*
X0361005Y0217848D01*
X0361017Y0218154D01*
X0361037Y0218460D01*
X0361064Y0218764D01*
X0361099Y0219069D01*
X0361141Y0219372D01*
X0361190Y0219674D01*
X0361247Y0219975D01*
X0361312Y0220274D01*
X0361383Y0220572D01*
X0361462Y0220867D01*
X0361548Y0221161D01*
X0361641Y0221453D01*
X0361742Y0221742D01*
X0361849Y0222029D01*
X0361964Y0222313D01*
X0362085Y0222594D01*
X0362213Y0222872D01*
X0362348Y0223147D01*
X0362490Y0223418D01*
X0362638Y0223686D01*
X0362793Y0223950D01*
X0362954Y0224210D01*
X0363121Y0224466D01*
X0363295Y0224719D01*
X0363475Y0224966D01*
X0363661Y0225210D01*
X0363852Y0225448D01*
X0364050Y0225682D01*
X0364253Y0225911D01*
X0364462Y0226135D01*
X0364676Y0226354D01*
X0364896Y0226567D01*
X0365120Y0226775D01*
X0365350Y0226978D01*
X0365584Y0227174D01*
X0365824Y0227365D01*
X0366067Y0227550D01*
X0366316Y0227729D01*
X0366568Y0227902D01*
X0366825Y0228069D01*
X0367086Y0228229D01*
X0367351Y0228383D01*
X0367619Y0228530D01*
X0367891Y0228671D01*
X0368166Y0228805D01*
X0368445Y0228932D01*
X0368726Y0229053D01*
X0369011Y0229166D01*
X0369298Y0229272D01*
X0369587Y0229372D01*
X0369879Y0229464D01*
X0370173Y0229549D01*
X0370469Y0229627D01*
X0370767Y0229698D01*
X0371067Y0229761D01*
X0371368Y0229817D01*
X0371670Y0229865D01*
X0371973Y0229906D01*
X0372277Y0229940D01*
X0372582Y0229966D01*
X0372888Y0229985D01*
X0373194Y0229996D01*
X0373500Y0230000D01*
X0373806Y0229996D01*
X0374112Y0229985D01*
X0374418Y0229966D01*
X0374723Y0229940D01*
X0375027Y0229906D01*
X0375330Y0229865D01*
X0375632Y0229817D01*
X0375933Y0229761D01*
X0376233Y0229698D01*
X0376531Y0229627D01*
X0376827Y0229549D01*
X0377121Y0229464D01*
X0377413Y0229372D01*
X0377702Y0229272D01*
X0377989Y0229166D01*
X0378274Y0229053D01*
X0378555Y0228932D01*
X0378834Y0228805D01*
X0379109Y0228671D01*
X0379381Y0228530D01*
X0379649Y0228383D01*
X0379914Y0228229D01*
X0380175Y0228069D01*
X0380432Y0227902D01*
X0380684Y0227729D01*
X0380933Y0227550D01*
X0381176Y0227365D01*
X0381416Y0227174D01*
X0381650Y0226978D01*
X0381880Y0226775D01*
X0382104Y0226567D01*
X0382324Y0226354D01*
X0382538Y0226135D01*
X0382747Y0225911D01*
X0382950Y0225682D01*
X0383148Y0225448D01*
X0383339Y0225210D01*
X0383525Y0224966D01*
X0383705Y0224719D01*
X0383879Y0224466D01*
X0384046Y0224210D01*
X0384207Y0223950D01*
X0384362Y0223686D01*
X0384510Y0223418D01*
X0384652Y0223147D01*
X0384787Y0222872D01*
X0384915Y0222594D01*
X0385036Y0222313D01*
X0385151Y0222029D01*
X0385258Y0221742D01*
X0385359Y0221453D01*
X0385452Y0221161D01*
X0385538Y0220867D01*
X0385617Y0220572D01*
X0385688Y0220274D01*
X0385753Y0219975D01*
X0385810Y0219674D01*
X0385859Y0219372D01*
X0385901Y0219069D01*
X0385936Y0218764D01*
X0385963Y0218460D01*
X0385983Y0218154D01*
X0385995Y0217848D01*
X0386000Y0217542D01*
X0385997Y0217236D01*
X0385987Y0216930D01*
X0385969Y0216624D01*
X0385944Y0216319D01*
X0385911Y0216015D01*
X0385871Y0215711D01*
X0385824Y0215409D01*
X0385769Y0215108D01*
X0385707Y0214808D01*
X0385637Y0214510D01*
X0385560Y0214214D01*
X0385476Y0213919D01*
X0385385Y0213627D01*
X0385286Y0213337D01*
X0385181Y0213050D01*
X0385069Y0212765D01*
X0384949Y0212483D01*
X0384823Y0212204D01*
X0384690Y0211929D01*
X0384550Y0211656D01*
X0384404Y0211387D01*
X0384251Y0211122D01*
X0384091Y0210861D01*
X0383925Y0210604D01*
X0383753Y0210350D01*
X0383575Y0210101D01*
X0383391Y0209857D01*
X0383201Y0209617D01*
X0383005Y0209382D01*
X0382803Y0209151D01*
X0382596Y0208926D01*
X0382383Y0208706D01*
X0382165Y0208491D01*
X0381942Y0208282D01*
X0381714Y0208078D01*
X0381481Y0207879D01*
X0381243Y0207687D01*
X0381000Y0207500D01*
X0381800Y0257900D02*
X0382043Y0257713D01*
X0382281Y0257521D01*
X0382514Y0257322D01*
X0382742Y0257118D01*
X0382965Y0256909D01*
X0383183Y0256694D01*
X0383396Y0256474D01*
X0383603Y0256249D01*
X0383805Y0256018D01*
X0384001Y0255783D01*
X0384191Y0255543D01*
X0384375Y0255299D01*
X0384553Y0255050D01*
X0384725Y0254796D01*
X0384891Y0254539D01*
X0385051Y0254278D01*
X0385204Y0254013D01*
X0385350Y0253744D01*
X0385490Y0253471D01*
X0385623Y0253196D01*
X0385749Y0252917D01*
X0385869Y0252635D01*
X0385981Y0252350D01*
X0386086Y0252063D01*
X0386185Y0251773D01*
X0386276Y0251481D01*
X0386360Y0251186D01*
X0386437Y0250890D01*
X0386507Y0250592D01*
X0386569Y0250292D01*
X0386624Y0249991D01*
X0386671Y0249689D01*
X0386711Y0249385D01*
X0386744Y0249081D01*
X0386769Y0248776D01*
X0386787Y0248470D01*
X0386797Y0248164D01*
X0386800Y0247858D01*
X0386795Y0247552D01*
X0386783Y0247246D01*
X0386763Y0246940D01*
X0386736Y0246636D01*
X0386701Y0246331D01*
X0386659Y0246028D01*
X0386610Y0245726D01*
X0386553Y0245425D01*
X0386488Y0245126D01*
X0386417Y0244828D01*
X0386338Y0244533D01*
X0386252Y0244239D01*
X0386159Y0243947D01*
X0386058Y0243658D01*
X0385951Y0243371D01*
X0385836Y0243087D01*
X0385715Y0242806D01*
X0385587Y0242528D01*
X0385452Y0242253D01*
X0385310Y0241982D01*
X0385162Y0241714D01*
X0385007Y0241450D01*
X0384846Y0241190D01*
X0384679Y0240934D01*
X0384505Y0240681D01*
X0384325Y0240434D01*
X0384139Y0240190D01*
X0383948Y0239952D01*
X0383750Y0239718D01*
X0383547Y0239489D01*
X0383338Y0239265D01*
X0383124Y0239046D01*
X0382904Y0238833D01*
X0382680Y0238625D01*
X0382450Y0238422D01*
X0382216Y0238226D01*
X0381976Y0238035D01*
X0381733Y0237850D01*
X0381484Y0237671D01*
X0381232Y0237498D01*
X0380975Y0237331D01*
X0380714Y0237171D01*
X0380449Y0237017D01*
X0380181Y0236870D01*
X0379909Y0236729D01*
X0379634Y0236595D01*
X0379355Y0236468D01*
X0379074Y0236347D01*
X0378789Y0236234D01*
X0378502Y0236128D01*
X0378213Y0236028D01*
X0377921Y0235936D01*
X0377627Y0235851D01*
X0377331Y0235773D01*
X0377033Y0235702D01*
X0376733Y0235639D01*
X0376432Y0235583D01*
X0376130Y0235535D01*
X0375827Y0235494D01*
X0375523Y0235460D01*
X0375218Y0235434D01*
X0374912Y0235415D01*
X0374606Y0235404D01*
X0374300Y0235400D01*
X0373994Y0235404D01*
X0373688Y0235415D01*
X0373382Y0235434D01*
X0373077Y0235460D01*
X0372773Y0235494D01*
X0372470Y0235535D01*
X0372168Y0235583D01*
X0371867Y0235639D01*
X0371567Y0235702D01*
X0371269Y0235773D01*
X0370973Y0235851D01*
X0370679Y0235936D01*
X0370387Y0236028D01*
X0370098Y0236128D01*
X0369811Y0236234D01*
X0369526Y0236347D01*
X0369245Y0236468D01*
X0368966Y0236595D01*
X0368691Y0236729D01*
X0368419Y0236870D01*
X0368151Y0237017D01*
X0367886Y0237171D01*
X0367625Y0237331D01*
X0367368Y0237498D01*
X0367116Y0237671D01*
X0366867Y0237850D01*
X0366624Y0238035D01*
X0366384Y0238226D01*
X0366150Y0238422D01*
X0365920Y0238625D01*
X0365696Y0238833D01*
X0365476Y0239046D01*
X0365262Y0239265D01*
X0365053Y0239489D01*
X0364850Y0239718D01*
X0364652Y0239952D01*
X0364461Y0240190D01*
X0364275Y0240434D01*
X0364095Y0240681D01*
X0363921Y0240934D01*
X0363754Y0241190D01*
X0363593Y0241450D01*
X0363438Y0241714D01*
X0363290Y0241982D01*
X0363148Y0242253D01*
X0363013Y0242528D01*
X0362885Y0242806D01*
X0362764Y0243087D01*
X0362649Y0243371D01*
X0362542Y0243658D01*
X0362441Y0243947D01*
X0362348Y0244239D01*
X0362262Y0244533D01*
X0362183Y0244828D01*
X0362112Y0245126D01*
X0362047Y0245425D01*
X0361990Y0245726D01*
X0361941Y0246028D01*
X0361899Y0246331D01*
X0361864Y0246636D01*
X0361837Y0246940D01*
X0361817Y0247246D01*
X0361805Y0247552D01*
X0361800Y0247858D01*
X0361803Y0248164D01*
X0361813Y0248470D01*
X0361831Y0248776D01*
X0361856Y0249081D01*
X0361889Y0249385D01*
X0361929Y0249689D01*
X0361976Y0249991D01*
X0362031Y0250292D01*
X0362093Y0250592D01*
X0362163Y0250890D01*
X0362240Y0251186D01*
X0362324Y0251481D01*
X0362415Y0251773D01*
X0362514Y0252063D01*
X0362619Y0252350D01*
X0362731Y0252635D01*
X0362851Y0252917D01*
X0362977Y0253196D01*
X0363110Y0253471D01*
X0363250Y0253744D01*
X0363396Y0254013D01*
X0363549Y0254278D01*
X0363709Y0254539D01*
X0363875Y0254796D01*
X0364047Y0255050D01*
X0364225Y0255299D01*
X0364409Y0255543D01*
X0364599Y0255783D01*
X0364795Y0256018D01*
X0364997Y0256249D01*
X0365204Y0256474D01*
X0365417Y0256694D01*
X0365635Y0256909D01*
X0365858Y0257118D01*
X0366086Y0257322D01*
X0366319Y0257521D01*
X0366557Y0257713D01*
X0366800Y0257900D01*
X0257538Y0355473D02*
X0257630Y0355181D01*
X0257730Y0354891D01*
X0257836Y0354604D01*
X0257950Y0354320D01*
X0258071Y0354039D01*
X0258198Y0353760D01*
X0258332Y0353485D01*
X0258473Y0353213D01*
X0258620Y0352945D01*
X0258774Y0352680D01*
X0258935Y0352420D01*
X0259102Y0352163D01*
X0259275Y0351910D01*
X0259454Y0351662D01*
X0259639Y0351418D01*
X0259830Y0351179D01*
X0260027Y0350945D01*
X0260229Y0350715D01*
X0260438Y0350491D01*
X0260651Y0350271D01*
X0260870Y0350057D01*
X0261094Y0349849D01*
X0261323Y0349646D01*
X0261557Y0349448D01*
X0261796Y0349256D01*
X0262039Y0349071D01*
X0262287Y0348891D01*
X0262539Y0348717D01*
X0262795Y0348550D01*
X0263056Y0348389D01*
X0263320Y0348235D01*
X0263588Y0348086D01*
X0263859Y0347945D01*
X0264134Y0347810D01*
X0264412Y0347682D01*
X0264694Y0347561D01*
X0264978Y0347447D01*
X0265264Y0347340D01*
X0265554Y0347239D01*
X0265845Y0347146D01*
X0266139Y0347060D01*
X0266435Y0346982D01*
X0266733Y0346910D01*
X0267032Y0346846D01*
X0267333Y0346789D01*
X0267635Y0346740D01*
X0267938Y0346698D01*
X0268242Y0346663D01*
X0268547Y0346636D01*
X0268853Y0346617D01*
X0269159Y0346605D01*
X0269465Y0346600D01*
X0269771Y0346603D01*
X0270077Y0346613D01*
X0270382Y0346631D01*
X0270687Y0346657D01*
X0270992Y0346689D01*
X0271295Y0346730D01*
X0271598Y0346777D01*
X0271899Y0346832D01*
X0272199Y0346895D01*
X0272497Y0346965D01*
X0272793Y0347042D01*
X0273087Y0347126D01*
X0273379Y0347217D01*
X0273669Y0347316D01*
X0273957Y0347421D01*
X0274241Y0347534D01*
X0274523Y0347654D01*
X0274802Y0347780D01*
X0275077Y0347913D01*
X0275350Y0348053D01*
X0275618Y0348200D01*
X0275884Y0348353D01*
X0276145Y0348512D01*
X0276402Y0348678D01*
X0276655Y0348850D01*
X0276904Y0349029D01*
X0277148Y0349213D01*
X0277388Y0349403D01*
X0277623Y0349599D01*
X0277854Y0349801D01*
X0278079Y0350009D01*
X0278299Y0350221D01*
X0278514Y0350440D01*
X0278723Y0350663D01*
X0278927Y0350891D01*
X0279125Y0351125D01*
X0279318Y0351363D01*
X0279504Y0351605D01*
X0279685Y0351853D01*
X0279859Y0352104D01*
X0280027Y0352360D01*
X0280189Y0352620D01*
X0280345Y0352884D01*
X0280494Y0353151D01*
X0280636Y0353422D01*
X0280772Y0353696D01*
X0280901Y0353974D01*
X0281023Y0354255D01*
X0281138Y0354538D01*
X0281246Y0354825D01*
X0281347Y0355114D01*
X0281441Y0355405D01*
X0281528Y0355699D01*
X0281608Y0355994D01*
X0281680Y0356292D01*
X0281746Y0356591D01*
X0281803Y0356891D01*
X0281854Y0357193D01*
X0281897Y0357496D01*
X0281932Y0357800D01*
X0281960Y0358105D01*
X0281981Y0358411D01*
X0281994Y0358717D01*
X0282000Y0359023D01*
X0281998Y0359329D01*
X0281989Y0359635D01*
X0281972Y0359940D01*
X0281947Y0360246D01*
X0281916Y0360550D01*
X0281876Y0360854D01*
X0281830Y0361156D01*
X0281776Y0361458D01*
X0281714Y0361757D01*
X0281646Y0362056D01*
X0281569Y0362352D01*
X0281486Y0362647D01*
X0281396Y0362939D01*
X0281298Y0363229D01*
X0281194Y0363517D01*
X0281082Y0363802D01*
X0280963Y0364084D01*
X0280838Y0364364D01*
X0280705Y0364640D01*
X0280566Y0364912D01*
X0280421Y0365182D01*
X0280269Y0365447D01*
X0280110Y0365709D01*
X0279945Y0365967D01*
X0279774Y0366221D01*
X0279596Y0366470D01*
X0279413Y0366715D01*
X0279223Y0366956D01*
X0279028Y0367191D01*
X0278827Y0367422D01*
X0278620Y0367648D01*
X0278408Y0367869D01*
X0278191Y0368084D01*
X0277968Y0368295D01*
X0277740Y0368499D01*
X0277508Y0368698D01*
X0277270Y0368891D01*
X0277028Y0369079D01*
X0276782Y0369260D01*
X0276531Y0369435D01*
X0276275Y0369604D01*
X0276016Y0369767D01*
X0275753Y0369924D01*
X0275486Y0370074D01*
X0275215Y0370217D01*
X0274942Y0370353D01*
X0274664Y0370483D01*
X0274384Y0370606D01*
X0274101Y0370723D01*
X0273815Y0370832D01*
X0273526Y0370934D01*
X0273235Y0371029D01*
X0272942Y0371117D01*
X0272647Y0371197D01*
X0272349Y0371271D01*
X0272051Y0371337D01*
X0271750Y0371396D01*
X0271448Y0371447D01*
X0271145Y0371491D01*
X0270841Y0371528D01*
X0270537Y0371557D01*
X0270231Y0371579D01*
X0269926Y0371593D01*
X0269619Y0371599D01*
X0269313Y0371599D01*
X0269007Y0371590D01*
X0268702Y0371574D01*
X0268396Y0371551D01*
X0268092Y0371520D01*
X0267788Y0371482D01*
X0267485Y0371437D01*
X0267184Y0371384D01*
X0266884Y0371323D01*
X0266585Y0371255D01*
X0266288Y0371180D01*
X0265993Y0371098D01*
X0265701Y0371009D01*
X0265410Y0370912D01*
X0265122Y0370808D01*
X0264837Y0370698D01*
X0264554Y0370580D01*
X0264275Y0370455D01*
X0263998Y0370324D01*
X0263725Y0370186D01*
X0263455Y0370041D01*
X0263189Y0369890D01*
X0262927Y0369732D01*
X0262668Y0369568D01*
X0258262Y0366727D02*
X0258170Y0367019D01*
X0258070Y0367309D01*
X0257964Y0367596D01*
X0257850Y0367880D01*
X0257729Y0368161D01*
X0257602Y0368440D01*
X0257468Y0368715D01*
X0257327Y0368987D01*
X0257180Y0369255D01*
X0257026Y0369520D01*
X0256865Y0369780D01*
X0256698Y0370037D01*
X0256525Y0370290D01*
X0256346Y0370538D01*
X0256161Y0370782D01*
X0255970Y0371021D01*
X0255773Y0371255D01*
X0255571Y0371485D01*
X0255362Y0371709D01*
X0255149Y0371929D01*
X0254930Y0372143D01*
X0254706Y0372351D01*
X0254477Y0372554D01*
X0254243Y0372752D01*
X0254004Y0372944D01*
X0253761Y0373129D01*
X0253513Y0373309D01*
X0253261Y0373483D01*
X0253005Y0373650D01*
X0252744Y0373811D01*
X0252480Y0373965D01*
X0252212Y0374114D01*
X0251941Y0374255D01*
X0251666Y0374390D01*
X0251388Y0374518D01*
X0251106Y0374639D01*
X0250822Y0374753D01*
X0250536Y0374860D01*
X0250246Y0374961D01*
X0249955Y0375054D01*
X0249661Y0375140D01*
X0249365Y0375218D01*
X0249067Y0375290D01*
X0248768Y0375354D01*
X0248467Y0375411D01*
X0248165Y0375460D01*
X0247862Y0375502D01*
X0247558Y0375537D01*
X0247253Y0375564D01*
X0246947Y0375583D01*
X0246641Y0375595D01*
X0246335Y0375600D01*
X0246029Y0375597D01*
X0245723Y0375587D01*
X0245418Y0375569D01*
X0245113Y0375543D01*
X0244808Y0375511D01*
X0244505Y0375470D01*
X0244202Y0375423D01*
X0243901Y0375368D01*
X0243601Y0375305D01*
X0243303Y0375235D01*
X0243007Y0375158D01*
X0242713Y0375074D01*
X0242421Y0374983D01*
X0242131Y0374884D01*
X0241843Y0374779D01*
X0241559Y0374666D01*
X0241277Y0374546D01*
X0240998Y0374420D01*
X0240723Y0374287D01*
X0240450Y0374147D01*
X0240182Y0374000D01*
X0239916Y0373847D01*
X0239655Y0373688D01*
X0239398Y0373522D01*
X0239145Y0373350D01*
X0238896Y0373171D01*
X0238652Y0372987D01*
X0238412Y0372797D01*
X0238177Y0372601D01*
X0237946Y0372399D01*
X0237721Y0372191D01*
X0237501Y0371979D01*
X0237286Y0371760D01*
X0237077Y0371537D01*
X0236873Y0371309D01*
X0236675Y0371075D01*
X0236482Y0370837D01*
X0236296Y0370595D01*
X0236115Y0370347D01*
X0235941Y0370096D01*
X0235773Y0369840D01*
X0235611Y0369580D01*
X0235455Y0369316D01*
X0235306Y0369049D01*
X0235164Y0368778D01*
X0235028Y0368504D01*
X0234899Y0368226D01*
X0234777Y0367945D01*
X0234662Y0367662D01*
X0234554Y0367375D01*
X0234453Y0367086D01*
X0234359Y0366795D01*
X0234272Y0366501D01*
X0234192Y0366206D01*
X0234120Y0365908D01*
X0234054Y0365609D01*
X0233997Y0365309D01*
X0233946Y0365007D01*
X0233903Y0364704D01*
X0233868Y0364400D01*
X0233840Y0364095D01*
X0233819Y0363789D01*
X0233806Y0363483D01*
X0233800Y0363177D01*
X0233802Y0362871D01*
X0233811Y0362565D01*
X0233828Y0362260D01*
X0233853Y0361954D01*
X0233884Y0361650D01*
X0233924Y0361346D01*
X0233970Y0361044D01*
X0234024Y0360742D01*
X0234086Y0360443D01*
X0234154Y0360144D01*
X0234231Y0359848D01*
X0234314Y0359553D01*
X0234404Y0359261D01*
X0234502Y0358971D01*
X0234606Y0358683D01*
X0234718Y0358398D01*
X0234837Y0358116D01*
X0234962Y0357836D01*
X0235095Y0357560D01*
X0235234Y0357288D01*
X0235379Y0357018D01*
X0235531Y0356753D01*
X0235690Y0356491D01*
X0235855Y0356233D01*
X0236026Y0355979D01*
X0236204Y0355730D01*
X0236387Y0355485D01*
X0236577Y0355244D01*
X0236772Y0355009D01*
X0236973Y0354778D01*
X0237180Y0354552D01*
X0237392Y0354331D01*
X0237609Y0354116D01*
X0237832Y0353905D01*
X0238060Y0353701D01*
X0238292Y0353502D01*
X0238530Y0353309D01*
X0238772Y0353121D01*
X0239018Y0352940D01*
X0239269Y0352765D01*
X0239525Y0352596D01*
X0239784Y0352433D01*
X0240047Y0352276D01*
X0240314Y0352126D01*
X0240585Y0351983D01*
X0240858Y0351847D01*
X0241136Y0351717D01*
X0241416Y0351594D01*
X0241699Y0351477D01*
X0241985Y0351368D01*
X0242274Y0351266D01*
X0242565Y0351171D01*
X0242858Y0351083D01*
X0243153Y0351003D01*
X0243451Y0350929D01*
X0243749Y0350863D01*
X0244050Y0350804D01*
X0244352Y0350753D01*
X0244655Y0350709D01*
X0244959Y0350672D01*
X0245263Y0350643D01*
X0245569Y0350621D01*
X0245874Y0350607D01*
X0246181Y0350601D01*
X0246487Y0350601D01*
X0246793Y0350610D01*
X0247098Y0350626D01*
X0247404Y0350649D01*
X0247708Y0350680D01*
X0248012Y0350718D01*
X0248315Y0350763D01*
X0248616Y0350816D01*
X0248916Y0350877D01*
X0249215Y0350945D01*
X0249512Y0351020D01*
X0249807Y0351102D01*
X0250099Y0351191D01*
X0250390Y0351288D01*
X0250678Y0351392D01*
X0250963Y0351502D01*
X0251246Y0351620D01*
X0251525Y0351745D01*
X0251802Y0351876D01*
X0252075Y0352014D01*
X0252345Y0352159D01*
X0252611Y0352310D01*
X0252873Y0352468D01*
X0253132Y0352632D01*
D19*
X0183837Y0163923D03*
X0181869Y0163923D03*
X0179900Y0163923D03*
X0177931Y0163923D03*
X0175963Y0163923D03*
X0175963Y0154277D03*
X0177931Y0154277D03*
X0179900Y0154277D03*
X0181869Y0154277D03*
X0183837Y0154277D03*
D20*
X0184723Y0157131D03*
X0184723Y0159100D03*
X0184723Y0161069D03*
X0175077Y0161069D03*
X0175077Y0159100D03*
X0175077Y0157131D03*
D21*
X0102199Y0074413D03*
D22*
X0085270Y0075594D02*
X0085270Y0079531D01*
X0085270Y0075594D02*
X0087632Y0075594D01*
X0085270Y0083469D02*
X0085270Y0087406D01*
X0087632Y0087406D01*
X0104168Y0087406D02*
X0106530Y0087406D01*
X0106530Y0083469D01*
X0106530Y0079531D02*
X0106530Y0075594D01*
X0104168Y0075594D01*
M02*
