G75*
%MOIN*%
%OFA0B0*%
%FSLAX24Y24*%
%IPPOS*%
%LPD*%
%AMOC8*
5,1,8,0,0,1.08239X$1,22.5*
%
%ADD10R,0.0710X0.0789*%
%ADD11R,0.0592X0.0671*%
%ADD12R,0.4332X0.4178*%
%ADD13R,0.0500X0.0930*%
%ADD14C,0.0640*%
%ADD15C,0.0434*%
%ADD16R,0.1025X0.1025*%
%ADD17R,0.0678X0.0710*%
%ADD18R,0.0671X0.0671*%
%ADD19C,0.0595*%
%ADD20C,0.1182*%
%ADD21C,0.0680*%
%ADD22OC8,0.0600*%
%ADD23R,0.0671X0.0592*%
%ADD24R,0.0946X0.0316*%
%ADD25C,0.0580*%
%ADD26C,0.0476*%
D10*
X017162Y023264D03*
X018264Y023264D03*
D11*
X019723Y025342D03*
X020392Y025342D03*
X020404Y027656D03*
X019735Y027656D03*
X023048Y030151D03*
X023717Y030151D03*
X024348Y030131D03*
X025017Y030131D03*
X025017Y030871D03*
X024348Y030871D03*
X023717Y030851D03*
X023048Y030851D03*
X030370Y022413D03*
X031039Y022413D03*
X030908Y018982D03*
X031577Y018982D03*
X024835Y012420D03*
X024165Y012420D03*
D12*
X024082Y025951D03*
D13*
X024082Y029231D03*
X023082Y029231D03*
X025082Y029231D03*
D14*
X017778Y030119D02*
X017778Y030679D01*
X016778Y030679D02*
X016778Y030119D01*
X031153Y009595D02*
X031713Y009595D01*
X031713Y008595D02*
X031153Y008595D01*
D15*
X017510Y025463D03*
X017510Y027195D03*
D16*
X017088Y028780D03*
X018820Y028780D03*
D17*
X048820Y029751D03*
X050257Y029751D03*
X050257Y025751D03*
X048820Y025751D03*
X048820Y021871D03*
X050257Y021871D03*
X050257Y017951D03*
X048820Y017951D03*
X048900Y013871D03*
X050337Y013871D03*
X050337Y010111D03*
X048900Y010111D03*
X048931Y006024D03*
X050368Y006024D03*
X050337Y033511D03*
X048900Y033511D03*
D18*
X048960Y032549D03*
X050338Y032549D03*
X050338Y028549D03*
X048960Y028549D03*
X048960Y024629D03*
X050338Y024629D03*
X050298Y020869D03*
X048920Y020869D03*
X048920Y018949D03*
X050298Y018949D03*
X050378Y015189D03*
X049000Y015189D03*
X049000Y011269D03*
X050378Y011269D03*
X050387Y007174D03*
X049009Y007174D03*
D19*
X026106Y019297D03*
X025319Y019297D03*
X024531Y019297D03*
X023744Y019297D03*
X022957Y019297D03*
X022169Y019297D03*
X022169Y020319D03*
X022957Y020319D03*
X023744Y020319D03*
X024531Y020319D03*
X025319Y020319D03*
X026106Y020319D03*
D20*
X027681Y030358D03*
X020594Y030358D03*
X020594Y009257D03*
X027681Y009257D03*
D21*
X028680Y027800D02*
X028680Y028400D01*
X029680Y028400D02*
X029680Y027800D01*
X030680Y027800D02*
X030680Y028400D01*
X031680Y028400D02*
X031680Y027800D01*
D22*
X048180Y021960D03*
X048180Y020960D03*
X048100Y018920D03*
X048100Y017920D03*
D23*
X029460Y018405D03*
X029460Y019075D03*
D24*
X025731Y014690D03*
X025731Y014190D03*
X025731Y013690D03*
X025731Y013190D03*
X023109Y013190D03*
X023109Y013690D03*
X023109Y014190D03*
X023109Y014690D03*
D25*
X021220Y014740D03*
X021220Y015540D03*
X021220Y014020D03*
X021220Y013140D03*
D26*
X017140Y007940D03*
X018340Y009940D03*
X020980Y012260D03*
X020660Y013540D03*
X020100Y014260D03*
X022260Y014180D03*
X020500Y016500D03*
X021860Y016980D03*
X023460Y017380D03*
X023860Y016820D03*
X024740Y016660D03*
X025460Y016820D03*
X025540Y016260D03*
X025460Y015540D03*
X027060Y015540D03*
X027860Y015380D03*
X028260Y014820D03*
X029220Y014740D03*
X030100Y014900D03*
X030740Y015460D03*
X030020Y014020D03*
X029460Y013540D03*
X027860Y013780D03*
X027700Y012980D03*
X026900Y013220D03*
X026500Y012500D03*
X027620Y011860D03*
X026180Y009940D03*
X029860Y010100D03*
X030900Y011860D03*
X032100Y012420D03*
X032420Y008980D03*
X033780Y007060D03*
X035060Y007540D03*
X038740Y006180D03*
X047140Y005620D03*
X048820Y004980D03*
X049380Y005140D03*
X049300Y008100D03*
X049540Y008820D03*
X048980Y008980D03*
X050420Y008580D03*
X050580Y012260D03*
X048980Y013140D03*
X048900Y012020D03*
X048980Y016100D03*
X049060Y017060D03*
X047940Y017140D03*
X050500Y016340D03*
X048900Y019460D03*
X048340Y020260D03*
X050660Y020100D03*
X051300Y022100D03*
X050500Y023140D03*
X050580Y023940D03*
X049620Y023940D03*
X049460Y023140D03*
X049140Y022580D03*
X049620Y026580D03*
X048980Y027460D03*
X049460Y027860D03*
X050580Y027540D03*
X049140Y030500D03*
X049220Y031140D03*
X049380Y031700D03*
X050420Y031460D03*
X048820Y033460D03*
X049140Y034180D03*
X049540Y034500D03*
X050260Y034260D03*
X048420Y034180D03*
X047940Y034180D03*
X037300Y032820D03*
X035380Y031860D03*
X031780Y029220D03*
X029860Y029220D03*
X030980Y027060D03*
X031220Y025060D03*
X031860Y023940D03*
X031860Y023140D03*
X031060Y023220D03*
X030340Y023220D03*
X028900Y022580D03*
X028500Y022900D03*
X027860Y023300D03*
X026660Y022900D03*
X026580Y021860D03*
X026100Y021700D03*
X025940Y021140D03*
X027300Y021540D03*
X027780Y021220D03*
X026660Y019700D03*
X026580Y018900D03*
X026820Y018420D03*
X028420Y018420D03*
X028740Y018900D03*
X028900Y017780D03*
X030180Y017300D03*
X030500Y017860D03*
X031220Y018020D03*
X032020Y018900D03*
X032980Y018820D03*
X033140Y019380D03*
X033460Y019860D03*
X033060Y020500D03*
X032100Y020900D03*
X032500Y021380D03*
X032900Y021860D03*
X033380Y022820D03*
X031140Y019700D03*
X030100Y020740D03*
X029540Y020340D03*
X029060Y024260D03*
X024100Y023220D03*
X023540Y022660D03*
X023140Y022180D03*
X022020Y022500D03*
X020980Y021940D03*
X020287Y022816D03*
X019647Y022816D03*
X019647Y023456D03*
X020287Y023456D03*
X021060Y025220D03*
X018820Y025300D03*
X016100Y023700D03*
X017087Y022256D03*
X017767Y022336D03*
X018247Y021936D03*
X019287Y021056D03*
X019287Y020576D03*
X019287Y020096D03*
X019287Y019616D03*
X019287Y019136D03*
X017460Y015860D03*
X016900Y014900D03*
X018340Y012740D03*
X022020Y009860D03*
X029860Y008180D03*
X032900Y016420D03*
X032420Y016500D03*
X020500Y028340D03*
X019940Y028740D03*
X019220Y029860D03*
X018580Y029860D03*
X018580Y030980D03*
X019220Y030980D03*
X022180Y030660D03*
X022180Y031300D03*
X026100Y031300D03*
X026820Y031300D03*
X026820Y030580D03*
X026100Y030580D03*
X027380Y028420D03*
M02*
