%
M48
M72
T01C0.01378
T02C0.02362
T03C0.03150
T04C0.03200
T05C0.03543
T06C0.03600
T07C0.04000
T08C0.11024
%
T01
X83100Y77500
X106300Y75900
X111100Y81500
X106300Y86300
X116700Y143100
X123100Y143900
X191900Y131100
X195100Y135900
X211100Y151100
X202300Y160700
X239100Y121500
X233500Y118300
X215900Y117500
X232201Y93801
X259900Y98300
X257500Y112700
X275100Y98300
X389500Y218300
X255100Y351900
X210300Y257500
X228700Y240700
T02
X223100Y238300
X227100Y231900
X223900Y227100
X222300Y221500
X212700Y222300
X204700Y213500
X197500Y211900
X194300Y206300
X181500Y211100
X176700Y217500
X179900Y222300
X187900Y236700
X193500Y240700
X203900Y230300
X213500Y242300
X217500Y247100
X221500Y251900
X226300Y261500
X211100Y264700
X211100Y272700
X203100Y265500
X195900Y265500
X181500Y259100
X177500Y262300
X171100Y266300
X183100Y275900
X183100Y298300
X202300Y303900
X204700Y283900
X210300Y325500
X193500Y327100
X166300Y317500
X160700Y339100
X160700Y346300
X153500Y346300
X153500Y339100
X114300Y339900
X114300Y346300
X84700Y343100
X78300Y343100
X78300Y331900
X84700Y331900
X91900Y320700
X97500Y316700
X103100Y285500
X95371Y267856
X95371Y261456
X88971Y261456
X88971Y267856
X102300Y252700
X112700Y258300
X123900Y255100
X127900Y259900
X133500Y265500
X153500Y250300
X158300Y251900
X165500Y248700
X170300Y245500
X159100Y230300
X158300Y222300
X160700Y217500
X147100Y201500
X147900Y195900
X147100Y188700
X139900Y199900
X131100Y201500
X127100Y207100
X115900Y194300
X111100Y203100
X97500Y198300
X79100Y213500
X85371Y224656
X85371Y229456
X85371Y234256
X85371Y239056
X85371Y243856
X74971Y252656
X70171Y256656
X63371Y255856
X53500Y270300
X80700Y286300
X151900Y244700
X159100Y262300
X215100Y203900
X216700Y198300
X221500Y197500
X200700Y188700
X193500Y182300
X184700Y180700
X191100Y173500
X185500Y168700
X175100Y181500
X171100Y187100
X163100Y188700
X171100Y171100
X169500Y163100
X161500Y165500
X157500Y158300
X168700Y151900
X175100Y141500
X154300Y132700
X135100Y132700
X131100Y118300
X115100Y107100
X111100Y107100
X107100Y107100
X103100Y107100
X99100Y107100
X95100Y107100
X91100Y107100
X87100Y107100
X83100Y107100
X79100Y107100
X75100Y107100
X63900Y112700
X75900Y132700
X75900Y160700
X92700Y175900
X115100Y176700
X121500Y156700
X112700Y131900
X61500Y182300
X67100Y191900
X201500Y151900
X375900Y235900
X381500Y227900
X397500Y234300
X405500Y254300
X397500Y264700
X398300Y272700
X388700Y272700
X387100Y264700
X383900Y259100
X388700Y299100
X382300Y307900
X387100Y311900
X398300Y308700
X383900Y338300
X384700Y344700
X386300Y350300
X396700Y347900
X380700Y367900
X383900Y375100
X387100Y379100
X395100Y375900
X376700Y375100
X371900Y375100
X361500Y367900
X276700Y364700
X383100Y203900
X387100Y199100
X382300Y194300
X397500Y196700
X405500Y203900
X382300Y164700
X381500Y153500
X398300Y155900
X387900Y121500
X382300Y123100
X385500Y114300
X396700Y119100
X386300Y84700
X380700Y83100
T03
X153563Y226265
X145689Y226265
X137815Y226265
X129941Y226265
X122067Y226265
X114193Y226265
X114193Y236489
X122067Y236489
X129941Y236489
X137815Y236489
X145689Y236489
X153563Y236489
T04
X274198Y357390
X264802Y360810
X250998Y361390
X241602Y364810
X374300Y252900
X374300Y242900
X373500Y222500
X373500Y212500
X274998Y106410
X265602Y102990
X250198Y104810
X240802Y101390
T05
X67604Y287925
X67604Y305248
T06
X70278Y337287
X60278Y337287
X204947Y134826
X214947Y134826
T07
X110900Y97500
X100900Y97500
X90900Y97500
X80900Y97500
X179300Y314300
X189300Y314300
X199300Y314300
X209300Y314300
X360700Y246100
X360700Y236100
X360700Y226100
X360700Y216100
T08
X169311Y125872
X98445Y125872
X98445Y336883
X169311Y336883
M30
