G75*
%MOIN*%
%OFA0B0*%
%FSLAX24Y24*%
%IPPOS*%
%LPD*%
%AMOC8*
5,1,8,0,0,1.08239X$1,22.5*
%
%ADD10R,0.0630X0.0709*%
%ADD11R,0.0512X0.0591*%
%ADD12R,0.4252X0.4098*%
%ADD13R,0.0420X0.0850*%
%ADD14C,0.0560*%
%ADD15R,0.0945X0.0945*%
%ADD16R,0.0598X0.0630*%
%ADD17R,0.0591X0.0591*%
%ADD18C,0.0515*%
%ADD19C,0.0600*%
%ADD20OC8,0.0520*%
%ADD21R,0.0591X0.0512*%
%ADD22R,0.0866X0.0236*%
%ADD23C,0.0500*%
%ADD24C,0.0396*%
%ADD25C,0.0500*%
%ADD26C,0.0320*%
%ADD27C,0.0400*%
%ADD28C,0.0160*%
%ADD29C,0.0100*%
%ADD30C,0.0240*%
D10*
X017162Y023264D03*
X018264Y023264D03*
D11*
X019723Y025342D03*
X020392Y025342D03*
X020404Y027656D03*
X019735Y027656D03*
X023048Y030151D03*
X023717Y030151D03*
X024348Y030131D03*
X025017Y030131D03*
X025017Y030871D03*
X024348Y030871D03*
X023717Y030851D03*
X023048Y030851D03*
X030370Y022413D03*
X031039Y022413D03*
X030908Y018982D03*
X031577Y018982D03*
X024835Y012420D03*
X024165Y012420D03*
D12*
X024082Y025951D03*
D13*
X024082Y029231D03*
X023082Y029231D03*
X025082Y029231D03*
D14*
X017778Y030119D02*
X017778Y030679D01*
X016778Y030679D02*
X016778Y030119D01*
X031153Y009595D02*
X031713Y009595D01*
X031713Y008595D02*
X031153Y008595D01*
D15*
X018820Y028780D03*
X017088Y028780D03*
D16*
X048820Y029751D03*
X050257Y029751D03*
X050257Y025751D03*
X048820Y025751D03*
X048820Y021871D03*
X050257Y021871D03*
X050257Y017951D03*
X048820Y017951D03*
X048900Y013871D03*
X050337Y013871D03*
X050337Y010111D03*
X048900Y010111D03*
X048931Y006024D03*
X050368Y006024D03*
X050337Y033511D03*
X048900Y033511D03*
D17*
X048960Y032549D03*
X050338Y032549D03*
X050338Y028549D03*
X048960Y028549D03*
X048960Y024629D03*
X050338Y024629D03*
X050298Y020869D03*
X048920Y020869D03*
X048920Y018949D03*
X050298Y018949D03*
X050378Y015189D03*
X049000Y015189D03*
X049000Y011269D03*
X050378Y011269D03*
X050387Y007174D03*
X049009Y007174D03*
D18*
X026106Y019297D03*
X025319Y019297D03*
X024531Y019297D03*
X023744Y019297D03*
X022957Y019297D03*
X022169Y019297D03*
X022169Y020319D03*
X022957Y020319D03*
X023744Y020319D03*
X024531Y020319D03*
X025319Y020319D03*
X026106Y020319D03*
D19*
X028680Y027800D02*
X028680Y028400D01*
X029680Y028400D02*
X029680Y027800D01*
X030680Y027800D02*
X030680Y028400D01*
X031680Y028400D02*
X031680Y027800D01*
D20*
X048180Y021960D03*
X048180Y020960D03*
X048100Y018920D03*
X048100Y017920D03*
D21*
X029460Y018405D03*
X029460Y019075D03*
D22*
X025731Y014690D03*
X025731Y014190D03*
X025731Y013690D03*
X025731Y013190D03*
X023109Y013190D03*
X023109Y013690D03*
X023109Y014190D03*
X023109Y014690D03*
D23*
X021220Y014740D03*
X021220Y015540D03*
X021220Y014020D03*
X021220Y013140D03*
D24*
X020660Y013540D03*
X020100Y014260D03*
X022260Y014180D03*
X020980Y012260D03*
X022020Y009860D03*
X018340Y009940D03*
X017140Y007940D03*
X018340Y012740D03*
X016900Y014900D03*
X017460Y015860D03*
X020500Y016500D03*
X021860Y016980D03*
X023460Y017380D03*
X023860Y016820D03*
X024740Y016660D03*
X025460Y016820D03*
X025540Y016260D03*
X025460Y015540D03*
X027060Y015540D03*
X027860Y015380D03*
X028260Y014820D03*
X029220Y014740D03*
X030100Y014900D03*
X030740Y015460D03*
X030020Y014020D03*
X029460Y013540D03*
X027860Y013780D03*
X027700Y012980D03*
X026900Y013220D03*
X026500Y012500D03*
X027620Y011860D03*
X026180Y009940D03*
X029860Y010100D03*
X030900Y011860D03*
X032100Y012420D03*
X032420Y008980D03*
X033780Y007060D03*
X035060Y007540D03*
X038740Y006180D03*
X047140Y005620D03*
X048820Y004980D03*
X049380Y005140D03*
X049300Y008100D03*
X049540Y008820D03*
X048980Y008980D03*
X050420Y008580D03*
X050580Y012260D03*
X048980Y013140D03*
X048900Y012020D03*
X048980Y016100D03*
X049060Y017060D03*
X047940Y017140D03*
X050500Y016340D03*
X048900Y019460D03*
X048340Y020260D03*
X050660Y020100D03*
X051300Y022100D03*
X050500Y023140D03*
X050580Y023940D03*
X049620Y023940D03*
X049460Y023140D03*
X049140Y022580D03*
X049620Y026580D03*
X048980Y027460D03*
X049460Y027860D03*
X050580Y027540D03*
X049140Y030500D03*
X049220Y031140D03*
X049380Y031700D03*
X050420Y031460D03*
X048820Y033460D03*
X049140Y034180D03*
X049540Y034500D03*
X050260Y034260D03*
X048420Y034180D03*
X047940Y034180D03*
X037300Y032820D03*
X035380Y031860D03*
X031780Y029220D03*
X029860Y029220D03*
X030980Y027060D03*
X031220Y025060D03*
X031860Y023940D03*
X031860Y023140D03*
X031060Y023220D03*
X030340Y023220D03*
X028900Y022580D03*
X028500Y022900D03*
X027860Y023300D03*
X026660Y022900D03*
X026580Y021860D03*
X026100Y021700D03*
X025940Y021140D03*
X027300Y021540D03*
X027780Y021220D03*
X026660Y019700D03*
X026580Y018900D03*
X026820Y018420D03*
X028420Y018420D03*
X028740Y018900D03*
X028900Y017780D03*
X030180Y017300D03*
X030500Y017860D03*
X031220Y018020D03*
X032020Y018900D03*
X032980Y018820D03*
X033140Y019380D03*
X033460Y019860D03*
X033060Y020500D03*
X032100Y020900D03*
X032500Y021380D03*
X032900Y021860D03*
X033380Y022820D03*
X031140Y019700D03*
X030100Y020740D03*
X029540Y020340D03*
X029060Y024260D03*
X024100Y023220D03*
X023540Y022660D03*
X023140Y022180D03*
X022020Y022500D03*
X020980Y021940D03*
X020287Y022816D03*
X019647Y022816D03*
X019647Y023456D03*
X020287Y023456D03*
X021060Y025220D03*
X018820Y025300D03*
X016100Y023700D03*
X017087Y022256D03*
X017767Y022336D03*
X018247Y021936D03*
X019287Y021056D03*
X019287Y020576D03*
X019287Y020096D03*
X019287Y019616D03*
X019287Y019136D03*
X020500Y028340D03*
X019940Y028740D03*
X019220Y029860D03*
X018580Y029860D03*
X018580Y030980D03*
X019220Y030980D03*
X022180Y030660D03*
X022180Y031300D03*
X026100Y031300D03*
X026820Y031300D03*
X026820Y030580D03*
X026100Y030580D03*
X027380Y028420D03*
X032420Y016500D03*
X032900Y016420D03*
X029860Y008180D03*
D25*
X019647Y022816D02*
X019407Y023056D01*
D26*
X023082Y029231D02*
X023082Y030117D01*
X023048Y030151D01*
X023048Y030851D01*
X023717Y030851D02*
X023717Y031557D01*
X023940Y031780D01*
X026180Y031780D01*
X031540Y031780D01*
X031780Y031540D01*
X031780Y028200D01*
X031680Y028100D01*
X028680Y028100D02*
X028230Y028550D01*
X027549Y029231D01*
X025082Y029231D01*
X025082Y030066D01*
X025017Y030131D01*
X025017Y030871D01*
X024348Y030871D02*
X023737Y030871D01*
X023717Y030851D01*
X023717Y030151D01*
X023737Y030131D01*
X024348Y030131D01*
X024082Y029786D02*
X023717Y030151D01*
D27*
X024082Y029786D02*
X024082Y029231D01*
X024082Y028020D01*
X021940Y028020D01*
X021940Y023860D01*
X026260Y023860D01*
X026260Y028020D01*
X024082Y028020D01*
X023082Y029231D02*
X023082Y031598D01*
X022900Y031780D01*
X017140Y031780D01*
X016500Y031140D01*
X016500Y030260D01*
X016570Y030190D01*
X016778Y030399D01*
X016570Y030190D02*
X016340Y029961D01*
X016340Y029220D01*
X016780Y028780D01*
X017088Y028780D01*
X017778Y029702D02*
X017778Y030399D01*
X017778Y029702D02*
X018020Y029460D01*
X018020Y027700D01*
X018020Y024296D01*
X018638Y023678D01*
X019220Y023096D01*
X019367Y023096D01*
X019647Y022816D01*
X026100Y031300D02*
X026100Y031700D01*
X026180Y031780D01*
D28*
X016180Y016509D02*
X016180Y008580D01*
X016820Y007940D01*
X017140Y007940D01*
X017061Y007940D02*
X016779Y008065D01*
X016534Y008252D01*
X016337Y008489D01*
X016200Y008766D01*
X016129Y009066D01*
X016120Y009220D01*
X016120Y023352D01*
X016123Y023352D01*
X016306Y023169D01*
X016440Y023034D01*
X016697Y023034D01*
X016697Y022848D01*
X016785Y022760D01*
X017539Y022760D01*
X017627Y022848D01*
X017627Y023681D01*
X017539Y023769D01*
X016785Y023769D01*
X016697Y023681D01*
X016697Y023494D01*
X016631Y023494D01*
X016448Y023677D01*
X016448Y023769D01*
X016395Y023897D01*
X016297Y023995D01*
X016169Y024048D01*
X016120Y024048D01*
X016120Y028945D01*
X016142Y028923D01*
X016465Y028600D01*
X016465Y028246D01*
X016553Y028158D01*
X017622Y028158D01*
X017710Y028246D01*
X017710Y029315D01*
X017622Y029403D01*
X016690Y029403D01*
X016690Y029690D01*
X016692Y029689D01*
X016863Y029689D01*
X017021Y029754D01*
X017142Y029875D01*
X017208Y030033D01*
X017208Y030764D01*
X017142Y030922D01*
X017021Y031043D01*
X016934Y031079D01*
X017285Y031430D01*
X022732Y031430D01*
X022732Y031297D01*
X022730Y031297D01*
X022642Y031209D01*
X022642Y029794D01*
X022722Y029713D01*
X022722Y028744D01*
X022810Y028656D01*
X023354Y028656D01*
X023442Y028744D01*
X023442Y029676D01*
X023669Y029676D01*
X023669Y030103D01*
X023765Y030103D01*
X023765Y029802D01*
X023762Y029800D01*
X023728Y029767D01*
X023704Y029726D01*
X023692Y029680D01*
X023692Y029256D01*
X024057Y029256D01*
X024057Y029206D01*
X024107Y029206D01*
X024107Y028626D01*
X024316Y028626D01*
X024362Y028639D01*
X024403Y028662D01*
X024436Y028696D01*
X024460Y028737D01*
X024472Y028783D01*
X024472Y029206D01*
X024107Y029206D01*
X024107Y029256D01*
X024472Y029256D01*
X024472Y029656D01*
X024627Y029656D01*
X024673Y029668D01*
X024704Y029686D01*
X024722Y029686D01*
X024722Y028744D01*
X024810Y028656D01*
X025354Y028656D01*
X025442Y028744D01*
X025442Y028921D01*
X027420Y028921D01*
X027841Y028500D01*
X027830Y028474D01*
X027830Y027486D01*
X027871Y027387D01*
X028427Y026831D01*
X028526Y026790D01*
X030758Y026790D01*
X030783Y026765D01*
X030911Y026712D01*
X031049Y026712D01*
X031177Y026765D01*
X031275Y026863D01*
X031328Y026991D01*
X031328Y027129D01*
X031275Y027257D01*
X031177Y027355D01*
X031049Y027408D01*
X030911Y027408D01*
X030783Y027355D01*
X030758Y027330D01*
X028692Y027330D01*
X028672Y027350D01*
X028770Y027350D01*
X028935Y027419D01*
X029061Y027545D01*
X029130Y027710D01*
X029130Y028490D01*
X029061Y028655D01*
X028935Y028781D01*
X028770Y028850D01*
X028590Y028850D01*
X028433Y028785D01*
X028406Y028813D01*
X027876Y029343D01*
X028079Y029397D01*
X028314Y029533D01*
X028506Y029725D01*
X028642Y029960D01*
X028712Y030223D01*
X028712Y030494D01*
X028642Y030756D01*
X028506Y030991D01*
X028314Y031183D01*
X028079Y031319D01*
X027817Y031389D01*
X027545Y031389D01*
X027283Y031319D01*
X027048Y031183D01*
X026856Y030991D01*
X026720Y030756D01*
X026650Y030494D01*
X026650Y030223D01*
X026720Y029960D01*
X026856Y029725D01*
X027040Y029541D01*
X025442Y029541D01*
X025442Y029718D01*
X025405Y029756D01*
X025423Y029774D01*
X025423Y030489D01*
X025410Y030501D01*
X025423Y030514D01*
X025423Y031229D01*
X025335Y031317D01*
X024704Y031317D01*
X024673Y031334D01*
X024627Y031347D01*
X024396Y031347D01*
X024396Y030919D01*
X024300Y030919D01*
X024300Y030823D01*
X024396Y030823D01*
X024396Y030396D01*
X024396Y030179D01*
X024300Y030179D01*
X024300Y030823D01*
X023912Y030823D01*
X023912Y030803D01*
X023765Y030803D01*
X023765Y030199D01*
X023912Y030199D01*
X023912Y030179D01*
X024300Y030179D01*
X024300Y030083D01*
X024153Y030083D01*
X024153Y030103D01*
X023765Y030103D01*
X023765Y030199D01*
X023669Y030199D01*
X023669Y030627D01*
X023669Y030803D01*
X023765Y030803D01*
X023765Y030899D01*
X024153Y030899D01*
X024153Y030919D01*
X024300Y030919D01*
X024300Y031347D01*
X024068Y031347D01*
X024022Y031334D01*
X024005Y031324D01*
X023996Y031327D01*
X023765Y031327D01*
X023765Y030899D01*
X023669Y030899D01*
X023669Y031327D01*
X023437Y031327D01*
X023432Y031325D01*
X023432Y031667D01*
X023394Y031760D01*
X031854Y031760D01*
X031866Y031756D01*
X031953Y031760D01*
X032039Y031760D01*
X032052Y031765D01*
X032065Y031766D01*
X032140Y031801D01*
X032140Y028538D01*
X032125Y028584D01*
X032091Y028652D01*
X032046Y028713D01*
X031993Y028766D01*
X031932Y028811D01*
X031864Y028845D01*
X031792Y028868D01*
X031718Y028880D01*
X031700Y028880D01*
X031700Y028120D01*
X031660Y028120D01*
X031660Y028880D01*
X031642Y028880D01*
X031568Y028868D01*
X031496Y028845D01*
X031428Y028811D01*
X031367Y028766D01*
X031314Y028713D01*
X031269Y028652D01*
X031235Y028584D01*
X031212Y028512D01*
X031200Y028438D01*
X031200Y028120D01*
X031660Y028120D01*
X031660Y028080D01*
X031700Y028080D01*
X031700Y027320D01*
X031718Y027320D01*
X031792Y027332D01*
X031864Y027355D01*
X031932Y027389D01*
X031993Y027434D01*
X032046Y027487D01*
X032091Y027548D01*
X032125Y027616D01*
X032140Y027662D01*
X032140Y024152D01*
X032057Y024235D01*
X031929Y024288D01*
X031795Y024288D01*
X031703Y024380D01*
X030337Y024380D01*
X029617Y023660D01*
X029500Y023543D01*
X029500Y022743D01*
X029234Y022477D01*
X029248Y022511D01*
X029248Y022649D01*
X029195Y022777D01*
X029097Y022875D01*
X028969Y022928D01*
X028848Y022928D01*
X028848Y022969D01*
X028795Y023097D01*
X028697Y023195D01*
X028569Y023248D01*
X028431Y023248D01*
X028303Y023195D01*
X028208Y023100D01*
X028152Y023100D01*
X028155Y023103D01*
X028208Y023231D01*
X028208Y023369D01*
X028155Y023497D01*
X028057Y023595D01*
X027929Y023648D01*
X027791Y023648D01*
X027663Y023595D01*
X027565Y023497D01*
X027512Y023369D01*
X027512Y023235D01*
X027377Y023100D01*
X026952Y023100D01*
X026857Y023195D01*
X026729Y023248D01*
X026591Y023248D01*
X026463Y023195D01*
X026365Y023097D01*
X026312Y022969D01*
X026312Y022831D01*
X026365Y022703D01*
X026463Y022605D01*
X026591Y022552D01*
X026729Y022552D01*
X026857Y022605D01*
X026952Y022700D01*
X027543Y022700D01*
X027795Y022952D01*
X027869Y022952D01*
X026904Y021987D01*
X026875Y022057D01*
X026777Y022155D01*
X026649Y022208D01*
X026511Y022208D01*
X026383Y022155D01*
X026285Y022057D01*
X026265Y022009D01*
X026169Y022048D01*
X026035Y022048D01*
X025223Y022860D01*
X023832Y022860D01*
X023737Y022955D01*
X023609Y023008D01*
X023471Y023008D01*
X023343Y022955D01*
X023245Y022857D01*
X023192Y022729D01*
X023192Y022591D01*
X023220Y022524D01*
X023209Y022528D01*
X023071Y022528D01*
X022943Y022475D01*
X022845Y022377D01*
X022792Y022249D01*
X022792Y022111D01*
X022832Y022013D01*
X022368Y022477D01*
X022368Y022569D01*
X022315Y022697D01*
X022217Y022795D01*
X022089Y022848D01*
X021951Y022848D01*
X021823Y022795D01*
X021725Y022697D01*
X021672Y022569D01*
X021672Y022431D01*
X021725Y022303D01*
X021823Y022205D01*
X021951Y022152D01*
X022043Y022152D01*
X023514Y020681D01*
X023514Y020665D01*
X023513Y020664D01*
X023399Y020550D01*
X023350Y020433D01*
X023302Y020550D01*
X023188Y020664D01*
X023038Y020726D01*
X022876Y020726D01*
X022726Y020664D01*
X022611Y020550D01*
X022563Y020433D01*
X022515Y020550D01*
X022400Y020664D01*
X022250Y020726D01*
X022088Y020726D01*
X021938Y020664D01*
X021824Y020550D01*
X021762Y020400D01*
X021762Y020238D01*
X021824Y020088D01*
X021938Y019973D01*
X022088Y019911D01*
X022250Y019911D01*
X022400Y019973D01*
X022515Y020088D01*
X022563Y020205D01*
X022611Y020088D01*
X022726Y019973D01*
X022876Y019911D01*
X023038Y019911D01*
X023188Y019973D01*
X023302Y020088D01*
X023350Y020205D01*
X023399Y020088D01*
X023513Y019973D01*
X023663Y019911D01*
X023825Y019911D01*
X023975Y019973D01*
X024090Y020088D01*
X024138Y020205D01*
X024186Y020088D01*
X024301Y019973D01*
X024450Y019911D01*
X024613Y019911D01*
X024762Y019973D01*
X024877Y020088D01*
X024925Y020205D01*
X024973Y020088D01*
X025088Y019973D01*
X025238Y019911D01*
X025400Y019911D01*
X025550Y019973D01*
X025664Y020088D01*
X025696Y020165D01*
X025701Y020151D01*
X025732Y020090D01*
X025773Y020034D01*
X025821Y019985D01*
X025877Y019945D01*
X025938Y019913D01*
X026004Y019892D01*
X026072Y019881D01*
X026106Y019881D01*
X026106Y020319D01*
X026106Y020756D01*
X026072Y020756D01*
X026004Y020746D01*
X025938Y020724D01*
X025877Y020693D01*
X025821Y020653D01*
X025773Y020604D01*
X025732Y020548D01*
X025701Y020487D01*
X025696Y020473D01*
X025664Y020550D01*
X025550Y020664D01*
X025400Y020726D01*
X025238Y020726D01*
X025088Y020664D01*
X024973Y020550D01*
X024925Y020433D01*
X024877Y020550D01*
X024762Y020664D01*
X024613Y020726D01*
X024450Y020726D01*
X024301Y020664D01*
X024186Y020550D01*
X024138Y020433D01*
X024090Y020550D01*
X023975Y020664D01*
X023974Y020665D01*
X023974Y020871D01*
X022973Y021872D01*
X023071Y021832D01*
X023209Y021832D01*
X023337Y021885D01*
X023432Y021980D01*
X024817Y021980D01*
X025592Y021205D01*
X025592Y021071D01*
X025645Y020943D01*
X025743Y020845D01*
X025871Y020792D01*
X026009Y020792D01*
X026137Y020845D01*
X026235Y020943D01*
X026288Y021071D01*
X026288Y021209D01*
X026235Y021337D01*
X026205Y021367D01*
X026297Y021405D01*
X026395Y021503D01*
X026415Y021551D01*
X026511Y021512D01*
X026645Y021512D01*
X026657Y021500D01*
X026952Y021500D01*
X026952Y021471D01*
X027005Y021343D01*
X027103Y021245D01*
X027231Y021192D01*
X027369Y021192D01*
X027432Y021218D01*
X027432Y021151D01*
X027485Y021023D01*
X027583Y020925D01*
X027711Y020872D01*
X027849Y020872D01*
X027977Y020925D01*
X027992Y020940D01*
X028263Y020940D01*
X028380Y021057D01*
X029900Y022577D01*
X029900Y023377D01*
X030503Y023980D01*
X031512Y023980D01*
X031512Y023871D01*
X031552Y023773D01*
X031395Y023930D01*
X030485Y023930D01*
X030245Y023690D01*
X030110Y023555D01*
X030110Y023482D01*
X030045Y023417D01*
X029992Y023289D01*
X029992Y023151D01*
X030045Y023023D01*
X030110Y022958D01*
X030110Y022858D01*
X030052Y022858D01*
X029964Y022770D01*
X029964Y022289D01*
X027445Y019770D01*
X027008Y019770D01*
X026955Y019897D01*
X026857Y019995D01*
X026729Y020048D01*
X026591Y020048D01*
X026463Y019995D01*
X026365Y019897D01*
X026312Y019769D01*
X026312Y019652D01*
X026187Y019704D01*
X026025Y019704D01*
X025875Y019642D01*
X025761Y019527D01*
X025713Y019411D01*
X025664Y019527D01*
X025550Y019642D01*
X025400Y019704D01*
X025238Y019704D01*
X025088Y019642D01*
X024973Y019527D01*
X024925Y019411D01*
X024877Y019527D01*
X024762Y019642D01*
X024613Y019704D01*
X024450Y019704D01*
X024301Y019642D01*
X024186Y019527D01*
X024138Y019411D01*
X024090Y019527D01*
X023975Y019642D01*
X023825Y019704D01*
X023663Y019704D01*
X023513Y019642D01*
X023399Y019527D01*
X023350Y019411D01*
X023302Y019527D01*
X023188Y019642D01*
X023038Y019704D01*
X022876Y019704D01*
X022726Y019642D01*
X022611Y019527D01*
X022579Y019450D01*
X022575Y019464D01*
X022585Y019464D01*
X022575Y019464D02*
X022543Y019526D01*
X022503Y019582D01*
X022454Y019630D01*
X022399Y019671D01*
X022337Y019702D01*
X022272Y019723D01*
X022204Y019734D01*
X022169Y019734D01*
X022135Y019734D01*
X022067Y019723D01*
X022001Y019702D01*
X021940Y019671D01*
X021884Y019630D01*
X021836Y019582D01*
X021795Y019526D01*
X021764Y019464D01*
X021259Y019464D01*
X021180Y019543D02*
X021180Y021648D01*
X021275Y021743D01*
X021328Y021871D01*
X021328Y022009D01*
X021275Y022137D01*
X021177Y022235D01*
X021049Y022288D01*
X020911Y022288D01*
X020783Y022235D01*
X020685Y022137D01*
X020632Y022009D01*
X020632Y021871D01*
X020685Y021743D01*
X020780Y021648D01*
X020780Y019543D01*
X020540Y019783D01*
X020540Y021943D01*
X020423Y022060D01*
X019947Y022536D01*
X018059Y022536D01*
X017964Y022631D01*
X017836Y022684D01*
X017698Y022684D01*
X017570Y022631D01*
X017472Y022533D01*
X017419Y022405D01*
X017419Y022266D01*
X017472Y022138D01*
X017570Y022040D01*
X017698Y021987D01*
X017836Y021987D01*
X017903Y022015D01*
X017899Y022005D01*
X017899Y021866D01*
X017952Y021738D01*
X018050Y021640D01*
X018178Y021587D01*
X018316Y021587D01*
X018444Y021640D01*
X018542Y021738D01*
X018595Y021866D01*
X018595Y021896D01*
X019542Y021896D01*
X019900Y021537D01*
X019900Y019457D01*
X023660Y015697D01*
X023697Y015660D01*
X021603Y015660D01*
X021559Y015767D01*
X021447Y015879D01*
X021300Y015940D01*
X021140Y015940D01*
X021076Y015913D01*
X021795Y016632D01*
X021929Y016632D01*
X022057Y016685D01*
X022155Y016783D01*
X022208Y016911D01*
X022208Y017049D01*
X022155Y017177D01*
X022057Y017275D01*
X021929Y017328D01*
X021791Y017328D01*
X021663Y017275D01*
X021565Y017177D01*
X021512Y017049D01*
X021512Y016915D01*
X020017Y015420D01*
X018657Y015420D01*
X018540Y015303D01*
X018337Y015100D01*
X017192Y015100D01*
X017097Y015195D01*
X016969Y015248D01*
X016831Y015248D01*
X016703Y015195D01*
X016605Y015097D01*
X016552Y014969D01*
X016552Y014831D01*
X016605Y014703D01*
X016703Y014605D01*
X016831Y014552D01*
X016969Y014552D01*
X017097Y014605D01*
X017192Y014700D01*
X018503Y014700D01*
X018823Y015020D01*
X020183Y015020D01*
X020847Y015684D01*
X020820Y015620D01*
X020820Y015460D01*
X020881Y015313D01*
X020993Y015201D01*
X021140Y015140D01*
X020993Y015079D01*
X020881Y014967D01*
X020820Y014820D01*
X020820Y014660D01*
X020881Y014513D01*
X020993Y014401D01*
X021008Y014395D01*
X020995Y014388D01*
X020940Y014348D01*
X020892Y014300D01*
X020852Y014245D01*
X020822Y014185D01*
X020801Y014121D01*
X020792Y014065D01*
X021175Y014065D01*
X021175Y013975D01*
X021265Y013975D01*
X021265Y014065D01*
X021648Y014065D01*
X021639Y014121D01*
X021618Y014185D01*
X021588Y014245D01*
X021548Y014300D01*
X021500Y014348D01*
X021445Y014388D01*
X021432Y014395D01*
X021447Y014401D01*
X021559Y014513D01*
X021570Y014540D01*
X021703Y014540D01*
X022183Y015020D01*
X023537Y015020D01*
X023570Y014987D01*
X023566Y014988D01*
X023109Y014988D01*
X023109Y014690D01*
X023722Y014690D01*
X023722Y014832D01*
X023721Y014836D01*
X024577Y013980D01*
X025178Y013980D01*
X025199Y013959D01*
X025187Y013952D01*
X025154Y013919D01*
X025130Y013878D01*
X025118Y013832D01*
X025118Y013690D01*
X025118Y013548D01*
X025130Y013502D01*
X025154Y013461D01*
X025187Y013428D01*
X025199Y013421D01*
X025148Y013370D01*
X025148Y013010D01*
X025236Y012922D01*
X025501Y012922D01*
X025501Y012675D01*
X025476Y012650D01*
X025241Y012650D01*
X025241Y012777D01*
X025153Y012865D01*
X024521Y012865D01*
X024491Y012883D01*
X024445Y012895D01*
X024213Y012895D01*
X024213Y012468D01*
X024117Y012468D01*
X024117Y012372D01*
X023729Y012372D01*
X023729Y012101D01*
X023742Y012055D01*
X023765Y012014D01*
X023799Y011981D01*
X023840Y011957D01*
X023886Y011945D01*
X024117Y011945D01*
X024117Y012372D01*
X024213Y012372D01*
X024213Y011945D01*
X024445Y011945D01*
X024491Y011957D01*
X024521Y011975D01*
X024529Y011975D01*
X024485Y011930D01*
X022595Y011930D01*
X021575Y012951D01*
X021620Y013060D01*
X021620Y013220D01*
X021559Y013367D01*
X021447Y013479D01*
X021300Y013540D01*
X021140Y013540D01*
X020993Y013479D01*
X020881Y013367D01*
X020820Y013220D01*
X020820Y013060D01*
X020881Y012913D01*
X020993Y012801D01*
X021131Y012744D01*
X022270Y011605D01*
X022405Y011470D01*
X024675Y011470D01*
X024810Y011605D01*
X024995Y011790D01*
X024995Y011790D01*
X025130Y011925D01*
X025130Y011975D01*
X025153Y011975D01*
X025241Y012063D01*
X025241Y012190D01*
X025605Y012190D01*
X026030Y011765D01*
X026165Y011630D01*
X027358Y011630D01*
X027423Y011565D01*
X027551Y011512D01*
X027689Y011512D01*
X027817Y011565D01*
X027882Y011630D01*
X030387Y011630D01*
X030300Y011543D01*
X030300Y008737D01*
X030417Y008620D01*
X030642Y008395D01*
X030770Y008395D01*
X030788Y008352D01*
X030909Y008231D01*
X031067Y008165D01*
X031798Y008165D01*
X031956Y008231D01*
X032077Y008352D01*
X032143Y008510D01*
X032143Y008681D01*
X032077Y008839D01*
X031956Y008960D01*
X031798Y009025D01*
X031067Y009025D01*
X030909Y008960D01*
X030788Y008839D01*
X030781Y008822D01*
X030700Y008903D01*
X030700Y011377D01*
X030835Y011512D01*
X030969Y011512D01*
X031097Y011565D01*
X031195Y011663D01*
X031248Y011791D01*
X031248Y011929D01*
X031195Y012057D01*
X031097Y012155D01*
X030969Y012208D01*
X030831Y012208D01*
X030703Y012155D01*
X030638Y012090D01*
X027882Y012090D01*
X027817Y012155D01*
X027689Y012208D01*
X027551Y012208D01*
X027423Y012155D01*
X027358Y012090D01*
X026355Y012090D01*
X025961Y012484D01*
X025961Y012922D01*
X026226Y012922D01*
X026314Y013010D01*
X026314Y013370D01*
X026263Y013421D01*
X026275Y013428D01*
X026308Y013461D01*
X026332Y013502D01*
X026344Y013548D01*
X026344Y013690D01*
X026344Y013832D01*
X026332Y013878D01*
X026308Y013919D01*
X026275Y013952D01*
X026263Y013959D01*
X026294Y013990D01*
X027367Y013990D01*
X027512Y013845D01*
X027512Y013711D01*
X027565Y013583D01*
X027663Y013485D01*
X027790Y013432D01*
X027685Y013328D01*
X027631Y013328D01*
X027503Y013275D01*
X027405Y013177D01*
X027352Y013049D01*
X027352Y012911D01*
X027405Y012783D01*
X027488Y012700D01*
X026792Y012700D01*
X026697Y012795D01*
X026569Y012848D01*
X026431Y012848D01*
X026303Y012795D01*
X026205Y012697D01*
X026152Y012569D01*
X026152Y012431D01*
X026205Y012303D01*
X026303Y012205D01*
X026431Y012152D01*
X026569Y012152D01*
X026697Y012205D01*
X026792Y012300D01*
X027783Y012300D01*
X028343Y012860D01*
X030423Y012860D01*
X030663Y013100D01*
X030700Y013137D01*
X030700Y012657D01*
X031660Y011697D01*
X031660Y010025D01*
X031067Y010025D01*
X030909Y009960D01*
X030788Y009839D01*
X030723Y009681D01*
X030723Y009510D01*
X030788Y009352D01*
X030909Y009231D01*
X031067Y009165D01*
X031798Y009165D01*
X031956Y009231D01*
X032077Y009352D01*
X032143Y009510D01*
X032143Y009681D01*
X032077Y009839D01*
X032060Y009856D01*
X032060Y011863D01*
X031943Y011980D01*
X031100Y012823D01*
X031100Y014583D01*
X030983Y014700D01*
X030583Y015100D01*
X030392Y015100D01*
X030297Y015195D01*
X030169Y015248D01*
X030031Y015248D01*
X029903Y015195D01*
X029900Y015192D01*
X029900Y015617D01*
X030823Y016540D01*
X030940Y016657D01*
X030940Y017543D01*
X030823Y017660D01*
X030802Y017680D01*
X030848Y017791D01*
X030848Y017929D01*
X030795Y018057D01*
X030697Y018155D01*
X030648Y018175D01*
X030908Y018175D01*
X030872Y018089D01*
X030872Y017951D01*
X030925Y017823D01*
X031023Y017725D01*
X031151Y017672D01*
X031289Y017672D01*
X031417Y017725D01*
X031515Y017823D01*
X031547Y017900D01*
X031863Y017900D01*
X032656Y018693D01*
X032685Y018623D01*
X032783Y018525D01*
X032911Y018472D01*
X033020Y018472D01*
X033020Y016747D01*
X032969Y016768D01*
X032831Y016768D01*
X032703Y016715D01*
X032700Y016712D01*
X032617Y016795D01*
X032489Y016848D01*
X032351Y016848D01*
X032223Y016795D01*
X032125Y016697D01*
X032072Y016569D01*
X032072Y016431D01*
X032125Y016303D01*
X032220Y016208D01*
X032220Y015937D01*
X032337Y015820D01*
X032540Y015617D01*
X032540Y012263D01*
X032503Y012300D01*
X032448Y012355D01*
X032448Y012489D01*
X032395Y012617D01*
X032297Y012715D01*
X032169Y012768D01*
X032031Y012768D01*
X031903Y012715D01*
X031805Y012617D01*
X031752Y012489D01*
X031752Y012351D01*
X031805Y012223D01*
X031903Y012125D01*
X032031Y012072D01*
X032165Y012072D01*
X032220Y012017D01*
X032220Y009272D01*
X032125Y009177D01*
X032072Y009049D01*
X032072Y008911D01*
X032125Y008783D01*
X032223Y008685D01*
X032351Y008632D01*
X032489Y008632D01*
X032540Y008653D01*
X032540Y006982D01*
X032360Y007469D01*
X032360Y007479D01*
X032326Y007562D01*
X032295Y007647D01*
X032288Y007654D01*
X032284Y007663D01*
X032220Y007727D01*
X032159Y007793D01*
X032150Y007797D01*
X032143Y007804D01*
X032060Y007838D01*
X031979Y007876D01*
X031969Y007876D01*
X031959Y007880D01*
X031870Y007880D01*
X031780Y007883D01*
X031771Y007880D01*
X017629Y007880D01*
X017618Y007884D01*
X017529Y007880D01*
X017490Y007880D01*
X017364Y007882D01*
X017061Y007940D01*
X017304Y007894D02*
X032540Y007894D01*
X032540Y008052D02*
X016809Y008052D01*
X016588Y008211D02*
X030958Y008211D01*
X030781Y008369D02*
X028205Y008369D01*
X028314Y008432D02*
X028079Y008296D01*
X027817Y008226D01*
X027545Y008226D01*
X027283Y008296D01*
X027048Y008432D01*
X026856Y008624D01*
X026720Y008859D01*
X026650Y009121D01*
X026650Y009393D01*
X026720Y009655D01*
X026856Y009890D01*
X027048Y010082D01*
X027283Y010218D01*
X027545Y010288D01*
X027817Y010288D01*
X028079Y010218D01*
X028314Y010082D01*
X028506Y009890D01*
X028642Y009655D01*
X028712Y009393D01*
X028712Y009121D01*
X028642Y008859D01*
X028506Y008624D01*
X028314Y008432D01*
X028410Y008528D02*
X030510Y008528D01*
X030351Y008686D02*
X028542Y008686D01*
X028634Y008845D02*
X030300Y008845D01*
X030300Y009003D02*
X028681Y009003D01*
X028712Y009162D02*
X030300Y009162D01*
X030300Y009320D02*
X028712Y009320D01*
X028689Y009479D02*
X030300Y009479D01*
X030300Y009637D02*
X028647Y009637D01*
X028561Y009796D02*
X030300Y009796D01*
X030300Y009954D02*
X028443Y009954D01*
X028262Y010113D02*
X030300Y010113D01*
X030300Y010271D02*
X027882Y010271D01*
X027481Y010271D02*
X020795Y010271D01*
X020730Y010288D02*
X020459Y010288D01*
X020196Y010218D01*
X019961Y010082D01*
X019769Y009890D01*
X019634Y009655D01*
X019563Y009393D01*
X019563Y009121D01*
X019634Y008859D01*
X019769Y008624D01*
X019961Y008432D01*
X020196Y008296D01*
X020459Y008226D01*
X020730Y008226D01*
X020993Y008296D01*
X021228Y008432D01*
X021420Y008624D01*
X021555Y008859D01*
X021626Y009121D01*
X021626Y009393D01*
X021555Y009655D01*
X021420Y009890D01*
X021228Y010082D01*
X020993Y010218D01*
X020730Y010288D01*
X020394Y010271D02*
X018451Y010271D01*
X018409Y010288D02*
X018275Y010288D01*
X017820Y010743D01*
X017820Y013377D01*
X018503Y014060D01*
X019808Y014060D01*
X019903Y013965D01*
X020031Y013912D01*
X020169Y013912D01*
X020297Y013965D01*
X020395Y014063D01*
X020448Y014191D01*
X020448Y014329D01*
X020395Y014457D01*
X020297Y014555D01*
X020169Y014608D01*
X020031Y014608D01*
X019903Y014555D01*
X019808Y014460D01*
X018337Y014460D01*
X017537Y013660D01*
X017420Y013543D01*
X017420Y010577D01*
X017992Y010005D01*
X017992Y009871D01*
X018045Y009743D01*
X018143Y009645D01*
X018271Y009592D01*
X018409Y009592D01*
X018537Y009645D01*
X018635Y009743D01*
X018688Y009871D01*
X018688Y010009D01*
X018635Y010137D01*
X018537Y010235D01*
X018409Y010288D01*
X018645Y010113D02*
X020014Y010113D01*
X019833Y009954D02*
X018688Y009954D01*
X018657Y009796D02*
X019715Y009796D01*
X019629Y009637D02*
X018518Y009637D01*
X018162Y009637D02*
X016120Y009637D01*
X016120Y009479D02*
X019586Y009479D01*
X019563Y009320D02*
X016120Y009320D01*
X016123Y009162D02*
X019563Y009162D01*
X019595Y009003D02*
X016144Y009003D01*
X016181Y008845D02*
X019642Y008845D01*
X019734Y008686D02*
X016239Y008686D01*
X016318Y008528D02*
X019866Y008528D01*
X020070Y008369D02*
X016436Y008369D01*
X016120Y009796D02*
X018023Y009796D01*
X017992Y009954D02*
X016120Y009954D01*
X016120Y010113D02*
X017885Y010113D01*
X017726Y010271D02*
X016120Y010271D01*
X016120Y010430D02*
X017568Y010430D01*
X017420Y010588D02*
X016120Y010588D01*
X016120Y010747D02*
X017420Y010747D01*
X017420Y010905D02*
X016120Y010905D01*
X016120Y011064D02*
X017420Y011064D01*
X017420Y011222D02*
X016120Y011222D01*
X016120Y011381D02*
X017420Y011381D01*
X017420Y011539D02*
X016120Y011539D01*
X016120Y011698D02*
X017420Y011698D01*
X017420Y011856D02*
X016120Y011856D01*
X016120Y012015D02*
X017420Y012015D01*
X017420Y012173D02*
X016120Y012173D01*
X016120Y012332D02*
X017420Y012332D01*
X017420Y012490D02*
X016120Y012490D01*
X016120Y012649D02*
X017420Y012649D01*
X017420Y012807D02*
X016120Y012807D01*
X016120Y012966D02*
X017420Y012966D01*
X017420Y013124D02*
X016120Y013124D01*
X016120Y013283D02*
X017420Y013283D01*
X017420Y013441D02*
X016120Y013441D01*
X016120Y013600D02*
X017477Y013600D01*
X017635Y013758D02*
X016120Y013758D01*
X016120Y013917D02*
X017794Y013917D01*
X017952Y014075D02*
X016120Y014075D01*
X016120Y014234D02*
X018111Y014234D01*
X018269Y014392D02*
X016120Y014392D01*
X016120Y014551D02*
X019898Y014551D01*
X020302Y014551D02*
X020866Y014551D01*
X020820Y014709D02*
X018512Y014709D01*
X018670Y014868D02*
X020840Y014868D01*
X020940Y015026D02*
X020189Y015026D01*
X020347Y015185D02*
X021033Y015185D01*
X021140Y015140D02*
X021300Y015140D01*
X021140Y015140D01*
X021300Y015140D02*
X021447Y015079D01*
X021559Y014967D01*
X021560Y014963D01*
X021857Y015260D01*
X021506Y015260D01*
X021447Y015201D01*
X021300Y015140D01*
X021407Y015185D02*
X021782Y015185D01*
X021623Y015026D02*
X021500Y015026D01*
X021872Y014709D02*
X022496Y014709D01*
X022496Y014690D02*
X023109Y014690D01*
X023109Y014690D01*
X023722Y014690D01*
X023722Y014548D01*
X023710Y014502D01*
X023686Y014461D01*
X023665Y014440D01*
X023686Y014419D01*
X023710Y014378D01*
X023722Y014332D01*
X023722Y014190D01*
X023109Y014190D01*
X023109Y014190D01*
X023722Y014190D01*
X023722Y014048D01*
X023710Y014002D01*
X023686Y013961D01*
X023665Y013940D01*
X023686Y013919D01*
X023710Y013878D01*
X023722Y013832D01*
X023722Y013690D01*
X023109Y013690D01*
X023109Y013690D01*
X023722Y013690D01*
X023722Y013548D01*
X023710Y013502D01*
X023686Y013461D01*
X023665Y013440D01*
X023686Y013419D01*
X023710Y013378D01*
X023722Y013332D01*
X023722Y013190D01*
X023109Y013190D01*
X023109Y013190D01*
X023722Y013190D01*
X023722Y013048D01*
X023710Y013002D01*
X023686Y012961D01*
X023653Y012928D01*
X023612Y012904D01*
X023566Y012892D01*
X023109Y012892D01*
X023109Y013190D01*
X023109Y013190D01*
X023109Y013690D01*
X023109Y013690D01*
X023109Y013690D01*
X023109Y013892D01*
X023109Y014190D01*
X023109Y014190D01*
X023109Y014392D01*
X023109Y014392D01*
X023109Y014690D01*
X023109Y014690D01*
X023109Y014690D01*
X023109Y014190D01*
X023109Y014190D01*
X023109Y013690D01*
X023109Y013190D01*
X023109Y013190D01*
X023140Y013159D01*
X023140Y012740D01*
X023460Y012420D01*
X024165Y012420D01*
X024005Y012260D01*
X022740Y012260D01*
X022100Y012900D01*
X022100Y013460D01*
X021540Y014020D01*
X021220Y014020D01*
X021265Y013975D02*
X021648Y013975D01*
X021639Y013919D01*
X021618Y013855D01*
X021588Y013795D01*
X021548Y013740D01*
X021500Y013692D01*
X021445Y013652D01*
X021385Y013622D01*
X021321Y013601D01*
X021265Y013592D01*
X021265Y013975D01*
X021265Y013917D02*
X021175Y013917D01*
X021175Y013975D02*
X021175Y013592D01*
X021119Y013601D01*
X021055Y013622D01*
X020995Y013652D01*
X020940Y013692D01*
X020892Y013740D01*
X020852Y013795D01*
X020822Y013855D01*
X020801Y013919D01*
X020792Y013975D01*
X021175Y013975D01*
X021175Y013758D02*
X021265Y013758D01*
X021265Y013600D02*
X021175Y013600D01*
X021126Y013600D02*
X018042Y013600D01*
X018201Y013758D02*
X020879Y013758D01*
X020801Y013917D02*
X020180Y013917D01*
X020020Y013917D02*
X018359Y013917D01*
X017884Y013441D02*
X020955Y013441D01*
X020846Y013283D02*
X017820Y013283D01*
X017820Y013124D02*
X020820Y013124D01*
X020859Y012966D02*
X017820Y012966D01*
X017820Y012807D02*
X020987Y012807D01*
X021226Y012649D02*
X017820Y012649D01*
X017820Y012490D02*
X021385Y012490D01*
X021543Y012332D02*
X017820Y012332D01*
X017820Y012173D02*
X021702Y012173D01*
X021860Y012015D02*
X017820Y012015D01*
X017820Y011856D02*
X022019Y011856D01*
X022177Y011698D02*
X017820Y011698D01*
X017820Y011539D02*
X022336Y011539D01*
X022500Y011700D02*
X024580Y011700D01*
X024900Y012020D01*
X024900Y012355D01*
X024835Y012420D01*
X025571Y012420D01*
X025731Y012580D01*
X025731Y012389D01*
X026260Y011860D01*
X027620Y011860D01*
X030900Y011860D01*
X031035Y011539D02*
X031660Y011539D01*
X031660Y011381D02*
X030703Y011381D01*
X030700Y011222D02*
X031660Y011222D01*
X031660Y011064D02*
X030700Y011064D01*
X030700Y010905D02*
X031660Y010905D01*
X031660Y010747D02*
X030700Y010747D01*
X030700Y010588D02*
X031660Y010588D01*
X031660Y010430D02*
X030700Y010430D01*
X030700Y010271D02*
X031660Y010271D01*
X031660Y010113D02*
X030700Y010113D01*
X030700Y009954D02*
X030903Y009954D01*
X030770Y009796D02*
X030700Y009796D01*
X030700Y009637D02*
X030723Y009637D01*
X030736Y009479D02*
X030700Y009479D01*
X030700Y009320D02*
X030820Y009320D01*
X030700Y009162D02*
X032118Y009162D01*
X032072Y009003D02*
X031852Y009003D01*
X032071Y008845D02*
X032099Y008845D01*
X032140Y008686D02*
X032222Y008686D01*
X032143Y008528D02*
X032540Y008528D01*
X032540Y008369D02*
X032084Y008369D01*
X031907Y008211D02*
X032540Y008211D01*
X032540Y007735D02*
X032213Y007735D01*
X032320Y007577D02*
X032540Y007577D01*
X032540Y007418D02*
X032379Y007418D01*
X032438Y007260D02*
X032540Y007260D01*
X032540Y007101D02*
X032496Y007101D01*
X033660Y007101D02*
X038965Y007101D01*
X039014Y006943D02*
X033660Y006943D01*
X033660Y006784D02*
X039063Y006784D01*
X039112Y006626D02*
X033660Y006626D01*
X033660Y006467D02*
X039161Y006467D01*
X039210Y006309D02*
X033660Y006309D01*
X033660Y006150D02*
X039259Y006150D01*
X039308Y005992D02*
X033771Y005992D01*
X033660Y006103D02*
X033943Y005820D01*
X039396Y005820D01*
X039382Y005834D01*
X039352Y005850D01*
X039345Y005871D01*
X039330Y005886D01*
X039330Y005920D01*
X038324Y009172D01*
X033859Y009250D01*
X033806Y009250D01*
X033805Y009251D01*
X033804Y009251D01*
X033767Y009289D01*
X033730Y009326D01*
X033730Y009327D01*
X033729Y009328D01*
X033730Y009381D01*
X033730Y019047D01*
X033703Y019020D01*
X033660Y018977D01*
X033660Y006103D01*
X033930Y005833D02*
X039383Y005833D01*
X038915Y007260D02*
X033660Y007260D01*
X033660Y007418D02*
X038866Y007418D01*
X038817Y007577D02*
X033660Y007577D01*
X033660Y007735D02*
X038768Y007735D01*
X038719Y007894D02*
X033660Y007894D01*
X033660Y008052D02*
X038670Y008052D01*
X038621Y008211D02*
X033660Y008211D01*
X033660Y008369D02*
X038572Y008369D01*
X038523Y008528D02*
X033660Y008528D01*
X033660Y008686D02*
X038474Y008686D01*
X038425Y008845D02*
X033660Y008845D01*
X033660Y009003D02*
X038376Y009003D01*
X038327Y009162D02*
X033660Y009162D01*
X033660Y009320D02*
X033736Y009320D01*
X033730Y009479D02*
X033660Y009479D01*
X033660Y009637D02*
X033730Y009637D01*
X033730Y009796D02*
X033660Y009796D01*
X033660Y009954D02*
X033730Y009954D01*
X033730Y010113D02*
X033660Y010113D01*
X033660Y010271D02*
X033730Y010271D01*
X033730Y010430D02*
X033660Y010430D01*
X033660Y010588D02*
X033730Y010588D01*
X033730Y010747D02*
X033660Y010747D01*
X033660Y010905D02*
X033730Y010905D01*
X033730Y011064D02*
X033660Y011064D01*
X033660Y011222D02*
X033730Y011222D01*
X033730Y011381D02*
X033660Y011381D01*
X033660Y011539D02*
X033730Y011539D01*
X033730Y011698D02*
X033660Y011698D01*
X033660Y011856D02*
X033730Y011856D01*
X033730Y012015D02*
X033660Y012015D01*
X033660Y012173D02*
X033730Y012173D01*
X033730Y012332D02*
X033660Y012332D01*
X033660Y012490D02*
X033730Y012490D01*
X033730Y012649D02*
X033660Y012649D01*
X033660Y012807D02*
X033730Y012807D01*
X033730Y012966D02*
X033660Y012966D01*
X033660Y013124D02*
X033730Y013124D01*
X033730Y013283D02*
X033660Y013283D01*
X033660Y013441D02*
X033730Y013441D01*
X033730Y013600D02*
X033660Y013600D01*
X033660Y013758D02*
X033730Y013758D01*
X033730Y013917D02*
X033660Y013917D01*
X033660Y014075D02*
X033730Y014075D01*
X033730Y014234D02*
X033660Y014234D01*
X033660Y014392D02*
X033730Y014392D01*
X033730Y014551D02*
X033660Y014551D01*
X033660Y014709D02*
X033730Y014709D01*
X033730Y014868D02*
X033660Y014868D01*
X033660Y015026D02*
X033730Y015026D01*
X033730Y015185D02*
X033660Y015185D01*
X033660Y015343D02*
X033730Y015343D01*
X033730Y015502D02*
X033660Y015502D01*
X033660Y015660D02*
X033730Y015660D01*
X033730Y015819D02*
X033660Y015819D01*
X033660Y015977D02*
X033730Y015977D01*
X033730Y016136D02*
X033660Y016136D01*
X033660Y016294D02*
X033730Y016294D01*
X033730Y016453D02*
X033660Y016453D01*
X033660Y016611D02*
X033730Y016611D01*
X033730Y016770D02*
X033660Y016770D01*
X033660Y016928D02*
X033730Y016928D01*
X033730Y017087D02*
X033660Y017087D01*
X033660Y017245D02*
X033730Y017245D01*
X033730Y017404D02*
X033660Y017404D01*
X033660Y017562D02*
X033730Y017562D01*
X033730Y017721D02*
X033660Y017721D01*
X033660Y017879D02*
X033730Y017879D01*
X033730Y018038D02*
X033660Y018038D01*
X033660Y018196D02*
X033730Y018196D01*
X033730Y018355D02*
X033660Y018355D01*
X033660Y018513D02*
X033730Y018513D01*
X033730Y018672D02*
X033660Y018672D01*
X033660Y018830D02*
X033730Y018830D01*
X033730Y018989D02*
X033671Y018989D01*
X033020Y018355D02*
X032317Y018355D01*
X032476Y018513D02*
X032811Y018513D01*
X032665Y018672D02*
X032634Y018672D01*
X032368Y018970D02*
X032315Y019097D01*
X032217Y019195D01*
X032089Y019248D01*
X031983Y019248D01*
X031983Y019339D01*
X031895Y019427D01*
X031264Y019427D01*
X031233Y019445D01*
X031187Y019457D01*
X030956Y019457D01*
X030956Y019030D01*
X030860Y019030D01*
X030860Y019457D01*
X030628Y019457D01*
X030582Y019445D01*
X030541Y019421D01*
X030508Y019388D01*
X030484Y019346D01*
X030472Y019301D01*
X030472Y019030D01*
X030860Y019030D01*
X030860Y018934D01*
X030472Y018934D01*
X030472Y018663D01*
X030479Y018635D01*
X029905Y018635D01*
X029905Y018719D01*
X029923Y018749D01*
X029935Y018795D01*
X029935Y019027D01*
X029508Y019027D01*
X029508Y019123D01*
X029412Y019123D01*
X029412Y019511D01*
X029141Y019511D01*
X029095Y019498D01*
X029054Y019475D01*
X029021Y019441D01*
X028997Y019400D01*
X028985Y019354D01*
X028985Y019123D01*
X029412Y019123D01*
X029412Y019027D01*
X028985Y019027D01*
X028985Y018795D01*
X028997Y018749D01*
X029015Y018719D01*
X029015Y018635D01*
X028697Y018635D01*
X028617Y018715D01*
X028489Y018768D01*
X028351Y018768D01*
X028223Y018715D01*
X028125Y018617D01*
X028072Y018489D01*
X028072Y018351D01*
X028125Y018223D01*
X028223Y018125D01*
X028351Y018072D01*
X028489Y018072D01*
X028617Y018125D01*
X028668Y018175D01*
X029015Y018175D01*
X029015Y018087D01*
X029103Y017999D01*
X029230Y017999D01*
X029230Y017925D01*
X029695Y017460D01*
X028990Y016755D01*
X028990Y015002D01*
X028925Y014937D01*
X028872Y014809D01*
X028872Y014671D01*
X028925Y014543D01*
X029023Y014445D01*
X029151Y014392D01*
X029289Y014392D01*
X029417Y014445D01*
X029500Y014528D01*
X029500Y014417D01*
X029697Y014220D01*
X029728Y014220D01*
X029728Y014220D01*
X028183Y014220D01*
X028060Y014343D01*
X028060Y014528D01*
X028063Y014525D01*
X028191Y014472D01*
X028329Y014472D01*
X028457Y014525D01*
X028555Y014623D01*
X028608Y014751D01*
X028608Y014885D01*
X028940Y015217D01*
X028940Y015463D01*
X028823Y015580D01*
X028423Y015980D01*
X027537Y015980D01*
X027420Y015863D01*
X027260Y015703D01*
X027260Y014903D01*
X027247Y014890D01*
X026294Y014890D01*
X026226Y014958D01*
X025236Y014958D01*
X025168Y014890D01*
X024793Y014890D01*
X024140Y015543D01*
X024103Y015580D01*
X025112Y015580D01*
X025112Y015471D01*
X025165Y015343D01*
X024340Y015343D01*
X024498Y015185D02*
X027260Y015185D01*
X027260Y015343D02*
X025755Y015343D01*
X025808Y015471D01*
X025808Y015609D01*
X025755Y015737D01*
X025657Y015835D01*
X025529Y015888D01*
X025451Y015888D01*
X025475Y015912D01*
X025609Y015912D01*
X025737Y015965D01*
X025835Y016063D01*
X025888Y016191D01*
X025888Y016329D01*
X025835Y016457D01*
X025737Y016555D01*
X025702Y016570D01*
X025755Y016623D01*
X025808Y016751D01*
X025808Y016889D01*
X025755Y017017D01*
X025657Y017115D01*
X025529Y017168D01*
X025395Y017168D01*
X023944Y018619D01*
X023944Y018938D01*
X023975Y018951D01*
X024090Y019066D01*
X024138Y019182D01*
X024186Y019066D01*
X024301Y018951D01*
X024450Y018889D01*
X024613Y018889D01*
X024762Y018951D01*
X024877Y019066D01*
X024925Y019182D01*
X024973Y019066D01*
X025088Y018951D01*
X025238Y018889D01*
X025400Y018889D01*
X025550Y018951D01*
X025664Y019066D01*
X025713Y019182D01*
X025761Y019066D01*
X025875Y018951D01*
X026025Y018889D01*
X026187Y018889D01*
X026232Y018908D01*
X026232Y018831D01*
X026285Y018703D01*
X026383Y018605D01*
X026500Y018556D01*
X026472Y018489D01*
X026472Y018351D01*
X026525Y018223D01*
X026623Y018125D01*
X026751Y018072D01*
X026889Y018072D01*
X027017Y018125D01*
X027112Y018220D01*
X027703Y018220D01*
X029475Y019992D01*
X029609Y019992D01*
X029737Y020045D01*
X029835Y020143D01*
X029888Y020271D01*
X029888Y020409D01*
X029853Y020495D01*
X029903Y020445D01*
X030031Y020392D01*
X030169Y020392D01*
X030297Y020445D01*
X030395Y020543D01*
X030448Y020671D01*
X030448Y020809D01*
X030395Y020937D01*
X030297Y021035D01*
X030169Y021088D01*
X030035Y021088D01*
X030023Y021100D01*
X029537Y021100D01*
X029420Y020983D01*
X027537Y019100D01*
X026872Y019100D01*
X026777Y019195D01*
X026649Y019248D01*
X026514Y019248D01*
X026514Y019378D01*
X026511Y019385D01*
X026591Y019352D01*
X026683Y019352D01*
X026725Y019310D01*
X027635Y019310D01*
X027770Y019445D01*
X030293Y021967D01*
X030683Y021967D01*
X030714Y021950D01*
X030760Y021937D01*
X030991Y021937D01*
X030991Y022365D01*
X031087Y022365D01*
X031087Y022461D01*
X030991Y022461D01*
X030991Y022888D01*
X030760Y022888D01*
X030714Y022876D01*
X030683Y022858D01*
X030570Y022858D01*
X030570Y022958D01*
X030635Y023023D01*
X030688Y023151D01*
X030688Y023289D01*
X030635Y023417D01*
X030629Y023424D01*
X030675Y023470D01*
X031205Y023470D01*
X031512Y023163D01*
X031512Y023071D01*
X031565Y022943D01*
X031663Y022845D01*
X031791Y022792D01*
X031929Y022792D01*
X032057Y022845D01*
X032140Y022928D01*
X032140Y022823D01*
X031900Y022583D01*
X031900Y021192D01*
X031805Y021097D01*
X031752Y020969D01*
X031752Y020831D01*
X031805Y020703D01*
X031903Y020605D01*
X032031Y020552D01*
X032169Y020552D01*
X032297Y020605D01*
X032395Y020703D01*
X032448Y020831D01*
X032448Y020969D01*
X032420Y021036D01*
X032431Y021032D01*
X032569Y021032D01*
X032697Y021085D01*
X032795Y021183D01*
X032848Y021311D01*
X032848Y021449D01*
X032820Y021516D01*
X032831Y021512D01*
X032969Y021512D01*
X033097Y021565D01*
X033100Y021568D01*
X033100Y021223D01*
X032860Y020983D01*
X032860Y020792D01*
X032765Y020697D01*
X032712Y020569D01*
X032712Y020431D01*
X032765Y020303D01*
X032863Y020205D01*
X032991Y020152D01*
X033129Y020152D01*
X033257Y020205D01*
X033355Y020303D01*
X033408Y020431D01*
X033408Y020569D01*
X033355Y020697D01*
X033260Y020792D01*
X033260Y020817D01*
X033383Y020940D01*
X033500Y021057D01*
X033500Y022343D01*
X033371Y022472D01*
X033449Y022472D01*
X033577Y022525D01*
X033675Y022623D01*
X033728Y022751D01*
X033728Y022889D01*
X033675Y023017D01*
X033580Y023112D01*
X033580Y031697D01*
X034023Y032140D01*
X034140Y032257D01*
X034140Y032817D01*
X034263Y032940D01*
X034380Y033057D01*
X034380Y033500D01*
X039306Y033500D01*
X038330Y030870D01*
X033806Y030870D01*
X033730Y030794D01*
X033730Y020082D01*
X033657Y020155D01*
X033529Y020208D01*
X033391Y020208D01*
X033263Y020155D01*
X033165Y020057D01*
X033112Y019929D01*
X033112Y019791D01*
X033138Y019728D01*
X033071Y019728D01*
X032943Y019675D01*
X032845Y019577D01*
X032792Y019449D01*
X032792Y019395D01*
X032368Y018970D01*
X032360Y018989D02*
X032386Y018989D01*
X032265Y019147D02*
X032544Y019147D01*
X032703Y019306D02*
X031983Y019306D01*
X031577Y018982D02*
X031540Y018945D01*
X031540Y018500D01*
X031445Y018405D01*
X029460Y018405D01*
X029460Y018020D01*
X030020Y017460D01*
X029220Y016660D01*
X029220Y014740D01*
X028896Y014868D02*
X028608Y014868D01*
X028591Y014709D02*
X028872Y014709D01*
X028922Y014551D02*
X028483Y014551D01*
X028169Y014234D02*
X029684Y014234D01*
X029525Y014392D02*
X029290Y014392D01*
X029150Y014392D02*
X028060Y014392D01*
X027441Y013917D02*
X026309Y013917D01*
X026344Y013758D02*
X027512Y013758D01*
X027558Y013600D02*
X026344Y013600D01*
X026344Y013690D02*
X025731Y013690D01*
X025731Y013690D01*
X025118Y013690D01*
X025731Y013690D01*
X023109Y013690D01*
X023109Y014190D01*
X023109Y014690D01*
X023109Y014988D01*
X022652Y014988D01*
X022606Y014976D01*
X022565Y014952D01*
X022532Y014919D01*
X022508Y014878D01*
X022496Y014832D01*
X022496Y014690D01*
X022496Y014548D01*
X022508Y014502D01*
X022532Y014461D01*
X022553Y014440D01*
X022532Y014419D01*
X022508Y014378D01*
X022496Y014332D01*
X022496Y014190D01*
X022496Y014048D01*
X022508Y014002D01*
X022532Y013961D01*
X022553Y013940D01*
X022532Y013919D01*
X022508Y013878D01*
X022496Y013832D01*
X022496Y013690D01*
X022496Y013548D01*
X022508Y013502D01*
X022532Y013461D01*
X022553Y013440D01*
X022532Y013419D01*
X022508Y013378D01*
X022496Y013332D01*
X022496Y013190D01*
X022496Y013048D01*
X022508Y013002D01*
X022532Y012961D01*
X022565Y012928D01*
X022606Y012904D01*
X022652Y012892D01*
X023109Y012892D01*
X023109Y013190D01*
X023109Y013488D01*
X023109Y013690D01*
X022496Y013690D01*
X023109Y013690D01*
X023109Y013690D01*
X023109Y013758D02*
X023109Y013758D01*
X023109Y013600D02*
X023109Y013600D01*
X023109Y013441D02*
X023109Y013441D01*
X023109Y013283D02*
X023109Y013283D01*
X023109Y013190D02*
X022496Y013190D01*
X023109Y013190D01*
X023109Y013190D01*
X023109Y013124D02*
X023109Y013124D01*
X023109Y012966D02*
X023109Y012966D01*
X023688Y012966D02*
X025192Y012966D01*
X025211Y012807D02*
X025501Y012807D01*
X025731Y012580D02*
X025731Y013190D01*
X025961Y012807D02*
X026332Y012807D01*
X026270Y012966D02*
X027352Y012966D01*
X027383Y013124D02*
X026314Y013124D01*
X026314Y013283D02*
X027521Y013283D01*
X027769Y013441D02*
X026288Y013441D01*
X026344Y013690D02*
X025731Y013690D01*
X026430Y013690D01*
X026900Y013220D01*
X026668Y012807D02*
X027395Y012807D01*
X027814Y012332D02*
X031026Y012332D01*
X031054Y012173D02*
X031184Y012173D01*
X031213Y012015D02*
X031343Y012015D01*
X031248Y011856D02*
X031501Y011856D01*
X031660Y011698D02*
X031209Y011698D01*
X030746Y012173D02*
X027774Y012173D01*
X027466Y012173D02*
X026620Y012173D01*
X026380Y012173D02*
X026272Y012173D01*
X026193Y012332D02*
X026114Y012332D01*
X026152Y012490D02*
X025961Y012490D01*
X025961Y012649D02*
X026185Y012649D01*
X025622Y012173D02*
X025241Y012173D01*
X025192Y012015D02*
X025780Y012015D01*
X025939Y011856D02*
X025061Y011856D01*
X024903Y011698D02*
X026097Y011698D01*
X024744Y011539D02*
X027485Y011539D01*
X027755Y011539D02*
X030300Y011539D01*
X030300Y011381D02*
X017820Y011381D01*
X017820Y011222D02*
X030300Y011222D01*
X030300Y011064D02*
X017820Y011064D01*
X017820Y010905D02*
X030300Y010905D01*
X030300Y010747D02*
X017820Y010747D01*
X017975Y010588D02*
X030300Y010588D01*
X030300Y010430D02*
X018133Y010430D01*
X021175Y010113D02*
X027100Y010113D01*
X026920Y009954D02*
X021356Y009954D01*
X021474Y009796D02*
X026801Y009796D01*
X026715Y009637D02*
X021560Y009637D01*
X021603Y009479D02*
X026673Y009479D01*
X026650Y009320D02*
X021626Y009320D01*
X021626Y009162D02*
X026650Y009162D01*
X026682Y009003D02*
X021594Y009003D01*
X021547Y008845D02*
X026729Y008845D01*
X026820Y008686D02*
X021455Y008686D01*
X021323Y008528D02*
X026952Y008528D01*
X027157Y008369D02*
X021119Y008369D01*
X022500Y011700D02*
X021220Y012980D01*
X021220Y013140D01*
X021594Y013283D02*
X022496Y013283D01*
X022496Y013124D02*
X021620Y013124D01*
X021581Y012966D02*
X022529Y012966D01*
X022552Y013441D02*
X021485Y013441D01*
X021314Y013600D02*
X022496Y013600D01*
X022496Y013758D02*
X021561Y013758D01*
X021639Y013917D02*
X022531Y013917D01*
X022496Y014075D02*
X021647Y014075D01*
X021594Y014234D02*
X022496Y014234D01*
X022496Y014190D02*
X023109Y014190D01*
X022496Y014190D01*
X022517Y014392D02*
X021437Y014392D01*
X021713Y014551D02*
X022496Y014551D01*
X022496Y014690D02*
X023109Y014690D01*
X023109Y014690D01*
X023109Y014709D02*
X023109Y014709D01*
X023109Y014551D02*
X023109Y014551D01*
X023109Y014868D02*
X023109Y014868D01*
X022505Y014868D02*
X022030Y014868D01*
X021603Y015660D02*
X023697Y015660D01*
X023539Y015819D02*
X021507Y015819D01*
X021298Y016136D02*
X023222Y016136D01*
X023063Y016294D02*
X021457Y016294D01*
X021615Y016453D02*
X022905Y016453D01*
X022746Y016611D02*
X021774Y016611D01*
X022142Y016770D02*
X022588Y016770D01*
X022429Y016928D02*
X022208Y016928D01*
X022193Y017087D02*
X022271Y017087D01*
X022112Y017245D02*
X022087Y017245D01*
X021954Y017404D02*
X016120Y017404D01*
X016120Y017562D02*
X021795Y017562D01*
X021637Y017721D02*
X016120Y017721D01*
X016120Y017879D02*
X021478Y017879D01*
X021320Y018038D02*
X016120Y018038D01*
X016120Y018196D02*
X021161Y018196D01*
X021003Y018355D02*
X016120Y018355D01*
X016120Y018513D02*
X020844Y018513D01*
X020686Y018672D02*
X016120Y018672D01*
X016120Y018830D02*
X020527Y018830D01*
X020369Y018989D02*
X016120Y018989D01*
X016120Y019147D02*
X020210Y019147D01*
X020052Y019306D02*
X016120Y019306D01*
X016120Y019464D02*
X019900Y019464D01*
X019900Y019623D02*
X016120Y019623D01*
X016120Y019781D02*
X019900Y019781D01*
X019900Y019940D02*
X016120Y019940D01*
X016120Y020098D02*
X019900Y020098D01*
X019900Y020257D02*
X016120Y020257D01*
X016120Y020415D02*
X019900Y020415D01*
X019900Y020574D02*
X016120Y020574D01*
X016120Y020732D02*
X019900Y020732D01*
X019900Y020891D02*
X016120Y020891D01*
X016120Y021049D02*
X019900Y021049D01*
X019900Y021208D02*
X016120Y021208D01*
X016120Y021366D02*
X019900Y021366D01*
X019900Y021525D02*
X016120Y021525D01*
X016120Y021683D02*
X018007Y021683D01*
X017909Y021842D02*
X016120Y021842D01*
X016120Y022000D02*
X017668Y022000D01*
X017867Y022000D02*
X017899Y022000D01*
X017464Y022159D02*
X016120Y022159D01*
X016120Y022317D02*
X017419Y022317D01*
X017448Y022476D02*
X016120Y022476D01*
X016120Y022634D02*
X017578Y022634D01*
X017571Y022793D02*
X017812Y022793D01*
X017805Y022800D02*
X017839Y022766D01*
X017880Y022742D01*
X017925Y022730D01*
X018187Y022730D01*
X018187Y023187D01*
X018342Y023187D01*
X018342Y023342D01*
X018759Y023342D01*
X018759Y023642D01*
X018747Y023688D01*
X018723Y023729D01*
X018690Y023763D01*
X018649Y023786D01*
X018603Y023799D01*
X018342Y023799D01*
X018342Y023342D01*
X018187Y023342D01*
X018187Y023799D01*
X017925Y023799D01*
X017880Y023786D01*
X017839Y023763D01*
X017805Y023729D01*
X017781Y023688D01*
X017769Y023642D01*
X017769Y023342D01*
X018187Y023342D01*
X018187Y023187D01*
X017769Y023187D01*
X017769Y022886D01*
X017781Y022841D01*
X017805Y022800D01*
X017769Y022951D02*
X017627Y022951D01*
X017627Y023110D02*
X017769Y023110D01*
X017627Y023268D02*
X018187Y023268D01*
X018264Y023264D02*
X018264Y023304D01*
X018638Y023678D01*
X018709Y023744D02*
X029701Y023744D01*
X029859Y023902D02*
X026358Y023902D01*
X026358Y023840D02*
X026270Y023752D01*
X021894Y023752D01*
X021806Y023840D01*
X021806Y028063D01*
X021894Y028151D01*
X026270Y028151D01*
X026358Y028063D01*
X026358Y023840D01*
X026358Y024061D02*
X030018Y024061D01*
X030176Y024219D02*
X026358Y024219D01*
X026358Y024378D02*
X030335Y024378D01*
X030425Y023902D02*
X030457Y023902D01*
X030298Y023744D02*
X030266Y023744D01*
X030140Y023585D02*
X030108Y023585D01*
X030054Y023427D02*
X029949Y023427D01*
X029992Y023268D02*
X029900Y023268D01*
X029900Y023110D02*
X030009Y023110D01*
X030110Y022951D02*
X029900Y022951D01*
X029900Y022793D02*
X029987Y022793D01*
X029964Y022634D02*
X029900Y022634D01*
X029964Y022476D02*
X029798Y022476D01*
X029640Y022317D02*
X029964Y022317D01*
X029833Y022159D02*
X029481Y022159D01*
X029323Y022000D02*
X029675Y022000D01*
X029516Y021842D02*
X029164Y021842D01*
X029006Y021683D02*
X029358Y021683D01*
X029199Y021525D02*
X028847Y021525D01*
X028689Y021366D02*
X029041Y021366D01*
X028882Y021208D02*
X028530Y021208D01*
X028372Y021049D02*
X028724Y021049D01*
X028565Y020891D02*
X027894Y020891D01*
X027666Y020891D02*
X026183Y020891D01*
X026141Y020756D02*
X026106Y020756D01*
X026106Y020319D01*
X026106Y020319D01*
X026106Y020319D01*
X026106Y020186D01*
X025700Y019780D01*
X022260Y019780D01*
X022180Y019700D01*
X022180Y019307D01*
X022169Y019297D01*
X022169Y019734D01*
X022169Y019297D01*
X022169Y019297D01*
X022169Y019297D01*
X021732Y019297D01*
X021732Y019331D01*
X021743Y019399D01*
X021764Y019464D01*
X021732Y019306D02*
X021417Y019306D01*
X021576Y019147D02*
X021758Y019147D01*
X021764Y019129D02*
X021795Y019067D01*
X021836Y019012D01*
X021884Y018963D01*
X021940Y018922D01*
X022001Y018891D01*
X022067Y018870D01*
X022135Y018859D01*
X022169Y018859D01*
X022169Y019297D01*
X021732Y019297D01*
X021732Y019262D01*
X021743Y019194D01*
X021764Y019129D01*
X021734Y018989D02*
X021859Y018989D01*
X021893Y018830D02*
X022757Y018830D01*
X022757Y018938D02*
X022757Y018360D01*
X023390Y017728D01*
X023263Y017675D01*
X023248Y017660D01*
X023063Y017660D01*
X021180Y019543D01*
X021180Y019623D02*
X021877Y019623D01*
X022169Y019623D02*
X022169Y019623D01*
X022169Y019464D02*
X022169Y019464D01*
X022169Y019306D02*
X022169Y019306D01*
X022169Y019297D02*
X022169Y018859D01*
X022204Y018859D01*
X022272Y018870D01*
X022337Y018891D01*
X022399Y018922D01*
X022454Y018963D01*
X022503Y019012D01*
X022543Y019067D01*
X022575Y019129D01*
X022579Y019143D01*
X022611Y019066D01*
X022726Y018951D01*
X022757Y018938D01*
X022688Y018989D02*
X022480Y018989D01*
X022169Y018989D02*
X022169Y018989D01*
X022169Y019147D02*
X022169Y019147D01*
X022169Y019297D02*
X022169Y019297D01*
X022462Y019623D02*
X022706Y019623D01*
X022808Y019940D02*
X022318Y019940D01*
X022519Y020098D02*
X022607Y020098D01*
X022635Y020574D02*
X022491Y020574D01*
X021848Y020574D02*
X021180Y020574D01*
X021180Y020732D02*
X023463Y020732D01*
X023422Y020574D02*
X023278Y020574D01*
X023304Y020891D02*
X021180Y020891D01*
X021180Y021049D02*
X023146Y021049D01*
X022987Y021208D02*
X021180Y021208D01*
X021180Y021366D02*
X022829Y021366D01*
X022670Y021525D02*
X021180Y021525D01*
X021215Y021683D02*
X022512Y021683D01*
X022353Y021842D02*
X021316Y021842D01*
X021328Y022000D02*
X022195Y022000D01*
X021935Y022159D02*
X021254Y022159D01*
X021719Y022317D02*
X020166Y022317D01*
X020324Y022159D02*
X020706Y022159D01*
X020632Y022000D02*
X020483Y022000D01*
X020540Y021842D02*
X020644Y021842D01*
X020745Y021683D02*
X020540Y021683D01*
X020540Y021525D02*
X020780Y021525D01*
X020780Y021366D02*
X020540Y021366D01*
X020540Y021208D02*
X020780Y021208D01*
X020780Y021049D02*
X020540Y021049D01*
X020540Y020891D02*
X020780Y020891D01*
X020780Y020732D02*
X020540Y020732D01*
X020540Y020574D02*
X020780Y020574D01*
X020780Y020415D02*
X020540Y020415D01*
X020540Y020257D02*
X020780Y020257D01*
X020780Y020098D02*
X020540Y020098D01*
X020540Y019940D02*
X020780Y019940D01*
X020780Y019781D02*
X020542Y019781D01*
X020700Y019623D02*
X020780Y019623D01*
X021180Y019781D02*
X026317Y019781D01*
X026274Y019913D02*
X026336Y019945D01*
X026391Y019985D01*
X026440Y020034D01*
X026480Y020090D01*
X026512Y020151D01*
X026533Y020216D01*
X026544Y020284D01*
X026544Y020319D01*
X026544Y020353D01*
X026533Y020421D01*
X026512Y020487D01*
X026480Y020548D01*
X026440Y020604D01*
X026391Y020653D01*
X026336Y020693D01*
X026274Y020724D01*
X026209Y020746D01*
X026141Y020756D01*
X026106Y020732D02*
X026106Y020732D01*
X025962Y020732D02*
X023974Y020732D01*
X023955Y020891D02*
X025697Y020891D01*
X025601Y021049D02*
X023796Y021049D01*
X023638Y021208D02*
X025590Y021208D01*
X025431Y021366D02*
X023479Y021366D01*
X023321Y021525D02*
X025273Y021525D01*
X025114Y021683D02*
X023162Y021683D01*
X023233Y021842D02*
X024956Y021842D01*
X025607Y022476D02*
X027393Y022476D01*
X027551Y022634D02*
X026886Y022634D01*
X026434Y022634D02*
X025449Y022634D01*
X025290Y022793D02*
X026328Y022793D01*
X026312Y022951D02*
X023741Y022951D01*
X023339Y022951D02*
X018759Y022951D01*
X018759Y022886D02*
X018759Y023187D01*
X018342Y023187D01*
X018342Y022730D01*
X018603Y022730D01*
X018649Y022742D01*
X018690Y022766D01*
X018723Y022800D01*
X018747Y022841D01*
X018759Y022886D01*
X018716Y022793D02*
X021820Y022793D01*
X021699Y022634D02*
X017956Y022634D01*
X018187Y022793D02*
X018342Y022793D01*
X018342Y022951D02*
X018187Y022951D01*
X018187Y023110D02*
X018342Y023110D01*
X018342Y023268D02*
X027512Y023268D01*
X027536Y023427D02*
X018759Y023427D01*
X018759Y023585D02*
X027653Y023585D01*
X028067Y023585D02*
X029542Y023585D01*
X029500Y023427D02*
X028184Y023427D01*
X028208Y023268D02*
X029500Y023268D01*
X029500Y023110D02*
X028783Y023110D01*
X028848Y022951D02*
X029500Y022951D01*
X029500Y022793D02*
X029180Y022793D01*
X029248Y022634D02*
X029391Y022634D01*
X030340Y022340D02*
X027540Y019540D01*
X026820Y019540D01*
X026660Y019700D01*
X026913Y019940D02*
X027614Y019940D01*
X027773Y020098D02*
X026485Y020098D01*
X026539Y020257D02*
X027931Y020257D01*
X028090Y020415D02*
X026534Y020415D01*
X026544Y020319D02*
X026106Y020319D01*
X026106Y019881D01*
X026141Y019881D01*
X026209Y019892D01*
X026274Y019913D01*
X026325Y019940D02*
X026407Y019940D01*
X026106Y019940D02*
X026106Y019940D01*
X026106Y020098D02*
X026106Y020098D01*
X026106Y020257D02*
X026106Y020257D01*
X026106Y020319D02*
X026106Y020319D01*
X026544Y020319D01*
X026462Y020574D02*
X028248Y020574D01*
X028407Y020732D02*
X026251Y020732D01*
X026106Y020574D02*
X026106Y020574D01*
X026106Y020415D02*
X026106Y020415D01*
X025751Y020574D02*
X025641Y020574D01*
X025668Y020098D02*
X025728Y020098D01*
X025887Y019940D02*
X025468Y019940D01*
X025170Y019940D02*
X024680Y019940D01*
X024881Y020098D02*
X024969Y020098D01*
X024997Y020574D02*
X024853Y020574D01*
X024210Y020574D02*
X024066Y020574D01*
X023744Y020776D02*
X022020Y022500D01*
X022341Y022634D02*
X023192Y022634D01*
X023218Y022793D02*
X022220Y022793D01*
X022370Y022476D02*
X022944Y022476D01*
X022820Y022317D02*
X022528Y022317D01*
X022687Y022159D02*
X022792Y022159D01*
X023004Y021842D02*
X023047Y021842D01*
X023744Y020776D02*
X023744Y020319D01*
X023595Y019940D02*
X023106Y019940D01*
X023306Y020098D02*
X023395Y020098D01*
X023494Y019623D02*
X023207Y019623D01*
X023328Y019464D02*
X023372Y019464D01*
X023350Y019182D02*
X023399Y019066D01*
X023513Y018951D01*
X023544Y018938D01*
X023544Y018453D01*
X025112Y016885D01*
X025112Y016751D01*
X025165Y016623D01*
X025263Y016525D01*
X025298Y016510D01*
X025245Y016457D01*
X025192Y016329D01*
X025192Y016220D01*
X024103Y016220D01*
X023063Y017260D01*
X023133Y017260D01*
X023165Y017183D01*
X023263Y017085D01*
X023391Y017032D01*
X023529Y017032D01*
X023657Y017085D01*
X023755Y017183D01*
X023808Y017310D01*
X024392Y016725D01*
X024392Y016591D01*
X024445Y016463D01*
X024543Y016365D01*
X024671Y016312D01*
X024809Y016312D01*
X024937Y016365D01*
X025035Y016463D01*
X025088Y016591D01*
X025088Y016729D01*
X025035Y016857D01*
X024937Y016955D01*
X024809Y017008D01*
X024675Y017008D01*
X023157Y018526D01*
X023157Y018938D01*
X023188Y018951D01*
X023302Y019066D01*
X023350Y019182D01*
X023336Y019147D02*
X023365Y019147D01*
X023476Y018989D02*
X023225Y018989D01*
X023157Y018830D02*
X023544Y018830D01*
X023544Y018672D02*
X023157Y018672D01*
X023170Y018513D02*
X023544Y018513D01*
X023643Y018355D02*
X023328Y018355D01*
X023487Y018196D02*
X023801Y018196D01*
X023645Y018038D02*
X023960Y018038D01*
X023804Y017879D02*
X024118Y017879D01*
X023962Y017721D02*
X024277Y017721D01*
X024121Y017562D02*
X024435Y017562D01*
X024279Y017404D02*
X024594Y017404D01*
X024438Y017245D02*
X024752Y017245D01*
X024596Y017087D02*
X024911Y017087D01*
X024964Y016928D02*
X025069Y016928D01*
X025071Y016770D02*
X025112Y016770D01*
X025088Y016611D02*
X025177Y016611D01*
X025243Y016453D02*
X025025Y016453D01*
X025192Y016294D02*
X024029Y016294D01*
X023870Y016453D02*
X024455Y016453D01*
X024392Y016611D02*
X023712Y016611D01*
X023553Y016770D02*
X024348Y016770D01*
X024189Y016928D02*
X023395Y016928D01*
X023261Y017087D02*
X023236Y017087D01*
X023139Y017245D02*
X023078Y017245D01*
X023002Y017721D02*
X023372Y017721D01*
X023238Y017879D02*
X022844Y017879D01*
X022685Y018038D02*
X023080Y018038D01*
X022921Y018196D02*
X022527Y018196D01*
X022368Y018355D02*
X022763Y018355D01*
X022757Y018513D02*
X022210Y018513D01*
X022051Y018672D02*
X022757Y018672D01*
X023944Y018672D02*
X026316Y018672D01*
X026232Y018830D02*
X023944Y018830D01*
X024012Y018989D02*
X024263Y018989D01*
X024152Y019147D02*
X024123Y019147D01*
X024116Y019464D02*
X024160Y019464D01*
X024281Y019623D02*
X023994Y019623D01*
X023893Y019940D02*
X024383Y019940D01*
X024182Y020098D02*
X024094Y020098D01*
X024782Y019623D02*
X025069Y019623D01*
X024947Y019464D02*
X024903Y019464D01*
X024911Y019147D02*
X024940Y019147D01*
X025051Y018989D02*
X024800Y018989D01*
X024208Y018355D02*
X026472Y018355D01*
X026482Y018513D02*
X024050Y018513D01*
X024367Y018196D02*
X026552Y018196D01*
X027088Y018196D02*
X028152Y018196D01*
X028072Y018355D02*
X027837Y018355D01*
X027996Y018513D02*
X028082Y018513D01*
X028154Y018672D02*
X028179Y018672D01*
X028313Y018830D02*
X028985Y018830D01*
X028985Y018989D02*
X028471Y018989D01*
X028630Y019147D02*
X028985Y019147D01*
X028915Y019075D02*
X028740Y018900D01*
X028661Y018672D02*
X029015Y018672D01*
X028915Y019075D02*
X029460Y019075D01*
X030815Y019075D01*
X030908Y018982D01*
X030908Y019540D01*
X030908Y022281D01*
X031039Y022413D01*
X031060Y022392D01*
X031060Y022020D01*
X031087Y022000D02*
X030991Y022000D01*
X031087Y021937D02*
X031087Y022365D01*
X031475Y022365D01*
X031475Y022094D01*
X031463Y022048D01*
X031439Y022007D01*
X031406Y021973D01*
X031365Y021950D01*
X031319Y021937D01*
X031087Y021937D01*
X031087Y022159D02*
X030991Y022159D01*
X030991Y022317D02*
X031087Y022317D01*
X031039Y022413D02*
X031060Y022433D01*
X031060Y023220D01*
X031248Y023427D02*
X030632Y023427D01*
X030688Y023268D02*
X031407Y023268D01*
X031512Y023110D02*
X030671Y023110D01*
X030570Y022951D02*
X031561Y022951D01*
X031439Y022818D02*
X031406Y022852D01*
X031365Y022876D01*
X031319Y022888D01*
X031087Y022888D01*
X031087Y022461D01*
X031475Y022461D01*
X031475Y022732D01*
X031463Y022777D01*
X031439Y022818D01*
X031454Y022793D02*
X031789Y022793D01*
X031931Y022793D02*
X032110Y022793D01*
X031951Y022634D02*
X031475Y022634D01*
X031475Y022476D02*
X031900Y022476D01*
X031900Y022317D02*
X031475Y022317D01*
X031475Y022159D02*
X031900Y022159D01*
X031900Y022000D02*
X031433Y022000D01*
X031900Y021842D02*
X030167Y021842D01*
X030008Y021683D02*
X031900Y021683D01*
X031900Y021525D02*
X029850Y021525D01*
X029691Y021366D02*
X031900Y021366D01*
X031900Y021208D02*
X029533Y021208D01*
X029486Y021049D02*
X029374Y021049D01*
X029328Y020891D02*
X029216Y020891D01*
X029169Y020732D02*
X029057Y020732D01*
X029011Y020574D02*
X028899Y020574D01*
X028852Y020415D02*
X028740Y020415D01*
X028694Y020257D02*
X028582Y020257D01*
X028535Y020098D02*
X028423Y020098D01*
X028377Y019940D02*
X028265Y019940D01*
X028218Y019781D02*
X028106Y019781D01*
X028060Y019623D02*
X027948Y019623D01*
X027901Y019464D02*
X027789Y019464D01*
X027743Y019306D02*
X026514Y019306D01*
X026825Y019147D02*
X027584Y019147D01*
X027456Y019781D02*
X027003Y019781D01*
X025856Y019623D02*
X025569Y019623D01*
X025691Y019464D02*
X025735Y019464D01*
X025727Y019147D02*
X025698Y019147D01*
X025587Y018989D02*
X025838Y018989D01*
X024684Y017879D02*
X029276Y017879D01*
X029434Y017721D02*
X024842Y017721D01*
X025001Y017562D02*
X029593Y017562D01*
X029638Y017404D02*
X025159Y017404D01*
X025318Y017245D02*
X029480Y017245D01*
X029321Y017087D02*
X025686Y017087D01*
X025792Y016928D02*
X029163Y016928D01*
X029004Y016770D02*
X025808Y016770D01*
X025743Y016611D02*
X028990Y016611D01*
X028990Y016453D02*
X025837Y016453D01*
X025888Y016294D02*
X028990Y016294D01*
X028990Y016136D02*
X025865Y016136D01*
X025749Y015977D02*
X027534Y015977D01*
X027376Y015819D02*
X025674Y015819D01*
X025787Y015660D02*
X027260Y015660D01*
X027260Y015502D02*
X025808Y015502D01*
X025755Y015343D02*
X025657Y015245D01*
X025529Y015192D01*
X025391Y015192D01*
X025263Y015245D01*
X025165Y015343D01*
X025112Y015502D02*
X024181Y015502D01*
X024657Y015026D02*
X027260Y015026D01*
X027060Y015540D02*
X027060Y015940D01*
X028900Y017780D01*
X029065Y018038D02*
X024525Y018038D01*
X023872Y017245D02*
X023781Y017245D01*
X023659Y017087D02*
X024031Y017087D01*
X023380Y015977D02*
X021140Y015977D01*
X020891Y016294D02*
X016120Y016294D01*
X016120Y016136D02*
X020733Y016136D01*
X020574Y015977D02*
X016120Y015977D01*
X016120Y015819D02*
X020416Y015819D01*
X020257Y015660D02*
X016120Y015660D01*
X016120Y015502D02*
X020099Y015502D01*
X020506Y015343D02*
X020869Y015343D01*
X020820Y015502D02*
X020664Y015502D01*
X020823Y015660D02*
X020837Y015660D01*
X021050Y016453D02*
X016120Y016453D01*
X016180Y016509D02*
X017460Y017789D01*
X019287Y019616D01*
X021180Y019940D02*
X022020Y019940D01*
X021820Y020098D02*
X021180Y020098D01*
X021180Y020257D02*
X021762Y020257D01*
X021768Y020415D02*
X021180Y020415D01*
X019754Y021683D02*
X018487Y021683D01*
X018585Y021842D02*
X019596Y021842D01*
X020007Y022476D02*
X021672Y022476D01*
X021806Y023902D02*
X016390Y023902D01*
X016448Y023744D02*
X016759Y023744D01*
X016697Y023585D02*
X016540Y023585D01*
X016536Y023264D02*
X016100Y023700D01*
X016120Y024061D02*
X021806Y024061D01*
X021806Y024219D02*
X016120Y024219D01*
X016120Y024378D02*
X021806Y024378D01*
X021806Y024536D02*
X016120Y024536D01*
X016120Y024695D02*
X021806Y024695D01*
X021806Y024853D02*
X017756Y024853D01*
X017641Y024805D02*
X017883Y024905D01*
X018068Y025090D01*
X018168Y025332D01*
X018168Y025593D01*
X018068Y025835D01*
X017883Y026020D01*
X017641Y026120D01*
X017380Y026120D01*
X017138Y026020D01*
X016953Y025835D01*
X016853Y025593D01*
X016853Y025332D01*
X016953Y025090D01*
X017138Y024905D01*
X017380Y024805D01*
X017641Y024805D01*
X017265Y024853D02*
X016120Y024853D01*
X016120Y025012D02*
X017032Y025012D01*
X016920Y025170D02*
X016120Y025170D01*
X016120Y025329D02*
X016855Y025329D01*
X016853Y025487D02*
X016120Y025487D01*
X016120Y025646D02*
X016875Y025646D01*
X016941Y025804D02*
X016120Y025804D01*
X016120Y025963D02*
X017081Y025963D01*
X017380Y026538D02*
X017641Y026538D01*
X017883Y026638D01*
X018068Y026823D01*
X018168Y027064D01*
X018168Y027326D01*
X018068Y027567D01*
X017883Y027752D01*
X017641Y027852D01*
X017380Y027852D01*
X017138Y027752D01*
X016953Y027567D01*
X016853Y027326D01*
X016853Y027064D01*
X016953Y026823D01*
X017138Y026638D01*
X017380Y026538D01*
X017237Y026597D02*
X016120Y026597D01*
X016120Y026755D02*
X017021Y026755D01*
X016916Y026914D02*
X016120Y026914D01*
X016120Y027072D02*
X016853Y027072D01*
X016853Y027231D02*
X016120Y027231D01*
X016120Y027389D02*
X016880Y027389D01*
X016945Y027548D02*
X016120Y027548D01*
X016120Y027706D02*
X017092Y027706D01*
X017646Y028182D02*
X018262Y028182D01*
X018285Y028158D02*
X019355Y028158D01*
X019442Y028246D01*
X019442Y028510D01*
X019678Y028510D01*
X019743Y028445D01*
X019871Y028392D01*
X020009Y028392D01*
X020137Y028445D01*
X020187Y028495D01*
X020152Y028409D01*
X020152Y028271D01*
X020205Y028143D01*
X020247Y028101D01*
X020091Y028101D01*
X020061Y028119D01*
X020015Y028131D01*
X019783Y028131D01*
X019783Y027704D01*
X019687Y027704D01*
X019687Y027608D01*
X019299Y027608D01*
X019299Y027337D01*
X019311Y027291D01*
X019335Y027250D01*
X019369Y027217D01*
X019410Y027193D01*
X019456Y027181D01*
X019687Y027181D01*
X019687Y027608D01*
X019783Y027608D01*
X019783Y027181D01*
X020015Y027181D01*
X020061Y027193D01*
X020091Y027211D01*
X020722Y027211D01*
X020810Y027298D01*
X020810Y028013D01*
X020738Y028086D01*
X020795Y028143D01*
X020848Y028271D01*
X020848Y028409D01*
X020795Y028537D01*
X020697Y028635D01*
X020569Y028688D01*
X020431Y028688D01*
X020303Y028635D01*
X020253Y028585D01*
X020288Y028671D01*
X020288Y028809D01*
X020235Y028937D01*
X020137Y029035D01*
X020009Y029088D01*
X019871Y029088D01*
X019743Y029035D01*
X019678Y028970D01*
X019442Y028970D01*
X019442Y029315D01*
X019355Y029403D01*
X018285Y029403D01*
X018198Y029315D01*
X018198Y028246D01*
X018285Y028158D01*
X018198Y028340D02*
X017710Y028340D01*
X017710Y028499D02*
X018198Y028499D01*
X018198Y028657D02*
X017710Y028657D01*
X017710Y028816D02*
X018198Y028816D01*
X018198Y028974D02*
X017710Y028974D01*
X017710Y029133D02*
X018198Y029133D01*
X018198Y029291D02*
X017710Y029291D01*
X017742Y029659D02*
X017768Y029659D01*
X017768Y030389D01*
X017318Y030389D01*
X017318Y030083D01*
X017329Y030011D01*
X017351Y029942D01*
X017384Y029878D01*
X017427Y029819D01*
X017478Y029768D01*
X017537Y029725D01*
X017601Y029692D01*
X017670Y029670D01*
X017742Y029659D01*
X017788Y029659D02*
X017814Y029659D01*
X017886Y029670D01*
X017954Y029692D01*
X018019Y029725D01*
X018077Y029768D01*
X018129Y029819D01*
X018171Y029878D01*
X018204Y029942D01*
X018226Y030011D01*
X018238Y030083D01*
X018238Y030389D01*
X017788Y030389D01*
X017788Y030409D01*
X017768Y030409D01*
X017768Y031139D01*
X017742Y031139D01*
X017670Y031127D01*
X017601Y031105D01*
X017537Y031072D01*
X017478Y031030D01*
X017427Y030978D01*
X017384Y030920D01*
X017351Y030855D01*
X017329Y030786D01*
X017318Y030715D01*
X017318Y030409D01*
X017768Y030409D01*
X017768Y030389D01*
X017788Y030389D01*
X017788Y029659D01*
X017788Y029767D02*
X017768Y029767D01*
X017768Y029925D02*
X017788Y029925D01*
X017788Y030084D02*
X017768Y030084D01*
X017768Y030242D02*
X017788Y030242D01*
X017788Y030401D02*
X019563Y030401D01*
X019563Y030494D02*
X019563Y030223D01*
X019634Y029960D01*
X019769Y029725D01*
X019961Y029533D01*
X020196Y029397D01*
X020459Y029327D01*
X020730Y029327D01*
X020993Y029397D01*
X021228Y029533D01*
X021420Y029725D01*
X021555Y029960D01*
X021626Y030223D01*
X021626Y030494D01*
X021555Y030756D01*
X021420Y030991D01*
X021228Y031183D01*
X020993Y031319D01*
X020730Y031389D01*
X020459Y031389D01*
X020196Y031319D01*
X019961Y031183D01*
X019769Y030991D01*
X019634Y030756D01*
X019563Y030494D01*
X019581Y030559D02*
X018238Y030559D01*
X018238Y030409D02*
X018238Y030715D01*
X018226Y030786D01*
X018204Y030855D01*
X018171Y030920D01*
X018129Y030978D01*
X018077Y031030D01*
X018019Y031072D01*
X017954Y031105D01*
X017886Y031127D01*
X017814Y031139D01*
X017788Y031139D01*
X017788Y030409D01*
X018238Y030409D01*
X018238Y030242D02*
X019563Y030242D01*
X019601Y030084D02*
X018238Y030084D01*
X018195Y029925D02*
X019654Y029925D01*
X019745Y029767D02*
X018076Y029767D01*
X017480Y029767D02*
X017034Y029767D01*
X017163Y029925D02*
X017360Y029925D01*
X017318Y030084D02*
X017208Y030084D01*
X017208Y030242D02*
X017318Y030242D01*
X017208Y030401D02*
X017768Y030401D01*
X017768Y030559D02*
X017788Y030559D01*
X017788Y030718D02*
X017768Y030718D01*
X017768Y030876D02*
X017788Y030876D01*
X017788Y031035D02*
X017768Y031035D01*
X017485Y031035D02*
X017030Y031035D01*
X017048Y031193D02*
X019978Y031193D01*
X019812Y031035D02*
X018071Y031035D01*
X018194Y030876D02*
X019703Y030876D01*
X019623Y030718D02*
X018237Y030718D01*
X017362Y030876D02*
X017161Y030876D01*
X017208Y030718D02*
X017318Y030718D01*
X017318Y030559D02*
X017208Y030559D01*
X017207Y031352D02*
X020317Y031352D01*
X020872Y031352D02*
X022732Y031352D01*
X022642Y031193D02*
X021211Y031193D01*
X021377Y031035D02*
X022642Y031035D01*
X022642Y030876D02*
X021486Y030876D01*
X021566Y030718D02*
X022642Y030718D01*
X022642Y030559D02*
X021608Y030559D01*
X021626Y030401D02*
X022642Y030401D01*
X022642Y030242D02*
X021626Y030242D01*
X021588Y030084D02*
X022642Y030084D01*
X022642Y029925D02*
X021535Y029925D01*
X021444Y029767D02*
X022669Y029767D01*
X022722Y029608D02*
X021303Y029608D01*
X021083Y029450D02*
X022722Y029450D01*
X022722Y029291D02*
X019442Y029291D01*
X019442Y029133D02*
X022722Y029133D01*
X022722Y028974D02*
X020198Y028974D01*
X020286Y028816D02*
X022722Y028816D01*
X022809Y028657D02*
X020644Y028657D01*
X020811Y028499D02*
X027840Y028499D01*
X027830Y028340D02*
X020848Y028340D01*
X020811Y028182D02*
X027830Y028182D01*
X027830Y028023D02*
X026358Y028023D01*
X026358Y027865D02*
X027830Y027865D01*
X027830Y027706D02*
X026358Y027706D01*
X026358Y027548D02*
X027830Y027548D01*
X027870Y027389D02*
X026358Y027389D01*
X026358Y027231D02*
X028028Y027231D01*
X028186Y027072D02*
X026358Y027072D01*
X026358Y026914D02*
X028345Y026914D01*
X028864Y027389D02*
X029496Y027389D01*
X029425Y027419D02*
X029590Y027350D01*
X029770Y027350D01*
X029935Y027419D01*
X030061Y027545D01*
X030130Y027710D01*
X030130Y028490D01*
X030061Y028655D01*
X029935Y028781D01*
X029770Y028850D01*
X029590Y028850D01*
X029425Y028781D01*
X029299Y028655D01*
X029230Y028490D01*
X029230Y027710D01*
X029299Y027545D01*
X029425Y027419D01*
X029297Y027548D02*
X029063Y027548D01*
X029128Y027706D02*
X029232Y027706D01*
X029230Y027865D02*
X029130Y027865D01*
X029130Y028023D02*
X029230Y028023D01*
X029230Y028182D02*
X029130Y028182D01*
X029130Y028340D02*
X029230Y028340D01*
X029234Y028499D02*
X029126Y028499D01*
X029059Y028657D02*
X029301Y028657D01*
X029507Y028816D02*
X028853Y028816D01*
X028507Y028816D02*
X028403Y028816D01*
X028244Y028974D02*
X032140Y028974D01*
X032140Y028816D02*
X031922Y028816D01*
X031700Y028816D02*
X031660Y028816D01*
X031660Y028657D02*
X031700Y028657D01*
X031700Y028499D02*
X031660Y028499D01*
X031660Y028340D02*
X031700Y028340D01*
X031700Y028182D02*
X031660Y028182D01*
X031660Y028080D02*
X031200Y028080D01*
X031200Y027762D01*
X031212Y027688D01*
X031235Y027616D01*
X031269Y027548D01*
X031314Y027487D01*
X031367Y027434D01*
X031428Y027389D01*
X031496Y027355D01*
X031568Y027332D01*
X031642Y027320D01*
X031660Y027320D01*
X031660Y028080D01*
X031660Y028023D02*
X031700Y028023D01*
X031700Y027865D02*
X031660Y027865D01*
X031660Y027706D02*
X031700Y027706D01*
X031700Y027548D02*
X031660Y027548D01*
X031660Y027389D02*
X031700Y027389D01*
X031931Y027389D02*
X032140Y027389D01*
X032140Y027231D02*
X031286Y027231D01*
X031328Y027072D02*
X032140Y027072D01*
X032140Y026914D02*
X031296Y026914D01*
X031153Y026755D02*
X032140Y026755D01*
X032140Y026597D02*
X026358Y026597D01*
X026358Y026755D02*
X030807Y026755D01*
X030770Y027350D02*
X030935Y027419D01*
X031061Y027545D01*
X031130Y027710D01*
X031130Y028490D01*
X031061Y028655D01*
X030935Y028781D01*
X030770Y028850D01*
X030590Y028850D01*
X030425Y028781D01*
X030299Y028655D01*
X030230Y028490D01*
X030230Y027710D01*
X030299Y027545D01*
X030425Y027419D01*
X030590Y027350D01*
X030770Y027350D01*
X030864Y027389D02*
X030865Y027389D01*
X031095Y027389D02*
X031429Y027389D01*
X031270Y027548D02*
X031063Y027548D01*
X031128Y027706D02*
X031209Y027706D01*
X031200Y027865D02*
X031130Y027865D01*
X031130Y028023D02*
X031200Y028023D01*
X031200Y028182D02*
X031130Y028182D01*
X031130Y028340D02*
X031200Y028340D01*
X031210Y028499D02*
X031126Y028499D01*
X031059Y028657D02*
X031273Y028657D01*
X031438Y028816D02*
X030853Y028816D01*
X030507Y028816D02*
X029853Y028816D01*
X030059Y028657D02*
X030301Y028657D01*
X030234Y028499D02*
X030126Y028499D01*
X030130Y028340D02*
X030230Y028340D01*
X030230Y028182D02*
X030130Y028182D01*
X030130Y028023D02*
X030230Y028023D01*
X030230Y027865D02*
X030130Y027865D01*
X030128Y027706D02*
X030232Y027706D01*
X030297Y027548D02*
X030063Y027548D01*
X029864Y027389D02*
X030496Y027389D01*
X032090Y027548D02*
X032140Y027548D01*
X032140Y028657D02*
X032087Y028657D01*
X032140Y029133D02*
X028086Y029133D01*
X027927Y029291D02*
X032140Y029291D01*
X032140Y029450D02*
X028170Y029450D01*
X028389Y029608D02*
X032140Y029608D01*
X032140Y029767D02*
X028530Y029767D01*
X028622Y029925D02*
X032140Y029925D01*
X032140Y030084D02*
X028675Y030084D01*
X028712Y030242D02*
X032140Y030242D01*
X032140Y030401D02*
X028712Y030401D01*
X028695Y030559D02*
X032140Y030559D01*
X032140Y030718D02*
X028652Y030718D01*
X028573Y030876D02*
X032140Y030876D01*
X032140Y031035D02*
X028463Y031035D01*
X028298Y031193D02*
X032140Y031193D01*
X032140Y031352D02*
X027958Y031352D01*
X027404Y031352D02*
X023432Y031352D01*
X023432Y031510D02*
X032140Y031510D01*
X032140Y031669D02*
X023432Y031669D01*
X023669Y031193D02*
X023765Y031193D01*
X023765Y031035D02*
X023669Y031035D01*
X023765Y030876D02*
X024300Y030876D01*
X024300Y030718D02*
X024396Y030718D01*
X024396Y030559D02*
X024300Y030559D01*
X024300Y030401D02*
X024396Y030401D01*
X024396Y030242D02*
X024300Y030242D01*
X024300Y030084D02*
X024153Y030084D01*
X023765Y030084D02*
X023669Y030084D01*
X023669Y030242D02*
X023765Y030242D01*
X023765Y030401D02*
X023669Y030401D01*
X023669Y030559D02*
X023765Y030559D01*
X023765Y030718D02*
X023669Y030718D01*
X024300Y031035D02*
X024396Y031035D01*
X024396Y031193D02*
X024300Y031193D01*
X025423Y031193D02*
X027065Y031193D01*
X026899Y031035D02*
X025423Y031035D01*
X025423Y030876D02*
X026789Y030876D01*
X026710Y030718D02*
X025423Y030718D01*
X025423Y030559D02*
X026667Y030559D01*
X026650Y030401D02*
X025423Y030401D01*
X025423Y030242D02*
X026650Y030242D01*
X026687Y030084D02*
X025423Y030084D01*
X025423Y029925D02*
X026741Y029925D01*
X026832Y029767D02*
X025415Y029767D01*
X025442Y029608D02*
X026973Y029608D01*
X027526Y028816D02*
X025442Y028816D01*
X025355Y028657D02*
X027685Y028657D01*
X026358Y026438D02*
X032140Y026438D01*
X032140Y026280D02*
X026358Y026280D01*
X026358Y026121D02*
X032140Y026121D01*
X032140Y025963D02*
X026358Y025963D01*
X026358Y025804D02*
X032140Y025804D01*
X032140Y025646D02*
X026358Y025646D01*
X026358Y025487D02*
X032140Y025487D01*
X032140Y025329D02*
X026358Y025329D01*
X026358Y025170D02*
X032140Y025170D01*
X032140Y025012D02*
X026358Y025012D01*
X026358Y024853D02*
X032140Y024853D01*
X032140Y024695D02*
X026358Y024695D01*
X026358Y024536D02*
X032140Y024536D01*
X032140Y024378D02*
X031705Y024378D01*
X032073Y024219D02*
X032140Y024219D01*
X031512Y023902D02*
X031423Y023902D01*
X031300Y023700D02*
X030580Y023700D01*
X030340Y023460D01*
X030340Y023220D01*
X030340Y022340D01*
X030991Y022476D02*
X031087Y022476D01*
X031087Y022634D02*
X030991Y022634D01*
X030991Y022793D02*
X031087Y022793D01*
X031860Y023140D02*
X031300Y023700D01*
X033580Y023744D02*
X033730Y023744D01*
X033730Y023902D02*
X033580Y023902D01*
X033580Y024061D02*
X033730Y024061D01*
X033730Y024219D02*
X033580Y024219D01*
X033580Y024378D02*
X033730Y024378D01*
X033730Y024536D02*
X033580Y024536D01*
X033580Y024695D02*
X033730Y024695D01*
X033730Y024853D02*
X033580Y024853D01*
X033580Y025012D02*
X033730Y025012D01*
X033730Y025170D02*
X033580Y025170D01*
X033580Y025329D02*
X033730Y025329D01*
X033730Y025487D02*
X033580Y025487D01*
X033580Y025646D02*
X033730Y025646D01*
X033730Y025804D02*
X033580Y025804D01*
X033580Y025963D02*
X033730Y025963D01*
X033730Y026121D02*
X033580Y026121D01*
X033580Y026280D02*
X033730Y026280D01*
X033730Y026438D02*
X033580Y026438D01*
X033580Y026597D02*
X033730Y026597D01*
X033730Y026755D02*
X033580Y026755D01*
X033580Y026914D02*
X033730Y026914D01*
X033730Y027072D02*
X033580Y027072D01*
X033580Y027231D02*
X033730Y027231D01*
X033730Y027389D02*
X033580Y027389D01*
X033580Y027548D02*
X033730Y027548D01*
X033730Y027706D02*
X033580Y027706D01*
X033580Y027865D02*
X033730Y027865D01*
X033730Y028023D02*
X033580Y028023D01*
X033580Y028182D02*
X033730Y028182D01*
X033730Y028340D02*
X033580Y028340D01*
X033580Y028499D02*
X033730Y028499D01*
X033730Y028657D02*
X033580Y028657D01*
X033580Y028816D02*
X033730Y028816D01*
X033730Y028974D02*
X033580Y028974D01*
X033580Y029133D02*
X033730Y029133D01*
X033730Y029291D02*
X033580Y029291D01*
X033580Y029450D02*
X033730Y029450D01*
X033730Y029608D02*
X033580Y029608D01*
X033580Y029767D02*
X033730Y029767D01*
X033730Y029925D02*
X033580Y029925D01*
X033580Y030084D02*
X033730Y030084D01*
X033730Y030242D02*
X033580Y030242D01*
X033580Y030401D02*
X033730Y030401D01*
X033730Y030559D02*
X033580Y030559D01*
X033580Y030718D02*
X033730Y030718D01*
X033580Y030876D02*
X038332Y030876D01*
X038391Y031035D02*
X033580Y031035D01*
X033580Y031193D02*
X038450Y031193D01*
X038508Y031352D02*
X033580Y031352D01*
X033580Y031510D02*
X038567Y031510D01*
X038626Y031669D02*
X033580Y031669D01*
X033710Y031827D02*
X038685Y031827D01*
X038744Y031986D02*
X033868Y031986D01*
X034027Y032144D02*
X038803Y032144D01*
X038862Y032303D02*
X034140Y032303D01*
X034140Y032461D02*
X038921Y032461D01*
X038979Y032620D02*
X034140Y032620D01*
X034140Y032778D02*
X039038Y032778D01*
X039097Y032937D02*
X034259Y032937D01*
X034380Y033095D02*
X039156Y033095D01*
X039215Y033254D02*
X034380Y033254D01*
X034380Y033412D02*
X039274Y033412D01*
X047591Y033367D02*
X047820Y033137D01*
X047820Y022180D01*
X047770Y022130D01*
X047770Y021790D01*
X048010Y021550D01*
X048350Y021550D01*
X048370Y021570D01*
X048370Y021494D01*
X048458Y021406D01*
X049181Y021406D01*
X049269Y021494D01*
X049269Y022248D01*
X049263Y022254D01*
X049337Y022285D01*
X049435Y022383D01*
X049488Y022511D01*
X049488Y022649D01*
X049435Y022777D01*
X049337Y022875D01*
X049209Y022928D01*
X049075Y022928D01*
X048983Y023020D01*
X048823Y023020D01*
X048460Y023383D01*
X048460Y025286D01*
X049181Y025286D01*
X049269Y025374D01*
X049269Y026128D01*
X049181Y026216D01*
X049100Y026216D01*
X049100Y026257D01*
X049223Y026380D01*
X049328Y026380D01*
X049423Y026285D01*
X049551Y026232D01*
X049689Y026232D01*
X049817Y026285D01*
X049915Y026383D01*
X049968Y026511D01*
X049968Y026649D01*
X049915Y026777D01*
X049817Y026875D01*
X049689Y026928D01*
X049551Y026928D01*
X049423Y026875D01*
X049328Y026780D01*
X049057Y026780D01*
X048817Y026540D01*
X048700Y026423D01*
X048700Y026216D01*
X048460Y026216D01*
X048460Y029286D01*
X049181Y029286D01*
X049269Y029374D01*
X049269Y030128D01*
X049235Y030162D01*
X049337Y030205D01*
X049435Y030303D01*
X049488Y030431D01*
X049488Y030569D01*
X049435Y030697D01*
X049337Y030795D01*
X049209Y030848D01*
X049071Y030848D01*
X048943Y030795D01*
X048845Y030697D01*
X048792Y030569D01*
X048792Y030435D01*
X048620Y030262D01*
X048620Y030216D01*
X048460Y030216D01*
X048460Y033124D01*
X048538Y033046D01*
X049261Y033046D01*
X049349Y033134D01*
X049349Y033888D01*
X049261Y033976D01*
X048940Y033976D01*
X048940Y034423D01*
X048700Y034663D01*
X048700Y034983D01*
X048583Y035100D01*
X048182Y035501D01*
X048489Y035463D01*
X049016Y035288D01*
X049497Y035010D01*
X049912Y034642D01*
X050245Y034198D01*
X050406Y033859D01*
X050406Y033581D01*
X050267Y033581D01*
X050267Y034006D01*
X050014Y034006D01*
X049968Y033994D01*
X049927Y033970D01*
X049893Y033937D01*
X049870Y033895D01*
X049857Y033850D01*
X049857Y033581D01*
X050267Y033581D01*
X050267Y033441D01*
X050406Y033441D01*
X050406Y033016D01*
X050628Y033016D01*
X050630Y032994D01*
X049981Y032994D01*
X049893Y032906D01*
X049893Y032793D01*
X049850Y032835D01*
X049850Y034339D01*
X049888Y034431D01*
X049888Y034569D01*
X049835Y034697D01*
X049737Y034795D01*
X049609Y034848D01*
X049471Y034848D01*
X049343Y034795D01*
X049245Y034697D01*
X049192Y034569D01*
X049192Y034431D01*
X049245Y034303D01*
X049343Y034205D01*
X049390Y034185D01*
X049390Y032921D01*
X049317Y032994D01*
X048603Y032994D01*
X048515Y032906D01*
X048515Y032191D01*
X048603Y032103D01*
X049122Y032103D01*
X049180Y032046D01*
X049180Y031992D01*
X049085Y031897D01*
X049032Y031769D01*
X049032Y031631D01*
X049085Y031503D01*
X049183Y031405D01*
X049311Y031352D01*
X049449Y031352D01*
X049577Y031405D01*
X049675Y031503D01*
X049728Y031631D01*
X049728Y031769D01*
X049675Y031897D01*
X049580Y031992D01*
X049580Y032211D01*
X049463Y032329D01*
X049463Y032329D01*
X049405Y032386D01*
X049405Y032629D01*
X049525Y032510D01*
X049630Y032405D01*
X049765Y032270D01*
X049893Y032270D01*
X049893Y032191D01*
X049981Y032103D01*
X050190Y032103D01*
X050190Y031722D01*
X050125Y031657D01*
X050072Y031529D01*
X050072Y031391D01*
X050125Y031263D01*
X050223Y031165D01*
X050351Y031112D01*
X050489Y031112D01*
X050617Y031165D01*
X050715Y031263D01*
X050768Y031391D01*
X050768Y031529D01*
X050715Y031657D01*
X050650Y031722D01*
X050650Y032103D01*
X050695Y032103D01*
X050734Y032142D01*
X050886Y030971D01*
X051263Y027238D01*
X051499Y023493D01*
X051593Y019742D01*
X051544Y015991D01*
X051354Y012244D01*
X051023Y008506D01*
X050832Y006885D01*
X050832Y007531D01*
X050744Y007619D01*
X050617Y007619D01*
X050617Y008285D01*
X050617Y008285D01*
X050715Y008383D01*
X050768Y008511D01*
X050768Y008649D01*
X050715Y008777D01*
X050617Y008875D01*
X050489Y008928D01*
X050351Y008928D01*
X050223Y008875D01*
X050125Y008777D01*
X050072Y008649D01*
X050072Y008511D01*
X050125Y008383D01*
X050157Y008351D01*
X050157Y007619D01*
X050030Y007619D01*
X049942Y007531D01*
X049942Y006817D01*
X050030Y006729D01*
X050744Y006729D01*
X050823Y006808D01*
X050804Y006645D01*
X050804Y006642D01*
X050804Y006640D01*
X050777Y006483D01*
X050737Y006506D01*
X050691Y006519D01*
X050438Y006519D01*
X050438Y006093D01*
X050670Y006093D01*
X050627Y005954D01*
X050438Y005954D01*
X050438Y006093D01*
X050298Y006093D01*
X050298Y005954D01*
X049889Y005954D01*
X049889Y005685D01*
X049901Y005639D01*
X049925Y005598D01*
X049958Y005565D01*
X049999Y005541D01*
X050045Y005529D01*
X050298Y005529D01*
X050298Y005954D01*
X050438Y005954D01*
X050438Y005572D01*
X050379Y005459D01*
X050070Y005059D01*
X049694Y004721D01*
X049264Y004455D01*
X049056Y004374D01*
X049463Y004780D01*
X049493Y004810D01*
X049577Y004845D01*
X049675Y004943D01*
X049728Y005071D01*
X049728Y005209D01*
X049675Y005337D01*
X049580Y005432D01*
X049580Y005658D01*
X049380Y005857D01*
X049380Y006401D01*
X049292Y006489D01*
X048570Y006489D01*
X048540Y006459D01*
X048540Y009646D01*
X048590Y009646D01*
X048590Y009045D01*
X048632Y009003D01*
X048632Y008911D01*
X048685Y008783D01*
X048783Y008685D01*
X048911Y008632D01*
X049049Y008632D01*
X049177Y008685D01*
X049275Y008783D01*
X049328Y008911D01*
X049328Y009049D01*
X049275Y009177D01*
X049177Y009275D01*
X049050Y009328D01*
X049050Y009646D01*
X049261Y009646D01*
X049349Y009734D01*
X049349Y010488D01*
X049261Y010576D01*
X048540Y010576D01*
X048540Y013229D01*
X048717Y013406D01*
X048754Y013406D01*
X048685Y013337D01*
X048632Y013209D01*
X048632Y013071D01*
X048685Y012943D01*
X048783Y012845D01*
X048911Y012792D01*
X049049Y012792D01*
X049177Y012845D01*
X049275Y012943D01*
X049328Y013071D01*
X049328Y013209D01*
X049275Y013337D01*
X049206Y013406D01*
X049261Y013406D01*
X049349Y013494D01*
X049349Y014248D01*
X049261Y014336D01*
X048538Y014336D01*
X048450Y014248D01*
X048450Y013705D01*
X048300Y013555D01*
X048300Y016497D01*
X048736Y016933D01*
X048765Y016863D01*
X048863Y016765D01*
X048991Y016712D01*
X049129Y016712D01*
X049257Y016765D01*
X049355Y016863D01*
X049408Y016991D01*
X049408Y017129D01*
X049355Y017257D01*
X049257Y017355D01*
X049129Y017408D01*
X048991Y017408D01*
X048940Y017387D01*
X048940Y017486D01*
X049181Y017486D01*
X049269Y017574D01*
X049269Y018328D01*
X049181Y018416D01*
X048458Y018416D01*
X048370Y018328D01*
X048370Y018230D01*
X048270Y018330D01*
X047930Y018330D01*
X047690Y018090D01*
X047690Y017750D01*
X047930Y017510D01*
X048270Y017510D01*
X048370Y017610D01*
X048370Y017574D01*
X048458Y017486D01*
X048540Y017486D01*
X048540Y017303D01*
X048017Y016780D01*
X047900Y016663D01*
X047900Y005543D01*
X047777Y005420D01*
X046103Y005420D01*
X045820Y005703D01*
X045713Y005810D01*
X047486Y005810D01*
X047487Y005810D01*
X047540Y005810D01*
X047594Y005810D01*
X047594Y005810D01*
X047594Y005810D01*
X047632Y005848D01*
X047670Y005886D01*
X047670Y005886D01*
X047670Y005887D01*
X047670Y005940D01*
X047670Y005994D01*
X047670Y005994D01*
X047591Y033367D01*
X047591Y033254D02*
X047704Y033254D01*
X047591Y033095D02*
X047820Y033095D01*
X047820Y032937D02*
X047592Y032937D01*
X047592Y032778D02*
X047820Y032778D01*
X047820Y032620D02*
X047593Y032620D01*
X047593Y032461D02*
X047820Y032461D01*
X047820Y032303D02*
X047594Y032303D01*
X047594Y032144D02*
X047820Y032144D01*
X047820Y031986D02*
X047595Y031986D01*
X047595Y031827D02*
X047820Y031827D01*
X047820Y031669D02*
X047595Y031669D01*
X047596Y031510D02*
X047820Y031510D01*
X047820Y031352D02*
X047596Y031352D01*
X047597Y031193D02*
X047820Y031193D01*
X047820Y031035D02*
X047597Y031035D01*
X047598Y030876D02*
X047820Y030876D01*
X047820Y030718D02*
X047598Y030718D01*
X047599Y030559D02*
X047820Y030559D01*
X047820Y030401D02*
X047599Y030401D01*
X047600Y030242D02*
X047820Y030242D01*
X047820Y030084D02*
X047600Y030084D01*
X047600Y029925D02*
X047820Y029925D01*
X047820Y029767D02*
X047601Y029767D01*
X047601Y029608D02*
X047820Y029608D01*
X047820Y029450D02*
X047602Y029450D01*
X047602Y029291D02*
X047820Y029291D01*
X047820Y029133D02*
X047603Y029133D01*
X047603Y028974D02*
X047820Y028974D01*
X047820Y028816D02*
X047604Y028816D01*
X047604Y028657D02*
X047820Y028657D01*
X047820Y028499D02*
X047605Y028499D01*
X047605Y028340D02*
X047820Y028340D01*
X047820Y028182D02*
X047606Y028182D01*
X047606Y028023D02*
X047820Y028023D01*
X047820Y027865D02*
X047606Y027865D01*
X047607Y027706D02*
X047820Y027706D01*
X047820Y027548D02*
X047607Y027548D01*
X047608Y027389D02*
X047820Y027389D01*
X047820Y027231D02*
X047608Y027231D01*
X047609Y027072D02*
X047820Y027072D01*
X047820Y026914D02*
X047609Y026914D01*
X047610Y026755D02*
X047820Y026755D01*
X047820Y026597D02*
X047610Y026597D01*
X047611Y026438D02*
X047820Y026438D01*
X047820Y026280D02*
X047611Y026280D01*
X047612Y026121D02*
X047820Y026121D01*
X047820Y025963D02*
X047612Y025963D01*
X047612Y025804D02*
X047820Y025804D01*
X047820Y025646D02*
X047613Y025646D01*
X047613Y025487D02*
X047820Y025487D01*
X047820Y025329D02*
X047614Y025329D01*
X047614Y025170D02*
X047820Y025170D01*
X047820Y025012D02*
X047615Y025012D01*
X047615Y024853D02*
X047820Y024853D01*
X047820Y024695D02*
X047616Y024695D01*
X047616Y024536D02*
X047820Y024536D01*
X047820Y024378D02*
X047617Y024378D01*
X047617Y024219D02*
X047820Y024219D01*
X047820Y024061D02*
X047617Y024061D01*
X047618Y023902D02*
X047820Y023902D01*
X047820Y023744D02*
X047618Y023744D01*
X047619Y023585D02*
X047820Y023585D01*
X047820Y023427D02*
X047619Y023427D01*
X047620Y023268D02*
X047820Y023268D01*
X047820Y023110D02*
X047620Y023110D01*
X047621Y022951D02*
X047820Y022951D01*
X047820Y022793D02*
X047621Y022793D01*
X047622Y022634D02*
X047820Y022634D01*
X047820Y022476D02*
X047622Y022476D01*
X047623Y022317D02*
X047820Y022317D01*
X047799Y022159D02*
X047623Y022159D01*
X047623Y022000D02*
X047770Y022000D01*
X047770Y021842D02*
X047624Y021842D01*
X047624Y021683D02*
X047877Y021683D01*
X047625Y021525D02*
X048370Y021525D01*
X048362Y021400D02*
X048180Y021400D01*
X048180Y020960D01*
X048180Y020960D01*
X048180Y020960D01*
X047740Y020960D01*
X047740Y021142D01*
X047998Y021400D01*
X048180Y021400D01*
X048180Y020960D01*
X047740Y020960D01*
X047740Y020778D01*
X047998Y020520D01*
X048108Y020520D01*
X048045Y020457D01*
X047992Y020329D01*
X047992Y020191D01*
X048045Y020063D01*
X048143Y019965D01*
X048271Y019912D01*
X048409Y019912D01*
X048537Y019965D01*
X048635Y020063D01*
X048688Y020191D01*
X048688Y020325D01*
X048786Y020423D01*
X049277Y020423D01*
X049365Y020511D01*
X049365Y021226D01*
X049277Y021314D01*
X048562Y021314D01*
X048505Y021257D01*
X048362Y021400D01*
X048396Y021366D02*
X051552Y021366D01*
X051556Y021208D02*
X050743Y021208D01*
X050743Y021226D02*
X050655Y021314D01*
X049940Y021314D01*
X049852Y021226D01*
X049852Y020511D01*
X049940Y020423D01*
X050068Y020423D01*
X050068Y020367D01*
X050312Y020123D01*
X050312Y020077D01*
X050068Y019833D01*
X050068Y019394D01*
X049940Y019394D01*
X049852Y019306D01*
X049852Y018591D01*
X049940Y018503D01*
X050655Y018503D01*
X050743Y018591D01*
X050743Y019306D01*
X050655Y019394D01*
X050528Y019394D01*
X050528Y019642D01*
X050637Y019752D01*
X050729Y019752D01*
X050857Y019805D01*
X050955Y019903D01*
X051008Y020031D01*
X051008Y020169D01*
X050955Y020297D01*
X050857Y020395D01*
X050729Y020448D01*
X050680Y020448D01*
X050743Y020511D01*
X050743Y021226D01*
X050743Y021049D02*
X051560Y021049D01*
X051564Y020891D02*
X050743Y020891D01*
X050743Y020732D02*
X051568Y020732D01*
X051572Y020574D02*
X050743Y020574D01*
X050809Y020415D02*
X051576Y020415D01*
X051580Y020257D02*
X050972Y020257D01*
X051008Y020098D02*
X051584Y020098D01*
X051588Y019940D02*
X050970Y019940D01*
X050800Y019781D02*
X051592Y019781D01*
X051591Y019623D02*
X050528Y019623D01*
X050528Y019464D02*
X051589Y019464D01*
X051587Y019306D02*
X050743Y019306D01*
X050743Y019147D02*
X051585Y019147D01*
X051583Y018989D02*
X050743Y018989D01*
X050743Y018830D02*
X051581Y018830D01*
X051579Y018672D02*
X050743Y018672D01*
X050665Y018513D02*
X051577Y018513D01*
X051575Y018355D02*
X050713Y018355D01*
X050723Y018336D02*
X050700Y018377D01*
X050666Y018410D01*
X050625Y018434D01*
X050579Y018446D01*
X050326Y018446D01*
X050326Y018021D01*
X050187Y018021D01*
X050187Y018446D01*
X049934Y018446D01*
X049888Y018434D01*
X049847Y018410D01*
X049813Y018377D01*
X049790Y018336D01*
X049777Y018290D01*
X049777Y018021D01*
X050187Y018021D01*
X050187Y017882D01*
X049777Y017882D01*
X049777Y017613D01*
X049790Y017567D01*
X049813Y017526D01*
X049847Y017492D01*
X049888Y017469D01*
X049934Y017456D01*
X050187Y017456D01*
X050187Y017882D01*
X050326Y017882D01*
X050326Y018021D01*
X050736Y018021D01*
X050736Y018290D01*
X050723Y018336D01*
X050736Y018196D02*
X051573Y018196D01*
X051571Y018038D02*
X050736Y018038D01*
X050736Y017882D02*
X050736Y017613D01*
X050723Y017567D01*
X050700Y017526D01*
X050666Y017492D01*
X050625Y017469D01*
X050579Y017456D01*
X050326Y017456D01*
X050326Y017882D01*
X050736Y017882D01*
X050736Y017879D02*
X051569Y017879D01*
X051567Y017721D02*
X050736Y017721D01*
X050721Y017562D02*
X051565Y017562D01*
X051563Y017404D02*
X049140Y017404D01*
X048980Y017404D02*
X048940Y017404D01*
X049257Y017562D02*
X049792Y017562D01*
X049777Y017721D02*
X049269Y017721D01*
X049269Y017879D02*
X049777Y017879D01*
X049777Y018038D02*
X049269Y018038D01*
X049269Y018196D02*
X049777Y018196D01*
X049800Y018355D02*
X049243Y018355D01*
X049277Y018503D02*
X049365Y018591D01*
X049365Y019306D01*
X049277Y019394D01*
X049248Y019394D01*
X049248Y019529D01*
X049195Y019657D01*
X049097Y019755D01*
X048969Y019808D01*
X048831Y019808D01*
X048703Y019755D01*
X048605Y019657D01*
X048552Y019529D01*
X048552Y019391D01*
X048554Y019386D01*
X048474Y019306D01*
X048474Y019125D01*
X048270Y019330D01*
X047930Y019330D01*
X047690Y019090D01*
X047690Y018750D01*
X047930Y018510D01*
X048270Y018510D01*
X048474Y018715D01*
X048474Y018591D01*
X048562Y018503D01*
X049277Y018503D01*
X049287Y018513D02*
X049930Y018513D01*
X049852Y018672D02*
X049365Y018672D01*
X049365Y018830D02*
X049852Y018830D01*
X049852Y018989D02*
X049365Y018989D01*
X049365Y019147D02*
X049852Y019147D01*
X049852Y019306D02*
X049365Y019306D01*
X049248Y019464D02*
X050068Y019464D01*
X050068Y019623D02*
X049209Y019623D01*
X049035Y019781D02*
X050068Y019781D01*
X050174Y019940D02*
X048476Y019940D01*
X048650Y020098D02*
X050312Y020098D01*
X050178Y020257D02*
X048688Y020257D01*
X048778Y020415D02*
X050068Y020415D01*
X050298Y020462D02*
X050660Y020100D01*
X050298Y019738D01*
X050298Y018949D01*
X050326Y018355D02*
X050187Y018355D01*
X050187Y018196D02*
X050326Y018196D01*
X050326Y018038D02*
X050187Y018038D01*
X050257Y017951D02*
X050889Y017951D01*
X050900Y017940D01*
X050900Y021940D01*
X050831Y021871D01*
X050257Y021871D01*
X050326Y021842D02*
X051540Y021842D01*
X051536Y022000D02*
X050736Y022000D01*
X050736Y021941D02*
X050736Y022210D01*
X050723Y022256D01*
X050700Y022297D01*
X050666Y022330D01*
X050625Y022354D01*
X050579Y022366D01*
X050326Y022366D01*
X050326Y021941D01*
X050187Y021941D01*
X050187Y022366D01*
X049934Y022366D01*
X049888Y022354D01*
X049847Y022330D01*
X049813Y022297D01*
X049790Y022256D01*
X049777Y022210D01*
X049777Y021941D01*
X050187Y021941D01*
X050187Y021802D01*
X049777Y021802D01*
X049777Y021533D01*
X049790Y021487D01*
X049813Y021446D01*
X049847Y021412D01*
X049888Y021389D01*
X049934Y021376D01*
X050187Y021376D01*
X050187Y021802D01*
X050326Y021802D01*
X050326Y021941D01*
X050736Y021941D01*
X050736Y021802D02*
X050736Y021533D01*
X050723Y021487D01*
X050700Y021446D01*
X050666Y021412D01*
X050625Y021389D01*
X050579Y021376D01*
X050326Y021376D01*
X050326Y021802D01*
X050736Y021802D01*
X050736Y021683D02*
X051544Y021683D01*
X051548Y021525D02*
X050734Y021525D01*
X050326Y021525D02*
X050187Y021525D01*
X050187Y021683D02*
X050326Y021683D01*
X050187Y021842D02*
X049269Y021842D01*
X049269Y022000D02*
X049777Y022000D01*
X049777Y022159D02*
X049269Y022159D01*
X049369Y022317D02*
X049833Y022317D01*
X050187Y022317D02*
X050326Y022317D01*
X050326Y022159D02*
X050187Y022159D01*
X050187Y022000D02*
X050326Y022000D01*
X050736Y022159D02*
X051532Y022159D01*
X051528Y022317D02*
X050680Y022317D01*
X050900Y021940D02*
X050900Y025780D01*
X050871Y025751D01*
X050257Y025751D01*
X050326Y025804D02*
X051353Y025804D01*
X051363Y025646D02*
X050736Y025646D01*
X050736Y025681D02*
X050736Y025412D01*
X050723Y025367D01*
X050700Y025326D01*
X050666Y025292D01*
X050625Y025268D01*
X050579Y025256D01*
X050326Y025256D01*
X050326Y025681D01*
X050187Y025681D01*
X050187Y025256D01*
X049934Y025256D01*
X049888Y025268D01*
X049847Y025292D01*
X049813Y025326D01*
X049790Y025367D01*
X049777Y025412D01*
X049777Y025681D01*
X050187Y025681D01*
X050187Y025821D01*
X050187Y026246D01*
X049934Y026246D01*
X049888Y026234D01*
X049847Y026210D01*
X049813Y026177D01*
X049790Y026135D01*
X049777Y026090D01*
X049777Y025821D01*
X050187Y025821D01*
X050326Y025821D01*
X050326Y026246D01*
X050579Y026246D01*
X050625Y026234D01*
X050666Y026210D01*
X050700Y026177D01*
X050723Y026135D01*
X050736Y026090D01*
X050736Y025821D01*
X050326Y025821D01*
X050326Y025681D01*
X050736Y025681D01*
X050900Y025780D02*
X050900Y029620D01*
X050740Y029780D01*
X050580Y029780D01*
X050820Y030020D01*
X050820Y032980D01*
X050337Y033463D01*
X050337Y033511D01*
X050260Y033588D01*
X050260Y034260D01*
X050260Y034420D01*
X049700Y034980D01*
X049300Y034980D01*
X049060Y034740D01*
X049060Y034260D01*
X049140Y034180D01*
X049220Y034363D02*
X048940Y034363D01*
X048940Y034205D02*
X049344Y034205D01*
X049390Y034046D02*
X048940Y034046D01*
X049349Y033888D02*
X049390Y033888D01*
X049390Y033729D02*
X049349Y033729D01*
X049349Y033571D02*
X049390Y033571D01*
X049390Y033412D02*
X049349Y033412D01*
X049349Y033254D02*
X049390Y033254D01*
X049390Y033095D02*
X049310Y033095D01*
X049375Y032937D02*
X049390Y032937D01*
X049620Y032740D02*
X049860Y032500D01*
X050289Y032500D01*
X050338Y032549D01*
X050500Y032386D01*
X050420Y032306D01*
X050420Y031460D01*
X050752Y031352D02*
X050837Y031352D01*
X050816Y031510D02*
X050768Y031510D01*
X050796Y031669D02*
X050704Y031669D01*
X050650Y031827D02*
X050775Y031827D01*
X050754Y031986D02*
X050650Y031986D01*
X050190Y031986D02*
X049587Y031986D01*
X049580Y032144D02*
X049940Y032144D01*
X049732Y032303D02*
X049489Y032303D01*
X049405Y032461D02*
X049574Y032461D01*
X049415Y032620D02*
X049405Y032620D01*
X049620Y032740D02*
X049620Y034420D01*
X049540Y034500D01*
X049860Y034363D02*
X050121Y034363D01*
X050002Y034522D02*
X049888Y034522D01*
X049869Y034680D02*
X049842Y034680D01*
X049690Y034839D02*
X049632Y034839D01*
X049448Y034839D02*
X048700Y034839D01*
X048686Y034997D02*
X049511Y034997D01*
X049245Y035156D02*
X048527Y035156D01*
X048369Y035314D02*
X048937Y035314D01*
X048414Y035473D02*
X048210Y035473D01*
X048700Y034680D02*
X049238Y034680D01*
X049192Y034522D02*
X048841Y034522D01*
X049850Y034205D02*
X050240Y034205D01*
X050317Y034046D02*
X049850Y034046D01*
X049850Y033888D02*
X049867Y033888D01*
X049850Y033729D02*
X049857Y033729D01*
X049850Y033571D02*
X050267Y033571D01*
X050267Y033441D02*
X049857Y033441D01*
X049857Y033172D01*
X049870Y033127D01*
X049893Y033086D01*
X049927Y033052D01*
X049968Y033028D01*
X050014Y033016D01*
X050267Y033016D01*
X050267Y033441D01*
X050267Y033412D02*
X050406Y033412D01*
X050406Y033254D02*
X050267Y033254D01*
X050267Y033095D02*
X050406Y033095D01*
X049923Y032937D02*
X049850Y032937D01*
X049850Y033095D02*
X049888Y033095D01*
X049857Y033254D02*
X049850Y033254D01*
X049850Y033412D02*
X049857Y033412D01*
X050267Y033729D02*
X050406Y033729D01*
X050392Y033888D02*
X050267Y033888D01*
X048489Y033095D02*
X048460Y033095D01*
X048460Y032937D02*
X048545Y032937D01*
X048515Y032778D02*
X048460Y032778D01*
X048460Y032620D02*
X048515Y032620D01*
X048515Y032461D02*
X048460Y032461D01*
X048460Y032303D02*
X048515Y032303D01*
X048562Y032144D02*
X048460Y032144D01*
X048460Y031986D02*
X049173Y031986D01*
X049056Y031827D02*
X048460Y031827D01*
X048460Y031669D02*
X049032Y031669D01*
X049082Y031510D02*
X048460Y031510D01*
X048460Y031352D02*
X050088Y031352D01*
X050072Y031510D02*
X049678Y031510D01*
X049728Y031669D02*
X050136Y031669D01*
X050190Y031827D02*
X049704Y031827D01*
X050195Y031193D02*
X048460Y031193D01*
X048460Y031035D02*
X050878Y031035D01*
X050857Y031193D02*
X050645Y031193D01*
X050896Y030876D02*
X048460Y030876D01*
X048460Y030718D02*
X048865Y030718D01*
X048792Y030559D02*
X048460Y030559D01*
X048460Y030401D02*
X048758Y030401D01*
X048620Y030242D02*
X048460Y030242D01*
X049269Y030084D02*
X049777Y030084D01*
X049777Y030090D02*
X049777Y029821D01*
X050187Y029821D01*
X050187Y030246D01*
X049934Y030246D01*
X049888Y030234D01*
X049847Y030210D01*
X049813Y030177D01*
X049790Y030135D01*
X049777Y030090D01*
X049777Y029925D02*
X049269Y029925D01*
X049269Y029767D02*
X050187Y029767D01*
X050187Y029821D02*
X050187Y029681D01*
X050326Y029681D01*
X050326Y029256D01*
X050579Y029256D01*
X050625Y029268D01*
X050666Y029292D01*
X050700Y029326D01*
X050723Y029367D01*
X050736Y029412D01*
X050736Y029681D01*
X050326Y029681D01*
X050326Y029821D01*
X050187Y029821D01*
X050257Y029751D02*
X050286Y029780D01*
X050580Y029780D01*
X050736Y029821D02*
X050736Y030090D01*
X050723Y030135D01*
X050700Y030177D01*
X050666Y030210D01*
X050625Y030234D01*
X050579Y030246D01*
X050326Y030246D01*
X050326Y029821D01*
X050736Y029821D01*
X050736Y029925D02*
X050992Y029925D01*
X051008Y029767D02*
X050326Y029767D01*
X050326Y029925D02*
X050187Y029925D01*
X050187Y030084D02*
X050326Y030084D01*
X050326Y030242D02*
X050187Y030242D01*
X049919Y030242D02*
X049374Y030242D01*
X049476Y030401D02*
X050944Y030401D01*
X050928Y030559D02*
X049488Y030559D01*
X049415Y030718D02*
X050912Y030718D01*
X050960Y030242D02*
X050594Y030242D01*
X050736Y030084D02*
X050976Y030084D01*
X051024Y029608D02*
X050736Y029608D01*
X050736Y029450D02*
X051040Y029450D01*
X051056Y029291D02*
X050665Y029291D01*
X050695Y028994D02*
X050783Y028906D01*
X050783Y028191D01*
X050695Y028103D01*
X050568Y028103D01*
X050568Y027888D01*
X050649Y027888D01*
X050777Y027835D01*
X050875Y027737D01*
X050928Y027609D01*
X050928Y027471D01*
X050875Y027343D01*
X050777Y027245D01*
X050649Y027192D01*
X050511Y027192D01*
X050383Y027245D01*
X050285Y027343D01*
X050232Y027471D01*
X050232Y027563D01*
X050108Y027687D01*
X050108Y028103D01*
X049981Y028103D01*
X049893Y028191D01*
X049893Y028906D01*
X049981Y028994D01*
X050695Y028994D01*
X050715Y028974D02*
X051088Y028974D01*
X051104Y028816D02*
X050783Y028816D01*
X050783Y028657D02*
X051120Y028657D01*
X051136Y028499D02*
X050783Y028499D01*
X050783Y028340D02*
X051152Y028340D01*
X051168Y028182D02*
X050774Y028182D01*
X050568Y028023D02*
X051184Y028023D01*
X051200Y027865D02*
X050706Y027865D01*
X050888Y027706D02*
X051216Y027706D01*
X051232Y027548D02*
X050928Y027548D01*
X050894Y027389D02*
X051248Y027389D01*
X051264Y027231D02*
X050743Y027231D01*
X050417Y027231D02*
X048460Y027231D01*
X048460Y027389D02*
X050266Y027389D01*
X050232Y027548D02*
X049615Y027548D01*
X049657Y027565D02*
X049755Y027663D01*
X049808Y027791D01*
X049808Y027929D01*
X049755Y028057D01*
X049657Y028155D01*
X049529Y028208D01*
X049405Y028208D01*
X049405Y028906D01*
X049317Y028994D01*
X048603Y028994D01*
X048515Y028906D01*
X048515Y028191D01*
X048603Y028103D01*
X048934Y028103D01*
X049112Y027925D01*
X049112Y027791D01*
X049165Y027663D01*
X049263Y027565D01*
X049391Y027512D01*
X049529Y027512D01*
X049657Y027565D01*
X049773Y027706D02*
X050108Y027706D01*
X050108Y027865D02*
X049808Y027865D01*
X049769Y028023D02*
X050108Y028023D01*
X049902Y028182D02*
X049593Y028182D01*
X049405Y028340D02*
X049893Y028340D01*
X049893Y028499D02*
X049405Y028499D01*
X049405Y028657D02*
X049893Y028657D01*
X049893Y028816D02*
X049405Y028816D01*
X049337Y028974D02*
X049961Y028974D01*
X049934Y029256D02*
X050187Y029256D01*
X050187Y029681D01*
X049777Y029681D01*
X049777Y029412D01*
X049790Y029367D01*
X049813Y029326D01*
X049847Y029292D01*
X049888Y029268D01*
X049934Y029256D01*
X049849Y029291D02*
X049186Y029291D01*
X049269Y029450D02*
X049777Y029450D01*
X049777Y029608D02*
X049269Y029608D01*
X048583Y028974D02*
X048460Y028974D01*
X048460Y028816D02*
X048515Y028816D01*
X048515Y028657D02*
X048460Y028657D01*
X048460Y028499D02*
X048515Y028499D01*
X048515Y028340D02*
X048460Y028340D01*
X048460Y028182D02*
X048524Y028182D01*
X048460Y028023D02*
X049014Y028023D01*
X049112Y027865D02*
X048460Y027865D01*
X048460Y027706D02*
X049147Y027706D01*
X049305Y027548D02*
X048460Y027548D01*
X048460Y027072D02*
X051274Y027072D01*
X051284Y026914D02*
X049724Y026914D01*
X049516Y026914D02*
X048460Y026914D01*
X048460Y026755D02*
X049032Y026755D01*
X048874Y026597D02*
X048460Y026597D01*
X048460Y026438D02*
X048715Y026438D01*
X048700Y026280D02*
X048460Y026280D01*
X049122Y026280D02*
X049436Y026280D01*
X049269Y026121D02*
X049786Y026121D01*
X049777Y025963D02*
X049269Y025963D01*
X049269Y025804D02*
X050187Y025804D01*
X050187Y025646D02*
X050326Y025646D01*
X050326Y025487D02*
X050187Y025487D01*
X050187Y025329D02*
X050326Y025329D01*
X050702Y025329D02*
X051383Y025329D01*
X051373Y025487D02*
X050736Y025487D01*
X050695Y025074D02*
X050783Y024986D01*
X050783Y024271D01*
X050756Y024244D01*
X050777Y024235D01*
X050875Y024137D01*
X050928Y024009D01*
X050928Y023871D01*
X050875Y023743D01*
X050777Y023645D01*
X050649Y023592D01*
X050511Y023592D01*
X050383Y023645D01*
X050285Y023743D01*
X050232Y023871D01*
X050232Y024005D01*
X050138Y024099D01*
X050138Y024183D01*
X049981Y024183D01*
X049893Y024271D01*
X049893Y024986D01*
X049981Y025074D01*
X050695Y025074D01*
X050758Y025012D02*
X051403Y025012D01*
X051393Y025170D02*
X048460Y025170D01*
X048460Y025012D02*
X048540Y025012D01*
X048515Y024986D02*
X048515Y024271D01*
X048603Y024183D01*
X049094Y024183D01*
X049272Y024005D01*
X049272Y023871D01*
X049325Y023743D01*
X049423Y023645D01*
X049551Y023592D01*
X049689Y023592D01*
X049817Y023645D01*
X049915Y023743D01*
X049968Y023871D01*
X049968Y024009D01*
X049915Y024137D01*
X049817Y024235D01*
X049689Y024288D01*
X049555Y024288D01*
X049405Y024438D01*
X049405Y024986D01*
X049317Y025074D01*
X048603Y025074D01*
X048515Y024986D01*
X048515Y024853D02*
X048460Y024853D01*
X048460Y024695D02*
X048515Y024695D01*
X048515Y024536D02*
X048460Y024536D01*
X048460Y024378D02*
X048515Y024378D01*
X048567Y024219D02*
X048460Y024219D01*
X048460Y024061D02*
X049217Y024061D01*
X049272Y023902D02*
X048460Y023902D01*
X048460Y023744D02*
X049325Y023744D01*
X049915Y023744D02*
X050285Y023744D01*
X050232Y023902D02*
X049968Y023902D01*
X049947Y024061D02*
X050177Y024061D01*
X049945Y024219D02*
X049833Y024219D01*
X049893Y024378D02*
X049465Y024378D01*
X049405Y024536D02*
X049893Y024536D01*
X049893Y024695D02*
X049405Y024695D01*
X049405Y024853D02*
X049893Y024853D01*
X049918Y025012D02*
X049380Y025012D01*
X049223Y025329D02*
X049812Y025329D01*
X049777Y025487D02*
X049269Y025487D01*
X049269Y025646D02*
X049777Y025646D01*
X050187Y025963D02*
X050326Y025963D01*
X050326Y026121D02*
X050187Y026121D01*
X049938Y026438D02*
X051314Y026438D01*
X051323Y026280D02*
X049804Y026280D01*
X049968Y026597D02*
X051304Y026597D01*
X051294Y026755D02*
X049924Y026755D01*
X050580Y027540D02*
X050338Y027782D01*
X050338Y028549D01*
X050326Y029291D02*
X050187Y029291D01*
X050187Y029450D02*
X050326Y029450D01*
X050326Y029608D02*
X050187Y029608D01*
X051072Y029133D02*
X048460Y029133D01*
X050727Y026121D02*
X051333Y026121D01*
X051343Y025963D02*
X050736Y025963D01*
X050783Y024853D02*
X051413Y024853D01*
X051423Y024695D02*
X050783Y024695D01*
X050783Y024536D02*
X051433Y024536D01*
X051443Y024378D02*
X050783Y024378D01*
X050793Y024219D02*
X051453Y024219D01*
X051463Y024061D02*
X050907Y024061D01*
X050928Y023902D02*
X051473Y023902D01*
X051483Y023744D02*
X050875Y023744D01*
X051493Y023585D02*
X048460Y023585D01*
X048460Y023427D02*
X051500Y023427D01*
X051504Y023268D02*
X048575Y023268D01*
X048733Y023110D02*
X051508Y023110D01*
X051512Y022951D02*
X049052Y022951D01*
X049420Y022793D02*
X051516Y022793D01*
X051520Y022634D02*
X049488Y022634D01*
X049474Y022476D02*
X051524Y022476D01*
X049777Y021683D02*
X049269Y021683D01*
X049269Y021525D02*
X049780Y021525D01*
X049852Y021208D02*
X049365Y021208D01*
X049365Y021049D02*
X049852Y021049D01*
X049852Y020891D02*
X049365Y020891D01*
X049365Y020732D02*
X049852Y020732D01*
X049852Y020574D02*
X049365Y020574D01*
X048765Y019781D02*
X047630Y019781D01*
X047630Y019623D02*
X048591Y019623D01*
X048552Y019464D02*
X047631Y019464D01*
X047631Y019306D02*
X047906Y019306D01*
X047747Y019147D02*
X047632Y019147D01*
X047632Y018989D02*
X047690Y018989D01*
X047690Y018830D02*
X047633Y018830D01*
X047633Y018672D02*
X047769Y018672D01*
X047634Y018513D02*
X047927Y018513D01*
X047634Y018355D02*
X048396Y018355D01*
X048273Y018513D02*
X048552Y018513D01*
X048474Y018672D02*
X048431Y018672D01*
X048453Y019147D02*
X048474Y019147D01*
X048474Y019306D02*
X048294Y019306D01*
X048204Y019940D02*
X047629Y019940D01*
X047629Y020098D02*
X048030Y020098D01*
X047992Y020257D02*
X047629Y020257D01*
X047628Y020415D02*
X048027Y020415D01*
X047944Y020574D02*
X047628Y020574D01*
X047627Y020732D02*
X047786Y020732D01*
X047740Y020891D02*
X047627Y020891D01*
X047626Y021049D02*
X047740Y021049D01*
X047805Y021208D02*
X047626Y021208D01*
X047625Y021366D02*
X047964Y021366D01*
X048180Y021366D02*
X048180Y021366D01*
X048180Y021208D02*
X048180Y021208D01*
X048180Y021049D02*
X048180Y021049D01*
X050298Y020869D02*
X050298Y020462D01*
X050326Y017879D02*
X050187Y017879D01*
X050187Y017721D02*
X050326Y017721D01*
X050326Y017562D02*
X050187Y017562D01*
X050900Y017940D02*
X050900Y014020D01*
X050751Y013871D01*
X050337Y013871D01*
X050406Y013917D02*
X051439Y013917D01*
X051447Y014075D02*
X050816Y014075D01*
X050900Y014020D02*
X050900Y010180D01*
X050831Y010111D01*
X050337Y010111D01*
X050406Y010113D02*
X051165Y010113D01*
X051179Y010271D02*
X050816Y010271D01*
X050816Y010181D02*
X050816Y010450D01*
X050803Y010496D01*
X050780Y010537D01*
X050746Y010570D01*
X050705Y010594D01*
X050659Y010606D01*
X050406Y010606D01*
X050406Y010181D01*
X050267Y010181D01*
X050267Y010606D01*
X050014Y010606D01*
X049968Y010594D01*
X049927Y010570D01*
X049893Y010537D01*
X049870Y010496D01*
X049857Y010450D01*
X049857Y010181D01*
X050267Y010181D01*
X050267Y010042D01*
X049857Y010042D01*
X049857Y009773D01*
X049870Y009727D01*
X049893Y009686D01*
X049927Y009652D01*
X049968Y009629D01*
X050014Y009616D01*
X050267Y009616D01*
X050267Y010042D01*
X050406Y010042D01*
X050406Y010181D01*
X050816Y010181D01*
X050900Y010180D02*
X050900Y006340D01*
X050584Y006024D01*
X050368Y006024D01*
X050298Y005992D02*
X049380Y005992D01*
X049380Y006150D02*
X049889Y006150D01*
X049889Y006093D02*
X050298Y006093D01*
X050298Y006519D01*
X050045Y006519D01*
X049999Y006506D01*
X049958Y006483D01*
X049925Y006449D01*
X049901Y006408D01*
X049889Y006362D01*
X049889Y006093D01*
X049889Y006309D02*
X049380Y006309D01*
X049314Y006467D02*
X049943Y006467D01*
X049974Y006784D02*
X049422Y006784D01*
X049454Y006817D02*
X049454Y007531D01*
X049367Y007619D01*
X049209Y007619D01*
X049209Y007726D01*
X049235Y007752D01*
X049369Y007752D01*
X049497Y007805D01*
X049595Y007903D01*
X049648Y008031D01*
X049648Y008169D01*
X049595Y008297D01*
X049497Y008395D01*
X049369Y008448D01*
X049231Y008448D01*
X049103Y008395D01*
X049005Y008297D01*
X048952Y008169D01*
X048952Y008035D01*
X048809Y007892D01*
X048809Y007619D01*
X048652Y007619D01*
X048564Y007531D01*
X048564Y006817D01*
X048652Y006729D01*
X049367Y006729D01*
X049454Y006817D01*
X049454Y006943D02*
X049942Y006943D01*
X049942Y007101D02*
X049454Y007101D01*
X049454Y007260D02*
X049942Y007260D01*
X049942Y007418D02*
X049454Y007418D01*
X049409Y007577D02*
X049987Y007577D01*
X050157Y007735D02*
X049218Y007735D01*
X049586Y007894D02*
X050157Y007894D01*
X050157Y008052D02*
X049648Y008052D01*
X049631Y008211D02*
X050157Y008211D01*
X050139Y008369D02*
X049523Y008369D01*
X049077Y008369D02*
X048540Y008369D01*
X048540Y008211D02*
X048969Y008211D01*
X048952Y008052D02*
X048540Y008052D01*
X048540Y007894D02*
X048811Y007894D01*
X048809Y007735D02*
X048540Y007735D01*
X048540Y007577D02*
X048609Y007577D01*
X048564Y007418D02*
X048540Y007418D01*
X048540Y007260D02*
X048564Y007260D01*
X048564Y007101D02*
X048540Y007101D01*
X048540Y006943D02*
X048564Y006943D01*
X048540Y006784D02*
X048596Y006784D01*
X048540Y006626D02*
X050801Y006626D01*
X050800Y006784D02*
X050821Y006784D01*
X050832Y006943D02*
X050839Y006943D01*
X050832Y007101D02*
X050858Y007101D01*
X050876Y007260D02*
X050832Y007260D01*
X050832Y007418D02*
X050895Y007418D01*
X050914Y007577D02*
X050787Y007577D01*
X050932Y007735D02*
X050617Y007735D01*
X050617Y007894D02*
X050951Y007894D01*
X050969Y008052D02*
X050617Y008052D01*
X050617Y008211D02*
X050988Y008211D01*
X051007Y008369D02*
X050701Y008369D01*
X050768Y008528D02*
X051025Y008528D01*
X051039Y008686D02*
X050753Y008686D01*
X050648Y008845D02*
X051053Y008845D01*
X051067Y009003D02*
X049328Y009003D01*
X049301Y008845D02*
X050192Y008845D01*
X050087Y008686D02*
X049178Y008686D01*
X048980Y008980D02*
X048820Y009140D01*
X048820Y010032D01*
X049050Y009637D02*
X049953Y009637D01*
X049857Y009796D02*
X049349Y009796D01*
X049349Y009954D02*
X049857Y009954D01*
X049857Y010271D02*
X049349Y010271D01*
X049349Y010113D02*
X050267Y010113D01*
X050406Y010042D02*
X050406Y009616D01*
X050659Y009616D01*
X050705Y009629D01*
X050746Y009652D01*
X050780Y009686D01*
X050803Y009727D01*
X050816Y009773D01*
X050816Y010042D01*
X050406Y010042D01*
X050406Y009954D02*
X050267Y009954D01*
X050267Y009796D02*
X050406Y009796D01*
X050406Y009637D02*
X050267Y009637D01*
X050720Y009637D02*
X051123Y009637D01*
X051109Y009479D02*
X049050Y009479D01*
X049069Y009320D02*
X051095Y009320D01*
X051081Y009162D02*
X049282Y009162D01*
X048632Y009003D02*
X048540Y009003D01*
X048540Y008845D02*
X048659Y008845D01*
X048540Y008686D02*
X048782Y008686D01*
X048540Y008528D02*
X050072Y008528D01*
X050387Y008547D02*
X050420Y008580D01*
X050387Y008547D02*
X050387Y007174D01*
X050438Y006467D02*
X050298Y006467D01*
X050298Y006309D02*
X050438Y006309D01*
X050438Y006150D02*
X050298Y006150D01*
X050438Y005992D02*
X050638Y005992D01*
X050438Y005833D02*
X050298Y005833D01*
X050298Y005675D02*
X050438Y005675D01*
X050409Y005516D02*
X049580Y005516D01*
X049563Y005675D02*
X049892Y005675D01*
X049889Y005833D02*
X049405Y005833D01*
X049655Y005358D02*
X050300Y005358D01*
X050178Y005199D02*
X049728Y005199D01*
X049716Y005041D02*
X050049Y005041D01*
X049873Y004882D02*
X049614Y004882D01*
X049697Y004724D02*
X049406Y004724D01*
X049442Y004565D02*
X049248Y004565D01*
X049140Y004407D02*
X049089Y004407D01*
X047873Y005516D02*
X046007Y005516D01*
X045848Y005675D02*
X047900Y005675D01*
X047900Y005833D02*
X047617Y005833D01*
X047670Y005992D02*
X047900Y005992D01*
X047900Y006150D02*
X047669Y006150D01*
X047669Y006309D02*
X047900Y006309D01*
X047900Y006467D02*
X047668Y006467D01*
X047668Y006626D02*
X047900Y006626D01*
X047900Y006784D02*
X047668Y006784D01*
X047667Y006943D02*
X047900Y006943D01*
X047900Y007101D02*
X047667Y007101D01*
X047666Y007260D02*
X047900Y007260D01*
X047900Y007418D02*
X047666Y007418D01*
X047665Y007577D02*
X047900Y007577D01*
X047900Y007735D02*
X047665Y007735D01*
X047664Y007894D02*
X047900Y007894D01*
X047900Y008052D02*
X047664Y008052D01*
X047663Y008211D02*
X047900Y008211D01*
X047900Y008369D02*
X047663Y008369D01*
X047663Y008528D02*
X047900Y008528D01*
X047900Y008686D02*
X047662Y008686D01*
X047662Y008845D02*
X047900Y008845D01*
X047900Y009003D02*
X047661Y009003D01*
X047661Y009162D02*
X047900Y009162D01*
X047900Y009320D02*
X047660Y009320D01*
X047660Y009479D02*
X047900Y009479D01*
X047900Y009637D02*
X047659Y009637D01*
X047659Y009796D02*
X047900Y009796D01*
X047900Y009954D02*
X047658Y009954D01*
X047658Y010113D02*
X047900Y010113D01*
X047900Y010271D02*
X047657Y010271D01*
X047657Y010430D02*
X047900Y010430D01*
X047900Y010588D02*
X047657Y010588D01*
X047656Y010747D02*
X047900Y010747D01*
X047900Y010905D02*
X047656Y010905D01*
X047655Y011064D02*
X047900Y011064D01*
X047900Y011222D02*
X047655Y011222D01*
X047654Y011381D02*
X047900Y011381D01*
X047900Y011539D02*
X047654Y011539D01*
X047653Y011698D02*
X047900Y011698D01*
X047900Y011856D02*
X047653Y011856D01*
X047652Y012015D02*
X047900Y012015D01*
X047900Y012173D02*
X047652Y012173D01*
X047651Y012332D02*
X047900Y012332D01*
X047900Y012490D02*
X047651Y012490D01*
X047651Y012649D02*
X047900Y012649D01*
X047900Y012807D02*
X047650Y012807D01*
X047650Y012966D02*
X047900Y012966D01*
X047900Y013124D02*
X047649Y013124D01*
X047649Y013283D02*
X047900Y013283D01*
X047900Y013441D02*
X047648Y013441D01*
X047648Y013600D02*
X047900Y013600D01*
X047900Y013758D02*
X047647Y013758D01*
X047647Y013917D02*
X047900Y013917D01*
X047900Y014075D02*
X047646Y014075D01*
X047646Y014234D02*
X047900Y014234D01*
X047900Y014392D02*
X047646Y014392D01*
X047645Y014551D02*
X047900Y014551D01*
X047900Y014709D02*
X047645Y014709D01*
X047644Y014868D02*
X047900Y014868D01*
X047900Y015026D02*
X047644Y015026D01*
X047643Y015185D02*
X047900Y015185D01*
X047900Y015343D02*
X047643Y015343D01*
X047642Y015502D02*
X047900Y015502D01*
X047900Y015660D02*
X047642Y015660D01*
X047641Y015819D02*
X047900Y015819D01*
X047900Y015977D02*
X047641Y015977D01*
X047640Y016136D02*
X047900Y016136D01*
X047900Y016294D02*
X047640Y016294D01*
X047640Y016453D02*
X047900Y016453D01*
X047900Y016611D02*
X047639Y016611D01*
X047639Y016770D02*
X048007Y016770D01*
X048165Y016928D02*
X047638Y016928D01*
X047638Y017087D02*
X048324Y017087D01*
X048482Y017245D02*
X047637Y017245D01*
X047637Y017404D02*
X048540Y017404D01*
X048383Y017562D02*
X048322Y017562D01*
X047878Y017562D02*
X047636Y017562D01*
X047636Y017721D02*
X047720Y017721D01*
X047690Y017879D02*
X047635Y017879D01*
X047635Y018038D02*
X047690Y018038D01*
X047634Y018196D02*
X047796Y018196D01*
X048731Y016928D02*
X048738Y016928D01*
X048858Y016770D02*
X048572Y016770D01*
X048414Y016611D02*
X050279Y016611D01*
X050303Y016635D02*
X050205Y016537D01*
X050152Y016409D01*
X050152Y016317D01*
X050148Y016313D01*
X050148Y015634D01*
X050020Y015634D01*
X049932Y015546D01*
X049932Y014831D01*
X050020Y014743D01*
X050735Y014743D01*
X050823Y014831D01*
X050823Y015546D01*
X050735Y015634D01*
X050608Y015634D01*
X050608Y016008D01*
X050697Y016045D01*
X050795Y016143D01*
X050848Y016271D01*
X050848Y016409D01*
X050795Y016537D01*
X050697Y016635D01*
X050569Y016688D01*
X050431Y016688D01*
X050303Y016635D01*
X050170Y016453D02*
X048300Y016453D01*
X048300Y016294D02*
X048684Y016294D01*
X048685Y016297D02*
X048632Y016169D01*
X048632Y016031D01*
X048685Y015903D01*
X048780Y015808D01*
X048780Y015634D01*
X048642Y015634D01*
X048554Y015546D01*
X048554Y014831D01*
X048642Y014743D01*
X049357Y014743D01*
X049445Y014831D01*
X049445Y015546D01*
X049357Y015634D01*
X049180Y015634D01*
X049180Y015808D01*
X049275Y015903D01*
X049328Y016031D01*
X049328Y016169D01*
X049275Y016297D01*
X049177Y016395D01*
X049049Y016448D01*
X048911Y016448D01*
X048783Y016395D01*
X048685Y016297D01*
X048632Y016136D02*
X048300Y016136D01*
X048300Y015977D02*
X048654Y015977D01*
X048769Y015819D02*
X048300Y015819D01*
X048300Y015660D02*
X048780Y015660D01*
X048554Y015502D02*
X048300Y015502D01*
X048300Y015343D02*
X048554Y015343D01*
X048554Y015185D02*
X048300Y015185D01*
X048300Y015026D02*
X048554Y015026D01*
X048554Y014868D02*
X048300Y014868D01*
X048300Y014709D02*
X051479Y014709D01*
X051471Y014551D02*
X048300Y014551D01*
X048300Y014392D02*
X051463Y014392D01*
X051455Y014234D02*
X050809Y014234D01*
X050803Y014256D02*
X050780Y014297D01*
X050746Y014330D01*
X050705Y014354D01*
X050659Y014366D01*
X050406Y014366D01*
X050406Y013941D01*
X050267Y013941D01*
X050267Y014366D01*
X050014Y014366D01*
X049968Y014354D01*
X049927Y014330D01*
X049893Y014297D01*
X049870Y014256D01*
X049857Y014210D01*
X049857Y013941D01*
X050267Y013941D01*
X050267Y013802D01*
X049857Y013802D01*
X049857Y013533D01*
X049870Y013487D01*
X049893Y013446D01*
X049927Y013412D01*
X049968Y013389D01*
X050014Y013376D01*
X050267Y013376D01*
X050267Y013802D01*
X050406Y013802D01*
X050406Y013941D01*
X050816Y013941D01*
X050816Y014210D01*
X050803Y014256D01*
X050406Y014234D02*
X050267Y014234D01*
X050267Y014075D02*
X050406Y014075D01*
X050267Y013917D02*
X049349Y013917D01*
X049349Y014075D02*
X049857Y014075D01*
X049864Y014234D02*
X049349Y014234D01*
X049349Y013758D02*
X049857Y013758D01*
X049857Y013600D02*
X049349Y013600D01*
X049296Y013441D02*
X049898Y013441D01*
X050267Y013441D02*
X050406Y013441D01*
X050406Y013376D02*
X050659Y013376D01*
X050705Y013389D01*
X050746Y013412D01*
X050780Y013446D01*
X050803Y013487D01*
X050816Y013533D01*
X050816Y013802D01*
X050406Y013802D01*
X050406Y013376D01*
X050406Y013600D02*
X050267Y013600D01*
X050267Y013758D02*
X050406Y013758D01*
X050816Y013758D02*
X051431Y013758D01*
X051423Y013600D02*
X050816Y013600D01*
X050775Y013441D02*
X051415Y013441D01*
X051407Y013283D02*
X049298Y013283D01*
X049328Y013124D02*
X051399Y013124D01*
X051391Y012966D02*
X049285Y012966D01*
X049086Y012807D02*
X051383Y012807D01*
X051375Y012649D02*
X048540Y012649D01*
X048540Y012807D02*
X048874Y012807D01*
X048675Y012966D02*
X048540Y012966D01*
X048540Y013124D02*
X048632Y013124D01*
X048662Y013283D02*
X048594Y013283D01*
X048345Y013600D02*
X048300Y013600D01*
X048300Y013758D02*
X048450Y013758D01*
X048450Y013917D02*
X048300Y013917D01*
X048300Y014075D02*
X048450Y014075D01*
X048450Y014234D02*
X048300Y014234D01*
X049445Y014868D02*
X049932Y014868D01*
X049932Y015026D02*
X049445Y015026D01*
X049445Y015185D02*
X049932Y015185D01*
X049932Y015343D02*
X049445Y015343D01*
X049445Y015502D02*
X049932Y015502D01*
X050148Y015660D02*
X049180Y015660D01*
X049191Y015819D02*
X050148Y015819D01*
X050148Y015977D02*
X049306Y015977D01*
X049328Y016136D02*
X050148Y016136D01*
X050148Y016294D02*
X049276Y016294D01*
X049262Y016770D02*
X051554Y016770D01*
X051556Y016928D02*
X049382Y016928D01*
X049408Y017087D02*
X051558Y017087D01*
X051560Y017245D02*
X049360Y017245D01*
X050378Y016218D02*
X050500Y016340D01*
X050378Y016218D02*
X050378Y015189D01*
X050823Y015185D02*
X051504Y015185D01*
X051512Y015343D02*
X050823Y015343D01*
X050823Y015502D02*
X051520Y015502D01*
X051528Y015660D02*
X050608Y015660D01*
X050608Y015819D02*
X051536Y015819D01*
X051544Y015977D02*
X050608Y015977D01*
X050788Y016136D02*
X051546Y016136D01*
X051548Y016294D02*
X050848Y016294D01*
X050830Y016453D02*
X051550Y016453D01*
X051552Y016611D02*
X050721Y016611D01*
X050823Y015026D02*
X051495Y015026D01*
X051487Y014868D02*
X050823Y014868D01*
X050649Y012608D02*
X050511Y012608D01*
X050383Y012555D01*
X050285Y012457D01*
X050232Y012329D01*
X050232Y012237D01*
X050148Y012153D01*
X050148Y011714D01*
X050020Y011714D01*
X049932Y011626D01*
X049932Y010911D01*
X050020Y010823D01*
X050735Y010823D01*
X050823Y010911D01*
X050823Y011626D01*
X050735Y011714D01*
X050608Y011714D01*
X050608Y011912D01*
X050649Y011912D01*
X050777Y011965D01*
X050875Y012063D01*
X050928Y012191D01*
X050928Y012329D01*
X050875Y012457D01*
X050777Y012555D01*
X050649Y012608D01*
X050842Y012490D02*
X051367Y012490D01*
X051359Y012332D02*
X050927Y012332D01*
X050921Y012173D02*
X051348Y012173D01*
X051334Y012015D02*
X050827Y012015D01*
X050608Y011856D02*
X051320Y011856D01*
X051306Y011698D02*
X050751Y011698D01*
X050823Y011539D02*
X051292Y011539D01*
X051278Y011381D02*
X050823Y011381D01*
X050823Y011222D02*
X051264Y011222D01*
X051250Y011064D02*
X050823Y011064D01*
X050817Y010905D02*
X051236Y010905D01*
X051222Y010747D02*
X048540Y010747D01*
X048642Y010823D02*
X049357Y010823D01*
X049445Y010911D01*
X049445Y011626D01*
X049357Y011714D01*
X049130Y011714D01*
X049130Y011758D01*
X049195Y011823D01*
X049248Y011951D01*
X049248Y012089D01*
X049195Y012217D01*
X049097Y012315D01*
X048969Y012368D01*
X048831Y012368D01*
X048703Y012315D01*
X048605Y012217D01*
X048552Y012089D01*
X048552Y011951D01*
X048605Y011823D01*
X048670Y011758D01*
X048670Y011714D01*
X048642Y011714D01*
X048554Y011626D01*
X048554Y010911D01*
X048642Y010823D01*
X048560Y010905D02*
X048540Y010905D01*
X048540Y011064D02*
X048554Y011064D01*
X048540Y011222D02*
X048554Y011222D01*
X048540Y011381D02*
X048554Y011381D01*
X048540Y011539D02*
X048554Y011539D01*
X048540Y011698D02*
X048626Y011698D01*
X048591Y011856D02*
X048540Y011856D01*
X048540Y012015D02*
X048552Y012015D01*
X048540Y012173D02*
X048587Y012173D01*
X048540Y012332D02*
X048742Y012332D01*
X048540Y012490D02*
X050318Y012490D01*
X050233Y012332D02*
X049058Y012332D01*
X049213Y012173D02*
X050168Y012173D01*
X050148Y012015D02*
X049248Y012015D01*
X049209Y011856D02*
X050148Y011856D01*
X050004Y011698D02*
X049373Y011698D01*
X049445Y011539D02*
X049932Y011539D01*
X049932Y011381D02*
X049445Y011381D01*
X049445Y011222D02*
X049932Y011222D01*
X049932Y011064D02*
X049445Y011064D01*
X049439Y010905D02*
X049938Y010905D01*
X049957Y010588D02*
X048540Y010588D01*
X049000Y011269D02*
X048900Y011368D01*
X048900Y012020D01*
X050378Y012058D02*
X050378Y011269D01*
X050406Y010588D02*
X050267Y010588D01*
X050267Y010430D02*
X050406Y010430D01*
X050406Y010271D02*
X050267Y010271D01*
X049857Y010430D02*
X049349Y010430D01*
X048590Y009637D02*
X048540Y009637D01*
X048540Y009479D02*
X048590Y009479D01*
X048590Y009320D02*
X048540Y009320D01*
X048540Y009162D02*
X048590Y009162D01*
X050816Y009796D02*
X051137Y009796D01*
X051151Y009954D02*
X050816Y009954D01*
X050816Y010430D02*
X051193Y010430D01*
X051207Y010588D02*
X050716Y010588D01*
X050378Y012058D02*
X050580Y012260D01*
X048548Y006467D02*
X048540Y006467D01*
X035060Y007540D02*
X034260Y007540D01*
X033780Y007060D01*
X032220Y009320D02*
X032045Y009320D01*
X032130Y009479D02*
X032220Y009479D01*
X032220Y009637D02*
X032143Y009637D01*
X032095Y009796D02*
X032220Y009796D01*
X032220Y009954D02*
X032060Y009954D01*
X032060Y010113D02*
X032220Y010113D01*
X032220Y010271D02*
X032060Y010271D01*
X032060Y010430D02*
X032220Y010430D01*
X032220Y010588D02*
X032060Y010588D01*
X032060Y010747D02*
X032220Y010747D01*
X032220Y010905D02*
X032060Y010905D01*
X032060Y011064D02*
X032220Y011064D01*
X032220Y011222D02*
X032060Y011222D01*
X032060Y011381D02*
X032220Y011381D01*
X032220Y011539D02*
X032060Y011539D01*
X032060Y011698D02*
X032220Y011698D01*
X032220Y011856D02*
X032060Y011856D01*
X031908Y012015D02*
X032220Y012015D01*
X031855Y012173D02*
X031750Y012173D01*
X031760Y012332D02*
X031591Y012332D01*
X031433Y012490D02*
X031752Y012490D01*
X031836Y012649D02*
X031274Y012649D01*
X031116Y012807D02*
X032540Y012807D01*
X032540Y012649D02*
X032364Y012649D01*
X032448Y012490D02*
X032540Y012490D01*
X032540Y012332D02*
X032471Y012332D01*
X032540Y012966D02*
X031100Y012966D01*
X031100Y013124D02*
X032540Y013124D01*
X032540Y013283D02*
X031100Y013283D01*
X031100Y013441D02*
X032540Y013441D01*
X032540Y013600D02*
X031100Y013600D01*
X031100Y013758D02*
X032540Y013758D01*
X032540Y013917D02*
X031100Y013917D01*
X031100Y014075D02*
X032540Y014075D01*
X032540Y014234D02*
X031100Y014234D01*
X031100Y014392D02*
X032540Y014392D01*
X032540Y014551D02*
X031100Y014551D01*
X030974Y014709D02*
X032540Y014709D01*
X032540Y014868D02*
X030815Y014868D01*
X030657Y015026D02*
X032540Y015026D01*
X032540Y015185D02*
X030308Y015185D01*
X029900Y015343D02*
X032540Y015343D01*
X032540Y015502D02*
X029900Y015502D01*
X029943Y015660D02*
X032497Y015660D01*
X032339Y015819D02*
X030101Y015819D01*
X030260Y015977D02*
X032220Y015977D01*
X032220Y016136D02*
X030418Y016136D01*
X030577Y016294D02*
X032134Y016294D01*
X032072Y016453D02*
X030735Y016453D01*
X030823Y016540D02*
X030823Y016540D01*
X030894Y016611D02*
X032089Y016611D01*
X032197Y016770D02*
X030940Y016770D01*
X030940Y016928D02*
X033020Y016928D01*
X033020Y016770D02*
X032643Y016770D01*
X033020Y017087D02*
X030940Y017087D01*
X030940Y017245D02*
X033020Y017245D01*
X033020Y017404D02*
X030940Y017404D01*
X030921Y017562D02*
X033020Y017562D01*
X033020Y017721D02*
X031407Y017721D01*
X031538Y017879D02*
X033020Y017879D01*
X033020Y018038D02*
X032000Y018038D01*
X032159Y018196D02*
X033020Y018196D01*
X032798Y019464D02*
X029876Y019464D01*
X029866Y019475D02*
X029825Y019498D01*
X029779Y019511D01*
X029508Y019511D01*
X029508Y019123D01*
X029935Y019123D01*
X029935Y019354D01*
X029923Y019400D01*
X029899Y019441D01*
X029866Y019475D01*
X029935Y019306D02*
X030473Y019306D01*
X030472Y019147D02*
X029935Y019147D01*
X029935Y018989D02*
X030860Y018989D01*
X030860Y019147D02*
X030956Y019147D01*
X030956Y019306D02*
X030860Y019306D01*
X030908Y019540D02*
X031068Y019700D01*
X031140Y019700D01*
X030408Y020574D02*
X031979Y020574D01*
X032221Y020574D02*
X032714Y020574D01*
X032718Y020415D02*
X030225Y020415D01*
X029975Y020415D02*
X029886Y020415D01*
X029882Y020257D02*
X032811Y020257D01*
X033206Y020098D02*
X029790Y020098D01*
X029422Y019940D02*
X033116Y019940D01*
X033116Y019781D02*
X029264Y019781D01*
X029105Y019623D02*
X032890Y019623D01*
X033309Y020257D02*
X033730Y020257D01*
X033730Y020415D02*
X033402Y020415D01*
X033406Y020574D02*
X033730Y020574D01*
X033730Y020732D02*
X033320Y020732D01*
X033333Y020891D02*
X033730Y020891D01*
X033730Y021049D02*
X033492Y021049D01*
X033500Y021208D02*
X033730Y021208D01*
X033730Y021366D02*
X033500Y021366D01*
X033500Y021525D02*
X033730Y021525D01*
X033730Y021683D02*
X033500Y021683D01*
X033500Y021842D02*
X033730Y021842D01*
X033730Y022000D02*
X033500Y022000D01*
X033500Y022159D02*
X033730Y022159D01*
X033730Y022317D02*
X033500Y022317D01*
X033458Y022476D02*
X033730Y022476D01*
X033730Y022634D02*
X033680Y022634D01*
X033728Y022793D02*
X033730Y022793D01*
X033730Y022951D02*
X033703Y022951D01*
X033730Y023110D02*
X033583Y023110D01*
X033580Y023268D02*
X033730Y023268D01*
X033730Y023427D02*
X033580Y023427D01*
X033580Y023585D02*
X033730Y023585D01*
X033100Y021525D02*
X033000Y021525D01*
X033100Y021366D02*
X032848Y021366D01*
X032805Y021208D02*
X033085Y021208D01*
X032926Y021049D02*
X032611Y021049D01*
X032448Y020891D02*
X032860Y020891D01*
X032800Y020732D02*
X032407Y020732D01*
X031793Y020732D02*
X030448Y020732D01*
X030414Y020891D02*
X031752Y020891D01*
X031785Y021049D02*
X030264Y021049D01*
X029508Y019464D02*
X029412Y019464D01*
X029412Y019306D02*
X029508Y019306D01*
X029508Y019147D02*
X029412Y019147D01*
X028985Y019306D02*
X028788Y019306D01*
X028947Y019464D02*
X029044Y019464D01*
X029935Y018830D02*
X030472Y018830D01*
X030472Y018672D02*
X029905Y018672D01*
X029460Y018405D02*
X028435Y018405D01*
X028420Y018420D01*
X030020Y017460D02*
X030180Y017300D01*
X030819Y017721D02*
X031033Y017721D01*
X030902Y017879D02*
X030848Y017879D01*
X030872Y018038D02*
X030803Y018038D01*
X028990Y015977D02*
X028426Y015977D01*
X028584Y015819D02*
X028990Y015819D01*
X028990Y015660D02*
X028743Y015660D01*
X028901Y015502D02*
X028990Y015502D01*
X028990Y015343D02*
X028940Y015343D01*
X028907Y015185D02*
X028990Y015185D01*
X028990Y015026D02*
X028749Y015026D01*
X030687Y013124D02*
X030700Y013124D01*
X030700Y012966D02*
X030528Y012966D01*
X030700Y012807D02*
X028290Y012807D01*
X028131Y012649D02*
X030709Y012649D01*
X030867Y012490D02*
X027973Y012490D01*
X025731Y013690D02*
X025731Y013690D01*
X025174Y013441D02*
X023666Y013441D01*
X023722Y013283D02*
X025148Y013283D01*
X025148Y013124D02*
X023722Y013124D01*
X023840Y012883D02*
X023799Y012859D01*
X023765Y012826D01*
X023742Y012785D01*
X023729Y012739D01*
X023729Y012468D01*
X024117Y012468D01*
X024117Y012895D01*
X023886Y012895D01*
X023840Y012883D01*
X023755Y012807D02*
X021718Y012807D01*
X021877Y012649D02*
X023729Y012649D01*
X023729Y012490D02*
X022035Y012490D01*
X022194Y012332D02*
X023729Y012332D01*
X023729Y012173D02*
X022352Y012173D01*
X022511Y012015D02*
X023765Y012015D01*
X024117Y012015D02*
X024213Y012015D01*
X024213Y012173D02*
X024117Y012173D01*
X024117Y012332D02*
X024213Y012332D01*
X024213Y012490D02*
X024117Y012490D01*
X024117Y012649D02*
X024213Y012649D01*
X024213Y012807D02*
X024117Y012807D01*
X023722Y013600D02*
X025118Y013600D01*
X025118Y013758D02*
X023722Y013758D01*
X023687Y013917D02*
X025153Y013917D01*
X024482Y014075D02*
X023722Y014075D01*
X023722Y014234D02*
X024324Y014234D01*
X024165Y014392D02*
X023701Y014392D01*
X023722Y014551D02*
X024007Y014551D01*
X023848Y014709D02*
X023722Y014709D01*
X023109Y014234D02*
X023109Y014234D01*
X023109Y014190D02*
X023109Y014190D01*
X023109Y014075D02*
X023109Y014075D01*
X023109Y013917D02*
X023109Y013917D01*
X021003Y014392D02*
X020422Y014392D01*
X020448Y014234D02*
X020846Y014234D01*
X020793Y014075D02*
X020400Y014075D01*
X018580Y015343D02*
X016120Y015343D01*
X016120Y015185D02*
X016692Y015185D01*
X016575Y015026D02*
X016120Y015026D01*
X016120Y014868D02*
X016552Y014868D01*
X016602Y014709D02*
X016120Y014709D01*
X017108Y015185D02*
X018422Y015185D01*
X017460Y015860D02*
X017460Y017789D01*
X016120Y017245D02*
X021633Y017245D01*
X021527Y017087D02*
X016120Y017087D01*
X016120Y016928D02*
X021512Y016928D01*
X021367Y016770D02*
X016120Y016770D01*
X016120Y016611D02*
X021208Y016611D01*
X026279Y021049D02*
X027474Y021049D01*
X027432Y021208D02*
X027407Y021208D01*
X027193Y021208D02*
X026288Y021208D01*
X026206Y021366D02*
X026995Y021366D01*
X026480Y021525D02*
X026404Y021525D01*
X026391Y022159D02*
X025924Y022159D01*
X025766Y022317D02*
X027234Y022317D01*
X027076Y022159D02*
X026769Y022159D01*
X026899Y022000D02*
X026917Y022000D01*
X027635Y022793D02*
X027710Y022793D01*
X027794Y022951D02*
X027868Y022951D01*
X028158Y023110D02*
X028217Y023110D01*
X027387Y023110D02*
X026943Y023110D01*
X026377Y023110D02*
X018759Y023110D01*
X018342Y023427D02*
X018187Y023427D01*
X018187Y023585D02*
X018342Y023585D01*
X018342Y023744D02*
X018187Y023744D01*
X017819Y023744D02*
X017564Y023744D01*
X017627Y023585D02*
X017769Y023585D01*
X017769Y023427D02*
X017627Y023427D01*
X017162Y023264D02*
X016536Y023264D01*
X016365Y023110D02*
X016120Y023110D01*
X016120Y023268D02*
X016207Y023268D01*
X016306Y023169D02*
X016306Y023169D01*
X016120Y022951D02*
X016697Y022951D01*
X016752Y022793D02*
X016120Y022793D01*
X018020Y024296D02*
X018020Y024900D01*
X018340Y025220D01*
X018820Y025300D01*
X018942Y025342D01*
X019723Y025342D01*
X019675Y025329D02*
X018166Y025329D01*
X018168Y025487D02*
X019287Y025487D01*
X019287Y025390D02*
X019675Y025390D01*
X019675Y025817D01*
X019443Y025817D01*
X019397Y025805D01*
X019356Y025782D01*
X019323Y025748D01*
X019299Y025707D01*
X019287Y025661D01*
X019287Y025390D01*
X019287Y025294D02*
X019287Y025023D01*
X019299Y024977D01*
X019323Y024936D01*
X019356Y024903D01*
X019397Y024879D01*
X019443Y024867D01*
X019675Y024867D01*
X019675Y025294D01*
X019770Y025294D01*
X019770Y024867D01*
X020002Y024867D01*
X020048Y024879D01*
X020079Y024897D01*
X020710Y024897D01*
X020798Y024985D01*
X020798Y024990D01*
X020863Y024925D01*
X020991Y024872D01*
X021129Y024872D01*
X021257Y024925D01*
X021355Y025023D01*
X021408Y025151D01*
X021408Y025289D01*
X021355Y025417D01*
X021257Y025515D01*
X021129Y025568D01*
X020991Y025568D01*
X020928Y025542D01*
X020798Y025542D01*
X020798Y025700D01*
X020710Y025787D01*
X020079Y025787D01*
X020048Y025805D01*
X020002Y025817D01*
X019770Y025817D01*
X019770Y025390D01*
X019675Y025390D01*
X019675Y025294D01*
X019287Y025294D01*
X019287Y025170D02*
X018101Y025170D01*
X017989Y025012D02*
X019290Y025012D01*
X019675Y025012D02*
X019770Y025012D01*
X019770Y025170D02*
X019675Y025170D01*
X019675Y025487D02*
X019770Y025487D01*
X019770Y025646D02*
X019675Y025646D01*
X019675Y025804D02*
X019770Y025804D01*
X020050Y025804D02*
X021806Y025804D01*
X021806Y025646D02*
X020798Y025646D01*
X021285Y025487D02*
X021806Y025487D01*
X021806Y025329D02*
X021392Y025329D01*
X021408Y025170D02*
X021806Y025170D01*
X021806Y025012D02*
X021344Y025012D01*
X021806Y025963D02*
X017940Y025963D01*
X018080Y025804D02*
X019395Y025804D01*
X019287Y025646D02*
X018146Y025646D01*
X017783Y026597D02*
X021806Y026597D01*
X021806Y026755D02*
X018000Y026755D01*
X018105Y026914D02*
X021806Y026914D01*
X021806Y027072D02*
X018168Y027072D01*
X018168Y027231D02*
X019355Y027231D01*
X019299Y027389D02*
X018141Y027389D01*
X018076Y027548D02*
X019299Y027548D01*
X019299Y027704D02*
X019687Y027704D01*
X019687Y028131D01*
X019456Y028131D01*
X019410Y028119D01*
X019369Y028095D01*
X019335Y028062D01*
X019311Y028021D01*
X019299Y027975D01*
X019299Y027704D01*
X019299Y027706D02*
X017929Y027706D01*
X018020Y027700D02*
X018064Y027656D01*
X019735Y027656D01*
X019687Y027706D02*
X019783Y027706D01*
X019783Y027548D02*
X019687Y027548D01*
X019687Y027389D02*
X019783Y027389D01*
X019783Y027231D02*
X019687Y027231D01*
X019687Y027865D02*
X019783Y027865D01*
X019783Y028023D02*
X019687Y028023D01*
X019378Y028182D02*
X020189Y028182D01*
X020152Y028340D02*
X019442Y028340D01*
X019442Y028499D02*
X019689Y028499D01*
X019940Y028740D02*
X018860Y028740D01*
X018820Y028780D01*
X019442Y028974D02*
X019682Y028974D01*
X020106Y029450D02*
X016690Y029450D01*
X016690Y029608D02*
X019886Y029608D01*
X020282Y028657D02*
X020356Y028657D01*
X020801Y028023D02*
X021806Y028023D01*
X021806Y027865D02*
X020810Y027865D01*
X020810Y027706D02*
X021806Y027706D01*
X021806Y027548D02*
X020810Y027548D01*
X020810Y027389D02*
X021806Y027389D01*
X021806Y027231D02*
X020742Y027231D01*
X021806Y026438D02*
X016120Y026438D01*
X016120Y026280D02*
X021806Y026280D01*
X021806Y026121D02*
X016120Y026121D01*
X016120Y027865D02*
X019299Y027865D01*
X019313Y028023D02*
X016120Y028023D01*
X016120Y028182D02*
X016529Y028182D01*
X016465Y028340D02*
X016120Y028340D01*
X016120Y028499D02*
X016465Y028499D01*
X016408Y028657D02*
X016120Y028657D01*
X016120Y028816D02*
X016249Y028816D01*
X023355Y028657D02*
X023771Y028657D01*
X023762Y028662D02*
X023803Y028639D01*
X023849Y028626D01*
X024057Y028626D01*
X024057Y029206D01*
X023692Y029206D01*
X023692Y028783D01*
X023704Y028737D01*
X023728Y028696D01*
X023762Y028662D01*
X023692Y028816D02*
X023442Y028816D01*
X023442Y028974D02*
X023692Y028974D01*
X023692Y029133D02*
X023442Y029133D01*
X023442Y029291D02*
X023692Y029291D01*
X023692Y029450D02*
X023442Y029450D01*
X023442Y029608D02*
X023692Y029608D01*
X023669Y029767D02*
X023728Y029767D01*
X023765Y029925D02*
X023669Y029925D01*
X024472Y029608D02*
X024722Y029608D01*
X024722Y029450D02*
X024472Y029450D01*
X024472Y029291D02*
X024722Y029291D01*
X024722Y029133D02*
X024472Y029133D01*
X024472Y028974D02*
X024722Y028974D01*
X024722Y028816D02*
X024472Y028816D01*
X024394Y028657D02*
X024809Y028657D01*
X024107Y028657D02*
X024057Y028657D01*
X024057Y028816D02*
X024107Y028816D01*
X024107Y028974D02*
X024057Y028974D01*
X024057Y029133D02*
X024107Y029133D01*
X033714Y020098D02*
X033730Y020098D01*
X024810Y011605D02*
X024810Y011605D01*
X030700Y009003D02*
X031013Y009003D01*
X030794Y008845D02*
X030758Y008845D01*
D29*
X030725Y008595D02*
X030500Y008820D01*
X030500Y011460D01*
X030900Y011860D01*
X030900Y012740D02*
X031860Y011780D01*
X031860Y009700D01*
X031780Y009620D01*
X031457Y009620D01*
X031433Y009595D01*
X031433Y008595D02*
X030725Y008595D01*
X032420Y008980D02*
X032420Y012100D01*
X032100Y012420D01*
X030900Y012740D02*
X030900Y014500D01*
X030500Y014900D01*
X030100Y014900D01*
X030340Y014420D02*
X029780Y014420D01*
X029700Y014500D01*
X029700Y015700D01*
X030740Y016740D01*
X030740Y017460D01*
X030500Y017700D01*
X030500Y017860D01*
X031220Y018020D02*
X031300Y018100D01*
X031780Y018100D01*
X033060Y019380D01*
X033140Y019380D01*
X033460Y019060D02*
X033620Y019220D01*
X033620Y019700D01*
X033460Y019860D01*
X033060Y020500D02*
X033060Y020900D01*
X033300Y021140D01*
X033300Y022260D01*
X033060Y022500D01*
X033060Y031780D01*
X033700Y032420D01*
X033700Y032980D01*
X033940Y033220D01*
X033940Y033860D01*
X034020Y033940D01*
X045940Y033940D01*
X046660Y034660D01*
X046980Y034660D01*
X048260Y033380D01*
X048260Y023300D01*
X048740Y022820D01*
X048900Y022820D01*
X049140Y022580D01*
X048820Y022260D01*
X048820Y021871D01*
X048820Y021872D01*
X048180Y021960D02*
X048020Y022120D01*
X048020Y033220D01*
X047060Y034180D01*
X046740Y034180D01*
X046260Y033700D01*
X034260Y033700D01*
X034180Y033620D01*
X034180Y033140D01*
X033940Y032900D01*
X033940Y032340D01*
X033380Y031780D01*
X033380Y022820D01*
X032820Y022340D02*
X032820Y031940D01*
X033380Y032500D01*
X033380Y033060D01*
X033700Y033380D01*
X033700Y034100D01*
X033780Y034180D01*
X045860Y034180D01*
X046740Y035060D01*
X047140Y035060D01*
X047220Y034980D01*
X047940Y034180D01*
X048420Y034180D02*
X048420Y034340D01*
X047460Y035300D01*
X046660Y035300D01*
X045860Y034500D01*
X033540Y034500D01*
X033380Y034340D01*
X033380Y033540D01*
X032980Y033140D01*
X032980Y032420D01*
X032580Y032020D01*
X032580Y022420D01*
X032500Y022340D01*
X032500Y021380D01*
X032100Y020900D02*
X032100Y022500D01*
X032340Y022740D01*
X032340Y032260D01*
X032500Y032420D01*
X032500Y032740D01*
X032660Y032900D01*
X032660Y033300D01*
X033140Y033780D01*
X033140Y034580D01*
X033380Y034820D01*
X045860Y034820D01*
X046180Y035140D01*
X046580Y035540D01*
X047860Y035540D01*
X048500Y034900D01*
X048500Y034580D01*
X048740Y034340D01*
X048740Y033671D01*
X048900Y033511D01*
X048980Y033591D01*
X048900Y033511D02*
X048820Y033591D01*
X048820Y033460D01*
X048960Y032549D02*
X049380Y032129D01*
X049380Y031700D01*
X049140Y030500D02*
X048820Y030180D01*
X048820Y029751D01*
X048960Y028549D02*
X048960Y028360D01*
X049460Y027860D01*
X049620Y026580D02*
X049140Y026580D01*
X048900Y026340D01*
X048900Y025831D01*
X048820Y025751D01*
X048960Y024629D02*
X048960Y024600D01*
X049620Y023940D01*
X050338Y024182D02*
X050338Y024629D01*
X050338Y024182D02*
X050580Y023940D01*
X049460Y023140D02*
X050257Y022343D01*
X050257Y021871D01*
X048920Y020869D02*
X048920Y020840D01*
X048340Y020260D01*
X048900Y019460D02*
X048900Y018968D01*
X048920Y018949D01*
X049060Y019089D01*
X048820Y017951D02*
X048740Y017872D01*
X048740Y017220D01*
X048900Y017060D01*
X049060Y017060D01*
X048740Y017220D02*
X048100Y016580D01*
X048100Y005460D01*
X047860Y005220D01*
X046020Y005220D01*
X045620Y005620D01*
X033860Y005620D01*
X033460Y006020D01*
X033460Y019060D01*
X033220Y018580D02*
X033220Y005940D01*
X033780Y005380D01*
X045460Y005380D01*
X045940Y004900D01*
X047300Y004900D01*
X047620Y004580D01*
X047940Y004580D01*
X048340Y004980D01*
X048340Y013312D01*
X048900Y013871D01*
X048980Y013791D01*
X048980Y013140D01*
X049000Y015189D02*
X048980Y015208D01*
X048980Y016100D01*
X048180Y021960D02*
X048020Y022040D01*
X048900Y010111D02*
X048820Y010032D01*
X049300Y008100D02*
X049009Y007809D01*
X049009Y007174D01*
X048931Y006024D02*
X049380Y005575D01*
X049380Y005140D01*
X049380Y004980D01*
X048500Y004100D01*
X047380Y004100D01*
X047060Y004420D01*
X045620Y004420D01*
X045140Y004900D01*
X033380Y004900D01*
X032740Y005540D01*
X032740Y015700D01*
X032420Y016020D01*
X032420Y016500D01*
X032900Y016420D02*
X032980Y016340D01*
X032980Y005700D01*
X033540Y005140D01*
X045300Y005140D01*
X045780Y004660D01*
X047140Y004660D01*
X047460Y004340D01*
X048180Y004340D01*
X048820Y004980D01*
X033220Y018580D02*
X032980Y018820D01*
X032020Y018900D02*
X031938Y018982D01*
X031577Y018982D01*
X030100Y020740D02*
X029940Y020900D01*
X029620Y020900D01*
X027620Y018900D01*
X026580Y018900D01*
X026820Y018420D02*
X027620Y018420D01*
X029540Y020340D01*
X028180Y021140D02*
X027860Y021140D01*
X027780Y021220D01*
X028180Y021140D02*
X029700Y022660D01*
X029700Y023460D01*
X030420Y024180D01*
X031620Y024180D01*
X031860Y023940D01*
X030340Y023220D02*
X030340Y022443D01*
X030370Y022413D01*
X028900Y022580D02*
X028740Y022420D01*
X028180Y022420D01*
X027300Y021540D01*
X026900Y021700D02*
X026740Y021700D01*
X026580Y021860D01*
X026900Y021700D02*
X028100Y022900D01*
X028500Y022900D01*
X027860Y023300D02*
X027460Y022900D01*
X026660Y022900D01*
X026100Y021700D02*
X025140Y022660D01*
X023540Y022660D01*
X023140Y022180D02*
X024900Y022180D01*
X025940Y021140D01*
X023744Y019297D02*
X023744Y018536D01*
X025460Y016820D01*
X025540Y016260D02*
X025300Y016020D01*
X024020Y016020D01*
X020340Y019700D01*
X020340Y021860D01*
X019864Y022336D01*
X017767Y022336D01*
X018247Y021936D02*
X018287Y021936D01*
X018447Y022096D01*
X019624Y022096D01*
X020100Y021620D01*
X020100Y019540D01*
X023860Y015780D01*
X025220Y015780D01*
X025460Y015540D01*
X025731Y014690D02*
X024710Y014690D01*
X023940Y015460D01*
X021300Y015460D01*
X021220Y015540D01*
X021220Y014740D02*
X021620Y014740D01*
X022100Y015220D01*
X023620Y015220D01*
X024660Y014180D01*
X025721Y014180D01*
X025731Y014190D01*
X027450Y014190D01*
X027860Y013780D01*
X027860Y014260D01*
X028100Y014020D01*
X030020Y014020D01*
X030340Y014420D02*
X030580Y014180D01*
X030580Y013300D01*
X030340Y013060D01*
X028260Y013060D01*
X027700Y012500D01*
X026500Y012500D01*
X027700Y012980D02*
X027700Y013060D01*
X028020Y013380D01*
X029300Y013380D01*
X029460Y013540D01*
X028260Y014820D02*
X028740Y015300D01*
X028740Y015380D01*
X028340Y015780D01*
X027620Y015780D01*
X027460Y015620D01*
X027460Y014820D01*
X027330Y014690D01*
X025731Y014690D01*
X027860Y014260D02*
X027860Y015380D01*
X024740Y016660D02*
X022957Y018443D01*
X022957Y019297D01*
X022980Y017460D02*
X023380Y017460D01*
X023460Y017380D01*
X022980Y017460D02*
X020980Y019460D01*
X020980Y021940D01*
X021060Y025220D02*
X020938Y025342D01*
X020392Y025342D01*
X020404Y027656D02*
X020500Y027751D01*
X020500Y028340D01*
X032820Y022340D02*
X032900Y022260D01*
X032900Y021860D01*
X021860Y016980D02*
X020100Y015220D01*
X018740Y015220D01*
X018420Y014900D01*
X016900Y014900D01*
X017620Y013460D02*
X018420Y014260D01*
X020100Y014260D01*
X017620Y013460D02*
X017620Y010660D01*
X018340Y009940D01*
D30*
X028580Y027060D02*
X028100Y027540D01*
X028100Y028420D01*
X028230Y028550D01*
X028580Y027060D02*
X030980Y027060D01*
M02*
