G75*
%MOIN*%
%OFA0B0*%
%FSLAX24Y24*%
%IPPOS*%
%LPD*%
%AMOC8*
5,1,8,0,0,1.08239X$1,22.5*
%
%ADD10R,0.0710X0.0789*%
%ADD11R,0.0592X0.0710*%
%ADD12R,0.0710X0.0592*%
%ADD13C,0.0640*%
%ADD14R,0.0671X0.0671*%
%ADD15R,0.0592X0.0671*%
%ADD16R,0.0671X0.0592*%
%ADD17R,0.0690X0.0592*%
%ADD18R,0.0671X0.0198*%
%ADD19R,0.1080X0.2620*%
%ADD20R,0.0789X0.0710*%
%ADD21R,0.0710X0.0867*%
%ADD22R,0.0828X0.0631*%
%ADD23R,0.1261X0.0710*%
%ADD24R,0.0710X0.1261*%
%ADD25R,0.1064X0.0867*%
%ADD26R,0.1379X0.0867*%
%ADD27R,0.1300X0.0277*%
%ADD28C,0.0434*%
%ADD29R,0.0190X0.0660*%
%ADD30C,0.0595*%
%ADD31C,0.1182*%
%ADD32C,0.0680*%
%ADD33R,0.0474X0.0631*%
%ADD34OC8,0.0600*%
%ADD35R,0.0198X0.0316*%
%ADD36R,0.0316X0.0198*%
%ADD37R,0.0434X0.0434*%
%ADD38R,0.0671X0.0671*%
%ADD39C,0.0476*%
D10*
X016736Y017396D03*
X017838Y017396D03*
D11*
X017382Y010734D03*
X016634Y010734D03*
X028518Y014074D03*
X029266Y014074D03*
X031068Y011122D03*
X031816Y011122D03*
X035166Y008500D03*
X035914Y008500D03*
X033194Y008180D03*
X032446Y008180D03*
X049277Y007169D03*
X050026Y007169D03*
X050043Y005991D03*
X049294Y005991D03*
X049357Y010089D03*
X050106Y010089D03*
X050106Y011289D03*
X049357Y011289D03*
X049197Y013849D03*
X049946Y013849D03*
X050026Y015129D03*
X049277Y015129D03*
X049277Y017929D03*
X050026Y017929D03*
X050026Y018969D03*
X049277Y018969D03*
X049086Y020100D03*
X049834Y020100D03*
X050026Y020889D03*
X049277Y020889D03*
X049277Y021849D03*
X050026Y021849D03*
X048954Y023620D03*
X048206Y023620D03*
X049277Y024609D03*
X050026Y024609D03*
X050026Y025729D03*
X049277Y025729D03*
X049357Y028609D03*
X050106Y028609D03*
X049866Y029729D03*
X049117Y029729D03*
X049117Y032529D03*
X049866Y032529D03*
X050026Y033489D03*
X049277Y033489D03*
X035754Y031220D03*
X035006Y031220D03*
X033034Y030020D03*
X032286Y030020D03*
X020692Y026862D03*
X019944Y026862D03*
X019924Y026102D03*
X020672Y026102D03*
X020452Y024598D03*
X019704Y024598D03*
D12*
X020333Y015660D03*
X020333Y014912D03*
X020102Y012216D03*
X020102Y011468D03*
X030134Y012854D03*
X030134Y013602D03*
X034340Y008634D03*
X034340Y007886D03*
X034340Y031246D03*
X034340Y031994D03*
D13*
X017778Y030679D02*
X017778Y030119D01*
X016778Y030119D02*
X016778Y030679D01*
X031153Y009595D02*
X031713Y009595D01*
X031713Y008595D02*
X031153Y008595D01*
D14*
X017722Y008425D03*
X016591Y008415D03*
X016591Y009793D03*
X017722Y009803D03*
D15*
X029045Y011460D03*
X029715Y011460D03*
X031507Y013118D03*
X032176Y013118D03*
X032187Y015498D03*
X032856Y015498D03*
D16*
X030366Y011766D03*
X030366Y011097D03*
X027114Y011794D03*
X027114Y012463D03*
X020098Y012924D03*
X020098Y013593D03*
D17*
X016178Y011691D03*
X016178Y013463D03*
X016195Y014508D03*
X016195Y016280D03*
X019324Y016280D03*
X019324Y014508D03*
X019308Y013463D03*
X019308Y011691D03*
D18*
X020567Y018688D03*
X020567Y018944D03*
X020567Y019200D03*
X020567Y019456D03*
X020567Y019712D03*
X020567Y019968D03*
X020567Y020224D03*
X020567Y020479D03*
X020567Y020735D03*
X020567Y020991D03*
X020567Y021247D03*
X020567Y021503D03*
X018008Y021503D03*
X018008Y021247D03*
X018008Y020991D03*
X018008Y020735D03*
X018008Y020479D03*
X018008Y020224D03*
X018008Y019968D03*
X018008Y019712D03*
X018008Y019456D03*
X018008Y019200D03*
X018008Y018944D03*
X018008Y018688D03*
D19*
X019287Y020096D03*
D20*
X016987Y020264D03*
X017007Y019387D03*
X017007Y018284D03*
X016987Y021367D03*
D21*
X019536Y017296D03*
X020638Y017296D03*
D22*
X031224Y014716D03*
X031224Y013771D03*
X032956Y013771D03*
X032956Y014716D03*
D23*
X018553Y023096D03*
X016821Y023096D03*
D24*
X030846Y029782D03*
X030846Y031514D03*
D25*
X016329Y028081D03*
X016329Y024577D03*
D26*
X018652Y024577D03*
X018652Y028081D03*
D27*
X018691Y026959D03*
X018691Y026644D03*
X018691Y026329D03*
X018691Y026014D03*
X018691Y025699D03*
D28*
X017510Y025463D03*
X017510Y027195D03*
D29*
G36*
X027664Y019217D02*
X027530Y019083D01*
X027064Y019549D01*
X027198Y019683D01*
X027664Y019217D01*
G37*
G36*
X027805Y019358D02*
X027671Y019224D01*
X027205Y019690D01*
X027339Y019824D01*
X027805Y019358D01*
G37*
G36*
X027946Y019500D02*
X027812Y019366D01*
X027346Y019832D01*
X027480Y019966D01*
X027946Y019500D01*
G37*
G36*
X028081Y019634D02*
X027947Y019500D01*
X027481Y019966D01*
X027615Y020100D01*
X028081Y019634D01*
G37*
G36*
X028222Y019775D02*
X028088Y019641D01*
X027622Y020107D01*
X027756Y020241D01*
X028222Y019775D01*
G37*
G36*
X028364Y019917D02*
X028230Y019783D01*
X027764Y020249D01*
X027898Y020383D01*
X028364Y019917D01*
G37*
G36*
X028498Y020051D02*
X028364Y019917D01*
X027898Y020383D01*
X028032Y020517D01*
X028498Y020051D01*
G37*
G36*
X028639Y020193D02*
X028505Y020059D01*
X028039Y020525D01*
X028173Y020659D01*
X028639Y020193D01*
G37*
G36*
X028781Y020334D02*
X028647Y020200D01*
X028181Y020666D01*
X028315Y020800D01*
X028781Y020334D01*
G37*
G36*
X028922Y020475D02*
X028788Y020341D01*
X028322Y020807D01*
X028456Y020941D01*
X028922Y020475D01*
G37*
G36*
X029057Y020610D02*
X028923Y020476D01*
X028457Y020942D01*
X028591Y021076D01*
X029057Y020610D01*
G37*
G36*
X029198Y020751D02*
X029064Y020617D01*
X028598Y021083D01*
X028732Y021217D01*
X029198Y020751D01*
G37*
G36*
X029339Y020893D02*
X029205Y020759D01*
X028739Y021225D01*
X028873Y021359D01*
X029339Y020893D01*
G37*
G36*
X029474Y021027D02*
X029340Y020893D01*
X028874Y021359D01*
X029008Y021493D01*
X029474Y021027D01*
G37*
G36*
X029615Y021168D02*
X029481Y021034D01*
X029015Y021500D01*
X029149Y021634D01*
X029615Y021168D01*
G37*
G36*
X029757Y021310D02*
X029623Y021176D01*
X029157Y021642D01*
X029291Y021776D01*
X029757Y021310D01*
G37*
G36*
X030380Y021176D02*
X030246Y021310D01*
X030712Y021776D01*
X030846Y021642D01*
X030380Y021176D01*
G37*
G36*
X030521Y021034D02*
X030387Y021168D01*
X030853Y021634D01*
X030987Y021500D01*
X030521Y021034D01*
G37*
G36*
X030662Y020893D02*
X030528Y021027D01*
X030994Y021493D01*
X031128Y021359D01*
X030662Y020893D01*
G37*
G36*
X030797Y020759D02*
X030663Y020893D01*
X031129Y021359D01*
X031263Y021225D01*
X030797Y020759D01*
G37*
G36*
X030938Y020617D02*
X030804Y020751D01*
X031270Y021217D01*
X031404Y021083D01*
X030938Y020617D01*
G37*
G36*
X031080Y020476D02*
X030946Y020610D01*
X031412Y021076D01*
X031546Y020942D01*
X031080Y020476D01*
G37*
G36*
X031214Y020341D02*
X031080Y020475D01*
X031546Y020941D01*
X031680Y020807D01*
X031214Y020341D01*
G37*
G36*
X031355Y020200D02*
X031221Y020334D01*
X031687Y020800D01*
X031821Y020666D01*
X031355Y020200D01*
G37*
G36*
X031497Y020059D02*
X031363Y020193D01*
X031829Y020659D01*
X031963Y020525D01*
X031497Y020059D01*
G37*
G36*
X031638Y019917D02*
X031504Y020051D01*
X031970Y020517D01*
X032104Y020383D01*
X031638Y019917D01*
G37*
G36*
X031773Y019783D02*
X031639Y019917D01*
X032105Y020383D01*
X032239Y020249D01*
X031773Y019783D01*
G37*
G36*
X031914Y019641D02*
X031780Y019775D01*
X032246Y020241D01*
X032380Y020107D01*
X031914Y019641D01*
G37*
G36*
X032055Y019500D02*
X031921Y019634D01*
X032387Y020100D01*
X032521Y019966D01*
X032055Y019500D01*
G37*
G36*
X032190Y019366D02*
X032056Y019500D01*
X032522Y019966D01*
X032656Y019832D01*
X032190Y019366D01*
G37*
G36*
X032331Y019224D02*
X032197Y019358D01*
X032663Y019824D01*
X032797Y019690D01*
X032331Y019224D01*
G37*
G36*
X032473Y019083D02*
X032339Y019217D01*
X032805Y019683D01*
X032939Y019549D01*
X032473Y019083D01*
G37*
G36*
X032939Y018128D02*
X032805Y017994D01*
X032339Y018460D01*
X032473Y018594D01*
X032939Y018128D01*
G37*
G36*
X032797Y017986D02*
X032663Y017852D01*
X032197Y018318D01*
X032331Y018452D01*
X032797Y017986D01*
G37*
G36*
X032656Y017845D02*
X032522Y017711D01*
X032056Y018177D01*
X032190Y018311D01*
X032656Y017845D01*
G37*
G36*
X032521Y017711D02*
X032387Y017577D01*
X031921Y018043D01*
X032055Y018177D01*
X032521Y017711D01*
G37*
G36*
X032380Y017569D02*
X032246Y017435D01*
X031780Y017901D01*
X031914Y018035D01*
X032380Y017569D01*
G37*
G36*
X032239Y017428D02*
X032105Y017294D01*
X031639Y017760D01*
X031773Y017894D01*
X032239Y017428D01*
G37*
G36*
X032104Y017293D02*
X031970Y017159D01*
X031504Y017625D01*
X031638Y017759D01*
X032104Y017293D01*
G37*
G36*
X031963Y017152D02*
X031829Y017018D01*
X031363Y017484D01*
X031497Y017618D01*
X031963Y017152D01*
G37*
G36*
X031821Y017011D02*
X031687Y016877D01*
X031221Y017343D01*
X031355Y017477D01*
X031821Y017011D01*
G37*
G36*
X031680Y016869D02*
X031546Y016735D01*
X031080Y017201D01*
X031214Y017335D01*
X031680Y016869D01*
G37*
G36*
X031546Y016735D02*
X031412Y016601D01*
X030946Y017067D01*
X031080Y017201D01*
X031546Y016735D01*
G37*
G36*
X031404Y016593D02*
X031270Y016459D01*
X030804Y016925D01*
X030938Y017059D01*
X031404Y016593D01*
G37*
G36*
X031263Y016452D02*
X031129Y016318D01*
X030663Y016784D01*
X030797Y016918D01*
X031263Y016452D01*
G37*
G36*
X031128Y016318D02*
X030994Y016184D01*
X030528Y016650D01*
X030662Y016784D01*
X031128Y016318D01*
G37*
G36*
X030987Y016176D02*
X030853Y016042D01*
X030387Y016508D01*
X030521Y016642D01*
X030987Y016176D01*
G37*
G36*
X030846Y016035D02*
X030712Y015901D01*
X030246Y016367D01*
X030380Y016501D01*
X030846Y016035D01*
G37*
G36*
X029291Y015901D02*
X029157Y016035D01*
X029623Y016501D01*
X029757Y016367D01*
X029291Y015901D01*
G37*
G36*
X029149Y016042D02*
X029015Y016176D01*
X029481Y016642D01*
X029615Y016508D01*
X029149Y016042D01*
G37*
G36*
X029008Y016184D02*
X028874Y016318D01*
X029340Y016784D01*
X029474Y016650D01*
X029008Y016184D01*
G37*
G36*
X028873Y016318D02*
X028739Y016452D01*
X029205Y016918D01*
X029339Y016784D01*
X028873Y016318D01*
G37*
G36*
X028732Y016459D02*
X028598Y016593D01*
X029064Y017059D01*
X029198Y016925D01*
X028732Y016459D01*
G37*
G36*
X028591Y016601D02*
X028457Y016735D01*
X028923Y017201D01*
X029057Y017067D01*
X028591Y016601D01*
G37*
G36*
X028456Y016735D02*
X028322Y016869D01*
X028788Y017335D01*
X028922Y017201D01*
X028456Y016735D01*
G37*
G36*
X028315Y016877D02*
X028181Y017011D01*
X028647Y017477D01*
X028781Y017343D01*
X028315Y016877D01*
G37*
G36*
X028173Y017018D02*
X028039Y017152D01*
X028505Y017618D01*
X028639Y017484D01*
X028173Y017018D01*
G37*
G36*
X028032Y017159D02*
X027898Y017293D01*
X028364Y017759D01*
X028498Y017625D01*
X028032Y017159D01*
G37*
G36*
X027898Y017294D02*
X027764Y017428D01*
X028230Y017894D01*
X028364Y017760D01*
X027898Y017294D01*
G37*
G36*
X027756Y017435D02*
X027622Y017569D01*
X028088Y018035D01*
X028222Y017901D01*
X027756Y017435D01*
G37*
G36*
X027615Y017577D02*
X027481Y017711D01*
X027947Y018177D01*
X028081Y018043D01*
X027615Y017577D01*
G37*
G36*
X027480Y017711D02*
X027346Y017845D01*
X027812Y018311D01*
X027946Y018177D01*
X027480Y017711D01*
G37*
G36*
X027339Y017852D02*
X027205Y017986D01*
X027671Y018452D01*
X027805Y018318D01*
X027339Y017852D01*
G37*
G36*
X027198Y017994D02*
X027064Y018128D01*
X027530Y018594D01*
X027664Y018460D01*
X027198Y017994D01*
G37*
D30*
X026106Y019297D03*
X025319Y019297D03*
X024531Y019297D03*
X023744Y019297D03*
X022957Y019297D03*
X022169Y019297D03*
X022169Y020319D03*
X022957Y020319D03*
X023744Y020319D03*
X024531Y020319D03*
X025319Y020319D03*
X026106Y020319D03*
D31*
X027681Y030358D03*
X020594Y030358D03*
X020594Y009257D03*
X027681Y009257D03*
D32*
X028680Y027800D02*
X028680Y028400D01*
X029680Y028400D02*
X029680Y027800D01*
X030680Y027800D02*
X030680Y028400D01*
X031680Y028400D02*
X031680Y027800D01*
D33*
X032286Y030707D03*
X033034Y030707D03*
X032660Y031573D03*
X032446Y007413D03*
X033194Y007413D03*
X032820Y006547D03*
D34*
X048100Y017920D03*
X048100Y018920D03*
X048180Y020960D03*
X048180Y021960D03*
D35*
X029134Y013092D03*
X028937Y013092D03*
X028740Y013092D03*
X028543Y013092D03*
X028346Y013092D03*
X028346Y012068D03*
X028543Y012068D03*
X028740Y012068D03*
X028937Y012068D03*
X029134Y012068D03*
D36*
X029252Y012383D03*
X029252Y012580D03*
X029252Y012777D03*
X028228Y012777D03*
X028228Y012580D03*
X028228Y012383D03*
D37*
G36*
X035325Y006347D02*
X034907Y006235D01*
X034795Y006653D01*
X035213Y006765D01*
X035325Y006347D01*
G37*
G36*
X037405Y007547D02*
X036987Y007435D01*
X036875Y007853D01*
X037293Y007965D01*
X037405Y007547D01*
G37*
G36*
X036987Y031645D02*
X037405Y031533D01*
X037293Y031115D01*
X036875Y031227D01*
X036987Y031645D01*
G37*
G36*
X034907Y032845D02*
X035325Y032733D01*
X035213Y032315D01*
X034795Y032427D01*
X034907Y032845D01*
G37*
D38*
G36*
X034712Y032653D02*
X034066Y032827D01*
X034240Y033473D01*
X034886Y033299D01*
X034712Y032653D01*
G37*
G36*
X036043Y032296D02*
X035397Y032470D01*
X035571Y033116D01*
X036217Y032942D01*
X036043Y032296D01*
G37*
G36*
X036792Y031453D02*
X036146Y031627D01*
X036320Y032273D01*
X036966Y032099D01*
X036792Y031453D01*
G37*
G36*
X038123Y031096D02*
X037477Y031270D01*
X037651Y031916D01*
X038297Y031742D01*
X038123Y031096D01*
G37*
G36*
X037477Y007810D02*
X038123Y007984D01*
X038297Y007338D01*
X037651Y007164D01*
X037477Y007810D01*
G37*
G36*
X036146Y007453D02*
X036792Y007627D01*
X036966Y006981D01*
X036320Y006807D01*
X036146Y007453D01*
G37*
G36*
X035397Y006610D02*
X036043Y006784D01*
X036217Y006138D01*
X035571Y005964D01*
X035397Y006610D01*
G37*
G36*
X034066Y006253D02*
X034712Y006427D01*
X034886Y005781D01*
X034240Y005607D01*
X034066Y006253D01*
G37*
D39*
X033780Y007060D03*
X035060Y007540D03*
X032420Y008980D03*
X029860Y008180D03*
X029860Y010100D03*
X030900Y011860D03*
X032100Y012420D03*
X030020Y014020D03*
X029460Y013540D03*
X029220Y014740D03*
X030100Y014900D03*
X030740Y015460D03*
X032420Y016500D03*
X032900Y016420D03*
X031220Y018020D03*
X030500Y017860D03*
X030180Y017300D03*
X028900Y017780D03*
X028420Y018420D03*
X028740Y018900D03*
X029540Y020340D03*
X030100Y020740D03*
X031140Y019700D03*
X032020Y018900D03*
X032980Y018820D03*
X033140Y019380D03*
X033460Y019860D03*
X033060Y020500D03*
X032100Y020900D03*
X032500Y021380D03*
X032900Y021860D03*
X033380Y022820D03*
X031860Y023140D03*
X031060Y023220D03*
X030340Y023220D03*
X028900Y022580D03*
X028500Y022900D03*
X027860Y023300D03*
X026660Y022900D03*
X026580Y021860D03*
X026100Y021700D03*
X025940Y021140D03*
X027300Y021540D03*
X027780Y021220D03*
X026660Y019700D03*
X026580Y018900D03*
X026820Y018420D03*
X025460Y016820D03*
X025540Y016260D03*
X024740Y016660D03*
X023860Y016820D03*
X023460Y017380D03*
X021860Y016980D03*
X020500Y016500D03*
X020100Y014260D03*
X020660Y013540D03*
X022260Y014180D03*
X020980Y012260D03*
X022020Y009860D03*
X018340Y009940D03*
X017140Y007940D03*
X018340Y012740D03*
X016900Y014900D03*
X017460Y015860D03*
X019287Y019136D03*
X019287Y019616D03*
X019287Y020096D03*
X019287Y020576D03*
X019287Y021056D03*
X018247Y021936D03*
X017767Y022336D03*
X017087Y022256D03*
X016100Y023700D03*
X018820Y025300D03*
X019647Y023456D03*
X020287Y023456D03*
X020287Y022816D03*
X019647Y022816D03*
X020980Y021940D03*
X022020Y022500D03*
X023140Y022180D03*
X023540Y022660D03*
X024100Y023220D03*
X021060Y025220D03*
X020500Y028340D03*
X019940Y028740D03*
X019220Y029860D03*
X018580Y029860D03*
X018580Y030980D03*
X019220Y030980D03*
X022180Y030660D03*
X022180Y031300D03*
X026100Y031300D03*
X026820Y031300D03*
X026820Y030580D03*
X026100Y030580D03*
X027380Y028420D03*
X029860Y029220D03*
X031780Y029220D03*
X030980Y027060D03*
X031220Y025060D03*
X031860Y023940D03*
X029060Y024260D03*
X035380Y031860D03*
X037300Y032820D03*
X047940Y034180D03*
X048420Y034180D03*
X049140Y034180D03*
X049540Y034500D03*
X050260Y034260D03*
X048820Y033460D03*
X049380Y031700D03*
X049220Y031140D03*
X049140Y030500D03*
X050420Y031460D03*
X049460Y027860D03*
X048980Y027460D03*
X049620Y026580D03*
X050580Y027540D03*
X050580Y023940D03*
X050500Y023140D03*
X049460Y023140D03*
X049140Y022580D03*
X049620Y023940D03*
X051300Y022100D03*
X050660Y020100D03*
X048900Y019460D03*
X048340Y020260D03*
X047940Y017140D03*
X049060Y017060D03*
X048980Y016100D03*
X050500Y016340D03*
X048980Y013140D03*
X048900Y012020D03*
X050580Y012260D03*
X049540Y008820D03*
X048980Y008980D03*
X049300Y008100D03*
X050420Y008580D03*
X047140Y005620D03*
X048820Y004980D03*
X049380Y005140D03*
X038740Y006180D03*
X027860Y013780D03*
X027700Y012980D03*
X026900Y013220D03*
X026500Y012500D03*
X027620Y011860D03*
X026180Y009940D03*
X028260Y014820D03*
X027860Y015380D03*
X027060Y015540D03*
X025460Y015540D03*
M02*
