%
M48
M72
T01C0.0236
T02C0.0315
T03C0.0320
T04C0.0354
T05C0.0360
T06C0.0400
T07C0.1102
%
T01
X17140Y7940
X18340Y9940
X20980Y12260
X20660Y13540
X20100Y14260
X22260Y14180
X20500Y16500
X21860Y16980
X23460Y17380
X23860Y16820
X24740Y16660
X25460Y16820
X25540Y16260
X25460Y15540
X27060Y15540
X27860Y15380
X28260Y14820
X29220Y14740
X30100Y14900
X30740Y15460
X30020Y14020
X29460Y13540
X27860Y13780
X27700Y12980
X26900Y13220
X26500Y12500
X27620Y11860
X26180Y9940
X29860Y10100
X30900Y11860
X32100Y12420
X32420Y8980
X33780Y7060
X35060Y7540
X38740Y6180
X47140Y5620
X48820Y4980
X49380Y5140
X49300Y8100
X49540Y8820
X48980Y8980
X50420Y8580
X50580Y12260
X48980Y13140
X48900Y12020
X48980Y16100
X49060Y17060
X47940Y17140
X50500Y16340
X48900Y19460
X48340Y20260
X50660Y20100
X51300Y22100
X50500Y23140
X50580Y23940
X49620Y23940
X49460Y23140
X49140Y22580
X49620Y26580
X48980Y27460
X49460Y27860
X50580Y27540
X49140Y30500
X49220Y31140
X49380Y31700
X50420Y31460
X48820Y33460
X49140Y34180
X49540Y34500
X50260Y34260
X48420Y34180
X47940Y34180
X37300Y32820
X35380Y31860
X31780Y29220
X29860Y29220
X30980Y27060
X31220Y25060
X31860Y23940
X31860Y23140
X31060Y23220
X30340Y23220
X28900Y22580
X28500Y22900
X27860Y23300
X26660Y22900
X26580Y21860
X26100Y21700
X25940Y21140
X27300Y21540
X27780Y21220
X26660Y19700
X26580Y18900
X26820Y18420
X28420Y18420
X28740Y18900
X28900Y17780
X30180Y17300
X30500Y17860
X31220Y18020
X32020Y18900
X32980Y18820
X33140Y19380
X33460Y19860
X33060Y20500
X32100Y20900
X32500Y21380
X32900Y21860
X33380Y22820
X31140Y19700
X30100Y20740
X29540Y20340
X29060Y24260
X24100Y23220
X23540Y22660
X23140Y22180
X22020Y22500
X20980Y21940
X20287Y22816
X19647Y22816
X19647Y23456
X20287Y23456
X21060Y25220
X18820Y25300
X16100Y23700
X17087Y22256
X17767Y22336
X18247Y21936
X19287Y21056
X19287Y20576
X19287Y20096
X19287Y19616
X19287Y19136
X17460Y15860
X16900Y14900
X18340Y12740
X22020Y9860
X29860Y8180
X32900Y16420
X32420Y16500
X20500Y28340
X19940Y28740
X19220Y29860
X18580Y29860
X18580Y30980
X19220Y30980
X22180Y30660
X22180Y31300
X26100Y31300
X26820Y31300
X26820Y30580
X26100Y30580
X27380Y28420
T02
X26106Y20319
X25319Y20319
X24531Y20319
X23744Y20319
X22957Y20319
X22169Y20319
X22169Y19297
X22957Y19297
X23744Y19297
X24531Y19297
X25319Y19297
X26106Y19297
T03
X48100Y18920
X48100Y17920
X48180Y20960
X48180Y21960
T04
X17510Y25463
X17510Y27195
T05
X17778Y30399
X16778Y30399
X31433Y9595
X31433Y8595
T06
X31680Y28100
X30680Y28100
X29680Y28100
X28680Y28100
T07
X27681Y30358
X20594Y30358
X20594Y9257
X27681Y9257
M30
