<?xml version="1.0" standalone="no"?>
<!DOCTYPE svg PUBLIC "-//W3C//DTD SVG 20010904//EN"
 "http://www.w3.org/TR/2001/REC-SVG-20010904/DTD/svg10.dtd">
<svg version="1.0" xmlns="http://www.w3.org/2000/svg"
 width="2893.000000pt" height="2783.000000pt" viewBox="0 0 2893.000000 2783.000000"
 preserveAspectRatio="xMidYMid meet">
<metadata>
Created by potrace 1.14, written by Peter Selinger 2001-2017
</metadata>
<g transform="translate(0.000000,2783.000000) scale(0.100000,-0.100000)"
fill="#000000" stroke="none">
<path d="M13409 23543 c-11 -30 -654 -1905 -721 -2105 l-40 -118 -4486 -1
-4487 0 -407 -432 -407 -432 0 -6710 0 -6710 390 -337 390 -338 354 0 355 0 2
-1103 3 -1102 1319 -3 c966 -1 1322 1 1332 9 12 10 14 196 14 1105 l0 1094
2797 -2 2796 -3 401 -1095 c378 -1031 403 -1095 426 -1098 14 -1 939 126 2055
283 l2030 285 1695 0 1695 0 290 -290 291 -290 1005 0 1006 0 20 22 c11 13
223 310 472 662 l451 638 0 8398 0 8398 -463 649 -463 648 -948 3 -948 2 -360
-285 -359 -285 -1656 0 -1657 0 -2064 285 c-1135 157 -2075 285 -2088 285 -17
0 -28 -8 -35 -27z m8589 -4987 c1 -2527 -1 -3432 -9 -3442 -9 -12 -102 -14
-505 -14 l-494 0 0 -1380 0 -1380 503 -2 502 -3 3 -3219 c1 -2374 -1 -3222 -9
-3232 -10 -12 -398 -14 -2391 -12 l-2380 3 -93 250 c-103 280 -248 670 -418
1125 l-114 305 -1344 5 -1344 5 -3 6398 -2 6397 1344 0 1345 0 19 53 c40 106
584 1513 597 1545 l14 32 2388 -2 2388 -3 3 -3429z m-15996 1911 c71 -32 133
-94 167 -166 21 -46 26 -70 26 -136 0 -66 -5 -90 -26 -136 -34 -72 -96 -134
-168 -168 -80 -37 -192 -37 -272 0 -149 70 -229 239 -185 391 58 199 273 300
458 215z m4250 0 c71 -32 133 -94 167 -166 21 -46 26 -70 26 -136 0 -97 -29
-169 -95 -235 -66 -66 -138 -95 -235 -95 -66 0 -90 5 -136 26 -149 70 -229
239 -185 391 58 199 273 300 458 215z m-4250 -12660 c71 -32 133 -94 167 -166
21 -46 26 -70 26 -136 0 -97 -29 -169 -95 -235 -66 -66 -138 -95 -235 -95 -66
0 -90 5 -136 26 -149 70 -229 239 -185 391 58 199 273 300 458 215z m4250 0
c71 -32 133 -94 167 -166 37 -80 37 -192 0 -272 -34 -72 -96 -134 -168 -168
-46 -21 -70 -26 -136 -26 -66 0 -90 5 -136 26 -149 70 -229 239 -185 391 58
199 273 300 458 215z"/>
</g>
</svg>
