M48
;GenerationSoftware,Autodesk,EAGLE,9.5.2*%
;CreationDate,2021-03-13T12:31:37Z*%
FMAT,2
ICI,OFF
METRIC,TZ,000.000
T10C0.350
T9C0.450
T8C0.600
T7C0.610
T6C0.800
T5C0.813
T4C0.900
T3C0.914
T2C1.016
T1C2.800
%
G90
M71
T1
X13448Y69541
X31448Y69541
X31448Y15944
X13448Y15944
T2
X16612Y8738
X14072Y8738
X11532Y8738
X8992Y8738
X76061Y38862
X76061Y41402
X76061Y43942
X76061Y46482
X45605Y69805
X43065Y69805
X40525Y69805
X37985Y69805
T3
X40195Y15475
X42735Y15475
X3754Y69644
X6294Y69644
T4
X5614Y61506
X5614Y57106
T5
X46810Y63634
X48993Y22594
X49197Y62766
X79489Y40691
X79489Y38151
X79515Y48209
X79515Y45669
X54089Y57750
X51703Y58618
X54293Y27001
X51906Y26132
X46607Y21726
T6
X17448Y41444
X19448Y41444
X21448Y41444
X23448Y41444
X25448Y41444
X27448Y41444
X27448Y44041
X25448Y44041
X23448Y44041
X21448Y44041
X19448Y44041
X17448Y44041
T7
X33528Y46330
X47854Y52426
X48158Y58826
X48768Y46634
X47549Y26822
X52426Y36271
X43891Y35662
X34747Y32614
X37186Y44501
X40843Y27737
X40843Y24384
X37795Y29261
X25298Y33833
X39929Y38710
X30175Y36576
X40538Y40234
X49378Y52730
X51816Y53035
X39929Y65227
X34138Y49073
X41758Y64922
X35357Y49378
X46330Y40234
X28956Y29566
X33223Y36271
X45720Y54254
X43891Y59741
X43891Y60960
X43891Y58522
X45415Y39319
X45720Y41758
X45720Y46330
X34747Y36271
X13716Y21641
X36576Y29261
X49682Y42062
X53950Y42977
X49073Y43891
X43282Y49378
X38405Y59741
X38405Y58522
X34747Y69494
X38405Y60960
X43891Y56083
X43891Y43891
X53645Y30785
X44196Y28651
X37186Y42977
X40843Y31394
X31699Y64922
X50902Y62179
X53035Y37795
X39929Y29261
T8
X10127Y45912
X31598Y21946
X10127Y41035
X10127Y42254
X10127Y44693
X2032Y52629
X10127Y43474
X11042Y50382
X4539Y48960
X12667Y50382
X8941Y56693
X27432Y69494
X17069Y49581
X28854Y42469
X35052Y31090
X30886Y26010
X36474Y26518
X8331Y71120
X8331Y68275
X11042Y52008
X12667Y52008
X9957Y71120
X9957Y68275
X5486Y32715
X4674Y12598
X20422Y72542
X21641Y72542
X35763Y27737
X16764Y69494
X14191Y50382
X16459Y17780
X28956Y53340
X28956Y55169
X28956Y56693
X82766Y50902
X11989Y28651
X7722Y17678
X28956Y58217
X28956Y59741
X19304Y52324
X25400Y52324
X23876Y52324
X20828Y52324
X14427Y48158
X20726Y36576
X22860Y72542
X28956Y61265
X7486Y48147
X15545Y60960
X6266Y49163
X28956Y62789
X84798Y79451
X15545Y62484
X19914Y48768
X27026Y46126
X20930Y49987
X27432Y47549
X82563Y6486
X81547Y15240
X81547Y25806
X81750Y35763
X81954Y49784
X29464Y26010
X83173Y59944
X81954Y69901
X7722Y24790
X82970Y14834
X81547Y62179
X27635Y17678
X27534Y23571
X28956Y64313
X15545Y64008
X17882Y33325
X13208Y64414
X14630Y56490
X11786Y65430
X24587Y36373
X82360Y13005
X81344Y22962
X81547Y33325
X81344Y41859
X79922Y43891
X81039Y54762
X82766Y63195
X82563Y72949
X23978Y34747
X81954Y79248
X82157Y71526
X8534Y38202
X21742Y35154
X21742Y14326
X21844Y17678
X85205Y14224
X85205Y72339
X85306Y62382
X85408Y33934
X85306Y23571
X85306Y53543
X82766Y80264
X13208Y34341
X22352Y52324
X82766Y34544
X19304Y23774
X17678Y28854
X34138Y17780
X17678Y11176
X16662Y11176
X15646Y11176
X7518Y11176
X4064Y30277
X16662Y35560
X14630Y11176
X13614Y11176
X12598Y11176
X11582Y11176
X10566Y11176
X9550Y11176
X8534Y11176
T9
X55626Y48920
X66751Y43282
X55169Y52426
X59741Y42062
X56998Y52121
X62179Y43282
X56083Y50902
X65532Y42367
X55474Y49987
X60350Y42977
X55778Y42977
X32614Y41402
X28346Y39878
X28651Y31953
X64922Y48463
X71933Y47854
X41148Y47803
X85344Y43282
X74066Y48463
X81382Y42977
X50292Y45415
X61570Y35357
X72238Y40234
X60350Y50902
X64008Y47244
X72542Y45720
X81077Y77419
X78638Y50597
X59131Y52680
X32918Y53899
X56693Y42367
X84203Y51511
X67666Y41402
X64313Y46025
X77419Y54864
X78029Y56083
X71933Y41707
X79553Y35001
X59741Y36576
X64313Y34442
X68580Y36881
X56388Y54864
T10
X83376Y39421
X42062Y22352
X37998Y18491
X16662Y4674
X15443Y5893
X15443Y3251
X9550Y3658
M30