G04 EAGLE Gerber RS-274X export*
G75*
%MOMM*%
%FSLAX34Y34*%
%LPD*%
%IN*%
%IPPOS*%
%AMOC8*
5,1,8,0,0,1.08239X$1,22.5*%
G01*
%ADD10C,0.254000*%


D10*
X0Y140000D02*
X40000Y110000D01*
X70000Y110000D01*
X70000Y10000D01*
X180000Y10000D01*
X180000Y110000D01*
X440000Y110000D01*
X480000Y140000D01*
X480000Y170000D01*
X630000Y330000D01*
X750000Y330000D01*
X780000Y280000D01*
X780000Y40000D01*
X850000Y40000D01*
X880000Y70000D01*
X880000Y790000D01*
X850000Y820000D01*
X780000Y820000D01*
X780000Y580000D01*
X750000Y530000D01*
X630000Y530000D01*
X480000Y680000D01*
X480000Y710000D01*
X440000Y740000D01*
X40000Y740000D01*
X0Y700000D01*
X0Y140000D01*
X60644Y614761D02*
X60567Y614176D01*
X60414Y613606D01*
X60189Y613061D01*
X59894Y612551D01*
X59535Y612083D01*
X59117Y611665D01*
X58649Y611306D01*
X58139Y611011D01*
X57594Y610786D01*
X57024Y610633D01*
X56439Y610556D01*
X55849Y610556D01*
X55264Y610633D01*
X54694Y610786D01*
X54149Y611011D01*
X53639Y611306D01*
X53171Y611665D01*
X52753Y612083D01*
X52394Y612551D01*
X52099Y613061D01*
X51874Y613606D01*
X51721Y614176D01*
X51644Y614761D01*
X51644Y615351D01*
X51721Y615936D01*
X51874Y616506D01*
X52099Y617051D01*
X52394Y617561D01*
X52753Y618029D01*
X53171Y618447D01*
X53639Y618806D01*
X54149Y619101D01*
X54694Y619326D01*
X55264Y619479D01*
X55849Y619556D01*
X56439Y619556D01*
X57024Y619479D01*
X57594Y619326D01*
X58139Y619101D01*
X58649Y618806D01*
X59117Y618447D01*
X59535Y618029D01*
X59894Y617561D01*
X60189Y617051D01*
X60414Y616506D01*
X60567Y615936D01*
X60644Y615351D01*
X60644Y614761D01*
X60644Y570761D02*
X60567Y570176D01*
X60414Y569606D01*
X60189Y569061D01*
X59894Y568551D01*
X59535Y568083D01*
X59117Y567665D01*
X58649Y567306D01*
X58139Y567011D01*
X57594Y566786D01*
X57024Y566633D01*
X56439Y566556D01*
X55849Y566556D01*
X55264Y566633D01*
X54694Y566786D01*
X54149Y567011D01*
X53639Y567306D01*
X53171Y567665D01*
X52753Y568083D01*
X52394Y568551D01*
X52099Y569061D01*
X51874Y569606D01*
X51721Y570176D01*
X51644Y570761D01*
X51644Y571351D01*
X51721Y571936D01*
X51874Y572506D01*
X52099Y573051D01*
X52394Y573561D01*
X52753Y574029D01*
X53171Y574447D01*
X53639Y574806D01*
X54149Y575101D01*
X54694Y575326D01*
X55264Y575479D01*
X55849Y575556D01*
X56439Y575556D01*
X57024Y575479D01*
X57594Y575326D01*
X58139Y575101D01*
X58649Y574806D01*
X59117Y574447D01*
X59535Y574029D01*
X59894Y573561D01*
X60189Y573051D01*
X60414Y572506D01*
X60567Y571936D01*
X60644Y571351D01*
X60644Y570761D01*
X148480Y694908D02*
X148409Y693911D01*
X148266Y692921D01*
X148054Y691944D01*
X147772Y690984D01*
X147423Y690047D01*
X147007Y689137D01*
X146528Y688260D01*
X145987Y687418D01*
X145388Y686618D01*
X144733Y685862D01*
X144026Y685155D01*
X143270Y684500D01*
X142470Y683901D01*
X141628Y683360D01*
X140751Y682881D01*
X139841Y682465D01*
X138904Y682116D01*
X137945Y681834D01*
X136967Y681622D01*
X135978Y681479D01*
X134980Y681408D01*
X133980Y681408D01*
X132983Y681479D01*
X131993Y681622D01*
X131016Y681834D01*
X130056Y682116D01*
X129119Y682465D01*
X128209Y682881D01*
X127332Y683360D01*
X126490Y683901D01*
X125690Y684500D01*
X124934Y685155D01*
X124227Y685862D01*
X123572Y686618D01*
X122973Y687418D01*
X122432Y688260D01*
X121953Y689137D01*
X121537Y690047D01*
X121188Y690984D01*
X120906Y691944D01*
X120694Y692921D01*
X120551Y693911D01*
X120480Y694908D01*
X120480Y695908D01*
X120551Y696906D01*
X120694Y697895D01*
X120906Y698873D01*
X121188Y699832D01*
X121537Y700769D01*
X121953Y701679D01*
X122432Y702556D01*
X122973Y703398D01*
X123572Y704198D01*
X124227Y704954D01*
X124934Y705661D01*
X125690Y706316D01*
X126490Y706915D01*
X127332Y707456D01*
X128209Y707935D01*
X129119Y708351D01*
X130056Y708700D01*
X131016Y708982D01*
X131993Y709194D01*
X132983Y709337D01*
X133980Y709408D01*
X134980Y709408D01*
X135978Y709337D01*
X136967Y709194D01*
X137945Y708982D01*
X138904Y708700D01*
X139841Y708351D01*
X140751Y707935D01*
X141628Y707456D01*
X142470Y706915D01*
X143270Y706316D01*
X144026Y705661D01*
X144733Y704954D01*
X145388Y704198D01*
X145987Y703398D01*
X146528Y702556D01*
X147007Y701679D01*
X147423Y700769D01*
X147772Y699832D01*
X148054Y698873D01*
X148266Y697895D01*
X148409Y696906D01*
X148480Y695908D01*
X148480Y694908D01*
X328480Y694908D02*
X328409Y693911D01*
X328266Y692921D01*
X328054Y691944D01*
X327772Y690984D01*
X327423Y690047D01*
X327007Y689137D01*
X326528Y688260D01*
X325987Y687418D01*
X325388Y686618D01*
X324733Y685862D01*
X324026Y685155D01*
X323270Y684500D01*
X322470Y683901D01*
X321628Y683360D01*
X320751Y682881D01*
X319841Y682465D01*
X318904Y682116D01*
X317945Y681834D01*
X316967Y681622D01*
X315978Y681479D01*
X314980Y681408D01*
X313980Y681408D01*
X312983Y681479D01*
X311993Y681622D01*
X311016Y681834D01*
X310056Y682116D01*
X309119Y682465D01*
X308209Y682881D01*
X307332Y683360D01*
X306490Y683901D01*
X305690Y684500D01*
X304934Y685155D01*
X304227Y685862D01*
X303572Y686618D01*
X302973Y687418D01*
X302432Y688260D01*
X301953Y689137D01*
X301537Y690047D01*
X301188Y690984D01*
X300906Y691944D01*
X300694Y692921D01*
X300551Y693911D01*
X300480Y694908D01*
X300480Y695908D01*
X300551Y696906D01*
X300694Y697895D01*
X300906Y698873D01*
X301188Y699832D01*
X301537Y700769D01*
X301953Y701679D01*
X302432Y702556D01*
X302973Y703398D01*
X303572Y704198D01*
X304227Y704954D01*
X304934Y705661D01*
X305690Y706316D01*
X306490Y706915D01*
X307332Y707456D01*
X308209Y707935D01*
X309119Y708351D01*
X310056Y708700D01*
X311016Y708982D01*
X311993Y709194D01*
X312983Y709337D01*
X313980Y709408D01*
X314980Y709408D01*
X315978Y709337D01*
X316967Y709194D01*
X317945Y708982D01*
X318904Y708700D01*
X319841Y708351D01*
X320751Y707935D01*
X321628Y707456D01*
X322470Y706915D01*
X323270Y706316D01*
X324026Y705661D01*
X324733Y704954D01*
X325388Y704198D01*
X325987Y703398D01*
X326528Y702556D01*
X327007Y701679D01*
X327423Y700769D01*
X327772Y699832D01*
X328054Y698873D01*
X328266Y697895D01*
X328409Y696906D01*
X328480Y695908D01*
X328480Y694908D01*
X300480Y159940D02*
X300551Y160938D01*
X300694Y161927D01*
X300906Y162905D01*
X301188Y163864D01*
X301537Y164801D01*
X301953Y165711D01*
X302432Y166588D01*
X302973Y167430D01*
X303572Y168230D01*
X304227Y168986D01*
X304934Y169693D01*
X305690Y170348D01*
X306490Y170947D01*
X307332Y171488D01*
X308209Y171967D01*
X309119Y172383D01*
X310056Y172732D01*
X311016Y173014D01*
X311993Y173226D01*
X312983Y173369D01*
X313980Y173440D01*
X314980Y173440D01*
X315978Y173369D01*
X316967Y173226D01*
X317945Y173014D01*
X318904Y172732D01*
X319841Y172383D01*
X320751Y171967D01*
X321628Y171488D01*
X322470Y170947D01*
X323270Y170348D01*
X324026Y169693D01*
X324733Y168986D01*
X325388Y168230D01*
X325987Y167430D01*
X326528Y166588D01*
X327007Y165711D01*
X327423Y164801D01*
X327772Y163864D01*
X328054Y162905D01*
X328266Y161927D01*
X328409Y160938D01*
X328480Y159940D01*
X328480Y158940D01*
X328409Y157943D01*
X328266Y156953D01*
X328054Y155976D01*
X327772Y155016D01*
X327423Y154079D01*
X327007Y153169D01*
X326528Y152292D01*
X325987Y151450D01*
X325388Y150650D01*
X324733Y149894D01*
X324026Y149187D01*
X323270Y148532D01*
X322470Y147933D01*
X321628Y147392D01*
X320751Y146913D01*
X319841Y146497D01*
X318904Y146148D01*
X317945Y145866D01*
X316967Y145654D01*
X315978Y145511D01*
X314980Y145440D01*
X313980Y145440D01*
X312983Y145511D01*
X311993Y145654D01*
X311016Y145866D01*
X310056Y146148D01*
X309119Y146497D01*
X308209Y146913D01*
X307332Y147392D01*
X306490Y147933D01*
X305690Y148532D01*
X304934Y149187D01*
X304227Y149894D01*
X303572Y150650D01*
X302973Y151450D01*
X302432Y152292D01*
X301953Y153169D01*
X301537Y154079D01*
X301188Y155016D01*
X300906Y155976D01*
X300694Y156953D01*
X300551Y157943D01*
X300480Y158940D01*
X300480Y159940D01*
X120480Y159940D02*
X120551Y160938D01*
X120694Y161927D01*
X120906Y162905D01*
X121188Y163864D01*
X121537Y164801D01*
X121953Y165711D01*
X122432Y166588D01*
X122973Y167430D01*
X123572Y168230D01*
X124227Y168986D01*
X124934Y169693D01*
X125690Y170348D01*
X126490Y170947D01*
X127332Y171488D01*
X128209Y171967D01*
X129119Y172383D01*
X130056Y172732D01*
X131016Y173014D01*
X131993Y173226D01*
X132983Y173369D01*
X133980Y173440D01*
X134980Y173440D01*
X135978Y173369D01*
X136967Y173226D01*
X137945Y173014D01*
X138904Y172732D01*
X139841Y172383D01*
X140751Y171967D01*
X141628Y171488D01*
X142470Y170947D01*
X143270Y170348D01*
X144026Y169693D01*
X144733Y168986D01*
X145388Y168230D01*
X145987Y167430D01*
X146528Y166588D01*
X147007Y165711D01*
X147423Y164801D01*
X147772Y163864D01*
X148054Y162905D01*
X148266Y161927D01*
X148409Y160938D01*
X148480Y159940D01*
X148480Y158940D01*
X148409Y157943D01*
X148266Y156953D01*
X148054Y155976D01*
X147772Y155016D01*
X147423Y154079D01*
X147007Y153169D01*
X146528Y152292D01*
X145987Y151450D01*
X145388Y150650D01*
X144733Y149894D01*
X144026Y149187D01*
X143270Y148532D01*
X142470Y147933D01*
X141628Y147392D01*
X140751Y146913D01*
X139841Y146497D01*
X138904Y146148D01*
X137945Y145866D01*
X136967Y145654D01*
X135978Y145511D01*
X134980Y145440D01*
X133980Y145440D01*
X132983Y145511D01*
X131993Y145654D01*
X131016Y145866D01*
X130056Y146148D01*
X129119Y146497D01*
X128209Y146913D01*
X127332Y147392D01*
X126490Y147933D01*
X125690Y148532D01*
X124934Y149187D01*
X124227Y149894D01*
X123572Y150650D01*
X122973Y151450D01*
X122432Y152292D01*
X121953Y153169D01*
X121537Y154079D01*
X121188Y155016D01*
X120906Y155976D01*
X120694Y156953D01*
X120551Y157943D01*
X120480Y158940D01*
X120480Y159940D01*
M02*
