G04 EAGLE Gerber RS-274X export*
G75*
%MOMM*%
%FSLAX34Y34*%
%LPD*%
%INSoldermask Bottom*%
%IPPOS*%
%AMOC8*
5,1,8,0,0,1.08239X$1,22.5*%
G01*
%ADD10R,1.803200X2.003200*%
%ADD11R,1.703200X1.503200*%
%ADD12R,11.003200X10.613200*%
%ADD13R,1.270000X2.362200*%
%ADD14C,1.625600*%
%ADD15C,1.103200*%
%ADD16R,1.503200X1.703200*%
%ADD17R,2.603200X2.603200*%
%ADD18R,1.723200X1.803200*%
%ADD19R,1.703200X1.703200*%
%ADD20C,1.511200*%
%ADD21C,3.003200*%
%ADD22C,1.727200*%
%ADD23R,1.203200X1.603200*%
%ADD24R,1.503200X1.803200*%
%ADD25P,1.649562X8X112.500000*%
%ADD26R,1.603200X1.203200*%
%ADD27R,1.803200X1.503200*%
%ADD28R,2.403200X0.803200*%
%ADD29C,1.473200*%
%ADD30P,1.649562X8X42.500000*%
%ADD31P,1.649562X8X362.500000*%
%ADD32P,1.649562X8X182.500000*%
%ADD33P,1.649562X8X222.500000*%


D10*
X47288Y515224D03*
X75288Y515224D03*
D11*
X502204Y441404D03*
X502204Y422404D03*
D12*
X223068Y583472D03*
D13*
X223068Y666784D03*
X197668Y666784D03*
X248468Y666784D03*
D14*
X62936Y689324D02*
X62936Y703548D01*
X37536Y703548D02*
X37536Y689324D01*
D15*
X56144Y615056D03*
X56144Y571056D03*
D14*
X427348Y161864D02*
X427348Y147640D01*
X401948Y147640D02*
X401948Y161864D01*
D16*
X195788Y707932D03*
X214788Y707932D03*
X247808Y689644D03*
X228808Y689644D03*
X195788Y690152D03*
X214788Y690152D03*
X247808Y708440D03*
X228808Y708440D03*
D11*
X391748Y439000D03*
X391748Y458000D03*
D16*
X130332Y568000D03*
X111332Y568000D03*
X111652Y626768D03*
X130652Y626768D03*
D17*
X45408Y655328D03*
X89408Y655328D03*
D18*
X814228Y77312D03*
X850728Y77312D03*
D19*
X851212Y106528D03*
X816212Y106528D03*
D18*
X813428Y181136D03*
X849928Y181136D03*
D19*
X850972Y210528D03*
X815972Y210528D03*
D18*
X813428Y276640D03*
X849928Y276640D03*
D19*
X850972Y310096D03*
X815972Y310096D03*
D18*
X811396Y380272D03*
X847896Y380272D03*
D19*
X848940Y405600D03*
X813940Y405600D03*
D18*
X811396Y479840D03*
X847896Y479840D03*
D19*
X848940Y454368D03*
X813940Y454368D03*
D18*
X811396Y578384D03*
X847896Y578384D03*
D19*
X849964Y549872D03*
X814964Y549872D03*
D18*
X811396Y679984D03*
X847896Y679984D03*
D19*
X849964Y649440D03*
X814964Y649440D03*
D18*
X813428Y775488D03*
X849928Y775488D03*
D19*
X849964Y751040D03*
X814964Y751040D03*
D20*
X174480Y440408D03*
X194480Y440408D03*
X214480Y440408D03*
X234480Y440408D03*
X254480Y440408D03*
X274480Y440408D03*
D21*
X134480Y695408D03*
X314480Y695408D03*
D20*
X274480Y414440D03*
X254480Y414440D03*
X234480Y414440D03*
X214480Y414440D03*
X194480Y414440D03*
X174480Y414440D03*
D21*
X314480Y159440D03*
X134480Y159440D03*
D22*
X379852Y690428D02*
X379852Y705668D01*
X405252Y705668D02*
X405252Y690428D01*
X430652Y690428D02*
X430652Y705668D01*
X456052Y705668D02*
X456052Y690428D01*
D23*
X697176Y500176D03*
X687676Y478176D03*
X706676Y478176D03*
D24*
X687676Y457520D03*
X706676Y457520D03*
D25*
X795152Y456692D03*
X795152Y482092D03*
X794888Y381508D03*
X794888Y406908D03*
D11*
X387752Y310228D03*
X387752Y329228D03*
D26*
X663272Y378968D03*
X641272Y388468D03*
X641272Y369468D03*
D27*
X620776Y388468D03*
X620776Y369468D03*
D28*
X198348Y272034D03*
X264948Y272034D03*
X198348Y259334D03*
X198348Y284734D03*
X198348Y297434D03*
X264948Y259334D03*
X264948Y284734D03*
X264948Y297434D03*
D16*
X224180Y239776D03*
X243180Y239776D03*
D29*
X150368Y258064D03*
X150368Y280416D03*
X150368Y298704D03*
X150368Y319024D03*
D30*
X466066Y217256D03*
X489934Y225944D03*
D31*
X468098Y636344D03*
X491966Y627656D03*
D32*
X540894Y577496D03*
X517026Y586184D03*
D33*
X542926Y270008D03*
X519058Y261320D03*
D22*
X752988Y464820D02*
X768228Y464820D01*
X768228Y439420D02*
X752988Y439420D01*
X752988Y414020D02*
X768228Y414020D01*
X768228Y388620D02*
X752988Y388620D01*
X89916Y94996D02*
X89916Y79756D01*
X115316Y79756D02*
X115316Y94996D01*
X140716Y94996D02*
X140716Y79756D01*
X166116Y79756D02*
X166116Y94996D01*
D27*
X87376Y35204D03*
X87376Y54204D03*
D11*
X134112Y33172D03*
X134112Y52172D03*
X115824Y33172D03*
X115824Y52172D03*
X316992Y463436D03*
X316992Y444436D03*
X478888Y440852D03*
X478888Y421852D03*
X366952Y310308D03*
X366952Y329308D03*
X413048Y437828D03*
X413048Y456828D03*
M02*
