G04 EAGLE Gerber RS-274X export*
G75*
%MOMM*%
%FSLAX34Y34*%
%LPD*%
%INSolderpaste Top*%
%IPPOS*%
%AMOC8*
5,1,8,0,0,1.08239X$1,22.5*%
G01*
%ADD10R,1.600000X1.800000*%
%ADD11R,1.300000X1.600000*%
%ADD12R,1.600000X1.300000*%
%ADD13R,1.500000X1.500000*%
%ADD14R,1.300000X1.500000*%
%ADD15R,1.500000X1.300000*%
%ADD16R,1.550000X1.300000*%
%ADD17R,1.500000X0.300000*%
%ADD18R,2.540000X6.451600*%
%ADD19R,1.800000X1.600000*%
%ADD20R,1.600000X2.000000*%
%ADD21R,1.900000X1.400000*%
%ADD22R,3.000000X1.600000*%
%ADD23R,2.500000X2.000000*%
%ADD24R,3.300000X2.000000*%
%ADD25R,3.100000X0.500000*%
%ADD26R,0.300000X1.600000*%
%ADD27R,1.600000X0.300000*%
%ADD28R,0.500000X0.600000*%
%ADD29R,0.600000X0.500000*%
%ADD30R,0.254000X1.473200*%
%ADD31R,1.250000X0.250000*%
%ADD32R,2.050000X1.650000*%
%ADD33R,4.300000X2.500000*%


D10*
X36472Y366156D03*
X64472Y366156D03*
D11*
X335728Y293984D03*
X354728Y293984D03*
D12*
X387964Y269808D03*
X387964Y250808D03*
X121976Y234588D03*
X121976Y215588D03*
D13*
X61520Y138296D03*
X61520Y173296D03*
X32804Y138040D03*
X32804Y173040D03*
D11*
X52892Y196944D03*
X33892Y196944D03*
D12*
X127832Y303080D03*
X127832Y322080D03*
D14*
X556444Y361560D03*
X575444Y361560D03*
D15*
X490396Y319900D03*
X490396Y300900D03*
X121864Y270568D03*
X121864Y251568D03*
D16*
X22298Y266264D03*
X101798Y266264D03*
X22298Y221264D03*
X101798Y221264D03*
X22722Y337808D03*
X102222Y337808D03*
X22722Y292808D03*
X102222Y292808D03*
D17*
X133772Y398986D03*
X133772Y405486D03*
X133772Y411986D03*
X133772Y418486D03*
X133772Y424986D03*
X133772Y431486D03*
X133772Y437986D03*
X133772Y444486D03*
X133772Y450986D03*
X133772Y457486D03*
X133772Y463986D03*
X133772Y470486D03*
X68772Y470486D03*
X68772Y463986D03*
X68772Y457486D03*
X68772Y450986D03*
X68772Y444486D03*
X68772Y437986D03*
X68772Y431486D03*
X68772Y424986D03*
X68772Y418486D03*
X68772Y411986D03*
X68772Y405486D03*
X68772Y398986D03*
D18*
X101272Y434736D03*
D19*
X42852Y439024D03*
X42852Y467024D03*
D20*
X107592Y363616D03*
X135592Y363616D03*
D19*
X43360Y388732D03*
X43360Y416732D03*
D21*
X557440Y340676D03*
X513440Y340676D03*
X513440Y316676D03*
X557440Y316676D03*
D22*
X38632Y510936D03*
X82632Y510936D03*
D11*
X419512Y206800D03*
X400512Y206800D03*
D23*
X26144Y548556D03*
X26144Y637556D03*
D24*
X85144Y548556D03*
X85144Y637556D03*
D25*
X86144Y609056D03*
X86144Y601056D03*
X86144Y593056D03*
X86144Y585056D03*
X86144Y577056D03*
D11*
X117964Y606608D03*
X136964Y606608D03*
X117456Y587304D03*
X136456Y587304D03*
X111856Y549104D03*
X130856Y549104D03*
D15*
X384704Y205172D03*
X384704Y224172D03*
X315320Y287588D03*
X315320Y268588D03*
D11*
X823460Y76480D03*
X842460Y76480D03*
X823028Y106400D03*
X842028Y106400D03*
X825060Y180560D03*
X844060Y180560D03*
X825060Y211040D03*
X844060Y211040D03*
X820996Y276064D03*
X839996Y276064D03*
X823028Y308576D03*
X842028Y308576D03*
X823028Y379696D03*
X842028Y379696D03*
X823028Y406112D03*
X842028Y406112D03*
X823028Y479264D03*
X842028Y479264D03*
X823028Y454880D03*
X842028Y454880D03*
X823028Y577824D03*
X842028Y577824D03*
X823028Y549376D03*
X842028Y549376D03*
X818964Y679424D03*
X837964Y679424D03*
X825060Y650976D03*
X844060Y650976D03*
X823028Y774928D03*
X842028Y774928D03*
X818964Y750544D03*
X837964Y750544D03*
X808004Y527304D03*
X827004Y527304D03*
X721076Y369824D03*
X702076Y369824D03*
D26*
X351376Y261840D03*
X346376Y261840D03*
X341376Y261840D03*
X336376Y261840D03*
X331376Y261840D03*
D27*
X323376Y248840D03*
X323376Y243840D03*
X323376Y238840D03*
D26*
X331376Y225840D03*
X336376Y225840D03*
X341376Y225840D03*
X346376Y225840D03*
X351376Y225840D03*
D27*
X359376Y238840D03*
X359376Y243840D03*
X359376Y248840D03*
D15*
X366776Y210972D03*
X366776Y229972D03*
D11*
X542508Y555272D03*
X561508Y555272D03*
X475388Y250192D03*
X456388Y250192D03*
D12*
X596160Y335292D03*
X596160Y354292D03*
D11*
X478940Y607088D03*
X459940Y607088D03*
D28*
X112016Y38236D03*
X120016Y38236D03*
X128016Y38236D03*
X136016Y38236D03*
X144016Y38236D03*
D29*
X144516Y46736D03*
D28*
X144016Y55236D03*
X136016Y55236D03*
X128016Y55236D03*
X120016Y55236D03*
X112016Y55236D03*
D29*
X111516Y46736D03*
D30*
G36*
X457231Y327455D02*
X455435Y325659D01*
X445019Y336075D01*
X446815Y337871D01*
X457231Y327455D01*
G37*
G36*
X460644Y330868D02*
X458848Y329072D01*
X448432Y339488D01*
X450228Y341284D01*
X460644Y330868D01*
G37*
G36*
X464236Y334460D02*
X462440Y332664D01*
X452024Y343080D01*
X453820Y344876D01*
X464236Y334460D01*
G37*
G36*
X467828Y338052D02*
X466032Y336256D01*
X455616Y346672D01*
X457412Y348468D01*
X467828Y338052D01*
G37*
G36*
X471420Y341644D02*
X469624Y339848D01*
X459208Y350264D01*
X461004Y352060D01*
X471420Y341644D01*
G37*
G36*
X474832Y345057D02*
X473036Y343261D01*
X462620Y353677D01*
X464416Y355473D01*
X474832Y345057D01*
G37*
G36*
X478425Y348649D02*
X476629Y346853D01*
X466213Y357269D01*
X468009Y359065D01*
X478425Y348649D01*
G37*
G36*
X482017Y352241D02*
X480221Y350445D01*
X469805Y360861D01*
X471601Y362657D01*
X482017Y352241D01*
G37*
G36*
X485429Y355653D02*
X483633Y353857D01*
X473217Y364273D01*
X475013Y366069D01*
X485429Y355653D01*
G37*
G36*
X489021Y359245D02*
X487225Y357449D01*
X476809Y367865D01*
X478605Y369661D01*
X489021Y359245D01*
G37*
G36*
X492613Y362837D02*
X490817Y361041D01*
X480401Y371457D01*
X482197Y373253D01*
X492613Y362837D01*
G37*
G36*
X496026Y366250D02*
X494230Y364454D01*
X483814Y374870D01*
X485610Y376666D01*
X496026Y366250D01*
G37*
G36*
X499618Y369842D02*
X497822Y368046D01*
X487406Y378462D01*
X489202Y380258D01*
X499618Y369842D01*
G37*
G36*
X503210Y373434D02*
X501414Y371638D01*
X490998Y382054D01*
X492794Y383850D01*
X503210Y373434D01*
G37*
G36*
X506623Y376847D02*
X504827Y375051D01*
X494411Y385467D01*
X496207Y387263D01*
X506623Y376847D01*
G37*
G36*
X510215Y380439D02*
X508419Y378643D01*
X498003Y389059D01*
X499799Y390855D01*
X510215Y380439D01*
G37*
G36*
X513807Y384031D02*
X512011Y382235D01*
X501595Y392651D01*
X503391Y394447D01*
X513807Y384031D01*
G37*
G36*
X517219Y387443D02*
X515423Y385647D01*
X505007Y396063D01*
X506803Y397859D01*
X517219Y387443D01*
G37*
G36*
X520811Y391035D02*
X519015Y389239D01*
X508599Y399655D01*
X510395Y401451D01*
X520811Y391035D01*
G37*
G36*
X524403Y394628D02*
X522607Y392832D01*
X512191Y403248D01*
X513987Y405044D01*
X524403Y394628D01*
G37*
G36*
X527816Y398040D02*
X526020Y396244D01*
X515604Y406660D01*
X517400Y408456D01*
X527816Y398040D01*
G37*
G36*
X531408Y401632D02*
X529612Y399836D01*
X519196Y410252D01*
X520992Y412048D01*
X531408Y401632D01*
G37*
G36*
X535000Y405224D02*
X533204Y403428D01*
X522788Y413844D01*
X524584Y415640D01*
X535000Y405224D01*
G37*
G36*
X538592Y408816D02*
X536796Y407020D01*
X526380Y417436D01*
X528176Y419232D01*
X538592Y408816D01*
G37*
G36*
X542005Y412229D02*
X540209Y410433D01*
X529793Y420849D01*
X531589Y422645D01*
X542005Y412229D01*
G37*
G36*
X531589Y434859D02*
X529793Y436655D01*
X540209Y447071D01*
X542005Y445275D01*
X531589Y434859D01*
G37*
G36*
X528176Y438272D02*
X526380Y440068D01*
X536796Y450484D01*
X538592Y448688D01*
X528176Y438272D01*
G37*
G36*
X524584Y441864D02*
X522788Y443660D01*
X533204Y454076D01*
X535000Y452280D01*
X524584Y441864D01*
G37*
G36*
X520992Y445456D02*
X519196Y447252D01*
X529612Y457668D01*
X531408Y455872D01*
X520992Y445456D01*
G37*
G36*
X517400Y449048D02*
X515604Y450844D01*
X526020Y461260D01*
X527816Y459464D01*
X517400Y449048D01*
G37*
G36*
X513987Y452460D02*
X512191Y454256D01*
X522607Y464672D01*
X524403Y462876D01*
X513987Y452460D01*
G37*
G36*
X510395Y456053D02*
X508599Y457849D01*
X519015Y468265D01*
X520811Y466469D01*
X510395Y456053D01*
G37*
G36*
X506803Y459645D02*
X505007Y461441D01*
X515423Y471857D01*
X517219Y470061D01*
X506803Y459645D01*
G37*
G36*
X503391Y463057D02*
X501595Y464853D01*
X512011Y475269D01*
X513807Y473473D01*
X503391Y463057D01*
G37*
G36*
X499799Y466649D02*
X498003Y468445D01*
X508419Y478861D01*
X510215Y477065D01*
X499799Y466649D01*
G37*
G36*
X496207Y470241D02*
X494411Y472037D01*
X504827Y482453D01*
X506623Y480657D01*
X496207Y470241D01*
G37*
G36*
X492794Y473654D02*
X490998Y475450D01*
X501414Y485866D01*
X503210Y484070D01*
X492794Y473654D01*
G37*
G36*
X489202Y477246D02*
X487406Y479042D01*
X497822Y489458D01*
X499618Y487662D01*
X489202Y477246D01*
G37*
G36*
X485610Y480838D02*
X483814Y482634D01*
X494230Y493050D01*
X496026Y491254D01*
X485610Y480838D01*
G37*
G36*
X482197Y484251D02*
X480401Y486047D01*
X490817Y496463D01*
X492613Y494667D01*
X482197Y484251D01*
G37*
G36*
X478605Y487843D02*
X476809Y489639D01*
X487225Y500055D01*
X489021Y498259D01*
X478605Y487843D01*
G37*
G36*
X475013Y491435D02*
X473217Y493231D01*
X483633Y503647D01*
X485429Y501851D01*
X475013Y491435D01*
G37*
G36*
X471601Y494847D02*
X469805Y496643D01*
X480221Y507059D01*
X482017Y505263D01*
X471601Y494847D01*
G37*
G36*
X468009Y498439D02*
X466213Y500235D01*
X476629Y510651D01*
X478425Y508855D01*
X468009Y498439D01*
G37*
G36*
X464416Y502031D02*
X462620Y503827D01*
X473036Y514243D01*
X474832Y512447D01*
X464416Y502031D01*
G37*
G36*
X461004Y505444D02*
X459208Y507240D01*
X469624Y517656D01*
X471420Y515860D01*
X461004Y505444D01*
G37*
G36*
X457412Y509036D02*
X455616Y510832D01*
X466032Y521248D01*
X467828Y519452D01*
X457412Y509036D01*
G37*
G36*
X453820Y512628D02*
X452024Y514424D01*
X462440Y524840D01*
X464236Y523044D01*
X453820Y512628D01*
G37*
G36*
X450228Y516220D02*
X448432Y518016D01*
X458848Y528432D01*
X460644Y526636D01*
X450228Y516220D01*
G37*
G36*
X446815Y519633D02*
X445019Y521429D01*
X455435Y531845D01*
X457231Y530049D01*
X446815Y519633D01*
G37*
G36*
X432805Y521429D02*
X431009Y519633D01*
X420593Y530049D01*
X422389Y531845D01*
X432805Y521429D01*
G37*
G36*
X429392Y518016D02*
X427596Y516220D01*
X417180Y526636D01*
X418976Y528432D01*
X429392Y518016D01*
G37*
G36*
X425800Y514424D02*
X424004Y512628D01*
X413588Y523044D01*
X415384Y524840D01*
X425800Y514424D01*
G37*
G36*
X422208Y510832D02*
X420412Y509036D01*
X409996Y519452D01*
X411792Y521248D01*
X422208Y510832D01*
G37*
G36*
X418616Y507240D02*
X416820Y505444D01*
X406404Y515860D01*
X408200Y517656D01*
X418616Y507240D01*
G37*
G36*
X415204Y503827D02*
X413408Y502031D01*
X402992Y512447D01*
X404788Y514243D01*
X415204Y503827D01*
G37*
G36*
X411611Y500235D02*
X409815Y498439D01*
X399399Y508855D01*
X401195Y510651D01*
X411611Y500235D01*
G37*
G36*
X408019Y496643D02*
X406223Y494847D01*
X395807Y505263D01*
X397603Y507059D01*
X408019Y496643D01*
G37*
G36*
X404607Y493231D02*
X402811Y491435D01*
X392395Y501851D01*
X394191Y503647D01*
X404607Y493231D01*
G37*
G36*
X401015Y489639D02*
X399219Y487843D01*
X388803Y498259D01*
X390599Y500055D01*
X401015Y489639D01*
G37*
G36*
X397423Y486047D02*
X395627Y484251D01*
X385211Y494667D01*
X387007Y496463D01*
X397423Y486047D01*
G37*
G36*
X394010Y482634D02*
X392214Y480838D01*
X381798Y491254D01*
X383594Y493050D01*
X394010Y482634D01*
G37*
G36*
X390418Y479042D02*
X388622Y477246D01*
X378206Y487662D01*
X380002Y489458D01*
X390418Y479042D01*
G37*
G36*
X386826Y475450D02*
X385030Y473654D01*
X374614Y484070D01*
X376410Y485866D01*
X386826Y475450D01*
G37*
G36*
X383413Y472037D02*
X381617Y470241D01*
X371201Y480657D01*
X372997Y482453D01*
X383413Y472037D01*
G37*
G36*
X379821Y468445D02*
X378025Y466649D01*
X367609Y477065D01*
X369405Y478861D01*
X379821Y468445D01*
G37*
G36*
X376229Y464853D02*
X374433Y463057D01*
X364017Y473473D01*
X365813Y475269D01*
X376229Y464853D01*
G37*
G36*
X372817Y461441D02*
X371021Y459645D01*
X360605Y470061D01*
X362401Y471857D01*
X372817Y461441D01*
G37*
G36*
X369225Y457849D02*
X367429Y456053D01*
X357013Y466469D01*
X358809Y468265D01*
X369225Y457849D01*
G37*
G36*
X365633Y454256D02*
X363837Y452460D01*
X353421Y462876D01*
X355217Y464672D01*
X365633Y454256D01*
G37*
G36*
X362220Y450844D02*
X360424Y449048D01*
X350008Y459464D01*
X351804Y461260D01*
X362220Y450844D01*
G37*
G36*
X358628Y447252D02*
X356832Y445456D01*
X346416Y455872D01*
X348212Y457668D01*
X358628Y447252D01*
G37*
G36*
X355036Y443660D02*
X353240Y441864D01*
X342824Y452280D01*
X344620Y454076D01*
X355036Y443660D01*
G37*
G36*
X351444Y440068D02*
X349648Y438272D01*
X339232Y448688D01*
X341028Y450484D01*
X351444Y440068D01*
G37*
G36*
X348031Y436655D02*
X346235Y434859D01*
X335819Y445275D01*
X337615Y447071D01*
X348031Y436655D01*
G37*
G36*
X337615Y410433D02*
X335819Y412229D01*
X346235Y422645D01*
X348031Y420849D01*
X337615Y410433D01*
G37*
G36*
X341028Y407020D02*
X339232Y408816D01*
X349648Y419232D01*
X351444Y417436D01*
X341028Y407020D01*
G37*
G36*
X344620Y403428D02*
X342824Y405224D01*
X353240Y415640D01*
X355036Y413844D01*
X344620Y403428D01*
G37*
G36*
X348212Y399836D02*
X346416Y401632D01*
X356832Y412048D01*
X358628Y410252D01*
X348212Y399836D01*
G37*
G36*
X351804Y396244D02*
X350008Y398040D01*
X360424Y408456D01*
X362220Y406660D01*
X351804Y396244D01*
G37*
G36*
X355217Y392832D02*
X353421Y394628D01*
X363837Y405044D01*
X365633Y403248D01*
X355217Y392832D01*
G37*
G36*
X358809Y389239D02*
X357013Y391035D01*
X367429Y401451D01*
X369225Y399655D01*
X358809Y389239D01*
G37*
G36*
X362401Y385647D02*
X360605Y387443D01*
X371021Y397859D01*
X372817Y396063D01*
X362401Y385647D01*
G37*
G36*
X365813Y382235D02*
X364017Y384031D01*
X374433Y394447D01*
X376229Y392651D01*
X365813Y382235D01*
G37*
G36*
X369405Y378643D02*
X367609Y380439D01*
X378025Y390855D01*
X379821Y389059D01*
X369405Y378643D01*
G37*
G36*
X372997Y375051D02*
X371201Y376847D01*
X381617Y387263D01*
X383413Y385467D01*
X372997Y375051D01*
G37*
G36*
X376410Y371638D02*
X374614Y373434D01*
X385030Y383850D01*
X386826Y382054D01*
X376410Y371638D01*
G37*
G36*
X380002Y368046D02*
X378206Y369842D01*
X388622Y380258D01*
X390418Y378462D01*
X380002Y368046D01*
G37*
G36*
X383594Y364454D02*
X381798Y366250D01*
X392214Y376666D01*
X394010Y374870D01*
X383594Y364454D01*
G37*
G36*
X387007Y361041D02*
X385211Y362837D01*
X395627Y373253D01*
X397423Y371457D01*
X387007Y361041D01*
G37*
G36*
X390599Y357449D02*
X388803Y359245D01*
X399219Y369661D01*
X401015Y367865D01*
X390599Y357449D01*
G37*
G36*
X394191Y353857D02*
X392395Y355653D01*
X402811Y366069D01*
X404607Y364273D01*
X394191Y353857D01*
G37*
G36*
X397603Y350445D02*
X395807Y352241D01*
X406223Y362657D01*
X408019Y360861D01*
X397603Y350445D01*
G37*
G36*
X401195Y346853D02*
X399399Y348649D01*
X409815Y359065D01*
X411611Y357269D01*
X401195Y346853D01*
G37*
G36*
X404788Y343261D02*
X402992Y345057D01*
X413408Y355473D01*
X415204Y353677D01*
X404788Y343261D01*
G37*
G36*
X408200Y339848D02*
X406404Y341644D01*
X416820Y352060D01*
X418616Y350264D01*
X408200Y339848D01*
G37*
G36*
X411792Y336256D02*
X409996Y338052D01*
X420412Y348468D01*
X422208Y346672D01*
X411792Y336256D01*
G37*
G36*
X415384Y332664D02*
X413588Y334460D01*
X424004Y344876D01*
X425800Y343080D01*
X415384Y332664D01*
G37*
G36*
X418976Y329072D02*
X417180Y330868D01*
X427596Y341284D01*
X429392Y339488D01*
X418976Y329072D01*
G37*
G36*
X422389Y325659D02*
X420593Y327455D01*
X431009Y337871D01*
X432805Y336075D01*
X422389Y325659D01*
G37*
D14*
X473220Y548808D03*
X492220Y548808D03*
D31*
X638836Y407500D03*
X638836Y412500D03*
X638836Y417500D03*
X638836Y422500D03*
X638836Y427500D03*
X638836Y432500D03*
X638836Y437500D03*
X638836Y442500D03*
X638836Y447500D03*
X638836Y452500D03*
D32*
X671336Y471500D03*
X671336Y388500D03*
D33*
X328500Y600000D03*
X411500Y600000D03*
M02*
